<?xml version="1.0" encoding="us-ascii" standalone="no"?><svg xmlns="http://www.w3.org/2000/svg" xmlns:xlink="http://www.w3.org/1999/xlink" contentStyleType="text/css" height="338px" preserveAspectRatio="none" style="width:1453px;height:338px;background:#FFFFFF;" version="1.1" viewBox="0 0 1453 338" width="1453px" zoomAndPan="magnify"><defs/><g><g id="elem_EffectivePeriod"><rect fill="#F1F1F1" height="36.4883" rx="2.5" ry="2.5" style="stroke:#181818;stroke-width:0.5;" width="121" x="722" y="103.49"/><text fill="#000000" font-family="sans-serif" font-size="14" lengthAdjust="spacing" textLength="101" x="732" y="127.0252">EffectivePeriod</text></g><g id="elem_FinancialSplitReference"><rect fill="#F1F1F1" height="36.4883" rx="2.5" ry="2.5" style="stroke:#181818;stroke-width:0.5;" width="179" x="7" y="199.97"/><text fill="#000000" font-family="sans-serif" font-size="14" lengthAdjust="spacing" textLength="159" x="17" y="223.5052">FinancialSplitReference</text></g><g id="elem_GeographicBoundaryReference"><rect fill="#F1F1F1" height="36.4883" rx="2.5" ry="2.5" style="stroke:#181818;stroke-width:0.5;" width="232" x="220.5" y="199.97"/><text fill="#000000" font-family="sans-serif" font-size="14" lengthAdjust="spacing" textLength="212" x="230.5" y="223.5052">GeographicBoundaryReference</text></g><g id="elem_Identifier"><rect fill="#F1F1F1" height="36.4883" rx="2.5" ry="2.5" style="stroke:#181818;stroke-width:0.5;" width="82" x="343.5" y="103.49"/><text fill="#000000" font-family="sans-serif" font-size="14" lengthAdjust="spacing" textLength="62" x="353.5" y="127.0252">Identifier</text></g><g id="elem_PartyIdentifier"><rect fill="#F1F1F1" height="36.4883" rx="2.5" ry="2.5" style="stroke:#181818;stroke-width:0.5;" width="116" x="724.5" y="199.97"/><text fill="#000000" font-family="sans-serif" font-size="14" lengthAdjust="spacing" textLength="96" x="734.5" y="223.5052">PartyIdentifier</text></g><g id="elem_PricePlan"><rect fill="#F1F1F1" height="36.4883" rx="2.5" ry="2.5" style="stroke:#181818;stroke-width:0.5;" width="82" x="818.5" y="296.46"/><text fill="#000000" font-family="sans-serif" font-size="14" lengthAdjust="spacing" textLength="62" x="828.5" y="319.9952">PricePlan</text></g><g id="elem_PriceSensitivity"><rect fill="#F1F1F1" height="36.4883" rx="2.5" ry="2.5" style="stroke:#181818;stroke-width:0.5;" width="121" x="876" y="199.97"/><text fill="#000000" font-family="sans-serif" font-size="14" lengthAdjust="spacing" textLength="101" x="886" y="223.5052">PriceSensitivity</text></g><g id="elem_ProductScheduleReference"><rect fill="#F1F1F1" height="36.4883" rx="2.5" ry="2.5" style="stroke:#181818;stroke-width:0.5;" width="203" x="487" y="199.97"/><text fill="#000000" font-family="sans-serif" font-size="14" lengthAdjust="spacing" textLength="183" x="497" y="223.5052">ProductScheduleReference</text></g><g id="elem_DurationUOMTypes"><rect fill="#FAFF91" height="36.4883" rx="2.5" ry="2.5" style="stroke:#181818;stroke-width:0.5;" width="153" x="706" y="7"/><text fill="#000000" font-family="sans-serif" font-size="14" lengthAdjust="spacing" textLength="133" x="716" y="30.5352">DurationUOMTypes</text></g><g id="elem_PartyRelationshipTypes"><rect fill="#FAFF91" height="36.4883" rx="2.5" ry="2.5" style="stroke:#181818;stroke-width:0.5;" width="179" x="508" y="103.49"/><text fill="#000000" font-family="sans-serif" font-size="14" lengthAdjust="spacing" textLength="159" x="518" y="127.0252">PartyRelationshipTypes</text></g><g id="elem_PriceClassTypes"><rect fill="#FAFF91" height="36.4883" rx="2.5" ry="2.5" style="stroke:#181818;stroke-width:0.5;" width="129" x="1032" y="199.97"/><text fill="#000000" font-family="sans-serif" font-size="14" lengthAdjust="spacing" textLength="109" x="1042" y="223.5052">PriceClassTypes</text></g><g id="elem_PriceSensitivityTypes"><rect fill="#FAFF91" height="36.4883" rx="2.5" ry="2.5" style="stroke:#181818;stroke-width:0.5;" width="161" x="878" y="103.49"/><text fill="#000000" font-family="sans-serif" font-size="14" lengthAdjust="spacing" textLength="141" x="888" y="127.0252">PriceSensitivityTypes</text></g><g id="elem_PriceTypes"><rect fill="#FAFF91" height="36.4883" rx="2.5" ry="2.5" style="stroke:#181818;stroke-width:0.5;" width="93" x="1196" y="199.97"/><text fill="#000000" font-family="sans-serif" font-size="14" lengthAdjust="spacing" textLength="73" x="1206" y="223.5052">PriceTypes</text></g><g id="elem_ResourceTypes"><rect fill="#FAFF91" height="36.4883" rx="2.5" ry="2.5" style="stroke:#181818;stroke-width:0.5;" width="123" x="1324" y="199.97"/><text fill="#000000" font-family="sans-serif" font-size="14" lengthAdjust="spacing" textLength="103" x="1334" y="223.5052">ResourceTypes</text></g><g id="link_DurationUOMTypes_EffectivePeriod"><path d="M782.5,43.57 C782.5,60.51 782.5,86.17 782.5,103.19 " fill="none" id="DurationUOMTypes-EffectivePeriod" style="stroke:#181818;stroke-width:1.0;"/></g><g id="link_EffectivePeriod_PartyIdentifier"><path d="M782.5,140.06 C782.5,157 782.5,182.66 782.5,199.68 " fill="none" id="EffectivePeriod-PartyIdentifier" style="stroke:#181818;stroke-width:1.0;"/></g><g id="link_FinancialSplitReference_PricePlan"><path d="M198.2272,235.7601 C204.0272,236.6301 197.91,235.68 203.5,236.46 C435.48,268.8 714.88,298.71 818.36,309.48 " fill="none" id="FinancialSplitReference-backto-PricePlan" style="stroke:#181818;stroke-width:1.0;"/><polygon fill="#181818" points="186.36,233.98,191.7003,238.8258,198.2272,235.7601,192.887,230.9143,186.36,233.98" style="stroke:#181818;stroke-width:1.0;"/></g><g id="link_GeographicBoundaryReference_PricePlan"><path d="M446.3786,239.0645 C561.7286,259.9145 736.09,291.41 818.27,306.26 " fill="none" id="GeographicBoundaryReference-backto-PricePlan" style="stroke:#181818;stroke-width:1.0;"/><polygon fill="#181818" points="434.57,236.93,439.7628,241.9334,446.3786,239.0645,441.1858,234.061,434.57,236.93" style="stroke:#181818;stroke-width:1.0;"/></g><g id="link_Identifier_FinancialSplitReference"><path d="M343.24,136.27 C292.53,152.9 206.37,181.17 150.45,199.52 " fill="none" id="Identifier-FinancialSplitReference" style="stroke:#181818;stroke-width:1.0;"/></g><g id="link_Identifier_GeographicBoundaryReference"><path d="M375.7,140.06 C367.09,157 354.05,182.66 345.41,199.68 " fill="none" id="Identifier-GeographicBoundaryReference" style="stroke:#181818;stroke-width:1.0;"/></g><g id="link_Identifier_PartyIdentifier"><path d="M425.97,132.57 C497.14,149.47 642.75,184.04 724.14,203.36 " fill="none" id="Identifier-PartyIdentifier" style="stroke:#181818;stroke-width:1.0;"/></g><g id="link_Identifier_ProductScheduleReference"><path d="M422.39,140.28 C458.92,157.2 513.89,182.66 550.46,199.6 " fill="none" id="Identifier-ProductScheduleReference" style="stroke:#181818;stroke-width:1.0;"/></g><g id="link_PartyIdentifier_PricePlan"><path d="M804.2024,245.8509 C818.0124,262.7909 831.34,279.15 845.21,296.17 " fill="none" id="PartyIdentifier-backto-PricePlan" style="stroke:#181818;stroke-width:1.0;"/><polygon fill="#181818" points="796.62,236.55,797.3109,243.7279,804.2024,245.8509,803.5115,238.673,796.62,236.55" style="stroke:#181818;stroke-width:1.0;"/></g><g id="link_PartyRelationshipTypes_PartyIdentifier"><path d="M642.5469,145.738 C675.6769,162.658 714.84,182.66 748.01,199.6 " fill="none" id="PartyRelationshipTypes-backto-PartyIdentifier" style="stroke:#181818;stroke-width:1.0;"/><polygon fill="#181818" points="631.86,140.28,635.3841,146.5713,642.5469,145.738,639.0228,139.4467,631.86,140.28" style="stroke:#181818;stroke-width:1.0;"/></g><g id="link_PriceClassTypes_PricePlan"><path d="M1041.0535,241.3247 C997.6435,258.6347 943.15,280.35 900.81,297.24 " fill="none" id="PriceClassTypes-backto-PricePlan" style="stroke:#181818;stroke-width:1.0;"/><polygon fill="#181818" points="1052.2,236.88,1045.1452,235.3869,1041.0535,241.3247,1048.1083,242.8179,1052.2,236.88" style="stroke:#181818;stroke-width:1.0;"/></g><g id="link_PriceSensitivity_PricePlan"><path d="M922.38,236.55 C908.57,253.49 887.66,279.15 873.79,296.17 " fill="none" id="PriceSensitivity-PricePlan" style="stroke:#181818;stroke-width:1.0;"/></g><g id="link_PriceSensitivityTypes_PriceSensitivity"><path d="M954.46,140.06 C950.52,157 944.55,182.66 940.58,199.68 " fill="none" id="PriceSensitivityTypes-PriceSensitivity" style="stroke:#181818;stroke-width:1.0;"/></g><g id="link_PriceTypes_PricePlan"><path d="M1184.0982,235.0458 C1178.3082,236.5758 1184.07,235.04 1178.5,236.46 C1079.13,261.88 961.79,289.74 900.88,304.04 " fill="none" id="PriceTypes-backto-PricePlan" style="stroke:#181818;stroke-width:1.0;"/><polygon fill="#181818" points="1195.7,231.98,1188.8772,229.6456,1184.0982,235.0458,1190.921,237.3801,1195.7,231.98" style="stroke:#181818;stroke-width:1.0;"/></g><g id="link_ProductScheduleReference_PricePlan"><path d="M650.4913,240.83 C702.2713,258.88 770.38,282.63 818.39,299.37 " fill="none" id="ProductScheduleReference-backto-PricePlan" style="stroke:#181818;stroke-width:1.0;"/><polygon fill="#181818" points="639.16,236.88,643.509,242.6321,650.4913,240.83,646.1423,235.0779,639.16,236.88" style="stroke:#181818;stroke-width:1.0;"/></g><g id="link_ResourceTypes_PricePlan"><path d="M1323.88,232.94 C1318.01,234.16 1312.15,235.36 1306.5,236.46 C1157.71,265.54 979.94,294.56 900.9,307.17 " fill="none" id="ResourceTypes-PricePlan" style="stroke:#181818;stroke-width:1.0;"/></g></g></svg>