<?xml version="1.0" encoding="us-ascii" standalone="no"?><svg xmlns="http://www.w3.org/2000/svg" xmlns:xlink="http://www.w3.org/1999/xlink" contentStyleType="text/css" height="628px" preserveAspectRatio="none" style="width:2870px;height:628px;background:#FFFFFF;" version="1.1" viewBox="0 0 2870 628" width="2870px" zoomAndPan="magnify"><defs/><g><g id="elem_AddressReference"><rect fill="#F1F1F1" height="36.4883" rx="2.5" ry="2.5" style="stroke:#181818;stroke-width:0.5;" width="144" x="1243.3" y="199.98"/><text fill="#000000" font-family="sans-serif" font-size="14" lengthAdjust="spacing" textLength="124" x="1253.3" y="223.5152">AddressReference</text></g><g id="elem_BillOfMaterialReference"><rect fill="#F1F1F1" height="36.4883" rx="2.5" ry="2.5" style="stroke:#181818;stroke-width:0.5;" width="179" x="34.8" y="392.96"/><text fill="#000000" font-family="sans-serif" font-size="14" lengthAdjust="spacing" textLength="159" x="44.8" y="416.4952">BillOfMaterialReference</text></g><g id="elem_CurrencyExchange"><rect fill="#F1F1F1" height="36.4883" rx="2.5" ry="2.5" style="stroke:#181818;stroke-width:0.5;" width="149" x="2125.8" y="392.96"/><text fill="#000000" font-family="sans-serif" font-size="14" lengthAdjust="spacing" textLength="129" x="2135.8" y="416.4952">CurrencyExchange</text></g><g id="elem_EffectivePeriod"><rect fill="#F1F1F1" height="36.4883" rx="2.5" ry="2.5" style="stroke:#181818;stroke-width:0.5;" width="121" x="1422.8" y="199.98"/><text fill="#000000" font-family="sans-serif" font-size="14" lengthAdjust="spacing" textLength="101" x="1432.8" y="223.5152">EffectivePeriod</text></g><g id="elem_FinancialSplitReference"><rect fill="#F1F1F1" height="36.4883" rx="2.5" ry="2.5" style="stroke:#181818;stroke-width:0.5;" width="179" x="49.8" y="296.47"/><text fill="#000000" font-family="sans-serif" font-size="14" lengthAdjust="spacing" textLength="159" x="59.8" y="320.0052">FinancialSplitReference</text></g><g id="elem_GeographicBoundaryReference"><rect fill="#F1F1F1" height="36.4883" rx="2.5" ry="2.5" style="stroke:#181818;stroke-width:0.5;" width="232" x="109.3" y="199.98"/><text fill="#000000" font-family="sans-serif" font-size="14" lengthAdjust="spacing" textLength="212" x="119.3" y="223.5152">GeographicBoundaryReference</text></g><g id="elem_Identifier"><rect fill="#F1F1F1" height="36.4883" rx="2.5" ry="2.5" style="stroke:#181818;stroke-width:0.5;" width="82" x="389.3" y="103.49"/><text fill="#000000" font-family="sans-serif" font-size="14" lengthAdjust="spacing" textLength="62" x="399.3" y="127.0252">Identifier</text></g><g id="elem_Inspection"><rect fill="#F1F1F1" height="36.4883" rx="2.5" ry="2.5" style="stroke:#181818;stroke-width:0.5;" width="91" x="1092.8" y="489.44"/><text fill="#000000" font-family="sans-serif" font-size="14" lengthAdjust="spacing" textLength="71" x="1102.8" y="512.9752">Inspection</text></g><g id="elem_LaborOperation"><rect fill="#F1F1F1" height="36.4883" rx="2.5" ry="2.5" style="stroke:#181818;stroke-width:0.5;" width="128" x="1693.3" y="585.93"/><text fill="#000000" font-family="sans-serif" font-size="14" lengthAdjust="spacing" textLength="108" x="1703.3" y="609.4652">LaborOperation</text></g><g id="elem_LaborOperationEvent"><rect fill="#F1F1F1" height="36.4883" rx="2.5" ry="2.5" style="stroke:#181818;stroke-width:0.5;" width="165" x="1952.8" y="489.44"/><text fill="#000000" font-family="sans-serif" font-size="14" lengthAdjust="spacing" textLength="145" x="1962.8" y="512.9752">LaborOperationEvent</text></g><g id="elem_LaborResource"><rect fill="#F1F1F1" height="36.4883" rx="2.5" ry="2.5" style="stroke:#181818;stroke-width:0.5;" width="122" x="614.3" y="296.47"/><text fill="#000000" font-family="sans-serif" font-size="14" lengthAdjust="spacing" textLength="102" x="624.3" y="320.0052">LaborResource</text></g><g id="elem_Locale"><rect fill="#F1F1F1" height="36.4883" rx="2.5" ry="2.5" style="stroke:#181818;stroke-width:0.5;" width="63" x="715.8" y="199.98"/><text fill="#000000" font-family="sans-serif" font-size="14" lengthAdjust="spacing" textLength="43" x="725.8" y="223.5152">Locale</text></g><g id="elem_Media"><rect fill="#F1F1F1" height="36.4883" rx="2.5" ry="2.5" style="stroke:#181818;stroke-width:0.5;" width="61" x="1178.8" y="392.96"/><text fill="#000000" font-family="sans-serif" font-size="14" lengthAdjust="spacing" textLength="41" x="1188.8" y="416.4952">Media</text></g><g id="elem_Money"><rect fill="#F1F1F1" height="36.4883" rx="2.5" ry="2.5" style="stroke:#181818;stroke-width:0.5;" width="65" x="2152.8" y="489.44"/><text fill="#000000" font-family="sans-serif" font-size="14" lengthAdjust="spacing" textLength="45" x="2162.8" y="512.9752">Money</text></g><g id="elem_PartIdentifier"><rect fill="#F1F1F1" height="36.4883" rx="2.5" ry="2.5" style="stroke:#181818;stroke-width:0.5;" width="109" x="885.8" y="199.98"/><text fill="#000000" font-family="sans-serif" font-size="14" lengthAdjust="spacing" textLength="89" x="895.8" y="223.5152">PartIdentifier</text></g><g id="elem_PartyReference"><rect fill="#F1F1F1" height="36.4883" rx="2.5" ry="2.5" style="stroke:#181818;stroke-width:0.5;" width="122" x="771.3" y="296.47"/><text fill="#000000" font-family="sans-serif" font-size="14" lengthAdjust="spacing" textLength="102" x="781.3" y="320.0052">PartyReference</text></g><g id="elem_PricePlanReference"><rect fill="#F1F1F1" height="36.4883" rx="2.5" ry="2.5" style="stroke:#181818;stroke-width:0.5;" width="150" x="319.3" y="392.96"/><text fill="#000000" font-family="sans-serif" font-size="14" lengthAdjust="spacing" textLength="130" x="329.3" y="416.4952">PricePlanReference</text></g><g id="elem_StaffAssignmentReference"><rect fill="#F1F1F1" height="36.4883" rx="2.5" ry="2.5" style="stroke:#181818;stroke-width:0.5;" width="200" x="1579.3" y="199.98"/><text fill="#000000" font-family="sans-serif" font-size="14" lengthAdjust="spacing" textLength="180" x="1589.3" y="223.5152">StaffAssignmentReference</text></g><g id="elem_StaffSkill"><rect fill="#F1F1F1" height="36.4883" rx="2.5" ry="2.5" style="stroke:#181818;stroke-width:0.5;" width="79" x="1682.8" y="103.49"/><text fill="#000000" font-family="sans-serif" font-size="14" lengthAdjust="spacing" textLength="59" x="1692.8" y="127.0252">StaffSkill</text></g><g id="elem_TextualDetail"><rect fill="#F1F1F1" height="36.4883" rx="2.5" ry="2.5" style="stroke:#181818;stroke-width:0.5;" width="111" x="554.8" y="392.96"/><text fill="#000000" font-family="sans-serif" font-size="14" lengthAdjust="spacing" textLength="91" x="564.8" y="416.4952">TextualDetail</text></g><g id="elem_TimeSlot"><rect fill="#F1F1F1" height="36.4883" rx="2.5" ry="2.5" style="stroke:#181818;stroke-width:0.5;" width="80" x="1443.3" y="103.49"/><text fill="#000000" font-family="sans-serif" font-size="14" lengthAdjust="spacing" textLength="60" x="1453.3" y="127.0252">TimeSlot</text></g><g id="elem_AddressTypes"><rect fill="#FAFF91" height="36.4883" rx="2.5" ry="2.5" style="stroke:#181818;stroke-width:0.5;" width="116" x="1105.3" y="103.49"/><text fill="#000000" font-family="sans-serif" font-size="14" lengthAdjust="spacing" textLength="96" x="1115.3" y="127.0252">AddressTypes</text></g><g id="elem_DaysOfWeekTypes"><rect fill="#FAFF91" height="36.4883" rx="2.5" ry="2.5" style="stroke:#181818;stroke-width:0.5;" width="144" x="1439.3" y="7"/><text fill="#000000" font-family="sans-serif" font-size="14" lengthAdjust="spacing" textLength="124" x="1449.3" y="30.5352">DaysOfWeekTypes</text></g><g id="elem_DurationUOMTypes"><rect fill="#FAFF91" height="36.4883" rx="2.5" ry="2.5" style="stroke:#181818;stroke-width:0.5;" width="153" x="1255.8" y="103.49"/><text fill="#000000" font-family="sans-serif" font-size="14" lengthAdjust="spacing" textLength="133" x="1265.8" y="127.0252">DurationUOMTypes</text></g><g id="elem_LaborLocationTypes"><rect fill="#FAFF91" height="36.4883" rx="2.5" ry="2.5" style="stroke:#181818;stroke-width:0.5;" width="157" x="2252.8" y="489.44"/><text fill="#000000" font-family="sans-serif" font-size="14" lengthAdjust="spacing" textLength="137" x="2262.8" y="512.9752">LaborLocationTypes</text></g><g id="elem_LaborOperationStatusTypes"><rect fill="#FAFF91" height="36.4883" rx="2.5" ry="2.5" style="stroke:#181818;stroke-width:0.5;" width="210" x="1881.3" y="392.96"/><text fill="#000000" font-family="sans-serif" font-size="14" lengthAdjust="spacing" textLength="190" x="1891.3" y="416.4952">LaborOperationStatusTypes</text></g><g id="elem_LaborOperationTypes"><rect fill="#FAFF91" height="36.4883" rx="2.5" ry="2.5" style="stroke:#181818;stroke-width:0.5;" width="168" x="2445.3" y="489.44"/><text fill="#000000" font-family="sans-serif" font-size="14" lengthAdjust="spacing" textLength="148" x="2455.3" y="512.9752">LaborOperationTypes</text></g><g id="elem_LaborResourceTypes"><rect fill="#FAFF91" height="36.4883" rx="2.5" ry="2.5" style="stroke:#181818;stroke-width:0.5;" width="162" x="518.3" y="199.98"/><text fill="#000000" font-family="sans-serif" font-size="14" lengthAdjust="spacing" textLength="142" x="528.3" y="223.5152">LaborResourceTypes</text></g><g id="elem_MediaDeliveryMethodTypes"><rect fill="#FAFF91" height="36.4883" rx="2.5" ry="2.5" style="stroke:#181818;stroke-width:0.5;" width="207" x="1105.8" y="296.47"/><text fill="#000000" font-family="sans-serif" font-size="14" lengthAdjust="spacing" textLength="187" x="1115.8" y="320.0052">MediaDeliveryMethodTypes</text></g><g id="elem_MediaFormatTypes"><rect fill="#FAFF91" height="36.4883" rx="2.5" ry="2.5" style="stroke:#181818;stroke-width:0.5;" width="150" x="1347.3" y="296.47"/><text fill="#000000" font-family="sans-serif" font-size="14" lengthAdjust="spacing" textLength="130" x="1357.3" y="320.0052">MediaFormatTypes</text></g><g id="elem_MediaTypes"><rect fill="#FAFF91" height="36.4883" rx="2.5" ry="2.5" style="stroke:#181818;stroke-width:0.5;" width="101" x="1531.8" y="296.47"/><text fill="#000000" font-family="sans-serif" font-size="14" lengthAdjust="spacing" textLength="81" x="1541.8" y="320.0052">MediaTypes</text></g><g id="elem_MediaUsageTypes"><rect fill="#FAFF91" height="36.4883" rx="2.5" ry="2.5" style="stroke:#181818;stroke-width:0.5;" width="143" x="927.8" y="296.47"/><text fill="#000000" font-family="sans-serif" font-size="14" lengthAdjust="spacing" textLength="123" x="937.8" y="320.0052">MediaUsageTypes</text></g><g id="elem_NarrativeUomTypes"><rect fill="#FAFF91" height="36.4883" rx="2.5" ry="2.5" style="stroke:#181818;stroke-width:0.5;" width="154" x="990.3" y="392.96"/><text fill="#000000" font-family="sans-serif" font-size="14" lengthAdjust="spacing" textLength="134" x="1000.3" y="416.4952">NarrativeUomTypes</text></g><g id="elem_PartIdentifierTypes"><rect fill="#FAFF91" height="36.4883" rx="2.5" ry="2.5" style="stroke:#181818;stroke-width:0.5;" width="149" x="893.8" y="103.49"/><text fill="#000000" font-family="sans-serif" font-size="14" lengthAdjust="spacing" textLength="129" x="903.8" y="127.0252">PartIdentifierTypes</text></g><g id="elem_PartStatusTypes"><rect fill="#FAFF91" height="36.4883" rx="2.5" ry="2.5" style="stroke:#181818;stroke-width:0.5;" width="129" x="729.8" y="103.49"/><text fill="#000000" font-family="sans-serif" font-size="14" lengthAdjust="spacing" textLength="109" x="739.8" y="127.0252">PartStatusTypes</text></g><g id="elem_PartyRelationshipTypes"><rect fill="#FAFF91" height="36.4883" rx="2.5" ry="2.5" style="stroke:#181818;stroke-width:0.5;" width="179" x="1029.8" y="199.98"/><text fill="#000000" font-family="sans-serif" font-size="14" lengthAdjust="spacing" textLength="159" x="1039.8" y="223.5152">PartyRelationshipTypes</text></g><g id="elem_PayTypes"><rect fill="#FAFF91" height="36.4883" rx="2.5" ry="2.5" style="stroke:#181818;stroke-width:0.5;" width="83" x="2647.8" y="489.44"/><text fill="#000000" font-family="sans-serif" font-size="14" lengthAdjust="spacing" textLength="63" x="2657.8" y="512.9752">PayTypes</text></g><g id="elem_PayeeTypes"><rect fill="#FAFF91" height="36.4883" rx="2.5" ry="2.5" style="stroke:#181818;stroke-width:0.5;" width="99" x="2765.8" y="489.44"/><text fill="#000000" font-family="sans-serif" font-size="14" lengthAdjust="spacing" textLength="79" x="2775.8" y="512.9752">PayeeTypes</text></g><g id="elem_RoleTypes"><rect fill="#FAFF91" height="36.4883" rx="2.5" ry="2.5" style="stroke:#181818;stroke-width:0.5;" width="90" x="1558.3" y="103.49"/><text fill="#000000" font-family="sans-serif" font-size="14" lengthAdjust="spacing" textLength="70" x="1568.3" y="127.0252">RoleTypes</text></g><g id="elem_ServiceJobTypes"><rect fill="#FAFF91" height="36.4883" rx="2.5" ry="2.5" style="stroke:#181818;stroke-width:0.5;" width="130" x="1797.3" y="103.49"/><text fill="#000000" font-family="sans-serif" font-size="14" lengthAdjust="spacing" textLength="110" x="1807.3" y="127.0252">ServiceJobTypes</text></g><g id="elem_SkillCategoryTypes"><rect fill="#FAFF91" height="36.4883" rx="2.5" ry="2.5" style="stroke:#181818;stroke-width:0.5;" width="150" x="1647.3" y="7"/><text fill="#000000" font-family="sans-serif" font-size="14" lengthAdjust="spacing" textLength="130" x="1657.3" y="30.5352">SkillCategoryTypes</text></g><g id="elem_TimeslotDirectiveTypes"><rect fill="#FAFF91" height="36.4883" rx="2.5" ry="2.5" style="stroke:#181818;stroke-width:0.5;" width="178" x="1226.3" y="7"/><text fill="#000000" font-family="sans-serif" font-size="14" lengthAdjust="spacing" textLength="158" x="1236.3" y="30.5352">TimeslotDirectiveTypes</text></g><g id="link_AddressReference_PartyReference"><path d="M1231.1449,235.5307 C1225.5149,236.6107 1231.71,235.43 1226.3,236.47 C1085.91,263.4 1050.33,267.7 910.3,296.47 C904.87,297.58 899.23,298.77 893.58,299.98 " fill="none" id="AddressReference-backto-PartyReference" style="stroke:#181818;stroke-width:1.0;"/><polygon fill="#181818" points="1242.93,233.27,1236.2839,230.472,1231.1449,235.5307,1237.791,238.3287,1242.93,233.27" style="stroke:#181818;stroke-width:1.0;"/></g><g id="link_AddressTypes_AddressReference"><path d="M1201.7232,146.6224 C1228.9432,163.5324 1259.71,182.67 1286.96,199.61 " fill="none" id="AddressTypes-backto-AddressReference" style="stroke:#181818;stroke-width:1.0;"/><polygon fill="#181818" points="1191.53,140.29,1194.5158,146.8539,1201.7232,146.6224,1198.7374,140.0584,1191.53,140.29" style="stroke:#181818;stroke-width:1.0;"/></g><g id="link_BillOfMaterialReference_LaborOperation"><path d="M142.55,439.4558 C160.93,465.8358 193.03,505.21 240.3,525.93 C374.64,584.83 1421.41,599.7 1693.07,602.58 " fill="none" id="BillOfMaterialReference-backto-LaborOperation" style="stroke:#181818;stroke-width:1.0;"/><polygon fill="#181818" points="135.69,429.61,135.838,436.8196,142.55,439.4558,142.4019,432.2463,135.69,429.61" style="stroke:#181818;stroke-width:1.0;"/></g><g id="link_CurrencyExchange_Money"><path d="M2197.55,429.53 C2194.86,446.47 2190.79,472.13 2188.08,489.15 " fill="none" id="CurrencyExchange-Money" style="stroke:#181818;stroke-width:1.0;"/></g><g id="link_DaysOfWeekTypes_TimeSlot"><path d="M1506.16,43.58 C1501.14,60.52 1493.54,86.18 1488.5,103.19 " fill="none" id="DaysOfWeekTypes-TimeSlot" style="stroke:#181818;stroke-width:1.0;"/></g><g id="link_DurationUOMTypes_EffectivePeriod"><path d="M1360.35,140.29 C1387.38,157.2 1428.07,182.67 1455.15,199.61 " fill="none" id="DurationUOMTypes-EffectivePeriod" style="stroke:#181818;stroke-width:1.0;"/></g><g id="link_EffectivePeriod_LaborOperation"><path d="M1544.16,234.45 C1579.45,246.12 1622.3,265.59 1650.3,296.47 C1691.03,341.37 1738.82,527.18 1753.08,585.55 " fill="none" id="EffectivePeriod-LaborOperation" style="stroke:#181818;stroke-width:1.0;"/></g><g id="link_EffectivePeriod_PartyReference"><path d="M1422.52,233.26 C1416.72,234.42 1410.91,235.51 1405.3,236.47 C1186.85,273.76 1128.75,259.17 910.3,296.47 C904.83,297.4 899.17,298.46 893.5,299.59 " fill="none" id="EffectivePeriod-PartyReference" style="stroke:#181818;stroke-width:1.0;"/></g><g id="link_EffectivePeriod_TimeSlot"><path d="M1493.77,199.68 C1497.32,182.67 1497.31,157.01 1493.73,140.06 " fill="none" id="EffectivePeriod-TimeSlot" style="stroke:#181818;stroke-width:1.0;"/></g><g id="link_TimeSlot_EffectivePeriod"><path d="M1472.87,140.06 C1469.29,157.01 1469.28,182.67 1472.83,199.68 " fill="none" id="TimeSlot-EffectivePeriod" style="stroke:#181818;stroke-width:1.0;"/></g><g id="link_FinancialSplitReference_BillOfMaterialReference"><path d="M136.55,333.04 C133.86,349.98 129.79,375.64 127.08,392.66 " fill="none" id="FinancialSplitReference-BillOfMaterialReference" style="stroke:#181818;stroke-width:1.0;"/></g><g id="link_FinancialSplitReference_LaborOperation"><path d="M161.21,333.39 C191.58,357.32 248.79,400.36 302.3,429.44 C402.22,483.76 428.44,500.56 539.3,525.93 C762.11,576.92 1474.47,596.83 1692.96,601.83 " fill="none" id="FinancialSplitReference-LaborOperation" style="stroke:#181818;stroke-width:1.0;"/></g><g id="link_FinancialSplitReference_PricePlanReference"><path d="M186.96,333.37 C232.52,350.25 300.82,375.56 346.44,392.46 " fill="none" id="FinancialSplitReference-PricePlanReference" style="stroke:#181818;stroke-width:1.0;"/></g><g id="link_GeographicBoundaryReference_FinancialSplitReference"><path d="M209.53,236.55 C194.11,253.5 170.75,279.16 155.26,296.17 " fill="none" id="GeographicBoundaryReference-FinancialSplitReference" style="stroke:#181818;stroke-width:1.0;"/></g><g id="link_GeographicBoundaryReference_PricePlanReference"><path d="M248.852,245.837 C281.042,282.217 346.58,356.27 378.74,392.62 " fill="none" id="GeographicBoundaryReference-backto-PricePlanReference" style="stroke:#181818;stroke-width:1.0;"/><polygon fill="#181818" points="240.9,236.85,241.8803,243.9942,248.852,245.837,247.8716,238.6929,240.9,236.85" style="stroke:#181818;stroke-width:1.0;"/></g><g id="link_Identifier_BillOfMaterialReference"><path d="M388.98,127.1 C306.3,136.55 124.28,161.27 76.3,199.98 C27.85,239.07 6,276.53 32.3,332.96 C44.46,359.04 70.24,379.45 91.43,392.72 " fill="none" id="Identifier-BillOfMaterialReference" style="stroke:#181818;stroke-width:1.0;"/></g><g id="link_Identifier_FinancialSplitReference"><path d="M388.96,125.15 C303.1,131.63 112.89,152.21 74.8,199.98 C51.23,229.55 82.72,272.6 110.18,296.35 " fill="none" id="Identifier-FinancialSplitReference" style="stroke:#181818;stroke-width:1.0;"/></g><g id="link_Identifier_FinancialSplitReference"><path d="M376.8918,128.1067 C298.0018,136.1467 144.98,155.85 109.8,199.98 C86.23,229.55 117.72,272.6 133.62,296.35 " fill="none" id="Identifier-backto-FinancialSplitReference" style="stroke:#181818;stroke-width:1.0;"/><polygon fill="#181818" points="388.83,126.89,382.4554,123.5189,376.8918,128.1067,383.2665,131.4777,388.83,126.89" style="stroke:#181818;stroke-width:1.0;"/></g><g id="link_Identifier_GeographicBoundaryReference"><path d="M392.22,140.29 C355.52,157.2 300.28,182.67 263.52,199.61 " fill="none" id="Identifier-GeographicBoundaryReference" style="stroke:#181818;stroke-width:1.0;"/></g><g id="link_Identifier_PartyReference"><path d="M471.78,126.28 C557.23,134.38 748.84,156.98 796.3,199.98 C823.93,225.01 830.5,271.07 831.97,296.21 " fill="none" id="Identifier-PartyReference" style="stroke:#181818;stroke-width:1.0;"/></g><g id="link_Identifier_PricePlanReference"><path d="M428.1,140.28 C421.68,191.6 402.96,341.02 396.51,392.51 " fill="none" id="Identifier-PricePlanReference" style="stroke:#181818;stroke-width:1.0;"/></g><g id="link_Identifier_StaffAssignmentReference"><path d="M471.51,125.36 C661.85,137.51 1451.28,188.2 1561.3,199.98 C1567.06,200.6 1572.98,201.28 1578.94,202.02 " fill="none" id="Identifier-StaffAssignmentReference" style="stroke:#181818;stroke-width:1.0;"/></g><g id="link_Identifier_Locale"><path d="M482.968,136.9344 C535.748,151.3144 618.51,174.46 698.3,199.98 C703.88,201.76 709.79,203.75 715.5,205.73 " fill="none" id="Identifier-backto-Locale" style="stroke:#181818;stroke-width:1.0;"/><polygon fill="#181818" points="471.39,133.78,476.1275,139.2165,482.968,136.9344,478.2305,131.4979,471.39,133.78" style="stroke:#181818;stroke-width:1.0;"/></g><g id="link_Identifier_PartIdentifier"><path d="M483.5167,131.8319 C559.9967,144.9719 716.76,172.33 858.3,199.98 C867.15,201.71 876.53,203.61 885.65,205.5 " fill="none" id="Identifier-backto-PartIdentifier" style="stroke:#181818;stroke-width:1.0;"/><polygon fill="#181818" points="471.69,129.8,476.926,134.7582,483.5167,131.8319,478.2807,126.8737,471.69,129.8" style="stroke:#181818;stroke-width:1.0;"/></g><g id="link_Identifier_TextualDetail"><path d="M447.16,150.3578 C460.82,172.6978 479.06,202.44 500.3,236.47 C536.03,293.7 578.96,361.12 598.98,392.49 " fill="none" id="Identifier-backto-TextualDetail" style="stroke:#181818;stroke-width:1.0;"/><polygon fill="#181818" points="440.9,140.12,440.6174,147.3256,447.16,150.3578,447.4426,143.1522,440.9,140.12" style="stroke:#181818;stroke-width:1.0;"/></g><g id="link_Inspection_LaborOperation"><path d="M1195.9326,517.4809 C1304.8726,534.1109 1567.94,574.27 1693.27,593.4 " fill="none" id="Inspection-backto-LaborOperation" style="stroke:#181818;stroke-width:1.0;"/><polygon fill="#181818" points="1184.07,515.67,1189.3977,520.5296,1195.9326,517.4809,1190.6049,512.6212,1184.07,515.67" style="stroke:#181818;stroke-width:1.0;"/></g><g id="link_LaborLocationTypes_LaborOperation"><path d="M2252.47,522.96 C2246.66,523.98 2240.89,524.98 2235.3,525.93 C2087.39,551.17 1913.35,578.76 1821.53,593.16 " fill="none" id="LaborLocationTypes-LaborOperation" style="stroke:#181818;stroke-width:1.0;"/></g><g id="link_LaborOperationEvent_LaborOperation"><path d="M1971.9784,530.2119 C1922.3184,547.0919 1859.21,568.54 1809.48,585.44 " fill="none" id="LaborOperationEvent-backto-LaborOperation" style="stroke:#181818;stroke-width:1.0;"/><polygon fill="#181818" points="1983.34,526.35,1976.3719,524.4938,1971.9784,530.2119,1978.9465,532.0682,1983.34,526.35" style="stroke:#181818;stroke-width:1.0;"/></g><g id="link_LaborOperationStatusTypes_LaborOperation"><path d="M1966.38,429.78 C1940.71,452.34 1894.6,492.55 1854.3,525.93 C1829.1,546.81 1799.63,570.12 1779.84,585.62 " fill="none" id="LaborOperationStatusTypes-LaborOperation" style="stroke:#181818;stroke-width:1.0;"/></g><g id="link_LaborOperationStatusTypes_LaborOperationEvent"><path d="M1995.29,429.53 C2004.07,446.47 2017.38,472.13 2026.2,489.15 " fill="none" id="LaborOperationStatusTypes-LaborOperationEvent" style="stroke:#181818;stroke-width:1.0;"/></g><g id="link_LaborOperationTypes_LaborOperation"><path d="M2445.03,523.29 C2439.03,524.22 2433.08,525.11 2427.3,525.93 C2205.59,557.43 1941.21,584.98 1821.65,596.9 " fill="none" id="LaborOperationTypes-LaborOperation" style="stroke:#181818;stroke-width:1.0;"/></g><g id="link_LaborResourceTypes_LaborResource"><path d="M613.24,236.55 C626.87,253.5 647.51,279.16 661.19,296.17 " fill="none" id="LaborResourceTypes-LaborResource" style="stroke:#181818;stroke-width:1.0;"/></g><g id="link_LaborResource_LaborOperation"><path d="M702.2505,341.4308 C747.0105,383.3308 859.11,480.98 982.3,525.93 C1112.58,573.47 1531.66,594.42 1693.08,600.87 " fill="none" id="LaborResource-backto-LaborOperation" style="stroke:#181818;stroke-width:1.0;"/><polygon fill="#181818" points="693.49,333.23,695.1367,340.2506,702.2505,341.4308,700.6039,334.4102,693.49,333.23" style="stroke:#181818;stroke-width:1.0;"/></g><g id="link_Locale_PartyReference"><path d="M762.89,236.55 C778.13,253.5 801.22,279.16 816.52,296.17 " fill="none" id="Locale-PartyReference" style="stroke:#181818;stroke-width:1.0;"/></g><g id="link_MediaDeliveryMethodTypes_Media"><path d="M1209.3,333.04 C1209.3,349.98 1209.3,375.64 1209.3,392.66 " fill="none" id="MediaDeliveryMethodTypes-Media" style="stroke:#181818;stroke-width:1.0;"/></g><g id="link_MediaFormatTypes_Media"><path d="M1382.74,333.26 C1341.47,351.57 1277.66,379.88 1240.03,396.57 " fill="none" id="MediaFormatTypes-Media" style="stroke:#181818;stroke-width:1.0;"/></g><g id="link_MediaTypes_Media"><path d="M1531.43,328.61 C1525.65,330.08 1519.85,331.55 1514.3,332.96 C1413.96,358.38 1295.05,388.49 1240.04,402.42 " fill="none" id="MediaTypes-Media" style="stroke:#181818;stroke-width:1.0;"/></g><g id="link_MediaUsageTypes_Media"><path d="M1038.31,333.26 C1078.75,351.46 1141.17,379.55 1178.36,396.28 " fill="none" id="MediaUsageTypes-Media" style="stroke:#181818;stroke-width:1.0;"/></g><g id="link_Media_Inspection"><path d="M1189.0709,439.1232 C1176.3409,456.0632 1164.26,472.13 1151.48,489.15 " fill="none" id="Media-backto-Inspection" style="stroke:#181818;stroke-width:1.0;"/><polygon fill="#181818" points="1196.28,429.53,1189.4777,431.9236,1189.0709,439.1232,1195.8732,436.7296,1196.28,429.53" style="stroke:#181818;stroke-width:1.0;"/></g><g id="link_Money_LaborOperation"><path d="M2152.41,520.71 C2146.74,522.59 2140.88,524.41 2135.3,525.93 C2026.59,555.65 1897.5,579.67 1821.77,592.65 " fill="none" id="Money-LaborOperation" style="stroke:#181818;stroke-width:1.0;"/></g><g id="link_NarrativeUomTypes_Inspection"><path d="M1080.32,429.53 C1093.05,446.47 1112.34,472.13 1125.12,489.15 " fill="none" id="NarrativeUomTypes-Inspection" style="stroke:#181818;stroke-width:1.0;"/></g><g id="link_PartIdentifierTypes_PartIdentifier"><path d="M963.16,140.06 C958.14,157.01 950.54,182.67 945.5,199.68 " fill="none" id="PartIdentifierTypes-PartIdentifier" style="stroke:#181818;stroke-width:1.0;"/></g><g id="link_PartIdentifier_LaborResource"><path d="M879.467,240.9103 C832.127,257.7903 772.45,279.07 725.04,295.98 " fill="none" id="PartIdentifier-backto-LaborResource" style="stroke:#181818;stroke-width:1.0;"/><polygon fill="#181818" points="890.77,236.88,883.7751,235.1275,879.467,240.9103,886.462,242.6628,890.77,236.88" style="stroke:#181818;stroke-width:1.0;"/></g><g id="link_PartStatusTypes_PartIdentifier"><path d="M821.42,140.29 C847.64,157.26 887.15,182.83 913.33,199.77 " fill="none" id="PartStatusTypes-PartIdentifier" style="stroke:#181818;stroke-width:1.0;"/></g><g id="link_PartyReference_Inspection"><path d="M859.4458,341.2721 C885.1758,365.0921 925.31,400.05 972.3,429.44 C1010.97,453.63 1058.45,474.97 1092.71,489.06 " fill="none" id="PartyReference-backto-Inspection" style="stroke:#181818;stroke-width:1.0;"/><polygon fill="#181818" points="850.64,333.12,852.3255,340.1313,859.4458,341.2721,857.7603,334.2608,850.64,333.12" style="stroke:#181818;stroke-width:1.0;"/></g><g id="link_PartyReference_LaborOperation"><path d="M848.0619,343.538 C861.9719,367.408 883.39,400.22 915.3,429.44 C976.54,485.53 996.68,499.2 1075.3,525.93 C1188.89,564.55 1545.78,590.21 1692.91,599.4 " fill="none" id="PartyReference-backto-LaborOperation" style="stroke:#181818;stroke-width:1.0;"/><polygon fill="#181818" points="842.02,333.17,841.5849,340.368,848.0619,343.538,848.4969,336.3401,842.02,333.17" style="stroke:#181818;stroke-width:1.0;"/></g><g id="link_PartyReference_Media"><path d="M905.4402,332.3358 C993.6602,352.4358 1136.76,385.31 1162.3,392.96 C1167.55,394.53 1173.06,396.37 1178.38,398.25 " fill="none" id="PartyReference-backto-Media" style="stroke:#181818;stroke-width:1.0;"/><polygon fill="#181818" points="893.74,329.67,898.7015,334.9029,905.4402,332.3358,900.4787,327.1028,893.74,329.67" style="stroke:#181818;stroke-width:1.0;"/></g><g id="link_PartyRelationshipTypes_PartyReference"><path d="M1054.2521,240.6334 C1002.9921,257.5134 937.51,279.07 886.17,295.98 " fill="none" id="PartyRelationshipTypes-backto-PartyReference" style="stroke:#181818;stroke-width:1.0;"/><polygon fill="#181818" points="1065.65,236.88,1058.6999,234.9574,1054.2521,240.6334,1061.2022,242.556,1065.65,236.88" style="stroke:#181818;stroke-width:1.0;"/></g><g id="link_PayTypes_LaborOperation"><path d="M2647.32,522.04 C2641.64,523.53 2635.86,524.88 2630.3,525.93 C2331.44,582.26 1967.09,597.72 1821.69,601.79 " fill="none" id="PayTypes-LaborOperation" style="stroke:#181818;stroke-width:1.0;"/></g><g id="link_PayeeTypes_LaborOperation"><path d="M2765.38,522.55 C2759.65,523.84 2753.87,525.01 2748.3,525.93 C2401.88,583.56 1980,598.38 1821.53,602.03 " fill="none" id="PayeeTypes-LaborOperation" style="stroke:#181818;stroke-width:1.0;"/></g><g id="link_PricePlanReference_LaborOperation"><path d="M434.6174,435.7988 C480.7074,462.0488 562.29,504.59 647.3,525.93 C847.54,576.2 1487.24,596.38 1692.94,601.67 " fill="none" id="PricePlanReference-backto-LaborOperation" style="stroke:#181818;stroke-width:1.0;"/><polygon fill="#181818" points="424.19,429.86,427.4241,436.3052,434.6174,435.7988,431.3833,429.3536,424.19,429.86" style="stroke:#181818;stroke-width:1.0;"/></g><g id="link_RoleTypes_StaffAssignmentReference"><path d="M1624.7599,149.4116 C1638.3899,166.3616 1651.51,182.67 1665.19,199.68 " fill="none" id="RoleTypes-backto-StaffAssignmentReference" style="stroke:#181818;stroke-width:1.0;"/><polygon fill="#181818" points="1617.24,140.06,1617.8827,147.2424,1624.7599,149.4116,1624.1171,142.2292,1617.24,140.06" style="stroke:#181818;stroke-width:1.0;"/></g><g id="link_ServiceJobTypes_LaborOperation"><path d="M1858.59,140.44 C1846.75,196.81 1808.7,377.1 1775.3,525.93 C1770.69,546.49 1765.16,570.06 1761.46,585.71 " fill="none" id="ServiceJobTypes-LaborOperation" style="stroke:#181818;stroke-width:1.0;"/></g><g id="link_ServiceJobTypes_StaffAssignmentReference"><path d="M1828.31,140.29 C1795.54,157.2 1746.23,182.67 1713.42,199.61 " fill="none" id="ServiceJobTypes-StaffAssignmentReference" style="stroke:#181818;stroke-width:1.0;"/></g><g id="link_SkillCategoryTypes_StaffSkill"><path d="M1722.3,43.58 C1722.3,60.52 1722.3,86.18 1722.3,103.19 " fill="none" id="SkillCategoryTypes-StaffSkill" style="stroke:#181818;stroke-width:1.0;"/></g><g id="link_StaffAssignmentReference_LaborOperation"><path d="M1693.6722,247.6249 C1701.2022,262.9849 1706.33,275.27 1712.3,296.47 C1742.52,403.69 1753.29,538.05 1756.31,585.55 " fill="none" id="StaffAssignmentReference-backto-LaborOperation" style="stroke:#181818;stroke-width:1.0;"/><polygon fill="#181818" points="1688.39,236.85,1687.4395,243.9982,1693.6722,247.6249,1694.6227,240.4767,1688.39,236.85" style="stroke:#181818;stroke-width:1.0;"/></g><g id="link_StaffSkill_StaffAssignmentReference"><path d="M1709.4415,150.9831 C1701.7315,167.9331 1695.03,182.67 1687.28,199.68 " fill="none" id="StaffSkill-backto-StaffAssignmentReference" style="stroke:#181818;stroke-width:1.0;"/><polygon fill="#181818" points="1714.41,140.06,1708.2847,143.8654,1709.4415,150.9831,1715.5668,147.1777,1714.41,140.06" style="stroke:#181818;stroke-width:1.0;"/></g><g id="link_TextualDetail_LaborOperation"><path d="M622.8369,440.7025 C635.0069,466.8925 656.72,504.41 696.3,525.93 C783.77,573.49 1476.61,595.73 1692.98,601.57 " fill="none" id="TextualDetail-backto-LaborOperation" style="stroke:#181818;stroke-width:1.0;"/><polygon fill="#181818" points="617.78,429.82,616.681,436.9469,622.8369,440.7025,623.9359,433.5756,617.78,429.82" style="stroke:#181818;stroke-width:1.0;"/></g><g id="link_TimeSlot_StaffAssignmentReference"><path d="M1530.5202,145.4995 C1565.6102,162.4095 1607.62,182.67 1642.76,199.61 " fill="none" id="TimeSlot-backto-StaffAssignmentReference" style="stroke:#181818;stroke-width:1.0;"/><polygon fill="#181818" points="1519.71,140.29,1523.3786,146.4982,1530.5202,145.4995,1526.8516,139.2913,1519.71,140.29" style="stroke:#181818;stroke-width:1.0;"/></g><g id="link_TimeslotDirectiveTypes_TimeSlot"><path d="M1356.9689,49.6831 C1387.0489,66.6031 1421.86,86.18 1451.98,103.12 " fill="none" id="TimeslotDirectiveTypes-backto-TimeSlot" style="stroke:#181818;stroke-width:1.0;"/><polygon fill="#181818" points="1346.51,43.8,1349.7784,50.2279,1356.9689,49.6831,1353.7005,43.2553,1346.51,43.8" style="stroke:#181818;stroke-width:1.0;"/></g></g></svg>
