<?xml version="1.0" encoding="us-ascii" standalone="no"?><svg xmlns="http://www.w3.org/2000/svg" xmlns:xlink="http://www.w3.org/1999/xlink" contentStyleType="text/css" height="242px" preserveAspectRatio="none" style="width:1025px;height:242px;background:#FFFFFF;" version="1.1" viewBox="0 0 1025 242" width="1025px" zoomAndPan="magnify"><defs/><g><g id="elem_AddressReference"><rect fill="#F1F1F1" height="36.4883" rx="2.5" ry="2.5" style="stroke:#181818;stroke-width:0.5;" width="144" x="875" y="103.48"/><text fill="#000000" font-family="sans-serif" font-size="14" lengthAdjust="spacing" textLength="124" x="885" y="127.0152">AddressReference</text></g><g id="elem_Identifier"><rect fill="#F1F1F1" height="36.4883" rx="2.5" ry="2.5" style="stroke:#181818;stroke-width:0.5;" width="82" x="150" y="7"/><text fill="#000000" font-family="sans-serif" font-size="14" lengthAdjust="spacing" textLength="62" x="160" y="30.5352">Identifier</text></g><g id="elem_InvoiceReference"><rect fill="#F1F1F1" height="36.4883" rx="2.5" ry="2.5" style="stroke:#181818;stroke-width:0.5;" width="136" x="40" y="103.48"/><text fill="#000000" font-family="sans-serif" font-size="14" lengthAdjust="spacing" textLength="116" x="50" y="127.0152">InvoiceReference</text></g><g id="elem_Position"><rect fill="#F1F1F1" height="36.4883" rx="2.5" ry="2.5" style="stroke:#181818;stroke-width:0.5;" width="75" x="267.5" y="7"/><text fill="#000000" font-family="sans-serif" font-size="14" lengthAdjust="spacing" textLength="55" x="277.5" y="30.5352">Position</text></g><g id="elem_Shipment"><rect fill="#F1F1F1" height="36.4883" rx="2.5" ry="2.5" style="stroke:#181818;stroke-width:0.5;" width="85" x="414.5" y="199.97"/><text fill="#000000" font-family="sans-serif" font-size="14" lengthAdjust="spacing" textLength="65" x="424.5" y="223.5052">Shipment</text></g><g id="elem_ShipmentEvent"><rect fill="#F1F1F1" height="36.4883" rx="2.5" ry="2.5" style="stroke:#181818;stroke-width:0.5;" width="122" x="282" y="103.48"/><text fill="#000000" font-family="sans-serif" font-size="14" lengthAdjust="spacing" textLength="102" x="292" y="127.0152">ShipmentEvent</text></g><g id="elem_UnitOfMeasure"><rect fill="#F1F1F1" height="36.4883" rx="2.5" ry="2.5" style="stroke:#181818;stroke-width:0.5;" width="122" x="510" y="103.48"/><text fill="#000000" font-family="sans-serif" font-size="14" lengthAdjust="spacing" textLength="102" x="520" y="127.0152">UnitOfMeasure</text></g><g id="elem_AddressTypes"><rect fill="#FAFF91" height="36.4883" rx="2.5" ry="2.5" style="stroke:#181818;stroke-width:0.5;" width="116" x="889" y="7"/><text fill="#000000" font-family="sans-serif" font-size="14" lengthAdjust="spacing" textLength="96" x="899" y="30.5352">AddressTypes</text></g><g id="elem_InvoiceTypes"><rect fill="#FAFF91" height="36.4883" rx="2.5" ry="2.5" style="stroke:#181818;stroke-width:0.5;" width="108" x="7" y="7"/><text fill="#000000" font-family="sans-serif" font-size="14" lengthAdjust="spacing" textLength="88" x="17" y="30.5352">InvoiceTypes</text></g><g id="elem_ShipmentStateTypes"><rect fill="#FAFF91" height="36.4883" rx="2.5" ry="2.5" style="stroke:#181818;stroke-width:0.5;" width="159" x="377.5" y="7"/><text fill="#000000" font-family="sans-serif" font-size="14" lengthAdjust="spacing" textLength="139" x="387.5" y="30.5352">ShipmentStateTypes</text></g><g id="elem_ShippingMethodTypes"><rect fill="#FAFF91" height="36.4883" rx="2.5" ry="2.5" style="stroke:#181818;stroke-width:0.5;" width="173" x="666.5" y="103.48"/><text fill="#000000" font-family="sans-serif" font-size="14" lengthAdjust="spacing" textLength="153" x="676.5" y="127.0152">ShippingMethodTypes</text></g><g id="elem_UOMQuantityCategoryTypes"><rect fill="#FAFF91" height="36.4883" rx="2.5" ry="2.5" style="stroke:#181818;stroke-width:0.5;" width="213" x="571.5" y="7"/><text fill="#000000" font-family="sans-serif" font-size="14" lengthAdjust="spacing" textLength="193" x="581.5" y="30.5352">UOMQuantityCategoryTypes</text></g><g id="link_AddressReference_Shipment"><path d="M862.9171,138.9422 C759.3571,158.9122 583.83,192.76 499.81,208.96 " fill="none" id="AddressReference-backto-Shipment" style="stroke:#181818;stroke-width:1.0;"/><polygon fill="#181818" points="874.7,136.67,868.0512,133.8784,862.9171,138.9422,869.5659,141.7337,874.7,136.67" style="stroke:#181818;stroke-width:1.0;"/></g><g id="link_AddressTypes_AddressReference"><path d="M947,55.57 C947,72.51 947,86.17 947,103.19 " fill="none" id="AddressTypes-backto-AddressReference" style="stroke:#181818;stroke-width:1.0;"/><polygon fill="#181818" points="947,43.57,943,49.57,947,55.57,951,49.57,947,43.57" style="stroke:#181818;stroke-width:1.0;"/></g><g id="link_Identifier_InvoiceReference"><path d="M175.78,43.57 C160.89,60.51 138.35,86.17 123.41,103.19 " fill="none" id="Identifier-InvoiceReference" style="stroke:#181818;stroke-width:1.0;"/></g><g id="link_Identifier_Shipment"><path d="M203.1205,54.6038 C214.1305,79.2138 232.43,113.19 265,139.97 C309.12,176.26 372.5,197.27 414.2,207.98 " fill="none" id="Identifier-backto-Shipment" style="stroke:#181818;stroke-width:1.0;"/><polygon fill="#181818" points="198.22,43.65,197.019,50.7604,203.1205,54.6038,204.3215,47.4934,198.22,43.65" style="stroke:#181818;stroke-width:1.0;"/></g><g id="link_InvoiceReference_Shipment"><path d="M184.813,143.5258 C255.253,162.5958 353.84,189.29 414.09,205.6 " fill="none" id="InvoiceReference-backto-Shipment" style="stroke:#181818;stroke-width:1.0;"/><polygon fill="#181818" points="173.23,140.39,177.9762,145.8189,184.813,143.5258,180.0668,138.0969,173.23,140.39" style="stroke:#181818;stroke-width:1.0;"/></g><g id="link_InvoiceTypes_InvoiceReference"><path d="M69.62,43.57 C78.05,60.51 90.81,86.17 99.27,103.19 " fill="none" id="InvoiceTypes-InvoiceReference" style="stroke:#181818;stroke-width:1.0;"/></g><g id="link_Position_ShipmentEvent"><path d="M311.97,43.57 C318.78,60.51 329.1,86.17 335.95,103.19 " fill="none" id="Position-ShipmentEvent" style="stroke:#181818;stroke-width:1.0;"/></g><g id="link_ShipmentEvent_Shipment"><path d="M373.4182,147.9387 C393.8882,164.9087 415.5,182.82 435.94,199.76 " fill="none" id="ShipmentEvent-backto-Shipment" style="stroke:#181818;stroke-width:1.0;"/><polygon fill="#181818" points="364.18,140.28,366.2462,147.1887,373.4182,147.9387,371.352,141.0299,364.18,140.28" style="stroke:#181818;stroke-width:1.0;"/></g><g id="link_ShipmentStateTypes_ShipmentEvent"><path d="M426.5818,51.4487 C406.1118,68.4187 384.5,86.33 364.06,103.27 " fill="none" id="ShipmentStateTypes-backto-ShipmentEvent" style="stroke:#181818;stroke-width:1.0;"/><polygon fill="#181818" points="435.82,43.79,428.648,44.5399,426.5818,51.4487,433.7538,50.6987,435.82,43.79" style="stroke:#181818;stroke-width:1.0;"/></g><g id="link_ShipmentStateTypes_Shipment"><path d="M457,43.86 C457,80.25 457,163.29 457,199.63 " fill="none" id="ShipmentStateTypes-Shipment" style="stroke:#181818;stroke-width:1.0;"/></g><g id="link_ShippingMethodTypes_Shipment"><path d="M686.2383,144.0392 C628.8483,162.3592 551.77,186.96 499.59,203.62 " fill="none" id="ShippingMethodTypes-backto-Shipment" style="stroke:#181818;stroke-width:1.0;"/><polygon fill="#181818" points="697.67,140.39,690.7378,138.404,686.2383,144.0392,693.1706,146.0252,697.67,140.39" style="stroke:#181818;stroke-width:1.0;"/></g><g id="link_UOMQuantityCategoryTypes_UnitOfMeasure"><path d="M658.12,43.79 C638.91,60.76 609.95,86.33 590.77,103.27 " fill="none" id="UOMQuantityCategoryTypes-UnitOfMeasure" style="stroke:#181818;stroke-width:1.0;"/></g><g id="link_UnitOfMeasure_Shipment"><path d="M540.5818,147.9387 C520.1118,164.9087 498.5,182.82 478.06,199.76 " fill="none" id="UnitOfMeasure-backto-Shipment" style="stroke:#181818;stroke-width:1.0;"/><polygon fill="#181818" points="549.82,140.28,542.648,141.0299,540.5818,147.9387,547.7538,147.1887,549.82,140.28" style="stroke:#181818;stroke-width:1.0;"/></g></g></svg>