<?xml version="1.0" encoding="us-ascii" standalone="no"?><svg xmlns="http://www.w3.org/2000/svg" xmlns:xlink="http://www.w3.org/1999/xlink" contentStyleType="text/css" height="531px" preserveAspectRatio="none" style="width:3150px;height:531px;background:#FFFFFF;" version="1.1" viewBox="0 0 3150 531" width="3150px" zoomAndPan="magnify"><defs/><g><g id="elem_EffectivePeriod"><rect fill="#F1F1F1" height="36.4883" rx="2.5" ry="2.5" style="stroke:#181818;stroke-width:0.5;" width="121" x="1295" y="103.49"/><text fill="#000000" font-family="sans-serif" font-size="14" lengthAdjust="spacing" textLength="101" x="1305" y="127.0252">EffectivePeriod</text></g><g id="elem_FinancialSplit"><rect fill="#F1F1F1" height="36.4883" rx="2.5" ry="2.5" style="stroke:#181818;stroke-width:0.5;" width="111" x="2191" y="199.98"/><text fill="#000000" font-family="sans-serif" font-size="14" lengthAdjust="spacing" textLength="91" x="2201" y="223.5152">FinancialSplit</text></g><g id="elem_Identifier"><rect fill="#F1F1F1" height="36.4883" rx="2.5" ry="2.5" style="stroke:#181818;stroke-width:0.5;" width="82" x="466.5" y="103.49"/><text fill="#000000" font-family="sans-serif" font-size="14" lengthAdjust="spacing" textLength="62" x="476.5" y="127.0252">Identifier</text></g><g id="elem_LeadTime"><rect fill="#F1F1F1" height="36.4883" rx="2.5" ry="2.5" style="stroke:#181818;stroke-width:0.5;" width="86" x="2070.5" y="199.98"/><text fill="#000000" font-family="sans-serif" font-size="14" lengthAdjust="spacing" textLength="66" x="2080.5" y="223.5152">LeadTime</text></g><g id="elem_PartCategory"><rect fill="#F1F1F1" height="36.4883" rx="2.5" ry="2.5" style="stroke:#181818;stroke-width:0.5;" width="109" x="297" y="392.95"/><text fill="#000000" font-family="sans-serif" font-size="14" lengthAdjust="spacing" textLength="89" x="307" y="416.4852">PartCategory</text></g><g id="elem_PartIdentifier"><rect fill="#F1F1F1" height="36.4883" rx="2.5" ry="2.5" style="stroke:#181818;stroke-width:0.5;" width="109" x="585" y="296.47"/><text fill="#000000" font-family="sans-serif" font-size="14" lengthAdjust="spacing" textLength="89" x="595" y="320.0052">PartIdentifier</text></g><g id="elem_PartInventoryReference"><rect fill="#F1F1F1" height="36.4883" rx="2.5" ry="2.5" style="stroke:#181818;stroke-width:0.5;" width="179" x="7" y="392.95"/><text fill="#000000" font-family="sans-serif" font-size="14" lengthAdjust="spacing" textLength="159" x="17" y="416.4852">PartInventoryReference</text></g><g id="elem_PartLifecycle"><rect fill="#F1F1F1" height="36.4883" rx="2.5" ry="2.5" style="stroke:#181818;stroke-width:0.5;" width="104" x="818.5" y="392.95"/><text fill="#000000" font-family="sans-serif" font-size="14" lengthAdjust="spacing" textLength="84" x="828.5" y="416.4852">PartLifecycle</text></g><g id="elem_PartMaster"><rect fill="#F1F1F1" height="36.4883" rx="2.5" ry="2.5" style="stroke:#181818;stroke-width:0.5;" width="93" x="878" y="489.44"/><text fill="#000000" font-family="sans-serif" font-size="14" lengthAdjust="spacing" textLength="73" x="888" y="512.9752">PartMaster</text></g><g id="elem_PartMasterProfile"><rect fill="#F1F1F1" height="36.4883" rx="2.5" ry="2.5" style="stroke:#181818;stroke-width:0.5;" width="137" x="1972" y="296.47"/><text fill="#000000" font-family="sans-serif" font-size="14" lengthAdjust="spacing" textLength="117" x="1982" y="320.0052">PartMasterProfile</text></g><g id="elem_PartMasterRegulatory"><rect fill="#F1F1F1" height="36.4883" rx="2.5" ry="2.5" style="stroke:#181818;stroke-width:0.5;" width="167" x="1032" y="392.95"/><text fill="#000000" font-family="sans-serif" font-size="14" lengthAdjust="spacing" textLength="147" x="1042" y="416.4852">PartMasterRegulatory</text></g><g id="elem_PartName"><rect fill="#F1F1F1" height="36.4883" rx="2.5" ry="2.5" style="stroke:#181818;stroke-width:0.5;" width="86" x="1373.5" y="199.98"/><text fill="#000000" font-family="sans-serif" font-size="14" lengthAdjust="spacing" textLength="66" x="1383.5" y="223.5152">PartName</text></g><g id="elem_PartSpecification"><rect fill="#F1F1F1" height="36.4883" rx="2.5" ry="2.5" style="stroke:#181818;stroke-width:0.5;" width="134" x="1901.5" y="199.98"/><text fill="#000000" font-family="sans-serif" font-size="14" lengthAdjust="spacing" textLength="114" x="1911.5" y="223.5152">PartSpecification</text></g><g id="elem_PartyIdentifier"><rect fill="#F1F1F1" height="36.4883" rx="2.5" ry="2.5" style="stroke:#181818;stroke-width:0.5;" width="116" x="1750.5" y="199.98"/><text fill="#000000" font-family="sans-serif" font-size="14" lengthAdjust="spacing" textLength="96" x="1760.5" y="223.5152">PartyIdentifier</text></g><g id="elem_PricePlanReference"><rect fill="#F1F1F1" height="36.4883" rx="2.5" ry="2.5" style="stroke:#181818;stroke-width:0.5;" width="150" x="552.5" y="392.95"/><text fill="#000000" font-family="sans-serif" font-size="14" lengthAdjust="spacing" textLength="130" x="562.5" y="416.4852">PricePlanReference</text></g><g id="elem_SuperSession"><rect fill="#F1F1F1" height="36.4883" rx="2.5" ry="2.5" style="stroke:#181818;stroke-width:0.5;" width="112" x="814.5" y="296.47"/><text fill="#000000" font-family="sans-serif" font-size="14" lengthAdjust="spacing" textLength="92" x="824.5" y="320.0052">SuperSession</text></g><g id="elem_TextualDetail"><rect fill="#F1F1F1" height="36.4883" rx="2.5" ry="2.5" style="stroke:#181818;stroke-width:0.5;" width="111" x="292" y="296.47"/><text fill="#000000" font-family="sans-serif" font-size="14" lengthAdjust="spacing" textLength="91" x="302" y="320.0052">TextualDetail</text></g><g id="elem_UnitOfMeasure"><rect fill="#F1F1F1" height="36.4883" rx="2.5" ry="2.5" style="stroke:#181818;stroke-width:0.5;" width="122" x="2227.5" y="103.49"/><text fill="#000000" font-family="sans-serif" font-size="14" lengthAdjust="spacing" textLength="102" x="2237.5" y="127.0252">UnitOfMeasure</text></g><g id="elem_DurationUOMTypes"><rect fill="#FAFF91" height="36.4883" rx="2.5" ry="2.5" style="stroke:#181818;stroke-width:0.5;" width="153" x="1279" y="7"/><text fill="#000000" font-family="sans-serif" font-size="14" lengthAdjust="spacing" textLength="133" x="1289" y="30.5352">DurationUOMTypes</text></g><g id="elem_FinancialTransactionTypes"><rect fill="#FAFF91" height="36.4883" rx="2.5" ry="2.5" style="stroke:#181818;stroke-width:0.5;" width="202" x="2942.5" y="103.49"/><text fill="#000000" font-family="sans-serif" font-size="14" lengthAdjust="spacing" textLength="182" x="2952.5" y="127.0252">FinancialTransactionTypes</text></g><g id="elem_HazardClassTypes"><rect fill="#FAFF91" height="36.4883" rx="2.5" ry="2.5" style="stroke:#181818;stroke-width:0.5;" width="145" x="1033" y="296.47"/><text fill="#000000" font-family="sans-serif" font-size="14" lengthAdjust="spacing" textLength="125" x="1043" y="320.0052">HazardClassTypes</text></g><g id="elem_LedgerActionTypes"><rect fill="#FAFF91" height="36.4883" rx="2.5" ry="2.5" style="stroke:#181818;stroke-width:0.5;" width="151" x="2546" y="103.49"/><text fill="#000000" font-family="sans-serif" font-size="14" lengthAdjust="spacing" textLength="131" x="2556" y="127.0252">LedgerActionTypes</text></g><g id="elem_LifecycleEventTypes"><rect fill="#FAFF91" height="36.4883" rx="2.5" ry="2.5" style="stroke:#181818;stroke-width:0.5;" width="154" x="1692.5" y="392.95"/><text fill="#000000" font-family="sans-serif" font-size="14" lengthAdjust="spacing" textLength="134" x="1702.5" y="416.4852">LifecycleEventTypes</text></g><g id="elem_PartConditionGradeTypes"><rect fill="#FAFF91" height="36.4883" rx="2.5" ry="2.5" style="stroke:#181818;stroke-width:0.5;" width="196" x="1803.5" y="103.49"/><text fill="#000000" font-family="sans-serif" font-size="14" lengthAdjust="spacing" textLength="176" x="1813.5" y="127.0252">PartConditionGradeTypes</text></g><g id="elem_PartConditionTypes"><rect fill="#FAFF91" height="36.4883" rx="2.5" ry="2.5" style="stroke:#181818;stroke-width:0.5;" width="155" x="1613" y="103.49"/><text fill="#000000" font-family="sans-serif" font-size="14" lengthAdjust="spacing" textLength="135" x="1623" y="127.0252">PartConditionTypes</text></g><g id="elem_PartHazardPackingGroupTypes"><rect fill="#FAFF91" height="36.4883" rx="2.5" ry="2.5" style="stroke:#181818;stroke-width:0.5;" width="232" x="1212.5" y="296.47"/><text fill="#000000" font-family="sans-serif" font-size="14" lengthAdjust="spacing" textLength="212" x="1222.5" y="320.0052">PartHazardPackingGroupTypes</text></g><g id="elem_PartIdentifierTypes"><rect fill="#FAFF91" height="36.4883" rx="2.5" ry="2.5" style="stroke:#181818;stroke-width:0.5;" width="149" x="433" y="199.98"/><text fill="#000000" font-family="sans-serif" font-size="14" lengthAdjust="spacing" textLength="129" x="443" y="223.5152">PartIdentifierTypes</text></g><g id="elem_PartNameTypes"><rect fill="#FAFF91" height="36.4883" rx="2.5" ry="2.5" style="stroke:#181818;stroke-width:0.5;" width="126" x="1451.5" y="103.49"/><text fill="#000000" font-family="sans-serif" font-size="14" lengthAdjust="spacing" textLength="106" x="1461.5" y="127.0252">PartNameTypes</text></g><g id="elem_PartOrderConfigTypes"><rect fill="#FAFF91" height="36.4883" rx="2.5" ry="2.5" style="stroke:#181818;stroke-width:0.5;" width="173" x="924" y="199.98"/><text fill="#000000" font-family="sans-serif" font-size="14" lengthAdjust="spacing" textLength="153" x="934" y="223.5152">PartOrderConfigTypes</text></g><g id="elem_PartStatusTypes"><rect fill="#FAFF91" height="36.4883" rx="2.5" ry="2.5" style="stroke:#181818;stroke-width:0.5;" width="129" x="688" y="199.98"/><text fill="#000000" font-family="sans-serif" font-size="14" lengthAdjust="spacing" textLength="109" x="698" y="223.5152">PartStatusTypes</text></g><g id="elem_PartyRelationshipTypes"><rect fill="#FAFF91" height="36.4883" rx="2.5" ry="2.5" style="stroke:#181818;stroke-width:0.5;" width="179" x="1081" y="103.49"/><text fill="#000000" font-family="sans-serif" font-size="14" lengthAdjust="spacing" textLength="159" x="1091" y="127.0252">PartyRelationshipTypes</text></g><g id="elem_ProductConsumptionTypes"><rect fill="#FAFF91" height="36.4883" rx="2.5" ry="2.5" style="stroke:#181818;stroke-width:0.5;" width="206" x="1132.5" y="199.98"/><text fill="#000000" font-family="sans-serif" font-size="14" lengthAdjust="spacing" textLength="186" x="1142.5" y="223.5152">ProductConsumptionTypes</text></g><g id="elem_ProductPackageTypes"><rect fill="#FAFF91" height="36.4883" rx="2.5" ry="2.5" style="stroke:#181818;stroke-width:0.5;" width="169" x="831" y="103.49"/><text fill="#000000" font-family="sans-serif" font-size="14" lengthAdjust="spacing" textLength="149" x="841" y="127.0252">ProductPackageTypes</text></g><g id="elem_ProductPriceItemTypes"><rect fill="#FAFF91" height="36.4883" rx="2.5" ry="2.5" style="stroke:#181818;stroke-width:0.5;" width="176" x="2731.5" y="103.49"/><text fill="#000000" font-family="sans-serif" font-size="14" lengthAdjust="spacing" textLength="156" x="2741.5" y="127.0252">ProductPriceItemTypes</text></g><g id="elem_ProductStageTypes"><rect fill="#FAFF91" height="36.4883" rx="2.5" ry="2.5" style="stroke:#181818;stroke-width:0.5;" width="151" x="1494" y="199.98"/><text fill="#000000" font-family="sans-serif" font-size="14" lengthAdjust="spacing" textLength="131" x="1504" y="223.5152">ProductStageTypes</text></g><g id="elem_SalesStatusTypes"><rect fill="#FAFF91" height="36.4883" rx="2.5" ry="2.5" style="stroke:#181818;stroke-width:0.5;" width="137" x="2337" y="199.98"/><text fill="#000000" font-family="sans-serif" font-size="14" lengthAdjust="spacing" textLength="117" x="2347" y="223.5152">SalesStatusTypes</text></g><g id="elem_UOMLeadTimeTypes"><rect fill="#FAFF91" height="36.4883" rx="2.5" ry="2.5" style="stroke:#181818;stroke-width:0.5;" width="159" x="2034" y="103.49"/><text fill="#000000" font-family="sans-serif" font-size="14" lengthAdjust="spacing" textLength="139" x="2044" y="127.0252">UOMLeadTimeTypes</text></g><g id="elem_UOMQuantityCategoryTypes"><rect fill="#FAFF91" height="36.4883" rx="2.5" ry="2.5" style="stroke:#181818;stroke-width:0.5;" width="213" x="2182" y="7"/><text fill="#000000" font-family="sans-serif" font-size="14" lengthAdjust="spacing" textLength="193" x="2192" y="30.5352">UOMQuantityCategoryTypes</text></g><g id="elem_UOMTimeTypes"><rect fill="#FAFF91" height="36.4883" rx="2.5" ry="2.5" style="stroke:#181818;stroke-width:0.5;" width="127" x="2384" y="103.49"/><text fill="#000000" font-family="sans-serif" font-size="14" lengthAdjust="spacing" textLength="107" x="2394" y="127.0252">UOMTimeTypes</text></g><g id="link_DurationUOMTypes_EffectivePeriod"><path d="M1355.5,43.57 C1355.5,60.52 1355.5,86.18 1355.5,103.19 " fill="none" id="DurationUOMTypes-EffectivePeriod" style="stroke:#181818;stroke-width:1.0;"/></g><g id="link_EffectivePeriod_PartyIdentifier"><path d="M1416.3,136.08 C1422.45,137.4 1428.6,138.72 1434.5,139.98 C1546.05,163.67 1676.53,190.39 1750.15,205.38 " fill="none" id="EffectivePeriod-PartyIdentifier" style="stroke:#181818;stroke-width:1.0;"/></g><g id="link_FinancialSplit_PartMasterProfile"><path d="M2197.3326,241.7728 C2160.4426,258.6928 2115.84,279.15 2078.91,296.09 " fill="none" id="FinancialSplit-backto-PartMasterProfile" style="stroke:#181818;stroke-width:1.0;"/><polygon fill="#181818" points="2208.24,236.77,2201.1187,235.6356,2197.3326,241.7728,2204.4539,242.9072,2208.24,236.77" style="stroke:#181818;stroke-width:1.0;"/></g><g id="link_FinancialTransactionTypes_FinancialSplit"><path d="M2942.27,137.72 C2936.26,138.51 2930.3,139.27 2924.5,139.98 C2656.28,172.69 2586.02,155.49 2319.5,199.98 C2313.85,200.92 2307.98,202.05 2302.14,203.27 " fill="none" id="FinancialTransactionTypes-FinancialSplit" style="stroke:#181818;stroke-width:1.0;"/></g><g id="link_HazardClassTypes_PartMasterRegulatory"><path d="M1108.598,344.9728 C1110.398,361.9128 1111.84,375.64 1113.64,392.66 " fill="none" id="HazardClassTypes-backto-PartMasterRegulatory" style="stroke:#181818;stroke-width:1.0;"/><polygon fill="#181818" points="1107.33,333.04,1103.9864,339.4291,1108.598,344.9728,1111.9416,338.5838,1107.33,333.04" style="stroke:#181818;stroke-width:1.0;"/></g><g id="link_Identifier_PartInventoryReference"><path d="M466.1,123.57 C404.6,126.84 288.23,141.04 212.5,199.98 C146.21,251.56 112.41,352.18 101.02,392.69 " fill="none" id="Identifier-PartInventoryReference" style="stroke:#181818;stroke-width:1.0;"/></g><g id="link_Identifier_PartyIdentifier"><path d="M548.8,125.02 C748.03,136.09 1605.02,184.27 1723.5,199.98 C1732.16,201.12 1741.26,202.64 1750.15,204.29 " fill="none" id="Identifier-PartyIdentifier" style="stroke:#181818;stroke-width:1.0;"/></g><g id="link_Identifier_PricePlanReference"><path d="M475.59,140.33 C442.3,161.19 397.3,198.02 415.5,236.47 C451.54,312.59 539.09,366.5 589.69,392.52 " fill="none" id="Identifier-PricePlanReference" style="stroke:#181818;stroke-width:1.0;"/></g><g id="link_Identifier_PartIdentifier"><path d="M545.4145,147.0641 C565.6945,161.0241 582.53,175.45 599.5,199.98 C620.46,230.27 631.51,272.67 636.36,296.21 " fill="none" id="Identifier-backto-PartIdentifier" style="stroke:#181818;stroke-width:1.0;"/><polygon fill="#181818" points="535.53,140.26,538.2042,146.9569,545.4145,147.0641,542.7403,140.3672,535.53,140.26" style="stroke:#181818;stroke-width:1.0;"/></g><g id="link_Identifier_PartMaster"><path d="M454.8493,136.7787 C416.9093,148.1987 372.27,165.98 333.5,199.98 C254.73,269.05 207.96,352.9 279.5,429.44 C320.32,473.11 735.87,497.43 877.51,504.49 " fill="none" id="Identifier-backto-PartMaster" style="stroke:#181818;stroke-width:1.0;"/><polygon fill="#181818" points="466.34,133.32,459.4417,131.2191,454.8493,136.7787,461.7475,138.8796,466.34,133.32" style="stroke:#181818;stroke-width:1.0;"/></g><g id="link_Identifier_PartMasterProfile"><path d="M560.7614,125.6881 C760.5514,136.8281 1607.76,184.78 1662.5,199.98 C1696.69,209.47 1700.3,223.95 1733.5,236.47 C1813.08,266.47 1908.63,288.43 1971.76,301.1 " fill="none" id="Identifier-backto-PartMasterProfile" style="stroke:#181818;stroke-width:1.0;"/><polygon fill="#181818" points="548.78,125.02,554.548,129.3478,560.7614,125.6881,554.9934,121.3602,548.78,125.02" style="stroke:#181818;stroke-width:1.0;"/></g><g id="link_Identifier_PartSpecification"><path d="M560.5609,125.7273 C619.2909,129.0473 718.67,134.65 813.5,139.98 C1289.05,166.71 1411.1,139.14 1883.5,199.98 C1889.32,200.73 1895.35,201.65 1901.37,202.67 " fill="none" id="Identifier-backto-PartSpecification" style="stroke:#181818;stroke-width:1.0;"/><polygon fill="#181818" points="548.58,125.05,554.3447,129.3823,560.5609,125.7273,554.7962,121.395,548.58,125.05" style="stroke:#181818;stroke-width:1.0;"/></g><g id="link_Identifier_TextualDetail"><path d="M454.7739,134.6278 C418.7139,144.5978 379.79,161.58 354.5,199.98 C335.24,229.22 339.27,272.39 343.59,296.26 " fill="none" id="Identifier-backto-TextualDetail" style="stroke:#181818;stroke-width:1.0;"/><polygon fill="#181818" points="466.34,131.43,459.491,129.1736,454.7739,134.6278,461.6229,136.8843,466.34,131.43" style="stroke:#181818;stroke-width:1.0;"/></g><g id="link_LeadTime_PartMasterProfile"><path d="M2092.7726,246.0454 C2079.6826,262.9854 2067.2,279.15 2054.05,296.17 " fill="none" id="LeadTime-backto-PartMasterProfile" style="stroke:#181818;stroke-width:1.0;"/><polygon fill="#181818" points="2100.11,236.55,2093.2762,238.8519,2092.7726,246.0454,2099.6065,243.7435,2100.11,236.55" style="stroke:#181818;stroke-width:1.0;"/></g><g id="link_LedgerActionTypes_FinancialSplit"><path d="M2551.41,140.39 C2479.33,158.56 2368.52,186.48 2302.21,203.18 " fill="none" id="LedgerActionTypes-FinancialSplit" style="stroke:#181818;stroke-width:1.0;"/></g><g id="link_LifecycleEventTypes_PartMaster"><path d="M1692.06,425.57 C1683.11,426.95 1674.12,428.28 1665.5,429.44 C1404.01,464.72 1088.73,492.82 971.43,502.79 " fill="none" id="LifecycleEventTypes-PartMaster" style="stroke:#181818;stroke-width:1.0;"/></g><g id="link_PartCategory_PartMaster"><path d="M418.2802,423.2121 C530.6102,441.7321 772.93,481.69 877.85,498.99 " fill="none" id="PartCategory-backto-PartMaster" style="stroke:#181818;stroke-width:1.0;"/><polygon fill="#181818" points="406.44,421.26,411.7094,426.1828,418.2802,423.2121,413.0108,418.2893,406.44,421.26" style="stroke:#181818;stroke-width:1.0;"/></g><g id="link_PartConditionGradeTypes_PartSpecification"><path d="M1920.7277,149.8513 C1932.7377,166.8013 1944,182.67 1956.06,199.68 " fill="none" id="PartConditionGradeTypes-backto-PartSpecification" style="stroke:#181818;stroke-width:1.0;"/><polygon fill="#181818" points="1913.79,140.06,1913.9951,147.2682,1920.7277,149.8513,1920.5226,142.6431,1913.79,140.06" style="stroke:#181818;stroke-width:1.0;"/></g><g id="link_PartConditionTypes_PartSpecification"><path d="M1753.8216,144.2519 C1803.4816,161.1319 1866.59,182.58 1916.32,199.49 " fill="none" id="PartConditionTypes-backto-PartSpecification" style="stroke:#181818;stroke-width:1.0;"/><polygon fill="#181818" points="1742.46,140.39,1746.8535,146.1082,1753.8216,144.2519,1749.4281,138.5338,1742.46,140.39" style="stroke:#181818;stroke-width:1.0;"/></g><g id="link_PartHazardPackingGroupTypes_PartMasterRegulatory"><path d="M1288.94,333.26 C1250.8,350.18 1193.4,375.64 1155.21,392.58 " fill="none" id="PartHazardPackingGroupTypes-PartMasterRegulatory" style="stroke:#181818;stroke-width:1.0;"/></g><g id="link_PartIdentifierTypes_PartIdentifier"><path d="M532.02,236.77 C555.73,253.74 591.45,279.31 615.11,296.25 " fill="none" id="PartIdentifierTypes-PartIdentifier" style="stroke:#181818;stroke-width:1.0;"/></g><g id="link_PartIdentifier_PartMaster"><path d="M673.6604,340.4727 C705.1404,363.1927 751.98,396.54 801.5,429.44 C833.21,450.51 870.31,473.6 895.4,489 " fill="none" id="PartIdentifier-backto-PartMaster" style="stroke:#181818;stroke-width:1.0;"/><polygon fill="#181818" points="663.93,333.45,666.4543,340.2048,673.6604,340.4727,671.1361,333.7179,663.93,333.45" style="stroke:#181818;stroke-width:1.0;"/></g><g id="link_PartInventoryReference_PartMaster"><path d="M198.2631,427.5906 C207.0831,428.8306 204.02,428.35 212.5,429.44 C462.84,461.62 763.86,491.34 877.77,502.26 " fill="none" id="PartInventoryReference-backto-PartMaster" style="stroke:#181818;stroke-width:1.0;"/><polygon fill="#181818" points="186.38,425.92,191.7647,430.7164,198.2631,427.5906,192.8785,422.7943,186.38,425.92" style="stroke:#181818;stroke-width:1.0;"/></g><g id="link_PartLifecycle_PartMaster"><path d="M886.3583,439.9463 C896.0483,456.8863 904.75,472.13 914.48,489.15 " fill="none" id="PartLifecycle-backto-PartMaster" style="stroke:#181818;stroke-width:1.0;"/><polygon fill="#181818" points="880.4,429.53,879.9071,436.7242,886.3583,439.9463,886.8512,432.752,880.4,429.53" style="stroke:#181818;stroke-width:1.0;"/></g><g id="link_PartMasterProfile_PartMaster"><path d="M1971.52,325.62 C1897.05,337.39 1775.51,359.71 1674.5,392.95 C1637.38,405.17 1632.15,418.97 1594.5,429.44 C1366.91,492.76 1081.92,504.25 971.35,506.28 " fill="none" id="PartMasterProfile-PartMaster" style="stroke:#181818;stroke-width:1.0;"/></g><g id="link_PartMasterRegulatory_PartMaster"><path d="M1080.02,429.75 C1045.82,446.67 994.36,472.13 960.11,489.07 " fill="none" id="PartMasterRegulatory-PartMaster" style="stroke:#181818;stroke-width:1.0;"/></g><g id="link_PartNameTypes_PartName"><path d="M1496.53,140.06 C1478.95,157.01 1452.34,182.67 1434.69,199.68 " fill="none" id="PartNameTypes-PartName" style="stroke:#181818;stroke-width:1.0;"/></g><g id="link_PartNameTypes_PartSpecification"><path d="M1577.73,136.23 C1583.73,137.5 1589.73,138.77 1595.5,139.98 C1702.29,162.4 1826.37,188.01 1901.09,203.38 " fill="none" id="PartNameTypes-PartSpecification" style="stroke:#181818;stroke-width:1.0;"/></g><g id="link_PartName_PartIdentifier"><path d="M1361.4396,235.4543 C1355.5796,236.9643 1361.23,235.36 1355.5,236.47 C1110.18,283.95 1044.91,269.49 796.5,296.47 C762.56,300.15 724.5,304.33 694.35,307.65 " fill="none" id="PartName-backto-PartIdentifier" style="stroke:#181818;stroke-width:1.0;"/><polygon fill="#181818" points="1373.06,232.46,1366.2517,230.0837,1361.4396,235.4543,1368.2479,237.8306,1373.06,232.46" style="stroke:#181818;stroke-width:1.0;"/></g><g id="link_PartName_PartMaster"><path d="M1441.3009,246.0254 C1461.5609,269.4454 1482.42,302.24 1461.5,332.95 C1404.7,416.38 1091.59,478.04 971.45,498.94 " fill="none" id="PartName-backto-PartMaster" style="stroke:#181818;stroke-width:1.0;"/><polygon fill="#181818" points="1433.45,236.95,1434.3503,244.1047,1441.3009,246.0254,1440.4006,238.8707,1433.45,236.95" style="stroke:#181818;stroke-width:1.0;"/></g><g id="link_PartName_SuperSession"><path d="M1361.4141,235.29 C1355.5541,236.83 1361.2,235.24 1355.5,236.47 C1178.89,274.45 1131.34,264.75 953.5,296.47 C944.81,298.02 935.63,299.79 926.67,301.59 " fill="none" id="PartName-backto-SuperSession" style="stroke:#181818;stroke-width:1.0;"/><polygon fill="#181818" points="1373.02,232.24,1366.2004,229.8964,1361.4141,235.29,1368.2337,237.6336,1373.02,232.24" style="stroke:#181818;stroke-width:1.0;"/></g><g id="link_PartOrderConfigTypes_SuperSession"><path d="M984.5,236.77 C959.35,253.74 921.46,279.31 896.37,296.25 " fill="none" id="PartOrderConfigTypes-SuperSession" style="stroke:#181818;stroke-width:1.0;"/></g><g id="link_PartSpecification_PartMasterProfile"><path d="M1988.9837,246.0943 C2001.8937,263.0343 2014.17,279.15 2027.13,296.17 " fill="none" id="PartSpecification-backto-PartMasterProfile" style="stroke:#181818;stroke-width:1.0;"/><polygon fill="#181818" points="1981.71,236.55,1982.1654,243.7467,1988.9837,246.0943,1988.5283,238.8976,1981.71,236.55" style="stroke:#181818;stroke-width:1.0;"/></g><g id="link_PartStatusTypes_PartLifecycle"><path d="M760.146,248.3493 C766.546,271.5893 776.61,301.69 796.5,332.95 C811.15,355.99 833.38,378.04 849.65,392.64 " fill="none" id="PartStatusTypes-backto-PartLifecycle" style="stroke:#181818;stroke-width:1.0;"/><polygon fill="#181818" points="756.96,236.78,754.6966,243.6267,760.146,248.3493,762.4095,241.5026,756.96,236.78" style="stroke:#181818;stroke-width:1.0;"/></g><g id="link_PartStatusTypes_SuperSession"><path d="M783.7865,244.2712 C804.9765,261.2412 827.54,279.31 848.7,296.25 " fill="none" id="PartStatusTypes-backto-SuperSession" style="stroke:#181818;stroke-width:1.0;"/><polygon fill="#181818" points="774.42,236.77,776.6029,243.6428,783.7865,244.2712,781.6037,237.3984,774.42,236.77" style="stroke:#181818;stroke-width:1.0;"/></g><g id="link_PartyIdentifier_PartMaster"><path d="M1767.1541,242.7508 C1695.2041,283.1108 1520.31,376.84 1353.5,429.44 C1218.36,472.06 1051.39,493.66 971.46,502.19 " fill="none" id="PartyIdentifier-backto-PartMaster" style="stroke:#181818;stroke-width:1.0;"/><polygon fill="#181818" points="1777.62,236.88,1770.4302,236.3268,1767.1541,242.7508,1774.344,243.304,1777.62,236.88" style="stroke:#181818;stroke-width:1.0;"/></g><g id="link_PartyIdentifier_SuperSession"><path d="M1738.3661,227.8752 C1711.6361,231.0952 1691.44,233.42 1662.5,236.47 C1375.3,266.74 1302.69,266.08 1015.5,296.47 C986.26,299.56 953.74,303.39 926.93,306.65 " fill="none" id="PartyIdentifier-backto-SuperSession" style="stroke:#181818;stroke-width:1.0;"/><polygon fill="#181818" points="1750.28,226.44,1743.8447,223.1863,1738.3661,227.8752,1744.8015,231.1289,1750.28,226.44" style="stroke:#181818;stroke-width:1.0;"/></g><g id="link_PartyRelationshipTypes_PartyIdentifier"><path d="M1272.2407,139.2131 C1278.0307,140.1031 1271.92,139.15 1277.5,139.98 C1475.36,169.22 1526.27,166.74 1723.5,199.98 C1732.11,201.43 1741.18,203.11 1750.07,204.84 " fill="none" id="PartyRelationshipTypes-backto-PartyIdentifier" style="stroke:#181818;stroke-width:1.0;"/><polygon fill="#181818" points="1260.38,137.39,1265.7026,142.2551,1272.2407,139.2131,1266.9181,134.348,1260.38,137.39" style="stroke:#181818;stroke-width:1.0;"/></g><g id="link_PricePlanReference_PartMaster"><path d="M694.4551,433.4984 C750.5251,451.3384 824.77,474.96 877.57,491.75 " fill="none" id="PricePlanReference-backto-PartMaster" style="stroke:#181818;stroke-width:1.0;"/><polygon fill="#181818" points="683.02,429.86,687.5248,435.4909,694.4551,433.4984,689.9504,427.8675,683.02,429.86" style="stroke:#181818;stroke-width:1.0;"/></g><g id="link_ProductConsumptionTypes_SuperSession"><path d="M1167.27,236.88 C1097.84,254.86 991.48,282.39 926.73,299.15 " fill="none" id="ProductConsumptionTypes-SuperSession" style="stroke:#181818;stroke-width:1.0;"/></g><g id="link_ProductPackageTypes_PartSpecification"><path d="M1000.35,133.25 C1021,135.64 1043.03,138.04 1063.5,139.98 C1427.29,174.46 1521.49,150.22 1883.5,199.98 C1889.32,200.78 1895.34,201.73 1901.36,202.78 " fill="none" id="ProductPackageTypes-PartSpecification" style="stroke:#181818;stroke-width:1.0;"/></g><g id="link_ProductPackageTypes_SuperSession"><path d="M911.35,140.36 C902.77,176.74 883.21,259.78 874.64,296.13 " fill="none" id="ProductPackageTypes-SuperSession" style="stroke:#181818;stroke-width:1.0;"/></g><g id="link_ProductPriceItemTypes_FinancialSplit"><path d="M2731,137.34 C2725.42,138.24 2719.88,139.13 2714.5,139.98 C2539.11,167.7 2493.83,166.2 2319.5,199.98 C2313.87,201.07 2308.03,202.29 2302.2,203.57 " fill="none" id="ProductPriceItemTypes-FinancialSplit" style="stroke:#181818;stroke-width:1.0;"/></g><g id="link_ProductStageTypes_PartMaster"><path d="M1493.68,233.63 C1487.87,234.63 1482.1,235.58 1476.5,236.47 C1374.45,252.55 1098,234.29 1015.5,296.47 C982.63,321.24 943.42,443.4 929.61,489.25 " fill="none" id="ProductStageTypes-PartMaster" style="stroke:#181818;stroke-width:1.0;"/></g><g id="link_ProductStageTypes_SuperSession"><path d="M1493.69,233.72 C1487.88,234.7 1482.1,235.63 1476.5,236.47 C1245.12,271.15 1184.5,259.3 953.5,296.47 C944.78,297.87 935.59,299.56 926.63,301.33 " fill="none" id="ProductStageTypes-SuperSession" style="stroke:#181818;stroke-width:1.0;"/></g><g id="link_SalesStatusTypes_PartMasterProfile"><path d="M2337.27,236.88 C2272.07,253.76 2174.31,279.07 2109.01,295.97 " fill="none" id="SalesStatusTypes-PartMasterProfile" style="stroke:#181818;stroke-width:1.0;"/></g><g id="link_SuperSession_PartLifecycle"><path d="M870.5,345.04 C870.5,361.98 870.5,375.64 870.5,392.66 " fill="none" id="SuperSession-backto-PartLifecycle" style="stroke:#181818;stroke-width:1.0;"/><polygon fill="#181818" points="870.5,333.04,866.5,339.04,870.5,345.04,874.5,339.04,870.5,333.04" style="stroke:#181818;stroke-width:1.0;"/></g><g id="link_TextualDetail_PartCategory"><path d="M348.7396,345.0292 C349.4596,361.9692 350.04,375.64 350.76,392.66 " fill="none" id="TextualDetail-backto-PartCategory" style="stroke:#181818;stroke-width:1.0;"/><polygon fill="#181818" points="348.23,333.04,344.4884,339.2044,348.7396,345.0292,352.4812,338.8647,348.23,333.04" style="stroke:#181818;stroke-width:1.0;"/></g><g id="link_TextualDetail_PartMaster"><path d="M380.0903,340.3924 C414.2003,365.6024 471.48,404.61 535.5,429.44 C653.61,475.26 802.9,495.12 877.53,502.67 " fill="none" id="TextualDetail-backto-PartMaster" style="stroke:#181818;stroke-width:1.0;"/><polygon fill="#181818" points="370.44,333.26,372.8877,340.043,380.0903,340.3924,377.6426,333.6094,370.44,333.26" style="stroke:#181818;stroke-width:1.0;"/></g><g id="link_UOMLeadTimeTypes_LeadTime"><path d="M2113.5,140.06 C2113.5,157.01 2113.5,182.67 2113.5,199.68 " fill="none" id="UOMLeadTimeTypes-LeadTime" style="stroke:#181818;stroke-width:1.0;"/></g><g id="link_UOMQuantityCategoryTypes_UnitOfMeasure"><path d="M2288.5,43.57 C2288.5,60.52 2288.5,86.18 2288.5,103.19 " fill="none" id="UOMQuantityCategoryTypes-UnitOfMeasure" style="stroke:#181818;stroke-width:1.0;"/></g><g id="link_UOMTimeTypes_LeadTime"><path d="M2384.35,140.44 C2328.8,156.03 2245.75,179.41 2173.5,199.98 C2168.08,201.52 2162.39,203.15 2156.75,204.76 " fill="none" id="UOMTimeTypes-LeadTime" style="stroke:#181818;stroke-width:1.0;"/></g><g id="link_UnitOfMeasure_PartMaster"><path d="M2361.4173,141.0269 C2414.8873,155.6069 2474.83,175.8 2491.5,199.98 C2500.7,213.33 2501.13,223.42 2491.5,236.47 C2304.85,489.21 1211.24,506.13 971.11,506.78 " fill="none" id="UnitOfMeasure-backto-PartMaster" style="stroke:#181818;stroke-width:1.0;"/><polygon fill="#181818" points="2349.84,137.87,2354.5764,143.3075,2361.4173,141.0269,2356.6809,135.5893,2349.84,137.87" style="stroke:#181818;stroke-width:1.0;"/></g><g id="link_UnitOfMeasure_PartSpecification"><path d="M2217.1812,143.7881 C2160.0112,160.6681 2085.81,182.58 2028.56,199.49 " fill="none" id="UnitOfMeasure-backto-PartSpecification" style="stroke:#181818;stroke-width:1.0;"/><polygon fill="#181818" points="2228.69,140.39,2221.8029,138.2528,2217.1812,143.7881,2224.0683,145.9253,2228.69,140.39" style="stroke:#181818;stroke-width:1.0;"/></g></g></svg>