<?xml version="1.0" encoding="us-ascii" standalone="no"?><svg xmlns="http://www.w3.org/2000/svg" xmlns:xlink="http://www.w3.org/1999/xlink" contentStyleType="text/css" height="338px" preserveAspectRatio="none" style="width:1193px;height:338px;background:#FFFFFF;" version="1.1" viewBox="0 0 1193 338" width="1193px" zoomAndPan="magnify"><defs/><g><g id="elem_ControlAccountReference"><rect fill="#F1F1F1" height="36.4883" rx="2.5" ry="2.5" style="stroke:#181818;stroke-width:0.5;" width="196" x="7" y="199.97"/><text fill="#000000" font-family="sans-serif" font-size="14" lengthAdjust="spacing" textLength="176" x="17" y="223.5052">ControlAccountReference</text></g><g id="elem_EffectivePeriod"><rect fill="#F1F1F1" height="36.4883" rx="2.5" ry="2.5" style="stroke:#181818;stroke-width:0.5;" width="121" x="925.5" y="103.49"/><text fill="#000000" font-family="sans-serif" font-size="14" lengthAdjust="spacing" textLength="101" x="935.5" y="127.0252">EffectivePeriod</text></g><g id="elem_Identifier"><rect fill="#F1F1F1" height="36.4883" rx="2.5" ry="2.5" style="stroke:#181818;stroke-width:0.5;" width="82" x="207" y="103.49"/><text fill="#000000" font-family="sans-serif" font-size="14" lengthAdjust="spacing" textLength="62" x="217" y="127.0252">Identifier</text></g><g id="elem_PartInventory"><rect fill="#F1F1F1" height="36.4883" rx="2.5" ry="2.5" style="stroke:#181818;stroke-width:0.5;" width="111" x="427.5" y="296.46"/><text fill="#000000" font-family="sans-serif" font-size="14" lengthAdjust="spacing" textLength="91" x="437.5" y="319.9952">PartInventory</text></g><g id="elem_PartInventoryEvent"><rect fill="#F1F1F1" height="36.4883" rx="2.5" ry="2.5" style="stroke:#181818;stroke-width:0.5;" width="148" x="493" y="199.97"/><text fill="#000000" font-family="sans-serif" font-size="14" lengthAdjust="spacing" textLength="128" x="503" y="223.5052">PartInventoryEvent</text></g><g id="elem_PartInventoryMetric"><rect fill="#F1F1F1" height="36.4883" rx="2.5" ry="2.5" style="stroke:#181818;stroke-width:0.5;" width="153" x="697.5" y="199.97"/><text fill="#000000" font-family="sans-serif" font-size="14" lengthAdjust="spacing" textLength="133" x="707.5" y="223.5052">PartInventoryMetric</text></g><g id="elem_PartReference"><rect fill="#F1F1F1" height="36.4883" rx="2.5" ry="2.5" style="stroke:#181818;stroke-width:0.5;" width="115" x="342.5" y="199.97"/><text fill="#000000" font-family="sans-serif" font-size="14" lengthAdjust="spacing" textLength="95" x="352.5" y="223.5052">PartReference</text></g><g id="elem_Price"><rect fill="#F1F1F1" height="36.4883" rx="2.5" ry="2.5" style="stroke:#181818;stroke-width:0.5;" width="53" x="932.5" y="199.97"/><text fill="#000000" font-family="sans-serif" font-size="14" lengthAdjust="spacing" textLength="33" x="942.5" y="223.5052">Price</text></g><g id="elem_DurationUOMTypes"><rect fill="#FAFF91" height="36.4883" rx="2.5" ry="2.5" style="stroke:#181818;stroke-width:0.5;" width="153" x="909.5" y="7"/><text fill="#000000" font-family="sans-serif" font-size="14" lengthAdjust="spacing" textLength="133" x="919.5" y="30.5352">DurationUOMTypes</text></g><g id="elem_InventoryStatusTypes"><rect fill="#FAFF91" height="36.4883" rx="2.5" ry="2.5" style="stroke:#181818;stroke-width:0.5;" width="166" x="1021" y="199.97"/><text fill="#000000" font-family="sans-serif" font-size="14" lengthAdjust="spacing" textLength="146" x="1031" y="223.5052">InventoryStatusTypes</text></g><g id="elem_PartInventoryMetricTypes"><rect fill="#FAFF91" height="36.4883" rx="2.5" ry="2.5" style="stroke:#181818;stroke-width:0.5;" width="193" x="697.5" y="103.49"/><text fill="#000000" font-family="sans-serif" font-size="14" lengthAdjust="spacing" textLength="173" x="707.5" y="127.0252">PartInventoryMetricTypes</text></g><g id="elem_PartInventoryOrderTypes"><rect fill="#FAFF91" height="36.4883" rx="2.5" ry="2.5" style="stroke:#181818;stroke-width:0.5;" width="191" x="471.5" y="103.49"/><text fill="#000000" font-family="sans-serif" font-size="14" lengthAdjust="spacing" textLength="171" x="481.5" y="127.0252">PartInventoryOrderTypes</text></g><g id="elem_PriceTypes"><rect fill="#FAFF91" height="36.4883" rx="2.5" ry="2.5" style="stroke:#181818;stroke-width:0.5;" width="93" x="1081.5" y="103.49"/><text fill="#000000" font-family="sans-serif" font-size="14" lengthAdjust="spacing" textLength="73" x="1091.5" y="127.0252">PriceTypes</text></g><g id="elem_ProductTypes"><rect fill="#FAFF91" height="36.4883" rx="2.5" ry="2.5" style="stroke:#181818;stroke-width:0.5;" width="113" x="323.5" y="103.49"/><text fill="#000000" font-family="sans-serif" font-size="14" lengthAdjust="spacing" textLength="93" x="333.5" y="127.0252">ProductTypes</text></g><g id="link_ControlAccountReference_PartInventory"><path d="M187.3017,239.7904 C260.0617,257.9804 360.33,283.04 427.14,299.74 " fill="none" id="ControlAccountReference-backto-PartInventory" style="stroke:#181818;stroke-width:1.0;"/><polygon fill="#181818" points="175.66,236.88,180.5107,242.2158,187.3017,239.7904,182.451,234.4546,175.66,236.88" style="stroke:#181818;stroke-width:1.0;"/></g><g id="link_DurationUOMTypes_EffectivePeriod"><path d="M986,43.57 C986,60.51 986,86.17 986,103.19 " fill="none" id="DurationUOMTypes-EffectivePeriod" style="stroke:#181818;stroke-width:1.0;"/></g><g id="link_EffectivePeriod_Price"><path d="M981.05,140.06 C976.21,157 968.87,182.66 964.01,199.68 " fill="none" id="EffectivePeriod-Price" style="stroke:#181818;stroke-width:1.0;"/></g><g id="link_Identifier_ControlAccountReference"><path d="M221.44,140.28 C195.75,157.25 157.06,182.82 131.42,199.76 " fill="none" id="Identifier-ControlAccountReference" style="stroke:#181818;stroke-width:1.0;"/></g><g id="link_Identifier_PartInventory"><path d="M244.55,140.22 C250.75,164.52 275.46,208.63 307.5,236.46 C341.85,266.3 389.74,287.57 427.22,300.14 " fill="none" id="Identifier-PartInventory" style="stroke:#181818;stroke-width:1.0;"/></g><g id="link_Identifier_PartInventory"><path d="M274.915,149.8684 C292.885,174.1684 310.46,208.63 342.5,236.46 C373.39,263.29 415.23,283.2 445.59,296.08 " fill="none" id="Identifier-backto-PartInventory" style="stroke:#181818;stroke-width:1.0;"/><polygon fill="#181818" points="267.78,140.22,268.1314,147.4225,274.915,149.8684,274.5636,142.6658,267.78,140.22" style="stroke:#181818;stroke-width:1.0;"/></g><g id="link_Identifier_PartReference"><path d="M286.4215,146.6151 C313.6415,163.5351 344.41,182.66 371.66,199.6 " fill="none" id="Identifier-backto-PartReference" style="stroke:#181818;stroke-width:1.0;"/><polygon fill="#181818" points="276.23,140.28,279.2141,146.8447,286.4215,146.6151,283.4374,140.0504,276.23,140.28" style="stroke:#181818;stroke-width:1.0;"/></g><g id="link_InventoryStatusTypes_PartInventory"><path d="M1020.52,233.61 C1014.6,234.59 1008.71,235.55 1003,236.46 C834.24,263.4 634.15,292.26 538.85,305.81 " fill="none" id="InventoryStatusTypes-PartInventory" style="stroke:#181818;stroke-width:1.0;"/></g><g id="link_PartInventoryEvent_PartInventory"><path d="M543.617,245.5183 C528.557,262.4583 513.72,279.15 498.59,296.17 " fill="none" id="PartInventoryEvent-backto-PartInventory" style="stroke:#181818;stroke-width:1.0;"/><polygon fill="#181818" points="551.59,236.55,544.614,238.3765,543.617,245.5183,550.5929,243.6918,551.59,236.55" style="stroke:#181818;stroke-width:1.0;"/></g><g id="link_PartInventoryMetricTypes_PartInventoryMetric"><path d="M790.33,140.06 C786.75,157 781.31,182.66 777.71,199.68 " fill="none" id="PartInventoryMetricTypes-PartInventoryMetric" style="stroke:#181818;stroke-width:1.0;"/></g><g id="link_PartInventoryMetric_PartInventory"><path d="M708.1965,240.5857 C656.2065,257.4657 589.68,279.07 537.62,295.97 " fill="none" id="PartInventoryMetric-backto-PartInventory" style="stroke:#181818;stroke-width:1.0;"/><polygon fill="#181818" points="719.61,236.88,712.668,234.9284,708.1965,240.5857,715.1385,242.5373,719.61,236.88" style="stroke:#181818;stroke-width:1.0;"/></g><g id="link_PartInventoryOrderTypes_PartInventoryEvent"><path d="M567,140.06 C567,157 567,182.66 567,199.68 " fill="none" id="PartInventoryOrderTypes-PartInventoryEvent" style="stroke:#181818;stroke-width:1.0;"/></g><g id="link_PartReference_PartInventory"><path d="M423.1424,245.5631 C438.0324,262.5031 452.65,279.15 467.59,296.17 " fill="none" id="PartReference-backto-PartInventory" style="stroke:#181818;stroke-width:1.0;"/><polygon fill="#181818" points="415.22,236.55,416.1768,243.6973,423.1424,245.5631,422.1856,238.4158,415.22,236.55" style="stroke:#181818;stroke-width:1.0;"/></g><g id="link_PriceTypes_Price"><path d="M1086.1367,146.1375 C1054.2567,163.9675 1015.88,185.42 985.77,202.25 " fill="none" id="PriceTypes-backto-Price" style="stroke:#181818;stroke-width:1.0;"/><polygon fill="#181818" points="1096.61,140.28,1089.4209,139.7177,1086.1367,146.1375,1093.3259,146.6999,1096.61,140.28" style="stroke:#181818;stroke-width:1.0;"/></g><g id="link_Price_PartInventory"><path d="M920.2696,226.9063 C844.6496,241.9163 641.14,282.31 538.6,302.67 " fill="none" id="Price-backto-PartInventory" style="stroke:#181818;stroke-width:1.0;"/><polygon fill="#181818" points="932.04,224.57,925.376,221.8147,920.2696,226.9063,926.9336,229.6616,932.04,224.57" style="stroke:#181818;stroke-width:1.0;"/></g><g id="link_ProductTypes_PartReference"><path d="M386.1512,151.8007 C389.7312,168.7407 392.69,182.66 396.29,199.68 " fill="none" id="ProductTypes-backto-PartReference" style="stroke:#181818;stroke-width:1.0;"/><polygon fill="#181818" points="383.67,140.06,380.997,146.7574,386.1512,151.8007,388.8242,145.1033,383.67,140.06" style="stroke:#181818;stroke-width:1.0;"/></g></g></svg>