<?xml version="1.0" encoding="us-ascii" standalone="no"?><svg xmlns="http://www.w3.org/2000/svg" xmlns:xlink="http://www.w3.org/1999/xlink" contentStyleType="text/css" height="338px" preserveAspectRatio="none" style="width:593px;height:338px;background:#FFFFFF;" version="1.1" viewBox="0 0 593 338" width="593px" zoomAndPan="magnify"><defs/><g><g id="elem_Address"><rect fill="#F1F1F1" height="36.4883" rx="2.5" ry="2.5" style="stroke:#181818;stroke-width:0.5;" width="76" x="295" y="199.97"/><text fill="#000000" font-family="sans-serif" font-size="14" lengthAdjust="spacing" textLength="56" x="305" y="223.5052">Address</text></g><g id="elem_AddressLocale"><rect fill="#F1F1F1" height="36.4883" rx="2.5" ry="2.5" style="stroke:#181818;stroke-width:0.5;" width="119" x="56.5" y="103.49"/><text fill="#000000" font-family="sans-serif" font-size="14" lengthAdjust="spacing" textLength="99" x="66.5" y="127.0252">AddressLocale</text></g><g id="elem_Authorization"><rect fill="#F1F1F1" height="36.4883" rx="2.5" ry="2.5" style="stroke:#181818;stroke-width:0.5;" width="115" x="210.5" y="103.49"/><text fill="#000000" font-family="sans-serif" font-size="14" lengthAdjust="spacing" textLength="95" x="220.5" y="127.0252">Authorization</text></g><g id="elem_Identifier"><rect fill="#F1F1F1" height="36.4883" rx="2.5" ry="2.5" style="stroke:#181818;stroke-width:0.5;" width="82" x="7" y="199.97"/><text fill="#000000" font-family="sans-serif" font-size="14" lengthAdjust="spacing" textLength="62" x="17" y="223.5052">Identifier</text></g><g id="elem_Position"><rect fill="#F1F1F1" height="36.4883" rx="2.5" ry="2.5" style="stroke:#181818;stroke-width:0.5;" width="75" x="360.5" y="103.49"/><text fill="#000000" font-family="sans-serif" font-size="14" lengthAdjust="spacing" textLength="55" x="370.5" y="127.0252">Position</text></g><g id="elem_Warehouse"><rect fill="#F1F1F1" height="36.4883" rx="2.5" ry="2.5" style="stroke:#181818;stroke-width:0.5;" width="96" x="144" y="296.46"/><text fill="#000000" font-family="sans-serif" font-size="14" lengthAdjust="spacing" textLength="76" x="154" y="319.9952">Warehouse</text></g><g id="elem_AddressTypes"><rect fill="#FAFF91" height="36.4883" rx="2.5" ry="2.5" style="stroke:#181818;stroke-width:0.5;" width="116" x="471" y="103.49"/><text fill="#000000" font-family="sans-serif" font-size="14" lengthAdjust="spacing" textLength="96" x="481" y="127.0252">AddressTypes</text></g><g id="elem_LocationTypes"><rect fill="#FAFF91" height="36.4883" rx="2.5" ry="2.5" style="stroke:#181818;stroke-width:0.5;" width="118" x="57" y="7"/><text fill="#000000" font-family="sans-serif" font-size="14" lengthAdjust="spacing" textLength="98" x="67" y="30.5352">LocationTypes</text></g><g id="elem_WarehouseTypes"><rect fill="#FAFF91" height="36.4883" rx="2.5" ry="2.5" style="stroke:#181818;stroke-width:0.5;" width="136" x="124" y="199.97"/><text fill="#000000" font-family="sans-serif" font-size="14" lengthAdjust="spacing" textLength="116" x="134" y="223.5052">WarehouseTypes</text></g><g id="link_AddressLocale_Address"><path d="M167.5624,145.1803 C207.1824,162.4303 256.03,183.7 294.82,200.59 " fill="none" id="AddressLocale-backto-Address" style="stroke:#181818;stroke-width:1.0;"/><polygon fill="#181818" points="156.56,140.39,160.4644,146.4526,167.5624,145.1803,163.658,139.1177,156.56,140.39" style="stroke:#181818;stroke-width:1.0;"/></g><g id="link_AddressTypes_Address"><path d="M481.781,145.492 C446.691,162.412 404.68,182.66 369.54,199.6 " fill="none" id="AddressTypes-backto-Address" style="stroke:#181818;stroke-width:1.0;"/><polygon fill="#181818" points="492.59,140.28,485.4482,139.283,481.781,145.492,488.9228,146.489,492.59,140.28" style="stroke:#181818;stroke-width:1.0;"/></g><g id="link_Address_Warehouse"><path d="M296.8406,243.4491 C271.5106,260.4191 243.33,279.31 218.05,296.25 " fill="none" id="Address-backto-Warehouse" style="stroke:#181818;stroke-width:1.0;"/><polygon fill="#181818" points="306.81,236.77,299.5989,236.7864,296.8406,243.4491,304.0516,243.4327,306.81,236.77" style="stroke:#181818;stroke-width:1.0;"/></g><g id="link_Authorization_Address"><path d="M286.7238,149.9448 C298.3838,166.8848 309.23,182.66 320.93,199.68 " fill="none" id="Authorization-backto-Address" style="stroke:#181818;stroke-width:1.0;"/><polygon fill="#181818" points="279.92,140.06,280.027,147.2703,286.7238,149.9448,286.6168,142.7344,279.92,140.06" style="stroke:#181818;stroke-width:1.0;"/></g><g id="link_Identifier_Warehouse"><path d="M84.7827,243.3537 C110.6427,260.3237 139.58,279.31 165.4,296.25 " fill="none" id="Identifier-backto-Warehouse" style="stroke:#181818;stroke-width:1.0;"/><polygon fill="#181818" points="74.75,236.77,77.5718,243.4061,84.7827,243.3537,81.9609,236.7176,74.75,236.77" style="stroke:#181818;stroke-width:1.0;"/></g><g id="link_LocationTypes_AddressLocale"><path d="M116,43.57 C116,60.51 116,86.17 116,103.19 " fill="none" id="LocationTypes-AddressLocale" style="stroke:#181818;stroke-width:1.0;"/></g><g id="link_Position_Address"><path d="M386.08,140.06 C374.42,157 356.77,182.66 345.07,199.68 " fill="none" id="Position-Address" style="stroke:#181818;stroke-width:1.0;"/></g><g id="link_WarehouseTypes_Warehouse"><path d="M192,248.55 C192,265.49 192,279.15 192,296.17 " fill="none" id="WarehouseTypes-backto-Warehouse" style="stroke:#181818;stroke-width:1.0;"/><polygon fill="#181818" points="192,236.55,188,242.55,192,248.55,196,242.55,192,236.55" style="stroke:#181818;stroke-width:1.0;"/></g></g></svg>