<?xml version="1.0" encoding="us-ascii" standalone="no"?><svg xmlns="http://www.w3.org/2000/svg" xmlns:xlink="http://www.w3.org/1999/xlink" contentStyleType="text/css" height="531px" preserveAspectRatio="none" style="width:2171px;height:531px;background:#FFFFFF;" version="1.1" viewBox="0 0 2171 531" width="2171px" zoomAndPan="magnify"><defs/><g><g id="elem_Address"><rect fill="#F1F1F1" height="36.4883" rx="2.5" ry="2.5" style="stroke:#181818;stroke-width:0.5;" width="76" x="1974" y="103.49"/><text fill="#000000" font-family="sans-serif" font-size="14" lengthAdjust="spacing" textLength="56" x="1984" y="127.0252">Address</text></g><g id="elem_ControlAccount"><rect fill="#F1F1F1" height="36.4883" rx="2.5" ry="2.5" style="stroke:#181818;stroke-width:0.5;" width="128" x="260" y="199.98"/><text fill="#000000" font-family="sans-serif" font-size="14" lengthAdjust="spacing" textLength="108" x="270" y="223.5152">ControlAccount</text></g><g id="elem_Identifier"><rect fill="#F1F1F1" height="36.4883" rx="2.5" ry="2.5" style="stroke:#181818;stroke-width:0.5;" width="82" x="680" y="103.49"/><text fill="#000000" font-family="sans-serif" font-size="14" lengthAdjust="spacing" textLength="62" x="690" y="127.0252">Identifier</text></g><g id="elem_Part"><rect fill="#F1F1F1" height="36.4883" rx="2.5" ry="2.5" style="stroke:#181818;stroke-width:0.5;" width="47" x="1077.5" y="489.44"/><text fill="#000000" font-family="sans-serif" font-size="14" lengthAdjust="spacing" textLength="27" x="1087.5" y="512.9752">Part</text></g><g id="elem_PartEvent"><rect fill="#F1F1F1" height="36.4883" rx="2.5" ry="2.5" style="stroke:#181818;stroke-width:0.5;" width="84" x="741" y="296.47"/><text fill="#000000" font-family="sans-serif" font-size="14" lengthAdjust="spacing" textLength="64" x="751" y="320.0052">PartEvent</text></g><g id="elem_PartIdentifier"><rect fill="#F1F1F1" height="36.4883" rx="2.5" ry="2.5" style="stroke:#181818;stroke-width:0.5;" width="109" x="860.5" y="296.47"/><text fill="#000000" font-family="sans-serif" font-size="14" lengthAdjust="spacing" textLength="89" x="870.5" y="320.0052">PartIdentifier</text></g><g id="elem_PartLifecycle"><rect fill="#F1F1F1" height="36.4883" rx="2.5" ry="2.5" style="stroke:#181818;stroke-width:0.5;" width="104" x="1110" y="392.95"/><text fill="#000000" font-family="sans-serif" font-size="14" lengthAdjust="spacing" textLength="84" x="1120" y="416.4852">PartLifecycle</text></g><g id="elem_PartLocation"><rect fill="#F1F1F1" height="36.4883" rx="2.5" ry="2.5" style="stroke:#181818;stroke-width:0.5;" width="105" x="1902.5" y="296.47"/><text fill="#000000" font-family="sans-serif" font-size="14" lengthAdjust="spacing" textLength="85" x="1912.5" y="320.0052">PartLocation</text></g><g id="elem_PartName"><rect fill="#F1F1F1" height="36.4883" rx="2.5" ry="2.5" style="stroke:#181818;stroke-width:0.5;" width="86" x="1139" y="199.98"/><text fill="#000000" font-family="sans-serif" font-size="14" lengthAdjust="spacing" textLength="66" x="1149" y="223.5152">PartName</text></g><g id="elem_Price"><rect fill="#F1F1F1" height="36.4883" rx="2.5" ry="2.5" style="stroke:#181818;stroke-width:0.5;" width="53" x="1309.5" y="392.95"/><text fill="#000000" font-family="sans-serif" font-size="14" lengthAdjust="spacing" textLength="33" x="1319.5" y="416.4852">Price</text></g><g id="elem_SuperSession"><rect fill="#F1F1F1" height="36.4883" rx="2.5" ry="2.5" style="stroke:#181818;stroke-width:0.5;" width="112" x="1181" y="296.47"/><text fill="#000000" font-family="sans-serif" font-size="14" lengthAdjust="spacing" textLength="92" x="1191" y="320.0052">SuperSession</text></g><g id="elem_Warehouse"><rect fill="#F1F1F1" height="36.4883" rx="2.5" ry="2.5" style="stroke:#181818;stroke-width:0.5;" width="96" x="1894" y="199.98"/><text fill="#000000" font-family="sans-serif" font-size="14" lengthAdjust="spacing" textLength="76" x="1904" y="223.5152">Warehouse</text></g><g id="elem_AddressTypes"><rect fill="#FAFF91" height="36.4883" rx="2.5" ry="2.5" style="stroke:#181818;stroke-width:0.5;" width="116" x="1954" y="7"/><text fill="#000000" font-family="sans-serif" font-size="14" lengthAdjust="spacing" textLength="96" x="1964" y="30.5352">AddressTypes</text></g><g id="elem_ControlAccountRoleTypes"><rect fill="#FAFF91" height="36.4883" rx="2.5" ry="2.5" style="stroke:#181818;stroke-width:0.5;" width="198" x="7" y="103.49"/><text fill="#000000" font-family="sans-serif" font-size="14" lengthAdjust="spacing" textLength="178" x="17" y="127.0252">ControlAccountRoleTypes</text></g><g id="elem_ControlAccountTypes"><rect fill="#FAFF91" height="36.4883" rx="2.5" ry="2.5" style="stroke:#181818;stroke-width:0.5;" width="168" x="240" y="103.49"/><text fill="#000000" font-family="sans-serif" font-size="14" lengthAdjust="spacing" textLength="148" x="250" y="127.0252">ControlAccountTypes</text></g><g id="elem_FinancialCategoryTypes"><rect fill="#FAFF91" height="36.4883" rx="2.5" ry="2.5" style="stroke:#181818;stroke-width:0.5;" width="183" x="443.5" y="103.49"/><text fill="#000000" font-family="sans-serif" font-size="14" lengthAdjust="spacing" textLength="163" x="453.5" y="127.0252">FinancialCategoryTypes</text></g><g id="elem_PartConditionGradeTypes"><rect fill="#FAFF91" height="36.4883" rx="2.5" ry="2.5" style="stroke:#181818;stroke-width:0.5;" width="196" x="1515" y="392.95"/><text fill="#000000" font-family="sans-serif" font-size="14" lengthAdjust="spacing" textLength="176" x="1525" y="416.4852">PartConditionGradeTypes</text></g><g id="elem_PartConditionTypes"><rect fill="#FAFF91" height="36.4883" rx="2.5" ry="2.5" style="stroke:#181818;stroke-width:0.5;" width="155" x="1746.5" y="392.95"/><text fill="#000000" font-family="sans-serif" font-size="14" lengthAdjust="spacing" textLength="135" x="1756.5" y="416.4852">PartConditionTypes</text></g><g id="elem_PartIdentifierTypes"><rect fill="#FAFF91" height="36.4883" rx="2.5" ry="2.5" style="stroke:#181818;stroke-width:0.5;" width="149" x="791.5" y="199.98"/><text fill="#000000" font-family="sans-serif" font-size="14" lengthAdjust="spacing" textLength="129" x="801.5" y="223.5152">PartIdentifierTypes</text></g><g id="elem_PartInventoryOrderTypes"><rect fill="#FAFF91" height="36.4883" rx="2.5" ry="2.5" style="stroke:#181818;stroke-width:0.5;" width="191" x="494.5" y="199.98"/><text fill="#000000" font-family="sans-serif" font-size="14" lengthAdjust="spacing" textLength="171" x="504.5" y="223.5152">PartInventoryOrderTypes</text></g><g id="elem_PartNameTypes"><rect fill="#FAFF91" height="36.4883" rx="2.5" ry="2.5" style="stroke:#181818;stroke-width:0.5;" width="126" x="1119" y="103.49"/><text fill="#000000" font-family="sans-serif" font-size="14" lengthAdjust="spacing" textLength="106" x="1129" y="127.0252">PartNameTypes</text></g><g id="elem_PartOrderConfigTypes"><rect fill="#FAFF91" height="36.4883" rx="2.5" ry="2.5" style="stroke:#181818;stroke-width:0.5;" width="173" x="1259.5" y="199.98"/><text fill="#000000" font-family="sans-serif" font-size="14" lengthAdjust="spacing" textLength="153" x="1269.5" y="223.5152">PartOrderConfigTypes</text></g><g id="elem_PartStatusTypes"><rect fill="#FAFF91" height="36.4883" rx="2.5" ry="2.5" style="stroke:#181818;stroke-width:0.5;" width="129" x="975.5" y="199.98"/><text fill="#000000" font-family="sans-serif" font-size="14" lengthAdjust="spacing" textLength="109" x="985.5" y="223.5152">PartStatusTypes</text></g><g id="elem_PartStorageTypes"><rect fill="#FAFF91" height="36.4883" rx="2.5" ry="2.5" style="stroke:#181818;stroke-width:0.5;" width="140" x="2025" y="199.98"/><text fill="#000000" font-family="sans-serif" font-size="14" lengthAdjust="spacing" textLength="120" x="2035" y="223.5152">PartStorageTypes</text></g><g id="elem_PriceTypes"><rect fill="#FAFF91" height="36.4883" rx="2.5" ry="2.5" style="stroke:#181818;stroke-width:0.5;" width="93" x="1328.5" y="296.47"/><text fill="#000000" font-family="sans-serif" font-size="14" lengthAdjust="spacing" textLength="73" x="1338.5" y="320.0052">PriceTypes</text></g><g id="elem_ProductConsumptionTypes"><rect fill="#FAFF91" height="36.4883" rx="2.5" ry="2.5" style="stroke:#181818;stroke-width:0.5;" width="206" x="1468" y="199.98"/><text fill="#000000" font-family="sans-serif" font-size="14" lengthAdjust="spacing" textLength="186" x="1478" y="223.5152">ProductConsumptionTypes</text></g><g id="elem_ProductStageTypes"><rect fill="#FAFF91" height="36.4883" rx="2.5" ry="2.5" style="stroke:#181818;stroke-width:0.5;" width="151" x="1708.5" y="199.98"/><text fill="#000000" font-family="sans-serif" font-size="14" lengthAdjust="spacing" textLength="131" x="1718.5" y="223.5152">ProductStageTypes</text></g><g id="elem_WarehouseTypes"><rect fill="#FAFF91" height="36.4883" rx="2.5" ry="2.5" style="stroke:#181818;stroke-width:0.5;" width="136" x="1803" y="103.49"/><text fill="#000000" font-family="sans-serif" font-size="14" lengthAdjust="spacing" textLength="116" x="1813" y="127.0252">WarehouseTypes</text></g><g id="link_AddressTypes_Address"><path d="M2012,55.57 C2012,72.52 2012,86.18 2012,103.19 " fill="none" id="AddressTypes-backto-Address" style="stroke:#181818;stroke-width:1.0;"/><polygon fill="#181818" points="2012,43.57,2008,49.57,2012,55.57,2016,49.57,2012,43.57" style="stroke:#181818;stroke-width:1.0;"/></g><g id="link_Address_Warehouse"><path d="M1992.0193,149.7042 C1979.4693,166.6542 1967.6,182.67 1954.99,199.68 " fill="none" id="Address-backto-Warehouse" style="stroke:#181818;stroke-width:1.0;"/><polygon fill="#181818" points="1999.16,140.06,1992.3749,142.5019,1992.0193,149.7042,1998.8044,147.2623,1999.16,140.06" style="stroke:#181818;stroke-width:1.0;"/></g><g id="link_ControlAccount_Part"><path d="M325.82,236.96 C331.1,278.39 350.43,381.65 415,429.44 C523.13,509.48 969.18,508.54 1077.31,507.1 " fill="none" id="ControlAccount-Part" style="stroke:#181818;stroke-width:1.0;"/></g><g id="link_ControlAccountRoleTypes_ControlAccount"><path d="M146.75,140.39 C185.69,157.27 244.08,182.58 283.08,199.49 " fill="none" id="ControlAccountRoleTypes-ControlAccount" style="stroke:#181818;stroke-width:1.0;"/></g><g id="link_ControlAccountTypes_ControlAccount"><path d="M324,140.06 C324,157.01 324,182.67 324,199.68 " fill="none" id="ControlAccountTypes-ControlAccount" style="stroke:#181818;stroke-width:1.0;"/></g><g id="link_FinancialCategoryTypes_ControlAccount"><path d="M495.81,140.28 C458.03,157.2 401.17,182.66 363.34,199.6 " fill="none" id="FinancialCategoryTypes-ControlAccount" style="stroke:#181818;stroke-width:1.0;"/></g><g id="link_Identifier_ControlAccount"><path d="M667.966,135.3581 C598.756,151.8281 470.67,182.31 388.46,201.88 " fill="none" id="Identifier-backto-ControlAccount" style="stroke:#181818;stroke-width:1.0;"/><polygon fill="#181818" points="679.64,132.58,672.877,130.0777,667.966,135.3581,674.729,137.8604,679.64,132.58" style="stroke:#181818;stroke-width:1.0;"/></g><g id="link_Identifier_Part"><path d="M667.8902,135.9878 C601.5202,152.8678 489.24,183.26 477,199.98 C467.42,213.06 468.28,222.79 477,236.47 C617.3,456.43 980.4,498 1077.07,505.25 " fill="none" id="Identifier-backto-Part" style="stroke:#181818;stroke-width:1.0;"/><polygon fill="#181818" points="679.52,133.03,672.7192,130.6323,667.8902,135.9878,674.6911,138.3855,679.52,133.03" style="stroke:#181818;stroke-width:1.0;"/></g><g id="link_Identifier_PartIdentifier"><path d="M728.6501,151.6358 C735.4901,175.7858 747.49,208.17 774,236.47 C799.29,263.45 836.17,283.2 865.87,295.97 " fill="none" id="Identifier-backto-PartIdentifier" style="stroke:#181818;stroke-width:1.0;"/><polygon fill="#181818" points="725.38,140.09,723.1665,146.953,728.6501,151.6358,730.8637,144.7729,725.38,140.09" style="stroke:#181818;stroke-width:1.0;"/></g><g id="link_Identifier_Warehouse"><path d="M774.3295,124.9313 C953.9595,132.4413 1655.58,163.56 1877,199.98 C1882.41,200.87 1888.03,202.01 1893.59,203.29 " fill="none" id="Identifier-backto-Warehouse" style="stroke:#181818;stroke-width:1.0;"/><polygon fill="#181818" points="762.34,124.43,768.1677,128.6771,774.3295,124.9313,768.5018,120.6841,762.34,124.43" style="stroke:#181818;stroke-width:1.0;"/></g><g id="link_PartConditionGradeTypes_Part"><path d="M1517,429.91 C1395.38,452.36 1193.36,489.64 1124.69,502.31 " fill="none" id="PartConditionGradeTypes-Part" style="stroke:#181818;stroke-width:1.0;"/></g><g id="link_PartConditionTypes_Part"><path d="M1746.25,426.54 C1740.09,427.56 1733.94,428.54 1728,429.44 C1493.76,464.88 1208.43,495.51 1124.98,504.21 " fill="none" id="PartConditionTypes-Part" style="stroke:#181818;stroke-width:1.0;"/></g><g id="link_PartEvent_Part"><path d="M818.8011,339.9963 C852.7811,362.8963 904.57,397.12 959,429.44 C999.78,453.66 1048.6,479.57 1077.08,494.38 " fill="none" id="PartEvent-backto-Part" style="stroke:#181818;stroke-width:1.0;"/><polygon fill="#181818" points="808.85,333.29,811.5901,339.9602,818.8011,339.9963,816.061,333.3261,808.85,333.29" style="stroke:#181818;stroke-width:1.0;"/></g><g id="link_PartIdentifierTypes_PartIdentifier"><path d="M874.99,236.55 C883.77,253.49 897.08,279.15 905.9,296.17 " fill="none" id="PartIdentifierTypes-PartIdentifier" style="stroke:#181818;stroke-width:1.0;"/></g><g id="link_PartIdentifier_Part"><path d="M931.4315,343.4113 C945.6615,366.8813 966.92,398.93 997,429.44 C1021.63,454.43 1054.86,477.64 1077.07,491.97 " fill="none" id="PartIdentifier-backto-Part" style="stroke:#181818;stroke-width:1.0;"/><polygon fill="#181818" points="925.21,333.15,924.9003,340.3544,931.4315,343.4113,931.7412,336.2068,925.21,333.15" style="stroke:#181818;stroke-width:1.0;"/></g><g id="link_PartInventoryOrderTypes_PartEvent"><path d="M625.85,236.77 C660.41,253.69 712.41,279.15 747.02,296.09 " fill="none" id="PartInventoryOrderTypes-PartEvent" style="stroke:#181818;stroke-width:1.0;"/></g><g id="link_PartLifecycle_Part"><path d="M1144.2999,439.6106 C1133.3599,456.5506 1123.31,472.13 1112.32,489.15 " fill="none" id="PartLifecycle-backto-Part" style="stroke:#181818;stroke-width:1.0;"/><polygon fill="#181818" points="1150.81,429.53,1144.1947,432.4002,1144.2999,439.6106,1150.9151,436.7403,1150.81,429.53" style="stroke:#181818;stroke-width:1.0;"/></g><g id="link_PartLocation_Part"><path d="M1955.05,333.21 C1954.09,358.79 1948.17,405.89 1919,429.44 C1855.53,480.68 1252.36,502.03 1124.67,505.99 " fill="none" id="PartLocation-Part" style="stroke:#181818;stroke-width:1.0;"/></g><g id="link_PartNameTypes_PartName"><path d="M1182,140.06 C1182,157.01 1182,182.67 1182,199.68 " fill="none" id="PartNameTypes-PartName" style="stroke:#181818;stroke-width:1.0;"/></g><g id="link_PartName_PartIdentifier"><path d="M1127.1976,238.6138 C1079.6176,255.4538 1014.79,278.39 964.84,296.07 " fill="none" id="PartName-backto-PartIdentifier" style="stroke:#181818;stroke-width:1.0;"/><polygon fill="#181818" points="1138.51,234.61,1131.5192,232.8411,1127.1976,238.6138,1134.1884,240.3827,1138.51,234.61" style="stroke:#181818;stroke-width:1.0;"/></g><g id="link_PartName_SuperSession"><path d="M1198.1266,246.9211 C1207.9866,263.8611 1216.89,279.15 1226.79,296.17 " fill="none" id="PartName-backto-SuperSession" style="stroke:#181818;stroke-width:1.0;"/><polygon fill="#181818" points="1192.09,236.55,1191.6512,243.7477,1198.1266,246.9211,1198.5653,239.7234,1192.09,236.55" style="stroke:#181818;stroke-width:1.0;"/></g><g id="link_PartOrderConfigTypes_SuperSession"><path d="M1325.75,236.77 C1306.18,253.74 1276.68,279.31 1257.14,296.25 " fill="none" id="PartOrderConfigTypes-SuperSession" style="stroke:#181818;stroke-width:1.0;"/></g><g id="link_PartStatusTypes_Part"><path d="M1037.5666,248.7575 C1039.9066,300.0775 1071.06,437.51 1090.52,489 " fill="none" id="PartStatusTypes-backto-Part" style="stroke:#181818;stroke-width:1.0;"/><polygon fill="#181818" points="1037.02,236.77,1033.2974,242.946,1037.5666,248.7575,1041.2891,242.5816,1037.02,236.77" style="stroke:#181818;stroke-width:1.0;"/></g><g id="link_PartStatusTypes_Part"><path d="M1050.43,236.77 C1069.87,288.09 1101.58,437.51 1103.98,489 " fill="none" id="PartStatusTypes-Part" style="stroke:#181818;stroke-width:1.0;"/></g><g id="link_PartStatusTypes_PartLifecycle"><path d="M1057.7201,246.9627 C1080.9601,283.3427 1127.55,356.27 1150.77,392.62 " fill="none" id="PartStatusTypes-backto-PartLifecycle" style="stroke:#181818;stroke-width:1.0;"/><polygon fill="#181818" points="1051.26,236.85,1051.1192,244.0597,1057.7201,246.9627,1057.861,239.753,1051.26,236.85" style="stroke:#181818;stroke-width:1.0;"/></g><g id="link_PartStatusTypes_SuperSession"><path d="M1087.41,241.9592 C1122.69,258.8792 1164.95,279.15 1200.27,296.09 " fill="none" id="PartStatusTypes-backto-SuperSession" style="stroke:#181818;stroke-width:1.0;"/><polygon fill="#181818" points="1076.59,236.77,1080.2703,242.9713,1087.41,241.9592,1083.7297,235.7579,1076.59,236.77" style="stroke:#181818;stroke-width:1.0;"/></g><g id="link_PartStatusTypes_PartEvent"><path d="M991.96,236.88 C944.02,254.51 871.07,281.33 825.27,298.17 " fill="none" id="PartStatusTypes-PartEvent" style="stroke:#181818;stroke-width:1.0;"/></g><g id="link_PartStorageTypes_PartLocation"><path d="M2069,236.77 C2043.85,253.74 2005.96,279.31 1980.87,296.25 " fill="none" id="PartStorageTypes-PartLocation" style="stroke:#181818;stroke-width:1.0;"/></g><g id="link_PriceTypes_Price"><path d="M1363.2672,344.1304 C1356.2672,361.0704 1350.26,375.64 1343.24,392.66 " fill="none" id="PriceTypes-backto-Price" style="stroke:#181818;stroke-width:1.0;"/><polygon fill="#181818" points="1367.85,333.04,1361.8618,337.0576,1363.2672,344.1304,1369.2554,340.1128,1367.85,333.04" style="stroke:#181818;stroke-width:1.0;"/></g><g id="link_Price_Part"><path d="M1297.9061,427.5162 C1251.6161,446.1262 1168.87,479.4 1124.83,497.11 " fill="none" id="Price-backto-Part" style="stroke:#181818;stroke-width:1.0;"/><polygon fill="#181818" points="1309.04,423.04,1301.981,421.5668,1297.9061,427.5162,1304.9651,428.9894,1309.04,423.04" style="stroke:#181818;stroke-width:1.0;"/></g><g id="link_ProductConsumptionTypes_SuperSession"><path d="M1508.57,236.88 C1446.73,254.38 1352.89,280.92 1293.29,297.79 " fill="none" id="ProductConsumptionTypes-SuperSession" style="stroke:#181818;stroke-width:1.0;"/></g><g id="link_ProductStageTypes_SuperSession"><path d="M1708.15,233.46 C1702.35,234.49 1696.58,235.51 1691,236.47 C1522.48,265.39 1478.81,263.71 1311,296.47 C1305.3,297.58 1299.38,298.82 1293.47,300.11 " fill="none" id="ProductStageTypes-SuperSession" style="stroke:#181818;stroke-width:1.0;"/></g><g id="link_SuperSession_PartLifecycle"><path d="M1215.7816,342.4407 C1202.3416,359.3807 1189.43,375.64 1175.92,392.66 " fill="none" id="SuperSession-backto-PartLifecycle" style="stroke:#181818;stroke-width:1.0;"/><polygon fill="#181818" points="1223.24,333.04,1216.3773,335.2542,1215.7816,342.4407,1222.6444,340.2265,1223.24,333.04" style="stroke:#181818;stroke-width:1.0;"/></g><g id="link_Warehouse_Part"><path d="M1898.74,236.89 C1805.08,274.82 1576.17,365.73 1380,429.44 C1286.55,459.79 1173.12,488.84 1124.72,500.87 " fill="none" id="Warehouse-Part" style="stroke:#181818;stroke-width:1.0;"/></g><g id="link_Warehouse_PartLocation"><path d="M1944.38,236.55 C1946.72,253.49 1950.25,279.15 1952.59,296.17 " fill="none" id="Warehouse-PartLocation" style="stroke:#181818;stroke-width:1.0;"/></g><g id="link_WarehouseTypes_Warehouse"><path d="M1891.2263,149.6552 C1903.9563,166.6052 1916.04,182.67 1928.82,199.68 " fill="none" id="WarehouseTypes-backto-Warehouse" style="stroke:#181818;stroke-width:1.0;"/><polygon fill="#181818" points="1884.02,140.06,1884.4248,147.2597,1891.2263,149.6552,1890.8216,142.4555,1884.02,140.06" style="stroke:#181818;stroke-width:1.0;"/></g><g id="link_Warehouse_SuperSession"><path d="M1881.8845,235.7119 C1876.3245,237.0319 1882.4,235.47 1877,236.47 C1628.23,282.37 1560.43,254.35 1311,296.47 C1305.28,297.43 1299.33,298.58 1293.42,299.81 " fill="none" id="Warehouse-backto-SuperSession" style="stroke:#181818;stroke-width:1.0;"/><polygon fill="#181818" points="1893.56,232.94,1886.7983,230.4341,1881.8845,235.7119,1888.6462,238.2178,1893.56,232.94" style="stroke:#181818;stroke-width:1.0;"/></g></g></svg>