<?xml version="1.0" encoding="us-ascii" standalone="no"?><svg xmlns="http://www.w3.org/2000/svg" xmlns:xlink="http://www.w3.org/1999/xlink" contentStyleType="text/css" height="338px" preserveAspectRatio="none" style="width:1618px;height:338px;background:#FFFFFF;" version="1.1" viewBox="0 0 1618 338" width="1618px" zoomAndPan="magnify"><defs/><g><g id="elem_EffectivePeriod"><rect fill="#F1F1F1" height="36.4883" rx="2.5" ry="2.5" style="stroke:#181818;stroke-width:0.5;" width="121" x="1098.5" y="199.97"/><text fill="#000000" font-family="sans-serif" font-size="14" lengthAdjust="spacing" textLength="101" x="1108.5" y="223.5052">EffectivePeriod</text></g><g id="elem_Identifier"><rect fill="#F1F1F1" height="36.4883" rx="2.5" ry="2.5" style="stroke:#181818;stroke-width:0.5;" width="82" x="7" y="103.49"/><text fill="#000000" font-family="sans-serif" font-size="14" lengthAdjust="spacing" textLength="62" x="17" y="127.0252">Identifier</text></g><g id="elem_PartIdentifier"><rect fill="#F1F1F1" height="36.4883" rx="2.5" ry="2.5" style="stroke:#181818;stroke-width:0.5;" width="109" x="170.5" y="199.97"/><text fill="#000000" font-family="sans-serif" font-size="14" lengthAdjust="spacing" textLength="89" x="180.5" y="223.5052">PartIdentifier</text></g><g id="elem_PartInventoryCriteria"><rect fill="#F1F1F1" height="36.4883" rx="2.5" ry="2.5" style="stroke:#181818;stroke-width:0.5;" width="162" x="523" y="296.46"/><text fill="#000000" font-family="sans-serif" font-size="14" lengthAdjust="spacing" textLength="142" x="533" y="319.9952">PartInventoryCriteria</text></g><g id="elem_PartInventoryEvent"><rect fill="#F1F1F1" height="36.4883" rx="2.5" ry="2.5" style="stroke:#181818;stroke-width:0.5;" width="148" x="437" y="199.97"/><text fill="#000000" font-family="sans-serif" font-size="14" lengthAdjust="spacing" textLength="128" x="447" y="223.5052">PartInventoryEvent</text></g><g id="elem_PartInventoryMetric"><rect fill="#F1F1F1" height="36.4883" rx="2.5" ry="2.5" style="stroke:#181818;stroke-width:0.5;" width="153" x="620.5" y="199.97"/><text fill="#000000" font-family="sans-serif" font-size="14" lengthAdjust="spacing" textLength="133" x="630.5" y="223.5052">PartInventoryMetric</text></g><g id="elem_PartName"><rect fill="#F1F1F1" height="36.4883" rx="2.5" ry="2.5" style="stroke:#181818;stroke-width:0.5;" width="86" x="307" y="103.49"/><text fill="#000000" font-family="sans-serif" font-size="14" lengthAdjust="spacing" textLength="66" x="317" y="127.0252">PartName</text></g><g id="elem_Price"><rect fill="#F1F1F1" height="36.4883" rx="2.5" ry="2.5" style="stroke:#181818;stroke-width:0.5;" width="53" x="808.5" y="199.97"/><text fill="#000000" font-family="sans-serif" font-size="14" lengthAdjust="spacing" textLength="33" x="818.5" y="223.5052">Price</text></g><g id="elem_TimeSlot"><rect fill="#F1F1F1" height="36.4883" rx="2.5" ry="2.5" style="stroke:#181818;stroke-width:0.5;" width="80" x="1203" y="296.46"/><text fill="#000000" font-family="sans-serif" font-size="14" lengthAdjust="spacing" textLength="60" x="1213" y="319.9952">TimeSlot</text></g><g id="elem_DaysOfWeekTypes"><rect fill="#FAFF91" height="36.4883" rx="2.5" ry="2.5" style="stroke:#181818;stroke-width:0.5;" width="144" x="1255" y="199.97"/><text fill="#000000" font-family="sans-serif" font-size="14" lengthAdjust="spacing" textLength="124" x="1265" y="223.5052">DaysOfWeekTypes</text></g><g id="elem_DurationUOMTypes"><rect fill="#FAFF91" height="36.4883" rx="2.5" ry="2.5" style="stroke:#181818;stroke-width:0.5;" width="153" x="1082.5" y="103.49"/><text fill="#000000" font-family="sans-serif" font-size="14" lengthAdjust="spacing" textLength="133" x="1092.5" y="127.0252">DurationUOMTypes</text></g><g id="elem_InventoryStatusTypes"><rect fill="#FAFF91" height="36.4883" rx="2.5" ry="2.5" style="stroke:#181818;stroke-width:0.5;" width="166" x="897" y="199.97"/><text fill="#000000" font-family="sans-serif" font-size="14" lengthAdjust="spacing" textLength="146" x="907" y="223.5052">InventoryStatusTypes</text></g><g id="elem_PartIdentifierTypes"><rect fill="#FAFF91" height="36.4883" rx="2.5" ry="2.5" style="stroke:#181818;stroke-width:0.5;" width="149" x="123.5" y="103.49"/><text fill="#000000" font-family="sans-serif" font-size="14" lengthAdjust="spacing" textLength="129" x="133.5" y="127.0252">PartIdentifierTypes</text></g><g id="elem_PartInventoryMetricTypes"><rect fill="#FAFF91" height="36.4883" rx="2.5" ry="2.5" style="stroke:#181818;stroke-width:0.5;" width="193" x="653.5" y="103.49"/><text fill="#000000" font-family="sans-serif" font-size="14" lengthAdjust="spacing" textLength="173" x="663.5" y="127.0252">PartInventoryMetricTypes</text></g><g id="elem_PartInventoryOrderTypes"><rect fill="#FAFF91" height="36.4883" rx="2.5" ry="2.5" style="stroke:#181818;stroke-width:0.5;" width="191" x="427.5" y="103.49"/><text fill="#000000" font-family="sans-serif" font-size="14" lengthAdjust="spacing" textLength="171" x="437.5" y="127.0252">PartInventoryOrderTypes</text></g><g id="elem_PartNameTypes"><rect fill="#FAFF91" height="36.4883" rx="2.5" ry="2.5" style="stroke:#181818;stroke-width:0.5;" width="126" x="287" y="7"/><text fill="#000000" font-family="sans-serif" font-size="14" lengthAdjust="spacing" textLength="106" x="297" y="30.5352">PartNameTypes</text></g><g id="elem_PriceTypes"><rect fill="#FAFF91" height="36.4883" rx="2.5" ry="2.5" style="stroke:#181818;stroke-width:0.5;" width="93" x="881.5" y="103.49"/><text fill="#000000" font-family="sans-serif" font-size="14" lengthAdjust="spacing" textLength="73" x="891.5" y="127.0252">PriceTypes</text></g><g id="elem_TimeslotDirectiveTypes"><rect fill="#FAFF91" height="36.4883" rx="2.5" ry="2.5" style="stroke:#181818;stroke-width:0.5;" width="178" x="1434" y="199.97"/><text fill="#000000" font-family="sans-serif" font-size="14" lengthAdjust="spacing" textLength="158" x="1444" y="223.5052">TimeslotDirectiveTypes</text></g><g id="link_DaysOfWeekTypes_TimeSlot"><path d="M1311.59,236.55 C1296.53,253.49 1273.72,279.15 1258.59,296.17 " fill="none" id="DaysOfWeekTypes-TimeSlot" style="stroke:#181818;stroke-width:1.0;"/></g><g id="link_DurationUOMTypes_EffectivePeriod"><path d="M1159,140.06 C1159,157 1159,182.66 1159,199.68 " fill="none" id="DurationUOMTypes-EffectivePeriod" style="stroke:#181818;stroke-width:1.0;"/></g><g id="link_EffectivePeriod_PartInventoryCriteria"><path d="M1098.18,233.02 C1092.38,234.22 1086.58,235.39 1081,236.46 C942.57,262.95 780.41,287.94 685.27,301.99 " fill="none" id="EffectivePeriod-PartInventoryCriteria" style="stroke:#181818;stroke-width:1.0;"/></g><g id="link_EffectivePeriod_TimeSlot"><path d="M1163.98,236.55 C1175.46,253.49 1198.26,279.15 1216.93,296.17 " fill="none" id="EffectivePeriod-TimeSlot" style="stroke:#181818;stroke-width:1.0;"/></g><g id="link_TimeSlot_EffectivePeriod"><path d="M1237.88,296.17 C1226.3,279.15 1203.48,253.49 1184.84,236.55 " fill="none" id="TimeSlot-EffectivePeriod" style="stroke:#181818;stroke-width:1.0;"/></g><g id="link_Identifier_PartIdentifier"><path d="M91.4656,145.9319 C123.1556,162.8519 160.27,182.66 192,199.6 " fill="none" id="Identifier-backto-PartIdentifier" style="stroke:#181818;stroke-width:1.0;"/><polygon fill="#181818" points="80.88,140.28,84.2889,146.6345,91.4656,145.9319,88.0568,139.5774,80.88,140.28" style="stroke:#181818;stroke-width:1.0;"/></g><g id="link_Identifier_PartInventoryCriteria"><path d="M65.2958,150.3775 C82.0158,176.0675 110.25,213.25 153,236.46 C215.39,270.34 410.54,294.57 522.63,306.1 " fill="none" id="Identifier-backto-PartInventoryCriteria" style="stroke:#181818;stroke-width:1.0;"/><polygon fill="#181818" points="58.75,140.32,58.6704,147.5307,65.2958,150.3775,65.3754,143.1668,58.75,140.32" style="stroke:#181818;stroke-width:1.0;"/></g><g id="link_InventoryStatusTypes_PartInventoryCriteria"><path d="M909.72,236.88 C842.55,253.76 741.84,279.07 674.57,295.97 " fill="none" id="InventoryStatusTypes-PartInventoryCriteria" style="stroke:#181818;stroke-width:1.0;"/></g><g id="link_PartIdentifierTypes_PartIdentifier"><path d="M202.95,140.06 C207.79,157 215.13,182.66 219.99,199.68 " fill="none" id="PartIdentifierTypes-PartIdentifier" style="stroke:#181818;stroke-width:1.0;"/></g><g id="link_PartIdentifier_PartInventoryCriteria"><path d="M291.3536,235.763 C358.1736,252.423 459.73,277.74 533.16,296.04 " fill="none" id="PartIdentifier-backto-PartInventoryCriteria" style="stroke:#181818;stroke-width:1.0;"/><polygon fill="#181818" points="279.71,232.86,284.5641,238.1927,291.3536,235.763,286.4995,230.4303,279.71,232.86" style="stroke:#181818;stroke-width:1.0;"/></g><g id="link_PartInventoryEvent_PartInventoryCriteria"><path d="M536.4768,245.1032 C553.1468,262.0432 569.99,279.15 586.74,296.17 " fill="none" id="PartInventoryEvent-backto-PartInventoryCriteria" style="stroke:#181818;stroke-width:1.0;"/><polygon fill="#181818" points="528.06,236.55,529.4174,243.6322,536.4768,245.1032,535.1195,238.021,528.06,236.55" style="stroke:#181818;stroke-width:1.0;"/></g><g id="link_PartInventoryMetricTypes_PartInventoryMetric"><path d="M740.28,140.06 C730.78,157 716.38,182.66 706.84,199.68 " fill="none" id="PartInventoryMetricTypes-PartInventoryMetric" style="stroke:#181818;stroke-width:1.0;"/></g><g id="link_PartInventoryMetric_PartInventoryCriteria"><path d="M671.5232,245.1032 C654.8532,262.0432 638.01,279.15 621.26,296.17 " fill="none" id="PartInventoryMetric-backto-PartInventoryCriteria" style="stroke:#181818;stroke-width:1.0;"/><polygon fill="#181818" points="679.94,236.55,672.8805,238.021,671.5232,245.1032,678.5826,243.6322,679.94,236.55" style="stroke:#181818;stroke-width:1.0;"/></g><g id="link_PartInventoryOrderTypes_PartInventoryEvent"><path d="M520.8,140.06 C518.65,157 515.39,182.66 513.23,199.68 " fill="none" id="PartInventoryOrderTypes-PartInventoryEvent" style="stroke:#181818;stroke-width:1.0;"/></g><g id="link_PartNameTypes_PartName"><path d="M350,43.57 C350,60.51 350,86.17 350,103.19 " fill="none" id="PartNameTypes-PartName" style="stroke:#181818;stroke-width:1.0;"/></g><g id="link_PartName_PartIdentifier"><path d="M317.2072,147.5161 C294.7572,164.4861 270.5,182.82 248.09,199.76 " fill="none" id="PartName-backto-PartIdentifier" style="stroke:#181818;stroke-width:1.0;"/><polygon fill="#181818" points="326.78,140.28,319.5816,140.7071,317.2072,147.5161,324.4056,147.089,326.78,140.28" style="stroke:#181818;stroke-width:1.0;"/></g><g id="link_PartName_PartInventoryCriteria"><path d="M360.9735,151.2129 C370.9135,175.7629 387.66,209.5 419,236.46 C451.98,264.84 496.86,283.92 534.16,296.02 " fill="none" id="PartName-backto-PartInventoryCriteria" style="stroke:#181818;stroke-width:1.0;"/><polygon fill="#181818" points="356.47,140.09,355.0141,147.1526,360.9735,151.2129,362.4294,144.1503,356.47,140.09" style="stroke:#181818;stroke-width:1.0;"/></g><g id="link_PriceTypes_Price"><path d="M902.5232,148.6132 C885.8532,165.5532 869.01,182.66 852.26,199.68 " fill="none" id="PriceTypes-backto-Price" style="stroke:#181818;stroke-width:1.0;"/><polygon fill="#181818" points="910.94,140.06,903.8805,141.531,902.5232,148.6132,909.5826,147.1422,910.94,140.06" style="stroke:#181818;stroke-width:1.0;"/></g><g id="link_Price_PartInventoryCriteria"><path d="M796.9431,234.7828 C757.4331,250.9428 694.47,276.7 647.28,296 " fill="none" id="Price-backto-PartInventoryCriteria" style="stroke:#181818;stroke-width:1.0;"/><polygon fill="#181818" points="808.05,230.24,800.9823,228.8091,796.9431,234.7828,804.0108,236.2137,808.05,230.24" style="stroke:#181818;stroke-width:1.0;"/></g><g id="link_TimeslotDirectiveTypes_TimeSlot"><path d="M1459.2899,240.7168 C1404.9999,259.0368 1332.65,283.45 1283.29,300.11 " fill="none" id="TimeslotDirectiveTypes-backto-TimeSlot" style="stroke:#181818;stroke-width:1.0;"/><polygon fill="#181818" points="1470.66,236.88,1463.696,235.0084,1459.2899,240.7168,1466.2539,242.5884,1470.66,236.88" style="stroke:#181818;stroke-width:1.0;"/></g></g></svg>