<?xml version="1.0" encoding="us-ascii" standalone="no"?><svg xmlns="http://www.w3.org/2000/svg" xmlns:xlink="http://www.w3.org/1999/xlink" contentStyleType="text/css" height="338px" preserveAspectRatio="none" style="width:1565px;height:338px;background:#FFFFFF;" version="1.1" viewBox="0 0 1565 338" width="1565px" zoomAndPan="magnify"><defs/><g><g id="elem_EffectivePeriod"><rect fill="#F1F1F1" height="36.4883" rx="2.5" ry="2.5" style="stroke:#181818;stroke-width:0.5;" width="121" x="768.5" y="103.49"/><text fill="#000000" font-family="sans-serif" font-size="14" lengthAdjust="spacing" textLength="101" x="778.5" y="127.0252">EffectivePeriod</text></g><g id="elem_GeographicBoundary"><rect fill="#F1F1F1" height="36.4883" rx="2.5" ry="2.5" style="stroke:#181818;stroke-width:0.5;" width="164" x="196" y="103.49"/><text fill="#000000" font-family="sans-serif" font-size="14" lengthAdjust="spacing" textLength="144" x="206" y="127.0252">GeographicBoundary</text></g><g id="elem_Identifier"><rect fill="#F1F1F1" height="36.4883" rx="2.5" ry="2.5" style="stroke:#181818;stroke-width:0.5;" width="82" x="394" y="7"/><text fill="#000000" font-family="sans-serif" font-size="14" lengthAdjust="spacing" textLength="62" x="404" y="30.5352">Identifier</text></g><g id="elem_LifecycleEvent"><rect fill="#F1F1F1" height="36.4883" rx="2.5" ry="2.5" style="stroke:#181818;stroke-width:0.5;" width="114" x="37" y="199.97"/><text fill="#000000" font-family="sans-serif" font-size="14" lengthAdjust="spacing" textLength="94" x="47" y="223.5052">LifecycleEvent</text></g><g id="elem_Party"><rect fill="#F1F1F1" height="36.4883" rx="2.5" ry="2.5" style="stroke:#181818;stroke-width:0.5;" width="54" x="679" y="103.49"/><text fill="#000000" font-family="sans-serif" font-size="14" lengthAdjust="spacing" textLength="34" x="689" y="127.0252">Party</text></g><g id="elem_PartyIdentifier"><rect fill="#F1F1F1" height="36.4883" rx="2.5" ry="2.5" style="stroke:#181818;stroke-width:0.5;" width="116" x="629" y="199.97"/><text fill="#000000" font-family="sans-serif" font-size="14" lengthAdjust="spacing" textLength="96" x="639" y="223.5052">PartyIdentifier</text></g><g id="elem_Price"><rect fill="#F1F1F1" height="36.4883" rx="2.5" ry="2.5" style="stroke:#181818;stroke-width:0.5;" width="53" x="949.5" y="199.97"/><text fill="#000000" font-family="sans-serif" font-size="14" lengthAdjust="spacing" textLength="33" x="959.5" y="223.5052">Price</text></g><g id="elem_PriceList"><rect fill="#F1F1F1" height="36.4883" rx="2.5" ry="2.5" style="stroke:#181818;stroke-width:0.5;" width="76" x="729" y="296.46"/><text fill="#000000" font-family="sans-serif" font-size="14" lengthAdjust="spacing" textLength="56" x="739" y="319.9952">PriceList</text></g><g id="elem_PriceSensitivity"><rect fill="#F1F1F1" height="36.4883" rx="2.5" ry="2.5" style="stroke:#181818;stroke-width:0.5;" width="121" x="1354.5" y="199.97"/><text fill="#000000" font-family="sans-serif" font-size="14" lengthAdjust="spacing" textLength="101" x="1364.5" y="223.5052">PriceSensitivity</text></g><g id="elem_ProductSchedule"><rect fill="#F1F1F1" height="36.4883" rx="2.5" ry="2.5" style="stroke:#181818;stroke-width:0.5;" width="135" x="779.5" y="199.97"/><text fill="#000000" font-family="sans-serif" font-size="14" lengthAdjust="spacing" textLength="115" x="789.5" y="223.5052">ProductSchedule</text></g><g id="elem_DurationUOMTypes"><rect fill="#FAFF91" height="36.4883" rx="2.5" ry="2.5" style="stroke:#181818;stroke-width:0.5;" width="153" x="816.5" y="7"/><text fill="#000000" font-family="sans-serif" font-size="14" lengthAdjust="spacing" textLength="133" x="826.5" y="30.5352">DurationUOMTypes</text></g><g id="elem_LifecycleEventTypes"><rect fill="#FAFF91" height="36.4883" rx="2.5" ry="2.5" style="stroke:#181818;stroke-width:0.5;" width="154" x="7" y="103.49"/><text fill="#000000" font-family="sans-serif" font-size="14" lengthAdjust="spacing" textLength="134" x="17" y="127.0252">LifecycleEventTypes</text></g><g id="elem_LocationTypes"><rect fill="#FAFF91" height="36.4883" rx="2.5" ry="2.5" style="stroke:#181818;stroke-width:0.5;" width="118" x="44" y="7"/><text fill="#000000" font-family="sans-serif" font-size="14" lengthAdjust="spacing" textLength="98" x="54" y="30.5352">LocationTypes</text></g><g id="elem_NarrativeUomTypes"><rect fill="#FAFF91" height="36.4883" rx="2.5" ry="2.5" style="stroke:#181818;stroke-width:0.5;" width="154" x="925" y="103.49"/><text fill="#000000" font-family="sans-serif" font-size="14" lengthAdjust="spacing" textLength="134" x="935" y="127.0252">NarrativeUomTypes</text></g><g id="elem_PartyRelationshipTypes"><rect fill="#FAFF91" height="36.4883" rx="2.5" ry="2.5" style="stroke:#181818;stroke-width:0.5;" width="179" x="465.5" y="103.49"/><text fill="#000000" font-family="sans-serif" font-size="14" lengthAdjust="spacing" textLength="159" x="475.5" y="127.0252">PartyRelationshipTypes</text></g><g id="elem_PartyServiceTypes"><rect fill="#FAFF91" height="36.4883" rx="2.5" ry="2.5" style="stroke:#181818;stroke-width:0.5;" width="142" x="640" y="7"/><text fill="#000000" font-family="sans-serif" font-size="14" lengthAdjust="spacing" textLength="122" x="650" y="30.5352">PartyServiceTypes</text></g><g id="elem_PartyTypes"><rect fill="#FAFF91" height="36.4883" rx="2.5" ry="2.5" style="stroke:#181818;stroke-width:0.5;" width="94" x="511" y="7"/><text fill="#000000" font-family="sans-serif" font-size="14" lengthAdjust="spacing" textLength="74" x="521" y="30.5352">PartyTypes</text></g><g id="elem_PriceClassTypes"><rect fill="#FAFF91" height="36.4883" rx="2.5" ry="2.5" style="stroke:#181818;stroke-width:0.5;" width="129" x="1108.5" y="199.97"/><text fill="#000000" font-family="sans-serif" font-size="14" lengthAdjust="spacing" textLength="109" x="1118.5" y="223.5052">PriceClassTypes</text></g><g id="elem_PriceSensitivityTypes"><rect fill="#FAFF91" height="36.4883" rx="2.5" ry="2.5" style="stroke:#181818;stroke-width:0.5;" width="161" x="1398.5" y="103.49"/><text fill="#000000" font-family="sans-serif" font-size="14" lengthAdjust="spacing" textLength="141" x="1408.5" y="127.0252">PriceSensitivityTypes</text></g><g id="elem_PriceTypes"><rect fill="#FAFF91" height="36.4883" rx="2.5" ry="2.5" style="stroke:#181818;stroke-width:0.5;" width="93" x="1270.5" y="103.49"/><text fill="#000000" font-family="sans-serif" font-size="14" lengthAdjust="spacing" textLength="73" x="1280.5" y="127.0252">PriceTypes</text></g><g id="elem_ScheduleTypes"><rect fill="#FAFF91" height="36.4883" rx="2.5" ry="2.5" style="stroke:#181818;stroke-width:0.5;" width="122" x="1114" y="103.49"/><text fill="#000000" font-family="sans-serif" font-size="14" lengthAdjust="spacing" textLength="102" x="1124" y="127.0252">ScheduleTypes</text></g><g id="elem_UnitOfMeasureTypes"><rect fill="#FAFF91" height="36.4883" rx="2.5" ry="2.5" style="stroke:#181818;stroke-width:0.5;" width="162" x="197" y="7"/><text fill="#000000" font-family="sans-serif" font-size="14" lengthAdjust="spacing" textLength="142" x="207" y="30.5352">UnitOfMeasureTypes</text></g><g id="link_DurationUOMTypes_EffectivePeriod"><path d="M881.26,43.57 C869.79,60.51 852.4,86.17 840.88,103.19 " fill="none" id="DurationUOMTypes-EffectivePeriod" style="stroke:#181818;stroke-width:1.0;"/></g><g id="link_EffectivePeriod_PartyIdentifier"><path d="M802.62,140.28 C777.12,157.25 738.69,182.82 713.24,199.76 " fill="none" id="EffectivePeriod-PartyIdentifier" style="stroke:#181818;stroke-width:1.0;"/></g><g id="link_EffectivePeriod_ProductSchedule"><path d="M832.3,140.06 C835.53,157 840.42,182.66 843.66,199.68 " fill="none" id="EffectivePeriod-ProductSchedule" style="stroke:#181818;stroke-width:1.0;"/></g><g id="link_GeographicBoundary_PriceList"><path d="M296.2654,149.996 C313.9554,175.466 343.64,212.57 387,236.46 C500.06,298.76 656.95,311.07 728.57,313.32 " fill="none" id="GeographicBoundary-backto-PriceList" style="stroke:#181818;stroke-width:1.0;"/><polygon fill="#181818" points="289.42,140.14,289.5574,147.3498,296.2654,149.996,296.128,142.7862,289.42,140.14" style="stroke:#181818;stroke-width:1.0;"/></g><g id="link_GeographicBoundary_ProductSchedule"><path d="M372.2587,136.5706 C468.7187,150.9606 621.34,174.49 762,199.97 C767.63,200.99 773.46,202.09 779.31,203.22 " fill="none" id="GeographicBoundary-backto-ProductSchedule" style="stroke:#181818;stroke-width:1.0;"/><polygon fill="#181818" points="360.39,134.8,365.7341,139.6415,372.2587,136.5706,366.9145,131.7291,360.39,134.8" style="stroke:#181818;stroke-width:1.0;"/></g><g id="link_Identifier_Party"><path d="M487.6113,43.383 C533.2413,58.363 597.49,79.88 662,103.49 C667.39,105.46 673.13,107.64 678.61,109.77 " fill="none" id="Identifier-backto-Party" style="stroke:#181818;stroke-width:1.0;"/><polygon fill="#181818" points="476.21,39.64,480.663,45.3119,487.6113,43.383,483.1583,37.711,476.21,39.64" style="stroke:#181818;stroke-width:1.0;"/></g><g id="link_Identifier_PriceList"><path d="M431.2054,55.5532 C428.6854,79.3332 428.83,110.48 448,139.97 C513.73,241.09 659.29,288.09 728.72,305.39 " fill="none" id="Identifier-backto-PriceList" style="stroke:#181818;stroke-width:1.0;"/><polygon fill="#181818" points="432.47,43.62,427.86,49.1651,431.2054,55.5532,435.8154,50.0081,432.47,43.62" style="stroke:#181818;stroke-width:1.0;"/></g><g id="link_LifecycleEventTypes_LifecycleEvent"><path d="M85.83,140.06 C87.63,157 90.34,182.66 92.14,199.68 " fill="none" id="LifecycleEventTypes-LifecycleEvent" style="stroke:#181818;stroke-width:1.0;"/></g><g id="link_LifecycleEventTypes_PriceList"><path d="M115.32,140.34 C161.23,165.41 250.13,211.14 331,236.46 C473.87,281.19 651.69,302.57 728.6,310.24 " fill="none" id="LifecycleEventTypes-PriceList" style="stroke:#181818;stroke-width:1.0;"/></g><g id="link_LifecycleEvent_PriceList"><path d="M163.2921,229.0283 C183.6821,231.9083 194.92,233.49 216,236.46 C408.5,263.56 638.86,295.79 728.59,308.34 " fill="none" id="LifecycleEvent-backto-PriceList" style="stroke:#181818;stroke-width:1.0;"/><polygon fill="#181818" points="151.41,227.35,156.7916,232.1498,163.2921,229.0283,157.9105,224.2285,151.41,227.35" style="stroke:#181818;stroke-width:1.0;"/></g><g id="link_LocationTypes_GeographicBoundary"><path d="M135.51,43.79 C166.84,60.71 214,86.17 245.37,103.11 " fill="none" id="LocationTypes-GeographicBoundary" style="stroke:#181818;stroke-width:1.0;"/></g><g id="link_NarrativeUomTypes_ProductSchedule"><path d="M973.21,140.28 C945.46,157.2 903.69,182.66 875.9,199.6 " fill="none" id="NarrativeUomTypes-ProductSchedule" style="stroke:#181818;stroke-width:1.0;"/></g><g id="link_Party_PartyIdentifier"><path d="M702.52,140.06 C699.11,157 693.95,182.66 690.53,199.68 " fill="none" id="Party-PartyIdentifier" style="stroke:#181818;stroke-width:1.0;"/></g><g id="link_PartyIdentifier_PriceList"><path d="M709.4264,245.7063 C723.7764,262.6463 737.74,279.15 752.15,296.17 " fill="none" id="PartyIdentifier-backto-PriceList" style="stroke:#181818;stroke-width:1.0;"/><polygon fill="#181818" points="701.67,236.55,702.4961,243.7136,709.4264,245.7063,708.6003,238.5427,701.67,236.55" style="stroke:#181818;stroke-width:1.0;"/></g><g id="link_PartyRelationshipTypes_PartyIdentifier"><path d="M589.2781,147.2642 C612.9881,164.2342 638.95,182.82 662.61,199.76 " fill="none" id="PartyRelationshipTypes-backto-PartyIdentifier" style="stroke:#181818;stroke-width:1.0;"/><polygon fill="#181818" points="579.52,140.28,582.071,147.0248,589.2781,147.2642,586.7271,140.5194,579.52,140.28" style="stroke:#181818;stroke-width:1.0;"/></g><g id="link_PartyServiceTypes_Party"><path d="M709.4504,55.5535 C708.5604,72.4935 707.83,86.17 706.93,103.19 " fill="none" id="PartyServiceTypes-backto-Party" style="stroke:#181818;stroke-width:1.0;"/><polygon fill="#181818" points="710.08,43.57,705.7707,49.3519,709.4504,55.5535,713.7597,49.7716,710.08,43.57" style="stroke:#181818;stroke-width:1.0;"/></g><g id="link_PartyTypes_Party"><path d="M595.6044,50.2475 C622.1844,67.2175 652.12,86.33 678.66,103.27 " fill="none" id="PartyTypes-backto-Party" style="stroke:#181818;stroke-width:1.0;"/><polygon fill="#181818" points="585.49,43.79,588.3947,50.3902,595.6044,50.2475,592.6997,43.6473,585.49,43.79" style="stroke:#181818;stroke-width:1.0;"/></g><g id="link_Price_PriceList"><path d="M949.1,231.38 C912.5,247.92 846.8,277.63 805.12,296.47 " fill="none" id="Price-PriceList" style="stroke:#181818;stroke-width:1.0;"/></g><g id="link_PriceClassTypes_PriceList"><path d="M1096.5326,237.011 C1011.0126,256.921 874.85,288.61 805.28,304.8 " fill="none" id="PriceClassTypes-backto-PriceList" style="stroke:#181818;stroke-width:1.0;"/><polygon fill="#181818" points="1108.22,234.29,1101.4693,231.7547,1096.5326,237.011,1103.2833,239.5463,1108.22,234.29" style="stroke:#181818;stroke-width:1.0;"/></g><g id="link_PriceSensitivity_PriceList"><path d="M1354.04,228.11 C1222.19,247.33 913.67,292.32 805.39,308.11 " fill="none" id="PriceSensitivity-PriceList" style="stroke:#181818;stroke-width:1.0;"/></g><g id="link_PriceSensitivityTypes_PriceSensitivity"><path d="M1467.26,140.06 C1455.79,157 1438.4,182.66 1426.88,199.68 " fill="none" id="PriceSensitivityTypes-PriceSensitivity" style="stroke:#181818;stroke-width:1.0;"/></g><g id="link_PriceTypes_Price"><path d="M1258.5695,138.4682 C1252.7895,140.0182 1258.56,138.48 1253,139.97 C1153.46,166.71 1127.82,170.69 1029,199.97 C1020.46,202.5 1011.22,205.44 1002.88,208.17 " fill="none" id="PriceTypes-backto-Price" style="stroke:#181818;stroke-width:1.0;"/><polygon fill="#181818" points="1270.16,135.36,1263.3287,133.0506,1258.5695,138.4682,1265.4008,140.7776,1270.16,135.36" style="stroke:#181818;stroke-width:1.0;"/></g><g id="link_PriceTypes_PriceList"><path d="M1258.9057,139.9928 C1212.6857,154.1428 1151.67,174.18 1091,199.97 C1058.35,213.86 1052.87,223.12 1020,236.46 C945.96,266.51 855.69,291.4 805.45,304.26 " fill="none" id="PriceTypes-backto-PriceList" style="stroke:#181818;stroke-width:1.0;"/><polygon fill="#181818" points="1270.38,136.48,1263.4719,134.4116,1258.9057,139.9928,1265.8138,142.0612,1270.38,136.48" style="stroke:#181818;stroke-width:1.0;"/></g><g id="link_ProductSchedule_PriceList"><path d="M824.5736,245.7063 C810.2236,262.6463 796.26,279.15 781.85,296.17 " fill="none" id="ProductSchedule-backto-PriceList" style="stroke:#181818;stroke-width:1.0;"/><polygon fill="#181818" points="832.33,236.55,825.3997,238.5427,824.5736,245.7063,831.5039,243.7136,832.33,236.55" style="stroke:#181818;stroke-width:1.0;"/></g><g id="link_ScheduleTypes_ProductSchedule"><path d="M1113.69,140.39 C1055.1,157.27 967.24,182.58 908.56,199.48 " fill="none" id="ScheduleTypes-ProductSchedule" style="stroke:#181818;stroke-width:1.0;"/></g><g id="link_UnitOfMeasureTypes_GeographicBoundary"><path d="M278,43.57 C278,60.51 278,86.17 278,103.19 " fill="none" id="UnitOfMeasureTypes-GeographicBoundary" style="stroke:#181818;stroke-width:1.0;"/></g></g></svg>