<?xml version="1.0" encoding="us-ascii" standalone="no"?><svg xmlns="http://www.w3.org/2000/svg" xmlns:xlink="http://www.w3.org/1999/xlink" contentStyleType="text/css" height="338px" preserveAspectRatio="none" style="width:1636px;height:338px;background:#FFFFFF;" version="1.1" viewBox="0 0 1636 338" width="1636px" zoomAndPan="magnify"><defs/><g><g id="elem_CreditAuthorization"><rect fill="#F1F1F1" height="36.4883" rx="2.5" ry="2.5" style="stroke:#181818;stroke-width:0.5;" width="157" x="864" y="296.46"/><text fill="#000000" font-family="sans-serif" font-size="14" lengthAdjust="spacing" textLength="137" x="874" y="319.9952">CreditAuthorization</text></g><g id="elem_CurrencyExchange"><rect fill="#F1F1F1" height="36.4883" rx="2.5" ry="2.5" style="stroke:#181818;stroke-width:0.5;" width="149" x="7" y="103.49"/><text fill="#000000" font-family="sans-serif" font-size="14" lengthAdjust="spacing" textLength="129" x="17" y="127.0252">CurrencyExchange</text></g><g id="elem_EffectivePeriod"><rect fill="#F1F1F1" height="36.4883" rx="2.5" ry="2.5" style="stroke:#181818;stroke-width:0.5;" width="121" x="768" y="103.49"/><text fill="#000000" font-family="sans-serif" font-size="14" lengthAdjust="spacing" textLength="101" x="778" y="127.0252">EffectivePeriod</text></g><g id="elem_Identifier"><rect fill="#F1F1F1" height="36.4883" rx="2.5" ry="2.5" style="stroke:#181818;stroke-width:0.5;" width="82" x="190.5" y="103.49"/><text fill="#000000" font-family="sans-serif" font-size="14" lengthAdjust="spacing" textLength="62" x="200.5" y="127.0252">Identifier</text></g><g id="elem_Money"><rect fill="#F1F1F1" height="36.4883" rx="2.5" ry="2.5" style="stroke:#181818;stroke-width:0.5;" width="65" x="144" y="199.97"/><text fill="#000000" font-family="sans-serif" font-size="14" lengthAdjust="spacing" textLength="45" x="154" y="223.5052">Money</text></g><g id="elem_PartyReference"><rect fill="#F1F1F1" height="36.4883" rx="2.5" ry="2.5" style="stroke:#181818;stroke-width:0.5;" width="122" x="420.5" y="199.97"/><text fill="#000000" font-family="sans-serif" font-size="14" lengthAdjust="spacing" textLength="102" x="430.5" y="223.5052">PartyReference</text></g><g id="elem_Price"><rect fill="#F1F1F1" height="36.4883" rx="2.5" ry="2.5" style="stroke:#181818;stroke-width:0.5;" width="53" x="660" y="199.97"/><text fill="#000000" font-family="sans-serif" font-size="14" lengthAdjust="spacing" textLength="33" x="670" y="223.5052">Price</text></g><g id="elem_Program"><rect fill="#F1F1F1" height="36.4883" rx="2.5" ry="2.5" style="stroke:#181818;stroke-width:0.5;" width="79" x="903" y="199.97"/><text fill="#000000" font-family="sans-serif" font-size="14" lengthAdjust="spacing" textLength="59" x="913" y="223.5052">Program</text></g><g id="elem_TimeSlot"><rect fill="#F1F1F1" height="36.4883" rx="2.5" ry="2.5" style="stroke:#181818;stroke-width:0.5;" width="80" x="788.5" y="199.97"/><text fill="#000000" font-family="sans-serif" font-size="14" lengthAdjust="spacing" textLength="60" x="798.5" y="223.5052">TimeSlot</text></g><g id="elem_CreditAuthorizationStatusTypes"><rect fill="#FAFF91" height="36.4883" rx="2.5" ry="2.5" style="stroke:#181818;stroke-width:0.5;" width="239" x="1017" y="199.97"/><text fill="#000000" font-family="sans-serif" font-size="14" lengthAdjust="spacing" textLength="219" x="1027" y="223.5052">CreditAuthorizationStatusTypes</text></g><g id="elem_CreditAuthorizationTypes"><rect fill="#FAFF91" height="36.4883" rx="2.5" ry="2.5" style="stroke:#181818;stroke-width:0.5;" width="197" x="1291" y="199.97"/><text fill="#000000" font-family="sans-serif" font-size="14" lengthAdjust="spacing" textLength="177" x="1301" y="223.5052">CreditAuthorizationTypes</text></g><g id="elem_DaysOfWeekTypes"><rect fill="#FAFF91" height="36.4883" rx="2.5" ry="2.5" style="stroke:#181818;stroke-width:0.5;" width="144" x="924.5" y="103.49"/><text fill="#000000" font-family="sans-serif" font-size="14" lengthAdjust="spacing" textLength="124" x="934.5" y="127.0252">DaysOfWeekTypes</text></g><g id="elem_DurationUOMTypes"><rect fill="#FAFF91" height="36.4883" rx="2.5" ry="2.5" style="stroke:#181818;stroke-width:0.5;" width="153" x="752" y="7"/><text fill="#000000" font-family="sans-serif" font-size="14" lengthAdjust="spacing" textLength="133" x="762" y="30.5352">DurationUOMTypes</text></g><g id="elem_InvoiceTypes"><rect fill="#FAFF91" height="36.4883" rx="2.5" ry="2.5" style="stroke:#181818;stroke-width:0.5;" width="108" x="1522.5" y="199.97"/><text fill="#000000" font-family="sans-serif" font-size="14" lengthAdjust="spacing" textLength="88" x="1532.5" y="223.5052">InvoiceTypes</text></g><g id="elem_PartyRelationshipTypes"><rect fill="#FAFF91" height="36.4883" rx="2.5" ry="2.5" style="stroke:#181818;stroke-width:0.5;" width="179" x="308" y="103.49"/><text fill="#000000" font-family="sans-serif" font-size="14" lengthAdjust="spacing" textLength="159" x="318" y="127.0252">PartyRelationshipTypes</text></g><g id="elem_PayTypes"><rect fill="#FAFF91" height="36.4883" rx="2.5" ry="2.5" style="stroke:#181818;stroke-width:0.5;" width="83" x="522" y="103.49"/><text fill="#000000" font-family="sans-serif" font-size="14" lengthAdjust="spacing" textLength="63" x="532" y="127.0252">PayTypes</text></g><g id="elem_PriceTypes"><rect fill="#FAFF91" height="36.4883" rx="2.5" ry="2.5" style="stroke:#181818;stroke-width:0.5;" width="93" x="640" y="103.49"/><text fill="#000000" font-family="sans-serif" font-size="14" lengthAdjust="spacing" textLength="73" x="650" y="127.0252">PriceTypes</text></g><g id="elem_ProgramTypes"><rect fill="#FAFF91" height="36.4883" rx="2.5" ry="2.5" style="stroke:#181818;stroke-width:0.5;" width="119" x="1317" y="103.49"/><text fill="#000000" font-family="sans-serif" font-size="14" lengthAdjust="spacing" textLength="99" x="1327" y="127.0252">ProgramTypes</text></g><g id="elem_TimeslotDirectiveTypes"><rect fill="#FAFF91" height="36.4883" rx="2.5" ry="2.5" style="stroke:#181818;stroke-width:0.5;" width="178" x="1103.5" y="103.49"/><text fill="#000000" font-family="sans-serif" font-size="14" lengthAdjust="spacing" textLength="158" x="1113.5" y="127.0252">TimeslotDirectiveTypes</text></g><g id="link_CreditAuthorizationStatusTypes_CreditAuthorization"><path d="M1100.46,236.77 C1065.73,253.69 1013.45,279.15 978.67,296.09 " fill="none" id="CreditAuthorizationStatusTypes-CreditAuthorization" style="stroke:#181818;stroke-width:1.0;"/></g><g id="link_CreditAuthorizationTypes_CreditAuthorization"><path d="M1305.69,236.93 C1224.16,254.17 1101.24,280.15 1021.42,297.02 " fill="none" id="CreditAuthorizationTypes-CreditAuthorization" style="stroke:#181818;stroke-width:1.0;"/></g><g id="link_CurrencyExchange_Money"><path d="M98.92,140.06 C115.96,157 141.76,182.66 158.86,199.68 " fill="none" id="CurrencyExchange-Money" style="stroke:#181818;stroke-width:1.0;"/></g><g id="link_CurrencyExchange_Price"><path d="M156.44,137.17 C161.87,138.14 167.27,139.08 172.5,139.97 C358.44,171.55 583.36,203.05 659.69,213.56 " fill="none" id="CurrencyExchange-Price" style="stroke:#181818;stroke-width:1.0;"/></g><g id="link_DaysOfWeekTypes_TimeSlot"><path d="M965.29,140.28 C935.21,157.2 889.94,182.66 859.82,199.6 " fill="none" id="DaysOfWeekTypes-TimeSlot" style="stroke:#181818;stroke-width:1.0;"/></g><g id="link_DurationUOMTypes_EffectivePeriod"><path d="M828.5,43.57 C828.5,60.51 828.5,86.17 828.5,103.19 " fill="none" id="DurationUOMTypes-EffectivePeriod" style="stroke:#181818;stroke-width:1.0;"/></g><g id="link_EffectivePeriod_PartyReference"><path d="M767.66,139.3 C704.49,156.5 606.21,183.26 542.85,200.51 " fill="none" id="EffectivePeriod-PartyReference" style="stroke:#181818;stroke-width:1.0;"/></g><g id="link_EffectivePeriod_Price"><path d="M802.12,140.28 C776.62,157.25 738.19,182.82 712.74,199.76 " fill="none" id="EffectivePeriod-Price" style="stroke:#181818;stroke-width:1.0;"/></g><g id="link_EffectivePeriod_TimeSlot"><path d="M818.07,140.06 C814.49,157 814.48,182.66 818.03,199.68 " fill="none" id="EffectivePeriod-TimeSlot" style="stroke:#181818;stroke-width:1.0;"/></g><g id="link_TimeSlot_EffectivePeriod"><path d="M838.97,199.68 C842.52,182.66 842.51,157 838.93,140.06 " fill="none" id="TimeSlot-EffectivePeriod" style="stroke:#181818;stroke-width:1.0;"/></g><g id="link_Identifier_PartyReference"><path d="M272.78,138.33 C317.3,155.16 388.04,181.89 434.62,199.5 " fill="none" id="Identifier-PartyReference" style="stroke:#181818;stroke-width:1.0;"/></g><g id="link_InvoiceTypes_CreditAuthorization"><path d="M1522.35,232.97 C1516.68,234.23 1510.98,235.42 1505.5,236.46 C1333.93,268.98 1130.47,293.46 1021.24,305.47 " fill="none" id="InvoiceTypes-CreditAuthorization" style="stroke:#181818;stroke-width:1.0;"/></g><g id="link_Money_CreditAuthorization"><path d="M209.41,223.28 C322.74,237.26 698.86,283.65 863.81,304 " fill="none" id="Money-CreditAuthorization" style="stroke:#181818;stroke-width:1.0;"/></g><g id="link_PartyReference_CreditAuthorization"><path d="M554.4754,234.1705 C637.1354,251.1205 772.78,278.92 863.65,297.54 " fill="none" id="PartyReference-backto-CreditAuthorization" style="stroke:#181818;stroke-width:1.0;"/><polygon fill="#181818" points="542.72,231.76,547.7942,236.8837,554.4754,234.1705,549.4012,229.0468,542.72,231.76" style="stroke:#181818;stroke-width:1.0;"/></g><g id="link_PartyRelationshipTypes_PartyReference"><path d="M420.883,149.0283 C435.943,165.9683 450.78,182.66 465.91,199.68 " fill="none" id="PartyRelationshipTypes-backto-PartyReference" style="stroke:#181818;stroke-width:1.0;"/><polygon fill="#181818" points="412.91,140.06,413.9071,147.2018,420.883,149.0283,419.886,141.8865,412.91,140.06" style="stroke:#181818;stroke-width:1.0;"/></g><g id="link_PayTypes_Price"><path d="M586.35,140.28 C608.44,157.25 641.72,182.82 663.78,199.76 " fill="none" id="PayTypes-Price" style="stroke:#181818;stroke-width:1.0;"/></g><g id="link_Price_CreditAuthorization"><path d="M713.41,229.15 C756.42,245.02 841.22,276.32 894.71,296.07 " fill="none" id="Price-CreditAuthorization" style="stroke:#181818;stroke-width:1.0;"/></g><g id="link_PriceTypes_Price"><path d="M686.5,152.06 C686.5,169 686.5,182.66 686.5,199.68 " fill="none" id="PriceTypes-backto-Price" style="stroke:#181818;stroke-width:1.0;"/><polygon fill="#181818" points="686.5,140.06,682.5,146.06,686.5,152.06,690.5,146.06,686.5,140.06" style="stroke:#181818;stroke-width:1.0;"/></g><g id="link_Program_CreditAuthorization"><path d="M942.5,236.55 C942.5,253.49 942.5,279.15 942.5,296.17 " fill="none" id="Program-CreditAuthorization" style="stroke:#181818;stroke-width:1.0;"/></g><g id="link_ProgramTypes_Program"><path d="M1316.9,136.03 C1310.69,137.38 1304.47,138.71 1298.5,139.97 C1165.88,167.94 1130.96,166.98 999.5,199.97 C993.88,201.38 988,203 982.23,204.67 " fill="none" id="ProgramTypes-Program" style="stroke:#181818;stroke-width:1.0;"/></g><g id="link_TimeslotDirectiveTypes_TimeSlot"><path d="M1106.4456,143.2183 C1044.1156,158.2783 964.55,178.08 885.5,199.97 C880.12,201.46 874.47,203.09 868.91,204.73 " fill="none" id="TimeslotDirectiveTypes-backto-TimeSlot" style="stroke:#181818;stroke-width:1.0;"/><polygon fill="#181818" points="1118.11,140.4,1111.3384,137.921,1106.4456,143.2183,1113.2173,145.6973,1118.11,140.4" style="stroke:#181818;stroke-width:1.0;"/></g></g></svg>
