<?xml version="1.0" encoding="us-ascii" standalone="no"?><svg xmlns="http://www.w3.org/2000/svg" xmlns:xlink="http://www.w3.org/1999/xlink" contentStyleType="text/css" height="242px" preserveAspectRatio="none" style="width:553px;height:242px;background:#FFFFFF;" version="1.1" viewBox="0 0 553 242" width="553px" zoomAndPan="magnify"><defs/><g><g id="elem_FinancialSnapshot"><rect fill="#F1F1F1" height="36.4883" rx="2.5" ry="2.5" style="stroke:#181818;stroke-width:0.5;" width="145" x="149.5" y="199.97"/><text fill="#000000" font-family="sans-serif" font-size="14" lengthAdjust="spacing" textLength="125" x="159.5" y="223.5052">FinancialSnapshot</text></g><g id="elem_FinancialSnapshotCriteria"><rect fill="#F1F1F1" height="36.4883" rx="2.5" ry="2.5" style="stroke:#181818;stroke-width:0.5;" width="196" x="7" y="103.48"/><text fill="#000000" font-family="sans-serif" font-size="14" lengthAdjust="spacing" textLength="176" x="17" y="127.0152">FinancialSnapshotCriteria</text></g><g id="elem_FinancialSnapshotLineItem"><rect fill="#F1F1F1" height="36.4883" rx="2.5" ry="2.5" style="stroke:#181818;stroke-width:0.5;" width="203" x="237.5" y="103.48"/><text fill="#000000" font-family="sans-serif" font-size="14" lengthAdjust="spacing" textLength="183" x="247.5" y="127.0152">FinancialSnapshotLineItem</text></g><g id="elem_Money"><rect fill="#F1F1F1" height="36.4883" rx="2.5" ry="2.5" style="stroke:#181818;stroke-width:0.5;" width="65" x="264.5" y="7"/><text fill="#000000" font-family="sans-serif" font-size="14" lengthAdjust="spacing" textLength="45" x="274.5" y="30.5352">Money</text></g><g id="elem_FinancialCategoryTypes"><rect fill="#FAFF91" height="36.4883" rx="2.5" ry="2.5" style="stroke:#181818;stroke-width:0.5;" width="183" x="364.5" y="7"/><text fill="#000000" font-family="sans-serif" font-size="14" lengthAdjust="spacing" textLength="163" x="374.5" y="30.5352">FinancialCategoryTypes</text></g><g id="elem_FinancialReportTypes"><rect fill="#FAFF91" height="36.4883" rx="2.5" ry="2.5" style="stroke:#181818;stroke-width:0.5;" width="167" x="21.5" y="7"/><text fill="#000000" font-family="sans-serif" font-size="14" lengthAdjust="spacing" textLength="147" x="31.5" y="30.5352">FinancialReportTypes</text></g><g id="link_FinancialCategoryTypes_FinancialSnapshotLineItem"><path d="M434.27,43.79 C413.25,60.76 381.59,86.33 360.62,103.27 " fill="none" id="FinancialCategoryTypes-FinancialSnapshotLineItem" style="stroke:#181818;stroke-width:1.0;"/></g><g id="link_FinancialReportTypes_FinancialSnapshotCriteria"><path d="M105,43.57 C105,60.51 105,86.17 105,103.19 " fill="none" id="FinancialReportTypes-FinancialSnapshotCriteria" style="stroke:#181818;stroke-width:1.0;"/></g><g id="link_FinancialSnapshotCriteria_FinancialSnapshot"><path d="M126.73,140.28 C147.75,157.25 179.41,182.82 200.38,199.76 " fill="none" id="FinancialSnapshotCriteria-FinancialSnapshot" style="stroke:#181818;stroke-width:1.0;"/></g><g id="link_FinancialSnapshotLineItem_FinancialSnapshot"><path d="M307.933,147.818 C286.913,164.788 264.59,182.82 243.62,199.76 " fill="none" id="FinancialSnapshotLineItem-backto-FinancialSnapshot" style="stroke:#181818;stroke-width:1.0;"/><polygon fill="#181818" points="317.27,140.28,310.0889,140.9367,307.933,147.818,315.1142,147.1613,317.27,140.28" style="stroke:#181818;stroke-width:1.0;"/></g><g id="link_Money_FinancialSnapshotLineItem"><path d="M304.7,43.57 C312.23,60.51 323.64,86.17 331.2,103.19 " fill="none" id="Money-FinancialSnapshotLineItem" style="stroke:#181818;stroke-width:1.0;"/></g></g></svg>