<?xml version="1.0" encoding="us-ascii" standalone="no"?><svg xmlns="http://www.w3.org/2000/svg" xmlns:xlink="http://www.w3.org/1999/xlink" contentStyleType="text/css" height="242px" preserveAspectRatio="none" style="width:961px;height:242px;background:#FFFFFF;" version="1.1" viewBox="0 0 961 242" width="961px" zoomAndPan="magnify"><defs/><g><g id="elem_AccountingPeriod"><rect fill="#F1F1F1" height="36.4883" rx="2.5" ry="2.5" style="stroke:#181818;stroke-width:0.5;" width="142" x="678" y="103.48"/><text fill="#000000" font-family="sans-serif" font-size="14" lengthAdjust="spacing" textLength="122" x="688" y="127.0152">AccountingPeriod</text></g><g id="elem_CashFlowLineItem"><rect fill="#F1F1F1" height="36.4883" rx="2.5" ry="2.5" style="stroke:#181818;stroke-width:0.5;" width="144" x="7" y="103.48"/><text fill="#000000" font-family="sans-serif" font-size="14" lengthAdjust="spacing" textLength="124" x="17" y="127.0152">CashFlowLineItem</text></g><g id="elem_CashFlowProjection"><rect fill="#F1F1F1" height="36.4883" rx="2.5" ry="2.5" style="stroke:#181818;stroke-width:0.5;" width="155" x="282.5" y="199.97"/><text fill="#000000" font-family="sans-serif" font-size="14" lengthAdjust="spacing" textLength="135" x="292.5" y="223.5052">CashFlowProjection</text></g><g id="elem_CashFlowProjectionCriteria"><rect fill="#F1F1F1" height="36.4883" rx="2.5" ry="2.5" style="stroke:#181818;stroke-width:0.5;" width="206" x="257" y="103.48"/><text fill="#000000" font-family="sans-serif" font-size="14" lengthAdjust="spacing" textLength="186" x="267" y="127.0152">CashFlowProjectionCriteria</text></g><g id="elem_CashFlowScenario"><rect fill="#F1F1F1" height="36.4883" rx="2.5" ry="2.5" style="stroke:#181818;stroke-width:0.5;" width="145" x="498.5" y="103.48"/><text fill="#000000" font-family="sans-serif" font-size="14" lengthAdjust="spacing" textLength="125" x="508.5" y="127.0152">CashFlowScenario</text></g><g id="elem_Identifier"><rect fill="#F1F1F1" height="36.4883" rx="2.5" ry="2.5" style="stroke:#181818;stroke-width:0.5;" width="82" x="614" y="7"/><text fill="#000000" font-family="sans-serif" font-size="14" lengthAdjust="spacing" textLength="62" x="624" y="30.5352">Identifier</text></g><g id="elem_Money"><rect fill="#F1F1F1" height="36.4883" rx="2.5" ry="2.5" style="stroke:#181818;stroke-width:0.5;" width="65" x="171.5" y="7"/><text fill="#000000" font-family="sans-serif" font-size="14" lengthAdjust="spacing" textLength="45" x="181.5" y="30.5352">Money</text></g><g id="elem_AccountingPeriodStatusTypes"><rect fill="#FAFF91" height="36.4883" rx="2.5" ry="2.5" style="stroke:#181818;stroke-width:0.5;" width="224" x="731" y="7"/><text fill="#000000" font-family="sans-serif" font-size="14" lengthAdjust="spacing" textLength="204" x="741" y="30.5352">AccountingPeriodStatusTypes</text></g><g id="elem_UOMTimeTypes"><rect fill="#FAFF91" height="36.4883" rx="2.5" ry="2.5" style="stroke:#181818;stroke-width:0.5;" width="127" x="296.5" y="7"/><text fill="#000000" font-family="sans-serif" font-size="14" lengthAdjust="spacing" textLength="107" x="306.5" y="30.5352">UOMTimeTypes</text></g><g id="link_AccountingPeriod_CashFlowProjection"><path d="M677.65,140.06 C608.12,156.95 502.92,182.5 432.88,199.51 " fill="none" id="AccountingPeriod-CashFlowProjection" style="stroke:#181818;stroke-width:1.0;"/></g><g id="link_AccountingPeriodStatusTypes_AccountingPeriod"><path d="M825.76,43.57 C808.9,60.51 783.38,86.17 766.45,103.19 " fill="none" id="AccountingPeriodStatusTypes-AccountingPeriod" style="stroke:#181818;stroke-width:1.0;"/></g><g id="link_CashFlowLineItem_CashFlowProjection"><path d="M142.8942,144.2146 C193.0942,161.0946 256.99,182.58 307.26,199.48 " fill="none" id="CashFlowLineItem-backto-CashFlowProjection" style="stroke:#181818;stroke-width:1.0;"/><polygon fill="#181818" points="131.52,140.39,135.9322,146.0937,142.8942,144.2146,138.482,138.5109,131.52,140.39" style="stroke:#181818;stroke-width:1.0;"/></g><g id="link_CashFlowProjectionCriteria_CashFlowProjection"><path d="M360,140.06 C360,157 360,182.66 360,199.68 " fill="none" id="CashFlowProjectionCriteria-CashFlowProjection" style="stroke:#181818;stroke-width:1.0;"/></g><g id="link_CashFlowScenario_CashFlowProjection"><path d="M531.81,140.28 C494.03,157.2 437.17,182.66 399.34,199.6 " fill="none" id="CashFlowScenario-CashFlowProjection" style="stroke:#181818;stroke-width:1.0;"/></g><g id="link_Identifier_AccountingPeriod"><path d="M680.7052,52.0753 C697.5652,69.0153 714.62,86.17 731.55,103.19 " fill="none" id="Identifier-backto-AccountingPeriod" style="stroke:#181818;stroke-width:1.0;"/><polygon fill="#181818" points="672.24,43.57,673.6375,50.6444,680.7052,52.0753,679.3077,45.0009,672.24,43.57" style="stroke:#181818;stroke-width:1.0;"/></g><g id="link_Money_CashFlowLineItem"><path d="M180.78,43.79 C158.33,60.76 124.5,86.33 102.09,103.27 " fill="none" id="Money-CashFlowLineItem" style="stroke:#181818;stroke-width:1.0;"/></g><g id="link_Money_CashFlowProjection"><path d="M205.81,43.73 C209.05,67.63 217.74,110.85 240,139.97 C260.31,166.54 292.57,186.57 318.53,199.57 " fill="none" id="Money-CashFlowProjection" style="stroke:#181818;stroke-width:1.0;"/></g><g id="link_Money_CashFlowProjectionCriteria"><path d="M232.98,43.79 C260.91,60.71 302.95,86.17 330.91,103.11 " fill="none" id="Money-CashFlowProjectionCriteria" style="stroke:#181818;stroke-width:1.0;"/></g><g id="link_UOMTimeTypes_CashFlowProjectionCriteria"><path d="M360,43.57 C360,60.51 360,86.17 360,103.19 " fill="none" id="UOMTimeTypes-CashFlowProjectionCriteria" style="stroke:#181818;stroke-width:1.0;"/></g></g></svg>