<?xml version="1.0" encoding="us-ascii" standalone="no"?><svg xmlns="http://www.w3.org/2000/svg" xmlns:xlink="http://www.w3.org/1999/xlink" contentStyleType="text/css" height="1069px" preserveAspectRatio="none" style="width:1339px;height:1069px;background:#FFFFFF;" version="1.1" viewBox="0 0 1339 1069" width="1339px" zoomAndPan="magnify"><defs/><g><g id="elem_AccountingPeriod"><rect codeLine="1" fill="#F1F1F1" height="196.3945" id="AccountingPeriod" rx="2.5" ry="2.5" style="stroke:#181818;stroke-width:0.5;" width="415" x="892.5" y="642.63"/><ellipse cx="1034.75" cy="658.63" fill="#ADD1B2" rx="11" ry="11" style="stroke:#181818;stroke-width:1.0;"/><path d="M1037.2231,664.7731 Q1036.6421,665.0719 1036.0029,665.2213 Q1035.3638,665.3707 1034.6582,665.3707 Q1032.1514,665.3707 1030.8315,663.7189 Q1029.5117,662.067 1029.5117,658.9459 Q1029.5117,655.8165 1030.8315,654.1647 Q1032.1514,652.5128 1034.6582,652.5128 Q1035.3638,652.5128 1036.0112,652.6622 Q1036.6587,652.8116 1037.2231,653.1105 L1037.2231,655.8331 Q1036.5923,655.2521 1035.9988,654.9823 Q1035.4053,654.7125 1034.7744,654.7125 Q1033.4297,654.7125 1032.7449,655.7792 Q1032.0601,656.8458 1032.0601,658.9459 Q1032.0601,661.0377 1032.7449,662.1044 Q1033.4297,663.171 1034.7744,663.171 Q1035.4053,663.171 1035.9988,662.9012 Q1036.5923,662.6315 1037.2231,662.0504 Z " fill="#000000"/><text fill="#000000" font-family="sans-serif" font-size="14" lengthAdjust="spacing" textLength="122" x="1055.25" y="663.921">AccountingPeriod</text><line style="stroke:#181818;stroke-width:0.5;" x1="893.5" x2="1306.5" y1="674.63" y2="674.63"/><text fill="#000000" font-family="sans-serif" font-size="14" lengthAdjust="spacing" textLength="180" x="898.5" y="692.1652">identifiers:List&lt;Identifier&gt;</text><text fill="#000000" font-family="sans-serif" font-size="14" lengthAdjust="spacing" textLength="122" x="898.5" y="708.6534">periodDesc:String</text><text fill="#000000" font-family="sans-serif" font-size="14" lengthAdjust="spacing" textLength="178" x="898.5" y="725.1417">accountingPeriodId:String</text><text fill="#000000" font-family="sans-serif" font-size="14" lengthAdjust="spacing" textLength="189" x="898.5" y="741.63">accountingPeriodKey:String</text><text fill="#000000" font-family="sans-serif" font-size="14" lengthAdjust="spacing" textLength="129" x="898.5" y="758.1183">periodName:String</text><text fill="#000000" font-family="sans-serif" font-size="14" lengthAdjust="spacing" textLength="97" x="898.5" y="774.6066">startDate:Date</text><text fill="#000000" font-family="sans-serif" font-size="14" lengthAdjust="spacing" textLength="92" x="898.5" y="791.0948">endDate:Date</text><text fill="#000000" font-family="sans-serif" font-size="14" lengthAdjust="spacing" textLength="403" x="898.5" y="807.5831">accountingPeriodStatusType:AccountingPeriodStatusTypes</text><text fill="#000000" font-family="sans-serif" font-size="14" lengthAdjust="spacing" textLength="119" x="898.5" y="824.0714">fiscalYear:Integer</text><line style="stroke:#181818;stroke-width:0.5;" x1="893.5" x2="1306.5" y1="831.0245" y2="831.0245"/></g><g id="elem_CashFlowLineItem"><rect codeLine="12" fill="#F1F1F1" height="196.3945" id="CashFlowLineItem" rx="2.5" ry="2.5" style="stroke:#181818;stroke-width:0.5;" width="202" x="7" y="642.63"/><ellipse cx="42.7" cy="658.63" fill="#ADD1B2" rx="11" ry="11" style="stroke:#181818;stroke-width:1.0;"/><path d="M45.1731,664.7731 Q44.5921,665.0719 43.9529,665.2213 Q43.3138,665.3707 42.6082,665.3707 Q40.1014,665.3707 38.7815,663.7189 Q37.4617,662.067 37.4617,658.9459 Q37.4617,655.8165 38.7815,654.1647 Q40.1014,652.5128 42.6082,652.5128 Q43.3138,652.5128 43.9612,652.6622 Q44.6087,652.8116 45.1731,653.1105 L45.1731,655.8331 Q44.5423,655.2521 43.9488,654.9823 Q43.3553,654.7125 42.7244,654.7125 Q41.3797,654.7125 40.6949,655.7792 Q40.0101,656.8458 40.0101,658.9459 Q40.0101,661.0377 40.6949,662.1044 Q41.3797,663.171 42.7244,663.171 Q43.3553,663.171 43.9488,662.9012 Q44.5423,662.6315 45.1731,662.0504 Z " fill="#000000"/><text fill="#000000" font-family="sans-serif" font-size="14" lengthAdjust="spacing" textLength="124" x="61.3" y="663.921">CashFlowLineItem</text><line style="stroke:#181818;stroke-width:0.5;" x1="8" x2="208" y1="674.63" y2="674.63"/><text fill="#000000" font-family="sans-serif" font-size="14" lengthAdjust="spacing" textLength="179" x="13" y="692.1652">cashFlowLineItemId:String</text><text fill="#000000" font-family="sans-serif" font-size="14" lengthAdjust="spacing" textLength="190" x="13" y="708.6534">cashFlowLineItemKey:String</text><text fill="#000000" font-family="sans-serif" font-size="14" lengthAdjust="spacing" textLength="143" x="13" y="725.1417">periodStartDate:Date</text><text fill="#000000" font-family="sans-serif" font-size="14" lengthAdjust="spacing" textLength="137" x="13" y="741.63">periodEndDate:Date</text><text fill="#000000" font-family="sans-serif" font-size="14" lengthAdjust="spacing" textLength="157" x="13" y="758.1183">cashInflowTotal:Money</text><text fill="#000000" font-family="sans-serif" font-size="14" lengthAdjust="spacing" textLength="169" x="13" y="774.6066">cashOutflowTotal:Money</text><text fill="#000000" font-family="sans-serif" font-size="14" lengthAdjust="spacing" textLength="137" x="13" y="791.0948">netCashFlow:Money</text><text fill="#000000" font-family="sans-serif" font-size="14" lengthAdjust="spacing" textLength="184" x="13" y="807.5831">cashBalanceClosing:Money</text><text fill="#000000" font-family="sans-serif" font-size="14" lengthAdjust="spacing" textLength="153" x="13" y="824.0714">sourceCategory:String</text><line style="stroke:#181818;stroke-width:0.5;" x1="8" x2="208" y1="831.0245" y2="831.0245"/></g><g id="elem_CashFlowProjection"><rect codeLine="23" fill="#F1F1F1" height="163.418" id="CashFlowProjection" rx="2.5" ry="2.5" style="stroke:#181818;stroke-width:0.5;" width="385" x="267.5" y="899.02"/><ellipse cx="388.25" cy="915.02" fill="#ADD1B2" rx="11" ry="11" style="stroke:#181818;stroke-width:1.0;"/><path d="M390.7231,921.1631 Q390.1421,921.4619 389.5029,921.6113 Q388.8638,921.7607 388.1582,921.7607 Q385.6514,921.7607 384.3315,920.1089 Q383.0117,918.457 383.0117,915.3359 Q383.0117,912.2065 384.3315,910.5547 Q385.6514,908.9028 388.1582,908.9028 Q388.8638,908.9028 389.5112,909.0522 Q390.1587,909.2016 390.7231,909.5005 L390.7231,912.2231 Q390.0923,911.6421 389.4988,911.3723 Q388.9053,911.1025 388.2744,911.1025 Q386.9297,911.1025 386.2449,912.1692 Q385.5601,913.2358 385.5601,915.3359 Q385.5601,917.4277 386.2449,918.4944 Q386.9297,919.561 388.2744,919.561 Q388.9053,919.561 389.4988,919.2912 Q390.0923,919.0215 390.7231,918.4404 Z " fill="#000000"/><text fill="#000000" font-family="sans-serif" font-size="14" lengthAdjust="spacing" textLength="135" x="408.75" y="920.311">CashFlowProjection</text><line style="stroke:#181818;stroke-width:0.5;" x1="268.5" x2="651.5" y1="931.02" y2="931.02"/><text fill="#000000" font-family="sans-serif" font-size="14" lengthAdjust="spacing" textLength="201" x="273.5" y="948.5552">cashFlowProjectionKey:String</text><text fill="#000000" font-family="sans-serif" font-size="14" lengthAdjust="spacing" textLength="373" x="273.5" y="965.0434">cashFlowProjectionCriteria:CashFlowProjectionCriteria</text><text fill="#000000" font-family="sans-serif" font-size="14" lengthAdjust="spacing" textLength="136" x="273.5" y="981.5317">projectionDate:Date</text><text fill="#000000" font-family="sans-serif" font-size="14" lengthAdjust="spacing" textLength="191" x="273.5" y="998.02">cashBalanceOpening:Money</text><text fill="#000000" font-family="sans-serif" font-size="14" lengthAdjust="spacing" textLength="187" x="273.5" y="1014.5083">scenario:CashFlowScenario</text><text fill="#000000" font-family="sans-serif" font-size="14" lengthAdjust="spacing" textLength="246" x="273.5" y="1030.9966">accountingPeriod:AccountingPeriod</text><text fill="#000000" font-family="sans-serif" font-size="14" lengthAdjust="spacing" textLength="235" x="273.5" y="1047.4848">lineItems:List&lt;CashFlowLineItem&gt;</text><line style="stroke:#181818;stroke-width:0.5;" x1="268.5" x2="651.5" y1="1054.438" y2="1054.438"/></g><g id="elem_CashFlowProjectionCriteria"><rect codeLine="32" fill="#F1F1F1" height="163.418" id="CashFlowProjectionCriteria" rx="2.5" ry="2.5" style="stroke:#181818;stroke-width:0.5;" width="290" x="315" y="659.12"/><ellipse cx="362.75" cy="675.12" fill="#ADD1B2" rx="11" ry="11" style="stroke:#181818;stroke-width:1.0;"/><path d="M365.2231,681.2631 Q364.6421,681.5619 364.0029,681.7113 Q363.3638,681.8607 362.6582,681.8607 Q360.1514,681.8607 358.8315,680.2089 Q357.5117,678.557 357.5117,675.4359 Q357.5117,672.3065 358.8315,670.6547 Q360.1514,669.0028 362.6582,669.0028 Q363.3638,669.0028 364.0112,669.1522 Q364.6587,669.3016 365.2231,669.6005 L365.2231,672.3231 Q364.5923,671.7421 363.9988,671.4723 Q363.4053,671.2025 362.7744,671.2025 Q361.4297,671.2025 360.7449,672.2692 Q360.0601,673.3358 360.0601,675.4359 Q360.0601,677.5277 360.7449,678.5944 Q361.4297,679.661 362.7744,679.661 Q363.4053,679.661 363.9988,679.3912 Q364.5923,679.1215 365.2231,678.5404 Z " fill="#000000"/><text fill="#000000" font-family="sans-serif" font-size="14" lengthAdjust="spacing" textLength="186" x="383.25" y="680.411">CashFlowProjectionCriteria</text><line style="stroke:#181818;stroke-width:0.5;" x1="316" x2="604" y1="691.12" y2="691.12"/><text fill="#000000" font-family="sans-serif" font-size="14" lengthAdjust="spacing" textLength="267" x="321" y="708.6552">budgetVarianceReportRequestId:String</text><text fill="#000000" font-family="sans-serif" font-size="14" lengthAdjust="spacing" textLength="278" x="321" y="725.1434">budgetVarianceReportRequestKey:String</text><text fill="#000000" font-family="sans-serif" font-size="14" lengthAdjust="spacing" textLength="127" x="321" y="741.6317">scenarioKey:String</text><text fill="#000000" font-family="sans-serif" font-size="14" lengthAdjust="spacing" textLength="189" x="321" y="758.12">accountingPeriodKey:String</text><text fill="#000000" font-family="sans-serif" font-size="14" lengthAdjust="spacing" textLength="97" x="321" y="774.6083">startDate:Date</text><text fill="#000000" font-family="sans-serif" font-size="14" lengthAdjust="spacing" textLength="92" x="321" y="791.0966">endDate:Date</text><text fill="#000000" font-family="sans-serif" font-size="14" lengthAdjust="spacing" textLength="192" x="321" y="807.5848">openingCashBalance:Money</text><line style="stroke:#181818;stroke-width:0.5;" x1="316" x2="604" y1="814.538" y2="814.538"/></g><g id="elem_CashFlowScenario"><rect codeLine="41" fill="#F1F1F1" height="130.4414" id="CashFlowScenario" rx="2.5" ry="2.5" style="stroke:#181818;stroke-width:0.5;" width="217" x="640.5" y="675.6"/><ellipse cx="682.5" cy="691.6" fill="#ADD1B2" rx="11" ry="11" style="stroke:#181818;stroke-width:1.0;"/><path d="M684.9731,697.7431 Q684.3921,698.0419 683.7529,698.1913 Q683.1138,698.3407 682.4082,698.3407 Q679.9014,698.3407 678.5815,696.6889 Q677.2617,695.037 677.2617,691.9159 Q677.2617,688.7865 678.5815,687.1347 Q679.9014,685.4828 682.4082,685.4828 Q683.1138,685.4828 683.7612,685.6322 Q684.4087,685.7816 684.9731,686.0805 L684.9731,688.8031 Q684.3423,688.2221 683.7488,687.9523 Q683.1553,687.6825 682.5244,687.6825 Q681.1797,687.6825 680.4949,688.7492 Q679.8101,689.8158 679.8101,691.9159 Q679.8101,694.0077 680.4949,695.0744 Q681.1797,696.141 682.5244,696.141 Q683.1553,696.141 683.7488,695.8712 Q684.3423,695.6015 684.9731,695.0204 Z " fill="#000000"/><text fill="#000000" font-family="sans-serif" font-size="14" lengthAdjust="spacing" textLength="125" x="702.5" y="696.891">CashFlowScenario</text><line style="stroke:#181818;stroke-width:0.5;" x1="641.5" x2="856.5" y1="707.6" y2="707.6"/><text fill="#000000" font-family="sans-serif" font-size="14" lengthAdjust="spacing" textLength="127" x="646.5" y="725.1352">scenarioKey:String</text><text fill="#000000" font-family="sans-serif" font-size="14" lengthAdjust="spacing" textLength="83" x="646.5" y="741.6234">name:String</text><text fill="#000000" font-family="sans-serif" font-size="14" lengthAdjust="spacing" textLength="205" x="646.5" y="758.1117">arCollectionDelayDays:Integer</text><text fill="#000000" font-family="sans-serif" font-size="14" lengthAdjust="spacing" textLength="192" x="646.5" y="774.6">apPaymentHoldDays:Integer</text><text fill="#000000" font-family="sans-serif" font-size="14" lengthAdjust="spacing" textLength="122" x="646.5" y="791.0883">description:String</text><line style="stroke:#181818;stroke-width:0.5;" x1="641.5" x2="856.5" y1="798.0414" y2="798.0414"/></g><g id="elem_Identifier"><rect codeLine="48" fill="#F1F1F1" height="146.9297" id="Identifier" rx="2.5" ry="2.5" style="stroke:#181818;stroke-width:0.5;" width="152" x="909" y="221.35"/><ellipse cx="950.1" cy="237.35" fill="#ADD1B2" rx="11" ry="11" style="stroke:#181818;stroke-width:1.0;"/><path d="M952.5731,243.4931 Q951.9921,243.7919 951.3529,243.9413 Q950.7138,244.0907 950.0082,244.0907 Q947.5014,244.0907 946.1815,242.4389 Q944.8617,240.787 944.8617,237.6659 Q944.8617,234.5365 946.1815,232.8847 Q947.5014,231.2328 950.0082,231.2328 Q950.7138,231.2328 951.3612,231.3822 Q952.0087,231.5316 952.5731,231.8305 L952.5731,234.5531 Q951.9423,233.9721 951.3488,233.7023 Q950.7553,233.4325 950.1244,233.4325 Q948.7797,233.4325 948.0949,234.4992 Q947.4101,235.5658 947.4101,237.6659 Q947.4101,239.7577 948.0949,240.8244 Q948.7797,241.891 950.1244,241.891 Q950.7553,241.891 951.3488,241.6212 Q951.9423,241.3515 952.5731,240.7704 Z " fill="#000000"/><text fill="#000000" font-family="sans-serif" font-size="14" lengthAdjust="spacing" textLength="62" x="969.9" y="242.641">Identifier</text><line style="stroke:#181818;stroke-width:0.5;" x1="910" x2="1060" y1="253.35" y2="253.35"/><text fill="#000000" font-family="sans-serif" font-size="14" lengthAdjust="spacing" textLength="120" x="915" y="270.8852">identifierId:String</text><text fill="#000000" font-family="sans-serif" font-size="14" lengthAdjust="spacing" textLength="131" x="915" y="287.3734">identifierKey:String</text><text fill="#000000" font-family="sans-serif" font-size="14" lengthAdjust="spacing" textLength="97" x="915" y="303.8617">context:String</text><text fill="#000000" font-family="sans-serif" font-size="14" lengthAdjust="spacing" textLength="81" x="915" y="320.35">value:String</text><text fill="#000000" font-family="sans-serif" font-size="14" lengthAdjust="spacing" textLength="83" x="915" y="336.8383">detail:String</text><text fill="#000000" font-family="sans-serif" font-size="14" lengthAdjust="spacing" textLength="140" x="915" y="353.3266">identifierType:String</text><line style="stroke:#181818;stroke-width:0.5;" x1="910" x2="1060" y1="360.2797" y2="360.2797"/></g><g id="elem_Money"><rect codeLine="56" fill="#F1F1F1" height="146.9297" id="Money" rx="2.5" ry="2.5" style="stroke:#181818;stroke-width:0.5;" width="152" x="185" y="221.35"/><ellipse cx="234.25" cy="237.35" fill="#ADD1B2" rx="11" ry="11" style="stroke:#181818;stroke-width:1.0;"/><path d="M236.7231,243.4931 Q236.1421,243.7919 235.5029,243.9413 Q234.8638,244.0907 234.1582,244.0907 Q231.6514,244.0907 230.3315,242.4389 Q229.0117,240.787 229.0117,237.6659 Q229.0117,234.5365 230.3315,232.8847 Q231.6514,231.2328 234.1582,231.2328 Q234.8638,231.2328 235.5112,231.3822 Q236.1587,231.5316 236.7231,231.8305 L236.7231,234.5531 Q236.0923,233.9721 235.4988,233.7023 Q234.9053,233.4325 234.2744,233.4325 Q232.9297,233.4325 232.2449,234.4992 Q231.5601,235.5658 231.5601,237.6659 Q231.5601,239.7577 232.2449,240.8244 Q232.9297,241.891 234.2744,241.891 Q234.9053,241.891 235.4988,241.6212 Q236.0923,241.3515 236.7231,240.7704 Z " fill="#000000"/><text fill="#000000" font-family="sans-serif" font-size="14" lengthAdjust="spacing" textLength="45" x="254.75" y="242.641">Money</text><line style="stroke:#181818;stroke-width:0.5;" x1="186" x2="336" y1="253.35" y2="253.35"/><text fill="#000000" font-family="sans-serif" font-size="14" lengthAdjust="spacing" textLength="115" x="191" y="270.8852">moneyKey:String</text><text fill="#000000" font-family="sans-serif" font-size="14" lengthAdjust="spacing" textLength="104" x="191" y="287.3734">moneyId:String</text><text fill="#000000" font-family="sans-serif" font-size="14" lengthAdjust="spacing" textLength="140" x="191" y="303.8617">currencyCode:String</text><text fill="#000000" font-family="sans-serif" font-size="14" lengthAdjust="spacing" textLength="131" x="191" y="320.35">displayValue:String</text><text fill="#000000" font-family="sans-serif" font-size="14" lengthAdjust="spacing" textLength="85" x="191" y="336.8383">locale:String</text><text fill="#000000" font-family="sans-serif" font-size="14" lengthAdjust="spacing" textLength="81" x="191" y="353.3266">value:String</text><line style="stroke:#181818;stroke-width:0.5;" x1="186" x2="336" y1="360.2797" y2="360.2797"/></g><g id="elem_AccountingPeriodStatusTypes"><rect codeLine="64" fill="#FAFF91" height="163.418" id="AccountingPeriodStatusTypes" rx="2.5" ry="2.5" style="stroke:#181818;stroke-width:0.5;" width="236" x="1096" y="213.11"/><ellipse cx="1111" cy="229.11" fill="#ADD1B2" rx="11" ry="11" style="stroke:#181818;stroke-width:1.0;"/><path d="M1113.4731,235.2531 Q1112.8921,235.5519 1112.2529,235.7013 Q1111.6138,235.8507 1110.9082,235.8507 Q1108.4014,235.8507 1107.0815,234.1989 Q1105.7617,232.547 1105.7617,229.4259 Q1105.7617,226.2965 1107.0815,224.6447 Q1108.4014,222.9928 1110.9082,222.9928 Q1111.6138,222.9928 1112.2612,223.1422 Q1112.9087,223.2916 1113.4731,223.5905 L1113.4731,226.3131 Q1112.8423,225.7321 1112.2488,225.4623 Q1111.6553,225.1925 1111.0244,225.1925 Q1109.6797,225.1925 1108.9949,226.2592 Q1108.3101,227.3258 1108.3101,229.4259 Q1108.3101,231.5177 1108.9949,232.5844 Q1109.6797,233.651 1111.0244,233.651 Q1111.6553,233.651 1112.2488,233.3812 Q1112.8423,233.1115 1113.4731,232.5304 Z " fill="#000000"/><text fill="#000000" font-family="sans-serif" font-size="14" lengthAdjust="spacing" textLength="204" x="1125" y="234.401">AccountingPeriodStatusTypes</text><line style="stroke:#181818;stroke-width:0.5;" x1="1097" x2="1331" y1="245.11" y2="245.11"/><text fill="#000000" font-family="sans-serif" font-size="14" lengthAdjust="spacing" textLength="90" x="1102" y="262.6452">ADJUSTMENT</text><text fill="#000000" font-family="sans-serif" font-size="14" lengthAdjust="spacing" textLength="54" x="1102" y="279.1334">CLOSED</text><text fill="#000000" font-family="sans-serif" font-size="14" lengthAdjust="spacing" textLength="54" x="1102" y="295.6217">FUTURE</text><text fill="#000000" font-family="sans-serif" font-size="14" lengthAdjust="spacing" textLength="55" x="1102" y="312.11">LOCKED</text><text fill="#000000" font-family="sans-serif" font-size="14" lengthAdjust="spacing" textLength="37" x="1102" y="328.5983">OPEN</text><text fill="#000000" font-family="sans-serif" font-size="14" lengthAdjust="spacing" textLength="47" x="1102" y="345.0866">OTHER</text><text fill="#000000" font-family="sans-serif" font-size="14" lengthAdjust="spacing" textLength="130" x="1102" y="361.5748">PENDING_CLOSURE</text><line style="stroke:#181818;stroke-width:0.5;" x1="1097" x2="1331" y1="368.528" y2="368.528"/></g><g id="elem_UOMTimeTypes"><rect codeLine="73" fill="#FAFF91" height="575.625" id="UOMTimeTypes" rx="2.5" ry="2.5" style="stroke:#181818;stroke-width:0.5;" width="175" x="372.5" y="7"/><ellipse cx="403.7" cy="23" fill="#ADD1B2" rx="11" ry="11" style="stroke:#181818;stroke-width:1.0;"/><path d="M406.1731,29.1431 Q405.5921,29.4419 404.9529,29.5913 Q404.3138,29.7407 403.6082,29.7407 Q401.1014,29.7407 399.7815,28.0889 Q398.4617,26.437 398.4617,23.3159 Q398.4617,20.1865 399.7815,18.5347 Q401.1014,16.8828 403.6082,16.8828 Q404.3138,16.8828 404.9612,17.0322 Q405.6087,17.1816 406.1731,17.4805 L406.1731,20.2031 Q405.5423,19.6221 404.9488,19.3523 Q404.3553,19.0825 403.7244,19.0825 Q402.3797,19.0825 401.6949,20.1492 Q401.0101,21.2158 401.0101,23.3159 Q401.0101,25.4077 401.6949,26.4744 Q402.3797,27.541 403.7244,27.541 Q404.3553,27.541 404.9488,27.2712 Q405.5423,27.0015 406.1731,26.4204 Z " fill="#000000"/><text fill="#000000" font-family="sans-serif" font-size="14" lengthAdjust="spacing" textLength="107" x="421.3" y="28.291">UOMTimeTypes</text><line style="stroke:#181818;stroke-width:0.5;" x1="373.5" x2="546.5" y1="39" y2="39"/><text fill="#000000" font-family="sans-serif" font-size="14" lengthAdjust="spacing" textLength="64" x="378.5" y="56.5352">BI_WEEKS</text><text fill="#000000" font-family="sans-serif" font-size="14" lengthAdjust="spacing" textLength="65" x="378.5" y="73.0234">CENTURY</text><text fill="#000000" font-family="sans-serif" font-size="14" lengthAdjust="spacing" textLength="60" x="378.5" y="89.5117">CUSTOM</text><text fill="#000000" font-family="sans-serif" font-size="14" lengthAdjust="spacing" textLength="29" x="378.5" y="106">DAY</text><text fill="#000000" font-family="sans-serif" font-size="14" lengthAdjust="spacing" textLength="37" x="378.5" y="122.4883">DAYS</text><text fill="#000000" font-family="sans-serif" font-size="14" lengthAdjust="spacing" textLength="114" x="378.5" y="138.9766">DAY_OF_MONTH</text><text fill="#000000" font-family="sans-serif" font-size="14" lengthAdjust="spacing" textLength="56" x="378.5" y="155.4648">DECADE</text><text fill="#000000" font-family="sans-serif" font-size="14" lengthAdjust="spacing" textLength="73" x="378.5" y="171.9531">DURATION</text><text fill="#000000" font-family="sans-serif" font-size="14" lengthAdjust="spacing" textLength="40" x="378.5" y="188.4414">HOUR</text><text fill="#000000" font-family="sans-serif" font-size="14" lengthAdjust="spacing" textLength="48" x="378.5" y="204.9297">HOURS</text><text fill="#000000" font-family="sans-serif" font-size="14" lengthAdjust="spacing" textLength="103" x="378.5" y="221.418">MICROSECOND</text><text fill="#000000" font-family="sans-serif" font-size="14" lengthAdjust="spacing" textLength="84" x="378.5" y="237.9063">MILLENNIUM</text><text fill="#000000" font-family="sans-serif" font-size="14" lengthAdjust="spacing" textLength="91" x="378.5" y="254.3945">MILLISECOND</text><text fill="#000000" font-family="sans-serif" font-size="14" lengthAdjust="spacing" textLength="53" x="378.5" y="270.8828">MINUTE</text><text fill="#000000" font-family="sans-serif" font-size="14" lengthAdjust="spacing" textLength="61" x="378.5" y="287.3711">MINUTES</text><text fill="#000000" font-family="sans-serif" font-size="14" lengthAdjust="spacing" textLength="52" x="378.5" y="303.8594">MONTH</text><text fill="#000000" font-family="sans-serif" font-size="14" lengthAdjust="spacing" textLength="60" x="378.5" y="320.3477">MONTHS</text><text fill="#000000" font-family="sans-serif" font-size="14" lengthAdjust="spacing" textLength="93" x="378.5" y="336.8359">MULTI_YEARS</text><text fill="#000000" font-family="sans-serif" font-size="14" lengthAdjust="spacing" textLength="98" x="378.5" y="353.3242">NANOSECOND</text><text fill="#000000" font-family="sans-serif" font-size="14" lengthAdjust="spacing" textLength="39" x="378.5" y="369.8125">NONE</text><text fill="#000000" font-family="sans-serif" font-size="14" lengthAdjust="spacing" textLength="95" x="378.5" y="386.3008">OCCURRENCE</text><text fill="#000000" font-family="sans-serif" font-size="14" lengthAdjust="spacing" textLength="47" x="378.5" y="402.7891">OTHER</text><text fill="#000000" font-family="sans-serif" font-size="14" lengthAdjust="spacing" textLength="163" x="378.5" y="419.2773">PERCENTAGE_OF_HOUR</text><text fill="#000000" font-family="sans-serif" font-size="14" lengthAdjust="spacing" textLength="74" x="378.5" y="435.7656">QUARTERS</text><text fill="#000000" font-family="sans-serif" font-size="14" lengthAdjust="spacing" textLength="57" x="378.5" y="452.2539">SECOND</text><text fill="#000000" font-family="sans-serif" font-size="14" lengthAdjust="spacing" textLength="99" x="378.5" y="468.7422">SEMI_MONTHS</text><text fill="#000000" font-family="sans-serif" font-size="14" lengthAdjust="spacing" textLength="83" x="378.5" y="485.2305">SEMI_YEARS</text><text fill="#000000" font-family="sans-serif" font-size="14" lengthAdjust="spacing" textLength="74" x="378.5" y="501.7188">UNLIMITED</text><text fill="#000000" font-family="sans-serif" font-size="14" lengthAdjust="spacing" textLength="37" x="378.5" y="518.207">WEEK</text><text fill="#000000" font-family="sans-serif" font-size="14" lengthAdjust="spacing" textLength="45" x="378.5" y="534.6953">WEEKS</text><text fill="#000000" font-family="sans-serif" font-size="14" lengthAdjust="spacing" textLength="36" x="378.5" y="551.1836">YEAR</text><text fill="#000000" font-family="sans-serif" font-size="14" lengthAdjust="spacing" textLength="44" x="378.5" y="567.6719">YEARS</text><line style="stroke:#181818;stroke-width:0.5;" x1="373.5" x2="546.5" y1="574.625" y2="574.625"/></g><g id="link_AccountingPeriod_CashFlowProjection"><path codeLine="107" d="M892.15,832.33 C886.39,834.61 880.66,836.84 875,839.02 C803.11,866.69 723.17,894.48 652.79,917.97 " fill="none" id="AccountingPeriod-CashFlowProjection" style="stroke:#181818;stroke-width:1.0;"/></g><g id="link_AccountingPeriodStatusTypes_AccountingPeriod"><path codeLine="108" d="M1193.16,376.99 C1173.98,451.69 1145.5,562.62 1125.08,642.14 " fill="none" id="AccountingPeriodStatusTypes-AccountingPeriod" style="stroke:#181818;stroke-width:1.0;"/></g><g id="link_CashFlowLineItem_CashFlowProjection"><path codeLine="109" d="M219.1082,827.1771 C228.0282,833.6771 227.28,832.99 236,839.02 C264.89,859.01 296.52,879.62 326.67,898.69 " fill="none" id="CashFlowLineItem-backto-CashFlowProjection" style="stroke:#181818;stroke-width:1.0;"/><polygon fill="#181818" points="209.41,820.11,211.9034,826.8763,219.1082,827.1771,216.6148,820.4108,209.41,820.11" style="stroke:#181818;stroke-width:1.0;"/></g><g id="link_CashFlowProjectionCriteria_CashFlowProjection"><path codeLine="110" d="M460,823.03 C460,847.53 460,874.41 460,898.89 " fill="none" id="CashFlowProjectionCriteria-CashFlowProjection" style="stroke:#181818;stroke-width:1.0;"/></g><g id="link_CashFlowScenario_CashFlowProjection"><path codeLine="111" d="M670.41,806.52 C635.9,834.93 594.99,868.6 558.47,898.67 " fill="none" id="CashFlowScenario-CashFlowProjection" style="stroke:#181818;stroke-width:1.0;"/></g><g id="link_Identifier_AccountingPeriod"><path codeLine="112" d="M1006.8688,380.2567 C1026.2088,454.9267 1053.39,559.88 1074.78,642.44 " fill="none" id="Identifier-backto-AccountingPeriod" style="stroke:#181818;stroke-width:1.0;"/><polygon fill="#181818" points="1003.86,368.64,1001.4922,375.4513,1006.8688,380.2567,1009.2366,373.4454,1003.86,368.64" style="stroke:#181818;stroke-width:1.0;"/></g><g id="link_Money_CashFlowLineItem"><path codeLine="113" d="M235.91,368.64 C210.18,443.31 170.01,559.88 141.56,642.44 " fill="none" id="Money-CashFlowLineItem" style="stroke:#181818;stroke-width:1.0;"/></g><g id="link_Money_CashFlowProjection"><path codeLine="114" d="M248.87,368.49 C234.32,477.19 220.58,685.71 297,839.02 C308.01,861.1 324.17,881.15 342.11,898.75 " fill="none" id="Money-CashFlowProjection" style="stroke:#181818;stroke-width:1.0;"/></g><g id="link_Money_CashFlowProjectionCriteria"><path codeLine="115" d="M278.96,368.65 C294.96,427.93 321.07,512.89 355,582.63 C367.56,608.45 383.8,634.99 399.74,658.73 " fill="none" id="Money-CashFlowProjectionCriteria" style="stroke:#181818;stroke-width:1.0;"/></g><g id="link_UOMTimeTypes_CashFlowProjectionCriteria"><path codeLine="116" d="M460,582.97 C460,610.36 460,636.29 460,658.9 " fill="none" id="UOMTimeTypes-CashFlowProjectionCriteria" style="stroke:#181818;stroke-width:1.0;"/></g></g></svg>