<?xml version="1.0" encoding="us-ascii" standalone="no"?><svg xmlns="http://www.w3.org/2000/svg" xmlns:xlink="http://www.w3.org/1999/xlink" contentStyleType="text/css" height="878px" preserveAspectRatio="none" style="width:331px;height:878px;background:#FFFFFF;" version="1.1" viewBox="0 0 331 878" width="331px" zoomAndPan="magnify"><defs/><g><g id="elem_PaymentEvent"><rect codeLine="1" fill="#F1F1F1" height="179.9063" id="PaymentEvent" rx="2.5" ry="2.5" style="stroke:#181818;stroke-width:0.5;" width="317" x="7" y="692.09"/><ellipse cx="113.75" cy="708.09" fill="#ADD1B2" rx="11" ry="11" style="stroke:#181818;stroke-width:1.0;"/><path d="M116.2231,714.2331 Q115.6421,714.5319 115.0029,714.6813 Q114.3638,714.8307 113.6582,714.8307 Q111.1514,714.8307 109.8315,713.1789 Q108.5117,711.527 108.5117,708.4059 Q108.5117,705.2765 109.8315,703.6247 Q111.1514,701.9728 113.6582,701.9728 Q114.3638,701.9728 115.0112,702.1222 Q115.6587,702.2716 116.2231,702.5705 L116.2231,705.2931 Q115.5923,704.7121 114.9988,704.4423 Q114.4053,704.1725 113.7744,704.1725 Q112.4297,704.1725 111.7449,705.2392 Q111.0601,706.3058 111.0601,708.4059 Q111.0601,710.4977 111.7449,711.5644 Q112.4297,712.631 113.7744,712.631 Q114.4053,712.631 114.9988,712.3612 Q115.5923,712.0915 116.2231,711.5104 Z " fill="#000000"/><text fill="#000000" font-family="sans-serif" font-size="14" lengthAdjust="spacing" textLength="95" x="134.25" y="713.381">PaymentEvent</text><line style="stroke:#181818;stroke-width:0.5;" x1="8" x2="323" y1="724.09" y2="724.09"/><text fill="#000000" font-family="sans-serif" font-size="14" lengthAdjust="spacing" textLength="154" x="13" y="741.6252">paymentEventId:String</text><text fill="#000000" font-family="sans-serif" font-size="14" lengthAdjust="spacing" textLength="165" x="13" y="758.1134">paymentEventKey:String</text><text fill="#000000" font-family="sans-serif" font-size="14" lengthAdjust="spacing" textLength="128" x="13" y="774.6017">paymentKey:String</text><text fill="#000000" font-family="sans-serif" font-size="14" lengthAdjust="spacing" textLength="97" x="13" y="791.09">context:String</text><text fill="#000000" font-family="sans-serif" font-size="14" lengthAdjust="spacing" textLength="299" x="13" y="807.5783">oldPaymentStatusType:PaymentStatusTypes</text><text fill="#000000" font-family="sans-serif" font-size="14" lengthAdjust="spacing" textLength="305" x="13" y="824.0666">newPaymentStatusType:PaymentStatusTypes</text><text fill="#000000" font-family="sans-serif" font-size="14" lengthAdjust="spacing" textLength="198" x="13" y="840.5548">paymentTransactionId:String</text><text fill="#000000" font-family="sans-serif" font-size="14" lengthAdjust="spacing" textLength="176" x="13" y="857.0431">occurrenceDateTime:Date</text><line style="stroke:#181818;stroke-width:0.5;" x1="8" x2="323" y1="863.9963" y2="863.9963"/></g><g id="elem_PaymentStatusTypes"><rect codeLine="11" fill="#FAFF91" height="625.0898" id="PaymentStatusTypes" rx="2.5" ry="2.5" style="stroke:#181818;stroke-width:0.5;" width="213" x="59" y="7"/><ellipse cx="92.45" cy="23" fill="#ADD1B2" rx="11" ry="11" style="stroke:#181818;stroke-width:1.0;"/><path d="M94.9231,29.1431 Q94.3421,29.4419 93.7029,29.5913 Q93.0638,29.7407 92.3582,29.7407 Q89.8514,29.7407 88.5315,28.0889 Q87.2117,26.437 87.2117,23.3159 Q87.2117,20.1865 88.5315,18.5347 Q89.8514,16.8828 92.3582,16.8828 Q93.0638,16.8828 93.7112,17.0322 Q94.3587,17.1816 94.9231,17.4805 L94.9231,20.2031 Q94.2923,19.6221 93.6988,19.3523 Q93.1053,19.0825 92.4744,19.0825 Q91.1297,19.0825 90.4449,20.1492 Q89.7601,21.2158 89.7601,23.3159 Q89.7601,25.4077 90.4449,26.4744 Q91.1297,27.541 92.4744,27.541 Q93.1053,27.541 93.6988,27.2712 Q94.2923,27.0015 94.9231,26.4204 Z " fill="#000000"/><text fill="#000000" font-family="sans-serif" font-size="14" lengthAdjust="spacing" textLength="140" x="110.55" y="28.291">PaymentStatusTypes</text><line style="stroke:#181818;stroke-width:0.5;" x1="60" x2="271" y1="39" y2="39"/><text fill="#000000" font-family="sans-serif" font-size="14" lengthAdjust="spacing" textLength="73" x="65" y="56.5352">ACCEPTED</text><text fill="#000000" font-family="sans-serif" font-size="14" lengthAdjust="spacing" textLength="50" x="65" y="73.0234">ACTIVE</text><text fill="#000000" font-family="sans-serif" font-size="14" lengthAdjust="spacing" textLength="73" x="65" y="89.5117">APPROVED</text><text fill="#000000" font-family="sans-serif" font-size="14" lengthAdjust="spacing" textLength="115" x="65" y="106">AUTO_INITIATED</text><text fill="#000000" font-family="sans-serif" font-size="14" lengthAdjust="spacing" textLength="128" x="65" y="122.4883">AUTO_SCHEDULED</text><text fill="#000000" font-family="sans-serif" font-size="14" lengthAdjust="spacing" textLength="80" x="65" y="138.9766">CANCELLED</text><text fill="#000000" font-family="sans-serif" font-size="14" lengthAdjust="spacing" textLength="62" x="65" y="155.4648">CLEARED</text><text fill="#000000" font-family="sans-serif" font-size="14" lengthAdjust="spacing" textLength="83" x="65" y="171.9531">COMPLETED</text><text fill="#000000" font-family="sans-serif" font-size="14" lengthAdjust="spacing" textLength="64" x="65" y="188.4414">CREATED</text><text fill="#000000" font-family="sans-serif" font-size="14" lengthAdjust="spacing" textLength="70" x="65" y="204.9297">DEFERRED</text><text fill="#000000" font-family="sans-serif" font-size="14" lengthAdjust="spacing" textLength="144" x="65" y="221.418">DEFERRED_INTERNAL</text><text fill="#000000" font-family="sans-serif" font-size="14" lengthAdjust="spacing" textLength="50" x="65" y="237.9063">DENIED</text><text fill="#000000" font-family="sans-serif" font-size="14" lengthAdjust="spacing" textLength="56" x="65" y="254.3945">EXPIRED</text><text fill="#000000" font-family="sans-serif" font-size="14" lengthAdjust="spacing" textLength="47" x="65" y="270.8828">FAILED</text><text fill="#000000" font-family="sans-serif" font-size="14" lengthAdjust="spacing" textLength="104" x="65" y="287.3711">FRAUD_REVIEW</text><text fill="#000000" font-family="sans-serif" font-size="14" lengthAdjust="spacing" textLength="56" x="65" y="303.8594">FUNDED</text><text fill="#000000" font-family="sans-serif" font-size="14" lengthAdjust="spacing" textLength="64" x="65" y="320.3477">INACTIVE</text><text fill="#000000" font-family="sans-serif" font-size="14" lengthAdjust="spacing" textLength="134" x="65" y="336.8359">MANUAL_INITIATED</text><text fill="#000000" font-family="sans-serif" font-size="14" lengthAdjust="spacing" textLength="32" x="65" y="353.3242">PAID</text><text fill="#000000" font-family="sans-serif" font-size="14" lengthAdjust="spacing" textLength="137" x="65" y="369.8125">PAYROLL_FINALIZED</text><text fill="#000000" font-family="sans-serif" font-size="14" lengthAdjust="spacing" textLength="128" x="65" y="386.3008">PAYROLL_PENDING</text><text fill="#000000" font-family="sans-serif" font-size="14" lengthAdjust="spacing" textLength="60" x="65" y="402.7891">PENDING</text><text fill="#000000" font-family="sans-serif" font-size="14" lengthAdjust="spacing" textLength="164" x="65" y="419.2773">PENDING_PAYER_FUNDS</text><text fill="#000000" font-family="sans-serif" font-size="14" lengthAdjust="spacing" textLength="80" x="65" y="435.7656">PROCESSED</text><text fill="#000000" font-family="sans-serif" font-size="14" lengthAdjust="spacing" textLength="86" x="65" y="452.2539">PROCESSING</text><text fill="#000000" font-family="sans-serif" font-size="14" lengthAdjust="spacing" textLength="73" x="65" y="468.7422">REFUNDED</text><text fill="#000000" font-family="sans-serif" font-size="14" lengthAdjust="spacing" textLength="66" x="65" y="485.2305">REJECTED</text><text fill="#000000" font-family="sans-serif" font-size="14" lengthAdjust="spacing" textLength="128" x="65" y="501.7188">REQUIRES_ACTION</text><text fill="#000000" font-family="sans-serif" font-size="14" lengthAdjust="spacing" textLength="201" x="65" y="518.207">REQUIRES_PAYMENT_STATUS</text><text fill="#000000" font-family="sans-serif" font-size="14" lengthAdjust="spacing" textLength="73" x="65" y="534.6953">RETURNED</text><text fill="#000000" font-family="sans-serif" font-size="14" lengthAdjust="spacing" textLength="69" x="65" y="551.1836">REVERSED</text><text fill="#000000" font-family="sans-serif" font-size="14" lengthAdjust="spacing" textLength="81" x="65" y="567.6719">SCHEDULED</text><text fill="#000000" font-family="sans-serif" font-size="14" lengthAdjust="spacing" textLength="78" x="65" y="584.1602">SUBMITTED</text><text fill="#000000" font-family="sans-serif" font-size="14" lengthAdjust="spacing" textLength="82" x="65" y="600.6484">SUCCEEDED</text><text fill="#000000" font-family="sans-serif" font-size="14" lengthAdjust="spacing" textLength="52" x="65" y="617.1367">VOIDED</text><line style="stroke:#181818;stroke-width:0.5;" x1="60" x2="271" y1="624.0898" y2="624.0898"/></g><g id="link_PaymentStatusTypes_PaymentEvent"><path codeLine="48" d="M165.5,632.49 C165.5,653.54 165.5,673.54 165.5,691.66 " fill="none" id="PaymentStatusTypes-PaymentEvent" style="stroke:#181818;stroke-width:1.0;"/></g></g></svg>