<?xml version="1.0" encoding="us-ascii" standalone="no"?><svg xmlns="http://www.w3.org/2000/svg" xmlns:xlink="http://www.w3.org/1999/xlink" contentStyleType="text/css" height="996px" preserveAspectRatio="none" style="width:1418px;height:996px;background:#FFFFFF;" version="1.1" viewBox="0 0 1418 996" width="1418px" zoomAndPan="magnify"><defs/><g><g id="elem_AccountingPeriod"><rect codeLine="1" fill="#F1F1F1" height="196.3945" id="AccountingPeriod" rx="2.5" ry="2.5" style="stroke:#181818;stroke-width:0.5;" width="415" x="7" y="263.4"/><ellipse cx="149.25" cy="279.4" fill="#ADD1B2" rx="11" ry="11" style="stroke:#181818;stroke-width:1.0;"/><path d="M151.7231,285.5431 Q151.1421,285.8419 150.5029,285.9913 Q149.8638,286.1407 149.1582,286.1407 Q146.6514,286.1407 145.3315,284.4889 Q144.0117,282.837 144.0117,279.7159 Q144.0117,276.5865 145.3315,274.9347 Q146.6514,273.2828 149.1582,273.2828 Q149.8638,273.2828 150.5112,273.4322 Q151.1587,273.5816 151.7231,273.8805 L151.7231,276.6031 Q151.0923,276.0221 150.4988,275.7523 Q149.9053,275.4825 149.2744,275.4825 Q147.9297,275.4825 147.2449,276.5492 Q146.5601,277.6158 146.5601,279.7159 Q146.5601,281.8077 147.2449,282.8744 Q147.9297,283.941 149.2744,283.941 Q149.9053,283.941 150.4988,283.6712 Q151.0923,283.4015 151.7231,282.8204 Z " fill="#000000"/><text fill="#000000" font-family="sans-serif" font-size="14" lengthAdjust="spacing" textLength="122" x="169.75" y="284.691">AccountingPeriod</text><line style="stroke:#181818;stroke-width:0.5;" x1="8" x2="421" y1="295.4" y2="295.4"/><text fill="#000000" font-family="sans-serif" font-size="14" lengthAdjust="spacing" textLength="180" x="13" y="312.9352">identifiers:List&lt;Identifier&gt;</text><text fill="#000000" font-family="sans-serif" font-size="14" lengthAdjust="spacing" textLength="122" x="13" y="329.4234">periodDesc:String</text><text fill="#000000" font-family="sans-serif" font-size="14" lengthAdjust="spacing" textLength="178" x="13" y="345.9117">accountingPeriodId:String</text><text fill="#000000" font-family="sans-serif" font-size="14" lengthAdjust="spacing" textLength="189" x="13" y="362.4">accountingPeriodKey:String</text><text fill="#000000" font-family="sans-serif" font-size="14" lengthAdjust="spacing" textLength="129" x="13" y="378.8883">periodName:String</text><text fill="#000000" font-family="sans-serif" font-size="14" lengthAdjust="spacing" textLength="97" x="13" y="395.3766">startDate:Date</text><text fill="#000000" font-family="sans-serif" font-size="14" lengthAdjust="spacing" textLength="92" x="13" y="411.8648">endDate:Date</text><text fill="#000000" font-family="sans-serif" font-size="14" lengthAdjust="spacing" textLength="403" x="13" y="428.3531">accountingPeriodStatusType:AccountingPeriodStatusTypes</text><text fill="#000000" font-family="sans-serif" font-size="14" lengthAdjust="spacing" textLength="119" x="13" y="444.8414">fiscalYear:Integer</text><line style="stroke:#181818;stroke-width:0.5;" x1="8" x2="421" y1="451.7945" y2="451.7945"/></g><g id="elem_Budget"><rect codeLine="12" fill="#F1F1F1" height="146.9297" id="Budget" rx="2.5" ry="2.5" style="stroke:#181818;stroke-width:0.5;" width="258" x="741.5" y="842.14"/><ellipse cx="842.25" cy="858.14" fill="#ADD1B2" rx="11" ry="11" style="stroke:#181818;stroke-width:1.0;"/><path d="M844.7231,864.2831 Q844.1421,864.5819 843.5029,864.7313 Q842.8638,864.8807 842.1582,864.8807 Q839.6514,864.8807 838.3315,863.2289 Q837.0117,861.577 837.0117,858.4559 Q837.0117,855.3265 838.3315,853.6747 Q839.6514,852.0228 842.1582,852.0228 Q842.8638,852.0228 843.5112,852.1722 Q844.1587,852.3216 844.7231,852.6205 L844.7231,855.3431 Q844.0923,854.7621 843.4988,854.4923 Q842.9053,854.2225 842.2744,854.2225 Q840.9297,854.2225 840.2449,855.2892 Q839.5601,856.3558 839.5601,858.4559 Q839.5601,860.5477 840.2449,861.6144 Q840.9297,862.681 842.2744,862.681 Q842.9053,862.681 843.4988,862.4112 Q844.0923,862.1415 844.7231,861.5604 Z " fill="#000000"/><text fill="#000000" font-family="sans-serif" font-size="14" lengthAdjust="spacing" textLength="48" x="862.75" y="863.431">Budget</text><line style="stroke:#181818;stroke-width:0.5;" x1="742.5" x2="998.5" y1="874.14" y2="874.14"/><text fill="#000000" font-family="sans-serif" font-size="14" lengthAdjust="spacing" textLength="118" x="747.5" y="891.6752">budgetKey:String</text><text fill="#000000" font-family="sans-serif" font-size="14" lengthAdjust="spacing" textLength="107" x="747.5" y="908.1634">budgetId:String</text><text fill="#000000" font-family="sans-serif" font-size="14" lengthAdjust="spacing" textLength="83" x="747.5" y="924.6517">name:String</text><text fill="#000000" font-family="sans-serif" font-size="14" lengthAdjust="spacing" textLength="246" x="747.5" y="941.14">accountingPeriod:AccountingPeriod</text><text fill="#000000" font-family="sans-serif" font-size="14" lengthAdjust="spacing" textLength="126" x="747.5" y="957.6283">approvalDate:Date</text><text fill="#000000" font-family="sans-serif" font-size="14" lengthAdjust="spacing" textLength="213" x="747.5" y="974.1166">budgetItems:List&lt;BudgetItem&gt;</text><line style="stroke:#181818;stroke-width:0.5;" x1="742.5" x2="998.5" y1="981.0697" y2="981.0697"/></g><g id="elem_BudgetItem"><rect codeLine="20" fill="#F1F1F1" height="130.4414" id="BudgetItem" rx="2.5" ry="2.5" style="stroke:#181818;stroke-width:0.5;" width="339" x="701" y="602.23"/><ellipse cx="827.25" cy="618.23" fill="#ADD1B2" rx="11" ry="11" style="stroke:#181818;stroke-width:1.0;"/><path d="M829.7231,624.3731 Q829.1421,624.6719 828.5029,624.8213 Q827.8638,624.9707 827.1582,624.9707 Q824.6514,624.9707 823.3315,623.3189 Q822.0117,621.667 822.0117,618.5459 Q822.0117,615.4165 823.3315,613.7647 Q824.6514,612.1128 827.1582,612.1128 Q827.8638,612.1128 828.5112,612.2622 Q829.1587,612.4116 829.7231,612.7105 L829.7231,615.4331 Q829.0923,614.8521 828.4988,614.5823 Q827.9053,614.3125 827.2744,614.3125 Q825.9297,614.3125 825.2449,615.3792 Q824.5601,616.4458 824.5601,618.5459 Q824.5601,620.6377 825.2449,621.7044 Q825.9297,622.771 827.2744,622.771 Q827.9053,622.771 828.4988,622.5012 Q829.0923,622.2315 829.7231,621.6504 Z " fill="#000000"/><text fill="#000000" font-family="sans-serif" font-size="14" lengthAdjust="spacing" textLength="78" x="847.75" y="623.521">BudgetItem</text><line style="stroke:#181818;stroke-width:0.5;" x1="702" x2="1039" y1="634.23" y2="634.23"/><text fill="#000000" font-family="sans-serif" font-size="14" lengthAdjust="spacing" textLength="148" x="707" y="651.7652">budgetItemKey:String</text><text fill="#000000" font-family="sans-serif" font-size="14" lengthAdjust="spacing" textLength="137" x="707" y="668.2534">budgetItemId:String</text><text fill="#000000" font-family="sans-serif" font-size="14" lengthAdjust="spacing" textLength="327" x="707" y="684.7417">generalLedgerAccount:GeneralLedgerReference</text><text fill="#000000" font-family="sans-serif" font-size="14" lengthAdjust="spacing" textLength="285" x="707" y="701.23">controlAccount:ControlAccountReference</text><text fill="#000000" font-family="sans-serif" font-size="14" lengthAdjust="spacing" textLength="170" x="707" y="717.7183">budgetedAmount:Money</text><line style="stroke:#181818;stroke-width:0.5;" x1="702" x2="1039" y1="724.6714" y2="724.6714"/></g><g id="elem_ControlAccountReference"><rect codeLine="27" fill="#F1F1F1" height="146.9297" id="ControlAccountReference" rx="2.5" ry="2.5" style="stroke:#181818;stroke-width:0.5;" width="254" x="457.5" y="288.13"/><ellipse cx="493.2" cy="304.13" fill="#ADD1B2" rx="11" ry="11" style="stroke:#181818;stroke-width:1.0;"/><path d="M495.6731,310.2731 Q495.0921,310.5719 494.4529,310.7213 Q493.8138,310.8707 493.1082,310.8707 Q490.6014,310.8707 489.2815,309.2189 Q487.9617,307.567 487.9617,304.4459 Q487.9617,301.3165 489.2815,299.6647 Q490.6014,298.0128 493.1082,298.0128 Q493.8138,298.0128 494.4612,298.1622 Q495.1087,298.3116 495.6731,298.6105 L495.6731,301.3331 Q495.0423,300.7521 494.4488,300.4823 Q493.8553,300.2125 493.2244,300.2125 Q491.8797,300.2125 491.1949,301.2792 Q490.5101,302.3458 490.5101,304.4459 Q490.5101,306.5377 491.1949,307.6044 Q491.8797,308.671 493.2244,308.671 Q493.8553,308.671 494.4488,308.4012 Q495.0423,308.1315 495.6731,307.5504 Z " fill="#000000"/><text fill="#000000" font-family="sans-serif" font-size="14" lengthAdjust="spacing" textLength="176" x="511.8" y="309.421">ControlAccountReference</text><line style="stroke:#181818;stroke-width:0.5;" x1="458.5" x2="710.5" y1="320.13" y2="320.13"/><text fill="#000000" font-family="sans-serif" font-size="14" lengthAdjust="spacing" textLength="231" x="463.5" y="337.6652">controlAccountReferenceId:String</text><text fill="#000000" font-family="sans-serif" font-size="14" lengthAdjust="spacing" textLength="242" x="463.5" y="354.1534">controlAccountReferenceKey:String</text><text fill="#000000" font-family="sans-serif" font-size="14" lengthAdjust="spacing" textLength="174" x="463.5" y="370.6417">controlAccountKey:String</text><text fill="#000000" font-family="sans-serif" font-size="14" lengthAdjust="spacing" textLength="97" x="463.5" y="387.13">context:String</text><text fill="#000000" font-family="sans-serif" font-size="14" lengthAdjust="spacing" textLength="171" x="463.5" y="403.6183">controlAccount:Identifier</text><text fill="#000000" font-family="sans-serif" font-size="14" lengthAdjust="spacing" textLength="176" x="463.5" y="420.1066">occurrenceDateTime:Date</text><line style="stroke:#181818;stroke-width:0.5;" x1="458.5" x2="710.5" y1="427.0597" y2="427.0597"/></g><g id="elem_GeneralLedgerReference"><rect codeLine="35" fill="#F1F1F1" height="146.9297" id="GeneralLedgerReference" rx="2.5" ry="2.5" style="stroke:#181818;stroke-width:0.5;" width="248" x="746.5" y="288.13"/><ellipse cx="783.1" cy="304.13" fill="#ADD1B2" rx="11" ry="11" style="stroke:#181818;stroke-width:1.0;"/><path d="M785.5731,310.2731 Q784.9921,310.5719 784.3529,310.7213 Q783.7138,310.8707 783.0082,310.8707 Q780.5014,310.8707 779.1815,309.2189 Q777.8617,307.567 777.8617,304.4459 Q777.8617,301.3165 779.1815,299.6647 Q780.5014,298.0128 783.0082,298.0128 Q783.7138,298.0128 784.3612,298.1622 Q785.0087,298.3116 785.5731,298.6105 L785.5731,301.3331 Q784.9423,300.7521 784.3488,300.4823 Q783.7553,300.2125 783.1244,300.2125 Q781.7797,300.2125 781.0949,301.2792 Q780.4101,302.3458 780.4101,304.4459 Q780.4101,306.5377 781.0949,307.6044 Q781.7797,308.671 783.1244,308.671 Q783.7553,308.671 784.3488,308.4012 Q784.9423,308.1315 785.5731,307.5504 Z " fill="#000000"/><text fill="#000000" font-family="sans-serif" font-size="14" lengthAdjust="spacing" textLength="168" x="801.9" y="309.421">GeneralLedgerReference</text><line style="stroke:#181818;stroke-width:0.5;" x1="747.5" x2="993.5" y1="320.13" y2="320.13"/><text fill="#000000" font-family="sans-serif" font-size="14" lengthAdjust="spacing" textLength="225" x="752.5" y="337.6652">generalLedgerReferenceId:String</text><text fill="#000000" font-family="sans-serif" font-size="14" lengthAdjust="spacing" textLength="236" x="752.5" y="354.1534">generalLedgerReferenceKey:String</text><text fill="#000000" font-family="sans-serif" font-size="14" lengthAdjust="spacing" textLength="168" x="752.5" y="370.6417">generalLedgerKey:String</text><text fill="#000000" font-family="sans-serif" font-size="14" lengthAdjust="spacing" textLength="97" x="752.5" y="387.13">context:String</text><text fill="#000000" font-family="sans-serif" font-size="14" lengthAdjust="spacing" textLength="227" x="752.5" y="403.6183">generalLedgerIdentifier:Identifier</text><text fill="#000000" font-family="sans-serif" font-size="14" lengthAdjust="spacing" textLength="176" x="752.5" y="420.1066">occurrenceDateTime:Date</text><line style="stroke:#181818;stroke-width:0.5;" x1="747.5" x2="993.5" y1="427.0597" y2="427.0597"/></g><g id="elem_Identifier"><rect codeLine="43" fill="#F1F1F1" height="146.9297" id="Identifier" rx="2.5" ry="2.5" style="stroke:#181818;stroke-width:0.5;" width="152" x="508.5" y="15.25"/><ellipse cx="549.6" cy="31.25" fill="#ADD1B2" rx="11" ry="11" style="stroke:#181818;stroke-width:1.0;"/><path d="M552.0731,37.3931 Q551.4921,37.6919 550.8529,37.8413 Q550.2138,37.9907 549.5082,37.9907 Q547.0014,37.9907 545.6815,36.3389 Q544.3617,34.687 544.3617,31.5659 Q544.3617,28.4365 545.6815,26.7847 Q547.0014,25.1328 549.5082,25.1328 Q550.2138,25.1328 550.8612,25.2822 Q551.5087,25.4316 552.0731,25.7305 L552.0731,28.4531 Q551.4423,27.8721 550.8488,27.6023 Q550.2553,27.3325 549.6244,27.3325 Q548.2797,27.3325 547.5949,28.3992 Q546.9101,29.4658 546.9101,31.5659 Q546.9101,33.6577 547.5949,34.7244 Q548.2797,35.791 549.6244,35.791 Q550.2553,35.791 550.8488,35.5212 Q551.4423,35.2515 552.0731,34.6704 Z " fill="#000000"/><text fill="#000000" font-family="sans-serif" font-size="14" lengthAdjust="spacing" textLength="62" x="569.4" y="36.541">Identifier</text><line style="stroke:#181818;stroke-width:0.5;" x1="509.5" x2="659.5" y1="47.25" y2="47.25"/><text fill="#000000" font-family="sans-serif" font-size="14" lengthAdjust="spacing" textLength="120" x="514.5" y="64.7852">identifierId:String</text><text fill="#000000" font-family="sans-serif" font-size="14" lengthAdjust="spacing" textLength="131" x="514.5" y="81.2734">identifierKey:String</text><text fill="#000000" font-family="sans-serif" font-size="14" lengthAdjust="spacing" textLength="97" x="514.5" y="97.7617">context:String</text><text fill="#000000" font-family="sans-serif" font-size="14" lengthAdjust="spacing" textLength="81" x="514.5" y="114.25">value:String</text><text fill="#000000" font-family="sans-serif" font-size="14" lengthAdjust="spacing" textLength="83" x="514.5" y="130.7383">detail:String</text><text fill="#000000" font-family="sans-serif" font-size="14" lengthAdjust="spacing" textLength="140" x="514.5" y="147.2266">identifierType:String</text><line style="stroke:#181818;stroke-width:0.5;" x1="509.5" x2="659.5" y1="154.1797" y2="154.1797"/></g><g id="elem_Money"><rect codeLine="51" fill="#F1F1F1" height="146.9297" id="Money" rx="2.5" ry="2.5" style="stroke:#181818;stroke-width:0.5;" width="152" x="1029.5" y="288.13"/><ellipse cx="1078.75" cy="304.13" fill="#ADD1B2" rx="11" ry="11" style="stroke:#181818;stroke-width:1.0;"/><path d="M1081.2231,310.2731 Q1080.6421,310.5719 1080.0029,310.7213 Q1079.3638,310.8707 1078.6582,310.8707 Q1076.1514,310.8707 1074.8315,309.2189 Q1073.5117,307.567 1073.5117,304.4459 Q1073.5117,301.3165 1074.8315,299.6647 Q1076.1514,298.0128 1078.6582,298.0128 Q1079.3638,298.0128 1080.0112,298.1622 Q1080.6587,298.3116 1081.2231,298.6105 L1081.2231,301.3331 Q1080.5923,300.7521 1079.9988,300.4823 Q1079.4053,300.2125 1078.7744,300.2125 Q1077.4297,300.2125 1076.7449,301.2792 Q1076.0601,302.3458 1076.0601,304.4459 Q1076.0601,306.5377 1076.7449,307.6044 Q1077.4297,308.671 1078.7744,308.671 Q1079.4053,308.671 1079.9988,308.4012 Q1080.5923,308.1315 1081.2231,307.5504 Z " fill="#000000"/><text fill="#000000" font-family="sans-serif" font-size="14" lengthAdjust="spacing" textLength="45" x="1099.25" y="309.421">Money</text><line style="stroke:#181818;stroke-width:0.5;" x1="1030.5" x2="1180.5" y1="320.13" y2="320.13"/><text fill="#000000" font-family="sans-serif" font-size="14" lengthAdjust="spacing" textLength="115" x="1035.5" y="337.6652">moneyKey:String</text><text fill="#000000" font-family="sans-serif" font-size="14" lengthAdjust="spacing" textLength="104" x="1035.5" y="354.1534">moneyId:String</text><text fill="#000000" font-family="sans-serif" font-size="14" lengthAdjust="spacing" textLength="140" x="1035.5" y="370.6417">currencyCode:String</text><text fill="#000000" font-family="sans-serif" font-size="14" lengthAdjust="spacing" textLength="131" x="1035.5" y="387.13">displayValue:String</text><text fill="#000000" font-family="sans-serif" font-size="14" lengthAdjust="spacing" textLength="85" x="1035.5" y="403.6183">locale:String</text><text fill="#000000" font-family="sans-serif" font-size="14" lengthAdjust="spacing" textLength="81" x="1035.5" y="420.1066">value:String</text><line style="stroke:#181818;stroke-width:0.5;" x1="1030.5" x2="1180.5" y1="427.0597" y2="427.0597"/></g><g id="elem_AccountingPeriodStatusTypes"><rect codeLine="59" fill="#FAFF91" height="163.418" id="AccountingPeriodStatusTypes" rx="2.5" ry="2.5" style="stroke:#181818;stroke-width:0.5;" width="236" x="96.5" y="7"/><ellipse cx="111.5" cy="23" fill="#ADD1B2" rx="11" ry="11" style="stroke:#181818;stroke-width:1.0;"/><path d="M113.9731,29.1431 Q113.3921,29.4419 112.7529,29.5913 Q112.1138,29.7407 111.4082,29.7407 Q108.9014,29.7407 107.5815,28.0889 Q106.2617,26.437 106.2617,23.3159 Q106.2617,20.1865 107.5815,18.5347 Q108.9014,16.8828 111.4082,16.8828 Q112.1138,16.8828 112.7612,17.0322 Q113.4087,17.1816 113.9731,17.4805 L113.9731,20.2031 Q113.3423,19.6221 112.7488,19.3523 Q112.1553,19.0825 111.5244,19.0825 Q110.1797,19.0825 109.4949,20.1492 Q108.8101,21.2158 108.8101,23.3159 Q108.8101,25.4077 109.4949,26.4744 Q110.1797,27.541 111.5244,27.541 Q112.1553,27.541 112.7488,27.2712 Q113.3423,27.0015 113.9731,26.4204 Z " fill="#000000"/><text fill="#000000" font-family="sans-serif" font-size="14" lengthAdjust="spacing" textLength="204" x="125.5" y="28.291">AccountingPeriodStatusTypes</text><line style="stroke:#181818;stroke-width:0.5;" x1="97.5" x2="331.5" y1="39" y2="39"/><text fill="#000000" font-family="sans-serif" font-size="14" lengthAdjust="spacing" textLength="90" x="102.5" y="56.5352">ADJUSTMENT</text><text fill="#000000" font-family="sans-serif" font-size="14" lengthAdjust="spacing" textLength="54" x="102.5" y="73.0234">CLOSED</text><text fill="#000000" font-family="sans-serif" font-size="14" lengthAdjust="spacing" textLength="54" x="102.5" y="89.5117">FUTURE</text><text fill="#000000" font-family="sans-serif" font-size="14" lengthAdjust="spacing" textLength="55" x="102.5" y="106">LOCKED</text><text fill="#000000" font-family="sans-serif" font-size="14" lengthAdjust="spacing" textLength="37" x="102.5" y="122.4883">OPEN</text><text fill="#000000" font-family="sans-serif" font-size="14" lengthAdjust="spacing" textLength="47" x="102.5" y="138.9766">OTHER</text><text fill="#000000" font-family="sans-serif" font-size="14" lengthAdjust="spacing" textLength="130" x="102.5" y="155.4648">PENDING_CLOSURE</text><line style="stroke:#181818;stroke-width:0.5;" x1="97.5" x2="331.5" y1="162.418" y2="162.418"/></g><g id="elem_BudgetStatusTypes"><rect codeLine="68" fill="#FAFF91" height="229.3711" id="BudgetStatusTypes" rx="2.5" ry="2.5" style="stroke:#181818;stroke-width:0.5;" width="162" x="1074.5" y="552.77"/><ellipse cx="1089.5" cy="568.77" fill="#ADD1B2" rx="11" ry="11" style="stroke:#181818;stroke-width:1.0;"/><path d="M1091.9731,574.9131 Q1091.3921,575.2119 1090.7529,575.3613 Q1090.1138,575.5107 1089.4082,575.5107 Q1086.9014,575.5107 1085.5815,573.8589 Q1084.2617,572.207 1084.2617,569.0859 Q1084.2617,565.9565 1085.5815,564.3047 Q1086.9014,562.6528 1089.4082,562.6528 Q1090.1138,562.6528 1090.7612,562.8022 Q1091.4087,562.9516 1091.9731,563.2505 L1091.9731,565.9731 Q1091.3423,565.3921 1090.7488,565.1223 Q1090.1553,564.8525 1089.5244,564.8525 Q1088.1797,564.8525 1087.4949,565.9192 Q1086.8101,566.9858 1086.8101,569.0859 Q1086.8101,571.1777 1087.4949,572.2444 Q1088.1797,573.311 1089.5244,573.311 Q1090.1553,573.311 1090.7488,573.0412 Q1091.3423,572.7715 1091.9731,572.1904 Z " fill="#000000"/><text fill="#000000" font-family="sans-serif" font-size="14" lengthAdjust="spacing" textLength="130" x="1103.5" y="574.061">BudgetStatusTypes</text><line style="stroke:#181818;stroke-width:0.5;" x1="1075.5" x2="1235.5" y1="584.77" y2="584.77"/><text fill="#000000" font-family="sans-serif" font-size="14" lengthAdjust="spacing" textLength="50" x="1080.5" y="602.3052">ACTIVE</text><text fill="#000000" font-family="sans-serif" font-size="14" lengthAdjust="spacing" textLength="73" x="1080.5" y="618.7934">APPROVED</text><text fill="#000000" font-family="sans-serif" font-size="14" lengthAdjust="spacing" textLength="54" x="1080.5" y="635.2817">CLOSED</text><text fill="#000000" font-family="sans-serif" font-size="14" lengthAdjust="spacing" textLength="46" x="1080.5" y="651.77">DRAFT</text><text fill="#000000" font-family="sans-serif" font-size="14" lengthAdjust="spacing" textLength="56" x="1080.5" y="668.2583">EXPIRED</text><text fill="#000000" font-family="sans-serif" font-size="14" lengthAdjust="spacing" textLength="47" x="1080.5" y="684.7466">OTHER</text><text fill="#000000" font-family="sans-serif" font-size="14" lengthAdjust="spacing" textLength="139" x="1080.5" y="701.2348">PENDING_APPROVAL</text><text fill="#000000" font-family="sans-serif" font-size="14" lengthAdjust="spacing" textLength="66" x="1080.5" y="717.7231">REJECTED</text><text fill="#000000" font-family="sans-serif" font-size="14" lengthAdjust="spacing" textLength="56" x="1080.5" y="734.2114">REVISED</text><text fill="#000000" font-family="sans-serif" font-size="14" lengthAdjust="spacing" textLength="78" x="1080.5" y="750.6997">SUBMITTED</text><text fill="#000000" font-family="sans-serif" font-size="14" lengthAdjust="spacing" textLength="52" x="1080.5" y="767.188">VOIDED</text><line style="stroke:#181818;stroke-width:0.5;" x1="1075.5" x2="1235.5" y1="774.1411" y2="774.1411"/></g><g id="elem_FinancialCategoryTypes"><rect codeLine="81" fill="#FAFF91" height="262.3477" id="FinancialCategoryTypes" rx="2.5" ry="2.5" style="stroke:#181818;stroke-width:0.5;" width="195" x="1216" y="230.42"/><ellipse cx="1231" cy="246.42" fill="#ADD1B2" rx="11" ry="11" style="stroke:#181818;stroke-width:1.0;"/><path d="M1233.4731,252.5631 Q1232.8921,252.8619 1232.2529,253.0113 Q1231.6138,253.1607 1230.9082,253.1607 Q1228.4014,253.1607 1227.0815,251.5089 Q1225.7617,249.857 1225.7617,246.7359 Q1225.7617,243.6065 1227.0815,241.9547 Q1228.4014,240.3028 1230.9082,240.3028 Q1231.6138,240.3028 1232.2612,240.4522 Q1232.9087,240.6016 1233.4731,240.9005 L1233.4731,243.6231 Q1232.8423,243.0421 1232.2488,242.7723 Q1231.6553,242.5025 1231.0244,242.5025 Q1229.6797,242.5025 1228.9949,243.5692 Q1228.3101,244.6358 1228.3101,246.7359 Q1228.3101,248.8277 1228.9949,249.8944 Q1229.6797,250.961 1231.0244,250.961 Q1231.6553,250.961 1232.2488,250.6912 Q1232.8423,250.4215 1233.4731,249.8404 Z " fill="#000000"/><text fill="#000000" font-family="sans-serif" font-size="14" lengthAdjust="spacing" textLength="163" x="1245" y="251.711">FinancialCategoryTypes</text><line style="stroke:#181818;stroke-width:0.5;" x1="1217" x2="1410" y1="262.42" y2="262.42"/><text fill="#000000" font-family="sans-serif" font-size="14" lengthAdjust="spacing" textLength="45" x="1222" y="279.9552">CAPEX</text><text fill="#000000" font-family="sans-serif" font-size="14" lengthAdjust="spacing" textLength="78" x="1222" y="296.4434">HARDWARE</text><text fill="#000000" font-family="sans-serif" font-size="14" lengthAdjust="spacing" textLength="101" x="1222" y="312.9317">MAINTENANCE</text><text fill="#000000" font-family="sans-serif" font-size="14" lengthAdjust="spacing" textLength="36" x="1222" y="329.42">OPEX</text><text fill="#000000" font-family="sans-serif" font-size="14" lengthAdjust="spacing" textLength="47" x="1222" y="345.9083">OTHER</text><text fill="#000000" font-family="sans-serif" font-size="14" lengthAdjust="spacing" textLength="36" x="1222" y="362.3966">RENT</text><text fill="#000000" font-family="sans-serif" font-size="14" lengthAdjust="spacing" textLength="62" x="1222" y="378.8848">REVENUE</text><text fill="#000000" font-family="sans-serif" font-size="14" lengthAdjust="spacing" textLength="53" x="1222" y="395.3731">SALARY</text><text fill="#000000" font-family="sans-serif" font-size="14" lengthAdjust="spacing" textLength="75" x="1222" y="411.8614">SOFTWARE</text><text fill="#000000" font-family="sans-serif" font-size="14" lengthAdjust="spacing" textLength="28" x="1222" y="428.3497">TAX</text><text fill="#000000" font-family="sans-serif" font-size="14" lengthAdjust="spacing" textLength="66" x="1222" y="444.838">TRAINING</text><text fill="#000000" font-family="sans-serif" font-size="14" lengthAdjust="spacing" textLength="52" x="1222" y="461.3263">TRAVEL</text><text fill="#000000" font-family="sans-serif" font-size="14" lengthAdjust="spacing" textLength="63" x="1222" y="477.8145">UTILITIES</text><line style="stroke:#181818;stroke-width:0.5;" x1="1217" x2="1410" y1="484.7677" y2="484.7677"/></g><g id="link_AccountingPeriod_Budget"><path codeLine="96" d="M316.79,460.23 C409.88,547.59 552.38,677.6 683.5,782.14 C708.7,802.23 736.67,822.87 763.14,841.7 " fill="none" id="AccountingPeriod-Budget" style="stroke:#181818;stroke-width:1.0;"/></g><g id="link_AccountingPeriodStatusTypes_AccountingPeriod"><path codeLine="97" d="M214.5,170.62 C214.5,199.77 214.5,232.97 214.5,263.37 " fill="none" id="AccountingPeriodStatusTypes-AccountingPeriod" style="stroke:#181818;stroke-width:1.0;"/></g><g id="link_BudgetItem_Budget"><path codeLine="98" d="M870.5,745.13 C870.5,778.46 870.5,807.23 870.5,841.68 " fill="none" id="BudgetItem-backto-Budget" style="stroke:#181818;stroke-width:1.0;"/><polygon fill="#181818" points="870.5,733.13,866.5,739.13,870.5,745.13,874.5,739.13,870.5,733.13" style="stroke:#181818;stroke-width:1.0;"/></g><g id="link_BudgetStatusTypes_Budget"><path codeLine="99" d="M1074.18,766.1 C1068.67,771.67 1063.09,777.06 1057.5,782.14 C1034.54,803.02 1008.21,823.47 982.7,841.82 " fill="none" id="BudgetStatusTypes-Budget" style="stroke:#181818;stroke-width:1.0;"/></g><g id="link_ControlAccountReference_BudgetItem"><path codeLine="100" d="M653,435.38 C700.68,486.03 763.68,552.97 809.6,601.76 " fill="none" id="ControlAccountReference-BudgetItem" style="stroke:#181818;stroke-width:1.0;"/></g><g id="link_FinancialCategoryTypes_BudgetItem"><path codeLine="101" d="M1215.81,479.12 C1210.15,483.95 1204.37,488.54 1198.5,492.77 C1143.26,532.6 1118.09,521.67 1057.5,552.77 C1028.77,567.52 998.5,585.01 970.89,601.79 " fill="none" id="FinancialCategoryTypes-BudgetItem" style="stroke:#181818;stroke-width:1.0;"/></g><g id="link_GeneralLedgerReference_BudgetItem"><path codeLine="102" d="M870.5,435.38 C870.5,486.03 870.5,552.97 870.5,601.76 " fill="none" id="GeneralLedgerReference-BudgetItem" style="stroke:#181818;stroke-width:1.0;"/></g><g id="link_Identifier_ControlAccountReference"><path codeLine="103" d="M584.5,162.66 C584.5,201.52 584.5,249.18 584.5,287.99 " fill="none" id="Identifier-ControlAccountReference" style="stroke:#181818;stroke-width:1.0;"/></g><g id="link_Identifier_GeneralLedgerReference"><path codeLine="104" d="M660.77,161.95 C701.97,200.97 752.7,249.02 793.95,288.09 " fill="none" id="Identifier-GeneralLedgerReference" style="stroke:#181818;stroke-width:1.0;"/></g><g id="link_Identifier_AccountingPeriod"><path codeLine="105" d="M498.5977,152.5989 C452.3777,186.4389 401.79,223.48 347.87,262.95 " fill="none" id="Identifier-backto-AccountingPeriod" style="stroke:#181818;stroke-width:1.0;"/><polygon fill="#181818" points="508.28,145.51,501.0759,145.827,498.5977,152.5989,505.8018,152.2819,508.28,145.51" style="stroke:#181818;stroke-width:1.0;"/></g><g id="link_Money_BudgetItem"><path codeLine="106" d="M1054.01,435.43 C1040.4,454.26 1025.57,474.4 1011.5,492.77 C983.39,529.46 950.95,569.57 924.28,601.99 " fill="none" id="Money-BudgetItem" style="stroke:#181818;stroke-width:1.0;"/></g></g></svg>