<?xml version="1.0" encoding="us-ascii" standalone="no"?><svg xmlns="http://www.w3.org/2000/svg" xmlns:xlink="http://www.w3.org/1999/xlink" contentStyleType="text/css" height="242px" preserveAspectRatio="none" style="width:1316px;height:242px;background:#FFFFFF;" version="1.1" viewBox="0 0 1316 242" width="1316px" zoomAndPan="magnify"><defs/><g><g id="elem_AccountingPeriod"><rect fill="#F1F1F1" height="36.4883" rx="2.5" ry="2.5" style="stroke:#181818;stroke-width:0.5;" width="142" x="266" y="103.48"/><text fill="#000000" font-family="sans-serif" font-size="14" lengthAdjust="spacing" textLength="122" x="276" y="127.0152">AccountingPeriod</text></g><g id="elem_BudgetVarianceLineItem"><rect fill="#F1F1F1" height="36.4883" rx="2.5" ry="2.5" style="stroke:#181818;stroke-width:0.5;" width="185" x="822.5" y="199.97"/><text fill="#000000" font-family="sans-serif" font-size="14" lengthAdjust="spacing" textLength="165" x="832.5" y="223.5052">BudgetVarianceLineItem</text></g><g id="elem_BudgetVarianceReport"><rect fill="#F1F1F1" height="36.4883" rx="2.5" ry="2.5" style="stroke:#181818;stroke-width:0.5;" width="173" x="141.5" y="199.97"/><text fill="#000000" font-family="sans-serif" font-size="14" lengthAdjust="spacing" textLength="153" x="151.5" y="223.5052">BudgetVarianceReport</text></g><g id="elem_BudgetVarianceReportCriteria"><rect fill="#F1F1F1" height="36.4883" rx="2.5" ry="2.5" style="stroke:#181818;stroke-width:0.5;" width="224" x="7" y="103.48"/><text fill="#000000" font-family="sans-serif" font-size="14" lengthAdjust="spacing" textLength="204" x="17" y="127.0152">BudgetVarianceReportCriteria</text></g><g id="elem_ControlAccountReference"><rect fill="#F1F1F1" height="36.4883" rx="2.5" ry="2.5" style="stroke:#181818;stroke-width:0.5;" width="196" x="443" y="103.48"/><text fill="#000000" font-family="sans-serif" font-size="14" lengthAdjust="spacing" textLength="176" x="453" y="127.0152">ControlAccountReference</text></g><g id="elem_GeneralLedgerReference"><rect fill="#F1F1F1" height="36.4883" rx="2.5" ry="2.5" style="stroke:#181818;stroke-width:0.5;" width="188" x="674" y="103.48"/><text fill="#000000" font-family="sans-serif" font-size="14" lengthAdjust="spacing" textLength="168" x="684" y="127.0152">GeneralLedgerReference</text></g><g id="elem_Identifier"><rect fill="#F1F1F1" height="36.4883" rx="2.5" ry="2.5" style="stroke:#181818;stroke-width:0.5;" width="82" x="500" y="7"/><text fill="#000000" font-family="sans-serif" font-size="14" lengthAdjust="spacing" textLength="62" x="510" y="30.5352">Identifier</text></g><g id="elem_Money"><rect fill="#F1F1F1" height="36.4883" rx="2.5" ry="2.5" style="stroke:#181818;stroke-width:0.5;" width="65" x="939.5" y="7"/><text fill="#000000" font-family="sans-serif" font-size="14" lengthAdjust="spacing" textLength="45" x="949.5" y="30.5352">Money</text></g><g id="elem_VarianceDetails"><rect fill="#F1F1F1" height="36.4883" rx="2.5" ry="2.5" style="stroke:#181818;stroke-width:0.5;" width="125" x="967.5" y="103.48"/><text fill="#000000" font-family="sans-serif" font-size="14" lengthAdjust="spacing" textLength="105" x="977.5" y="127.0152">VarianceDetails</text></g><g id="elem_AccountingPeriodStatusTypes"><rect fill="#FAFF91" height="36.4883" rx="2.5" ry="2.5" style="stroke:#181818;stroke-width:0.5;" width="224" x="225" y="7"/><text fill="#000000" font-family="sans-serif" font-size="14" lengthAdjust="spacing" textLength="204" x="235" y="30.5352">AccountingPeriodStatusTypes</text></g><g id="elem_FinancialCategoryTypes"><rect fill="#FAFF91" height="36.4883" rx="2.5" ry="2.5" style="stroke:#181818;stroke-width:0.5;" width="183" x="1127.5" y="103.48"/><text fill="#000000" font-family="sans-serif" font-size="14" lengthAdjust="spacing" textLength="163" x="1137.5" y="127.0152">FinancialCategoryTypes</text></g><g id="link_AccountingPeriod_BudgetVarianceReport"><path d="M316.75,140.28 C297.18,157.25 267.68,182.82 248.14,199.76 " fill="none" id="AccountingPeriod-BudgetVarianceReport" style="stroke:#181818;stroke-width:1.0;"/></g><g id="link_AccountingPeriodStatusTypes_AccountingPeriod"><path d="M337,43.57 C337,60.51 337,86.17 337,103.19 " fill="none" id="AccountingPeriodStatusTypes-AccountingPeriod" style="stroke:#181818;stroke-width:1.0;"/></g><g id="link_BudgetVarianceReportCriteria_BudgetVarianceReport"><path d="M139.25,140.28 C158.82,157.25 188.32,182.82 207.86,199.76 " fill="none" id="BudgetVarianceReportCriteria-BudgetVarianceReport" style="stroke:#181818;stroke-width:1.0;"/></g><g id="link_ControlAccountReference_BudgetVarianceLineItem"><path d="M610.91,140.39 C677.72,157.27 777.89,182.58 844.8,199.48 " fill="none" id="ControlAccountReference-BudgetVarianceLineItem" style="stroke:#181818;stroke-width:1.0;"/></g><g id="link_FinancialCategoryTypes_BudgetVarianceLineItem"><path d="M1162.18,140.39 C1107.87,157.27 1026.44,182.58 972.06,199.48 " fill="none" id="FinancialCategoryTypes-BudgetVarianceLineItem" style="stroke:#181818;stroke-width:1.0;"/></g><g id="link_GeneralLedgerReference_BudgetVarianceLineItem"><path d="M795.31,140.28 C821.71,157.25 861.49,182.82 887.84,199.76 " fill="none" id="GeneralLedgerReference-BudgetVarianceLineItem" style="stroke:#181818;stroke-width:1.0;"/></g><g id="link_Identifier_ControlAccountReference"><path d="M541,43.57 C541,60.51 541,86.17 541,103.19 " fill="none" id="Identifier-ControlAccountReference" style="stroke:#181818;stroke-width:1.0;"/></g><g id="link_Identifier_GeneralLedgerReference"><path d="M582.37,43.46 C622.91,60.33 684.41,85.93 725.37,102.98 " fill="none" id="Identifier-GeneralLedgerReference" style="stroke:#181818;stroke-width:1.0;"/></g><g id="link_Identifier_AccountingPeriod"><path d="M492.2213,48.8334 C455.6913,65.7534 411.61,86.17 375.04,103.11 " fill="none" id="Identifier-backto-AccountingPeriod" style="stroke:#181818;stroke-width:1.0;"/><polygon fill="#181818" points="503.11,43.79,495.9845,42.6822,492.2213,48.8334,499.3468,49.9413,503.11,43.79" style="stroke:#181818;stroke-width:1.0;"/></g><g id="link_Money_BudgetVarianceLineItem"><path d="M966.74,43.86 C955.88,80.25 931.1,163.29 920.25,199.63 " fill="none" id="Money-BudgetVarianceLineItem" style="stroke:#181818;stroke-width:1.0;"/></g><g id="link_Money_VarianceDetails"><path d="M982.64,43.57 C993.04,60.51 1008.79,86.17 1019.23,103.19 " fill="none" id="Money-VarianceDetails" style="stroke:#181818;stroke-width:1.0;"/></g><g id="link_VarianceDetails_BudgetVarianceLineItem"><path d="M1008.64,140.28 C987.98,157.25 956.86,182.82 936.25,199.76 " fill="none" id="VarianceDetails-BudgetVarianceLineItem" style="stroke:#181818;stroke-width:1.0;"/></g></g></svg>