<?xml version="1.0" encoding="us-ascii" standalone="no"?><svg xmlns="http://www.w3.org/2000/svg" xmlns:xlink="http://www.w3.org/1999/xlink" contentStyleType="text/css" height="690px" preserveAspectRatio="none" style="width:747px;height:690px;background:#FFFFFF;" version="1.1" viewBox="0 0 747 690" width="747px" zoomAndPan="magnify"><defs/><g><g id="elem_FinancialSnapshot"><rect codeLine="1" fill="#F1F1F1" height="130.4414" id="FinancialSnapshot" rx="2.5" ry="2.5" style="stroke:#181818;stroke-width:0.5;" width="276" x="194" y="552.77"/><ellipse cx="265.25" cy="568.77" fill="#ADD1B2" rx="11" ry="11" style="stroke:#181818;stroke-width:1.0;"/><path d="M267.7231,574.9131 Q267.1421,575.2119 266.5029,575.3613 Q265.8638,575.5107 265.1582,575.5107 Q262.6514,575.5107 261.3315,573.8589 Q260.0117,572.207 260.0117,569.0859 Q260.0117,565.9565 261.3315,564.3047 Q262.6514,562.6528 265.1582,562.6528 Q265.8638,562.6528 266.5112,562.8022 Q267.1587,562.9516 267.7231,563.2505 L267.7231,565.9731 Q267.0923,565.3921 266.4988,565.1223 Q265.9053,564.8525 265.2744,564.8525 Q263.9297,564.8525 263.2449,565.9192 Q262.5601,566.9858 262.5601,569.0859 Q262.5601,571.1777 263.2449,572.2444 Q263.9297,573.311 265.2744,573.311 Q265.9053,573.311 266.4988,573.0412 Q267.0923,572.7715 267.7231,572.1904 Z " fill="#000000"/><text fill="#000000" font-family="sans-serif" font-size="14" lengthAdjust="spacing" textLength="125" x="285.75" y="574.061">FinancialSnapshot</text><line style="stroke:#181818;stroke-width:0.5;" x1="195" x2="469" y1="584.77" y2="584.77"/><text fill="#000000" font-family="sans-serif" font-size="14" lengthAdjust="spacing" textLength="180" x="200" y="602.3052">financialSnapshotId:String</text><text fill="#000000" font-family="sans-serif" font-size="14" lengthAdjust="spacing" textLength="191" x="200" y="618.7934">financialSnapshotKey:String</text><text fill="#000000" font-family="sans-serif" font-size="14" lengthAdjust="spacing" textLength="97" x="200" y="635.2817">asOfDate:Date</text><text fill="#000000" font-family="sans-serif" font-size="14" lengthAdjust="spacing" textLength="228" x="200" y="651.77">criteria:FinancialSnapshotCriteria</text><text fill="#000000" font-family="sans-serif" font-size="14" lengthAdjust="spacing" textLength="264" x="200" y="668.2583">lines:List&lt;FinancialSnapshotLineItem&gt;</text><line style="stroke:#181818;stroke-width:0.5;" x1="195" x2="469" y1="675.2114" y2="675.2114"/></g><g id="elem_FinancialSnapshotCriteria"><rect codeLine="8" fill="#F1F1F1" height="163.418" id="FinancialSnapshotCriteria" rx="2.5" ry="2.5" style="stroke:#181818;stroke-width:0.5;" width="300" x="7" y="329.35"/><ellipse cx="64.75" cy="345.35" fill="#ADD1B2" rx="11" ry="11" style="stroke:#181818;stroke-width:1.0;"/><path d="M67.2231,351.4931 Q66.6421,351.7919 66.0029,351.9413 Q65.3638,352.0907 64.6582,352.0907 Q62.1514,352.0907 60.8315,350.4389 Q59.5117,348.787 59.5117,345.6659 Q59.5117,342.5365 60.8315,340.8847 Q62.1514,339.2328 64.6582,339.2328 Q65.3638,339.2328 66.0112,339.3822 Q66.6587,339.5316 67.2231,339.8305 L67.2231,342.5531 Q66.5923,341.9721 65.9988,341.7023 Q65.4053,341.4325 64.7744,341.4325 Q63.4297,341.4325 62.7449,342.4992 Q62.0601,343.5658 62.0601,345.6659 Q62.0601,347.7577 62.7449,348.8244 Q63.4297,349.891 64.7744,349.891 Q65.4053,349.891 65.9988,349.6212 Q66.5923,349.3515 67.2231,348.7704 Z " fill="#000000"/><text fill="#000000" font-family="sans-serif" font-size="14" lengthAdjust="spacing" textLength="176" x="85.25" y="350.641">FinancialSnapshotCriteria</text><line style="stroke:#181818;stroke-width:0.5;" x1="8" x2="306" y1="361.35" y2="361.35"/><text fill="#000000" font-family="sans-serif" font-size="14" lengthAdjust="spacing" textLength="231" x="13" y="378.8852">financialSnapshotCriteriaId:String</text><text fill="#000000" font-family="sans-serif" font-size="14" lengthAdjust="spacing" textLength="242" x="13" y="395.3734">financialSnapshotCriteriaKey:String</text><text fill="#000000" font-family="sans-serif" font-size="14" lengthAdjust="spacing" textLength="146" x="13" y="411.8617">organizationId:String</text><text fill="#000000" font-family="sans-serif" font-size="14" lengthAdjust="spacing" textLength="288" x="13" y="428.35">financialReportType:FinancialReportTypes</text><text fill="#000000" font-family="sans-serif" font-size="14" lengthAdjust="spacing" textLength="97" x="13" y="444.8383">asOfDate:Date</text><text fill="#000000" font-family="sans-serif" font-size="14" lengthAdjust="spacing" textLength="147" x="13" y="461.3266">comparisonDate:Date</text><text fill="#000000" font-family="sans-serif" font-size="14" lengthAdjust="spacing" textLength="173" x="13" y="477.8148">glAccountFilterKey:String</text><line style="stroke:#181818;stroke-width:0.5;" x1="8" x2="306" y1="484.768" y2="484.768"/></g><g id="elem_FinancialSnapshotLineItem"><rect codeLine="17" fill="#F1F1F1" height="146.9297" id="FinancialSnapshotLineItem" rx="2.5" ry="2.5" style="stroke:#181818;stroke-width:0.5;" width="332" x="342" y="337.59"/><ellipse cx="412.25" cy="353.59" fill="#ADD1B2" rx="11" ry="11" style="stroke:#181818;stroke-width:1.0;"/><path d="M414.7231,359.7331 Q414.1421,360.0319 413.5029,360.1813 Q412.8638,360.3307 412.1582,360.3307 Q409.6514,360.3307 408.3315,358.6789 Q407.0117,357.027 407.0117,353.9059 Q407.0117,350.7765 408.3315,349.1247 Q409.6514,347.4728 412.1582,347.4728 Q412.8638,347.4728 413.5112,347.6222 Q414.1587,347.7716 414.7231,348.0705 L414.7231,350.7931 Q414.0923,350.2121 413.4988,349.9423 Q412.9053,349.6725 412.2744,349.6725 Q410.9297,349.6725 410.2449,350.7392 Q409.5601,351.8058 409.5601,353.9059 Q409.5601,355.9977 410.2449,357.0644 Q410.9297,358.131 412.2744,358.131 Q412.9053,358.131 413.4988,357.8612 Q414.0923,357.5915 414.7231,357.0104 Z " fill="#000000"/><text fill="#000000" font-family="sans-serif" font-size="14" lengthAdjust="spacing" textLength="183" x="432.75" y="358.881">FinancialSnapshotLineItem</text><line style="stroke:#181818;stroke-width:0.5;" x1="343" x2="673" y1="369.59" y2="369.59"/><text fill="#000000" font-family="sans-serif" font-size="14" lengthAdjust="spacing" textLength="238" x="348" y="387.1252">financialSnapshotLineItemId:String</text><text fill="#000000" font-family="sans-serif" font-size="14" lengthAdjust="spacing" textLength="249" x="348" y="403.6134">financialSnapshotLineItemKey:String</text><text fill="#000000" font-family="sans-serif" font-size="14" lengthAdjust="spacing" textLength="138" x="348" y="420.1017">accountName:String</text><text fill="#000000" font-family="sans-serif" font-size="14" lengthAdjust="spacing" textLength="320" x="348" y="436.59">financialCategoryType:FinancialCategoryTypes</text><text fill="#000000" font-family="sans-serif" font-size="14" lengthAdjust="spacing" textLength="151" x="348" y="453.0783">currentBalance:Money</text><text fill="#000000" font-family="sans-serif" font-size="14" lengthAdjust="spacing" textLength="182" x="348" y="469.5666">comparisonBalance:Money</text><line style="stroke:#181818;stroke-width:0.5;" x1="343" x2="673" y1="476.5197" y2="476.5197"/></g><g id="elem_Money"><rect codeLine="25" fill="#F1F1F1" height="146.9297" id="Money" rx="2.5" ry="2.5" style="stroke:#181818;stroke-width:0.5;" width="152" x="359" y="64.71"/><ellipse cx="408.25" cy="80.71" fill="#ADD1B2" rx="11" ry="11" style="stroke:#181818;stroke-width:1.0;"/><path d="M410.7231,86.8531 Q410.1421,87.1519 409.5029,87.3013 Q408.8638,87.4507 408.1582,87.4507 Q405.6514,87.4507 404.3315,85.7989 Q403.0117,84.147 403.0117,81.0259 Q403.0117,77.8965 404.3315,76.2447 Q405.6514,74.5928 408.1582,74.5928 Q408.8638,74.5928 409.5112,74.7422 Q410.1587,74.8916 410.7231,75.1905 L410.7231,77.9131 Q410.0923,77.3321 409.4988,77.0623 Q408.9053,76.7925 408.2744,76.7925 Q406.9297,76.7925 406.2449,77.8592 Q405.5601,78.9258 405.5601,81.0259 Q405.5601,83.1177 406.2449,84.1844 Q406.9297,85.251 408.2744,85.251 Q408.9053,85.251 409.4988,84.9812 Q410.0923,84.7115 410.7231,84.1304 Z " fill="#000000"/><text fill="#000000" font-family="sans-serif" font-size="14" lengthAdjust="spacing" textLength="45" x="428.75" y="86.001">Money</text><line style="stroke:#181818;stroke-width:0.5;" x1="360" x2="510" y1="96.71" y2="96.71"/><text fill="#000000" font-family="sans-serif" font-size="14" lengthAdjust="spacing" textLength="115" x="365" y="114.2452">moneyKey:String</text><text fill="#000000" font-family="sans-serif" font-size="14" lengthAdjust="spacing" textLength="104" x="365" y="130.7334">moneyId:String</text><text fill="#000000" font-family="sans-serif" font-size="14" lengthAdjust="spacing" textLength="140" x="365" y="147.2217">currencyCode:String</text><text fill="#000000" font-family="sans-serif" font-size="14" lengthAdjust="spacing" textLength="131" x="365" y="163.71">displayValue:String</text><text fill="#000000" font-family="sans-serif" font-size="14" lengthAdjust="spacing" textLength="85" x="365" y="180.1983">locale:String</text><text fill="#000000" font-family="sans-serif" font-size="14" lengthAdjust="spacing" textLength="81" x="365" y="196.6866">value:String</text><line style="stroke:#181818;stroke-width:0.5;" x1="360" x2="510" y1="203.6397" y2="203.6397"/></g><g id="elem_FinancialCategoryTypes"><rect codeLine="33" fill="#FAFF91" height="262.3477" id="FinancialCategoryTypes" rx="2.5" ry="2.5" style="stroke:#181818;stroke-width:0.5;" width="195" x="545.5" y="7"/><ellipse cx="560.5" cy="23" fill="#ADD1B2" rx="11" ry="11" style="stroke:#181818;stroke-width:1.0;"/><path d="M562.9731,29.1431 Q562.3921,29.4419 561.7529,29.5913 Q561.1138,29.7407 560.4082,29.7407 Q557.9014,29.7407 556.5815,28.0889 Q555.2617,26.437 555.2617,23.3159 Q555.2617,20.1865 556.5815,18.5347 Q557.9014,16.8828 560.4082,16.8828 Q561.1138,16.8828 561.7612,17.0322 Q562.4087,17.1816 562.9731,17.4805 L562.9731,20.2031 Q562.3423,19.6221 561.7488,19.3523 Q561.1553,19.0825 560.5244,19.0825 Q559.1797,19.0825 558.4949,20.1492 Q557.8101,21.2158 557.8101,23.3159 Q557.8101,25.4077 558.4949,26.4744 Q559.1797,27.541 560.5244,27.541 Q561.1553,27.541 561.7488,27.2712 Q562.3423,27.0015 562.9731,26.4204 Z " fill="#000000"/><text fill="#000000" font-family="sans-serif" font-size="14" lengthAdjust="spacing" textLength="163" x="574.5" y="28.291">FinancialCategoryTypes</text><line style="stroke:#181818;stroke-width:0.5;" x1="546.5" x2="739.5" y1="39" y2="39"/><text fill="#000000" font-family="sans-serif" font-size="14" lengthAdjust="spacing" textLength="45" x="551.5" y="56.5352">CAPEX</text><text fill="#000000" font-family="sans-serif" font-size="14" lengthAdjust="spacing" textLength="78" x="551.5" y="73.0234">HARDWARE</text><text fill="#000000" font-family="sans-serif" font-size="14" lengthAdjust="spacing" textLength="101" x="551.5" y="89.5117">MAINTENANCE</text><text fill="#000000" font-family="sans-serif" font-size="14" lengthAdjust="spacing" textLength="36" x="551.5" y="106">OPEX</text><text fill="#000000" font-family="sans-serif" font-size="14" lengthAdjust="spacing" textLength="47" x="551.5" y="122.4883">OTHER</text><text fill="#000000" font-family="sans-serif" font-size="14" lengthAdjust="spacing" textLength="36" x="551.5" y="138.9766">RENT</text><text fill="#000000" font-family="sans-serif" font-size="14" lengthAdjust="spacing" textLength="62" x="551.5" y="155.4648">REVENUE</text><text fill="#000000" font-family="sans-serif" font-size="14" lengthAdjust="spacing" textLength="53" x="551.5" y="171.9531">SALARY</text><text fill="#000000" font-family="sans-serif" font-size="14" lengthAdjust="spacing" textLength="75" x="551.5" y="188.4414">SOFTWARE</text><text fill="#000000" font-family="sans-serif" font-size="14" lengthAdjust="spacing" textLength="28" x="551.5" y="204.9297">TAX</text><text fill="#000000" font-family="sans-serif" font-size="14" lengthAdjust="spacing" textLength="66" x="551.5" y="221.418">TRAINING</text><text fill="#000000" font-family="sans-serif" font-size="14" lengthAdjust="spacing" textLength="52" x="551.5" y="237.9063">TRAVEL</text><text fill="#000000" font-family="sans-serif" font-size="14" lengthAdjust="spacing" textLength="63" x="551.5" y="254.3945">UTILITIES</text><line style="stroke:#181818;stroke-width:0.5;" x1="546.5" x2="739.5" y1="261.3477" y2="261.3477"/></g><g id="elem_FinancialReportTypes"><rect codeLine="48" fill="#FAFF91" height="163.418" id="FinancialReportTypes" rx="2.5" ry="2.5" style="stroke:#181818;stroke-width:0.5;" width="188" x="63" y="56.47"/><ellipse cx="82.05" cy="72.47" fill="#ADD1B2" rx="11" ry="11" style="stroke:#181818;stroke-width:1.0;"/><path d="M84.5231,78.6131 Q83.9421,78.9119 83.3029,79.0613 Q82.6638,79.2107 81.9582,79.2107 Q79.4514,79.2107 78.1315,77.5589 Q76.8117,75.907 76.8117,72.7859 Q76.8117,69.6565 78.1315,68.0047 Q79.4514,66.3528 81.9582,66.3528 Q82.6638,66.3528 83.3112,66.5022 Q83.9587,66.6516 84.5231,66.9505 L84.5231,69.6731 Q83.8923,69.0921 83.2988,68.8223 Q82.7053,68.5525 82.0744,68.5525 Q80.7297,68.5525 80.0449,69.6192 Q79.3601,70.6858 79.3601,72.7859 Q79.3601,74.8777 80.0449,75.9444 Q80.7297,77.011 82.0744,77.011 Q82.7053,77.011 83.2988,76.7412 Q83.8923,76.4715 84.5231,75.8904 Z " fill="#000000"/><text fill="#000000" font-family="sans-serif" font-size="14" lengthAdjust="spacing" textLength="147" x="96.95" y="77.761">FinancialReportTypes</text><line style="stroke:#181818;stroke-width:0.5;" x1="64" x2="250" y1="88.47" y2="88.47"/><text fill="#000000" font-family="sans-serif" font-size="14" lengthAdjust="spacing" textLength="113" x="69" y="106.0052">BALANCE_SHEET</text><text fill="#000000" font-family="sans-serif" font-size="14" lengthAdjust="spacing" textLength="132" x="69" y="122.4934">BUDGET_VARIANCE</text><text fill="#000000" font-family="sans-serif" font-size="14" lengthAdjust="spacing" textLength="174" x="69" y="138.9817">CASH_FLOW_PROJECTION</text><text fill="#000000" font-family="sans-serif" font-size="14" lengthAdjust="spacing" textLength="173" x="69" y="155.47">CASH_FLOW_STATEMENT</text><text fill="#000000" font-family="sans-serif" font-size="14" lengthAdjust="spacing" textLength="176" x="69" y="171.9583">GENERAL_LEDGER_DETAIL</text><text fill="#000000" font-family="sans-serif" font-size="14" lengthAdjust="spacing" textLength="59" x="69" y="188.4466">P_AND_L</text><text fill="#000000" font-family="sans-serif" font-size="14" lengthAdjust="spacing" textLength="109" x="69" y="204.9348">TRIAL_BALANCE</text><line style="stroke:#181818;stroke-width:0.5;" x1="64" x2="250" y1="211.888" y2="211.888"/></g><g id="link_FinancialCategoryTypes_FinancialSnapshotLineItem"><path codeLine="57" d="M578.07,269.46 C566.45,292.77 554.73,316.29 544.29,337.24 " fill="none" id="FinancialCategoryTypes-FinancialSnapshotLineItem" style="stroke:#181818;stroke-width:1.0;"/></g><g id="link_FinancialReportTypes_FinancialSnapshotCriteria"><path codeLine="58" d="M157,220.08 C157,254.54 157,294.64 157,329.1 " fill="none" id="FinancialReportTypes-FinancialSnapshotCriteria" style="stroke:#181818;stroke-width:1.0;"/></g><g id="link_FinancialSnapshotCriteria_FinancialSnapshot"><path codeLine="59" d="M226.16,493.05 C242.98,512.74 260.74,533.54 276.81,552.36 " fill="none" id="FinancialSnapshotCriteria-FinancialSnapshot" style="stroke:#181818;stroke-width:1.0;"/></g><g id="link_FinancialSnapshotLineItem_FinancialSnapshot"><path codeLine="60" d="M437.632,493.9938 C418.662,516.0838 405.79,531.07 387.33,552.57 " fill="none" id="FinancialSnapshotLineItem-backto-FinancialSnapshot" style="stroke:#181818;stroke-width:1.0;"/><polygon fill="#181818" points="445.45,484.89,438.5064,486.8359,437.632,493.9938,444.5756,492.0479,445.45,484.89" style="stroke:#181818;stroke-width:1.0;"/></g><g id="link_Money_FinancialSnapshotLineItem"><path codeLine="61" d="M454.66,212.12 C465.13,250.99 477.97,298.64 488.43,337.45 " fill="none" id="Money-FinancialSnapshotLineItem" style="stroke:#181818;stroke-width:1.0;"/></g></g></svg>