<?xml version="1.0" encoding="us-ascii" standalone="no"?><svg xmlns="http://www.w3.org/2000/svg" xmlns:xlink="http://www.w3.org/1999/xlink" contentStyleType="text/css" height="723px" preserveAspectRatio="none" style="width:1076px;height:723px;background:#FFFFFF;" version="1.1" viewBox="0 0 1076 723" width="1076px" zoomAndPan="magnify"><defs/><g><g id="elem_BudgetVarianceLineItem"><rect codeLine="1" fill="#F1F1F1" height="179.9063" id="BudgetVarianceLineItem" rx="2.5" ry="2.5" style="stroke:#181818;stroke-width:0.5;" width="339" x="427.5" y="536.27"/><ellipse cx="510.25" cy="552.27" fill="#ADD1B2" rx="11" ry="11" style="stroke:#181818;stroke-width:1.0;"/><path d="M512.7231,558.4131 Q512.1421,558.7119 511.5029,558.8613 Q510.8638,559.0107 510.1582,559.0107 Q507.6514,559.0107 506.3315,557.3589 Q505.0117,555.707 505.0117,552.5859 Q505.0117,549.4565 506.3315,547.8047 Q507.6514,546.1528 510.1582,546.1528 Q510.8638,546.1528 511.5112,546.3022 Q512.1587,546.4516 512.7231,546.7505 L512.7231,549.4731 Q512.0923,548.8921 511.4988,548.6223 Q510.9053,548.3525 510.2744,548.3525 Q508.9297,548.3525 508.2449,549.4192 Q507.5601,550.4858 507.5601,552.5859 Q507.5601,554.6777 508.2449,555.7444 Q508.9297,556.811 510.2744,556.811 Q510.9053,556.811 511.4988,556.5412 Q512.0923,556.2715 512.7231,555.6904 Z " fill="#000000"/><text fill="#000000" font-family="sans-serif" font-size="14" lengthAdjust="spacing" textLength="165" x="530.75" y="557.561">BudgetVarianceLineItem</text><line style="stroke:#181818;stroke-width:0.5;" x1="428.5" x2="765.5" y1="568.27" y2="568.27"/><text fill="#000000" font-family="sans-serif" font-size="14" lengthAdjust="spacing" textLength="224" x="433.5" y="585.8052">budgetVarianceLineItemId:String</text><text fill="#000000" font-family="sans-serif" font-size="14" lengthAdjust="spacing" textLength="235" x="433.5" y="602.2934">budgetVarianceLineItemKey:String</text><text fill="#000000" font-family="sans-serif" font-size="14" lengthAdjust="spacing" textLength="327" x="433.5" y="618.7817">generalLedgerAccount:GeneralLedgerReference</text><text fill="#000000" font-family="sans-serif" font-size="14" lengthAdjust="spacing" textLength="285" x="433.5" y="635.27">controlAccount:ControlAccountReference</text><text fill="#000000" font-family="sans-serif" font-size="14" lengthAdjust="spacing" textLength="320" x="433.5" y="651.7583">financialCategoryType:FinancialCategoryTypes</text><text fill="#000000" font-family="sans-serif" font-size="14" lengthAdjust="spacing" textLength="170" x="433.5" y="668.2466">budgetedAmount:Money</text><text fill="#000000" font-family="sans-serif" font-size="14" lengthAdjust="spacing" textLength="145" x="433.5" y="684.7348">actualAmount:Money</text><text fill="#000000" font-family="sans-serif" font-size="14" lengthAdjust="spacing" textLength="212" x="433.5" y="701.2231">varianceDetails:VarianceDetails</text><line style="stroke:#181818;stroke-width:0.5;" x1="428.5" x2="765.5" y1="708.1763" y2="708.1763"/></g><g id="elem_ControlAccountReference"><rect codeLine="11" fill="#F1F1F1" height="146.9297" id="ControlAccountReference" rx="2.5" ry="2.5" style="stroke:#181818;stroke-width:0.5;" width="254" x="7" y="271.64"/><ellipse cx="42.7" cy="287.64" fill="#ADD1B2" rx="11" ry="11" style="stroke:#181818;stroke-width:1.0;"/><path d="M45.1731,293.7831 Q44.5921,294.0819 43.9529,294.2313 Q43.3138,294.3807 42.6082,294.3807 Q40.1014,294.3807 38.7815,292.7289 Q37.4617,291.077 37.4617,287.9559 Q37.4617,284.8265 38.7815,283.1747 Q40.1014,281.5228 42.6082,281.5228 Q43.3138,281.5228 43.9612,281.6722 Q44.6087,281.8216 45.1731,282.1205 L45.1731,284.8431 Q44.5423,284.2621 43.9488,283.9923 Q43.3553,283.7225 42.7244,283.7225 Q41.3797,283.7225 40.6949,284.7892 Q40.0101,285.8558 40.0101,287.9559 Q40.0101,290.0477 40.6949,291.1144 Q41.3797,292.181 42.7244,292.181 Q43.3553,292.181 43.9488,291.9112 Q44.5423,291.6415 45.1731,291.0604 Z " fill="#000000"/><text fill="#000000" font-family="sans-serif" font-size="14" lengthAdjust="spacing" textLength="176" x="61.3" y="292.931">ControlAccountReference</text><line style="stroke:#181818;stroke-width:0.5;" x1="8" x2="260" y1="303.64" y2="303.64"/><text fill="#000000" font-family="sans-serif" font-size="14" lengthAdjust="spacing" textLength="231" x="13" y="321.1752">controlAccountReferenceId:String</text><text fill="#000000" font-family="sans-serif" font-size="14" lengthAdjust="spacing" textLength="242" x="13" y="337.6634">controlAccountReferenceKey:String</text><text fill="#000000" font-family="sans-serif" font-size="14" lengthAdjust="spacing" textLength="174" x="13" y="354.1517">controlAccountKey:String</text><text fill="#000000" font-family="sans-serif" font-size="14" lengthAdjust="spacing" textLength="97" x="13" y="370.64">context:String</text><text fill="#000000" font-family="sans-serif" font-size="14" lengthAdjust="spacing" textLength="171" x="13" y="387.1283">controlAccount:Identifier</text><text fill="#000000" font-family="sans-serif" font-size="14" lengthAdjust="spacing" textLength="176" x="13" y="403.6166">occurrenceDateTime:Date</text><line style="stroke:#181818;stroke-width:0.5;" x1="8" x2="260" y1="410.5697" y2="410.5697"/></g><g id="elem_GeneralLedgerReference"><rect codeLine="19" fill="#F1F1F1" height="146.9297" id="GeneralLedgerReference" rx="2.5" ry="2.5" style="stroke:#181818;stroke-width:0.5;" width="248" x="296" y="271.64"/><ellipse cx="332.6" cy="287.64" fill="#ADD1B2" rx="11" ry="11" style="stroke:#181818;stroke-width:1.0;"/><path d="M335.0731,293.7831 Q334.4921,294.0819 333.8529,294.2313 Q333.2138,294.3807 332.5082,294.3807 Q330.0014,294.3807 328.6815,292.7289 Q327.3617,291.077 327.3617,287.9559 Q327.3617,284.8265 328.6815,283.1747 Q330.0014,281.5228 332.5082,281.5228 Q333.2138,281.5228 333.8612,281.6722 Q334.5087,281.8216 335.0731,282.1205 L335.0731,284.8431 Q334.4423,284.2621 333.8488,283.9923 Q333.2553,283.7225 332.6244,283.7225 Q331.2797,283.7225 330.5949,284.7892 Q329.9101,285.8558 329.9101,287.9559 Q329.9101,290.0477 330.5949,291.1144 Q331.2797,292.181 332.6244,292.181 Q333.2553,292.181 333.8488,291.9112 Q334.4423,291.6415 335.0731,291.0604 Z " fill="#000000"/><text fill="#000000" font-family="sans-serif" font-size="14" lengthAdjust="spacing" textLength="168" x="351.4" y="292.931">GeneralLedgerReference</text><line style="stroke:#181818;stroke-width:0.5;" x1="297" x2="543" y1="303.64" y2="303.64"/><text fill="#000000" font-family="sans-serif" font-size="14" lengthAdjust="spacing" textLength="225" x="302" y="321.1752">generalLedgerReferenceId:String</text><text fill="#000000" font-family="sans-serif" font-size="14" lengthAdjust="spacing" textLength="236" x="302" y="337.6634">generalLedgerReferenceKey:String</text><text fill="#000000" font-family="sans-serif" font-size="14" lengthAdjust="spacing" textLength="168" x="302" y="354.1517">generalLedgerKey:String</text><text fill="#000000" font-family="sans-serif" font-size="14" lengthAdjust="spacing" textLength="97" x="302" y="370.64">context:String</text><text fill="#000000" font-family="sans-serif" font-size="14" lengthAdjust="spacing" textLength="227" x="302" y="387.1283">generalLedgerIdentifier:Identifier</text><text fill="#000000" font-family="sans-serif" font-size="14" lengthAdjust="spacing" textLength="176" x="302" y="403.6166">occurrenceDateTime:Date</text><line style="stroke:#181818;stroke-width:0.5;" x1="297" x2="543" y1="410.5697" y2="410.5697"/></g><g id="elem_Identifier"><rect codeLine="27" fill="#F1F1F1" height="146.9297" id="Identifier" rx="2.5" ry="2.5" style="stroke:#181818;stroke-width:0.5;" width="152" x="270" y="7"/><ellipse cx="311.1" cy="23" fill="#ADD1B2" rx="11" ry="11" style="stroke:#181818;stroke-width:1.0;"/><path d="M313.5731,29.1431 Q312.9921,29.4419 312.3529,29.5913 Q311.7138,29.7407 311.0082,29.7407 Q308.5014,29.7407 307.1815,28.0889 Q305.8617,26.437 305.8617,23.3159 Q305.8617,20.1865 307.1815,18.5347 Q308.5014,16.8828 311.0082,16.8828 Q311.7138,16.8828 312.3612,17.0322 Q313.0087,17.1816 313.5731,17.4805 L313.5731,20.2031 Q312.9423,19.6221 312.3488,19.3523 Q311.7553,19.0825 311.1244,19.0825 Q309.7797,19.0825 309.0949,20.1492 Q308.4101,21.2158 308.4101,23.3159 Q308.4101,25.4077 309.0949,26.4744 Q309.7797,27.541 311.1244,27.541 Q311.7553,27.541 312.3488,27.2712 Q312.9423,27.0015 313.5731,26.4204 Z " fill="#000000"/><text fill="#000000" font-family="sans-serif" font-size="14" lengthAdjust="spacing" textLength="62" x="330.9" y="28.291">Identifier</text><line style="stroke:#181818;stroke-width:0.5;" x1="271" x2="421" y1="39" y2="39"/><text fill="#000000" font-family="sans-serif" font-size="14" lengthAdjust="spacing" textLength="120" x="276" y="56.5352">identifierId:String</text><text fill="#000000" font-family="sans-serif" font-size="14" lengthAdjust="spacing" textLength="131" x="276" y="73.0234">identifierKey:String</text><text fill="#000000" font-family="sans-serif" font-size="14" lengthAdjust="spacing" textLength="97" x="276" y="89.5117">context:String</text><text fill="#000000" font-family="sans-serif" font-size="14" lengthAdjust="spacing" textLength="81" x="276" y="106">value:String</text><text fill="#000000" font-family="sans-serif" font-size="14" lengthAdjust="spacing" textLength="83" x="276" y="122.4883">detail:String</text><text fill="#000000" font-family="sans-serif" font-size="14" lengthAdjust="spacing" textLength="140" x="276" y="138.9766">identifierType:String</text><line style="stroke:#181818;stroke-width:0.5;" x1="271" x2="421" y1="145.9297" y2="145.9297"/></g><g id="elem_Money"><rect codeLine="35" fill="#F1F1F1" height="146.9297" id="Money" rx="2.5" ry="2.5" style="stroke:#181818;stroke-width:0.5;" width="152" x="595" y="7"/><ellipse cx="644.25" cy="23" fill="#ADD1B2" rx="11" ry="11" style="stroke:#181818;stroke-width:1.0;"/><path d="M646.7231,29.1431 Q646.1421,29.4419 645.5029,29.5913 Q644.8638,29.7407 644.1582,29.7407 Q641.6514,29.7407 640.3315,28.0889 Q639.0117,26.437 639.0117,23.3159 Q639.0117,20.1865 640.3315,18.5347 Q641.6514,16.8828 644.1582,16.8828 Q644.8638,16.8828 645.5112,17.0322 Q646.1587,17.1816 646.7231,17.4805 L646.7231,20.2031 Q646.0923,19.6221 645.4988,19.3523 Q644.9053,19.0825 644.2744,19.0825 Q642.9297,19.0825 642.2449,20.1492 Q641.5601,21.2158 641.5601,23.3159 Q641.5601,25.4077 642.2449,26.4744 Q642.9297,27.541 644.2744,27.541 Q644.9053,27.541 645.4988,27.2712 Q646.0923,27.0015 646.7231,26.4204 Z " fill="#000000"/><text fill="#000000" font-family="sans-serif" font-size="14" lengthAdjust="spacing" textLength="45" x="664.75" y="28.291">Money</text><line style="stroke:#181818;stroke-width:0.5;" x1="596" x2="746" y1="39" y2="39"/><text fill="#000000" font-family="sans-serif" font-size="14" lengthAdjust="spacing" textLength="115" x="601" y="56.5352">moneyKey:String</text><text fill="#000000" font-family="sans-serif" font-size="14" lengthAdjust="spacing" textLength="104" x="601" y="73.0234">moneyId:String</text><text fill="#000000" font-family="sans-serif" font-size="14" lengthAdjust="spacing" textLength="140" x="601" y="89.5117">currencyCode:String</text><text fill="#000000" font-family="sans-serif" font-size="14" lengthAdjust="spacing" textLength="131" x="601" y="106">displayValue:String</text><text fill="#000000" font-family="sans-serif" font-size="14" lengthAdjust="spacing" textLength="85" x="601" y="122.4883">locale:String</text><text fill="#000000" font-family="sans-serif" font-size="14" lengthAdjust="spacing" textLength="81" x="601" y="138.9766">value:String</text><line style="stroke:#181818;stroke-width:0.5;" x1="596" x2="746" y1="145.9297" y2="145.9297"/></g><g id="elem_VarianceDetails"><rect codeLine="43" fill="#F1F1F1" height="97.4648" id="VarianceDetails" rx="2.5" ry="2.5" style="stroke:#181818;stroke-width:0.5;" width="190" x="650" y="296.37"/><ellipse cx="688.85" cy="312.37" fill="#ADD1B2" rx="11" ry="11" style="stroke:#181818;stroke-width:1.0;"/><path d="M691.3231,318.5131 Q690.7421,318.8119 690.1029,318.9613 Q689.4638,319.1107 688.7582,319.1107 Q686.2514,319.1107 684.9315,317.4589 Q683.6117,315.807 683.6117,312.6859 Q683.6117,309.5565 684.9315,307.9047 Q686.2514,306.2528 688.7582,306.2528 Q689.4638,306.2528 690.1112,306.4022 Q690.7587,306.5516 691.3231,306.8505 L691.3231,309.5731 Q690.6923,308.9921 690.0988,308.7223 Q689.5053,308.4525 688.8744,308.4525 Q687.5297,308.4525 686.8449,309.5192 Q686.1601,310.5858 686.1601,312.6859 Q686.1601,314.7777 686.8449,315.8444 Q687.5297,316.911 688.8744,316.911 Q689.5053,316.911 690.0988,316.6412 Q690.6923,316.3715 691.3231,315.7904 Z " fill="#000000"/><text fill="#000000" font-family="sans-serif" font-size="14" lengthAdjust="spacing" textLength="105" x="708.15" y="317.661">VarianceDetails</text><line style="stroke:#181818;stroke-width:0.5;" x1="651" x2="839" y1="328.37" y2="328.37"/><text fill="#000000" font-family="sans-serif" font-size="14" lengthAdjust="spacing" textLength="161" x="656" y="345.9052">varianceAmount:Money</text><text fill="#000000" font-family="sans-serif" font-size="14" lengthAdjust="spacing" textLength="178" x="656" y="362.3934">variancePercentage:String</text><text fill="#000000" font-family="sans-serif" font-size="14" lengthAdjust="spacing" textLength="137" x="656" y="378.8817">isFavorable:Boolean</text><line style="stroke:#181818;stroke-width:0.5;" x1="651" x2="839" y1="385.8348" y2="385.8348"/></g><g id="elem_FinancialCategoryTypes"><rect codeLine="48" fill="#FAFF91" height="262.3477" id="FinancialCategoryTypes" rx="2.5" ry="2.5" style="stroke:#181818;stroke-width:0.5;" width="195" x="874.5" y="213.93"/><ellipse cx="889.5" cy="229.93" fill="#ADD1B2" rx="11" ry="11" style="stroke:#181818;stroke-width:1.0;"/><path d="M891.9731,236.0731 Q891.3921,236.3719 890.7529,236.5213 Q890.1138,236.6707 889.4082,236.6707 Q886.9014,236.6707 885.5815,235.0189 Q884.2617,233.367 884.2617,230.2459 Q884.2617,227.1165 885.5815,225.4647 Q886.9014,223.8128 889.4082,223.8128 Q890.1138,223.8128 890.7612,223.9622 Q891.4087,224.1116 891.9731,224.4105 L891.9731,227.1331 Q891.3423,226.5521 890.7488,226.2823 Q890.1553,226.0125 889.5244,226.0125 Q888.1797,226.0125 887.4949,227.0792 Q886.8101,228.1458 886.8101,230.2459 Q886.8101,232.3377 887.4949,233.4044 Q888.1797,234.471 889.5244,234.471 Q890.1553,234.471 890.7488,234.2012 Q891.3423,233.9315 891.9731,233.3504 Z " fill="#000000"/><text fill="#000000" font-family="sans-serif" font-size="14" lengthAdjust="spacing" textLength="163" x="903.5" y="235.221">FinancialCategoryTypes</text><line style="stroke:#181818;stroke-width:0.5;" x1="875.5" x2="1068.5" y1="245.93" y2="245.93"/><text fill="#000000" font-family="sans-serif" font-size="14" lengthAdjust="spacing" textLength="45" x="880.5" y="263.4652">CAPEX</text><text fill="#000000" font-family="sans-serif" font-size="14" lengthAdjust="spacing" textLength="78" x="880.5" y="279.9534">HARDWARE</text><text fill="#000000" font-family="sans-serif" font-size="14" lengthAdjust="spacing" textLength="101" x="880.5" y="296.4417">MAINTENANCE</text><text fill="#000000" font-family="sans-serif" font-size="14" lengthAdjust="spacing" textLength="36" x="880.5" y="312.93">OPEX</text><text fill="#000000" font-family="sans-serif" font-size="14" lengthAdjust="spacing" textLength="47" x="880.5" y="329.4183">OTHER</text><text fill="#000000" font-family="sans-serif" font-size="14" lengthAdjust="spacing" textLength="36" x="880.5" y="345.9066">RENT</text><text fill="#000000" font-family="sans-serif" font-size="14" lengthAdjust="spacing" textLength="62" x="880.5" y="362.3948">REVENUE</text><text fill="#000000" font-family="sans-serif" font-size="14" lengthAdjust="spacing" textLength="53" x="880.5" y="378.8831">SALARY</text><text fill="#000000" font-family="sans-serif" font-size="14" lengthAdjust="spacing" textLength="75" x="880.5" y="395.3714">SOFTWARE</text><text fill="#000000" font-family="sans-serif" font-size="14" lengthAdjust="spacing" textLength="28" x="880.5" y="411.8597">TAX</text><text fill="#000000" font-family="sans-serif" font-size="14" lengthAdjust="spacing" textLength="66" x="880.5" y="428.348">TRAINING</text><text fill="#000000" font-family="sans-serif" font-size="14" lengthAdjust="spacing" textLength="52" x="880.5" y="444.8362">TRAVEL</text><text fill="#000000" font-family="sans-serif" font-size="14" lengthAdjust="spacing" textLength="63" x="880.5" y="461.3245">UTILITIES</text><line style="stroke:#181818;stroke-width:0.5;" x1="875.5" x2="1068.5" y1="468.2777" y2="468.2777"/></g><g id="link_ControlAccountReference_BudgetVarianceLineItem"><path codeLine="63" d="M206.56,418.79 C228.72,438.85 253.9,459.65 279,476.27 C324.88,506.65 377.93,534.12 427.4,556.96 " fill="none" id="ControlAccountReference-BudgetVarianceLineItem" style="stroke:#181818;stroke-width:1.0;"/></g><g id="link_FinancialCategoryTypes_BudgetVarianceLineItem"><path codeLine="64" d="M874.23,462.13 C868.89,467.06 863.47,471.81 858,476.27 C830.12,499.05 798.31,520.37 766.71,539.36 " fill="none" id="FinancialCategoryTypes-BudgetVarianceLineItem" style="stroke:#181818;stroke-width:1.0;"/></g><g id="link_GeneralLedgerReference_BudgetVarianceLineItem"><path codeLine="65" d="M466.04,418.71 C488.73,454.49 516.3,497.96 540.28,535.77 " fill="none" id="GeneralLedgerReference-BudgetVarianceLineItem" style="stroke:#181818;stroke-width:1.0;"/></g><g id="link_Identifier_ControlAccountReference"><path codeLine="66" d="M287.23,154.27 C257.82,190.71 222.31,234.69 192.89,271.15 " fill="none" id="Identifier-ControlAccountReference" style="stroke:#181818;stroke-width:1.0;"/></g><g id="link_Identifier_GeneralLedgerReference"><path codeLine="67" d="M366.51,154.27 C376.78,190.71 389.17,234.69 399.45,271.15 " fill="none" id="Identifier-GeneralLedgerReference" style="stroke:#181818;stroke-width:1.0;"/></g><g id="link_Money_BudgetVarianceLineItem"><path codeLine="68" d="M646.67,154.39 C641.06,173.57 635.67,194.37 632,213.93 C611.4,323.63 602.91,452.09 599.42,535.87 " fill="none" id="Money-BudgetVarianceLineItem" style="stroke:#181818;stroke-width:1.0;"/></g><g id="link_Money_VarianceDetails"><path codeLine="69" d="M691.51,154.27 C704.26,199.51 720.29,256.4 731.46,296.04 " fill="none" id="Money-VarianceDetails" style="stroke:#181818;stroke-width:1.0;"/></g><g id="link_VarianceDetails_BudgetVarianceLineItem"><path codeLine="70" d="M719.56,394.08 C698.94,432.97 669.31,488.85 644.35,535.92 " fill="none" id="VarianceDetails-BudgetVarianceLineItem" style="stroke:#181818;stroke-width:1.0;"/></g></g></svg>