<?xml version="1.0" encoding="us-ascii" standalone="no"?><svg xmlns="http://www.w3.org/2000/svg" xmlns:xlink="http://www.w3.org/1999/xlink" contentStyleType="text/css" height="739px" preserveAspectRatio="none" style="width:1847px;height:739px;background:#FFFFFF;" version="1.1" viewBox="0 0 1847 739" width="1847px" zoomAndPan="magnify"><defs/><g><g id="elem_AccountingPeriod"><rect codeLine="1" fill="#F1F1F1" height="196.3945" id="AccountingPeriod" rx="2.5" ry="2.5" style="stroke:#181818;stroke-width:0.5;" width="415" x="327.5" y="263.39"/><ellipse cx="469.75" cy="279.39" fill="#ADD1B2" rx="11" ry="11" style="stroke:#181818;stroke-width:1.0;"/><path d="M472.2231,285.5331 Q471.6421,285.8319 471.0029,285.9813 Q470.3638,286.1307 469.6582,286.1307 Q467.1514,286.1307 465.8315,284.4789 Q464.5117,282.827 464.5117,279.7059 Q464.5117,276.5765 465.8315,274.9247 Q467.1514,273.2728 469.6582,273.2728 Q470.3638,273.2728 471.0112,273.4222 Q471.6587,273.5716 472.2231,273.8705 L472.2231,276.5931 Q471.5923,276.0121 470.9988,275.7423 Q470.4053,275.4725 469.7744,275.4725 Q468.4297,275.4725 467.7449,276.5392 Q467.0601,277.6058 467.0601,279.7059 Q467.0601,281.7977 467.7449,282.8644 Q468.4297,283.931 469.7744,283.931 Q470.4053,283.931 470.9988,283.6612 Q471.5923,283.3915 472.2231,282.8104 Z " fill="#000000"/><text fill="#000000" font-family="sans-serif" font-size="14" lengthAdjust="spacing" textLength="122" x="490.25" y="284.681">AccountingPeriod</text><line style="stroke:#181818;stroke-width:0.5;" x1="328.5" x2="741.5" y1="295.39" y2="295.39"/><text fill="#000000" font-family="sans-serif" font-size="14" lengthAdjust="spacing" textLength="180" x="333.5" y="312.9252">identifiers:List&lt;Identifier&gt;</text><text fill="#000000" font-family="sans-serif" font-size="14" lengthAdjust="spacing" textLength="122" x="333.5" y="329.4134">periodDesc:String</text><text fill="#000000" font-family="sans-serif" font-size="14" lengthAdjust="spacing" textLength="178" x="333.5" y="345.9017">accountingPeriodId:String</text><text fill="#000000" font-family="sans-serif" font-size="14" lengthAdjust="spacing" textLength="189" x="333.5" y="362.39">accountingPeriodKey:String</text><text fill="#000000" font-family="sans-serif" font-size="14" lengthAdjust="spacing" textLength="129" x="333.5" y="378.8783">periodName:String</text><text fill="#000000" font-family="sans-serif" font-size="14" lengthAdjust="spacing" textLength="97" x="333.5" y="395.3666">startDate:Date</text><text fill="#000000" font-family="sans-serif" font-size="14" lengthAdjust="spacing" textLength="92" x="333.5" y="411.8548">endDate:Date</text><text fill="#000000" font-family="sans-serif" font-size="14" lengthAdjust="spacing" textLength="403" x="333.5" y="428.3431">accountingPeriodStatusType:AccountingPeriodStatusTypes</text><text fill="#000000" font-family="sans-serif" font-size="14" lengthAdjust="spacing" textLength="119" x="333.5" y="444.8314">fiscalYear:Integer</text><line style="stroke:#181818;stroke-width:0.5;" x1="328.5" x2="741.5" y1="451.7845" y2="451.7845"/></g><g id="elem_BudgetVarianceLineItem"><rect codeLine="12" fill="#F1F1F1" height="179.9063" id="BudgetVarianceLineItem" rx="2.5" ry="2.5" style="stroke:#181818;stroke-width:0.5;" width="339" x="1198.5" y="552.76"/><ellipse cx="1281.25" cy="568.76" fill="#ADD1B2" rx="11" ry="11" style="stroke:#181818;stroke-width:1.0;"/><path d="M1283.7231,574.9031 Q1283.1421,575.2019 1282.5029,575.3513 Q1281.8638,575.5007 1281.1582,575.5007 Q1278.6514,575.5007 1277.3315,573.8489 Q1276.0117,572.197 1276.0117,569.0759 Q1276.0117,565.9465 1277.3315,564.2947 Q1278.6514,562.6428 1281.1582,562.6428 Q1281.8638,562.6428 1282.5112,562.7922 Q1283.1587,562.9416 1283.7231,563.2405 L1283.7231,565.9631 Q1283.0923,565.3821 1282.4988,565.1123 Q1281.9053,564.8425 1281.2744,564.8425 Q1279.9297,564.8425 1279.2449,565.9092 Q1278.5601,566.9758 1278.5601,569.0759 Q1278.5601,571.1677 1279.2449,572.2344 Q1279.9297,573.301 1281.2744,573.301 Q1281.9053,573.301 1282.4988,573.0312 Q1283.0923,572.7615 1283.7231,572.1804 Z " fill="#000000"/><text fill="#000000" font-family="sans-serif" font-size="14" lengthAdjust="spacing" textLength="165" x="1301.75" y="574.051">BudgetVarianceLineItem</text><line style="stroke:#181818;stroke-width:0.5;" x1="1199.5" x2="1536.5" y1="584.76" y2="584.76"/><text fill="#000000" font-family="sans-serif" font-size="14" lengthAdjust="spacing" textLength="224" x="1204.5" y="602.2952">budgetVarianceLineItemId:String</text><text fill="#000000" font-family="sans-serif" font-size="14" lengthAdjust="spacing" textLength="235" x="1204.5" y="618.7834">budgetVarianceLineItemKey:String</text><text fill="#000000" font-family="sans-serif" font-size="14" lengthAdjust="spacing" textLength="327" x="1204.5" y="635.2717">generalLedgerAccount:GeneralLedgerReference</text><text fill="#000000" font-family="sans-serif" font-size="14" lengthAdjust="spacing" textLength="285" x="1204.5" y="651.76">controlAccount:ControlAccountReference</text><text fill="#000000" font-family="sans-serif" font-size="14" lengthAdjust="spacing" textLength="320" x="1204.5" y="668.2483">financialCategoryType:FinancialCategoryTypes</text><text fill="#000000" font-family="sans-serif" font-size="14" lengthAdjust="spacing" textLength="170" x="1204.5" y="684.7366">budgetedAmount:Money</text><text fill="#000000" font-family="sans-serif" font-size="14" lengthAdjust="spacing" textLength="145" x="1204.5" y="701.2248">actualAmount:Money</text><text fill="#000000" font-family="sans-serif" font-size="14" lengthAdjust="spacing" textLength="212" x="1204.5" y="717.7131">varianceDetails:VarianceDetails</text><line style="stroke:#181818;stroke-width:0.5;" x1="1199.5" x2="1536.5" y1="724.6663" y2="724.6663"/></g><g id="elem_BudgetVarianceReport"><rect codeLine="22" fill="#F1F1F1" height="146.9297" id="BudgetVarianceReport" rx="2.5" ry="2.5" style="stroke:#181818;stroke-width:0.5;" width="425" x="130.5" y="569.25"/><ellipse cx="262.25" cy="585.25" fill="#ADD1B2" rx="11" ry="11" style="stroke:#181818;stroke-width:1.0;"/><path d="M264.7231,591.3931 Q264.1421,591.6919 263.5029,591.8413 Q262.8638,591.9907 262.1582,591.9907 Q259.6514,591.9907 258.3315,590.3389 Q257.0117,588.687 257.0117,585.5659 Q257.0117,582.4365 258.3315,580.7847 Q259.6514,579.1328 262.1582,579.1328 Q262.8638,579.1328 263.5112,579.2822 Q264.1587,579.4316 264.7231,579.7305 L264.7231,582.4531 Q264.0923,581.8721 263.4988,581.6023 Q262.9053,581.3325 262.2744,581.3325 Q260.9297,581.3325 260.2449,582.3992 Q259.5601,583.4658 259.5601,585.5659 Q259.5601,587.6577 260.2449,588.7244 Q260.9297,589.791 262.2744,589.791 Q262.9053,589.791 263.4988,589.5212 Q264.0923,589.2515 264.7231,588.6704 Z " fill="#000000"/><text fill="#000000" font-family="sans-serif" font-size="14" lengthAdjust="spacing" textLength="153" x="282.75" y="590.541">BudgetVarianceReport</text><line style="stroke:#181818;stroke-width:0.5;" x1="131.5" x2="554.5" y1="601.25" y2="601.25"/><text fill="#000000" font-family="sans-serif" font-size="14" lengthAdjust="spacing" textLength="212" x="136.5" y="618.7852">budgetVarianceReportId:String</text><text fill="#000000" font-family="sans-serif" font-size="14" lengthAdjust="spacing" textLength="223" x="136.5" y="635.2734">budgetVarianceReportKey:String</text><text fill="#000000" font-family="sans-serif" font-size="14" lengthAdjust="spacing" textLength="413" x="136.5" y="651.7617">budgetVarianceReportCriteria:BudgetVarianceReportCriteria</text><text fill="#000000" font-family="sans-serif" font-size="14" lengthAdjust="spacing" textLength="109" x="136.5" y="668.25">reportDate:Date</text><text fill="#000000" font-family="sans-serif" font-size="14" lengthAdjust="spacing" textLength="246" x="136.5" y="684.7383">accountingPeriod:AccountingPeriod</text><text fill="#000000" font-family="sans-serif" font-size="14" lengthAdjust="spacing" textLength="276" x="136.5" y="701.2266">lineItems:List&lt;BudgetVarianceLineItem&gt;</text><line style="stroke:#181818;stroke-width:0.5;" x1="131.5" x2="554.5" y1="708.1797" y2="708.1797"/></g><g id="elem_BudgetVarianceReportCriteria"><rect codeLine="30" fill="#F1F1F1" height="113.9531" id="BudgetVarianceReportCriteria" rx="2.5" ry="2.5" style="stroke:#181818;stroke-width:0.5;" width="286" x="7" y="304.61"/><ellipse cx="44.5" cy="320.61" fill="#ADD1B2" rx="11" ry="11" style="stroke:#181818;stroke-width:1.0;"/><path d="M46.9731,326.7531 Q46.3921,327.0519 45.7529,327.2013 Q45.1138,327.3507 44.4082,327.3507 Q41.9014,327.3507 40.5815,325.6989 Q39.2617,324.047 39.2617,320.9259 Q39.2617,317.7965 40.5815,316.1447 Q41.9014,314.4928 44.4082,314.4928 Q45.1138,314.4928 45.7612,314.6422 Q46.4087,314.7916 46.9731,315.0905 L46.9731,317.8131 Q46.3423,317.2321 45.7488,316.9623 Q45.1553,316.6925 44.5244,316.6925 Q43.1797,316.6925 42.4949,317.7592 Q41.8101,318.8258 41.8101,320.9259 Q41.8101,323.0177 42.4949,324.0844 Q43.1797,325.151 44.5244,325.151 Q45.1553,325.151 45.7488,324.8812 Q46.3423,324.6115 46.9731,324.0304 Z " fill="#000000"/><text fill="#000000" font-family="sans-serif" font-size="14" lengthAdjust="spacing" textLength="204" x="63.5" y="325.901">BudgetVarianceReportCriteria</text><line style="stroke:#181818;stroke-width:0.5;" x1="8" x2="292" y1="336.61" y2="336.61"/><text fill="#000000" font-family="sans-serif" font-size="14" lengthAdjust="spacing" textLength="263" x="13" y="354.1452">budgetVarianceReportCriteriaId:String</text><text fill="#000000" font-family="sans-serif" font-size="14" lengthAdjust="spacing" textLength="274" x="13" y="370.6334">budgetVarianceReportCriteriaKey:String</text><text fill="#000000" font-family="sans-serif" font-size="14" lengthAdjust="spacing" textLength="189" x="13" y="387.1217">accountingPeriodKey:String</text><text fill="#000000" font-family="sans-serif" font-size="14" lengthAdjust="spacing" textLength="206" x="13" y="403.61">minVariancePercentage:String</text><line style="stroke:#181818;stroke-width:0.5;" x1="8" x2="292" y1="410.5631" y2="410.5631"/></g><g id="elem_ControlAccountReference"><rect codeLine="36" fill="#F1F1F1" height="146.9297" id="ControlAccountReference" rx="2.5" ry="2.5" style="stroke:#181818;stroke-width:0.5;" width="254" x="778" y="288.13"/><ellipse cx="813.7" cy="304.13" fill="#ADD1B2" rx="11" ry="11" style="stroke:#181818;stroke-width:1.0;"/><path d="M816.1731,310.2731 Q815.5921,310.5719 814.9529,310.7213 Q814.3138,310.8707 813.6082,310.8707 Q811.1014,310.8707 809.7815,309.2189 Q808.4617,307.567 808.4617,304.4459 Q808.4617,301.3165 809.7815,299.6647 Q811.1014,298.0128 813.6082,298.0128 Q814.3138,298.0128 814.9612,298.1622 Q815.6087,298.3116 816.1731,298.6105 L816.1731,301.3331 Q815.5423,300.7521 814.9488,300.4823 Q814.3553,300.2125 813.7244,300.2125 Q812.3797,300.2125 811.6949,301.2792 Q811.0101,302.3458 811.0101,304.4459 Q811.0101,306.5377 811.6949,307.6044 Q812.3797,308.671 813.7244,308.671 Q814.3553,308.671 814.9488,308.4012 Q815.5423,308.1315 816.1731,307.5504 Z " fill="#000000"/><text fill="#000000" font-family="sans-serif" font-size="14" lengthAdjust="spacing" textLength="176" x="832.3" y="309.421">ControlAccountReference</text><line style="stroke:#181818;stroke-width:0.5;" x1="779" x2="1031" y1="320.13" y2="320.13"/><text fill="#000000" font-family="sans-serif" font-size="14" lengthAdjust="spacing" textLength="231" x="784" y="337.6652">controlAccountReferenceId:String</text><text fill="#000000" font-family="sans-serif" font-size="14" lengthAdjust="spacing" textLength="242" x="784" y="354.1534">controlAccountReferenceKey:String</text><text fill="#000000" font-family="sans-serif" font-size="14" lengthAdjust="spacing" textLength="174" x="784" y="370.6417">controlAccountKey:String</text><text fill="#000000" font-family="sans-serif" font-size="14" lengthAdjust="spacing" textLength="97" x="784" y="387.13">context:String</text><text fill="#000000" font-family="sans-serif" font-size="14" lengthAdjust="spacing" textLength="171" x="784" y="403.6183">controlAccount:Identifier</text><text fill="#000000" font-family="sans-serif" font-size="14" lengthAdjust="spacing" textLength="176" x="784" y="420.1066">occurrenceDateTime:Date</text><line style="stroke:#181818;stroke-width:0.5;" x1="779" x2="1031" y1="427.0597" y2="427.0597"/></g><g id="elem_GeneralLedgerReference"><rect codeLine="44" fill="#F1F1F1" height="146.9297" id="GeneralLedgerReference" rx="2.5" ry="2.5" style="stroke:#181818;stroke-width:0.5;" width="248" x="1067" y="288.13"/><ellipse cx="1103.6" cy="304.13" fill="#ADD1B2" rx="11" ry="11" style="stroke:#181818;stroke-width:1.0;"/><path d="M1106.0731,310.2731 Q1105.4921,310.5719 1104.8529,310.7213 Q1104.2138,310.8707 1103.5082,310.8707 Q1101.0014,310.8707 1099.6815,309.2189 Q1098.3617,307.567 1098.3617,304.4459 Q1098.3617,301.3165 1099.6815,299.6647 Q1101.0014,298.0128 1103.5082,298.0128 Q1104.2138,298.0128 1104.8612,298.1622 Q1105.5087,298.3116 1106.0731,298.6105 L1106.0731,301.3331 Q1105.4423,300.7521 1104.8488,300.4823 Q1104.2553,300.2125 1103.6244,300.2125 Q1102.2797,300.2125 1101.5949,301.2792 Q1100.9101,302.3458 1100.9101,304.4459 Q1100.9101,306.5377 1101.5949,307.6044 Q1102.2797,308.671 1103.6244,308.671 Q1104.2553,308.671 1104.8488,308.4012 Q1105.4423,308.1315 1106.0731,307.5504 Z " fill="#000000"/><text fill="#000000" font-family="sans-serif" font-size="14" lengthAdjust="spacing" textLength="168" x="1122.4" y="309.421">GeneralLedgerReference</text><line style="stroke:#181818;stroke-width:0.5;" x1="1068" x2="1314" y1="320.13" y2="320.13"/><text fill="#000000" font-family="sans-serif" font-size="14" lengthAdjust="spacing" textLength="225" x="1073" y="337.6652">generalLedgerReferenceId:String</text><text fill="#000000" font-family="sans-serif" font-size="14" lengthAdjust="spacing" textLength="236" x="1073" y="354.1534">generalLedgerReferenceKey:String</text><text fill="#000000" font-family="sans-serif" font-size="14" lengthAdjust="spacing" textLength="168" x="1073" y="370.6417">generalLedgerKey:String</text><text fill="#000000" font-family="sans-serif" font-size="14" lengthAdjust="spacing" textLength="97" x="1073" y="387.13">context:String</text><text fill="#000000" font-family="sans-serif" font-size="14" lengthAdjust="spacing" textLength="227" x="1073" y="403.6183">generalLedgerIdentifier:Identifier</text><text fill="#000000" font-family="sans-serif" font-size="14" lengthAdjust="spacing" textLength="176" x="1073" y="420.1066">occurrenceDateTime:Date</text><line style="stroke:#181818;stroke-width:0.5;" x1="1068" x2="1314" y1="427.0597" y2="427.0597"/></g><g id="elem_Identifier"><rect codeLine="52" fill="#F1F1F1" height="146.9297" id="Identifier" rx="2.5" ry="2.5" style="stroke:#181818;stroke-width:0.5;" width="152" x="829" y="15.24"/><ellipse cx="870.1" cy="31.24" fill="#ADD1B2" rx="11" ry="11" style="stroke:#181818;stroke-width:1.0;"/><path d="M872.5731,37.3831 Q871.9921,37.6819 871.3529,37.8313 Q870.7138,37.9807 870.0082,37.9807 Q867.5014,37.9807 866.1815,36.3289 Q864.8617,34.677 864.8617,31.5559 Q864.8617,28.4265 866.1815,26.7747 Q867.5014,25.1228 870.0082,25.1228 Q870.7138,25.1228 871.3612,25.2722 Q872.0087,25.4216 872.5731,25.7205 L872.5731,28.4431 Q871.9423,27.8621 871.3488,27.5923 Q870.7553,27.3225 870.1244,27.3225 Q868.7797,27.3225 868.0949,28.3892 Q867.4101,29.4558 867.4101,31.5559 Q867.4101,33.6477 868.0949,34.7144 Q868.7797,35.781 870.1244,35.781 Q870.7553,35.781 871.3488,35.5112 Q871.9423,35.2415 872.5731,34.6604 Z " fill="#000000"/><text fill="#000000" font-family="sans-serif" font-size="14" lengthAdjust="spacing" textLength="62" x="889.9" y="36.531">Identifier</text><line style="stroke:#181818;stroke-width:0.5;" x1="830" x2="980" y1="47.24" y2="47.24"/><text fill="#000000" font-family="sans-serif" font-size="14" lengthAdjust="spacing" textLength="120" x="835" y="64.7752">identifierId:String</text><text fill="#000000" font-family="sans-serif" font-size="14" lengthAdjust="spacing" textLength="131" x="835" y="81.2634">identifierKey:String</text><text fill="#000000" font-family="sans-serif" font-size="14" lengthAdjust="spacing" textLength="97" x="835" y="97.7517">context:String</text><text fill="#000000" font-family="sans-serif" font-size="14" lengthAdjust="spacing" textLength="81" x="835" y="114.24">value:String</text><text fill="#000000" font-family="sans-serif" font-size="14" lengthAdjust="spacing" textLength="83" x="835" y="130.7283">detail:String</text><text fill="#000000" font-family="sans-serif" font-size="14" lengthAdjust="spacing" textLength="140" x="835" y="147.2166">identifierType:String</text><line style="stroke:#181818;stroke-width:0.5;" x1="830" x2="980" y1="154.1697" y2="154.1697"/></g><g id="elem_Money"><rect codeLine="60" fill="#F1F1F1" height="146.9297" id="Money" rx="2.5" ry="2.5" style="stroke:#181818;stroke-width:0.5;" width="152" x="1366" y="15.24"/><ellipse cx="1415.25" cy="31.24" fill="#ADD1B2" rx="11" ry="11" style="stroke:#181818;stroke-width:1.0;"/><path d="M1417.7231,37.3831 Q1417.1421,37.6819 1416.5029,37.8313 Q1415.8638,37.9807 1415.1582,37.9807 Q1412.6514,37.9807 1411.3315,36.3289 Q1410.0117,34.677 1410.0117,31.5559 Q1410.0117,28.4265 1411.3315,26.7747 Q1412.6514,25.1228 1415.1582,25.1228 Q1415.8638,25.1228 1416.5112,25.2722 Q1417.1587,25.4216 1417.7231,25.7205 L1417.7231,28.4431 Q1417.0923,27.8621 1416.4988,27.5923 Q1415.9053,27.3225 1415.2744,27.3225 Q1413.9297,27.3225 1413.2449,28.3892 Q1412.5601,29.4558 1412.5601,31.5559 Q1412.5601,33.6477 1413.2449,34.7144 Q1413.9297,35.781 1415.2744,35.781 Q1415.9053,35.781 1416.4988,35.5112 Q1417.0923,35.2415 1417.7231,34.6604 Z " fill="#000000"/><text fill="#000000" font-family="sans-serif" font-size="14" lengthAdjust="spacing" textLength="45" x="1435.75" y="36.531">Money</text><line style="stroke:#181818;stroke-width:0.5;" x1="1367" x2="1517" y1="47.24" y2="47.24"/><text fill="#000000" font-family="sans-serif" font-size="14" lengthAdjust="spacing" textLength="115" x="1372" y="64.7752">moneyKey:String</text><text fill="#000000" font-family="sans-serif" font-size="14" lengthAdjust="spacing" textLength="104" x="1372" y="81.2634">moneyId:String</text><text fill="#000000" font-family="sans-serif" font-size="14" lengthAdjust="spacing" textLength="140" x="1372" y="97.7517">currencyCode:String</text><text fill="#000000" font-family="sans-serif" font-size="14" lengthAdjust="spacing" textLength="131" x="1372" y="114.24">displayValue:String</text><text fill="#000000" font-family="sans-serif" font-size="14" lengthAdjust="spacing" textLength="85" x="1372" y="130.7283">locale:String</text><text fill="#000000" font-family="sans-serif" font-size="14" lengthAdjust="spacing" textLength="81" x="1372" y="147.2166">value:String</text><line style="stroke:#181818;stroke-width:0.5;" x1="1367" x2="1517" y1="154.1697" y2="154.1697"/></g><g id="elem_VarianceDetails"><rect codeLine="68" fill="#F1F1F1" height="97.4648" id="VarianceDetails" rx="2.5" ry="2.5" style="stroke:#181818;stroke-width:0.5;" width="190" x="1421" y="312.86"/><ellipse cx="1459.85" cy="328.86" fill="#ADD1B2" rx="11" ry="11" style="stroke:#181818;stroke-width:1.0;"/><path d="M1462.3231,335.0031 Q1461.7421,335.3019 1461.1029,335.4513 Q1460.4638,335.6007 1459.7582,335.6007 Q1457.2514,335.6007 1455.9315,333.9489 Q1454.6117,332.297 1454.6117,329.1759 Q1454.6117,326.0465 1455.9315,324.3947 Q1457.2514,322.7428 1459.7582,322.7428 Q1460.4638,322.7428 1461.1112,322.8922 Q1461.7587,323.0416 1462.3231,323.3405 L1462.3231,326.0631 Q1461.6923,325.4821 1461.0988,325.2123 Q1460.5053,324.9425 1459.8744,324.9425 Q1458.5297,324.9425 1457.8449,326.0092 Q1457.1601,327.0758 1457.1601,329.1759 Q1457.1601,331.2677 1457.8449,332.3344 Q1458.5297,333.401 1459.8744,333.401 Q1460.5053,333.401 1461.0988,333.1312 Q1461.6923,332.8615 1462.3231,332.2804 Z " fill="#000000"/><text fill="#000000" font-family="sans-serif" font-size="14" lengthAdjust="spacing" textLength="105" x="1479.15" y="334.151">VarianceDetails</text><line style="stroke:#181818;stroke-width:0.5;" x1="1422" x2="1610" y1="344.86" y2="344.86"/><text fill="#000000" font-family="sans-serif" font-size="14" lengthAdjust="spacing" textLength="161" x="1427" y="362.3952">varianceAmount:Money</text><text fill="#000000" font-family="sans-serif" font-size="14" lengthAdjust="spacing" textLength="178" x="1427" y="378.8834">variancePercentage:String</text><text fill="#000000" font-family="sans-serif" font-size="14" lengthAdjust="spacing" textLength="137" x="1427" y="395.3717">isFavorable:Boolean</text><line style="stroke:#181818;stroke-width:0.5;" x1="1422" x2="1610" y1="402.3248" y2="402.3248"/></g><g id="elem_AccountingPeriodStatusTypes"><rect codeLine="73" fill="#FAFF91" height="163.418" id="AccountingPeriodStatusTypes" rx="2.5" ry="2.5" style="stroke:#181818;stroke-width:0.5;" width="236" x="417" y="7"/><ellipse cx="432" cy="23" fill="#ADD1B2" rx="11" ry="11" style="stroke:#181818;stroke-width:1.0;"/><path d="M434.4731,29.1431 Q433.8921,29.4419 433.2529,29.5913 Q432.6138,29.7407 431.9082,29.7407 Q429.4014,29.7407 428.0815,28.0889 Q426.7617,26.437 426.7617,23.3159 Q426.7617,20.1865 428.0815,18.5347 Q429.4014,16.8828 431.9082,16.8828 Q432.6138,16.8828 433.2612,17.0322 Q433.9087,17.1816 434.4731,17.4805 L434.4731,20.2031 Q433.8423,19.6221 433.2488,19.3523 Q432.6553,19.0825 432.0244,19.0825 Q430.6797,19.0825 429.9949,20.1492 Q429.3101,21.2158 429.3101,23.3159 Q429.3101,25.4077 429.9949,26.4744 Q430.6797,27.541 432.0244,27.541 Q432.6553,27.541 433.2488,27.2712 Q433.8423,27.0015 434.4731,26.4204 Z " fill="#000000"/><text fill="#000000" font-family="sans-serif" font-size="14" lengthAdjust="spacing" textLength="204" x="446" y="28.291">AccountingPeriodStatusTypes</text><line style="stroke:#181818;stroke-width:0.5;" x1="418" x2="652" y1="39" y2="39"/><text fill="#000000" font-family="sans-serif" font-size="14" lengthAdjust="spacing" textLength="90" x="423" y="56.5352">ADJUSTMENT</text><text fill="#000000" font-family="sans-serif" font-size="14" lengthAdjust="spacing" textLength="54" x="423" y="73.0234">CLOSED</text><text fill="#000000" font-family="sans-serif" font-size="14" lengthAdjust="spacing" textLength="54" x="423" y="89.5117">FUTURE</text><text fill="#000000" font-family="sans-serif" font-size="14" lengthAdjust="spacing" textLength="55" x="423" y="106">LOCKED</text><text fill="#000000" font-family="sans-serif" font-size="14" lengthAdjust="spacing" textLength="37" x="423" y="122.4883">OPEN</text><text fill="#000000" font-family="sans-serif" font-size="14" lengthAdjust="spacing" textLength="47" x="423" y="138.9766">OTHER</text><text fill="#000000" font-family="sans-serif" font-size="14" lengthAdjust="spacing" textLength="130" x="423" y="155.4648">PENDING_CLOSURE</text><line style="stroke:#181818;stroke-width:0.5;" x1="418" x2="652" y1="162.418" y2="162.418"/></g><g id="elem_FinancialCategoryTypes"><rect codeLine="82" fill="#FAFF91" height="262.3477" id="FinancialCategoryTypes" rx="2.5" ry="2.5" style="stroke:#181818;stroke-width:0.5;" width="195" x="1645.5" y="230.42"/><ellipse cx="1660.5" cy="246.42" fill="#ADD1B2" rx="11" ry="11" style="stroke:#181818;stroke-width:1.0;"/><path d="M1662.9731,252.5631 Q1662.3921,252.8619 1661.7529,253.0113 Q1661.1138,253.1607 1660.4082,253.1607 Q1657.9014,253.1607 1656.5815,251.5089 Q1655.2617,249.857 1655.2617,246.7359 Q1655.2617,243.6065 1656.5815,241.9547 Q1657.9014,240.3028 1660.4082,240.3028 Q1661.1138,240.3028 1661.7612,240.4522 Q1662.4087,240.6016 1662.9731,240.9005 L1662.9731,243.6231 Q1662.3423,243.0421 1661.7488,242.7723 Q1661.1553,242.5025 1660.5244,242.5025 Q1659.1797,242.5025 1658.4949,243.5692 Q1657.8101,244.6358 1657.8101,246.7359 Q1657.8101,248.8277 1658.4949,249.8944 Q1659.1797,250.961 1660.5244,250.961 Q1661.1553,250.961 1661.7488,250.6912 Q1662.3423,250.4215 1662.9731,249.8404 Z " fill="#000000"/><text fill="#000000" font-family="sans-serif" font-size="14" lengthAdjust="spacing" textLength="163" x="1674.5" y="251.711">FinancialCategoryTypes</text><line style="stroke:#181818;stroke-width:0.5;" x1="1646.5" x2="1839.5" y1="262.42" y2="262.42"/><text fill="#000000" font-family="sans-serif" font-size="14" lengthAdjust="spacing" textLength="45" x="1651.5" y="279.9552">CAPEX</text><text fill="#000000" font-family="sans-serif" font-size="14" lengthAdjust="spacing" textLength="78" x="1651.5" y="296.4434">HARDWARE</text><text fill="#000000" font-family="sans-serif" font-size="14" lengthAdjust="spacing" textLength="101" x="1651.5" y="312.9317">MAINTENANCE</text><text fill="#000000" font-family="sans-serif" font-size="14" lengthAdjust="spacing" textLength="36" x="1651.5" y="329.42">OPEX</text><text fill="#000000" font-family="sans-serif" font-size="14" lengthAdjust="spacing" textLength="47" x="1651.5" y="345.9083">OTHER</text><text fill="#000000" font-family="sans-serif" font-size="14" lengthAdjust="spacing" textLength="36" x="1651.5" y="362.3966">RENT</text><text fill="#000000" font-family="sans-serif" font-size="14" lengthAdjust="spacing" textLength="62" x="1651.5" y="378.8848">REVENUE</text><text fill="#000000" font-family="sans-serif" font-size="14" lengthAdjust="spacing" textLength="53" x="1651.5" y="395.3731">SALARY</text><text fill="#000000" font-family="sans-serif" font-size="14" lengthAdjust="spacing" textLength="75" x="1651.5" y="411.8614">SOFTWARE</text><text fill="#000000" font-family="sans-serif" font-size="14" lengthAdjust="spacing" textLength="28" x="1651.5" y="428.3497">TAX</text><text fill="#000000" font-family="sans-serif" font-size="14" lengthAdjust="spacing" textLength="66" x="1651.5" y="444.838">TRAINING</text><text fill="#000000" font-family="sans-serif" font-size="14" lengthAdjust="spacing" textLength="52" x="1651.5" y="461.3262">TRAVEL</text><text fill="#000000" font-family="sans-serif" font-size="14" lengthAdjust="spacing" textLength="63" x="1651.5" y="477.8145">UTILITIES</text><line style="stroke:#181818;stroke-width:0.5;" x1="1646.5" x2="1839.5" y1="484.7677" y2="484.7677"/></g><g id="link_AccountingPeriod_BudgetVarianceReport"><path codeLine="97" d="M467.85,460.21 C443.3,495.9 415.98,535.62 393.17,568.78 " fill="none" id="AccountingPeriod-BudgetVarianceReport" style="stroke:#181818;stroke-width:1.0;"/></g><g id="link_AccountingPeriodStatusTypes_AccountingPeriod"><path codeLine="98" d="M535,170.61 C535,199.77 535,232.97 535,263.37 " fill="none" id="AccountingPeriodStatusTypes-AccountingPeriod" style="stroke:#181818;stroke-width:1.0;"/></g><g id="link_BudgetVarianceReportCriteria_BudgetVarianceReport"><path codeLine="99" d="M188.82,418.74 C218.71,461.96 260.25,522.04 292.69,568.95 " fill="none" id="BudgetVarianceReportCriteria-BudgetVarianceReport" style="stroke:#181818;stroke-width:1.0;"/></g><g id="link_ControlAccountReference_BudgetVarianceLineItem"><path codeLine="100" d="M977.56,435.28 C999.72,455.34 1024.9,476.14 1050,492.76 C1095.88,523.14 1148.93,550.61 1198.4,573.45 " fill="none" id="ControlAccountReference-BudgetVarianceLineItem" style="stroke:#181818;stroke-width:1.0;"/></g><g id="link_FinancialCategoryTypes_BudgetVarianceLineItem"><path codeLine="101" d="M1645.23,478.62 C1639.89,483.55 1634.47,488.3 1629,492.76 C1601.12,515.54 1569.31,536.86 1537.71,555.85 " fill="none" id="FinancialCategoryTypes-BudgetVarianceLineItem" style="stroke:#181818;stroke-width:1.0;"/></g><g id="link_GeneralLedgerReference_BudgetVarianceLineItem"><path codeLine="102" d="M1237.04,435.2 C1259.73,470.98 1287.3,514.45 1311.28,552.26 " fill="none" id="GeneralLedgerReference-BudgetVarianceLineItem" style="stroke:#181818;stroke-width:1.0;"/></g><g id="link_Identifier_ControlAccountReference"><path codeLine="103" d="M905,162.66 C905,201.52 905,249.17 905,287.98 " fill="none" id="Identifier-ControlAccountReference" style="stroke:#181818;stroke-width:1.0;"/></g><g id="link_Identifier_GeneralLedgerReference"><path codeLine="104" d="M981.27,161.94 C1022.47,200.97 1073.2,249.02 1114.45,288.09 " fill="none" id="Identifier-GeneralLedgerReference" style="stroke:#181818;stroke-width:1.0;"/></g><g id="link_Identifier_AccountingPeriod"><path codeLine="105" d="M819.0977,152.5989 C772.8777,186.4389 722.29,223.48 668.37,262.95 " fill="none" id="Identifier-backto-AccountingPeriod" style="stroke:#181818;stroke-width:1.0;"/><polygon fill="#181818" points="828.78,145.51,821.5759,145.827,819.0977,152.5989,826.3018,152.2819,828.78,145.51" style="stroke:#181818;stroke-width:1.0;"/></g><g id="link_Money_BudgetVarianceLineItem"><path codeLine="106" d="M1419.06,162.51 C1412.98,184.17 1407.01,208.09 1403,230.42 C1383.28,340.28 1374.6,468.7 1370.82,552.44 " fill="none" id="Money-BudgetVarianceLineItem" style="stroke:#181818;stroke-width:1.0;"/></g><g id="link_Money_VarianceDetails"><path codeLine="107" d="M1461.93,162.66 C1474.94,210.29 1491.56,271.14 1502.92,312.72 " fill="none" id="Money-VarianceDetails" style="stroke:#181818;stroke-width:1.0;"/></g><g id="link_VarianceDetails_BudgetVarianceLineItem"><path codeLine="108" d="M1490.56,410.57 C1469.94,449.46 1440.31,505.34 1415.35,552.41 " fill="none" id="VarianceDetails-BudgetVarianceLineItem" style="stroke:#181818;stroke-width:1.0;"/></g></g></svg>