<?xml version="1.0" encoding="us-ascii" standalone="no"?><svg xmlns="http://www.w3.org/2000/svg" xmlns:xlink="http://www.w3.org/1999/xlink" contentStyleType="text/css" height="724px" preserveAspectRatio="none" style="width:3818px;height:724px;background:#FFFFFF;" version="1.1" viewBox="0 0 3818 724" width="3818px" zoomAndPan="magnify"><defs/><g><g id="elem_AddressReference"><rect fill="#F1F1F1" height="36.4883" rx="2.5" ry="2.5" style="stroke:#181818;stroke-width:0.5;" width="144" x="1549" y="489.45"/><text fill="#000000" font-family="sans-serif" font-size="14" lengthAdjust="spacing" textLength="124" x="1559" y="512.9852">AddressReference</text></g><g id="elem_ControlAccountReference"><rect fill="#F1F1F1" height="36.4883" rx="2.5" ry="2.5" style="stroke:#181818;stroke-width:0.5;" width="196" x="1640" y="296.47"/><text fill="#000000" font-family="sans-serif" font-size="14" lengthAdjust="spacing" textLength="176" x="1650" y="320.0052">ControlAccountReference</text></g><g id="elem_CreditReference"><rect fill="#F1F1F1" height="36.4883" rx="2.5" ry="2.5" style="stroke:#181818;stroke-width:0.5;" width="130" x="2117" y="296.47"/><text fill="#000000" font-family="sans-serif" font-size="14" lengthAdjust="spacing" textLength="110" x="2127" y="320.0052">CreditReference</text></g><g id="elem_DiscountReference"><rect fill="#F1F1F1" height="36.4883" rx="2.5" ry="2.5" style="stroke:#181818;stroke-width:0.5;" width="148" x="2282" y="296.47"/><text fill="#000000" font-family="sans-serif" font-size="14" lengthAdjust="spacing" textLength="128" x="2292" y="320.0052">DiscountReference</text></g><g id="elem_EffectivePeriod"><rect fill="#F1F1F1" height="36.4883" rx="2.5" ry="2.5" style="stroke:#181818;stroke-width:0.5;" width="121" x="3629.5" y="103.49"/><text fill="#000000" font-family="sans-serif" font-size="14" lengthAdjust="spacing" textLength="101" x="3639.5" y="127.0252">EffectivePeriod</text></g><g id="elem_FeeReference"><rect fill="#F1F1F1" height="36.4883" rx="2.5" ry="2.5" style="stroke:#181818;stroke-width:0.5;" width="112" x="2465" y="296.47"/><text fill="#000000" font-family="sans-serif" font-size="14" lengthAdjust="spacing" textLength="92" x="2475" y="320.0052">FeeReference</text></g><g id="elem_FinancialCategoryReference"><rect fill="#F1F1F1" height="36.4883" rx="2.5" ry="2.5" style="stroke:#181818;stroke-width:0.5;" width="211" x="1208.5" y="296.47"/><text fill="#000000" font-family="sans-serif" font-size="14" lengthAdjust="spacing" textLength="191" x="1218.5" y="320.0052">FinancialCategoryReference</text></g><g id="elem_FinancialEvent"><rect fill="#F1F1F1" height="36.4883" rx="2.5" ry="2.5" style="stroke:#181818;stroke-width:0.5;" width="118" x="1175" y="392.96"/><text fill="#000000" font-family="sans-serif" font-size="14" lengthAdjust="spacing" textLength="98" x="1185" y="416.4952">FinancialEvent</text></g><g id="elem_FinancialSplit"><rect fill="#F1F1F1" height="36.4883" rx="2.5" ry="2.5" style="stroke:#181818;stroke-width:0.5;" width="111" x="2334.5" y="392.96"/><text fill="#000000" font-family="sans-serif" font-size="14" lengthAdjust="spacing" textLength="91" x="2344.5" y="416.4952">FinancialSplit</text></g><g id="elem_FinancialTrack"><rect fill="#F1F1F1" height="36.4883" rx="2.5" ry="2.5" style="stroke:#181818;stroke-width:0.5;" width="119" x="2578.5" y="489.45"/><text fill="#000000" font-family="sans-serif" font-size="14" lengthAdjust="spacing" textLength="99" x="2588.5" y="512.9852">FinancialTrack</text></g><g id="elem_Identifier"><rect fill="#F1F1F1" height="36.4883" rx="2.5" ry="2.5" style="stroke:#181818;stroke-width:0.5;" width="82" x="1971" y="199.98"/><text fill="#000000" font-family="sans-serif" font-size="14" lengthAdjust="spacing" textLength="62" x="1981" y="223.5152">Identifier</text></g><g id="elem_Invoice"><rect fill="#F1F1F1" height="36.4883" rx="2.5" ry="2.5" style="stroke:#181818;stroke-width:0.5;" width="68" x="2356" y="682.42"/><text fill="#000000" font-family="sans-serif" font-size="14" lengthAdjust="spacing" textLength="48" x="2366" y="705.9552">Invoice</text></g><g id="elem_InvoiceItem"><rect fill="#F1F1F1" height="36.4883" rx="2.5" ry="2.5" style="stroke:#181818;stroke-width:0.5;" width="98" x="2341" y="585.93"/><text fill="#000000" font-family="sans-serif" font-size="14" lengthAdjust="spacing" textLength="78" x="2351" y="609.4652">InvoiceItem</text></g><g id="elem_PartReference"><rect fill="#F1F1F1" height="36.4883" rx="2.5" ry="2.5" style="stroke:#181818;stroke-width:0.5;" width="115" x="1940.5" y="489.45"/><text fill="#000000" font-family="sans-serif" font-size="14" lengthAdjust="spacing" textLength="95" x="1950.5" y="512.9852">PartReference</text></g><g id="elem_PartyIdentifier"><rect fill="#F1F1F1" height="36.4883" rx="2.5" ry="2.5" style="stroke:#181818;stroke-width:0.5;" width="116" x="3626" y="296.47"/><text fill="#000000" font-family="sans-serif" font-size="14" lengthAdjust="spacing" textLength="96" x="3636" y="320.0052">PartyIdentifier</text></g><g id="elem_PaymentScheduleReference"><rect fill="#F1F1F1" height="36.4883" rx="2.5" ry="2.5" style="stroke:#181818;stroke-width:0.5;" width="208" x="595" y="392.96"/><text fill="#000000" font-family="sans-serif" font-size="14" lengthAdjust="spacing" textLength="188" x="605" y="416.4952">PaymentScheduleReference</text></g><g id="elem_PaymentTermReference"><rect fill="#F1F1F1" height="36.4883" rx="2.5" ry="2.5" style="stroke:#181818;stroke-width:0.5;" width="182" x="272" y="392.96"/><text fill="#000000" font-family="sans-serif" font-size="14" lengthAdjust="spacing" textLength="162" x="282" y="416.4952">PaymentTermReference</text></g><g id="elem_Price"><rect fill="#F1F1F1" height="36.4883" rx="2.5" ry="2.5" style="stroke:#181818;stroke-width:0.5;" width="53" x="3386.5" y="199.98"/><text fill="#000000" font-family="sans-serif" font-size="14" lengthAdjust="spacing" textLength="33" x="3396.5" y="223.5152">Price</text></g><g id="elem_PricePlanReference"><rect fill="#F1F1F1" height="36.4883" rx="2.5" ry="2.5" style="stroke:#181818;stroke-width:0.5;" width="150" x="2875" y="392.96"/><text fill="#000000" font-family="sans-serif" font-size="14" lengthAdjust="spacing" textLength="130" x="2885" y="416.4952">PricePlanReference</text></g><g id="elem_RebateReference"><rect fill="#F1F1F1" height="36.4883" rx="2.5" ry="2.5" style="stroke:#181818;stroke-width:0.5;" width="135" x="2612.5" y="296.47"/><text fill="#000000" font-family="sans-serif" font-size="14" lengthAdjust="spacing" textLength="115" x="2622.5" y="320.0052">RebateReference</text></g><g id="elem_RewardReference"><rect fill="#F1F1F1" height="36.4883" rx="2.5" ry="2.5" style="stroke:#181818;stroke-width:0.5;" width="139" x="1942.5" y="296.47"/><text fill="#000000" font-family="sans-serif" font-size="14" lengthAdjust="spacing" textLength="119" x="1952.5" y="320.0052">RewardReference</text></g><g id="elem_ShipmentReference"><rect fill="#F1F1F1" height="36.4883" rx="2.5" ry="2.5" style="stroke:#181818;stroke-width:0.5;" width="153" x="2615.5" y="392.96"/><text fill="#000000" font-family="sans-serif" font-size="14" lengthAdjust="spacing" textLength="133" x="2625.5" y="416.4952">ShipmentReference</text></g><g id="elem_TaxSplit"><rect fill="#F1F1F1" height="36.4883" rx="2.5" ry="2.5" style="stroke:#181818;stroke-width:0.5;" width="76" x="3515" y="296.47"/><text fill="#000000" font-family="sans-serif" font-size="14" lengthAdjust="spacing" textLength="56" x="3525" y="320.0052">TaxSplit</text></g><g id="elem_TextualDetail"><rect fill="#F1F1F1" height="36.4883" rx="2.5" ry="2.5" style="stroke:#181818;stroke-width:0.5;" width="111" x="201.5" y="296.47"/><text fill="#000000" font-family="sans-serif" font-size="14" lengthAdjust="spacing" textLength="91" x="211.5" y="320.0052">TextualDetail</text></g><g id="elem_AddressTypes"><rect fill="#FAFF91" height="36.4883" rx="2.5" ry="2.5" style="stroke:#181818;stroke-width:0.5;" width="116" x="1024" y="392.96"/><text fill="#000000" font-family="sans-serif" font-size="14" lengthAdjust="spacing" textLength="96" x="1034" y="416.4952">AddressTypes</text></g><g id="elem_DurationUOMTypes"><rect fill="#FAFF91" height="36.4883" rx="2.5" ry="2.5" style="stroke:#181818;stroke-width:0.5;" width="153" x="3613.5" y="7"/><text fill="#000000" font-family="sans-serif" font-size="14" lengthAdjust="spacing" textLength="133" x="3623.5" y="30.5352">DurationUOMTypes</text></g><g id="elem_ExitConsiderationTypes"><rect fill="#FAFF91" height="36.4883" rx="2.5" ry="2.5" style="stroke:#181818;stroke-width:0.5;" width="183" x="3017.5" y="489.45"/><text fill="#000000" font-family="sans-serif" font-size="14" lengthAdjust="spacing" textLength="163" x="3027.5" y="512.9852">ExitConsiderationTypes</text></g><g id="elem_FinancialEventTypes"><rect fill="#FAFF91" height="36.4883" rx="2.5" ry="2.5" style="stroke:#181818;stroke-width:0.5;" width="158" x="739" y="296.47"/><text fill="#000000" font-family="sans-serif" font-size="14" lengthAdjust="spacing" textLength="138" x="749" y="320.0052">FinancialEventTypes</text></g><g id="elem_FinancialTransactionTypes"><rect fill="#FAFF91" height="36.4883" rx="2.5" ry="2.5" style="stroke:#181818;stroke-width:0.5;" width="202" x="2783" y="296.47"/><text fill="#000000" font-family="sans-serif" font-size="14" lengthAdjust="spacing" textLength="182" x="2793" y="320.0052">FinancialTransactionTypes</text></g><g id="elem_InvoiceStatusTypes"><rect fill="#FAFF91" height="36.4883" rx="2.5" ry="2.5" style="stroke:#181818;stroke-width:0.5;" width="150" x="2616" y="585.93"/><text fill="#000000" font-family="sans-serif" font-size="14" lengthAdjust="spacing" textLength="130" x="2626" y="609.4652">InvoiceStatusTypes</text></g><g id="elem_InvoiceTypes"><rect fill="#FAFF91" height="36.4883" rx="2.5" ry="2.5" style="stroke:#181818;stroke-width:0.5;" width="108" x="2801" y="585.93"/><text fill="#000000" font-family="sans-serif" font-size="14" lengthAdjust="spacing" textLength="88" x="2811" y="609.4652">InvoiceTypes</text></g><g id="elem_LedgerActionTypes"><rect fill="#FAFF91" height="36.4883" rx="2.5" ry="2.5" style="stroke:#181818;stroke-width:0.5;" width="151" x="1454.5" y="296.47"/><text fill="#000000" font-family="sans-serif" font-size="14" lengthAdjust="spacing" textLength="131" x="1464.5" y="320.0052">LedgerActionTypes</text></g><g id="elem_OrderCategoryTypes"><rect fill="#FAFF91" height="36.4883" rx="2.5" ry="2.5" style="stroke:#181818;stroke-width:0.5;" width="162" x="3236" y="489.45"/><text fill="#000000" font-family="sans-serif" font-size="14" lengthAdjust="spacing" textLength="142" x="3246" y="512.9852">OrderCategoryTypes</text></g><g id="elem_OrderStageTypes"><rect fill="#FAFF91" height="36.4883" rx="2.5" ry="2.5" style="stroke:#181818;stroke-width:0.5;" width="138" x="3015" y="585.93"/><text fill="#000000" font-family="sans-serif" font-size="14" lengthAdjust="spacing" textLength="118" x="3025" y="609.4652">OrderStageTypes</text></g><g id="elem_OrderTypes"><rect fill="#FAFF91" height="36.4883" rx="2.5" ry="2.5" style="stroke:#181818;stroke-width:0.5;" width="100" x="2443" y="489.45"/><text fill="#000000" font-family="sans-serif" font-size="14" lengthAdjust="spacing" textLength="80" x="2453" y="512.9852">OrderTypes</text></g><g id="elem_PartInvoiceStatusTypes"><rect fill="#FAFF91" height="36.4883" rx="2.5" ry="2.5" style="stroke:#181818;stroke-width:0.5;" width="177" x="2160.5" y="489.45"/><text fill="#000000" font-family="sans-serif" font-size="14" lengthAdjust="spacing" textLength="157" x="2170.5" y="512.9852">PartInvoiceStatusTypes</text></g><g id="elem_PartyRelationshipTypes"><rect fill="#FAFF91" height="36.4883" rx="2.5" ry="2.5" style="stroke:#181818;stroke-width:0.5;" width="179" x="3594.5" y="199.98"/><text fill="#000000" font-family="sans-serif" font-size="14" lengthAdjust="spacing" textLength="159" x="3604.5" y="223.5152">PartyRelationshipTypes</text></g><g id="elem_PaymentMethodTypes"><rect fill="#FAFF91" height="36.4883" rx="2.5" ry="2.5" style="stroke:#181818;stroke-width:0.5;" width="170" x="932" y="296.47"/><text fill="#000000" font-family="sans-serif" font-size="14" lengthAdjust="spacing" textLength="150" x="942" y="320.0052">PaymentMethodTypes</text></g><g id="elem_PaymentStatusTypes"><rect fill="#FAFF91" height="36.4883" rx="2.5" ry="2.5" style="stroke:#181818;stroke-width:0.5;" width="160" x="3188" y="585.93"/><text fill="#000000" font-family="sans-serif" font-size="14" lengthAdjust="spacing" textLength="140" x="3198" y="609.4652">PaymentStatusTypes</text></g><g id="elem_PaymentTransactionTypes"><rect fill="#FAFF91" height="36.4883" rx="2.5" ry="2.5" style="stroke:#181818;stroke-width:0.5;" width="199" x="347.5" y="296.47"/><text fill="#000000" font-family="sans-serif" font-size="14" lengthAdjust="spacing" textLength="179" x="357.5" y="320.0052">PaymentTransactionTypes</text></g><g id="elem_PaymentTypes"><rect fill="#FAFF91" height="36.4883" rx="2.5" ry="2.5" style="stroke:#181818;stroke-width:0.5;" width="118" x="3433" y="489.45"/><text fill="#000000" font-family="sans-serif" font-size="14" lengthAdjust="spacing" textLength="98" x="3443" y="512.9852">PaymentTypes</text></g><g id="elem_PriceTypes"><rect fill="#FAFF91" height="36.4883" rx="2.5" ry="2.5" style="stroke:#181818;stroke-width:0.5;" width="93" x="3366.5" y="103.49"/><text fill="#000000" font-family="sans-serif" font-size="14" lengthAdjust="spacing" textLength="73" x="3376.5" y="127.0252">PriceTypes</text></g><g id="elem_ProductPriceItemTypes"><rect fill="#FAFF91" height="36.4883" rx="2.5" ry="2.5" style="stroke:#181818;stroke-width:0.5;" width="176" x="3020" y="296.47"/><text fill="#000000" font-family="sans-serif" font-size="14" lengthAdjust="spacing" textLength="156" x="3030" y="320.0052">ProductPriceItemTypes</text></g><g id="elem_ProductTypes"><rect fill="#FAFF91" height="36.4883" rx="2.5" ry="2.5" style="stroke:#181818;stroke-width:0.5;" width="113" x="1941.5" y="392.96"/><text fill="#000000" font-family="sans-serif" font-size="14" lengthAdjust="spacing" textLength="93" x="1951.5" y="416.4952">ProductTypes</text></g><g id="elem_ResourceTypes"><rect fill="#FAFF91" height="36.4883" rx="2.5" ry="2.5" style="stroke:#181818;stroke-width:0.5;" width="123" x="581.5" y="296.47"/><text fill="#000000" font-family="sans-serif" font-size="14" lengthAdjust="spacing" textLength="103" x="591.5" y="320.0052">ResourceTypes</text></g><g id="elem_TaxTypes"><rect fill="#FAFF91" height="36.4883" rx="2.5" ry="2.5" style="stroke:#181818;stroke-width:0.5;" width="86" x="3474" y="199.98"/><text fill="#000000" font-family="sans-serif" font-size="14" lengthAdjust="spacing" textLength="66" x="3484" y="223.5152">TaxTypes</text></g><g id="link_AddressReference_InvoiceItem"><path d="M1693.35,517.58 C1848.32,536.62 2208.96,580.93 2340.69,597.12 " fill="none" id="AddressReference-InvoiceItem" style="stroke:#181818;stroke-width:1.0;"/></g><g id="link_AddressReference_Invoice"><path d="M1636.5095,536.5094 C1651.6295,562.4694 1677.84,600.22 1720,622.42 C1832.41,681.61 2235.66,695.96 2355.92,698.96 " fill="none" id="AddressReference-backto-Invoice" style="stroke:#181818;stroke-width:1.0;"/><polygon fill="#181818" points="1630.47,526.14,1630.0333,533.3379,1636.5095,536.5094,1636.9462,529.3115,1630.47,526.14" style="stroke:#181818;stroke-width:1.0;"/></g><g id="link_AddressTypes_AddressReference"><path d="M1152.1974,428.553 C1157.7774,429.763 1151.63,428.38 1157,429.45 C1294.99,456.77 1457.35,482.29 1548.82,496.07 " fill="none" id="AddressTypes-backto-AddressReference" style="stroke:#181818;stroke-width:1.0;"/><polygon fill="#181818" points="1140.47,426.01,1145.486,431.1907,1152.1974,428.553,1147.1814,423.3724,1140.47,426.01" style="stroke:#181818;stroke-width:1.0;"/></g><g id="link_ControlAccountReference_FinancialEvent"><path d="M1643.5,333.43 C1540.74,352.69 1379.68,382.89 1293.35,399.07 " fill="none" id="ControlAccountReference-FinancialEvent" style="stroke:#181818;stroke-width:1.0;"/></g><g id="link_ControlAccountReference_FinancialSplit"><path d="M1836.32,329.96 C1975.06,350.07 2223.69,386.1 2334.3,402.13 " fill="none" id="ControlAccountReference-FinancialSplit" style="stroke:#181818;stroke-width:1.0;"/></g><g id="link_ControlAccountReference_Invoice"><path d="M1748.74,333.22 C1783.02,387.35 1895.97,552.57 2038,622.42 C2146.08,675.57 2290.65,692.47 2355.72,697.58 " fill="none" id="ControlAccountReference-Invoice" style="stroke:#181818;stroke-width:1.0;"/></g><g id="link_CreditReference_FinancialSplit"><path d="M2231.5652,338.2239 C2268.8052,355.1439 2313.93,375.64 2351.22,392.58 " fill="none" id="CreditReference-backto-FinancialSplit" style="stroke:#181818;stroke-width:1.0;"/><polygon fill="#181818" points="2220.64,333.26,2224.448,339.3837,2231.5652,338.2239,2227.7572,332.1002,2220.64,333.26" style="stroke:#181818;stroke-width:1.0;"/></g><g id="link_DiscountReference_FinancialSplit"><path d="M2366.2976,344.3332 C2372.3876,361.2832 2377.57,375.65 2383.69,392.66 " fill="none" id="DiscountReference-backto-FinancialSplit" style="stroke:#181818;stroke-width:1.0;"/><polygon fill="#181818" points="2362.24,333.04,2360.5044,340.0391,2366.2976,344.3332,2368.0332,337.3341,2362.24,333.04" style="stroke:#181818;stroke-width:1.0;"/></g><g id="link_DurationUOMTypes_EffectivePeriod"><path d="M3690,43.58 C3690,60.52 3690,86.18 3690,103.2 " fill="none" id="DurationUOMTypes-EffectivePeriod" style="stroke:#181818;stroke-width:1.0;"/></g><g id="link_EffectivePeriod_PartyIdentifier"><path d="M3725.74,140.37 C3762.27,160.99 3811.02,197.32 3791,236.47 C3777.18,263.5 3749,283.24 3725.03,296 " fill="none" id="EffectivePeriod-PartyIdentifier" style="stroke:#181818;stroke-width:1.0;"/></g><g id="link_EffectivePeriod_Price"><path d="M3633.69,140.47 C3586.32,155.62 3516.92,178.32 3457,199.98 C3451.44,201.99 3445.53,204.23 3439.91,206.42 " fill="none" id="EffectivePeriod-Price" style="stroke:#181818;stroke-width:1.0;"/></g><g id="link_ExitConsiderationTypes_Invoice"><path d="M3017.09,522.12 C3007.94,523.43 2998.79,524.71 2990,525.93 C2788.83,553.83 2724.45,507.77 2537,585.93 C2482.8,608.54 2431.37,656.48 2406.16,682.32 " fill="none" id="ExitConsiderationTypes-Invoice" style="stroke:#181818;stroke-width:1.0;"/></g><g id="link_ExitConsiderationTypes_InvoiceItem"><path d="M3017.11,522.28 C3007.96,523.56 2998.8,524.79 2990,525.93 C2757.54,556.08 2697.09,546.61 2466,585.93 C2457.33,587.41 2448.16,589.25 2439.31,591.17 " fill="none" id="ExitConsiderationTypes-InvoiceItem" style="stroke:#181818;stroke-width:1.0;"/></g><g id="link_FeeReference_FinancialSplit"><path d="M2486.9391,340.2821 C2463.4091,357.2621 2437.69,375.8 2414.2,392.74 " fill="none" id="FeeReference-backto-FinancialSplit" style="stroke:#181818;stroke-width:1.0;"/><polygon fill="#181818" points="2496.67,333.26,2489.4639,333.5274,2486.9391,340.2821,2494.1453,340.0147,2496.67,333.26" style="stroke:#181818;stroke-width:1.0;"/></g><g id="link_FinancialCategoryReference_FinancialEvent"><path d="M1291.5763,342.1986 C1277.2263,359.1486 1263.26,375.65 1248.85,392.66 " fill="none" id="FinancialCategoryReference-backto-FinancialEvent" style="stroke:#181818;stroke-width:1.0;"/><polygon fill="#181818" points="1299.33,333.04,1292.4003,335.0347,1291.5763,342.1986,1298.506,340.2039,1299.33,333.04" style="stroke:#181818;stroke-width:1.0;"/></g><g id="link_FinancialCategoryReference_FinancialSplit"><path d="M1431.8724,332.4177 C1437.6324,333.1177 1431.43,332.34 1437,332.96 C1776.88,370.52 2186.85,397.65 2334.03,406.81 " fill="none" id="FinancialCategoryReference-backto-FinancialSplit" style="stroke:#181818;stroke-width:1.0;"/><polygon fill="#181818" points="1419.96,330.97,1425.4336,335.6646,1431.8724,332.4177,1426.3987,327.7231,1419.96,330.97" style="stroke:#181818;stroke-width:1.0;"/></g><g id="link_FinancialEventTypes_FinancialEvent"><path d="M895.76,333.37 C976.66,351.75 1101.54,380.11 1174.78,396.75 " fill="none" id="FinancialEventTypes-FinancialEvent" style="stroke:#181818;stroke-width:1.0;"/></g><g id="link_FinancialEvent_Invoice"><path d="M1305.3635,416.4267 C1417.6335,423.8967 1643.78,443.96 1711,489.45 C1768.12,528.1 1733.26,584.7 1791,622.42 C1885.25,684 2242.89,696.62 2355.7,699.09 " fill="none" id="FinancialEvent-backto-Invoice" style="stroke:#181818;stroke-width:1.0;"/><polygon fill="#181818" points="1293.39,415.63,1299.1112,420.0195,1305.3635,416.4267,1299.6423,412.0372,1293.39,415.63" style="stroke:#181818;stroke-width:1.0;"/></g><g id="link_FinancialEvent_InvoiceItem"><path d="M1305.1395,420.2373 C1404.5495,431.8073 1599.18,456.24 1772,489.45 C1839.8,502.47 1855.34,512.18 1923,525.93 C2074.4,556.7 2255.29,583.94 2340.7,596.24 " fill="none" id="FinancialEvent-backto-InvoiceItem" style="stroke:#181818;stroke-width:1.0;"/><polygon fill="#181818" points="1293.22,418.85,1298.7173,423.5168,1305.1395,420.2373,1299.6422,415.5705,1293.22,418.85" style="stroke:#181818;stroke-width:1.0;"/></g><g id="link_FinancialSplit_FinancialTrack"><path d="M2447.5735,434.1328 C2491.8735,451.0128 2547.08,472.05 2591.45,488.95 " fill="none" id="FinancialSplit-backto-FinancialTrack" style="stroke:#181818;stroke-width:1.0;"/><polygon fill="#181818" points="2436.36,429.86,2440.5425,435.7342,2447.5735,434.1328,2443.391,428.2585,2436.36,429.86" style="stroke:#181818;stroke-width:1.0;"/></g><g id="link_FinancialSplit_Invoice"><path d="M2322.157,412.5981 C2263.757,415.7081 2186.64,430.07 2143,489.45 C2074.8,582.23 2273.18,660.92 2355.75,688.83 " fill="none" id="FinancialSplit-backto-Invoice" style="stroke:#181818;stroke-width:1.0;"/><polygon fill="#181818" points="2334.14,411.96,2327.9358,408.2847,2322.157,412.5981,2328.3612,416.2734,2334.14,411.96" style="stroke:#181818;stroke-width:1.0;"/></g><g id="link_FinancialSplit_InvoiceItem"><path d="M2390,441.83 C2390,478.21 2390,549.25 2390,585.6 " fill="none" id="FinancialSplit-backto-InvoiceItem" style="stroke:#181818;stroke-width:1.0;"/><polygon fill="#181818" points="2390,429.83,2386,435.83,2390,441.83,2394,435.83,2390,429.83" style="stroke:#181818;stroke-width:1.0;"/></g><g id="link_FinancialTrack_InvoiceItem"><path d="M2580.4265,530.6228 C2536.1265,547.5028 2480.92,568.54 2436.55,585.44 " fill="none" id="FinancialTrack-backto-InvoiceItem" style="stroke:#181818;stroke-width:1.0;"/><polygon fill="#181818" points="2591.64,526.35,2584.609,524.7485,2580.4265,530.6228,2587.4575,532.2242,2591.64,526.35" style="stroke:#181818;stroke-width:1.0;"/></g><g id="link_FinancialTransactionTypes_FinancialSplit"><path d="M2791.37,333.43 C2689.68,352.88 2529.71,383.48 2445.73,399.54 " fill="none" id="FinancialTransactionTypes-FinancialSplit" style="stroke:#181818;stroke-width:1.0;"/></g><g id="link_Identifier_ControlAccountReference"><path d="M1970.68,233.47 C1922.1,250.23 1841.44,278.04 1789,296.13 " fill="none" id="Identifier-ControlAccountReference" style="stroke:#181818;stroke-width:1.0;"/></g><g id="link_Identifier_CreditReference"><path d="M2043.58,236.78 C2074.02,253.69 2119.83,279.16 2150.3,296.1 " fill="none" id="Identifier-CreditReference" style="stroke:#181818;stroke-width:1.0;"/></g><g id="link_Identifier_DiscountReference"><path d="M2053.49,230.62 C2112.64,246.87 2221.74,276.84 2291.49,295.99 " fill="none" id="Identifier-DiscountReference" style="stroke:#181818;stroke-width:1.0;"/></g><g id="link_Identifier_FeeReference"><path d="M2053.33,225.75 C2130.93,238.17 2303.64,266.66 2448,296.47 C2453.48,297.6 2459.19,298.84 2464.88,300.12 " fill="none" id="Identifier-FeeReference" style="stroke:#181818;stroke-width:1.0;"/></g><g id="link_Identifier_FinancialCategoryReference"><path d="M1970.85,224.67 C1876.46,237.18 1637.07,269.01 1437,296.47 C1431.34,297.25 1425.53,298.05 1419.67,298.86 " fill="none" id="Identifier-FinancialCategoryReference" style="stroke:#181818;stroke-width:1.0;"/></g><g id="link_Identifier_PartyIdentifier"><path d="M2053.16,220.22 C2271.43,225.67 3295.19,253.15 3609,296.47 C3614.43,297.22 3620.04,298.17 3625.64,299.24 " fill="none" id="Identifier-PartyIdentifier" style="stroke:#181818;stroke-width:1.0;"/></g><g id="link_Identifier_PaymentScheduleReference"><path d="M1970.66,219.37 C1705.09,220.51 247.92,229.79 184,296.47 C172.78,308.18 173.42,320.67 184,332.96 C210.42,363.64 452.01,389.2 594.72,401.79 " fill="none" id="Identifier-PaymentScheduleReference" style="stroke:#181818;stroke-width:1.0;"/></g><g id="link_Identifier_PaymentTermReference"><path d="M1970.73,219.36 C1703.98,220.4 232.52,229.19 168,296.47 C125.21,341.09 209.2,373.91 279.97,392.52 " fill="none" id="Identifier-PaymentTermReference" style="stroke:#181818;stroke-width:1.0;"/></g><g id="link_Identifier_PricePlanReference"><path d="M2053.3,220.04 C2273.44,224.58 3300.52,248.28 3346,296.47 C3357.13,308.26 3356.31,320.44 3346,332.96 C3340.88,339.17 3138.54,376.36 3025.14,396.78 " fill="none" id="Identifier-PricePlanReference" style="stroke:#181818;stroke-width:1.0;"/></g><g id="link_Identifier_RebateReference"><path d="M2053.5,223.73 C2149.24,234.35 2392.85,262.61 2595,296.47 C2600.64,297.41 2606.48,298.46 2612.34,299.55 " fill="none" id="Identifier-RebateReference" style="stroke:#181818;stroke-width:1.0;"/></g><g id="link_Identifier_RewardReference"><path d="M2012,236.55 C2012,253.5 2012,279.16 2012,296.17 " fill="none" id="Identifier-RewardReference" style="stroke:#181818;stroke-width:1.0;"/></g><g id="link_Identifier_ShipmentReference"><path d="M2053.18,220.31 C2259.5,225.94 3172.45,253.22 3213,296.47 C3309.8,399.7 3627.67,264.19 2796,392.96 C2787.23,394.31 2778.05,395.78 2768.93,397.26 " fill="none" id="Identifier-ShipmentReference" style="stroke:#181818;stroke-width:1.0;"/></g><g id="link_Identifier_FinancialEvent"><path d="M1958.7323,220.166 C1799.5923,223.296 1243.98,238.27 1191,296.47 C1165.71,324.25 1196.38,368.39 1217.41,392.7 " fill="none" id="Identifier-backto-FinancialEvent" style="stroke:#181818;stroke-width:1.0;"/><polygon fill="#181818" points="1970.73,219.93,1964.6525,216.0488,1958.7323,220.166,1964.8098,224.0472,1970.73,219.93" style="stroke:#181818;stroke-width:1.0;"/></g><g id="link_Identifier_Invoice"><path d="M1958.5601,219.4589 C1699.8701,220.7289 323.92,230.58 148,296.47 C72.28,324.83 6,329.34 6,410.2 C6,410.2 6,410.2 6,508.69 C6,632.15 2064.37,691.06 2355.84,698.79 " fill="none" id="Identifier-backto-Invoice" style="stroke:#181818;stroke-width:1.0;"/><polygon fill="#181818" points="1970.56,219.4,1964.5404,215.4295,1958.5601,219.4589,1964.5797,223.4294,1970.56,219.4" style="stroke:#181818;stroke-width:1.0;"/></g><g id="link_Identifier_InvoiceItem"><path d="M2065.4265,220.4796 C2278.3665,225.6196 3229.28,251.05 3272,296.47 C3283.11,308.28 3282.61,320.69 3272,332.96 C3150.33,473.54 3020.5,302.62 2858,392.96 C2790.46,430.5 2812.21,486.09 2746,525.93 C2637.7,591.1 2591.49,558.96 2468,585.93 C2458.65,587.98 2448.68,590.17 2439.09,592.29 " fill="none" id="Identifier-backto-InvoiceItem" style="stroke:#181818;stroke-width:1.0;"/><polygon fill="#181818" points="2053.43,220.19,2059.3317,224.3336,2065.4265,220.4796,2059.5248,216.336,2053.43,220.19" style="stroke:#181818;stroke-width:1.0;"/></g><g id="link_Identifier_PartReference"><path d="M1971.4214,243.5504 C1951.3214,257.0204 1936.64,270.92 1925,296.47 C1900.49,350.25 1901.97,374.6 1924,429.45 C1933.9,454.09 1955.83,475.3 1973.26,489.23 " fill="none" id="Identifier-backto-PartReference" style="stroke:#181818;stroke-width:1.0;"/><polygon fill="#181818" points="1981.39,236.87,1974.1789,236.8874,1971.4214,243.5504,1978.6325,243.5331,1981.39,236.87" style="stroke:#181818;stroke-width:1.0;"/></g><g id="link_Identifier_TextualDetail"><path d="M1958.5127,220.3366 C1732.6527,225.1666 661.3,250.14 330,296.47 C324.45,297.24 318.71,298.25 313,299.38 " fill="none" id="Identifier-backto-TextualDetail" style="stroke:#181818;stroke-width:1.0;"/><polygon fill="#181818" points="1970.51,220.08,1964.4259,216.2092,1958.5127,220.3366,1964.5969,224.2074,1970.51,220.08" style="stroke:#181818;stroke-width:1.0;"/></g><g id="link_InvoiceItem_Invoice"><path d="M2390,634.51 C2390,651.45 2390,665.11 2390,682.13 " fill="none" id="InvoiceItem-backto-Invoice" style="stroke:#181818;stroke-width:1.0;"/><polygon fill="#181818" points="2390,622.51,2386,628.51,2390,634.51,2394,628.51,2390,622.51" style="stroke:#181818;stroke-width:1.0;"/></g><g id="link_InvoiceStatusTypes_Invoice"><path d="M2634.74,622.84 C2572.97,642.23 2475.77,672.74 2424.42,688.86 " fill="none" id="InvoiceStatusTypes-Invoice" style="stroke:#181818;stroke-width:1.0;"/></g><g id="link_InvoiceTypes_Invoice"><path d="M2800.8,618.41 C2794.8,619.8 2788.78,621.16 2783,622.42 C2650.86,651.22 2492.65,680.85 2424.27,693.42 " fill="none" id="InvoiceTypes-Invoice" style="stroke:#181818;stroke-width:1.0;"/></g><g id="link_LedgerActionTypes_FinancialEvent"><path d="M1474.67,333.37 C1421.8,350.25 1342.51,375.56 1289.56,392.47 " fill="none" id="LedgerActionTypes-FinancialEvent" style="stroke:#181818;stroke-width:1.0;"/></g><g id="link_LedgerActionTypes_FinancialSplit"><path d="M1605.79,330.3 C1611.61,331.26 1617.39,332.16 1623,332.96 C1888.31,370.85 2207.87,396.72 2334.46,406.2 " fill="none" id="LedgerActionTypes-FinancialSplit" style="stroke:#181818;stroke-width:1.0;"/></g><g id="link_OrderCategoryTypes_Invoice"><path d="M3235.77,523.35 C3229.76,524.28 3223.79,525.15 3218,525.93 C2944.1,563.01 2863.25,504.87 2599,585.93 C2566.58,595.88 2561.78,606.21 2532,622.42 C2494.41,642.88 2451.21,666.38 2422.43,682.03 " fill="none" id="OrderCategoryTypes-Invoice" style="stroke:#181818;stroke-width:1.0;"/></g><g id="link_OrderCategoryTypes_InvoiceItem"><path d="M3235.51,523.45 C3229.59,524.34 3223.71,525.19 3218,525.93 C2916.73,565.37 2839.25,554.9 2537,585.93 C2504.41,589.28 2467.82,593.57 2439.3,597.03 " fill="none" id="OrderCategoryTypes-InvoiceItem" style="stroke:#181818;stroke-width:1.0;"/></g><g id="link_OrderStageTypes_Invoice"><path d="M3014.59,618.06 C3005.65,619.6 2996.62,621.09 2988,622.42 C2774.36,655.39 2516.28,685.43 2424.46,695.82 " fill="none" id="OrderStageTypes-Invoice" style="stroke:#181818;stroke-width:1.0;"/></g><g id="link_OrderTypes_InvoiceItem"><path d="M2465.2663,534.1311 C2446.7963,551.0711 2427.67,568.62 2409.12,585.64 " fill="none" id="OrderTypes-backto-InvoiceItem" style="stroke:#181818;stroke-width:1.0;"/><polygon fill="#181818" points="2474.11,526.02,2466.9845,527.1277,2465.2663,534.1311,2472.3919,533.0234,2474.11,526.02" style="stroke:#181818;stroke-width:1.0;"/></g><g id="link_PartInvoiceStatusTypes_InvoiceItem"><path d="M2285.1594,532.9191 C2310.4894,549.8891 2338.67,568.78 2363.95,585.72 " fill="none" id="PartInvoiceStatusTypes-backto-InvoiceItem" style="stroke:#181818;stroke-width:1.0;"/><polygon fill="#181818" points="2275.19,526.24,2277.9484,532.9027,2285.1594,532.9191,2282.4011,526.2564,2275.19,526.24" style="stroke:#181818;stroke-width:1.0;"/></g><g id="link_PartReference_InvoiceItem"><path d="M2055.62,525.04 C2132.84,544.72 2267.88,577.12 2340.69,593.32 " fill="none" id="PartReference-InvoiceItem" style="stroke:#181818;stroke-width:1.0;"/></g><g id="link_PartReference_InvoiceItem"><path d="M2067.5882,523.1004 C2144.8582,540.4604 2267.91,570.26 2340.63,588.94 " fill="none" id="PartReference-backto-InvoiceItem" style="stroke:#181818;stroke-width:1.0;"/><polygon fill="#181818" points="2055.88,520.47,2060.8573,525.6879,2067.5882,523.1004,2062.6109,517.8825,2055.88,520.47" style="stroke:#181818;stroke-width:1.0;"/></g><g id="link_PartReference_Invoice"><path d="M2011.4527,537.055 C2024.0227,562.335 2045.29,597.83 2082,622.42 C2168.57,680.41 2295.19,694.88 2355.54,698.48 " fill="none" id="PartReference-backto-Invoice" style="stroke:#181818;stroke-width:1.0;"/><polygon fill="#181818" points="2006.11,526.31,2005.1997,533.4634,2011.4527,537.055,2012.363,529.9016,2006.11,526.31" style="stroke:#181818;stroke-width:1.0;"/></g><g id="link_PartyIdentifier_Invoice"><path d="M3674.8466,344.7012 C3661.9266,384.0512 3629.54,468.86 3569,525.93 C3496.03,594.74 3461.91,596.6 3365,622.42 C3181.65,671.28 2575.29,693.7 2424.29,698.61 " fill="none" id="PartyIdentifier-backto-Invoice" style="stroke:#181818;stroke-width:1.0;"/><polygon fill="#181818" points="3678.59,333.3,3672.9179,337.7528,3674.8466,344.7012,3680.5187,340.2484,3678.59,333.3" style="stroke:#181818;stroke-width:1.0;"/></g><g id="link_PartyIdentifier_InvoiceItem"><path d="M3613.9375,332.6359 C3471.2675,367.2059 3119.59,453.16 3000,489.45 C2953.53,503.55 2944.18,514.4 2897,525.93 C2709.98,571.64 2657.47,551.79 2468,585.93 C2458.72,587.61 2448.86,589.61 2439.4,591.64 " fill="none" id="PartyIdentifier-backto-InvoiceItem" style="stroke:#181818;stroke-width:1.0;"/><polygon fill="#181818" points="3625.6,329.81,3618.8268,327.3355,3613.9375,332.6359,3620.7107,335.1105,3625.6,329.81" style="stroke:#181818;stroke-width:1.0;"/></g><g id="link_PartyRelationshipTypes_PartyIdentifier"><path d="M3684,248.55 C3684,265.5 3684,279.16 3684,296.17 " fill="none" id="PartyRelationshipTypes-backto-PartyIdentifier" style="stroke:#181818;stroke-width:1.0;"/><polygon fill="#181818" points="3684,236.55,3680,242.55,3684,248.55,3688,242.55,3684,236.55" style="stroke:#181818;stroke-width:1.0;"/></g><g id="link_PaymentMethodTypes_FinancialEvent"><path d="M1057.56,333.37 C1096.33,350.25 1154.45,375.56 1193.27,392.47 " fill="none" id="PaymentMethodTypes-FinancialEvent" style="stroke:#181818;stroke-width:1.0;"/></g><g id="link_PaymentScheduleReference_Invoice"><path d="M779.6956,432.8148 C937.7656,472.6848 1326.82,567.47 1667,622.42 C1930.26,664.94 2251.36,689.89 2355.58,697.31 " fill="none" id="PaymentScheduleReference-backto-Invoice" style="stroke:#181818;stroke-width:1.0;"/><polygon fill="#181818" points="768.06,429.88,772.8995,435.2259,779.6956,432.8148,774.8561,427.4689,768.06,429.88" style="stroke:#181818;stroke-width:1.0;"/></g><g id="link_PaymentStatusTypes_Invoice"><path d="M3187.62,619.96 C3182,620.84 3176.42,621.67 3171,622.42 C2883.51,662.13 2533.75,689.24 2424.37,697.22 " fill="none" id="PaymentStatusTypes-Invoice" style="stroke:#181818;stroke-width:1.0;"/></g><g id="link_PaymentTermReference_Invoice"><path d="M452.7003,432.5507 C632.7803,472.8507 1080.24,569.32 1469,622.42 C1813.19,669.44 2233.93,692.18 2355.57,698.07 " fill="none" id="PaymentTermReference-backto-Invoice" style="stroke:#181818;stroke-width:1.0;"/><polygon fill="#181818" points="440.99,429.93,445.9716,435.1438,452.7003,432.5507,447.7187,427.3369,440.99,429.93" style="stroke:#181818;stroke-width:1.0;"/></g><g id="link_PaymentTransactionTypes_FinancialEvent"><path d="M558.7429,332.3394 C564.5429,333.1194 558.4,332.26 564,332.96 C826.88,365.61 895.51,350.6 1157,392.96 C1162.81,393.9 1168.85,395.01 1174.86,396.21 " fill="none" id="PaymentTransactionTypes-backto-FinancialEvent" style="stroke:#181818;stroke-width:1.0;"/><polygon fill="#181818" points="546.85,330.74,552.2633,335.504,558.7429,332.3394,553.3296,327.5754,546.85,330.74" style="stroke:#181818;stroke-width:1.0;"/></g><g id="link_PaymentTypes_Invoice"><path d="M3421.0226,525.0691 C3415.3626,526.2491 3421.45,524.93 3416,525.93 C3231.01,560.11 3176.08,528.3 2997,585.93 C2963.6,596.68 2960.39,611.66 2927,622.42 C2743.66,681.49 2510.56,695.48 2424.19,698.72 " fill="none" id="PaymentTypes-backto-Invoice" style="stroke:#181818;stroke-width:1.0;"/><polygon fill="#181818" points="3432.77,522.62,3426.0799,519.9287,3421.0226,525.0691,3427.7127,527.7604,3432.77,522.62" style="stroke:#181818;stroke-width:1.0;"/></g><g id="link_PaymentTypes_InvoiceItem"><path d="M3421.0535,525.3154 C3415.3835,526.4254 3421.49,525.11 3416,525.93 C3055.9,579.7 2961.99,557.63 2599,585.93 C2544.37,590.19 2481.74,595.4 2439.4,598.98 " fill="none" id="PaymentTypes-backto-InvoiceItem" style="stroke:#181818;stroke-width:1.0;"/><polygon fill="#181818" points="3432.83,523.01,3426.1733,520.2372,3421.0535,525.3154,3427.7103,528.0882,3432.83,523.01" style="stroke:#181818;stroke-width:1.0;"/></g><g id="link_Price_FinancialSplit"><path d="M3389.91,236.76 C3354.17,262.84 3282.34,311.1 3213,332.96 C3176.37,344.5 2625.24,390.77 2445.92,405.6 " fill="none" id="Price-FinancialSplit" style="stroke:#181818;stroke-width:1.0;"/></g><g id="link_Price_TaxSplit"><path d="M3439,236.78 C3464.15,253.75 3502.04,279.32 3527.13,296.26 " fill="none" id="Price-TaxSplit" style="stroke:#181818;stroke-width:1.0;"/></g><g id="link_PricePlanReference_InvoiceItem"><path d="M2933.3953,440.0517 C2917.3653,465.8417 2890.18,503.01 2848,525.93 C2697,607.99 2634.78,553.57 2466,585.93 C2457.36,587.59 2448.21,589.52 2439.37,591.47 " fill="none" id="PricePlanReference-backto-InvoiceItem" style="stroke:#181818;stroke-width:1.0;"/><polygon fill="#181818" points="2939.73,429.86,2933.1654,432.8443,2933.3953,440.0517,2939.9599,437.0674,2939.73,429.86" style="stroke:#181818;stroke-width:1.0;"/></g><g id="link_PriceTypes_Price"><path d="M3413,152.07 C3413,169.01 3413,182.67 3413,199.68 " fill="none" id="PriceTypes-backto-Price" style="stroke:#181818;stroke-width:1.0;"/><polygon fill="#181818" points="3413,140.07,3409,146.07,3413,152.07,3417,146.07,3413,140.07" style="stroke:#181818;stroke-width:1.0;"/></g><g id="link_ProductPriceItemTypes_FinancialSplit"><path d="M3019.53,330.49 C3013.94,331.34 3008.39,332.17 3003,332.96 C2798.12,362.68 2553.75,391.49 2445.88,403.87 " fill="none" id="ProductPriceItemTypes-FinancialSplit" style="stroke:#181818;stroke-width:1.0;"/></g><g id="link_ProductTypes_PartReference"><path d="M1998,441.53 C1998,458.47 1998,472.13 1998,489.15 " fill="none" id="ProductTypes-backto-PartReference" style="stroke:#181818;stroke-width:1.0;"/><polygon fill="#181818" points="1998,429.53,1994,435.53,1998,441.53,2002,435.53,1998,429.53" style="stroke:#181818;stroke-width:1.0;"/></g><g id="link_RebateReference_FinancialSplit"><path d="M2614.3805,337.088 C2562.5805,353.968 2496.31,375.56 2444.43,392.47 " fill="none" id="RebateReference-backto-FinancialSplit" style="stroke:#181818;stroke-width:1.0;"/><polygon fill="#181818" points="2625.79,333.37,2618.8459,331.4258,2614.3805,337.088,2621.3246,339.0322,2625.79,333.37" style="stroke:#181818;stroke-width:1.0;"/></g><g id="link_ResourceTypes_FinancialEvent"><path d="M704.58,329.64 C710.46,330.82 716.33,331.95 722,332.96 C914.15,367.13 964.94,358.27 1157,392.96 C1162.8,394 1168.82,395.19 1174.83,396.43 " fill="none" id="ResourceTypes-FinancialEvent" style="stroke:#181818;stroke-width:1.0;"/></g><g id="link_RewardReference_FinancialSplit"><path d="M2093.4115,336.0612 C2166.1515,354.2512 2267.08,379.48 2334.16,396.24 " fill="none" id="RewardReference-backto-FinancialSplit" style="stroke:#181818;stroke-width:1.0;"/><polygon fill="#181818" points="2081.77,333.15,2086.6204,338.4861,2093.4115,336.0612,2088.5612,330.7251,2081.77,333.15" style="stroke:#181818;stroke-width:1.0;"/></g><g id="link_ShipmentReference_InvoiceItem"><path d="M2709.3526,439.9718 C2723.4826,464.1618 2737.23,497.8 2715,525.93 C2712.83,528.67 2529.69,571.08 2439.32,591.86 " fill="none" id="ShipmentReference-backto-InvoiceItem" style="stroke:#181818;stroke-width:1.0;"/><polygon fill="#181818" points="2703.3,429.61,2702.8724,436.8084,2709.3526,439.9718,2709.7802,432.7734,2703.3,429.61" style="stroke:#181818;stroke-width:1.0;"/></g><g id="link_TaxSplit_FinancialSplit"><path d="M3502.77,322.7412 C3475.56,326.4512 3450.04,329.65 3417,332.96 C3053.83,369.26 2961.87,364.55 2598,392.96 C2546.34,396.99 2487.49,401.9 2445.61,405.45 " fill="none" id="TaxSplit-backto-FinancialSplit" style="stroke:#181818;stroke-width:1.0;"/><polygon fill="#181818" points="3514.66,321.12,3508.1746,317.9673,3502.77,322.7412,3509.2554,325.8939,3514.66,321.12" style="stroke:#181818;stroke-width:1.0;"/></g><g id="link_TaxTypes_TaxSplit"><path d="M3523.6,236.55 C3530.06,253.5 3539.83,279.16 3546.32,296.17 " fill="none" id="TaxTypes-TaxSplit" style="stroke:#181818;stroke-width:1.0;"/></g><g id="link_TextualDetail_FinancialEvent"><path d="M312.62,329.82 C318.46,331.01 324.34,332.09 330,332.96 C694.26,388.83 792.42,339.21 1157,392.96 C1162.83,393.82 1168.87,394.87 1174.89,396.04 " fill="none" id="TextualDetail-FinancialEvent" style="stroke:#181818;stroke-width:1.0;"/></g></g></svg>