<?xml version="1.0" encoding="us-ascii" standalone="no"?><svg xmlns="http://www.w3.org/2000/svg" xmlns:xlink="http://www.w3.org/1999/xlink" contentStyleType="text/css" height="242px" preserveAspectRatio="none" style="width:880px;height:242px;background:#FFFFFF;" version="1.1" viewBox="0 0 880 242" width="880px" zoomAndPan="magnify"><defs/><g><g id="elem_BudgetVarianceLineItem"><rect fill="#F1F1F1" height="36.4883" rx="2.5" ry="2.5" style="stroke:#181818;stroke-width:0.5;" width="185" x="386.5" y="199.97"/><text fill="#000000" font-family="sans-serif" font-size="14" lengthAdjust="spacing" textLength="165" x="396.5" y="223.5052">BudgetVarianceLineItem</text></g><g id="elem_ControlAccountReference"><rect fill="#F1F1F1" height="36.4883" rx="2.5" ry="2.5" style="stroke:#181818;stroke-width:0.5;" width="196" x="7" y="103.48"/><text fill="#000000" font-family="sans-serif" font-size="14" lengthAdjust="spacing" textLength="176" x="17" y="127.0152">ControlAccountReference</text></g><g id="elem_GeneralLedgerReference"><rect fill="#F1F1F1" height="36.4883" rx="2.5" ry="2.5" style="stroke:#181818;stroke-width:0.5;" width="188" x="238" y="103.48"/><text fill="#000000" font-family="sans-serif" font-size="14" lengthAdjust="spacing" textLength="168" x="248" y="127.0152">GeneralLedgerReference</text></g><g id="elem_Identifier"><rect fill="#F1F1F1" height="36.4883" rx="2.5" ry="2.5" style="stroke:#181818;stroke-width:0.5;" width="82" x="178" y="7"/><text fill="#000000" font-family="sans-serif" font-size="14" lengthAdjust="spacing" textLength="62" x="188" y="30.5352">Identifier</text></g><g id="elem_Money"><rect fill="#F1F1F1" height="36.4883" rx="2.5" ry="2.5" style="stroke:#181818;stroke-width:0.5;" width="65" x="503.5" y="7"/><text fill="#000000" font-family="sans-serif" font-size="14" lengthAdjust="spacing" textLength="45" x="513.5" y="30.5352">Money</text></g><g id="elem_VarianceDetails"><rect fill="#F1F1F1" height="36.4883" rx="2.5" ry="2.5" style="stroke:#181818;stroke-width:0.5;" width="125" x="531.5" y="103.48"/><text fill="#000000" font-family="sans-serif" font-size="14" lengthAdjust="spacing" textLength="105" x="541.5" y="127.0152">VarianceDetails</text></g><g id="elem_FinancialCategoryTypes"><rect fill="#FAFF91" height="36.4883" rx="2.5" ry="2.5" style="stroke:#181818;stroke-width:0.5;" width="183" x="691.5" y="103.48"/><text fill="#000000" font-family="sans-serif" font-size="14" lengthAdjust="spacing" textLength="163" x="701.5" y="127.0152">FinancialCategoryTypes</text></g><g id="link_ControlAccountReference_BudgetVarianceLineItem"><path d="M174.91,140.39 C241.72,157.27 341.89,182.58 408.8,199.48 " fill="none" id="ControlAccountReference-BudgetVarianceLineItem" style="stroke:#181818;stroke-width:1.0;"/></g><g id="link_FinancialCategoryTypes_BudgetVarianceLineItem"><path d="M726.18,140.39 C671.87,157.27 590.44,182.58 536.06,199.48 " fill="none" id="FinancialCategoryTypes-BudgetVarianceLineItem" style="stroke:#181818;stroke-width:1.0;"/></g><g id="link_GeneralLedgerReference_BudgetVarianceLineItem"><path d="M359.31,140.28 C385.71,157.25 425.49,182.82 451.84,199.76 " fill="none" id="GeneralLedgerReference-BudgetVarianceLineItem" style="stroke:#181818;stroke-width:1.0;"/></g><g id="link_Identifier_ControlAccountReference"><path d="M197.82,43.79 C177.35,60.76 146.5,86.33 126.06,103.27 " fill="none" id="Identifier-ControlAccountReference" style="stroke:#181818;stroke-width:1.0;"/></g><g id="link_Identifier_GeneralLedgerReference"><path d="M239.99,43.79 C260.29,60.76 290.86,86.33 311.12,103.27 " fill="none" id="Identifier-GeneralLedgerReference" style="stroke:#181818;stroke-width:1.0;"/></g><g id="link_Money_BudgetVarianceLineItem"><path d="M530.74,43.86 C519.88,80.25 495.1,163.29 484.25,199.63 " fill="none" id="Money-BudgetVarianceLineItem" style="stroke:#181818;stroke-width:1.0;"/></g><g id="link_Money_VarianceDetails"><path d="M546.64,43.57 C557.04,60.51 572.79,86.17 583.23,103.19 " fill="none" id="Money-VarianceDetails" style="stroke:#181818;stroke-width:1.0;"/></g><g id="link_VarianceDetails_BudgetVarianceLineItem"><path d="M572.64,140.28 C551.98,157.25 520.86,182.82 500.25,199.76 " fill="none" id="VarianceDetails-BudgetVarianceLineItem" style="stroke:#181818;stroke-width:1.0;"/></g></g></svg>