<?xml version="1.0" encoding="us-ascii" standalone="no"?><svg xmlns="http://www.w3.org/2000/svg" xmlns:xlink="http://www.w3.org/1999/xlink" contentStyleType="text/css" height="338px" preserveAspectRatio="none" style="width:968px;height:338px;background:#FFFFFF;" version="1.1" viewBox="0 0 968 338" width="968px" zoomAndPan="magnify"><defs/><g><g id="elem_AccountingPeriod"><rect fill="#F1F1F1" height="36.4883" rx="2.5" ry="2.5" style="stroke:#181818;stroke-width:0.5;" width="142" x="48" y="103.49"/><text fill="#000000" font-family="sans-serif" font-size="14" lengthAdjust="spacing" textLength="122" x="58" y="127.0252">AccountingPeriod</text></g><g id="elem_Budget"><rect fill="#F1F1F1" height="36.4883" rx="2.5" ry="2.5" style="stroke:#181818;stroke-width:0.5;" width="68" x="516" y="296.46"/><text fill="#000000" font-family="sans-serif" font-size="14" lengthAdjust="spacing" textLength="48" x="526" y="319.9952">Budget</text></g><g id="elem_BudgetItem"><rect fill="#F1F1F1" height="36.4883" rx="2.5" ry="2.5" style="stroke:#181818;stroke-width:0.5;" width="98" x="501" y="199.97"/><text fill="#000000" font-family="sans-serif" font-size="14" lengthAdjust="spacing" textLength="78" x="511" y="223.5052">BudgetItem</text></g><g id="elem_ControlAccountReference"><rect fill="#F1F1F1" height="36.4883" rx="2.5" ry="2.5" style="stroke:#181818;stroke-width:0.5;" width="196" x="225" y="103.49"/><text fill="#000000" font-family="sans-serif" font-size="14" lengthAdjust="spacing" textLength="176" x="235" y="127.0252">ControlAccountReference</text></g><g id="elem_GeneralLedgerReference"><rect fill="#F1F1F1" height="36.4883" rx="2.5" ry="2.5" style="stroke:#181818;stroke-width:0.5;" width="188" x="456" y="103.49"/><text fill="#000000" font-family="sans-serif" font-size="14" lengthAdjust="spacing" textLength="168" x="466" y="127.0252">GeneralLedgerReference</text></g><g id="elem_Identifier"><rect fill="#F1F1F1" height="36.4883" rx="2.5" ry="2.5" style="stroke:#181818;stroke-width:0.5;" width="82" x="282" y="7"/><text fill="#000000" font-family="sans-serif" font-size="14" lengthAdjust="spacing" textLength="62" x="292" y="30.5352">Identifier</text></g><g id="elem_Money"><rect fill="#F1F1F1" height="36.4883" rx="2.5" ry="2.5" style="stroke:#181818;stroke-width:0.5;" width="65" x="679.5" y="103.49"/><text fill="#000000" font-family="sans-serif" font-size="14" lengthAdjust="spacing" textLength="45" x="689.5" y="127.0252">Money</text></g><g id="elem_AccountingPeriodStatusTypes"><rect fill="#FAFF91" height="36.4883" rx="2.5" ry="2.5" style="stroke:#181818;stroke-width:0.5;" width="224" x="7" y="7"/><text fill="#000000" font-family="sans-serif" font-size="14" lengthAdjust="spacing" textLength="204" x="17" y="30.5352">AccountingPeriodStatusTypes</text></g><g id="elem_BudgetStatusTypes"><rect fill="#FAFF91" height="36.4883" rx="2.5" ry="2.5" style="stroke:#181818;stroke-width:0.5;" width="150" x="634" y="199.97"/><text fill="#000000" font-family="sans-serif" font-size="14" lengthAdjust="spacing" textLength="130" x="644" y="223.5052">BudgetStatusTypes</text></g><g id="elem_FinancialCategoryTypes"><rect fill="#FAFF91" height="36.4883" rx="2.5" ry="2.5" style="stroke:#181818;stroke-width:0.5;" width="183" x="779.5" y="103.49"/><text fill="#000000" font-family="sans-serif" font-size="14" lengthAdjust="spacing" textLength="163" x="789.5" y="127.0252">FinancialCategoryTypes</text></g><g id="link_AccountingPeriod_Budget"><path d="M158.77,140.35 C242.76,177.57 436.91,263.6 515.77,298.54 " fill="none" id="AccountingPeriod-Budget" style="stroke:#181818;stroke-width:1.0;"/></g><g id="link_AccountingPeriodStatusTypes_AccountingPeriod"><path d="M119,43.57 C119,60.51 119,86.17 119,103.19 " fill="none" id="AccountingPeriodStatusTypes-AccountingPeriod" style="stroke:#181818;stroke-width:1.0;"/></g><g id="link_BudgetItem_Budget"><path d="M550,248.55 C550,265.49 550,279.15 550,296.17 " fill="none" id="BudgetItem-backto-Budget" style="stroke:#181818;stroke-width:1.0;"/><polygon fill="#181818" points="550,236.55,546,242.55,550,248.55,554,242.55,550,236.55" style="stroke:#181818;stroke-width:1.0;"/></g><g id="link_BudgetStatusTypes_Budget"><path d="M679.47,236.77 C651,253.69 608.15,279.15 579.65,296.09 " fill="none" id="BudgetStatusTypes-Budget" style="stroke:#181818;stroke-width:1.0;"/></g><g id="link_ControlAccountReference_BudgetItem"><path d="M365.43,140.39 C405.98,157.27 466.78,182.58 507.39,199.48 " fill="none" id="ControlAccountReference-BudgetItem" style="stroke:#181818;stroke-width:1.0;"/></g><g id="link_FinancialCategoryTypes_BudgetItem"><path d="M811,140.39 C749.94,158.36 656.4,185.9 599.45,202.66 " fill="none" id="FinancialCategoryTypes-BudgetItem" style="stroke:#181818;stroke-width:1.0;"/></g><g id="link_GeneralLedgerReference_BudgetItem"><path d="M550,140.06 C550,157 550,182.66 550,199.68 " fill="none" id="GeneralLedgerReference-BudgetItem" style="stroke:#181818;stroke-width:1.0;"/></g><g id="link_Identifier_ControlAccountReference"><path d="M323,43.57 C323,60.51 323,86.17 323,103.19 " fill="none" id="Identifier-ControlAccountReference" style="stroke:#181818;stroke-width:1.0;"/></g><g id="link_Identifier_GeneralLedgerReference"><path d="M364.37,43.46 C404.91,60.34 466.41,85.93 507.37,102.99 " fill="none" id="Identifier-GeneralLedgerReference" style="stroke:#181818;stroke-width:1.0;"/></g><g id="link_Identifier_AccountingPeriod"><path d="M274.2213,48.8334 C237.6913,65.7534 193.61,86.17 157.04,103.11 " fill="none" id="Identifier-backto-AccountingPeriod" style="stroke:#181818;stroke-width:1.0;"/><polygon fill="#181818" points="285.11,43.79,277.9845,42.6822,274.2213,48.8334,281.3468,49.9413,285.11,43.79" style="stroke:#181818;stroke-width:1.0;"/></g><g id="link_Money_BudgetItem"><path d="M681.91,140.28 C652.9,157.2 609.25,182.66 580.2,199.6 " fill="none" id="Money-BudgetItem" style="stroke:#181818;stroke-width:1.0;"/></g></g></svg>