<?xml version="1.0" encoding="us-ascii" standalone="no"?><svg xmlns="http://www.w3.org/2000/svg" xmlns:xlink="http://www.w3.org/1999/xlink" contentStyleType="text/css" height="1564px" preserveAspectRatio="none" style="width:1687px;height:1564px;background:#FFFFFF;" version="1.1" viewBox="0 0 1687 1564" width="1687px" zoomAndPan="magnify"><defs/><g><g id="elem_AddressReference"><rect codeLine="1" fill="#F1F1F1" height="262.3477" id="AddressReference" rx="2.5" ry="2.5" style="stroke:#181818;stroke-width:0.5;" width="251" x="1429" y="799.27"/><ellipse cx="1488.25" cy="815.27" fill="#ADD1B2" rx="11" ry="11" style="stroke:#181818;stroke-width:1.0;"/><path d="M1490.7231,821.4131 Q1490.1421,821.7119 1489.5029,821.8613 Q1488.8638,822.0107 1488.1582,822.0107 Q1485.6514,822.0107 1484.3315,820.3589 Q1483.0117,818.707 1483.0117,815.5859 Q1483.0117,812.4565 1484.3315,810.8047 Q1485.6514,809.1528 1488.1582,809.1528 Q1488.8638,809.1528 1489.5112,809.3022 Q1490.1587,809.4516 1490.7231,809.7505 L1490.7231,812.4731 Q1490.0923,811.8921 1489.4988,811.6223 Q1488.9053,811.3525 1488.2744,811.3525 Q1486.9297,811.3525 1486.2449,812.4192 Q1485.5601,813.4858 1485.5601,815.5859 Q1485.5601,817.6777 1486.2449,818.7444 Q1486.9297,819.811 1488.2744,819.811 Q1488.9053,819.811 1489.4988,819.5412 Q1490.0923,819.2715 1490.7231,818.6904 Z " fill="#000000"/><text fill="#000000" font-family="sans-serif" font-size="14" lengthAdjust="spacing" textLength="124" x="1508.75" y="820.561">AddressReference</text><line style="stroke:#181818;stroke-width:0.5;" x1="1430" x2="1679" y1="831.27" y2="831.27"/><text fill="#000000" font-family="sans-serif" font-size="14" lengthAdjust="spacing" textLength="191" x="1435" y="848.8052">addressReferenceKey:String</text><text fill="#000000" font-family="sans-serif" font-size="14" lengthAdjust="spacing" textLength="239" x="1435" y="865.2934">addressTypes:List&lt;AddressTypes&gt;</text><text fill="#000000" font-family="sans-serif" font-size="14" lengthAdjust="spacing" textLength="136" x="1435" y="881.7817">addressLine1:String</text><text fill="#000000" font-family="sans-serif" font-size="14" lengthAdjust="spacing" textLength="136" x="1435" y="898.27">addressLine2:String</text><text fill="#000000" font-family="sans-serif" font-size="14" lengthAdjust="spacing" textLength="136" x="1435" y="914.7583">addressLine3:String</text><text fill="#000000" font-family="sans-serif" font-size="14" lengthAdjust="spacing" textLength="136" x="1435" y="931.2466">addressLine4:String</text><text fill="#000000" font-family="sans-serif" font-size="14" lengthAdjust="spacing" textLength="136" x="1435" y="947.7348">addressLine5:String</text><text fill="#000000" font-family="sans-serif" font-size="14" lengthAdjust="spacing" textLength="68" x="1435" y="964.2231">city:String</text><text fill="#000000" font-family="sans-serif" font-size="14" lengthAdjust="spacing" textLength="133" x="1435" y="980.7114">countryCode:String</text><text fill="#000000" font-family="sans-serif" font-size="14" lengthAdjust="spacing" textLength="92" x="1435" y="997.1997">district:String</text><text fill="#000000" font-family="sans-serif" font-size="14" lengthAdjust="spacing" textLength="78" x="1435" y="1013.688">label:String</text><text fill="#000000" font-family="sans-serif" font-size="14" lengthAdjust="spacing" textLength="123" x="1435" y="1030.1763">postalCode:String</text><text fill="#000000" font-family="sans-serif" font-size="14" lengthAdjust="spacing" textLength="136" x="1435" y="1046.6645">stateProvince:String</text><line style="stroke:#181818;stroke-width:0.5;" x1="1430" x2="1679" y1="1053.6177" y2="1053.6177"/></g><g id="elem_Identifier"><rect codeLine="16" fill="#F1F1F1" height="146.9297" id="Identifier" rx="2.5" ry="2.5" style="stroke:#181818;stroke-width:0.5;" width="152" x="182.5" y="246.08"/><ellipse cx="223.6" cy="262.08" fill="#ADD1B2" rx="11" ry="11" style="stroke:#181818;stroke-width:1.0;"/><path d="M226.0731,268.2231 Q225.4921,268.5219 224.8529,268.6713 Q224.2138,268.8207 223.5082,268.8207 Q221.0014,268.8207 219.6815,267.1689 Q218.3617,265.517 218.3617,262.3959 Q218.3617,259.2665 219.6815,257.6147 Q221.0014,255.9628 223.5082,255.9628 Q224.2138,255.9628 224.8612,256.1122 Q225.5087,256.2616 226.0731,256.5605 L226.0731,259.2831 Q225.4423,258.7021 224.8488,258.4323 Q224.2553,258.1625 223.6244,258.1625 Q222.2797,258.1625 221.5949,259.2292 Q220.9101,260.2958 220.9101,262.3959 Q220.9101,264.4877 221.5949,265.5544 Q222.2797,266.621 223.6244,266.621 Q224.2553,266.621 224.8488,266.3512 Q225.4423,266.0815 226.0731,265.5004 Z " fill="#000000"/><text fill="#000000" font-family="sans-serif" font-size="14" lengthAdjust="spacing" textLength="62" x="243.4" y="267.371">Identifier</text><line style="stroke:#181818;stroke-width:0.5;" x1="183.5" x2="333.5" y1="278.08" y2="278.08"/><text fill="#000000" font-family="sans-serif" font-size="14" lengthAdjust="spacing" textLength="120" x="188.5" y="295.6152">identifierId:String</text><text fill="#000000" font-family="sans-serif" font-size="14" lengthAdjust="spacing" textLength="131" x="188.5" y="312.1034">identifierKey:String</text><text fill="#000000" font-family="sans-serif" font-size="14" lengthAdjust="spacing" textLength="97" x="188.5" y="328.5917">context:String</text><text fill="#000000" font-family="sans-serif" font-size="14" lengthAdjust="spacing" textLength="81" x="188.5" y="345.08">value:String</text><text fill="#000000" font-family="sans-serif" font-size="14" lengthAdjust="spacing" textLength="83" x="188.5" y="361.5683">detail:String</text><text fill="#000000" font-family="sans-serif" font-size="14" lengthAdjust="spacing" textLength="140" x="188.5" y="378.0566">identifierType:String</text><line style="stroke:#181818;stroke-width:0.5;" x1="183.5" x2="333.5" y1="385.0097" y2="385.0097"/></g><g id="elem_InvoiceReference"><rect codeLine="24" fill="#F1F1F1" height="163.418" id="InvoiceReference" rx="2.5" ry="2.5" style="stroke:#181818;stroke-width:0.5;" width="197" x="9" y="848.73"/><ellipse cx="46.05" cy="864.73" fill="#ADD1B2" rx="11" ry="11" style="stroke:#181818;stroke-width:1.0;"/><path d="M48.5231,870.8731 Q47.9421,871.1719 47.3029,871.3213 Q46.6638,871.4707 45.9582,871.4707 Q43.4514,871.4707 42.1315,869.8189 Q40.8117,868.167 40.8117,865.0459 Q40.8117,861.9165 42.1315,860.2647 Q43.4514,858.6128 45.9582,858.6128 Q46.6638,858.6128 47.3112,858.7622 Q47.9587,858.9116 48.5231,859.2105 L48.5231,861.9331 Q47.8923,861.3521 47.2988,861.0823 Q46.7053,860.8125 46.0744,860.8125 Q44.7297,860.8125 44.0449,861.8792 Q43.3601,862.9458 43.3601,865.0459 Q43.3601,867.1377 44.0449,868.2044 Q44.7297,869.271 46.0744,869.271 Q46.7053,869.271 47.2988,869.0012 Q47.8923,868.7315 48.5231,868.1504 Z " fill="#000000"/><text fill="#000000" font-family="sans-serif" font-size="14" lengthAdjust="spacing" textLength="116" x="64.95" y="870.021">InvoiceReference</text><line style="stroke:#181818;stroke-width:0.5;" x1="10" x2="205" y1="880.73" y2="880.73"/><text fill="#000000" font-family="sans-serif" font-size="14" lengthAdjust="spacing" textLength="174" x="15" y="898.2652">invoiceReferenceId:String</text><text fill="#000000" font-family="sans-serif" font-size="14" lengthAdjust="spacing" textLength="185" x="15" y="914.7534">invoiceReferenceKey:String</text><text fill="#000000" font-family="sans-serif" font-size="14" lengthAdjust="spacing" textLength="117" x="15" y="931.2417">invoiceKey:String</text><text fill="#000000" font-family="sans-serif" font-size="14" lengthAdjust="spacing" textLength="97" x="15" y="947.73">context:String</text><text fill="#000000" font-family="sans-serif" font-size="14" lengthAdjust="spacing" textLength="128" x="15" y="964.2183">identifier:Identifier</text><text fill="#000000" font-family="sans-serif" font-size="14" lengthAdjust="spacing" textLength="176" x="15" y="980.7066">occurrenceDateTime:Date</text><text fill="#000000" font-family="sans-serif" font-size="14" lengthAdjust="spacing" textLength="173" x="15" y="997.1948">invoiceType:InvoiceTypes</text><line style="stroke:#181818;stroke-width:0.5;" x1="10" x2="205" y1="1004.148" y2="1004.148"/></g><g id="elem_Position"><rect codeLine="33" fill="#F1F1F1" height="179.9063" id="Position" rx="2.5" ry="2.5" style="stroke:#181818;stroke-width:0.5;" width="139" x="411" y="229.6"/><ellipse cx="449.4" cy="245.6" fill="#ADD1B2" rx="11" ry="11" style="stroke:#181818;stroke-width:1.0;"/><path d="M451.8731,251.7431 Q451.2921,252.0419 450.6529,252.1913 Q450.0138,252.3407 449.3082,252.3407 Q446.8014,252.3407 445.4815,250.6889 Q444.1617,249.037 444.1617,245.9159 Q444.1617,242.7865 445.4815,241.1347 Q446.8014,239.4828 449.3082,239.4828 Q450.0138,239.4828 450.6612,239.6322 Q451.3087,239.7816 451.8731,240.0805 L451.8731,242.8031 Q451.2423,242.2221 450.6488,241.9523 Q450.0553,241.6825 449.4244,241.6825 Q448.0797,241.6825 447.3949,242.7492 Q446.7101,243.8158 446.7101,245.9159 Q446.7101,248.0077 447.3949,249.0744 Q448.0797,250.141 449.4244,250.141 Q450.0553,250.141 450.6488,249.8712 Q451.2423,249.6015 451.8731,249.0204 Z " fill="#000000"/><text fill="#000000" font-family="sans-serif" font-size="14" lengthAdjust="spacing" textLength="55" x="468.6" y="250.891">Position</text><line style="stroke:#181818;stroke-width:0.5;" x1="412" x2="549" y1="261.6" y2="261.6"/><text fill="#000000" font-family="sans-serif" font-size="14" lengthAdjust="spacing" textLength="114" x="417" y="279.1352">positionId:String</text><text fill="#000000" font-family="sans-serif" font-size="14" lengthAdjust="spacing" textLength="125" x="417" y="295.6234">positionKey:String</text><text fill="#000000" font-family="sans-serif" font-size="14" lengthAdjust="spacing" textLength="97" x="417" y="312.1117">latitude:String</text><text fill="#000000" font-family="sans-serif" font-size="14" lengthAdjust="spacing" textLength="111" x="417" y="328.6">longitude:String</text><text fill="#000000" font-family="sans-serif" font-size="14" lengthAdjust="spacing" textLength="97" x="417" y="345.0883">altitude:String</text><text fill="#000000" font-family="sans-serif" font-size="14" lengthAdjust="spacing" textLength="98" x="417" y="361.5766">bearing:String</text><text fill="#000000" font-family="sans-serif" font-size="14" lengthAdjust="spacing" textLength="123" x="417" y="378.0648">postalCode:String</text><text fill="#000000" font-family="sans-serif" font-size="14" lengthAdjust="spacing" textLength="127" x="417" y="394.5531">countyCode:String</text><line style="stroke:#181818;stroke-width:0.5;" x1="412" x2="549" y1="401.5062" y2="401.5062"/></g><g id="elem_Shipment"><rect codeLine="43" fill="#F1F1F1" height="328.3008" id="Shipment" rx="2.5" ry="2.5" style="stroke:#181818;stroke-width:0.5;" width="359" x="523" y="1228.79"/><ellipse cx="665.75" cy="1244.79" fill="#ADD1B2" rx="11" ry="11" style="stroke:#181818;stroke-width:1.0;"/><path d="M668.2231,1250.9331 Q667.6421,1251.2319 667.0029,1251.3813 Q666.3638,1251.5307 665.6582,1251.5307 Q663.1514,1251.5307 661.8315,1249.8789 Q660.5117,1248.227 660.5117,1245.1059 Q660.5117,1241.9765 661.8315,1240.3247 Q663.1514,1238.6728 665.6582,1238.6728 Q666.3638,1238.6728 667.0112,1238.8222 Q667.6587,1238.9716 668.2231,1239.2705 L668.2231,1241.9931 Q667.5923,1241.4121 666.9988,1241.1423 Q666.4053,1240.8725 665.7744,1240.8725 Q664.4297,1240.8725 663.7449,1241.9392 Q663.0601,1243.0058 663.0601,1245.1059 Q663.0601,1247.1977 663.7449,1248.2644 Q664.4297,1249.331 665.7744,1249.331 Q666.4053,1249.331 666.9988,1249.0612 Q667.5923,1248.7915 668.2231,1248.2104 Z " fill="#000000"/><text fill="#000000" font-family="sans-serif" font-size="14" lengthAdjust="spacing" textLength="65" x="686.25" y="1250.081">Shipment</text><line style="stroke:#181818;stroke-width:0.5;" x1="524" x2="881" y1="1260.79" y2="1260.79"/><text fill="#000000" font-family="sans-serif" font-size="14" lengthAdjust="spacing" textLength="122" x="529" y="1278.3252">shipmentId:String</text><text fill="#000000" font-family="sans-serif" font-size="14" lengthAdjust="spacing" textLength="133" x="529" y="1294.8134">shipmentKey:String</text><text fill="#000000" font-family="sans-serif" font-size="14" lengthAdjust="spacing" textLength="153" x="529" y="1311.3017">shippingCarrier:String</text><text fill="#000000" font-family="sans-serif" font-size="14" lengthAdjust="spacing" textLength="156" x="529" y="1327.79">trackingNumber:String</text><text fill="#000000" font-family="sans-serif" font-size="14" lengthAdjust="spacing" textLength="179" x="529" y="1344.2783">packingSlipNumber:String</text><text fill="#000000" font-family="sans-serif" font-size="14" lengthAdjust="spacing" textLength="183" x="529" y="1360.7666">billOfLadingNumber:String</text><text fill="#000000" font-family="sans-serif" font-size="14" lengthAdjust="spacing" textLength="134" x="529" y="1377.2548">referenceKey:String</text><text fill="#000000" font-family="sans-serif" font-size="14" lengthAdjust="spacing" textLength="288" x="529" y="1393.7431">invoiceReferences:List&lt;InvoiceReference&gt;</text><text fill="#000000" font-family="sans-serif" font-size="14" lengthAdjust="spacing" textLength="130" x="529" y="1410.2314">caseNumber:String</text><text fill="#000000" font-family="sans-serif" font-size="14" lengthAdjust="spacing" textLength="180" x="529" y="1426.7197">identifiers:List&lt;Identifier&gt;</text><text fill="#000000" font-family="sans-serif" font-size="14" lengthAdjust="spacing" textLength="148" x="529" y="1443.208">invoiceNumber:String</text><text fill="#000000" font-family="sans-serif" font-size="14" lengthAdjust="spacing" textLength="259" x="529" y="1459.6963">unitOfMeasures:List&lt;UnitOfMeasure&gt;</text><text fill="#000000" font-family="sans-serif" font-size="14" lengthAdjust="spacing" textLength="282" x="529" y="1476.1845">shipmentStatusType:ShipmentStateTypes</text><text fill="#000000" font-family="sans-serif" font-size="14" lengthAdjust="spacing" textLength="347" x="529" y="1492.6728">shippingMethodType:List&lt;ShippingMethodTypes&gt;</text><text fill="#000000" font-family="sans-serif" font-size="14" lengthAdjust="spacing" textLength="90" x="529" y="1509.1611">carrier:String</text><text fill="#000000" font-family="sans-serif" font-size="14" lengthAdjust="spacing" textLength="302" x="529" y="1525.6494">addressReferences:List&lt;AddressReference&gt;</text><text fill="#000000" font-family="sans-serif" font-size="14" lengthAdjust="spacing" textLength="259" x="529" y="1542.1377">shipmentEvents:List&lt;ShipmentEvent&gt;</text><line style="stroke:#181818;stroke-width:0.5;" x1="524" x2="881" y1="1549.0908" y2="1549.0908"/></g><g id="elem_ShipmentEvent"><rect codeLine="62" fill="#F1F1F1" height="163.418" id="ShipmentEvent" rx="2.5" ry="2.5" style="stroke:#181818;stroke-width:0.5;" width="338" x="311.5" y="848.73"/><ellipse cx="425.25" cy="864.73" fill="#ADD1B2" rx="11" ry="11" style="stroke:#181818;stroke-width:1.0;"/><path d="M427.7231,870.8731 Q427.1421,871.1719 426.5029,871.3213 Q425.8638,871.4707 425.1582,871.4707 Q422.6514,871.4707 421.3315,869.8189 Q420.0117,868.167 420.0117,865.0459 Q420.0117,861.9165 421.3315,860.2647 Q422.6514,858.6128 425.1582,858.6128 Q425.8638,858.6128 426.5112,858.7622 Q427.1587,858.9116 427.7231,859.2105 L427.7231,861.9331 Q427.0923,861.3521 426.4988,861.0823 Q425.9053,860.8125 425.2744,860.8125 Q423.9297,860.8125 423.2449,861.8792 Q422.5601,862.9458 422.5601,865.0459 Q422.5601,867.1377 423.2449,868.2044 Q423.9297,869.271 425.2744,869.271 Q425.9053,869.271 426.4988,869.0012 Q427.0923,868.7315 427.7231,868.1504 Z " fill="#000000"/><text fill="#000000" font-family="sans-serif" font-size="14" lengthAdjust="spacing" textLength="102" x="445.75" y="870.021">ShipmentEvent</text><line style="stroke:#181818;stroke-width:0.5;" x1="312.5" x2="648.5" y1="880.73" y2="880.73"/><text fill="#000000" font-family="sans-serif" font-size="14" lengthAdjust="spacing" textLength="159" x="317.5" y="898.2652">shipmentEventId:String</text><text fill="#000000" font-family="sans-serif" font-size="14" lengthAdjust="spacing" textLength="170" x="317.5" y="914.7534">shipmentEventKey:String</text><text fill="#000000" font-family="sans-serif" font-size="14" lengthAdjust="spacing" textLength="114" x="317.5" y="931.2417">location:Position</text><text fill="#000000" font-family="sans-serif" font-size="14" lengthAdjust="spacing" textLength="122" x="317.5" y="947.73">description:String</text><text fill="#000000" font-family="sans-serif" font-size="14" lengthAdjust="spacing" textLength="176" x="317.5" y="964.2183">occurrenceDateTime:Date</text><text fill="#000000" font-family="sans-serif" font-size="14" lengthAdjust="spacing" textLength="157" x="317.5" y="980.7066">effectiveDateTime:Date</text><text fill="#000000" font-family="sans-serif" font-size="14" lengthAdjust="spacing" textLength="326" x="317.5" y="997.1948">shipmentStateTypes:List&lt;ShipmentStateTypes&gt;</text><line style="stroke:#181818;stroke-width:0.5;" x1="312.5" x2="648.5" y1="1004.148" y2="1004.148"/></g><g id="elem_UnitOfMeasure"><rect codeLine="71" fill="#F1F1F1" height="130.4414" id="UnitOfMeasure" rx="2.5" ry="2.5" style="stroke:#181818;stroke-width:0.5;" width="393" x="755" y="865.22"/><ellipse cx="896.25" cy="881.22" fill="#ADD1B2" rx="11" ry="11" style="stroke:#181818;stroke-width:1.0;"/><path d="M898.7231,887.3631 Q898.1421,887.6619 897.5029,887.8113 Q896.8638,887.9607 896.1582,887.9607 Q893.6514,887.9607 892.3315,886.3089 Q891.0117,884.657 891.0117,881.5359 Q891.0117,878.4065 892.3315,876.7547 Q893.6514,875.1028 896.1582,875.1028 Q896.8638,875.1028 897.5112,875.2522 Q898.1587,875.4016 898.7231,875.7005 L898.7231,878.4231 Q898.0923,877.8421 897.4988,877.5723 Q896.9053,877.3025 896.2744,877.3025 Q894.9297,877.3025 894.2449,878.3692 Q893.5601,879.4358 893.5601,881.5359 Q893.5601,883.6277 894.2449,884.6944 Q894.9297,885.761 896.2744,885.761 Q896.9053,885.761 897.4988,885.4912 Q898.0923,885.2215 898.7231,884.6404 Z " fill="#000000"/><text fill="#000000" font-family="sans-serif" font-size="14" lengthAdjust="spacing" textLength="102" x="916.75" y="886.511">UnitOfMeasure</text><line style="stroke:#181818;stroke-width:0.5;" x1="756" x2="1147" y1="897.22" y2="897.22"/><text fill="#000000" font-family="sans-serif" font-size="14" lengthAdjust="spacing" textLength="170" x="761" y="914.7552">unitOfMeasureKey:String</text><text fill="#000000" font-family="sans-serif" font-size="14" lengthAdjust="spacing" textLength="175" x="761" y="931.2434">unitOfMeasure:EnumBase</text><text fill="#000000" font-family="sans-serif" font-size="14" lengthAdjust="spacing" textLength="114" x="761" y="947.7317">uomValue:String</text><text fill="#000000" font-family="sans-serif" font-size="14" lengthAdjust="spacing" textLength="101" x="761" y="964.22">quantity:String</text><text fill="#000000" font-family="sans-serif" font-size="14" lengthAdjust="spacing" textLength="381" x="761" y="980.7083">uomQuantityCategoryType:UOMQuantityCategoryTypes</text><line style="stroke:#181818;stroke-width:0.5;" x1="756" x2="1147" y1="987.6614" y2="987.6614"/></g><g id="elem_AddressTypes"><rect codeLine="78" fill="#FAFF91" height="526.1602" id="AddressTypes" rx="2.5" ry="2.5" style="stroke:#181818;stroke-width:0.5;" width="153" x="1478" y="56.47"/><ellipse cx="1504.25" cy="72.47" fill="#ADD1B2" rx="11" ry="11" style="stroke:#181818;stroke-width:1.0;"/><path d="M1506.7231,78.6131 Q1506.1421,78.9119 1505.5029,79.0613 Q1504.8638,79.2107 1504.1582,79.2107 Q1501.6514,79.2107 1500.3315,77.5589 Q1499.0117,75.907 1499.0117,72.7859 Q1499.0117,69.6565 1500.3315,68.0047 Q1501.6514,66.3528 1504.1582,66.3528 Q1504.8638,66.3528 1505.5112,66.5022 Q1506.1587,66.6516 1506.7231,66.9505 L1506.7231,69.6731 Q1506.0923,69.0921 1505.4988,68.8223 Q1504.9053,68.5525 1504.2744,68.5525 Q1502.9297,68.5525 1502.2449,69.6192 Q1501.5601,70.6858 1501.5601,72.7859 Q1501.5601,74.8777 1502.2449,75.9444 Q1502.9297,77.011 1504.2744,77.011 Q1504.9053,77.011 1505.4988,76.7412 Q1506.0923,76.4715 1506.7231,75.8904 Z " fill="#000000"/><text fill="#000000" font-family="sans-serif" font-size="14" lengthAdjust="spacing" textLength="96" x="1520.75" y="77.761">AddressTypes</text><line style="stroke:#181818;stroke-width:0.5;" x1="1479" x2="1630" y1="88.47" y2="88.47"/><text fill="#000000" font-family="sans-serif" font-size="14" lengthAdjust="spacing" textLength="60" x="1484" y="106.0052">ARCHIVE</text><text fill="#000000" font-family="sans-serif" font-size="14" lengthAdjust="spacing" textLength="89" x="1484" y="122.4934">AR_ADDRESS</text><text fill="#000000" font-family="sans-serif" font-size="14" lengthAdjust="spacing" textLength="50" x="1484" y="138.9817">BILLING</text><text fill="#000000" font-family="sans-serif" font-size="14" lengthAdjust="spacing" textLength="64" x="1484" y="155.47">BUSINESS</text><text fill="#000000" font-family="sans-serif" font-size="14" lengthAdjust="spacing" textLength="78" x="1484" y="171.9583">CONTRACT</text><text fill="#000000" font-family="sans-serif" font-size="14" lengthAdjust="spacing" textLength="65" x="1484" y="188.4466">CURRENT</text><text fill="#000000" font-family="sans-serif" font-size="14" lengthAdjust="spacing" textLength="52" x="1484" y="204.9348">DEALER</text><text fill="#000000" font-family="sans-serif" font-size="14" lengthAdjust="spacing" textLength="64" x="1484" y="221.4231">DELIVERY</text><text fill="#000000" font-family="sans-serif" font-size="14" lengthAdjust="spacing" textLength="93" x="1484" y="237.9114">DESTINATION</text><text fill="#000000" font-family="sans-serif" font-size="14" lengthAdjust="spacing" textLength="84" x="1484" y="254.3997">EMERGENCY</text><text fill="#000000" font-family="sans-serif" font-size="14" lengthAdjust="spacing" textLength="57" x="1484" y="270.888">GARAGE</text><text fill="#000000" font-family="sans-serif" font-size="14" lengthAdjust="spacing" textLength="41" x="1484" y="287.3763">HOME</text><text fill="#000000" font-family="sans-serif" font-size="14" lengthAdjust="spacing" textLength="79" x="1484" y="303.8645">INSURANCE</text><text fill="#000000" font-family="sans-serif" font-size="14" lengthAdjust="spacing" textLength="42" x="1484" y="320.3528">LEGAL</text><text fill="#000000" font-family="sans-serif" font-size="14" lengthAdjust="spacing" textLength="57" x="1484" y="336.8411">MAILING</text><text fill="#000000" font-family="sans-serif" font-size="14" lengthAdjust="spacing" textLength="65" x="1484" y="353.3294">ORIGINAL</text><text fill="#000000" font-family="sans-serif" font-size="14" lengthAdjust="spacing" textLength="47" x="1484" y="369.8177">OTHER</text><text fill="#000000" font-family="sans-serif" font-size="14" lengthAdjust="spacing" textLength="53" x="1484" y="386.3059">POSTAL</text><text fill="#000000" font-family="sans-serif" font-size="14" lengthAdjust="spacing" textLength="67" x="1484" y="402.7942">PREVIOUS</text><text fill="#000000" font-family="sans-serif" font-size="14" lengthAdjust="spacing" textLength="67" x="1484" y="419.2825">PRODUCT</text><text fill="#000000" font-family="sans-serif" font-size="14" lengthAdjust="spacing" textLength="52" x="1484" y="435.7708">REBATE</text><text fill="#000000" font-family="sans-serif" font-size="14" lengthAdjust="spacing" textLength="70" x="1484" y="452.2591">RECIPIENT</text><text fill="#000000" font-family="sans-serif" font-size="14" lengthAdjust="spacing" textLength="75" x="1484" y="468.7473">RESIDENCE</text><text fill="#000000" font-family="sans-serif" font-size="14" lengthAdjust="spacing" textLength="56" x="1484" y="485.2356">SERVICE</text><text fill="#000000" font-family="sans-serif" font-size="14" lengthAdjust="spacing" textLength="141" x="1484" y="501.7239">SERVICE_CONTRACT</text><text fill="#000000" font-family="sans-serif" font-size="14" lengthAdjust="spacing" textLength="62" x="1484" y="518.2122">SHIPPING</text><text fill="#000000" font-family="sans-serif" font-size="14" lengthAdjust="spacing" textLength="85" x="1484" y="534.7005">TEMPORARY</text><text fill="#000000" font-family="sans-serif" font-size="14" lengthAdjust="spacing" textLength="73" x="1484" y="551.1888">VACATION</text><text fill="#000000" font-family="sans-serif" font-size="14" lengthAdjust="spacing" textLength="41" x="1484" y="567.677">WORK</text><line style="stroke:#181818;stroke-width:0.5;" x1="1479" x2="1630" y1="574.6302" y2="574.6302"/></g><g id="elem_InvoiceTypes"><rect codeLine="109" fill="#FAFF91" height="311.8125" id="InvoiceTypes" rx="2.5" ry="2.5" style="stroke:#181818;stroke-width:0.5;" width="141" x="7" y="163.64"/><ellipse cx="31.45" cy="179.64" fill="#ADD1B2" rx="11" ry="11" style="stroke:#181818;stroke-width:1.0;"/><path d="M33.9231,185.7831 Q33.3421,186.0819 32.7029,186.2313 Q32.0638,186.3807 31.3582,186.3807 Q28.8514,186.3807 27.5315,184.7289 Q26.2117,183.077 26.2117,179.9559 Q26.2117,176.8265 27.5315,175.1747 Q28.8514,173.5228 31.3582,173.5228 Q32.0638,173.5228 32.7112,173.6722 Q33.3587,173.8216 33.9231,174.1205 L33.9231,176.8431 Q33.2923,176.2621 32.6988,175.9923 Q32.1053,175.7225 31.4744,175.7225 Q30.1297,175.7225 29.4449,176.7892 Q28.7601,177.8558 28.7601,179.9559 Q28.7601,182.0477 29.4449,183.1144 Q30.1297,184.181 31.4744,184.181 Q32.1053,184.181 32.6988,183.9112 Q33.2923,183.6415 33.9231,183.0604 Z " fill="#000000"/><text fill="#000000" font-family="sans-serif" font-size="14" lengthAdjust="spacing" textLength="88" x="47.55" y="184.931">InvoiceTypes</text><line style="stroke:#181818;stroke-width:0.5;" x1="8" x2="147" y1="195.64" y2="195.64"/><text fill="#000000" font-family="sans-serif" font-size="14" lengthAdjust="spacing" textLength="67" x="13" y="213.1752">ADVANCE</text><text fill="#000000" font-family="sans-serif" font-size="14" lengthAdjust="spacing" textLength="93" x="13" y="229.6634">COMMERCIAL</text><text fill="#000000" font-family="sans-serif" font-size="14" lengthAdjust="spacing" textLength="100" x="13" y="246.1517">CREDIT_MEMO</text><text fill="#000000" font-family="sans-serif" font-size="14" lengthAdjust="spacing" textLength="89" x="13" y="262.64">DEBIT_MEMO</text><text fill="#000000" font-family="sans-serif" font-size="14" lengthAdjust="spacing" textLength="39" x="13" y="279.1283">FINAL</text><text fill="#000000" font-family="sans-serif" font-size="14" lengthAdjust="spacing" textLength="124" x="13" y="295.6166">FINANCE_CHARGE</text><text fill="#000000" font-family="sans-serif" font-size="14" lengthAdjust="spacing" textLength="129" x="13" y="312.1048">INSURANCE_CLAIM</text><text fill="#000000" font-family="sans-serif" font-size="14" lengthAdjust="spacing" textLength="56" x="13" y="328.5931">INVOICE</text><text fill="#000000" font-family="sans-serif" font-size="14" lengthAdjust="spacing" textLength="41" x="13" y="345.0814">LEASE</text><text fill="#000000" font-family="sans-serif" font-size="14" lengthAdjust="spacing" textLength="44" x="13" y="361.5697">PARTS</text><text fill="#000000" font-family="sans-serif" font-size="14" lengthAdjust="spacing" textLength="85" x="13" y="378.058">PRO_FORMA</text><text fill="#000000" font-family="sans-serif" font-size="14" lengthAdjust="spacing" textLength="56" x="13" y="394.5462">SERVICE</text><text fill="#000000" font-family="sans-serif" font-size="14" lengthAdjust="spacing" textLength="76" x="13" y="411.0345">STANDARD</text><text fill="#000000" font-family="sans-serif" font-size="14" lengthAdjust="spacing" textLength="83" x="13" y="427.5228">STATEMENT</text><text fill="#000000" font-family="sans-serif" font-size="14" lengthAdjust="spacing" textLength="96" x="13" y="444.0111">VEHICLE_SALE</text><text fill="#000000" font-family="sans-serif" font-size="14" lengthAdjust="spacing" textLength="128" x="13" y="460.4994">WARRANTY_CLAIM</text><line style="stroke:#181818;stroke-width:0.5;" x1="8" x2="147" y1="467.4525" y2="467.4525"/></g><g id="elem_ShipmentStateTypes"><rect codeLine="127" fill="#FAFF91" height="328.3008" id="ShipmentStateTypes" rx="2.5" ry="2.5" style="stroke:#181818;stroke-width:0.5;" width="205" x="592" y="155.4"/><ellipse cx="622.3" cy="171.4" fill="#ADD1B2" rx="11" ry="11" style="stroke:#181818;stroke-width:1.0;"/><path d="M624.7731,177.5431 Q624.1921,177.8419 623.5529,177.9913 Q622.9138,178.1407 622.2082,178.1407 Q619.7014,178.1407 618.3815,176.4889 Q617.0617,174.837 617.0617,171.7159 Q617.0617,168.5865 618.3815,166.9347 Q619.7014,165.2828 622.2082,165.2828 Q622.9138,165.2828 623.5612,165.4322 Q624.2087,165.5816 624.7731,165.8805 L624.7731,168.6031 Q624.1423,168.0221 623.5488,167.7523 Q622.9553,167.4825 622.3244,167.4825 Q620.9797,167.4825 620.2949,168.5492 Q619.6101,169.6158 619.6101,171.7159 Q619.6101,173.8077 620.2949,174.8744 Q620.9797,175.941 622.3244,175.941 Q622.9553,175.941 623.5488,175.6712 Q624.1423,175.4015 624.7731,174.8204 Z " fill="#000000"/><text fill="#000000" font-family="sans-serif" font-size="14" lengthAdjust="spacing" textLength="139" x="639.7" y="176.691">ShipmentStateTypes</text><line style="stroke:#181818;stroke-width:0.5;" x1="593" x2="796" y1="187.4" y2="187.4"/><text fill="#000000" font-family="sans-serif" font-size="14" lengthAdjust="spacing" textLength="50" x="598" y="204.9352">ACTIVE</text><text fill="#000000" font-family="sans-serif" font-size="14" lengthAdjust="spacing" textLength="127" x="598" y="221.4234">ACTUAL_DELIVERY</text><text fill="#000000" font-family="sans-serif" font-size="14" lengthAdjust="spacing" textLength="93" x="598" y="237.9117">ACTUAL_SHIP</text><text fill="#000000" font-family="sans-serif" font-size="14" lengthAdjust="spacing" textLength="54" x="598" y="254.4">CLOSED</text><text fill="#000000" font-family="sans-serif" font-size="14" lengthAdjust="spacing" textLength="64" x="598" y="270.8883">CONFIRM</text><text fill="#000000" font-family="sans-serif" font-size="14" lengthAdjust="spacing" textLength="73" x="598" y="287.3766">DELIVERED</text><text fill="#000000" font-family="sans-serif" font-size="14" lengthAdjust="spacing" textLength="149" x="598" y="303.8648">ESTIMATED_DELIVERY</text><text fill="#000000" font-family="sans-serif" font-size="14" lengthAdjust="spacing" textLength="115" x="598" y="320.3531">ESTIMATED_SHIP</text><text fill="#000000" font-family="sans-serif" font-size="14" lengthAdjust="spacing" textLength="122" x="598" y="336.8414">LOST_IN_TRANSIT</text><text fill="#000000" font-family="sans-serif" font-size="14" lengthAdjust="spacing" textLength="140" x="598" y="353.3297">MANIFEST_CREATED</text><text fill="#000000" font-family="sans-serif" font-size="14" lengthAdjust="spacing" textLength="37" x="598" y="369.818">OPEN</text><text fill="#000000" font-family="sans-serif" font-size="14" lengthAdjust="spacing" textLength="74" x="598" y="386.3062">PICKED_UP</text><text fill="#000000" font-family="sans-serif" font-size="14" lengthAdjust="spacing" textLength="160" x="598" y="402.7945">RETURNED_TO_SENDER</text><text fill="#000000" font-family="sans-serif" font-size="14" lengthAdjust="spacing" textLength="193" x="598" y="419.2828">RETURNED_TO_WAREHOUSE</text><text fill="#000000" font-family="sans-serif" font-size="14" lengthAdjust="spacing" textLength="130" x="598" y="435.7711">RETURN_INITIATED</text><text fill="#000000" font-family="sans-serif" font-size="14" lengthAdjust="spacing" textLength="65" x="598" y="452.2594">TRACKED</text><text fill="#000000" font-family="sans-serif" font-size="14" lengthAdjust="spacing" textLength="71" x="598" y="468.7477">UPDATING</text><line style="stroke:#181818;stroke-width:0.5;" x1="593" x2="796" y1="475.7008" y2="475.7008"/></g><g id="elem_ShippingMethodTypes"><rect codeLine="146" fill="#FAFF91" height="476.6953" id="ShippingMethodTypes" rx="2.5" ry="2.5" style="stroke:#181818;stroke-width:0.5;" width="211" x="1183" y="692.09"/><ellipse cx="1209.7" cy="708.09" fill="#ADD1B2" rx="11" ry="11" style="stroke:#181818;stroke-width:1.0;"/><path d="M1212.1731,714.2331 Q1211.5921,714.5319 1210.9529,714.6813 Q1210.3138,714.8307 1209.6082,714.8307 Q1207.1014,714.8307 1205.7815,713.1789 Q1204.4617,711.527 1204.4617,708.4059 Q1204.4617,705.2765 1205.7815,703.6247 Q1207.1014,701.9728 1209.6082,701.9728 Q1210.3138,701.9728 1210.9612,702.1222 Q1211.6087,702.2716 1212.1731,702.5705 L1212.1731,705.2931 Q1211.5423,704.7121 1210.9488,704.4423 Q1210.3553,704.1725 1209.7244,704.1725 Q1208.3797,704.1725 1207.6949,705.2392 Q1207.0101,706.3058 1207.0101,708.4059 Q1207.0101,710.4977 1207.6949,711.5644 Q1208.3797,712.631 1209.7244,712.631 Q1210.3553,712.631 1210.9488,712.3612 Q1211.5423,712.0915 1212.1731,711.5104 Z " fill="#000000"/><text fill="#000000" font-family="sans-serif" font-size="14" lengthAdjust="spacing" textLength="153" x="1226.3" y="713.381">ShippingMethodTypes</text><line style="stroke:#181818;stroke-width:0.5;" x1="1184" x2="1393" y1="724.09" y2="724.09"/><text fill="#000000" font-family="sans-serif" font-size="14" lengthAdjust="spacing" textLength="88" x="1189" y="741.6252">AIR_FREIGHT</text><text fill="#000000" font-family="sans-serif" font-size="14" lengthAdjust="spacing" textLength="123" x="1189" y="758.1134">CURBSIDE_PICKUP</text><text fill="#000000" font-family="sans-serif" font-size="14" lengthAdjust="spacing" textLength="81" x="1189" y="774.6017">DOWNLOAD</text><text fill="#000000" font-family="sans-serif" font-size="14" lengthAdjust="spacing" textLength="71" x="1189" y="791.09">ECONOMY</text><text fill="#000000" font-family="sans-serif" font-size="14" lengthAdjust="spacing" textLength="101" x="1189" y="807.5783">ECO_FRIENDLY</text><text fill="#000000" font-family="sans-serif" font-size="14" lengthAdjust="spacing" textLength="58" x="1189" y="824.0666">EXPRESS</text><text fill="#000000" font-family="sans-serif" font-size="14" lengthAdjust="spacing" textLength="77" x="1189" y="840.5548">FLAT_RATE</text><text fill="#000000" font-family="sans-serif" font-size="14" lengthAdjust="spacing" textLength="102" x="1189" y="857.0431">FREE_SHIPPING</text><text fill="#000000" font-family="sans-serif" font-size="14" lengthAdjust="spacing" textLength="58" x="1189" y="873.5314">FREIGHT</text><text fill="#000000" font-family="sans-serif" font-size="14" lengthAdjust="spacing" textLength="60" x="1189" y="890.0197">GROUND</text><text fill="#000000" font-family="sans-serif" font-size="14" lengthAdjust="spacing" textLength="59" x="1189" y="906.508">HAZMAT</text><text fill="#000000" font-family="sans-serif" font-size="14" lengthAdjust="spacing" textLength="119" x="1189" y="922.9962">HYBRID_SHIPPING</text><text fill="#000000" font-family="sans-serif" font-size="14" lengthAdjust="spacing" textLength="192" x="1189" y="939.4845">INTERNATIONAL_EXPEDITED</text><text fill="#000000" font-family="sans-serif" font-size="14" lengthAdjust="spacing" textLength="194" x="1189" y="955.9728">INTERNATIONAL_STANDARD</text><text fill="#000000" font-family="sans-serif" font-size="14" lengthAdjust="spacing" textLength="116" x="1189" y="972.4611">LOCAL_DELIVERY</text><text fill="#000000" font-family="sans-serif" font-size="14" lengthAdjust="spacing" textLength="125" x="1189" y="988.9494">LOCKER_DELIVERY</text><text fill="#000000" font-family="sans-serif" font-size="14" lengthAdjust="spacing" textLength="114" x="1189" y="1005.4377">OCEAN_FREIGHT</text><text fill="#000000" font-family="sans-serif" font-size="14" lengthAdjust="spacing" textLength="80" x="1189" y="1021.9259">OVERNIGHT</text><text fill="#000000" font-family="sans-serif" font-size="14" lengthAdjust="spacing" textLength="120" x="1189" y="1038.4142">PALLET_DELIVERY</text><text fill="#000000" font-family="sans-serif" font-size="14" lengthAdjust="spacing" textLength="49" x="1189" y="1054.9025">PICKUP</text><text fill="#000000" font-family="sans-serif" font-size="14" lengthAdjust="spacing" textLength="95" x="1189" y="1071.3908">RAIL_FREIGHT</text><text fill="#000000" font-family="sans-serif" font-size="14" lengthAdjust="spacing" textLength="74" x="1189" y="1087.8791">SAME_DAY</text><text fill="#000000" font-family="sans-serif" font-size="14" lengthAdjust="spacing" textLength="85" x="1189" y="1104.3673">TABLE_RATE</text><text fill="#000000" font-family="sans-serif" font-size="14" lengthAdjust="spacing" textLength="199" x="1189" y="1120.8556">TEMPERATURE_CONTROLLED</text><text fill="#000000" font-family="sans-serif" font-size="14" lengthAdjust="spacing" textLength="137" x="1189" y="1137.3439">THREE_DAY_SELECT</text><text fill="#000000" font-family="sans-serif" font-size="14" lengthAdjust="spacing" textLength="98" x="1189" y="1153.8322">TWO_DAY_AIR</text><line style="stroke:#181818;stroke-width:0.5;" x1="1184" x2="1393" y1="1160.7853" y2="1160.7853"/></g><g id="elem_UOMQuantityCategoryTypes"><rect codeLine="174" fill="#FAFF91" height="625.0898" id="UOMQuantityCategoryTypes" rx="2.5" ry="2.5" style="stroke:#181818;stroke-width:0.5;" width="225" x="839" y="7"/><ellipse cx="854" cy="23" fill="#ADD1B2" rx="11" ry="11" style="stroke:#181818;stroke-width:1.0;"/><path d="M856.4731,29.1431 Q855.8921,29.4419 855.2529,29.5913 Q854.6138,29.7407 853.9082,29.7407 Q851.4014,29.7407 850.0815,28.0889 Q848.7617,26.437 848.7617,23.3159 Q848.7617,20.1865 850.0815,18.5347 Q851.4014,16.8828 853.9082,16.8828 Q854.6138,16.8828 855.2612,17.0322 Q855.9087,17.1816 856.4731,17.4805 L856.4731,20.2031 Q855.8423,19.6221 855.2488,19.3523 Q854.6553,19.0825 854.0244,19.0825 Q852.6797,19.0825 851.9949,20.1492 Q851.3101,21.2158 851.3101,23.3159 Q851.3101,25.4077 851.9949,26.4744 Q852.6797,27.541 854.0244,27.541 Q854.6553,27.541 855.2488,27.2712 Q855.8423,27.0015 856.4731,26.4204 Z " fill="#000000"/><text fill="#000000" font-family="sans-serif" font-size="14" lengthAdjust="spacing" textLength="193" x="868" y="28.291">UOMQuantityCategoryTypes</text><line style="stroke:#181818;stroke-width:0.5;" x1="840" x2="1063" y1="39" y2="39"/><text fill="#000000" font-family="sans-serif" font-size="14" lengthAdjust="spacing" textLength="50" x="845" y="56.5352">COUNT</text><text fill="#000000" font-family="sans-serif" font-size="14" lengthAdjust="spacing" textLength="144" x="845" y="73.0234">DEFAULT_LEAD_TIME</text><text fill="#000000" font-family="sans-serif" font-size="14" lengthAdjust="spacing" textLength="154" x="845" y="89.5117">DIMENSIONAL_WEIGHT</text><text fill="#000000" font-family="sans-serif" font-size="14" lengthAdjust="spacing" textLength="85" x="845" y="106">DIMENSIONS</text><text fill="#000000" font-family="sans-serif" font-size="14" lengthAdjust="spacing" textLength="117" x="845" y="122.4883">DIMENSION_UNIT</text><text fill="#000000" font-family="sans-serif" font-size="14" lengthAdjust="spacing" textLength="141" x="845" y="138.9766">ELECTRICAL_RATING</text><text fill="#000000" font-family="sans-serif" font-size="14" lengthAdjust="spacing" textLength="126" x="845" y="155.4648">EXPIRATION_DATE</text><text fill="#000000" font-family="sans-serif" font-size="14" lengthAdjust="spacing" textLength="110" x="845" y="171.9531">GROSS_VOLUME</text><text fill="#000000" font-family="sans-serif" font-size="14" lengthAdjust="spacing" textLength="106" x="845" y="188.4414">GROSS_WEIGHT</text><text fill="#000000" font-family="sans-serif" font-size="14" lengthAdjust="spacing" textLength="69" x="845" y="204.9297">MATERIAL</text><text fill="#000000" font-family="sans-serif" font-size="14" lengthAdjust="spacing" textLength="89" x="845" y="221.418">MAX_HEIGHT</text><text fill="#000000" font-family="sans-serif" font-size="14" lengthAdjust="spacing" textLength="113" x="845" y="237.9063">MAX_LEAD_TIME</text><text fill="#000000" font-family="sans-serif" font-size="14" lengthAdjust="spacing" textLength="92" x="845" y="254.3945">MAX_LENGTH</text><text fill="#000000" font-family="sans-serif" font-size="14" lengthAdjust="spacing" textLength="164" x="845" y="270.8828">MAX_ORDER_QUANTITY</text><text fill="#000000" font-family="sans-serif" font-size="14" lengthAdjust="spacing" textLength="91" x="845" y="287.3711">MAX_WEIGHT</text><text fill="#000000" font-family="sans-serif" font-size="14" lengthAdjust="spacing" textLength="83" x="845" y="303.8594">MAX_WIDTH</text><text fill="#000000" font-family="sans-serif" font-size="14" lengthAdjust="spacing" textLength="84" x="845" y="320.3477">MIN_HEIGHT</text><text fill="#000000" font-family="sans-serif" font-size="14" lengthAdjust="spacing" textLength="87" x="845" y="336.8359">MIN_LENGTH</text><text fill="#000000" font-family="sans-serif" font-size="14" lengthAdjust="spacing" textLength="160" x="845" y="353.3242">MIN_ORDER_AVAILABLE</text><text fill="#000000" font-family="sans-serif" font-size="14" lengthAdjust="spacing" textLength="159" x="845" y="369.8125">MIN_ORDER_QUANTITY</text><text fill="#000000" font-family="sans-serif" font-size="14" lengthAdjust="spacing" textLength="86" x="845" y="386.3008">MIN_WEIGHT</text><text fill="#000000" font-family="sans-serif" font-size="14" lengthAdjust="spacing" textLength="78" x="845" y="402.7891">MIN_WIDTH</text><text fill="#000000" font-family="sans-serif" font-size="14" lengthAdjust="spacing" textLength="91" x="845" y="419.2773">NET_VOLUME</text><text fill="#000000" font-family="sans-serif" font-size="14" lengthAdjust="spacing" textLength="87" x="845" y="435.7656">NET_WEIGHT</text><text fill="#000000" font-family="sans-serif" font-size="14" lengthAdjust="spacing" textLength="144" x="845" y="452.2539">PACKAGE_QUANTITY</text><text fill="#000000" font-family="sans-serif" font-size="14" lengthAdjust="spacing" textLength="130" x="845" y="468.7422">SHELF_LIFE_HOURS</text><text fill="#000000" font-family="sans-serif" font-size="14" lengthAdjust="spacing" textLength="208" x="845" y="485.2305">SHIPPING_DIM_GROSS_WEIGHT</text><text fill="#000000" font-family="sans-serif" font-size="14" lengthAdjust="spacing" textLength="153" x="845" y="501.7188">SHIPPING_DIM_HEIGHT</text><text fill="#000000" font-family="sans-serif" font-size="14" lengthAdjust="spacing" textLength="156" x="845" y="518.207">SHIPPING_DIM_LENGTH</text><text fill="#000000" font-family="sans-serif" font-size="14" lengthAdjust="spacing" textLength="189" x="845" y="534.6953">SHIPPING_DIM_NET_WEIGHT</text><text fill="#000000" font-family="sans-serif" font-size="14" lengthAdjust="spacing" textLength="147" x="845" y="551.1836">SHIPPING_DIM_WIDTH</text><text fill="#000000" font-family="sans-serif" font-size="14" lengthAdjust="spacing" textLength="122" x="845" y="567.6719">SHIPPING_WEIGHT</text><text fill="#000000" font-family="sans-serif" font-size="14" lengthAdjust="spacing" textLength="33" x="845" y="584.1602">TIME</text><text fill="#000000" font-family="sans-serif" font-size="14" lengthAdjust="spacing" textLength="57" x="845" y="600.6484">VOLUME</text><text fill="#000000" font-family="sans-serif" font-size="14" lengthAdjust="spacing" textLength="53" x="845" y="617.1367">WEIGHT</text><line style="stroke:#181818;stroke-width:0.5;" x1="840" x2="1063" y1="624.0898" y2="624.0898"/></g><g id="link_AddressReference_Shipment"><path codeLine="211" d="M1492.2882,1072.4957 C1470.1182,1111.3957 1447.23,1140.67 1411.5,1168.79 C1257.36,1290.09 1036.31,1346.02 882.15,1371.44 " fill="none" id="AddressReference-backto-Shipment" style="stroke:#181818;stroke-width:1.0;"/><polygon fill="#181818" points="1498.23,1062.07,1491.7839,1065.3022,1492.2882,1072.4957,1498.7343,1069.2634,1498.23,1062.07" style="stroke:#181818;stroke-width:1.0;"/></g><g id="link_AddressTypes_AddressReference"><path codeLine="212" d="M1554.5,594.75 C1554.5,669.48 1554.5,735.67 1554.5,798.84 " fill="none" id="AddressTypes-backto-AddressReference" style="stroke:#181818;stroke-width:1.0;"/><polygon fill="#181818" points="1554.5,582.75,1550.5,588.75,1554.5,594.75,1558.5,588.75,1554.5,582.75" style="stroke:#181818;stroke-width:1.0;"/></g><g id="link_Identifier_InvoiceReference"><path codeLine="213" d="M240.44,393.39 C212.06,507.82 157.23,728.92 127.62,848.29 " fill="none" id="Identifier-InvoiceReference" style="stroke:#181818;stroke-width:1.0;"/></g><g id="link_Identifier_Shipment"><path codeLine="214" d="M251.8243,405.1587 C238.7243,586.2787 214.76,1040.57 294.5,1168.79 C345.66,1251.06 438.51,1305.23 522.72,1339.58 " fill="none" id="Identifier-backto-Shipment" style="stroke:#181818;stroke-width:1.0;"/><polygon fill="#181818" points="252.69,393.19,248.2676,398.8858,251.8243,405.1587,256.2467,399.4629,252.69,393.19" style="stroke:#181818;stroke-width:1.0;"/></g><g id="link_InvoiceReference_Shipment"><path codeLine="215" d="M139.5596,1023.7363 C159.9696,1073.9363 187.55,1125.67 232.5,1168.79 C313.81,1246.8 427.49,1301.77 522.67,1337.63 " fill="none" id="InvoiceReference-backto-Shipment" style="stroke:#181818;stroke-width:1.0;"/><polygon fill="#181818" points="135.04,1012.62,133.5944,1019.6847,139.5596,1023.7363,141.0053,1016.6716,135.04,1012.62" style="stroke:#181818;stroke-width:1.0;"/></g><g id="link_InvoiceTypes_InvoiceReference"><path codeLine="216" d="M85.15,475.77 C91,594.51 98.83,753.49 103.5,848.29 " fill="none" id="InvoiceTypes-InvoiceReference" style="stroke:#181818;stroke-width:1.0;"/></g><g id="link_Position_ShipmentEvent"><path codeLine="217" d="M480.5,409.74 C480.5,527.83 480.5,734.39 480.5,848.29 " fill="none" id="Position-ShipmentEvent" style="stroke:#181818;stroke-width:1.0;"/></g><g id="link_ShipmentEvent_Shipment"><path codeLine="218" d="M524.7615,1023.2593 C553.5015,1082.8693 588.34,1155.13 623.64,1228.36 " fill="none" id="ShipmentEvent-backto-Shipment" style="stroke:#181818;stroke-width:1.0;"/><polygon fill="#181818" points="519.55,1012.45,518.5527,1019.5918,524.7615,1023.2593,525.7588,1016.1175,519.55,1012.45" style="stroke:#181818;stroke-width:1.0;"/></g><g id="link_ShipmentStateTypes_ShipmentEvent"><path codeLine="219" d="M633.0313,495.4412 C591.6213,613.2712 541.49,755.89 508.96,848.47 " fill="none" id="ShipmentStateTypes-backto-ShipmentEvent" style="stroke:#181818;stroke-width:1.0;"/><polygon fill="#181818" points="637.01,484.12,631.2469,488.4544,633.0313,495.4412,638.7944,491.1068,637.01,484.12" style="stroke:#181818;stroke-width:1.0;"/></g><g id="link_ShipmentStateTypes_Shipment"><path codeLine="220" d="M695.72,484.14 C697.23,685.87 699.77,1026.72 701.28,1228.41 " fill="none" id="ShipmentStateTypes-Shipment" style="stroke:#181818;stroke-width:1.0;"/></g><g id="link_ShippingMethodTypes_Shipment"><path codeLine="221" d="M1174.7264,1159.7089 C1169.2664,1166.0589 1171.41,1163.05 1165.5,1168.79 C1086.37,1245.65 975.7,1300.32 882.39,1336.3 " fill="none" id="ShippingMethodTypes-backto-Shipment" style="stroke:#181818;stroke-width:1.0;"/><polygon fill="#181818" points="1182.55,1150.61,1175.6052,1152.5516,1174.7264,1159.7089,1181.6712,1157.7673,1182.55,1150.61" style="stroke:#181818;stroke-width:1.0;"/></g><g id="link_UOMQuantityCategoryTypes_UnitOfMeasure"><path codeLine="222" d="M951.5,632.58 C951.5,720.7 951.5,807.98 951.5,864.85 " fill="none" id="UOMQuantityCategoryTypes-UnitOfMeasure" style="stroke:#181818;stroke-width:1.0;"/></g><g id="link_UnitOfMeasure_Shipment"><path codeLine="223" d="M910.9116,1006.5153 C878.3816,1066.6653 834.21,1148.36 790.77,1228.69 " fill="none" id="UnitOfMeasure-backto-Shipment" style="stroke:#181818;stroke-width:1.0;"/><polygon fill="#181818" points="916.62,995.96,910.2474,999.3348,910.9116,1006.5153,917.2842,1003.1404,916.62,995.96" style="stroke:#181818;stroke-width:1.0;"/></g></g></svg>