<?xml version="1.0" encoding="us-ascii" standalone="no"?><svg xmlns="http://www.w3.org/2000/svg" xmlns:xlink="http://www.w3.org/1999/xlink" contentStyleType="text/css" height="435px" preserveAspectRatio="none" style="width:1682px;height:435px;background:#FFFFFF;" version="1.1" viewBox="0 0 1682 435" width="1682px" zoomAndPan="magnify"><defs/><g><g id="elem_ControlAccountReference"><rect fill="#F1F1F1" height="36.4883" rx="2.5" ry="2.5" style="stroke:#181818;stroke-width:0.5;" width="196" x="7" y="296.46"/><text fill="#000000" font-family="sans-serif" font-size="14" lengthAdjust="spacing" textLength="176" x="17" y="319.9952">ControlAccountReference</text></g><g id="elem_EffectivePeriod"><rect fill="#F1F1F1" height="36.4883" rx="2.5" ry="2.5" style="stroke:#181818;stroke-width:0.5;" width="121" x="1517.5" y="199.98"/><text fill="#000000" font-family="sans-serif" font-size="14" lengthAdjust="spacing" textLength="101" x="1527.5" y="223.5152">EffectivePeriod</text></g><g id="elem_Identifier"><rect fill="#F1F1F1" height="36.4883" rx="2.5" ry="2.5" style="stroke:#181818;stroke-width:0.5;" width="82" x="83" y="199.98"/><text fill="#000000" font-family="sans-serif" font-size="14" lengthAdjust="spacing" textLength="62" x="93" y="223.5152">Identifier</text></g><g id="elem_Part"><rect fill="#F1F1F1" height="36.4883" rx="2.5" ry="2.5" style="stroke:#181818;stroke-width:0.5;" width="47" x="619.5" y="392.95"/><text fill="#000000" font-family="sans-serif" font-size="14" lengthAdjust="spacing" textLength="27" x="629.5" y="416.4852">Part</text></g><g id="elem_PartEvent"><rect fill="#F1F1F1" height="36.4883" rx="2.5" ry="2.5" style="stroke:#181818;stroke-width:0.5;" width="84" x="454" y="199.98"/><text fill="#000000" font-family="sans-serif" font-size="14" lengthAdjust="spacing" textLength="64" x="464" y="223.5152">PartEvent</text></g><g id="elem_PartIdentifier"><rect fill="#F1F1F1" height="36.4883" rx="2.5" ry="2.5" style="stroke:#181818;stroke-width:0.5;" width="109" x="309.5" y="296.46"/><text fill="#000000" font-family="sans-serif" font-size="14" lengthAdjust="spacing" textLength="89" x="319.5" y="319.9952">PartIdentifier</text></g><g id="elem_PartLifecycle"><rect fill="#F1F1F1" height="36.4883" rx="2.5" ry="2.5" style="stroke:#181818;stroke-width:0.5;" width="104" x="644" y="296.46"/><text fill="#000000" font-family="sans-serif" font-size="14" lengthAdjust="spacing" textLength="84" x="654" y="319.9952">PartLifecycle</text></g><g id="elem_PartLocation"><rect fill="#F1F1F1" height="36.4883" rx="2.5" ry="2.5" style="stroke:#181818;stroke-width:0.5;" width="105" x="782.5" y="296.46"/><text fill="#000000" font-family="sans-serif" font-size="14" lengthAdjust="spacing" textLength="85" x="792.5" y="319.9952">PartLocation</text></g><g id="elem_PartName"><rect fill="#F1F1F1" height="36.4883" rx="2.5" ry="2.5" style="stroke:#181818;stroke-width:0.5;" width="86" x="174" y="103.49"/><text fill="#000000" font-family="sans-serif" font-size="14" lengthAdjust="spacing" textLength="66" x="184" y="127.0252">PartName</text></g><g id="elem_Price"><rect fill="#F1F1F1" height="36.4883" rx="2.5" ry="2.5" style="stroke:#181818;stroke-width:0.5;" width="53" x="1365.5" y="296.46"/><text fill="#000000" font-family="sans-serif" font-size="14" lengthAdjust="spacing" textLength="33" x="1375.5" y="319.9952">Price</text></g><g id="elem_SuperSession"><rect fill="#F1F1F1" height="36.4883" rx="2.5" ry="2.5" style="stroke:#181818;stroke-width:0.5;" width="112" x="715" y="199.98"/><text fill="#000000" font-family="sans-serif" font-size="14" lengthAdjust="spacing" textLength="92" x="725" y="223.5152">SuperSession</text></g><g id="elem_DurationUOMTypes"><rect fill="#FAFF91" height="36.4883" rx="2.5" ry="2.5" style="stroke:#181818;stroke-width:0.5;" width="153" x="1523.5" y="103.49"/><text fill="#000000" font-family="sans-serif" font-size="14" lengthAdjust="spacing" textLength="133" x="1533.5" y="127.0252">DurationUOMTypes</text></g><g id="elem_PartConditionGradeTypes"><rect fill="#FAFF91" height="36.4883" rx="2.5" ry="2.5" style="stroke:#181818;stroke-width:0.5;" width="196" x="922" y="296.46"/><text fill="#000000" font-family="sans-serif" font-size="14" lengthAdjust="spacing" textLength="176" x="932" y="319.9952">PartConditionGradeTypes</text></g><g id="elem_PartConditionTypes"><rect fill="#FAFF91" height="36.4883" rx="2.5" ry="2.5" style="stroke:#181818;stroke-width:0.5;" width="155" x="1153.5" y="296.46"/><text fill="#000000" font-family="sans-serif" font-size="14" lengthAdjust="spacing" textLength="135" x="1163.5" y="319.9952">PartConditionTypes</text></g><g id="elem_PartIdentifierTypes"><rect fill="#FAFF91" height="36.4883" rx="2.5" ry="2.5" style="stroke:#181818;stroke-width:0.5;" width="149" x="270.5" y="199.98"/><text fill="#000000" font-family="sans-serif" font-size="14" lengthAdjust="spacing" textLength="129" x="280.5" y="223.5152">PartIdentifierTypes</text></g><g id="elem_PartInventoryOrderTypes"><rect fill="#FAFF91" height="36.4883" rx="2.5" ry="2.5" style="stroke:#181818;stroke-width:0.5;" width="191" x="294.5" y="103.49"/><text fill="#000000" font-family="sans-serif" font-size="14" lengthAdjust="spacing" textLength="171" x="304.5" y="127.0252">PartInventoryOrderTypes</text></g><g id="elem_PartNameTypes"><rect fill="#FAFF91" height="36.4883" rx="2.5" ry="2.5" style="stroke:#181818;stroke-width:0.5;" width="126" x="154" y="7"/><text fill="#000000" font-family="sans-serif" font-size="14" lengthAdjust="spacing" textLength="106" x="164" y="30.5352">PartNameTypes</text></g><g id="elem_PartOrderConfigTypes"><rect fill="#FAFF91" height="36.4883" rx="2.5" ry="2.5" style="stroke:#181818;stroke-width:0.5;" width="173" x="684.5" y="103.49"/><text fill="#000000" font-family="sans-serif" font-size="14" lengthAdjust="spacing" textLength="153" x="694.5" y="127.0252">PartOrderConfigTypes</text></g><g id="elem_PartStatusTypes"><rect fill="#FAFF91" height="36.4883" rx="2.5" ry="2.5" style="stroke:#181818;stroke-width:0.5;" width="129" x="520.5" y="103.49"/><text fill="#000000" font-family="sans-serif" font-size="14" lengthAdjust="spacing" textLength="109" x="530.5" y="127.0252">PartStatusTypes</text></g><g id="elem_PartStorageTypes"><rect fill="#FAFF91" height="36.4883" rx="2.5" ry="2.5" style="stroke:#181818;stroke-width:0.5;" width="140" x="862" y="199.98"/><text fill="#000000" font-family="sans-serif" font-size="14" lengthAdjust="spacing" textLength="120" x="872" y="223.5152">PartStorageTypes</text></g><g id="elem_PriceTypes"><rect fill="#FAFF91" height="36.4883" rx="2.5" ry="2.5" style="stroke:#181818;stroke-width:0.5;" width="93" x="1345.5" y="199.98"/><text fill="#000000" font-family="sans-serif" font-size="14" lengthAdjust="spacing" textLength="73" x="1355.5" y="223.5152">PriceTypes</text></g><g id="elem_ProductConsumptionTypes"><rect fill="#FAFF91" height="36.4883" rx="2.5" ry="2.5" style="stroke:#181818;stroke-width:0.5;" width="206" x="893" y="103.49"/><text fill="#000000" font-family="sans-serif" font-size="14" lengthAdjust="spacing" textLength="186" x="903" y="127.0252">ProductConsumptionTypes</text></g><g id="elem_ProductPackageTypes"><rect fill="#FAFF91" height="36.4883" rx="2.5" ry="2.5" style="stroke:#181818;stroke-width:0.5;" width="169" x="1133.5" y="103.49"/><text fill="#000000" font-family="sans-serif" font-size="14" lengthAdjust="spacing" textLength="149" x="1143.5" y="127.0252">ProductPackageTypes</text></g><g id="elem_ProductStageTypes"><rect fill="#FAFF91" height="36.4883" rx="2.5" ry="2.5" style="stroke:#181818;stroke-width:0.5;" width="151" x="1337.5" y="103.49"/><text fill="#000000" font-family="sans-serif" font-size="14" lengthAdjust="spacing" textLength="131" x="1347.5" y="127.0252">ProductStageTypes</text></g><g id="link_ControlAccountReference_Part"><path d="M215.1791,335.0558 C343.2891,357.5558 547.52,393.43 619.14,406.01 " fill="none" id="ControlAccountReference-backto-Part" style="stroke:#181818;stroke-width:1.0;"/><polygon fill="#181818" points="203.36,332.98,208.5776,337.9576,215.1791,335.0558,209.9615,330.0782,203.36,332.98" style="stroke:#181818;stroke-width:1.0;"/></g><g id="link_DurationUOMTypes_EffectivePeriod"><path d="M1595.96,140.06 C1592.02,157 1586.05,182.66 1582.08,199.68 " fill="none" id="DurationUOMTypes-EffectivePeriod" style="stroke:#181818;stroke-width:1.0;"/></g><g id="link_EffectivePeriod_Price"><path d="M1543.45,236.77 C1507.42,255.08 1451.69,283.38 1418.83,300.08 " fill="none" id="EffectivePeriod-Price" style="stroke:#181818;stroke-width:1.0;"/></g><g id="link_Identifier_ControlAccountReference"><path d="M120.52,236.55 C117.11,253.49 111.95,279.15 108.53,296.17 " fill="none" id="Identifier-ControlAccountReference" style="stroke:#181818;stroke-width:1.0;"/></g><g id="link_Identifier_Part"><path d="M153.6964,244.6149 C183.9064,269.8049 233.91,307.99 292,332.95 C408.37,382.96 560.89,402.23 619.06,408.06 " fill="none" id="Identifier-backto-Part" style="stroke:#181818;stroke-width:1.0;"/><polygon fill="#181818" points="144.48,236.93,146.5266,243.8446,153.6964,244.6149,151.6498,237.7003,144.48,236.93" style="stroke:#181818;stroke-width:1.0;"/></g><g id="link_Identifier_PartIdentifier"><path d="M176.4251,239.8578 C219.3051,256.7478 275.06,278.69 319.21,296.07 " fill="none" id="Identifier-backto-PartIdentifier" style="stroke:#181818;stroke-width:1.0;"/><polygon fill="#181818" points="165.26,235.46,169.3766,241.3806,176.4251,239.8578,172.3085,233.9372,165.26,235.46" style="stroke:#181818;stroke-width:1.0;"/></g><g id="link_PartConditionGradeTypes_Part"><path d="M949.53,333.37 C863.43,354.95 722.36,390.31 666.67,404.26 " fill="none" id="PartConditionGradeTypes-Part" style="stroke:#181818;stroke-width:1.0;"/></g><g id="link_PartConditionTypes_Part"><path d="M1153.22,329.83 C1147.06,330.9 1140.93,331.95 1135,332.95 C955.31,363.19 738.03,395.99 666.84,406.64 " fill="none" id="PartConditionTypes-Part" style="stroke:#181818;stroke-width:1.0;"/></g><g id="link_PartEvent_Part"><path d="M510.4046,247.2718 C522.4846,270.3518 539.97,301.22 565,332.95 C582.58,355.25 606.12,377.76 622.73,392.68 " fill="none" id="PartEvent-backto-Part" style="stroke:#181818;stroke-width:1.0;"/><polygon fill="#181818" points="504.84,236.64,504.0784,243.8108,510.4046,247.2718,511.1662,240.101,504.84,236.64" style="stroke:#181818;stroke-width:1.0;"/></g><g id="link_PartIdentifierTypes_PartIdentifier"><path d="M348.48,236.55 C351.89,253.49 357.05,279.15 360.47,296.17 " fill="none" id="PartIdentifierTypes-PartIdentifier" style="stroke:#181818;stroke-width:1.0;"/></g><g id="link_PartIdentifier_Part"><path d="M427.5161,337.2186 C488.2361,357.7786 574.54,387.01 619.26,402.16 " fill="none" id="PartIdentifier-backto-Part" style="stroke:#181818;stroke-width:1.0;"/><polygon fill="#181818" points="416.15,333.37,420.5502,339.083,427.5161,337.2186,423.1159,331.5056,416.15,333.37" style="stroke:#181818;stroke-width:1.0;"/></g><g id="link_PartInventoryOrderTypes_PartEvent"><path d="M409.44,140.06 C428.45,157 457.24,182.66 476.32,199.68 " fill="none" id="PartInventoryOrderTypes-PartEvent" style="stroke:#181818;stroke-width:1.0;"/></g><g id="link_PartLifecycle_Part"><path d="M680.4104,343.5065 C670.9104,360.4465 662.38,375.64 652.84,392.66 " fill="none" id="PartLifecycle-backto-Part" style="stroke:#181818;stroke-width:1.0;"/><polygon fill="#181818" points="686.28,333.04,679.8564,336.3167,680.4104,343.5065,686.834,340.2298,686.28,333.04" style="stroke:#181818;stroke-width:1.0;"/></g><g id="link_PartLocation_Part"><path d="M788.5731,338.5584 C749.9631,357.5584 700.23,382.03 666.94,398.41 " fill="none" id="PartLocation-backto-Part" style="stroke:#181818;stroke-width:1.0;"/><polygon fill="#181818" points="799.34,333.26,792.1904,332.3202,788.5731,338.5584,795.7227,339.4982,799.34,333.26" style="stroke:#181818;stroke-width:1.0;"/></g><g id="link_PartNameTypes_PartName"><path d="M217,43.57 C217,60.52 217,86.18 217,103.19 " fill="none" id="PartNameTypes-PartName" style="stroke:#181818;stroke-width:1.0;"/></g><g id="link_PartName_PartIdentifier"><path d="M220.6689,151.9877 C224.0889,175.7577 231.26,206.94 253,236.46 C272.14,262.46 302.74,282.81 326.97,296.09 " fill="none" id="PartName-backto-PartIdentifier" style="stroke:#181818;stroke-width:1.0;"/><polygon fill="#181818" points="218.96,140.11,215.8552,146.6185,220.6689,151.9877,223.7737,145.4792,218.96,140.11" style="stroke:#181818;stroke-width:1.0;"/></g><g id="link_PartName_SuperSession"><path d="M272.0148,138.992 C277.5648,140.472 271.6,138.78 277,139.98 C434.02,174.67 622.47,199.6 714.64,210.73 " fill="none" id="PartName-backto-SuperSession" style="stroke:#181818;stroke-width:1.0;"/><polygon fill="#181818" points="260.42,135.9,265.1868,141.3109,272.0148,138.992,267.2481,133.581,260.42,135.9" style="stroke:#181818;stroke-width:1.0;"/></g><g id="link_PartOrderConfigTypes_SuperSession"><path d="M771,140.06 C771,157 771,182.66 771,199.68 " fill="none" id="PartOrderConfigTypes-SuperSession" style="stroke:#181818;stroke-width:1.0;"/></g><g id="link_PartStatusTypes_Part"><path d="M590.8259,152.2324 C597.9759,188.4224 612.49,261.65 627,332.95 C631.18,353.48 636.08,377.07 639.34,392.72 " fill="none" id="PartStatusTypes-backto-Part" style="stroke:#181818;stroke-width:1.0;"/><polygon fill="#181818" points="588.5,140.46,585.7388,147.1215,590.8259,152.2324,593.5871,145.5709,588.5,140.46" style="stroke:#181818;stroke-width:1.0;"/></g><g id="link_PartStatusTypes_PartLifecycle"><path d="M601.2712,150.7342 C622.4212,187.1142 664.66,259.78 685.78,296.13 " fill="none" id="PartStatusTypes-backto-PartLifecycle" style="stroke:#181818;stroke-width:1.0;"/><polygon fill="#181818" points="595.24,140.36,594.7975,147.5575,601.2712,150.7342,601.7137,143.5367,595.24,140.36" style="stroke:#181818;stroke-width:1.0;"/></g><g id="link_PartStatusTypes_SuperSession"><path d="M630.2482,145.7158 C663.5482,162.6358 702.97,182.66 736.32,199.6 " fill="none" id="PartStatusTypes-backto-SuperSession" style="stroke:#181818;stroke-width:1.0;"/><polygon fill="#181818" points="619.55,140.28,623.0872,146.564,630.2482,145.7158,626.7111,139.4319,619.55,140.28" style="stroke:#181818;stroke-width:1.0;"/></g><g id="link_PartStatusTypes_PartEvent"><path d="M568.68,140.06 C552.72,157 528.55,182.66 512.52,199.68 " fill="none" id="PartStatusTypes-PartEvent" style="stroke:#181818;stroke-width:1.0;"/></g><g id="link_PartStorageTypes_PartLocation"><path d="M914.21,236.55 C896.82,253.49 870.47,279.15 853.01,296.17 " fill="none" id="PartStorageTypes-PartLocation" style="stroke:#181818;stroke-width:1.0;"/></g><g id="link_PriceTypes_Price"><path d="M1392,248.55 C1392,265.49 1392,279.15 1392,296.17 " fill="none" id="PriceTypes-backto-Price" style="stroke:#181818;stroke-width:1.0;"/><polygon fill="#181818" points="1392,236.55,1388,242.55,1392,248.55,1396,242.55,1392,236.55" style="stroke:#181818;stroke-width:1.0;"/></g><g id="link_Price_Part"><path d="M1353.6525,326.8227 C1341.7325,330.1127 1339.04,330.52 1326,332.95 C1070.25,380.57 754.79,403.1 666.77,408.74 " fill="none" id="Price-backto-Part" style="stroke:#181818;stroke-width:1.0;"/><polygon fill="#181818" points="1365.22,323.63,1358.372,321.3705,1353.6525,326.8227,1360.5005,329.0822,1365.22,323.63" style="stroke:#181818;stroke-width:1.0;"/></g><g id="link_ProductConsumptionTypes_SuperSession"><path d="M953.94,140.39 C913.75,157.27 853.48,182.58 813.23,199.48 " fill="none" id="ProductConsumptionTypes-SuperSession" style="stroke:#181818;stroke-width:1.0;"/></g><g id="link_ProductPackageTypes_SuperSession"><path d="M1133.06,139.7 C1057.38,154.96 943.66,178.27 845,199.98 C839.2,201.25 833.16,202.61 827.13,203.99 " fill="none" id="ProductPackageTypes-SuperSession" style="stroke:#181818;stroke-width:1.0;"/></g><g id="link_ProductStageTypes_SuperSession"><path d="M1337.18,137.16 C1331.38,138.15 1325.6,139.1 1320,139.98 C1109.75,172.72 1054.45,162.45 845,199.98 C839.29,201 833.35,202.18 827.44,203.43 " fill="none" id="ProductStageTypes-SuperSession" style="stroke:#181818;stroke-width:1.0;"/></g><g id="link_SuperSession_PartLifecycle"><path d="M749.7816,245.9507 C736.3416,262.8907 723.43,279.15 709.92,296.17 " fill="none" id="SuperSession-backto-PartLifecycle" style="stroke:#181818;stroke-width:1.0;"/><polygon fill="#181818" points="757.24,236.55,750.3773,238.7642,749.7816,245.9507,756.6444,243.7365,757.24,236.55" style="stroke:#181818;stroke-width:1.0;"/></g></g></svg>