<?xml version="1.0" encoding="us-ascii" standalone="no"?><svg xmlns="http://www.w3.org/2000/svg" xmlns:xlink="http://www.w3.org/1999/xlink" contentStyleType="text/css" height="435px" preserveAspectRatio="none" style="width:1100px;height:435px;background:#FFFFFF;" version="1.1" viewBox="0 0 1100 435" width="1100px" zoomAndPan="magnify"><defs/><g><g id="elem_Identifier"><rect fill="#F1F1F1" height="36.4883" rx="2.5" ry="2.5" style="stroke:#181818;stroke-width:0.5;" width="82" x="7" y="103.49"/><text fill="#000000" font-family="sans-serif" font-size="14" lengthAdjust="spacing" textLength="62" x="17" y="127.0252">Identifier</text></g><g id="elem_PartIdentifier"><rect fill="#F1F1F1" height="36.4883" rx="2.5" ry="2.5" style="stroke:#181818;stroke-width:0.5;" width="109" x="185.5" y="199.98"/><text fill="#000000" font-family="sans-serif" font-size="14" lengthAdjust="spacing" textLength="89" x="195.5" y="223.5152">PartIdentifier</text></g><g id="elem_PartName"><rect fill="#F1F1F1" height="36.4883" rx="2.5" ry="2.5" style="stroke:#181818;stroke-width:0.5;" width="86" x="307" y="103.49"/><text fill="#000000" font-family="sans-serif" font-size="14" lengthAdjust="spacing" textLength="66" x="317" y="127.0252">PartName</text></g><g id="elem_PartPriceCriteria"><rect fill="#F1F1F1" height="36.4883" rx="2.5" ry="2.5" style="stroke:#181818;stroke-width:0.5;" width="131" x="401.5" y="199.98"/><text fill="#000000" font-family="sans-serif" font-size="14" lengthAdjust="spacing" textLength="111" x="411.5" y="223.5152">PartPriceCriteria</text></g><g id="elem_PartSearch"><rect fill="#F1F1F1" height="36.4883" rx="2.5" ry="2.5" style="stroke:#181818;stroke-width:0.5;" width="93" x="155.5" y="392.95"/><text fill="#000000" font-family="sans-serif" font-size="14" lengthAdjust="spacing" textLength="73" x="165.5" y="416.4852">PartSearch</text></g><g id="elem_PartSearchResult"><rect fill="#F1F1F1" height="36.4883" rx="2.5" ry="2.5" style="stroke:#181818;stroke-width:0.5;" width="135" x="340.5" y="296.46"/><text fill="#000000" font-family="sans-serif" font-size="14" lengthAdjust="spacing" textLength="115" x="350.5" y="319.9952">PartSearchResult</text></g><g id="elem_PartConditionTypes"><rect fill="#FAFF91" height="36.4883" rx="2.5" ry="2.5" style="stroke:#181818;stroke-width:0.5;" width="155" x="567.5" y="199.98"/><text fill="#000000" font-family="sans-serif" font-size="14" lengthAdjust="spacing" textLength="135" x="577.5" y="223.5152">PartConditionTypes</text></g><g id="elem_PartIdentifierTypes"><rect fill="#FAFF91" height="36.4883" rx="2.5" ry="2.5" style="stroke:#181818;stroke-width:0.5;" width="149" x="123.5" y="103.49"/><text fill="#000000" font-family="sans-serif" font-size="14" lengthAdjust="spacing" textLength="129" x="133.5" y="127.0252">PartIdentifierTypes</text></g><g id="elem_PartNameTypes"><rect fill="#FAFF91" height="36.4883" rx="2.5" ry="2.5" style="stroke:#181818;stroke-width:0.5;" width="126" x="287" y="7"/><text fill="#000000" font-family="sans-serif" font-size="14" lengthAdjust="spacing" textLength="106" x="297" y="30.5352">PartNameTypes</text></g><g id="elem_PartStatusTypes"><rect fill="#FAFF91" height="36.4883" rx="2.5" ry="2.5" style="stroke:#181818;stroke-width:0.5;" width="129" x="757.5" y="199.98"/><text fill="#000000" font-family="sans-serif" font-size="14" lengthAdjust="spacing" textLength="109" x="767.5" y="223.5152">PartStatusTypes</text></g><g id="elem_PriceTypes"><rect fill="#FAFF91" height="36.4883" rx="2.5" ry="2.5" style="stroke:#181818;stroke-width:0.5;" width="93" x="427.5" y="103.49"/><text fill="#000000" font-family="sans-serif" font-size="14" lengthAdjust="spacing" textLength="73" x="437.5" y="127.0252">PriceTypes</text></g><g id="elem_ShippingMethodTypes"><rect fill="#FAFF91" height="36.4883" rx="2.5" ry="2.5" style="stroke:#181818;stroke-width:0.5;" width="173" x="921.5" y="199.98"/><text fill="#000000" font-family="sans-serif" font-size="14" lengthAdjust="spacing" textLength="153" x="931.5" y="223.5152">ShippingMethodTypes</text></g><g id="elem_WarrantyTypes"><rect fill="#FAFF91" height="36.4883" rx="2.5" ry="2.5" style="stroke:#181818;stroke-width:0.5;" width="121" x="555.5" y="103.49"/><text fill="#000000" font-family="sans-serif" font-size="14" lengthAdjust="spacing" textLength="101" x="565.5" y="127.0252">WarrantyTypes</text></g><g id="link_Identifier_PartSearchResult"><path d="M62.04,140.3 C82.74,165.1 123.8,210.27 168,236.46 C221.75,268.32 290.18,288.67 340.21,300.43 " fill="none" id="Identifier-PartSearchResult" style="stroke:#181818;stroke-width:1.0;"/></g><g id="link_Identifier_PartIdentifier"><path d="M94.4267,145.5788 C128.8067,162.4988 169.78,182.66 204.2,199.6 " fill="none" id="Identifier-backto-PartIdentifier" style="stroke:#181818;stroke-width:1.0;"/><polygon fill="#181818" points="83.66,140.28,87.2771,146.5183,94.4267,145.5788,90.8096,139.3405,83.66,140.28" style="stroke:#181818;stroke-width:1.0;"/></g><g id="link_Identifier_PartSearch"><path d="M63.0662,150.858 C90.5562,202.178 164.94,341.02 192.53,392.51 " fill="none" id="Identifier-backto-PartSearch" style="stroke:#181818;stroke-width:1.0;"/><polygon fill="#181818" points="57.4,140.28,56.7071,147.4577,63.0662,150.858,63.7591,143.6803,57.4,140.28" style="stroke:#181818;stroke-width:1.0;"/></g><g id="link_PartConditionTypes_PartSearchResult"><path d="M600.7,236.88 C558.36,253.76 494.88,279.07 452.48,295.97 " fill="none" id="PartConditionTypes-PartSearchResult" style="stroke:#181818;stroke-width:1.0;"/></g><g id="link_PartIdentifierTypes_PartIdentifier"><path d="M205.7,140.06 C213.23,157 224.64,182.66 232.2,199.68 " fill="none" id="PartIdentifierTypes-PartIdentifier" style="stroke:#181818;stroke-width:1.0;"/></g><g id="link_PartIdentifier_PartSearchResult"><path d="M281.6689,242.6531 C311.7489,259.5731 346.56,279.15 376.68,296.09 " fill="none" id="PartIdentifier-backto-PartSearchResult" style="stroke:#181818;stroke-width:1.0;"/><polygon fill="#181818" points="271.21,236.77,274.4784,243.1979,281.6689,242.6531,278.4005,236.2253,271.21,236.77" style="stroke:#181818;stroke-width:1.0;"/></g><g id="link_PartNameTypes_PartName"><path d="M350,43.57 C350,60.52 350,86.18 350,103.19 " fill="none" id="PartNameTypes-PartName" style="stroke:#181818;stroke-width:1.0;"/></g><g id="link_PartName_PartIdentifier"><path d="M320.4664,148.0982 C300.7064,165.0682 280.04,182.82 260.32,199.76 " fill="none" id="PartName-backto-PartIdentifier" style="stroke:#181818;stroke-width:1.0;"/><polygon fill="#181818" points="329.57,140.28,322.4121,141.1546,320.4664,148.0982,327.6243,147.2236,329.57,140.28" style="stroke:#181818;stroke-width:1.0;"/></g><g id="link_PartName_PartSearchResult"><path d="M358.5327,151.5974 C365.1327,173.9174 373.6,202.36 384,236.46 C390.26,257.02 397.61,280.59 402.51,296.24 " fill="none" id="PartName-backto-PartSearchResult" style="stroke:#181818;stroke-width:1.0;"/><polygon fill="#181818" points="355.13,140.09,352.9956,146.978,358.5327,151.5974,360.6672,144.7095,355.13,140.09" style="stroke:#181818;stroke-width:1.0;"/></g><g id="link_PartPriceCriteria_PartSearchResult"><path d="M456.18,236.55 C445.6,253.49 429.58,279.15 418.95,296.17 " fill="none" id="PartPriceCriteria-PartSearchResult" style="stroke:#181818;stroke-width:1.0;"/></g><g id="link_PartSearchResult_PartSearch"><path d="M358.8326,338.2628 C321.9426,355.1828 277.34,375.64 240.41,392.58 " fill="none" id="PartSearchResult-backto-PartSearch" style="stroke:#181818;stroke-width:1.0;"/><polygon fill="#181818" points="369.74,333.26,362.6187,332.1256,358.8326,338.2628,365.9539,339.3972,369.74,333.26" style="stroke:#181818;stroke-width:1.0;"/></g><g id="link_PartStatusTypes_PartSearchResult"><path d="M757.31,233.98 C680.67,251.47 553.59,280.48 475.67,298.26 " fill="none" id="PartStatusTypes-PartSearchResult" style="stroke:#181818;stroke-width:1.0;"/></g><g id="link_PriceTypes_PartPriceCriteria"><path d="M471.8299,152.0269 C470.5699,168.9669 469.56,182.66 468.3,199.68 " fill="none" id="PriceTypes-backto-PartPriceCriteria" style="stroke:#181818;stroke-width:1.0;"/><polygon fill="#181818" points="472.72,140.06,468.286,145.7468,471.8299,152.0269,476.2639,146.3402,472.72,140.06" style="stroke:#181818;stroke-width:1.0;"/></g><g id="link_ShippingMethodTypes_PartSearchResult"><path d="M909.3467,235.6132 C903.5267,236.5632 909.6,235.56 904,236.46 C751.06,261.05 571.38,288.73 475.83,303.36 " fill="none" id="ShippingMethodTypes-backto-PartSearchResult" style="stroke:#181818;stroke-width:1.0;"/><polygon fill="#181818" points="921.19,233.68,914.624,230.6988,909.3467,235.6132,915.9128,238.5943,921.19,233.68" style="stroke:#181818;stroke-width:1.0;"/></g><g id="link_WarrantyTypes_PartPriceCriteria"><path d="M578.1861,146.7068 C551.5061,163.6268 521.49,182.66 494.78,199.6 " fill="none" id="WarrantyTypes-backto-PartPriceCriteria" style="stroke:#181818;stroke-width:1.0;"/><polygon fill="#181818" points="588.32,140.28,581.1108,140.1154,578.1861,146.7068,585.3953,146.8714,588.32,140.28" style="stroke:#181818;stroke-width:1.0;"/></g></g></svg>