<?xml version="1.0" encoding="us-ascii" standalone="no"?><svg xmlns="http://www.w3.org/2000/svg" xmlns:xlink="http://www.w3.org/1999/xlink" contentStyleType="text/css" height="435px" preserveAspectRatio="none" style="width:2874px;height:435px;background:#FFFFFF;" version="1.1" viewBox="0 0 2874 435" width="2874px" zoomAndPan="magnify"><defs/><g><g id="elem_AdvanceSearchValue"><rect fill="#F1F1F1" height="36.4883" rx="2.5" ry="2.5" style="stroke:#181818;stroke-width:0.5;" width="162" x="2422" y="199.98"/><text fill="#000000" font-family="sans-serif" font-size="14" lengthAdjust="spacing" textLength="142" x="2432" y="223.5152">AdvanceSearchValue</text></g><g id="elem_AdvancedSearchCriteria"><rect fill="#F1F1F1" height="36.4883" rx="2.5" ry="2.5" style="stroke:#181818;stroke-width:0.5;" width="184" x="2132" y="296.46"/><text fill="#000000" font-family="sans-serif" font-size="14" lengthAdjust="spacing" textLength="164" x="2142" y="319.9952">AdvancedSearchCriteria</text></g><g id="elem_EffectivePeriod"><rect fill="#F1F1F1" height="36.4883" rx="2.5" ry="2.5" style="stroke:#181818;stroke-width:0.5;" width="121" x="353.5" y="199.98"/><text fill="#000000" font-family="sans-serif" font-size="14" lengthAdjust="spacing" textLength="101" x="363.5" y="223.5152">EffectivePeriod</text></g><g id="elem_Identifier"><rect fill="#F1F1F1" height="36.4883" rx="2.5" ry="2.5" style="stroke:#181818;stroke-width:0.5;" width="82" x="1043" y="199.98"/><text fill="#000000" font-family="sans-serif" font-size="14" lengthAdjust="spacing" textLength="62" x="1053" y="223.5152">Identifier</text></g><g id="elem_PartIdentifier"><rect fill="#F1F1F1" height="36.4883" rx="2.5" ry="2.5" style="stroke:#181818;stroke-width:0.5;" width="109" x="982.5" y="296.46"/><text fill="#000000" font-family="sans-serif" font-size="14" lengthAdjust="spacing" textLength="89" x="992.5" y="319.9952">PartIdentifier</text></g><g id="elem_PartLifecycle"><rect fill="#F1F1F1" height="36.4883" rx="2.5" ry="2.5" style="stroke:#181818;stroke-width:0.5;" width="104" x="1885" y="296.46"/><text fill="#000000" font-family="sans-serif" font-size="14" lengthAdjust="spacing" textLength="84" x="1895" y="319.9952">PartLifecycle</text></g><g id="elem_PartLogisticsCriteria"><rect fill="#F1F1F1" height="36.4883" rx="2.5" ry="2.5" style="stroke:#181818;stroke-width:0.5;" width="157" x="426.5" y="296.46"/><text fill="#000000" font-family="sans-serif" font-size="14" lengthAdjust="spacing" textLength="137" x="436.5" y="319.9952">PartLogisticsCriteria</text></g><g id="elem_PartName"><rect fill="#F1F1F1" height="36.4883" rx="2.5" ry="2.5" style="stroke:#181818;stroke-width:0.5;" width="86" x="992" y="103.49"/><text fill="#000000" font-family="sans-serif" font-size="14" lengthAdjust="spacing" textLength="66" x="1002" y="127.0252">PartName</text></g><g id="elem_PartPriceCriteria"><rect fill="#F1F1F1" height="36.4883" rx="2.5" ry="2.5" style="stroke:#181818;stroke-width:0.5;" width="131" x="2510.5" y="296.46"/><text fill="#000000" font-family="sans-serif" font-size="14" lengthAdjust="spacing" textLength="111" x="2520.5" y="319.9952">PartPriceCriteria</text></g><g id="elem_PartSearchCriteria"><rect fill="#F1F1F1" height="36.4883" rx="2.5" ry="2.5" style="stroke:#181818;stroke-width:0.5;" width="144" x="1812" y="392.95"/><text fill="#000000" font-family="sans-serif" font-size="14" lengthAdjust="spacing" textLength="124" x="1822" y="416.4852">PartSearchCriteria</text></g><g id="elem_PartSpecification"><rect fill="#F1F1F1" height="36.4883" rx="2.5" ry="2.5" style="stroke:#181818;stroke-width:0.5;" width="134" x="1499" y="296.46"/><text fill="#000000" font-family="sans-serif" font-size="14" lengthAdjust="spacing" textLength="114" x="1509" y="319.9952">PartSpecification</text></g><g id="elem_SuperSession"><rect fill="#F1F1F1" height="36.4883" rx="2.5" ry="2.5" style="stroke:#181818;stroke-width:0.5;" width="112" x="1881" y="199.98"/><text fill="#000000" font-family="sans-serif" font-size="14" lengthAdjust="spacing" textLength="92" x="1891" y="223.5152">SuperSession</text></g><g id="elem_UnitOfMeasure"><rect fill="#F1F1F1" height="36.4883" rx="2.5" ry="2.5" style="stroke:#181818;stroke-width:0.5;" width="122" x="1391" y="199.98"/><text fill="#000000" font-family="sans-serif" font-size="14" lengthAdjust="spacing" textLength="102" x="1401" y="223.5152">UnitOfMeasure</text></g><g id="elem_AdvanceSearchTypes"><rect fill="#FAFF91" height="36.4883" rx="2.5" ry="2.5" style="stroke:#181818;stroke-width:0.5;" width="164" x="2480" y="103.49"/><text fill="#000000" font-family="sans-serif" font-size="14" lengthAdjust="spacing" textLength="144" x="2490" y="127.0252">AdvanceSearchTypes</text></g><g id="elem_DurationUOMTypes"><rect fill="#FAFF91" height="36.4883" rx="2.5" ry="2.5" style="stroke:#181818;stroke-width:0.5;" width="153" x="337.5" y="103.49"/><text fill="#000000" font-family="sans-serif" font-size="14" lengthAdjust="spacing" textLength="133" x="347.5" y="127.0252">DurationUOMTypes</text></g><g id="elem_PartConditionGradeTypes"><rect fill="#FAFF91" height="36.4883" rx="2.5" ry="2.5" style="stroke:#181818;stroke-width:0.5;" width="196" x="1160" y="199.98"/><text fill="#000000" font-family="sans-serif" font-size="14" lengthAdjust="spacing" textLength="176" x="1170" y="223.5152">PartConditionGradeTypes</text></g><g id="elem_PartConditionTypes"><rect fill="#FAFF91" height="36.4883" rx="2.5" ry="2.5" style="stroke:#181818;stroke-width:0.5;" width="155" x="1690.5" y="199.98"/><text fill="#000000" font-family="sans-serif" font-size="14" lengthAdjust="spacing" textLength="135" x="1700.5" y="223.5152">PartConditionTypes</text></g><g id="elem_PartIdentifierTypes"><rect fill="#FAFF91" height="36.4883" rx="2.5" ry="2.5" style="stroke:#181818;stroke-width:0.5;" width="149" x="788.5" y="199.98"/><text fill="#000000" font-family="sans-serif" font-size="14" lengthAdjust="spacing" textLength="129" x="798.5" y="223.5152">PartIdentifierTypes</text></g><g id="elem_PartInventoryOrderTypes"><rect fill="#FAFF91" height="36.4883" rx="2.5" ry="2.5" style="stroke:#181818;stroke-width:0.5;" width="191" x="2676.5" y="296.46"/><text fill="#000000" font-family="sans-serif" font-size="14" lengthAdjust="spacing" textLength="171" x="2686.5" y="319.9952">PartInventoryOrderTypes</text></g><g id="elem_PartNameTypes"><rect fill="#FAFF91" height="36.4883" rx="2.5" ry="2.5" style="stroke:#181818;stroke-width:0.5;" width="126" x="1188" y="7"/><text fill="#000000" font-family="sans-serif" font-size="14" lengthAdjust="spacing" textLength="106" x="1198" y="30.5352">PartNameTypes</text></g><g id="elem_PartOrderConfigTypes"><rect fill="#FAFF91" height="36.4883" rx="2.5" ry="2.5" style="stroke:#181818;stroke-width:0.5;" width="173" x="1679.5" y="103.49"/><text fill="#000000" font-family="sans-serif" font-size="14" lengthAdjust="spacing" textLength="153" x="1689.5" y="127.0252">PartOrderConfigTypes</text></g><g id="elem_PartStatusTypes"><rect fill="#FAFF91" height="36.4883" rx="2.5" ry="2.5" style="stroke:#181818;stroke-width:0.5;" width="129" x="2129.5" y="103.49"/><text fill="#000000" font-family="sans-serif" font-size="14" lengthAdjust="spacing" textLength="109" x="2139.5" y="127.0252">PartStatusTypes</text></g><g id="elem_PriceTypes"><rect fill="#FAFF91" height="36.4883" rx="2.5" ry="2.5" style="stroke:#181818;stroke-width:0.5;" width="93" x="2619.5" y="199.98"/><text fill="#000000" font-family="sans-serif" font-size="14" lengthAdjust="spacing" textLength="73" x="2629.5" y="223.5152">PriceTypes</text></g><g id="elem_ProductConsumptionTypes"><rect fill="#FAFF91" height="36.4883" rx="2.5" ry="2.5" style="stroke:#181818;stroke-width:0.5;" width="206" x="1888" y="103.49"/><text fill="#000000" font-family="sans-serif" font-size="14" lengthAdjust="spacing" textLength="186" x="1898" y="127.0252">ProductConsumptionTypes</text></g><g id="elem_ProductPackageTypes"><rect fill="#FAFF91" height="36.4883" rx="2.5" ry="2.5" style="stroke:#181818;stroke-width:0.5;" width="169" x="1475.5" y="103.49"/><text fill="#000000" font-family="sans-serif" font-size="14" lengthAdjust="spacing" textLength="149" x="1485.5" y="127.0252">ProductPackageTypes</text></g><g id="elem_ProductStageTypes"><rect fill="#FAFF91" height="36.4883" rx="2.5" ry="2.5" style="stroke:#181818;stroke-width:0.5;" width="151" x="2293.5" y="103.49"/><text fill="#000000" font-family="sans-serif" font-size="14" lengthAdjust="spacing" textLength="131" x="2303.5" y="127.0252">ProductStageTypes</text></g><g id="elem_ShippingMethodTypes"><rect fill="#FAFF91" height="36.4883" rx="2.5" ry="2.5" style="stroke:#181818;stroke-width:0.5;" width="173" x="509.5" y="199.98"/><text fill="#000000" font-family="sans-serif" font-size="14" lengthAdjust="spacing" textLength="153" x="519.5" y="223.5152">ShippingMethodTypes</text></g><g id="elem_UOMLengthTypes"><rect fill="#FAFF91" height="36.4883" rx="2.5" ry="2.5" style="stroke:#181818;stroke-width:0.5;" width="140" x="7" y="199.98"/><text fill="#000000" font-family="sans-serif" font-size="14" lengthAdjust="spacing" textLength="120" x="17" y="223.5152">UOMLengthTypes</text></g><g id="elem_UOMQuantityCategoryTypes"><rect fill="#FAFF91" height="36.4883" rx="2.5" ry="2.5" style="stroke:#181818;stroke-width:0.5;" width="213" x="1157.5" y="103.49"/><text fill="#000000" font-family="sans-serif" font-size="14" lengthAdjust="spacing" textLength="193" x="1167.5" y="127.0252">UOMQuantityCategoryTypes</text></g><g id="elem_WarehouseTypes"><rect fill="#FAFF91" height="36.4883" rx="2.5" ry="2.5" style="stroke:#181818;stroke-width:0.5;" width="136" x="182" y="199.98"/><text fill="#000000" font-family="sans-serif" font-size="14" lengthAdjust="spacing" textLength="116" x="192" y="223.5152">WarehouseTypes</text></g><g id="elem_WarrantyTypes"><rect fill="#FAFF91" height="36.4883" rx="2.5" ry="2.5" style="stroke:#181818;stroke-width:0.5;" width="121" x="2747.5" y="199.98"/><text fill="#000000" font-family="sans-serif" font-size="14" lengthAdjust="spacing" textLength="101" x="2757.5" y="223.5152">WarrantyTypes</text></g><g id="link_AdvanceSearchTypes_AdvanceSearchValue"><path d="M2551.18,140.06 C2540.6,157 2524.58,182.66 2513.95,199.68 " fill="none" id="AdvanceSearchTypes-AdvanceSearchValue" style="stroke:#181818;stroke-width:1.0;"/></g><g id="link_AdvanceSearchValue_AdvancedSearchCriteria"><path d="M2439.4842,240.7294 C2389.6442,257.6094 2326.28,279.07 2276.37,295.97 " fill="none" id="AdvanceSearchValue-backto-AdvancedSearchCriteria" style="stroke:#181818;stroke-width:1.0;"/><polygon fill="#181818" points="2450.85,236.88,2443.8839,235.0161,2439.4842,240.7294,2446.4502,242.5933,2450.85,236.88" style="stroke:#181818;stroke-width:1.0;"/></g><g id="link_AdvancedSearchCriteria_PartSearchCriteria"><path d="M2160.45,333.37 C2099.71,350.25 2008.64,375.56 1947.82,392.46 " fill="none" id="AdvancedSearchCriteria-PartSearchCriteria" style="stroke:#181818;stroke-width:1.0;"/></g><g id="link_DurationUOMTypes_EffectivePeriod"><path d="M414,140.06 C414,157 414,182.66 414,199.68 " fill="none" id="DurationUOMTypes-EffectivePeriod" style="stroke:#181818;stroke-width:1.0;"/></g><g id="link_EffectivePeriod_PartLogisticsCriteria"><path d="M430.69,236.55 C447.01,253.49 471.72,279.15 488.11,296.17 " fill="none" id="EffectivePeriod-PartLogisticsCriteria" style="stroke:#181818;stroke-width:1.0;"/></g><g id="link_Identifier_AdvancedSearchCriteria"><path d="M1136.9197,235.5455 C1142.8097,237.0855 1137.22,235.43 1143,236.46 C1521.48,304.12 1622.58,267.97 2006,296.46 C2047.27,299.53 2092.92,303.11 2131.73,306.21 " fill="none" id="Identifier-backto-AdvancedSearchCriteria" style="stroke:#181818;stroke-width:1.0;"/><polygon fill="#181818" points="1125.31,232.51,1130.103,237.8977,1136.9197,235.5455,1132.1267,230.1578,1125.31,232.51" style="stroke:#181818;stroke-width:1.0;"/></g><g id="link_Identifier_PartIdentifier"><path d="M1070.0337,247.2933 C1061.6037,264.2333 1054.19,279.15 1045.73,296.17 " fill="none" id="Identifier-backto-PartIdentifier" style="stroke:#181818;stroke-width:1.0;"/><polygon fill="#181818" points="1075.38,236.55,1069.1258,240.1395,1070.0337,247.2933,1076.288,243.7037,1075.38,236.55" style="stroke:#181818;stroke-width:1.0;"/></g><g id="link_Identifier_PartLogisticsCriteria"><path d="M1030.9767,227.8728 C935.3267,243.4828 708.61,280.48 583.85,300.84 " fill="none" id="Identifier-backto-PartLogisticsCriteria" style="stroke:#181818;stroke-width:1.0;"/><polygon fill="#181818" points="1042.82,225.94,1036.2541,222.9586,1030.9767,227.8728,1037.5426,230.8542,1042.82,225.94" style="stroke:#181818;stroke-width:1.0;"/></g><g id="link_Identifier_PartSpecification"><path d="M1137.0076,235.1124 C1142.8776,236.7324 1137.29,235.11 1143,236.46 C1267.4,265.92 1414.66,290.53 1498.52,303.6 " fill="none" id="Identifier-backto-PartSpecification" style="stroke:#181818;stroke-width:1.0;"/><polygon fill="#181818" points="1125.44,231.92,1130.1596,237.3721,1137.0076,235.1124,1132.2879,229.6604,1125.44,231.92" style="stroke:#181818;stroke-width:1.0;"/></g><g id="link_PartConditionGradeTypes_PartSpecification"><path d="M1327.0422,240.3997 C1382.0622,257.2797 1453.09,279.07 1508.19,295.97 " fill="none" id="PartConditionGradeTypes-backto-PartSpecification" style="stroke:#181818;stroke-width:1.0;"/><polygon fill="#181818" points="1315.57,236.88,1320.1329,242.4639,1327.0422,240.3997,1322.4793,234.8157,1315.57,236.88" style="stroke:#181818;stroke-width:1.0;"/></g><g id="link_PartConditionGradeTypes_PartSearchCriteria"><path d="M1286.21,236.83 C1327.6,261.88 1407.93,307.6 1482,332.95 C1593.78,371.22 1729.92,392.36 1811.63,402.48 " fill="none" id="PartConditionGradeTypes-PartSearchCriteria" style="stroke:#181818;stroke-width:1.0;"/></g><g id="link_PartConditionTypes_PartSpecification"><path d="M1719.6105,241.8547 C1683.4405,258.7747 1639.88,279.15 1603.66,296.09 " fill="none" id="PartConditionTypes-backto-PartSpecification" style="stroke:#181818;stroke-width:1.0;"/><polygon fill="#181818" points="1730.48,236.77,1723.3504,235.6892,1719.6105,241.8547,1726.7401,242.9355,1730.48,236.77" style="stroke:#181818;stroke-width:1.0;"/></g><g id="link_PartConditionTypes_PartSearchCriteria"><path d="M1778.71,236.84 C1800.8,273.23 1851.24,356.27 1873.32,392.61 " fill="none" id="PartConditionTypes-PartSearchCriteria" style="stroke:#181818;stroke-width:1.0;"/></g><g id="link_PartIdentifierTypes_PartIdentifier"><path d="M895.32,236.77 C926.48,253.69 973.36,279.15 1004.56,296.09 " fill="none" id="PartIdentifierTypes-PartIdentifier" style="stroke:#181818;stroke-width:1.0;"/></g><g id="link_PartIdentifier_PartSearchCriteria"><path d="M1103.846,323.1604 C1251.576,339.6404 1645.55,383.6 1811.68,402.13 " fill="none" id="PartIdentifier-backto-PartSearchCriteria" style="stroke:#181818;stroke-width:1.0;"/><polygon fill="#181818" points="1091.92,321.83,1097.4395,326.4705,1103.846,323.1604,1098.3265,318.5199,1091.92,321.83" style="stroke:#181818;stroke-width:1.0;"/></g><g id="link_PartInventoryOrderTypes_PartSearchCriteria"><path d="M2664.2922,332.3169 C2658.4822,333.1169 2664.61,332.24 2659,332.95 C2401.09,365.46 2093.47,392.71 1956.26,404.26 " fill="none" id="PartInventoryOrderTypes-backto-PartSearchCriteria" style="stroke:#181818;stroke-width:1.0;"/><polygon fill="#181818" points="2676.18,330.68,2669.6905,327.5358,2664.2922,332.3169,2670.7817,335.4611,2676.18,330.68" style="stroke:#181818;stroke-width:1.0;"/></g><g id="link_PartLifecycle_PartSearchCriteria"><path d="M1921.4104,343.5065 C1911.9104,360.4465 1903.38,375.64 1893.84,392.66 " fill="none" id="PartLifecycle-backto-PartSearchCriteria" style="stroke:#181818;stroke-width:1.0;"/><polygon fill="#181818" points="1927.28,333.04,1920.8564,336.3167,1921.4104,343.5065,1927.834,340.2298,1927.28,333.04" style="stroke:#181818;stroke-width:1.0;"/></g><g id="link_PartLogisticsCriteria_PartSearchCriteria"><path d="M583.82,322.68 C621.93,325.96 668.33,329.83 710,332.95 C1127.05,364.21 1627.98,394.88 1811.83,405.91 " fill="none" id="PartLogisticsCriteria-PartSearchCriteria" style="stroke:#181818;stroke-width:1.0;"/></g><g id="link_PartNameTypes_PartName"><path d="M1210.63,43.9 C1172.04,60.78 1114.18,86.09 1075.54,103 " fill="none" id="PartNameTypes-PartName" style="stroke:#181818;stroke-width:1.0;"/></g><g id="link_PartNameTypes_PartSpecification"><path d="M1286.09,43.93 C1353.39,78.51 1496.89,155.53 1530,199.98 C1551.9,229.37 1560.73,272.49 1564.09,296.3 " fill="none" id="PartNameTypes-PartSpecification" style="stroke:#181818;stroke-width:1.0;"/></g><g id="link_PartName_PartIdentifier"><path d="M1029.5998,152.277 C1025.7598,174.647 1022.38,202.47 1025,236.46 C1026.59,257.03 1030.52,280.41 1033.45,296 " fill="none" id="PartName-backto-PartIdentifier" style="stroke:#181818;stroke-width:1.0;"/><polygon fill="#181818" points="1031.63,140.45,1026.6726,145.6868,1029.5998,152.277,1034.5572,147.0402,1031.63,140.45" style="stroke:#181818;stroke-width:1.0;"/></g><g id="link_PartName_PartSearchCriteria"><path d="M979.8361,125.5005 C892.4361,131.2705 719.09,152.68 771,236.46 C821.71,318.33 872.26,307.02 965,332.95 C1124.11,377.45 1623.93,400.4 1811.73,407.63 " fill="none" id="PartName-backto-PartSearchCriteria" style="stroke:#181818;stroke-width:1.0;"/><polygon fill="#181818" points="991.81,124.71,985.5595,121.1139,979.8361,125.5005,986.0865,129.0966,991.81,124.71" style="stroke:#181818;stroke-width:1.0;"/></g><g id="link_PartName_SuperSession"><path d="M1090.1364,132.6736 C1109.0364,135.9236 1119.65,137.46 1140,139.98 C1460.01,179.47 1544.47,149.92 1863,199.98 C1868.73,200.88 1874.68,201.98 1880.6,203.18 " fill="none" id="PartName-backto-SuperSession" style="stroke:#181818;stroke-width:1.0;"/><polygon fill="#181818" points="1078.31,130.64,1083.5453,135.599,1090.1364,132.6736,1084.9011,127.7147,1078.31,130.64" style="stroke:#181818;stroke-width:1.0;"/></g><g id="link_PartOrderConfigTypes_SuperSession"><path d="M1797.76,140.28 C1828.38,157.2 1874.46,182.66 1905.12,199.6 " fill="none" id="PartOrderConfigTypes-SuperSession" style="stroke:#181818;stroke-width:1.0;"/></g><g id="link_PartPriceCriteria_PartSearchCriteria"><path d="M2510.27,324.68 C2380.3,342.43 2091.35,381.88 1956.24,400.33 " fill="none" id="PartPriceCriteria-PartSearchCriteria" style="stroke:#181818;stroke-width:1.0;"/></g><g id="link_PartSpecification_PartSearchCriteria"><path d="M1636.943,336.7879 C1693.753,353.6679 1767.42,375.56 1824.31,392.46 " fill="none" id="PartSpecification-backto-PartSearchCriteria" style="stroke:#181818;stroke-width:1.0;"/><polygon fill="#181818" points="1625.44,333.37,1630.0522,338.9133,1636.943,336.7879,1632.3308,331.2446,1625.44,333.37" style="stroke:#181818;stroke-width:1.0;"/></g><g id="link_PartStatusTypes_PartLifecycle"><path d="M2160.648,147.5171 C2111.688,183.8971 2009.57,259.78 1960.66,296.13 " fill="none" id="PartStatusTypes-backto-PartLifecycle" style="stroke:#181818;stroke-width:1.0;"/><polygon fill="#181818" points="2170.28,140.36,2163.0783,140.7279,2160.648,147.5171,2167.8497,147.1492,2170.28,140.36" style="stroke:#181818;stroke-width:1.0;"/></g><g id="link_PartStatusTypes_PartSearchCriteria"><path d="M2173.8083,149.8637 C2145.1283,187.9237 2080.16,270.13 2006,332.95 C1978.26,356.45 1942.81,378.11 1917.28,392.47 " fill="none" id="PartStatusTypes-backto-PartSearchCriteria" style="stroke:#181818;stroke-width:1.0;"/><polygon fill="#181818" points="2181.03,140.28,2174.2246,142.6646,2173.8083,149.8637,2180.6137,147.4791,2181.03,140.28" style="stroke:#181818;stroke-width:1.0;"/></g><g id="link_PartStatusTypes_SuperSession"><path d="M2134.6972,144.5311 C2088.7872,161.4111 2031.21,182.58 1985.24,199.48 " fill="none" id="PartStatusTypes-backto-SuperSession" style="stroke:#181818;stroke-width:1.0;"/><polygon fill="#181818" points="2145.96,140.39,2138.9482,138.7063,2134.6972,144.5311,2141.7089,146.2148,2145.96,140.39" style="stroke:#181818;stroke-width:1.0;"/></g><g id="link_PriceTypes_PartPriceCriteria"><path d="M2641.215,245.2405 C2625.085,262.1805 2608.91,279.15 2592.71,296.17 " fill="none" id="PriceTypes-backto-PartPriceCriteria" style="stroke:#181818;stroke-width:1.0;"/><polygon fill="#181818" points="2649.49,236.55,2642.4557,238.1369,2641.215,245.2405,2648.2494,243.6536,2649.49,236.55" style="stroke:#181818;stroke-width:1.0;"/></g><g id="link_ProductConsumptionTypes_SuperSession"><path d="M1981.1,140.06 C1971.41,157 1956.75,182.66 1947.02,199.68 " fill="none" id="ProductConsumptionTypes-SuperSession" style="stroke:#181818;stroke-width:1.0;"/></g><g id="link_ProductPackageTypes_PartSpecification"><path d="M1569.58,140.21 C1577.36,155.47 1587.72,178.48 1592,199.98 C1598.8,234.14 1584.72,273.74 1574.76,296.04 " fill="none" id="ProductPackageTypes-PartSpecification" style="stroke:#181818;stroke-width:1.0;"/></g><g id="link_ProductPackageTypes_SuperSession"><path d="M1630.47,140.39 C1702.82,158.53 1814,186.39 1880.7,203.11 " fill="none" id="ProductPackageTypes-SuperSession" style="stroke:#181818;stroke-width:1.0;"/></g><g id="link_ProductStageTypes_AdvancedSearchCriteria"><path d="M2348.3638,149.9176 C2320.7438,186.2976 2264.94,259.78 2237.35,296.13 " fill="none" id="ProductStageTypes-backto-AdvancedSearchCriteria" style="stroke:#181818;stroke-width:1.0;"/><polygon fill="#181818" points="2355.62,140.36,2348.806,142.7201,2348.3638,149.9176,2355.1778,147.5575,2355.62,140.36" style="stroke:#181818;stroke-width:1.0;"/></g><g id="link_ProductStageTypes_PartSearchCriteria"><path d="M2373.8787,152.2389 C2379.8887,192.5689 2386.45,280.23 2334,332.95 C2282.21,385 2069.74,402.17 1956.25,407.68 " fill="none" id="ProductStageTypes-backto-PartSearchCriteria" style="stroke:#181818;stroke-width:1.0;"/><polygon fill="#181818" points="2372.11,140.37,2369.038,146.894,2373.8787,152.2389,2376.9507,145.7149,2372.11,140.37" style="stroke:#181818;stroke-width:1.0;"/></g><g id="link_ProductStageTypes_SuperSession"><path d="M2293.26,139.3 C2207.59,158.03 2070.08,188.11 1993.37,204.89 " fill="none" id="ProductStageTypes-SuperSession" style="stroke:#181818;stroke-width:1.0;"/></g><g id="link_ShippingMethodTypes_PartLogisticsCriteria"><path d="M570.9843,245.192 C554.6643,262.132 538.28,279.15 521.89,296.17 " fill="none" id="ShippingMethodTypes-backto-PartLogisticsCriteria" style="stroke:#181818;stroke-width:1.0;"/><polygon fill="#181818" points="579.31,236.55,572.2665,238.0958,570.9843,245.192,578.0278,243.6462,579.31,236.55" style="stroke:#181818;stroke-width:1.0;"/></g><g id="link_SuperSession_PartLifecycle"><path d="M1937,248.55 C1937,265.49 1937,279.15 1937,296.17 " fill="none" id="SuperSession-backto-PartLifecycle" style="stroke:#181818;stroke-width:1.0;"/><polygon fill="#181818" points="1937,236.55,1933,242.55,1937,248.55,1941,242.55,1937,236.55" style="stroke:#181818;stroke-width:1.0;"/></g><g id="link_UOMLengthTypes_PartLogisticsCriteria"><path d="M147.2,234.72 C223.8,251.63 346.15,278.64 426.04,296.28 " fill="none" id="UOMLengthTypes-PartLogisticsCriteria" style="stroke:#181818;stroke-width:1.0;"/></g><g id="link_UOMQuantityCategoryTypes_UnitOfMeasure"><path d="M1298.92,140.28 C1332.58,157.2 1383.24,182.66 1416.95,199.6 " fill="none" id="UOMQuantityCategoryTypes-UnitOfMeasure" style="stroke:#181818;stroke-width:1.0;"/></g><g id="link_UnitOfMeasure_PartSpecification"><path d="M1482.4182,244.4287 C1502.8882,261.3987 1524.5,279.31 1544.94,296.25 " fill="none" id="UnitOfMeasure-backto-PartSpecification" style="stroke:#181818;stroke-width:1.0;"/><polygon fill="#181818" points="1473.18,236.77,1475.2462,243.6787,1482.4182,244.4287,1480.352,237.5199,1473.18,236.77" style="stroke:#181818;stroke-width:1.0;"/></g><g id="link_WarehouseTypes_PartLogisticsCriteria"><path d="M308.9125,241.0491 C354.4725,257.9291 411.52,279.07 457.14,295.97 " fill="none" id="WarehouseTypes-backto-PartLogisticsCriteria" style="stroke:#181818;stroke-width:1.0;"/><polygon fill="#181818" points="297.66,236.88,301.8966,242.7154,308.9125,241.0491,304.6759,235.2137,297.66,236.88" style="stroke:#181818;stroke-width:1.0;"/></g><g id="link_WarrantyTypes_PartPriceCriteria"><path d="M2753.5166,241.4069 C2712.0766,258.2869 2661.05,279.07 2619.55,295.97 " fill="none" id="WarrantyTypes-backto-PartPriceCriteria" style="stroke:#181818;stroke-width:1.0;"/><polygon fill="#181818" points="2764.63,236.88,2757.5643,235.439,2753.5166,241.4069,2760.5823,242.8479,2764.63,236.88" style="stroke:#181818;stroke-width:1.0;"/></g></g></svg>