<?xml version="1.0" encoding="us-ascii" standalone="no"?><svg xmlns="http://www.w3.org/2000/svg" xmlns:xlink="http://www.w3.org/1999/xlink" contentStyleType="text/css" height="338px" preserveAspectRatio="none" style="width:1152px;height:338px;background:#FFFFFF;" version="1.1" viewBox="0 0 1152 338" width="1152px" zoomAndPan="magnify"><defs/><g><g id="elem_EffectivePeriod"><rect fill="#F1F1F1" height="36.4883" rx="2.5" ry="2.5" style="stroke:#181818;stroke-width:0.5;" width="121" x="685" y="103.49"/><text fill="#000000" font-family="sans-serif" font-size="14" lengthAdjust="spacing" textLength="101" x="695" y="127.0252">EffectivePeriod</text></g><g id="elem_Identifier"><rect fill="#F1F1F1" height="36.4883" rx="2.5" ry="2.5" style="stroke:#181818;stroke-width:0.5;" width="82" x="353.5" y="103.49"/><text fill="#000000" font-family="sans-serif" font-size="14" lengthAdjust="spacing" textLength="62" x="363.5" y="127.0252">Identifier</text></g><g id="elem_LifecycleEvent"><rect fill="#F1F1F1" height="36.4883" rx="2.5" ry="2.5" style="stroke:#181818;stroke-width:0.5;" width="114" x="184.5" y="199.97"/><text fill="#000000" font-family="sans-serif" font-size="14" lengthAdjust="spacing" textLength="94" x="194.5" y="223.5052">LifecycleEvent</text></g><g id="elem_PartyIdentifier"><rect fill="#F1F1F1" height="36.4883" rx="2.5" ry="2.5" style="stroke:#181818;stroke-width:0.5;" width="116" x="518.5" y="199.97"/><text fill="#000000" font-family="sans-serif" font-size="14" lengthAdjust="spacing" textLength="96" x="528.5" y="223.5052">PartyIdentifier</text></g><g id="elem_Price"><rect fill="#F1F1F1" height="36.4883" rx="2.5" ry="2.5" style="stroke:#181818;stroke-width:0.5;" width="53" x="702" y="199.97"/><text fill="#000000" font-family="sans-serif" font-size="14" lengthAdjust="spacing" textLength="33" x="712" y="223.5052">Price</text></g><g id="elem_PriceList"><rect fill="#F1F1F1" height="36.4883" rx="2.5" ry="2.5" style="stroke:#181818;stroke-width:0.5;" width="76" x="597.5" y="296.46"/><text fill="#000000" font-family="sans-serif" font-size="14" lengthAdjust="spacing" textLength="56" x="607.5" y="319.9952">PriceList</text></g><g id="elem_PriceSensitivity"><rect fill="#F1F1F1" height="36.4883" rx="2.5" ry="2.5" style="stroke:#181818;stroke-width:0.5;" width="121" x="861" y="199.97"/><text fill="#000000" font-family="sans-serif" font-size="14" lengthAdjust="spacing" textLength="101" x="871" y="223.5052">PriceSensitivity</text></g><g id="elem_DurationUOMTypes"><rect fill="#FAFF91" height="36.4883" rx="2.5" ry="2.5" style="stroke:#181818;stroke-width:0.5;" width="153" x="669" y="7"/><text fill="#000000" font-family="sans-serif" font-size="14" lengthAdjust="spacing" textLength="133" x="679" y="30.5352">DurationUOMTypes</text></g><g id="elem_LifecycleEventTypes"><rect fill="#FAFF91" height="36.4883" rx="2.5" ry="2.5" style="stroke:#181818;stroke-width:0.5;" width="154" x="164.5" y="103.49"/><text fill="#000000" font-family="sans-serif" font-size="14" lengthAdjust="spacing" textLength="134" x="174.5" y="127.0252">LifecycleEventTypes</text></g><g id="elem_PartyRelationshipTypes"><rect fill="#FAFF91" height="36.4883" rx="2.5" ry="2.5" style="stroke:#181818;stroke-width:0.5;" width="179" x="471" y="103.49"/><text fill="#000000" font-family="sans-serif" font-size="14" lengthAdjust="spacing" textLength="159" x="481" y="127.0252">PartyRelationshipTypes</text></g><g id="elem_PriceClassTypes"><rect fill="#FAFF91" height="36.4883" rx="2.5" ry="2.5" style="stroke:#181818;stroke-width:0.5;" width="129" x="1017" y="199.97"/><text fill="#000000" font-family="sans-serif" font-size="14" lengthAdjust="spacing" textLength="109" x="1027" y="223.5052">PriceClassTypes</text></g><g id="elem_PriceSensitivityTypes"><rect fill="#FAFF91" height="36.4883" rx="2.5" ry="2.5" style="stroke:#181818;stroke-width:0.5;" width="161" x="969" y="103.49"/><text fill="#000000" font-family="sans-serif" font-size="14" lengthAdjust="spacing" textLength="141" x="979" y="127.0252">PriceSensitivityTypes</text></g><g id="elem_PriceTypes"><rect fill="#FAFF91" height="36.4883" rx="2.5" ry="2.5" style="stroke:#181818;stroke-width:0.5;" width="93" x="841" y="103.49"/><text fill="#000000" font-family="sans-serif" font-size="14" lengthAdjust="spacing" textLength="73" x="851" y="127.0252">PriceTypes</text></g><g id="elem_ResourceTypes"><rect fill="#FAFF91" height="36.4883" rx="2.5" ry="2.5" style="stroke:#181818;stroke-width:0.5;" width="123" x="7" y="103.49"/><text fill="#000000" font-family="sans-serif" font-size="14" lengthAdjust="spacing" textLength="103" x="17" y="127.0252">ResourceTypes</text></g><g id="link_DurationUOMTypes_EffectivePeriod"><path d="M745.5,43.57 C745.5,60.51 745.5,86.17 745.5,103.19 " fill="none" id="DurationUOMTypes-EffectivePeriod" style="stroke:#181818;stroke-width:1.0;"/></g><g id="link_EffectivePeriod_PartyIdentifier"><path d="M714.11,140.28 C683.85,157.2 638.31,182.66 608.01,199.6 " fill="none" id="EffectivePeriod-PartyIdentifier" style="stroke:#181818;stroke-width:1.0;"/></g><g id="link_EffectivePeriod_Price"><path d="M742.38,140.06 C739.33,157 734.72,182.66 731.66,199.68 " fill="none" id="EffectivePeriod-Price" style="stroke:#181818;stroke-width:1.0;"/></g><g id="link_Identifier_PartyIdentifier"><path d="M428.31,140.28 C460.89,157.2 509.94,182.66 542.57,199.6 " fill="none" id="Identifier-PartyIdentifier" style="stroke:#181818;stroke-width:1.0;"/></g><g id="link_Identifier_PriceList"><path d="M415.8879,149.767 C435.0779,173.537 464.08,206.85 501.5,236.46 C531.82,260.46 570.43,281.9 598.41,296.07 " fill="none" id="Identifier-backto-PriceList" style="stroke:#181818;stroke-width:1.0;"/><polygon fill="#181818" points="408.35,140.43,409.0066,147.6111,415.8879,149.767,415.2313,142.5858,408.35,140.43" style="stroke:#181818;stroke-width:1.0;"/></g><g id="link_LifecycleEventTypes_LifecycleEvent"><path d="M241.5,140.06 C241.5,157 241.5,182.66 241.5,199.68 " fill="none" id="LifecycleEventTypes-LifecycleEvent" style="stroke:#181818;stroke-width:1.0;"/></g><g id="link_LifecycleEventTypes_PriceList"><path d="M272.63,140.32 C313.91,163.41 389.29,204.73 455.5,236.46 C503.65,259.54 560.44,283.36 597.16,298.34 " fill="none" id="LifecycleEventTypes-PriceList" style="stroke:#181818;stroke-width:1.0;"/></g><g id="link_LifecycleEvent_PriceList"><path d="M310.4592,235.7581 C391.9892,255.3081 527.62,287.84 597.17,304.51 " fill="none" id="LifecycleEvent-backto-PriceList" style="stroke:#181818;stroke-width:1.0;"/><polygon fill="#181818" points="298.79,232.96,303.6919,238.2488,310.4592,235.7581,305.5573,230.4693,298.79,232.96" style="stroke:#181818;stroke-width:1.0;"/></g><g id="link_PartyIdentifier_PriceList"><path d="M593.6767,246.728 C604.2567,263.668 613.92,279.15 624.55,296.17 " fill="none" id="PartyIdentifier-backto-PriceList" style="stroke:#181818;stroke-width:1.0;"/><polygon fill="#181818" points="587.32,236.55,587.1057,243.7579,593.6767,246.728,593.891,239.5201,587.32,236.55" style="stroke:#181818;stroke-width:1.0;"/></g><g id="link_PartyRelationshipTypes_PartyIdentifier"><path d="M565.4345,151.8914 C568.3045,168.8314 570.65,182.66 573.53,199.68 " fill="none" id="PartyRelationshipTypes-backto-PartyIdentifier" style="stroke:#181818;stroke-width:1.0;"/><polygon fill="#181818" points="563.43,140.06,560.4884,146.6439,565.4345,151.8914,568.376,145.3075,563.43,140.06" style="stroke:#181818;stroke-width:1.0;"/></g><g id="link_Price_PriceList"><path d="M711.44,236.55 C694.77,253.49 669.51,279.15 652.76,296.17 " fill="none" id="Price-PriceList" style="stroke:#181818;stroke-width:1.0;"/></g><g id="link_PriceClassTypes_PriceList"><path d="M1004.9103,235.446 C910.5603,255.426 750.16,289.42 673.77,305.6 " fill="none" id="PriceClassTypes-backto-PriceList" style="stroke:#181818;stroke-width:1.0;"/><polygon fill="#181818" points="1016.65,232.96,1009.9515,230.2898,1004.9103,235.446,1011.6089,238.1162,1016.65,232.96" style="stroke:#181818;stroke-width:1.0;"/></g><g id="link_PriceSensitivity_PriceList"><path d="M868.04,236.88 C811.45,255.57 723.57,284.61 673.61,301.11 " fill="none" id="PriceSensitivity-PriceList" style="stroke:#181818;stroke-width:1.0;"/></g><g id="link_PriceSensitivityTypes_PriceSensitivity"><path d="M1025.72,140.28 C1002.73,157.25 968.1,182.82 945.15,199.76 " fill="none" id="PriceSensitivityTypes-PriceSensitivity" style="stroke:#181818;stroke-width:1.0;"/></g><g id="link_PriceTypes_Price"><path d="M847.6535,146.4095 C818.2835,163.8595 783.93,184.27 755.49,201.18 " fill="none" id="PriceTypes-backto-Price" style="stroke:#181818;stroke-width:1.0;"/><polygon fill="#181818" points="857.97,140.28,850.7686,139.9059,847.6535,146.4095,854.8549,146.7836,857.97,140.28" style="stroke:#181818;stroke-width:1.0;"/></g><g id="link_PriceTypes_PriceList"><path d="M864.4532,149.3892 C843.5832,173.1092 811.94,206.69 772.5,236.46 C741.01,260.23 701.42,281.78 672.91,296.04 " fill="none" id="PriceTypes-backto-PriceList" style="stroke:#181818;stroke-width:1.0;"/><polygon fill="#181818" points="872.38,140.38,865.4135,142.2424,864.4532,149.3892,871.4197,147.5269,872.38,140.38" style="stroke:#181818;stroke-width:1.0;"/></g><g id="link_ResourceTypes_LifecycleEvent"><path d="M100.63,140.28 C131.61,157.2 178.23,182.66 209.24,199.6 " fill="none" id="ResourceTypes-LifecycleEvent" style="stroke:#181818;stroke-width:1.0;"/></g></g></svg>