<?xml version="1.0" encoding="us-ascii" standalone="no"?><svg xmlns="http://www.w3.org/2000/svg" xmlns:xlink="http://www.w3.org/1999/xlink" contentStyleType="text/css" height="435px" preserveAspectRatio="none" style="width:2960px;height:435px;background:#FFFFFF;" version="1.1" viewBox="0 0 2960 435" width="2960px" zoomAndPan="magnify"><defs/><g><g id="elem_AdvanceSearchValue"><rect fill="#F1F1F1" height="36.4883" rx="2.5" ry="2.5" style="stroke:#181818;stroke-width:0.5;" width="162" x="8" y="103.49"/><text fill="#000000" font-family="sans-serif" font-size="14" lengthAdjust="spacing" textLength="142" x="18" y="127.0252">AdvanceSearchValue</text></g><g id="elem_AdvancedSearchCriteria"><rect fill="#F1F1F1" height="36.4883" rx="2.5" ry="2.5" style="stroke:#181818;stroke-width:0.5;" width="184" x="200" y="199.98"/><text fill="#000000" font-family="sans-serif" font-size="14" lengthAdjust="spacing" textLength="164" x="210" y="223.5152">AdvancedSearchCriteria</text></g><g id="elem_EffectivePeriod"><rect fill="#F1F1F1" height="36.4883" rx="2.5" ry="2.5" style="stroke:#181818;stroke-width:0.5;" width="121" x="2254.5" y="103.49"/><text fill="#000000" font-family="sans-serif" font-size="14" lengthAdjust="spacing" textLength="101" x="2264.5" y="127.0252">EffectivePeriod</text></g><g id="elem_Identifier"><rect fill="#F1F1F1" height="36.4883" rx="2.5" ry="2.5" style="stroke:#181818;stroke-width:0.5;" width="82" x="1125" y="103.49"/><text fill="#000000" font-family="sans-serif" font-size="14" lengthAdjust="spacing" textLength="62" x="1135" y="127.0252">Identifier</text></g><g id="elem_PartIdentifier"><rect fill="#F1F1F1" height="36.4883" rx="2.5" ry="2.5" style="stroke:#181818;stroke-width:0.5;" width="109" x="1106.5" y="199.98"/><text fill="#000000" font-family="sans-serif" font-size="14" lengthAdjust="spacing" textLength="89" x="1116.5" y="223.5152">PartIdentifier</text></g><g id="elem_PartLifecycle"><rect fill="#F1F1F1" height="36.4883" rx="2.5" ry="2.5" style="stroke:#181818;stroke-width:0.5;" width="104" x="814" y="296.46"/><text fill="#000000" font-family="sans-serif" font-size="14" lengthAdjust="spacing" textLength="84" x="824" y="319.9952">PartLifecycle</text></g><g id="elem_PartLogisticsCriteria"><rect fill="#F1F1F1" height="36.4883" rx="2.5" ry="2.5" style="stroke:#181818;stroke-width:0.5;" width="157" x="1663.5" y="199.98"/><text fill="#000000" font-family="sans-serif" font-size="14" lengthAdjust="spacing" textLength="137" x="1673.5" y="223.5152">PartLogisticsCriteria</text></g><g id="elem_PartName"><rect fill="#F1F1F1" height="36.4883" rx="2.5" ry="2.5" style="stroke:#181818;stroke-width:0.5;" width="86" x="1004" y="103.49"/><text fill="#000000" font-family="sans-serif" font-size="14" lengthAdjust="spacing" textLength="66" x="1014" y="127.0252">PartName</text></g><g id="elem_PartPriceCriteria"><rect fill="#F1F1F1" height="36.4883" rx="2.5" ry="2.5" style="stroke:#181818;stroke-width:0.5;" width="131" x="1222.5" y="296.46"/><text fill="#000000" font-family="sans-serif" font-size="14" lengthAdjust="spacing" textLength="111" x="1232.5" y="319.9952">PartPriceCriteria</text></g><g id="elem_PartSearchCriteria"><rect fill="#F1F1F1" height="36.4883" rx="2.5" ry="2.5" style="stroke:#181818;stroke-width:0.5;" width="144" x="1161" y="392.95"/><text fill="#000000" font-family="sans-serif" font-size="14" lengthAdjust="spacing" textLength="124" x="1171" y="416.4852">PartSearchCriteria</text></g><g id="elem_PartSpecification"><rect fill="#F1F1F1" height="36.4883" rx="2.5" ry="2.5" style="stroke:#181818;stroke-width:0.5;" width="134" x="2134" y="199.98"/><text fill="#000000" font-family="sans-serif" font-size="14" lengthAdjust="spacing" textLength="114" x="2144" y="223.5152">PartSpecification</text></g><g id="elem_SuperSession"><rect fill="#F1F1F1" height="36.4883" rx="2.5" ry="2.5" style="stroke:#181818;stroke-width:0.5;" width="112" x="810" y="199.98"/><text fill="#000000" font-family="sans-serif" font-size="14" lengthAdjust="spacing" textLength="92" x="820" y="223.5152">SuperSession</text></g><g id="elem_UnitOfMeasure"><rect fill="#F1F1F1" height="36.4883" rx="2.5" ry="2.5" style="stroke:#181818;stroke-width:0.5;" width="122" x="2411" y="103.49"/><text fill="#000000" font-family="sans-serif" font-size="14" lengthAdjust="spacing" textLength="102" x="2421" y="127.0252">UnitOfMeasure</text></g><g id="elem_AdvanceSearchTypes"><rect fill="#FAFF91" height="36.4883" rx="2.5" ry="2.5" style="stroke:#181818;stroke-width:0.5;" width="164" x="7" y="7"/><text fill="#000000" font-family="sans-serif" font-size="14" lengthAdjust="spacing" textLength="144" x="17" y="30.5352">AdvanceSearchTypes</text></g><g id="elem_DurationUOMTypes"><rect fill="#FAFF91" height="36.4883" rx="2.5" ry="2.5" style="stroke:#181818;stroke-width:0.5;" width="153" x="2207.5" y="7"/><text fill="#000000" font-family="sans-serif" font-size="14" lengthAdjust="spacing" textLength="133" x="2217.5" y="30.5352">DurationUOMTypes</text></g><g id="elem_PartConditionGradeTypes"><rect fill="#FAFF91" height="36.4883" rx="2.5" ry="2.5" style="stroke:#181818;stroke-width:0.5;" width="196" x="2568" y="103.49"/><text fill="#000000" font-family="sans-serif" font-size="14" lengthAdjust="spacing" textLength="176" x="2578" y="127.0252">PartConditionGradeTypes</text></g><g id="elem_PartConditionTypes"><rect fill="#FAFF91" height="36.4883" rx="2.5" ry="2.5" style="stroke:#181818;stroke-width:0.5;" width="155" x="2799.5" y="103.49"/><text fill="#000000" font-family="sans-serif" font-size="14" lengthAdjust="spacing" textLength="135" x="2809.5" y="127.0252">PartConditionTypes</text></g><g id="elem_PartIdentifierTypes"><rect fill="#FAFF91" height="36.4883" rx="2.5" ry="2.5" style="stroke:#181818;stroke-width:0.5;" width="149" x="1241.5" y="103.49"/><text fill="#000000" font-family="sans-serif" font-size="14" lengthAdjust="spacing" textLength="129" x="1251.5" y="127.0252">PartIdentifierTypes</text></g><g id="elem_PartInventoryOrderTypes"><rect fill="#FAFF91" height="36.4883" rx="2.5" ry="2.5" style="stroke:#181818;stroke-width:0.5;" width="191" x="1530.5" y="296.46"/><text fill="#000000" font-family="sans-serif" font-size="14" lengthAdjust="spacing" textLength="171" x="1540.5" y="319.9952">PartInventoryOrderTypes</text></g><g id="elem_PartNameTypes"><rect fill="#FAFF91" height="36.4883" rx="2.5" ry="2.5" style="stroke:#181818;stroke-width:0.5;" width="126" x="1515" y="7"/><text fill="#000000" font-family="sans-serif" font-size="14" lengthAdjust="spacing" textLength="106" x="1525" y="30.5352">PartNameTypes</text></g><g id="elem_PartOrderConfigTypes"><rect fill="#FAFF91" height="36.4883" rx="2.5" ry="2.5" style="stroke:#181818;stroke-width:0.5;" width="173" x="554.5" y="103.49"/><text fill="#000000" font-family="sans-serif" font-size="14" lengthAdjust="spacing" textLength="153" x="564.5" y="127.0252">PartOrderConfigTypes</text></g><g id="elem_PartStatusTypes"><rect fill="#FAFF91" height="36.4883" rx="2.5" ry="2.5" style="stroke:#181818;stroke-width:0.5;" width="129" x="390.5" y="103.49"/><text fill="#000000" font-family="sans-serif" font-size="14" lengthAdjust="spacing" textLength="109" x="400.5" y="127.0252">PartStatusTypes</text></g><g id="elem_PriceTypes"><rect fill="#FAFF91" height="36.4883" rx="2.5" ry="2.5" style="stroke:#181818;stroke-width:0.5;" width="93" x="1250.5" y="199.98"/><text fill="#000000" font-family="sans-serif" font-size="14" lengthAdjust="spacing" textLength="73" x="1260.5" y="223.5152">PriceTypes</text></g><g id="elem_ProductConsumptionTypes"><rect fill="#FAFF91" height="36.4883" rx="2.5" ry="2.5" style="stroke:#181818;stroke-width:0.5;" width="206" x="763" y="103.49"/><text fill="#000000" font-family="sans-serif" font-size="14" lengthAdjust="spacing" textLength="186" x="773" y="127.0252">ProductConsumptionTypes</text></g><g id="elem_ProductPackageTypes"><rect fill="#FAFF91" height="36.4883" rx="2.5" ry="2.5" style="stroke:#181818;stroke-width:0.5;" width="169" x="1599.5" y="103.49"/><text fill="#000000" font-family="sans-serif" font-size="14" lengthAdjust="spacing" textLength="149" x="1609.5" y="127.0252">ProductPackageTypes</text></g><g id="elem_ProductStageTypes"><rect fill="#FAFF91" height="36.4883" rx="2.5" ry="2.5" style="stroke:#181818;stroke-width:0.5;" width="151" x="204.5" y="103.49"/><text fill="#000000" font-family="sans-serif" font-size="14" lengthAdjust="spacing" textLength="131" x="214.5" y="127.0252">ProductStageTypes</text></g><g id="elem_ShippingMethodTypes"><rect fill="#FAFF91" height="36.4883" rx="2.5" ry="2.5" style="stroke:#181818;stroke-width:0.5;" width="173" x="1974.5" y="103.49"/><text fill="#000000" font-family="sans-serif" font-size="14" lengthAdjust="spacing" textLength="153" x="1984.5" y="127.0252">ShippingMethodTypes</text></g><g id="elem_UOMLengthTypes"><rect fill="#FAFF91" height="36.4883" rx="2.5" ry="2.5" style="stroke:#181818;stroke-width:0.5;" width="140" x="1425" y="103.49"/><text fill="#000000" font-family="sans-serif" font-size="14" lengthAdjust="spacing" textLength="120" x="1435" y="127.0252">UOMLengthTypes</text></g><g id="elem_UOMQuantityCategoryTypes"><rect fill="#FAFF91" height="36.4883" rx="2.5" ry="2.5" style="stroke:#181818;stroke-width:0.5;" width="213" x="2395.5" y="7"/><text fill="#000000" font-family="sans-serif" font-size="14" lengthAdjust="spacing" textLength="193" x="2405.5" y="30.5352">UOMQuantityCategoryTypes</text></g><g id="elem_WarehouseTypes"><rect fill="#FAFF91" height="36.4883" rx="2.5" ry="2.5" style="stroke:#181818;stroke-width:0.5;" width="136" x="1803" y="103.49"/><text fill="#000000" font-family="sans-serif" font-size="14" lengthAdjust="spacing" textLength="116" x="1813" y="127.0252">WarehouseTypes</text></g><g id="elem_WarrantyTypes"><rect fill="#FAFF91" height="36.4883" rx="2.5" ry="2.5" style="stroke:#181818;stroke-width:0.5;" width="121" x="1378.5" y="199.98"/><text fill="#000000" font-family="sans-serif" font-size="14" lengthAdjust="spacing" textLength="101" x="1388.5" y="223.5152">WarrantyTypes</text></g><g id="link_AdvanceSearchTypes_AdvanceSearchValue"><path d="M89,43.57 C89,60.52 89,86.18 89,103.19 " fill="none" id="AdvanceSearchTypes-AdvanceSearchValue" style="stroke:#181818;stroke-width:1.0;"/></g><g id="link_AdvanceSearchValue_AdvancedSearchCriteria"><path d="M137.5886,145.3451 C173.9286,162.2651 217.76,182.66 254.15,199.6 " fill="none" id="AdvanceSearchValue-backto-AdvancedSearchCriteria" style="stroke:#181818;stroke-width:1.0;"/><polygon fill="#181818" points="126.71,140.28,130.4609,146.4388,137.5886,145.3451,133.8377,139.1863,126.71,140.28" style="stroke:#181818;stroke-width:1.0;"/></g><g id="link_AdvancedSearchCriteria_PartSearchCriteria"><path d="M317.27,236.83 C355.93,262.77 432.98,310.59 506,332.95 C627.21,370.07 1001.88,396.29 1160.68,406.02 " fill="none" id="AdvancedSearchCriteria-PartSearchCriteria" style="stroke:#181818;stroke-width:1.0;"/></g><g id="link_DurationUOMTypes_EffectivePeriod"><path d="M2289.69,43.57 C2295.24,60.52 2303.66,86.18 2309.25,103.19 " fill="none" id="DurationUOMTypes-EffectivePeriod" style="stroke:#181818;stroke-width:1.0;"/></g><g id="link_EffectivePeriod_PartLogisticsCriteria"><path d="M2254.22,132.75 C2149.81,149.97 1936.48,185.15 1820.81,204.22 " fill="none" id="EffectivePeriod-PartLogisticsCriteria" style="stroke:#181818;stroke-width:1.0;"/></g><g id="link_Identifier_AdvancedSearchCriteria"><path d="M1113.0564,138.9488 C1107.1764,140.4988 1112.76,138.87 1107,139.98 C848.07,189.62 536.46,207.88 384.47,214.17 " fill="none" id="Identifier-backto-AdvancedSearchCriteria" style="stroke:#181818;stroke-width:1.0;"/><polygon fill="#181818" points="1124.66,135.89,1117.8386,133.5515,1113.0564,138.9488,1119.8778,141.2873,1124.66,135.89" style="stroke:#181818;stroke-width:1.0;"/></g><g id="link_Identifier_PartIdentifier"><path d="M1164.4504,152.0435 C1163.5604,168.9835 1162.83,182.66 1161.93,199.68 " fill="none" id="Identifier-backto-PartIdentifier" style="stroke:#181818;stroke-width:1.0;"/><polygon fill="#181818" points="1165.08,140.06,1160.7707,145.8419,1164.4504,152.0435,1168.7597,146.2616,1165.08,140.06" style="stroke:#181818;stroke-width:1.0;"/></g><g id="link_Identifier_PartLogisticsCriteria"><path d="M1218.8914,138.9685 C1224.4614,140.4985 1218.56,138.77 1224,139.98 C1378,174.17 1561.19,197.5 1663.27,208.98 " fill="none" id="Identifier-backto-PartLogisticsCriteria" style="stroke:#181818;stroke-width:1.0;"/><polygon fill="#181818" points="1207.32,135.79,1212.0462,141.2364,1218.8914,138.9685,1214.1652,133.5221,1207.32,135.79" style="stroke:#181818;stroke-width:1.0;"/></g><g id="link_Identifier_PartSpecification"><path d="M1218.8489,139.2164 C1224.4289,140.6964 1218.53,138.96 1224,139.98 C1399.33,172.59 1942.61,203.59 2133.69,213.74 " fill="none" id="Identifier-backto-PartSpecification" style="stroke:#181818;stroke-width:1.0;"/><polygon fill="#181818" points="1207.25,136.14,1212.024,141.5445,1218.8489,139.2164,1214.0749,133.8119,1207.25,136.14" style="stroke:#181818;stroke-width:1.0;"/></g><g id="link_Identifier_SuperSession"><path d="M1113.154,139.3741 C1060.594,155.9241 981.13,180.96 922.3,199.49 " fill="none" id="Identifier-backto-SuperSession" style="stroke:#181818;stroke-width:1.0;"/><polygon fill="#181818" points="1124.6,135.77,1117.6756,133.7567,1113.154,139.3741,1120.0784,141.3874,1124.6,135.77" style="stroke:#181818;stroke-width:1.0;"/></g><g id="link_PartConditionGradeTypes_PartSpecification"><path d="M2567.0503,142.8393 C2476.9803,161.1393 2350.11,186.92 2268.19,203.57 " fill="none" id="PartConditionGradeTypes-backto-PartSpecification" style="stroke:#181818;stroke-width:1.0;"/><polygon fill="#181818" points="2578.81,140.45,2572.1337,137.7247,2567.0503,142.8393,2573.7266,145.5646,2578.81,140.45" style="stroke:#181818;stroke-width:1.0;"/></g><g id="link_PartConditionGradeTypes_PartSearchCriteria"><path d="M2613.82,140.39 C2540.9,164.6 2404.06,208.27 2285,236.46 C1921.36,322.57 1477.05,380.91 1305.43,401.73 " fill="none" id="PartConditionGradeTypes-PartSearchCriteria" style="stroke:#181818;stroke-width:1.0;"/></g><g id="link_PartConditionTypes_PartSpecification"><path d="M2787.4043,138.989 C2781.2443,140.019 2786.94,139.05 2781,139.98 C2595.83,168.92 2376.3,196.27 2268.12,209.28 " fill="none" id="PartConditionTypes-backto-PartSpecification" style="stroke:#181818;stroke-width:1.0;"/><polygon fill="#181818" points="2799.24,137.01,2792.6625,134.0543,2787.4043,138.989,2793.9818,141.9447,2799.24,137.01" style="stroke:#181818;stroke-width:1.0;"/></g><g id="link_PartConditionTypes_PartSearchCriteria"><path d="M2801.6,140.46 C2704.15,163.27 2529.14,203.81 2379,236.46 C2171.9,281.5 2121.28,299.5 1912,332.95 C1692.04,368.11 1429.5,393.25 1305.15,404.15 " fill="none" id="PartConditionTypes-PartSearchCriteria" style="stroke:#181818;stroke-width:1.0;"/></g><g id="link_PartIdentifierTypes_PartIdentifier"><path d="M1287.21,140.28 C1259.46,157.2 1217.69,182.66 1189.9,199.6 " fill="none" id="PartIdentifierTypes-PartIdentifier" style="stroke:#181818;stroke-width:1.0;"/></g><g id="link_PartIdentifier_PartSearchCriteria"><path d="M1171.8734,248.0685 C1185.5934,284.4585 1212.67,356.27 1226.37,392.61 " fill="none" id="PartIdentifier-backto-PartSearchCriteria" style="stroke:#181818;stroke-width:1.0;"/><polygon fill="#181818" points="1167.64,236.84,1166.0139,243.8654,1171.8734,248.0685,1173.4995,241.0431,1167.64,236.84" style="stroke:#181818;stroke-width:1.0;"/></g><g id="link_PartInventoryOrderTypes_PartSearchCriteria"><path d="M1540.8726,336.1758 C1470.2226,353.1658 1375.74,375.88 1305.43,392.78 " fill="none" id="PartInventoryOrderTypes-backto-PartSearchCriteria" style="stroke:#181818;stroke-width:1.0;"/><polygon fill="#181818" points="1552.54,333.37,1545.7711,330.8838,1540.8726,336.1758,1547.6416,338.662,1552.54,333.37" style="stroke:#181818;stroke-width:1.0;"/></g><g id="link_PartLifecycle_PartSearchCriteria"><path d="M929.8115,332.14 C994.3315,348.74 1092.69,374.07 1164.09,392.45 " fill="none" id="PartLifecycle-backto-PartSearchCriteria" style="stroke:#181818;stroke-width:1.0;"/><polygon fill="#181818" points="918.19,329.15,923.0041,334.5189,929.8115,332.14,924.9974,326.7712,918.19,329.15" style="stroke:#181818;stroke-width:1.0;"/></g><g id="link_PartLogisticsCriteria_PartSearchCriteria"><path d="M1663,235.21 C1603.61,248.42 1520.81,269.38 1451,296.46 C1413.99,310.83 1315.68,364.36 1264.68,392.56 " fill="none" id="PartLogisticsCriteria-PartSearchCriteria" style="stroke:#181818;stroke-width:1.0;"/></g><g id="link_PartNameTypes_PartName"><path d="M1514.7,34.22 C1423.85,46.21 1251.51,70.99 1107,103.49 C1101.61,104.7 1095.98,106.11 1090.43,107.6 " fill="none" id="PartNameTypes-PartName" style="stroke:#181818;stroke-width:1.0;"/></g><g id="link_PartNameTypes_PartSpecification"><path d="M1641.45,26.26 C1776.56,27.6 2086.76,37.92 2165,103.49 C2193.73,127.57 2199.83,174.45 2200.94,199.85 " fill="none" id="PartNameTypes-PartSpecification" style="stroke:#181818;stroke-width:1.0;"/></g><g id="link_PartName_PartIdentifier"><path d="M1077.4182,147.9387 C1097.8882,164.9087 1119.5,182.82 1139.94,199.76 " fill="none" id="PartName-backto-PartIdentifier" style="stroke:#181818;stroke-width:1.0;"/><polygon fill="#181818" points="1068.18,140.28,1070.2462,147.1887,1077.4182,147.9387,1075.352,141.0299,1068.18,140.28" style="stroke:#181818;stroke-width:1.0;"/></g><g id="link_PartName_PartSearchCriteria"><path d="M1054.5976,151.6744 C1060.8976,174.6944 1070.6,204.55 1089,236.46 C1125.39,299.59 1184.92,362.7 1214.75,392.49 " fill="none" id="PartName-backto-PartSearchCriteria" style="stroke:#181818;stroke-width:1.0;"/><polygon fill="#181818" points="1051.43,140.1,1049.1557,146.9431,1054.5976,151.6744,1056.8719,144.8313,1051.43,140.1" style="stroke:#181818;stroke-width:1.0;"/></g><g id="link_PartName_SuperSession"><path d="M1002.7424,145.8335 C970.3324,162.7535 932.2,182.66 899.75,199.6 " fill="none" id="PartName-backto-SuperSession" style="stroke:#181818;stroke-width:1.0;"/><polygon fill="#181818" points="1013.38,140.28,1006.21,139.5109,1002.7424,145.8335,1009.9124,146.6026,1013.38,140.28" style="stroke:#181818;stroke-width:1.0;"/></g><g id="link_PartOrderConfigTypes_SuperSession"><path d="M683.06,140.39 C723.25,157.27 783.52,182.58 823.77,199.48 " fill="none" id="PartOrderConfigTypes-SuperSession" style="stroke:#181818;stroke-width:1.0;"/></g><g id="link_PartPriceCriteria_PartSearchCriteria"><path d="M1277.91,333.04 C1268.05,349.98 1253.11,375.64 1243.21,392.66 " fill="none" id="PartPriceCriteria-PartSearchCriteria" style="stroke:#181818;stroke-width:1.0;"/></g><g id="link_PartSpecification_PartSearchCriteria"><path d="M2121.7904,224.6535 C1972.3004,235.3135 1628.49,262.63 1513,296.46 C1477.81,306.77 1472.65,318.39 1439,332.95 C1387.12,355.4 1326.38,377.71 1284.36,392.54 " fill="none" id="PartSpecification-backto-PartSearchCriteria" style="stroke:#181818;stroke-width:1.0;"/><polygon fill="#181818" points="2133.76,223.8,2127.4907,220.2369,2121.7904,224.6535,2128.0597,228.2166,2133.76,223.8" style="stroke:#181818;stroke-width:1.0;"/></g><g id="link_PartStatusTypes_PartLifecycle"><path d="M527.3364,143.8785 C572.4764,157.8085 623.54,175.42 676,199.98 C737.63,228.82 804.86,272.15 840.49,296.14 " fill="none" id="PartStatusTypes-backto-PartLifecycle" style="stroke:#181818;stroke-width:1.0;"/><polygon fill="#181818" points="515.87,140.34,520.4237,145.9314,527.3364,143.8785,522.7827,138.2871,515.87,140.34" style="stroke:#181818;stroke-width:1.0;"/></g><g id="link_PartStatusTypes_PartSearchCriteria"><path d="M490.7987,147.1396 C558.3887,193.0196 729.74,307.38 797,332.95 C919.52,379.52 1072.24,398.32 1160.58,405.69 " fill="none" id="PartStatusTypes-backto-PartSearchCriteria" style="stroke:#181818;stroke-width:1.0;"/><polygon fill="#181818" points="480.87,140.4,483.5878,147.0793,490.7987,147.1396,488.0809,140.4602,480.87,140.4" style="stroke:#181818;stroke-width:1.0;"/></g><g id="link_PartStatusTypes_SuperSession"><path d="M531.3651,140.2878 C611.1651,158.6278 733.86,186.84 809.63,204.26 " fill="none" id="PartStatusTypes-backto-SuperSession" style="stroke:#181818;stroke-width:1.0;"/><polygon fill="#181818" points="519.67,137.6,524.6216,142.8423,531.3651,140.2878,526.4135,135.0455,519.67,137.6" style="stroke:#181818;stroke-width:1.0;"/></g><g id="link_PriceTypes_PartPriceCriteria"><path d="M1294.2146,248.4962 C1292.6046,265.4362 1291.29,279.15 1289.67,296.17 " fill="none" id="PriceTypes-backto-PartPriceCriteria" style="stroke:#181818;stroke-width:1.0;"/><polygon fill="#181818" points="1295.35,236.55,1290.8003,242.1446,1294.2146,248.4962,1298.7644,242.9015,1295.35,236.55" style="stroke:#181818;stroke-width:1.0;"/></g><g id="link_ProductConsumptionTypes_SuperSession"><path d="M866,140.06 C866,157 866,182.66 866,199.68 " fill="none" id="ProductConsumptionTypes-SuperSession" style="stroke:#181818;stroke-width:1.0;"/></g><g id="link_ProductPackageTypes_PartSpecification"><path d="M1768.79,138.23 C1870.92,156.89 2040.37,187.86 2133.88,204.95 " fill="none" id="ProductPackageTypes-PartSpecification" style="stroke:#181818;stroke-width:1.0;"/></g><g id="link_ProductPackageTypes_SuperSession"><path d="M1599.18,137.47 C1593.37,138.35 1587.6,139.2 1582,139.98 C1337.09,173.86 1043.31,201.49 922.3,212.3 " fill="none" id="ProductPackageTypes-SuperSession" style="stroke:#181818;stroke-width:1.0;"/></g><g id="link_ProductStageTypes_AdvancedSearchCriteria"><path d="M283.7109,151.9645 C285.8609,168.9045 287.61,182.66 289.77,199.68 " fill="none" id="ProductStageTypes-backto-AdvancedSearchCriteria" style="stroke:#181818;stroke-width:1.0;"/><polygon fill="#181818" points="282.2,140.06,278.9873,146.5159,283.7109,151.9645,286.9236,145.5086,282.2,140.06" style="stroke:#181818;stroke-width:1.0;"/></g><g id="link_ProductStageTypes_PartSearchCriteria"><path d="M319.5487,146.5757 C388.5287,187.5257 557.59,282.89 721,332.95 C873.35,379.63 1060.18,398.7 1160.71,406.01 " fill="none" id="ProductStageTypes-backto-PartSearchCriteria" style="stroke:#181818;stroke-width:1.0;"/><polygon fill="#181818" points="309.23,140.45,312.3475,146.9524,319.5487,146.5757,316.4313,140.0733,309.23,140.45" style="stroke:#181818;stroke-width:1.0;"/></g><g id="link_ProductStageTypes_SuperSession"><path d="M355.85,136.98 C361.65,138.01 367.42,139.02 373,139.98 C530.98,166.99 718.09,195.3 809.73,208.92 " fill="none" id="ProductStageTypes-SuperSession" style="stroke:#181818;stroke-width:1.0;"/></g><g id="link_ShippingMethodTypes_PartLogisticsCriteria"><path d="M1989.8643,143.7985 C1932.8843,160.6785 1858.94,182.58 1801.88,199.48 " fill="none" id="ShippingMethodTypes-backto-PartLogisticsCriteria" style="stroke:#181818;stroke-width:1.0;"/><polygon fill="#181818" points="2001.37,140.39,1994.481,138.259,1989.8643,143.7985,1996.7533,145.9295,2001.37,140.39" style="stroke:#181818;stroke-width:1.0;"/></g><g id="link_SuperSession_PartLifecycle"><path d="M866,248.55 C866,265.49 866,279.15 866,296.17 " fill="none" id="SuperSession-backto-PartLifecycle" style="stroke:#181818;stroke-width:1.0;"/><polygon fill="#181818" points="866,236.55,862,242.55,866,248.55,870,242.55,866,236.55" style="stroke:#181818;stroke-width:1.0;"/></g><g id="link_UOMLengthTypes_PartLogisticsCriteria"><path d="M1541.17,140.39 C1585.29,157.27 1651.45,182.58 1695.64,199.48 " fill="none" id="UOMLengthTypes-PartLogisticsCriteria" style="stroke:#181818;stroke-width:1.0;"/></g><g id="link_UOMQuantityCategoryTypes_UnitOfMeasure"><path d="M2496.5,43.57 C2491.12,60.52 2482.97,86.18 2477.57,103.19 " fill="none" id="UOMQuantityCategoryTypes-UnitOfMeasure" style="stroke:#181818;stroke-width:1.0;"/></g><g id="link_UnitOfMeasure_PartSpecification"><path d="M2410.0091,144.341 C2361.5991,161.221 2300.35,182.58 2251.87,199.48 " fill="none" id="UnitOfMeasure-backto-PartSpecification" style="stroke:#181818;stroke-width:1.0;"/><polygon fill="#181818" points="2421.34,140.39,2414.3575,138.5885,2410.0091,144.341,2416.9915,146.1425,2421.34,140.39" style="stroke:#181818;stroke-width:1.0;"/></g><g id="link_WarehouseTypes_PartLogisticsCriteria"><path d="M1837.3589,147.3706 C1814.1889,164.3406 1788.96,182.82 1765.83,199.76 " fill="none" id="WarehouseTypes-backto-PartLogisticsCriteria" style="stroke:#181818;stroke-width:1.0;"/><polygon fill="#181818" points="1847.04,140.28,1839.8359,140.5982,1837.3589,147.3706,1844.563,147.0523,1847.04,140.28" style="stroke:#181818;stroke-width:1.0;"/></g><g id="link_WarrantyTypes_PartPriceCriteria"><path d="M1400.7785,243.1371 C1373.7485,260.0571 1343.23,279.15 1316.15,296.09 " fill="none" id="WarrantyTypes-backto-PartPriceCriteria" style="stroke:#181818;stroke-width:1.0;"/><polygon fill="#181818" points="1410.95,236.77,1403.7419,236.563,1400.7785,243.1371,1407.9866,243.3441,1410.95,236.77" style="stroke:#181818;stroke-width:1.0;"/></g></g></svg>