<?xml version="1.0" encoding="us-ascii" standalone="no"?><svg xmlns="http://www.w3.org/2000/svg" xmlns:xlink="http://www.w3.org/1999/xlink" contentStyleType="text/css" height="435px" preserveAspectRatio="none" style="width:1753px;height:435px;background:#FFFFFF;" version="1.1" viewBox="0 0 1753 435" width="1753px" zoomAndPan="magnify"><defs/><g><g id="elem_ControlAccount"><rect fill="#F1F1F1" height="36.4883" rx="2.5" ry="2.5" style="stroke:#181818;stroke-width:0.5;" width="128" x="1082.73" y="103.49"/><text fill="#000000" font-family="sans-serif" font-size="14" lengthAdjust="spacing" textLength="108" x="1092.73" y="127.0252">ControlAccount</text></g><g id="elem_Identifier"><rect fill="#F1F1F1" height="36.4883" rx="2.5" ry="2.5" style="stroke:#181818;stroke-width:0.5;" width="82" x="594.73" y="7"/><text fill="#000000" font-family="sans-serif" font-size="14" lengthAdjust="spacing" textLength="62" x="604.73" y="30.5352">Identifier</text></g><g id="elem_Part"><rect fill="#F1F1F1" height="36.4883" rx="2.5" ry="2.5" style="stroke:#181818;stroke-width:0.5;" width="47" x="1010.23" y="296.46"/><text fill="#000000" font-family="sans-serif" font-size="14" lengthAdjust="spacing" textLength="27" x="1020.23" y="319.9952">Part</text></g><g id="elem_PartEvent"><rect fill="#F1F1F1" height="36.4883" rx="2.5" ry="2.5" style="stroke:#181818;stroke-width:0.5;" width="84" x="319.73" y="199.98"/><text fill="#000000" font-family="sans-serif" font-size="14" lengthAdjust="spacing" textLength="64" x="329.73" y="223.5152">PartEvent</text></g><g id="elem_PartIdentifier"><rect fill="#F1F1F1" height="36.4883" rx="2.5" ry="2.5" style="stroke:#181818;stroke-width:0.5;" width="109" x="104.23" y="199.98"/><text fill="#000000" font-family="sans-serif" font-size="14" lengthAdjust="spacing" textLength="89" x="114.23" y="223.5152">PartIdentifier</text></g><g id="elem_PartInventory"><rect fill="#F1F1F1" height="36.4883" rx="2.5" ry="2.5" style="stroke:#181818;stroke-width:0.5;" width="111" x="978.23" y="392.95"/><text fill="#000000" font-family="sans-serif" font-size="14" lengthAdjust="spacing" textLength="91" x="988.23" y="416.4852">PartInventory</text></g><g id="elem_PartInventoryEvent"><rect fill="#F1F1F1" height="36.4883" rx="2.5" ry="2.5" style="stroke:#181818;stroke-width:0.5;" width="148" x="519.73" y="296.46"/><text fill="#000000" font-family="sans-serif" font-size="14" lengthAdjust="spacing" textLength="128" x="529.73" y="319.9952">PartInventoryEvent</text></g><g id="elem_PartInventoryMetric"><rect fill="#F1F1F1" height="36.4883" rx="2.5" ry="2.5" style="stroke:#181818;stroke-width:0.5;" width="153" x="1164.23" y="296.46"/><text fill="#000000" font-family="sans-serif" font-size="14" lengthAdjust="spacing" textLength="133" x="1174.23" y="319.9952">PartInventoryMetric</text></g><g id="elem_PartLifecycle"><rect fill="#F1F1F1" height="36.4883" rx="2.5" ry="2.5" style="stroke:#181818;stroke-width:0.5;" width="104" x="859.73" y="199.98"/><text fill="#000000" font-family="sans-serif" font-size="14" lengthAdjust="spacing" textLength="84" x="869.73" y="223.5152">PartLifecycle</text></g><g id="elem_PartLocation"><rect fill="#F1F1F1" height="36.4883" rx="2.5" ry="2.5" style="stroke:#181818;stroke-width:0.5;" width="105" x="1245.23" y="199.98"/><text fill="#000000" font-family="sans-serif" font-size="14" lengthAdjust="spacing" textLength="85" x="1255.23" y="223.5152">PartLocation</text></g><g id="elem_PartName"><rect fill="#F1F1F1" height="36.4883" rx="2.5" ry="2.5" style="stroke:#181818;stroke-width:0.5;" width="86" x="33.73" y="103.49"/><text fill="#000000" font-family="sans-serif" font-size="14" lengthAdjust="spacing" textLength="66" x="43.73" y="127.0252">PartName</text></g><g id="elem_Price"><rect fill="#F1F1F1" height="36.4883" rx="2.5" ry="2.5" style="stroke:#181818;stroke-width:0.5;" width="53" x="1455.23" y="199.98"/><text fill="#000000" font-family="sans-serif" font-size="14" lengthAdjust="spacing" textLength="33" x="1465.23" y="223.5152">Price</text></g><g id="elem_Warehouse"><rect fill="#F1F1F1" height="36.4883" rx="2.5" ry="2.5" style="stroke:#181818;stroke-width:0.5;" width="96" x="1420.73" y="103.49"/><text fill="#000000" font-family="sans-serif" font-size="14" lengthAdjust="spacing" textLength="76" x="1430.73" y="127.0252">Warehouse</text></g><g id="elem_ControlAccountRoleTypes"><rect fill="#FAFF91" height="36.4883" rx="2.5" ry="2.5" style="stroke:#181818;stroke-width:0.5;" width="198" x="1378.73" y="7"/><text fill="#000000" font-family="sans-serif" font-size="14" lengthAdjust="spacing" textLength="178" x="1388.73" y="30.5352">ControlAccountRoleTypes</text></g><g id="elem_ControlAccountStatusTypes"><rect fill="#FAFF91" height="36.4883" rx="2.5" ry="2.5" style="stroke:#181818;stroke-width:0.5;" width="210" x="711.73" y="7"/><text fill="#000000" font-family="sans-serif" font-size="14" lengthAdjust="spacing" textLength="190" x="721.73" y="30.5352">ControlAccountStatusTypes</text></g><g id="elem_ControlAccountTypes"><rect fill="#FAFF91" height="36.4883" rx="2.5" ry="2.5" style="stroke:#181818;stroke-width:0.5;" width="168" x="956.73" y="7"/><text fill="#000000" font-family="sans-serif" font-size="14" lengthAdjust="spacing" textLength="148" x="966.73" y="30.5352">ControlAccountTypes</text></g><g id="elem_FinancialCategoryTypes"><rect fill="#FAFF91" height="36.4883" rx="2.5" ry="2.5" style="stroke:#181818;stroke-width:0.5;" width="183" x="1160.23" y="7"/><text fill="#000000" font-family="sans-serif" font-size="14" lengthAdjust="spacing" textLength="163" x="1170.23" y="30.5352">FinancialCategoryTypes</text></g><g id="elem_InventoryStatusTypes"><rect fill="#FAFF91" height="36.4883" rx="2.5" ry="2.5" style="stroke:#181818;stroke-width:0.5;" width="166" x="1352.73" y="296.46"/><text fill="#000000" font-family="sans-serif" font-size="14" lengthAdjust="spacing" textLength="146" x="1362.73" y="319.9952">InventoryStatusTypes</text></g><g id="elem_PartConditionGradeTypes"><rect fill="#FAFF91" height="36.4883" rx="2.5" ry="2.5" style="stroke:#181818;stroke-width:0.5;" width="196" x="438.73" y="199.98"/><text fill="#000000" font-family="sans-serif" font-size="14" lengthAdjust="spacing" textLength="176" x="448.73" y="223.5152">PartConditionGradeTypes</text></g><g id="elem_PartConditionTypes"><rect fill="#FAFF91" height="36.4883" rx="2.5" ry="2.5" style="stroke:#181818;stroke-width:0.5;" width="155" x="670.23" y="199.98"/><text fill="#000000" font-family="sans-serif" font-size="14" lengthAdjust="spacing" textLength="135" x="680.23" y="223.5152">PartConditionTypes</text></g><g id="elem_PartIdentifierTypes"><rect fill="#FAFF91" height="36.4883" rx="2.5" ry="2.5" style="stroke:#181818;stroke-width:0.5;" width="149" x="154.23" y="103.49"/><text fill="#000000" font-family="sans-serif" font-size="14" lengthAdjust="spacing" textLength="129" x="164.23" y="127.0252">PartIdentifierTypes</text></g><g id="elem_PartInventoryMetricTypes"><rect fill="#FAFF91" height="36.4883" rx="2.5" ry="2.5" style="stroke:#181818;stroke-width:0.5;" width="193" x="1543.23" y="199.98"/><text fill="#000000" font-family="sans-serif" font-size="14" lengthAdjust="spacing" textLength="173" x="1553.23" y="223.5152">PartInventoryMetricTypes</text></g><g id="elem_PartInventoryOrderTypes"><rect fill="#FAFF91" height="36.4883" rx="2.5" ry="2.5" style="stroke:#181818;stroke-width:0.5;" width="191" x="409.23" y="103.49"/><text fill="#000000" font-family="sans-serif" font-size="14" lengthAdjust="spacing" textLength="171" x="419.23" y="127.0252">PartInventoryOrderTypes</text></g><g id="elem_PartNameTypes"><rect fill="#FAFF91" height="36.4883" rx="2.5" ry="2.5" style="stroke:#181818;stroke-width:0.5;" width="126" x="13.73" y="7"/><text fill="#000000" font-family="sans-serif" font-size="14" lengthAdjust="spacing" textLength="106" x="23.73" y="30.5352">PartNameTypes</text></g><g id="elem_PartStatusTypes"><rect fill="#FAFF91" height="36.4883" rx="2.5" ry="2.5" style="stroke:#181818;stroke-width:0.5;" width="129" x="847.23" y="103.49"/><text fill="#000000" font-family="sans-serif" font-size="14" lengthAdjust="spacing" textLength="109" x="857.23" y="127.0252">PartStatusTypes</text></g><g id="elem_PartStorageTypes"><rect fill="#FAFF91" height="36.4883" rx="2.5" ry="2.5" style="stroke:#181818;stroke-width:0.5;" width="140" x="1245.73" y="103.49"/><text fill="#000000" font-family="sans-serif" font-size="14" lengthAdjust="spacing" textLength="120" x="1255.73" y="127.0252">PartStorageTypes</text></g><g id="elem_PriceTypes"><rect fill="#FAFF91" height="36.4883" rx="2.5" ry="2.5" style="stroke:#181818;stroke-width:0.5;" width="93" x="1552.23" y="103.49"/><text fill="#000000" font-family="sans-serif" font-size="14" lengthAdjust="spacing" textLength="73" x="1562.23" y="127.0252">PriceTypes</text></g><g id="elem_WarehouseTypes"><rect fill="#FAFF91" height="36.4883" rx="2.5" ry="2.5" style="stroke:#181818;stroke-width:0.5;" width="136" x="1611.73" y="7"/><text fill="#000000" font-family="sans-serif" font-size="14" lengthAdjust="spacing" textLength="116" x="1621.73" y="30.5352">WarehouseTypes</text></g><g id="link_ControlAccount_Part"><path d="M1151.73,140.11 C1157.43,163.52 1164.01,205.76 1147.73,236.46 C1128.8,272.16 1085.18,294.39 1057.72,305.37 " fill="none" id="ControlAccount-Part" style="stroke:#181818;stroke-width:1.0;"/></g><g id="link_ControlAccountRoleTypes_ControlAccount"><path d="M1415.86,43.9 C1356.73,60.78 1268.07,86.09 1208.86,103 " fill="none" id="ControlAccountRoleTypes-ControlAccount" style="stroke:#181818;stroke-width:1.0;"/></g><g id="link_ControlAccountStatusTypes_ControlAccount"><path d="M878.41,43.9 C937.36,60.78 1025.75,86.09 1084.79,103 " fill="none" id="ControlAccountStatusTypes-ControlAccount" style="stroke:#181818;stroke-width:1.0;"/></g><g id="link_ControlAccountTypes_ControlAccount"><path d="M1060.17,43.57 C1079.18,60.52 1107.97,86.18 1127.05,103.19 " fill="none" id="ControlAccountTypes-ControlAccount" style="stroke:#181818;stroke-width:1.0;"/></g><g id="link_FinancialCategoryTypes_ControlAccount"><path d="M1232.47,43.57 C1213.64,60.52 1185.13,86.18 1166.22,103.19 " fill="none" id="FinancialCategoryTypes-ControlAccount" style="stroke:#181818;stroke-width:1.0;"/></g><g id="link_Identifier_ControlAccount"><path d="M688.6361,42.4178 C694.2061,43.9578 688.31,42.24 693.73,43.49 C852.64,80.13 895.16,74.97 1055.73,103.49 C1064.44,105.03 1073.6,106.71 1082.63,108.39 " fill="none" id="Identifier-backto-ControlAccount" style="stroke:#181818;stroke-width:1.0;"/><polygon fill="#181818" points="677.07,39.22,681.7871,44.6743,688.6361,42.4178,683.919,36.9635,677.07,39.22" style="stroke:#181818;stroke-width:1.0;"/></g><g id="link_Identifier_Part"><path d="M688.6584,42.311 C694.2184,43.881 688.33,42.15 693.73,43.49 C825.7,76.23 888.65,17.19 993.73,103.49 C1051.87,151.24 1043.06,254.98 1036.84,296.26 " fill="none" id="Identifier-backto-Part" style="stroke:#181818;stroke-width:1.0;"/><polygon fill="#181818" points="677.11,39.05,681.7972,44.53,688.6584,42.311,683.9712,36.831,677.11,39.05" style="stroke:#181818;stroke-width:1.0;"/></g><g id="link_Identifier_PartIdentifier"><path d="M582.8197,40.186 C533.6797,53.536 461.16,74.89 391.73,103.49 C358.92,117 352.52,124.23 320.73,139.98 C278.43,160.92 229.46,184.13 196.53,199.59 " fill="none" id="Identifier-backto-PartIdentifier" style="stroke:#181818;stroke-width:1.0;"/><polygon fill="#181818" points="594.4,37.04,587.5612,34.7529,582.8197,40.186,589.6586,42.4731,594.4,37.04" style="stroke:#181818;stroke-width:1.0;"/></g><g id="link_Identifier_PartInventory"><path d="M582.3266,28.9207 C449.8866,35.8907 55.08,60.05 16.73,103.49 C6,115.64 11.72,124.55 16.73,139.98 C33.08,190.37 44.11,205 86.73,236.46 C193.64,315.38 240.11,303.67 369.73,332.95 C591.61,383.08 862.96,401.73 977.97,407.72 " fill="none" id="Identifier-backto-PartInventory" style="stroke:#181818;stroke-width:1.0;"/><polygon fill="#181818" points="594.31,28.29,588.1081,24.6109,582.3266,28.9207,588.5285,32.5998,594.31,28.29" style="stroke:#181818;stroke-width:1.0;"/></g><g id="link_Identifier_Warehouse"><path d="M688.5803,42.7013 C694.1703,44.1813 688.26,42.45 693.73,43.49 C1004.47,102.19 1091.05,49.99 1402.73,103.49 C1408.45,104.47 1414.4,105.71 1420.28,107.07 " fill="none" id="Identifier-backto-Warehouse" style="stroke:#181818;stroke-width:1.0;"/><polygon fill="#181818" points="676.98,39.63,681.7564,45.0324,688.5803,42.7013,683.8039,37.2989,676.98,39.63" style="stroke:#181818;stroke-width:1.0;"/></g><g id="link_InventoryStatusTypes_PartInventory"><path d="M1360.59,333.37 C1281.85,351.88 1159.98,380.52 1089.43,397.11 " fill="none" id="InventoryStatusTypes-PartInventory" style="stroke:#181818;stroke-width:1.0;"/></g><g id="link_PartConditionGradeTypes_Part"><path d="M629.92,236.94 C747.41,259.27 942.21,296.31 1009.78,309.15 " fill="none" id="PartConditionGradeTypes-Part" style="stroke:#181818;stroke-width:1.0;"/></g><g id="link_PartConditionTypes_Part"><path d="M801.19,236.88 C863.6,257.5 964.08,290.7 1009.75,305.79 " fill="none" id="PartConditionTypes-Part" style="stroke:#181818;stroke-width:1.0;"/></g><g id="link_PartEvent_Part"><path d="M415.7374,235.3621 C421.6074,236.9221 416,235.29 421.73,236.46 C648.05,282.98 927.58,305.95 1009.89,312.03 " fill="none" id="PartEvent-backto-Part" style="stroke:#181818;stroke-width:1.0;"/><polygon fill="#181818" points="404.14,232.28,408.9113,237.6869,415.7374,235.3621,410.9661,229.9552,404.14,232.28" style="stroke:#181818;stroke-width:1.0;"/></g><g id="link_PartIdentifierTypes_PartIdentifier"><path d="M215.89,140.06 C203.34,157 184.33,182.66 171.73,199.68 " fill="none" id="PartIdentifierTypes-PartIdentifier" style="stroke:#181818;stroke-width:1.0;"/></g><g id="link_PartIdentifier_Part"><path d="M225.6213,227.4964 C252.2013,230.7464 272.66,233.18 301.73,236.46 C580.13,267.94 918.58,302.16 1010.02,311.33 " fill="none" id="PartIdentifier-backto-Part" style="stroke:#181818;stroke-width:1.0;"/><polygon fill="#181818" points="213.71,226.04,219.1802,230.7386,225.6213,227.4964,220.1511,222.7978,213.71,226.04" style="stroke:#181818;stroke-width:1.0;"/></g><g id="link_PartIdentifier_PartInventory"><path d="M214.7001,241.1879 C279.4901,266.1079 392.44,307.11 501.73,332.95 C672.94,373.43 880.45,396.18 977.98,405.36 " fill="none" id="PartIdentifier-backto-PartInventory" style="stroke:#181818;stroke-width:1.0;"/><polygon fill="#181818" points="203.5,236.88,207.6641,242.7673,214.7001,241.1879,210.536,235.3006,203.5,236.88" style="stroke:#181818;stroke-width:1.0;"/></g><g id="link_PartInventoryEvent_PartInventory"><path d="M679.6026,334.1491 C767.1626,352.9491 899.09,381.28 977.81,398.19 " fill="none" id="PartInventoryEvent-backto-PartInventory" style="stroke:#181818;stroke-width:1.0;"/><polygon fill="#181818" points="667.87,331.63,672.8966,336.8004,679.6026,334.1491,674.576,328.9787,667.87,331.63" style="stroke:#181818;stroke-width:1.0;"/></g><g id="link_PartInventoryMetricTypes_PartInventoryMetric"><path d="M1565.15,236.88 C1493.87,253.76 1387,279.07 1315.62,295.97 " fill="none" id="PartInventoryMetricTypes-PartInventoryMetric" style="stroke:#181818;stroke-width:1.0;"/></g><g id="link_PartInventoryMetric_PartInventory"><path d="M1191.3639,338.2438 C1154.3039,355.1638 1109.44,375.64 1072.33,392.58 " fill="none" id="PartInventoryMetric-backto-PartInventory" style="stroke:#181818;stroke-width:1.0;"/><polygon fill="#181818" points="1202.28,333.26,1195.1607,332.1132,1191.3639,338.2438,1198.4832,339.3906,1202.28,333.26" style="stroke:#181818;stroke-width:1.0;"/></g><g id="link_PartInventoryOrderTypes_PartEvent"><path d="M478.17,140.28 C452.48,157.25 413.79,182.82 388.15,199.76 " fill="none" id="PartInventoryOrderTypes-PartEvent" style="stroke:#181818;stroke-width:1.0;"/></g><g id="link_PartInventoryOrderTypes_PartInventoryEvent"><path d="M409.78,140.47 C340.56,157.76 264.83,188.53 301.73,236.46 C328.12,270.74 441.8,292.92 519.28,304.36 " fill="none" id="PartInventoryOrderTypes-PartInventoryEvent" style="stroke:#181818;stroke-width:1.0;"/></g><g id="link_PartLifecycle_Part"><path d="M943.8771,244.1181 C965.7871,261.0881 989.32,279.31 1011.19,296.25 " fill="none" id="PartLifecycle-backto-Part" style="stroke:#181818;stroke-width:1.0;"/><polygon fill="#181818" points="934.39,236.77,936.6842,243.6064,943.8771,244.1181,941.5829,237.2817,934.39,236.77" style="stroke:#181818;stroke-width:1.0;"/></g><g id="link_PartLocation_Part"><path d="M1248.38,236.88 C1191.52,257.23 1100.42,289.84 1057.53,305.19 " fill="none" id="PartLocation-Part" style="stroke:#181818;stroke-width:1.0;"/></g><g id="link_PartNameTypes_PartName"><path d="M76.73,43.57 C76.73,60.52 76.73,86.18 76.73,103.19 " fill="none" id="PartNameTypes-PartName" style="stroke:#181818;stroke-width:1.0;"/></g><g id="link_PartName_PartIdentifier"><path d="M99.6349,149.1233 C114.3349,166.0633 128.74,182.66 143.51,199.68 " fill="none" id="PartName-backto-PartIdentifier" style="stroke:#181818;stroke-width:1.0;"/><polygon fill="#181818" points="91.77,140.06,92.6813,147.2133,99.6349,149.1233,98.7235,141.97,91.77,140.06" style="stroke:#181818;stroke-width:1.0;"/></g><g id="link_PartStatusTypes_Part"><path d="M923.3679,149.7127 C934.8579,164.6127 948.49,177.6 963.23,199.98 C984.2,231.81 1001.27,273.27 1015.56,296.32 " fill="none" id="PartStatusTypes-backto-Part" style="stroke:#181818;stroke-width:1.0;"/><polygon fill="#181818" points="916.04,140.21,916.5364,147.404,923.3679,149.7127,922.8715,142.5187,916.04,140.21" style="stroke:#181818;stroke-width:1.0;"/></g><g id="link_PartStatusTypes_Part"><path d="M944.14,140.21 C962.53,155.11 983.49,177.6 998.23,199.98 C1019.2,231.81 1036.27,273.27 1039.38,296.32 " fill="none" id="PartStatusTypes-Part" style="stroke:#181818;stroke-width:1.0;"/></g><g id="link_PartStatusTypes_PartLifecycle"><path d="M911.73,152.06 C911.73,169 911.73,182.66 911.73,199.68 " fill="none" id="PartStatusTypes-backto-PartLifecycle" style="stroke:#181818;stroke-width:1.0;"/><polygon fill="#181818" points="911.73,140.06,907.73,146.06,911.73,152.06,915.73,146.06,911.73,140.06" style="stroke:#181818;stroke-width:1.0;"/></g><g id="link_PartStatusTypes_PartEvent"><path d="M847.04,130.34 C752.84,142.01 572.65,166.53 421.73,199.98 C416.02,201.24 410.04,202.74 404.17,204.32 " fill="none" id="PartStatusTypes-PartEvent" style="stroke:#181818;stroke-width:1.0;"/></g><g id="link_PartStorageTypes_PartLocation"><path d="M1312.43,140.06 C1309.2,157 1304.31,182.66 1301.07,199.68 " fill="none" id="PartStorageTypes-PartLocation" style="stroke:#181818;stroke-width:1.0;"/></g><g id="link_Part_PartInventory"><path d="M1033.73,345.04 C1033.73,361.98 1033.73,375.64 1033.73,392.66 " fill="none" id="Part-backto-PartInventory" style="stroke:#181818;stroke-width:1.0;"/><polygon fill="#181818" points="1033.73,333.04,1029.73,339.04,1033.73,345.04,1037.73,339.04,1033.73,333.04" style="stroke:#181818;stroke-width:1.0;"/></g><g id="link_PriceTypes_Price"><path d="M1567.663,147.818 C1546.643,164.788 1524.32,182.82 1503.35,199.76 " fill="none" id="PriceTypes-backto-Price" style="stroke:#181818;stroke-width:1.0;"/><polygon fill="#181818" points="1577,140.28,1569.8189,140.9367,1567.663,147.818,1574.8442,147.1613,1577,140.28" style="stroke:#181818;stroke-width:1.0;"/></g><g id="link_Price_Part"><path d="M1443.5836,232.4978 C1435.2436,235.2478 1437.37,234.32 1428.73,236.46 C1278.12,273.9 1235.13,258.16 1084.73,296.46 C1075.76,298.75 1066.1,301.84 1057.63,304.78 " fill="none" id="Price-backto-Part" style="stroke:#181818;stroke-width:1.0;"/><polygon fill="#181818" points="1454.98,228.74,1448.0292,226.8201,1443.5836,232.4978,1450.5344,234.4177,1454.98,228.74" style="stroke:#181818;stroke-width:1.0;"/></g><g id="link_Price_PartInventory"><path d="M1443.4296,229.3229 C1431.1796,232.5229 1428.04,233.26 1414.73,236.46 C1296.06,265.01 1253.59,237.47 1146.73,296.46 C1102.87,320.68 1064.82,367.07 1046.1,392.48 " fill="none" id="Price-backto-PartInventory" style="stroke:#181818;stroke-width:1.0;"/><polygon fill="#181818" points="1455.04,226.29,1448.2238,223.9363,1443.4296,229.3229,1450.2458,231.6766,1455.04,226.29" style="stroke:#181818;stroke-width:1.0;"/></g><g id="link_Warehouse_Part"><path d="M1458.44,140.11 C1442.43,165.53 1409.05,212.43 1367.73,236.46 C1256.59,301.1 1208.73,262.48 1084.73,296.46 C1075.81,298.91 1066.16,302.04 1057.68,304.97 " fill="none" id="Warehouse-Part" style="stroke:#181818;stroke-width:1.0;"/></g><g id="link_Warehouse_PartLocation"><path d="M1436.97,140.28 C1406.35,157.2 1360.27,182.66 1329.61,199.6 " fill="none" id="Warehouse-PartLocation" style="stroke:#181818;stroke-width:1.0;"/></g><g id="link_WarehouseTypes_Warehouse"><path d="M1629.5882,48.6948 C1591.8082,65.6148 1545.9,86.17 1508.07,103.11 " fill="none" id="WarehouseTypes-backto-Warehouse" style="stroke:#181818;stroke-width:1.0;"/><polygon fill="#181818" points="1640.54,43.79,1633.4291,42.5918,1629.5882,48.6948,1636.699,49.893,1640.54,43.79" style="stroke:#181818;stroke-width:1.0;"/></g></g></svg>