<?xml version="1.0" encoding="UTF-8" standalone="no"?>
<!DOCTYPE svg PUBLIC "-//W3C//DTD SVG 1.1//EN"
 "http://www.w3.org/Graphics/SVG/1.1/DTD/svg11.dtd">
<!-- Generated by graphviz version 2.43.0 (0)
 -->
<!-- Title: G Pages: 1 -->
<svg width="1365pt" height="1023pt"
 viewBox="0.00 0.00 1365.00 1023.00" xmlns="http://www.w3.org/2000/svg" xmlns:xlink="http://www.w3.org/1999/xlink">
<g id="graph0" class="graph" transform="scale(1 1) rotate(0) translate(4 1019)">
<title>G</title>
<polygon fill="white" stroke="transparent" points="-4,4 -4,-1019 1361,-1019 1361,4 -4,4"/>
<!-- AddressReference -->
<g id="node1" class="node">
<title>AddressReference</title>
<polygon fill="white" stroke="black" points="352.5,-90 211.5,-90 211.5,-54 352.5,-54 352.5,-90"/>
<text text-anchor="middle" x="282" y="-68.3" font-family="Helvetica,sans-Serif" font-size="14.00">AddressReference</text>
</g>
<!-- AddressReferenceCreate -->
<g id="node2" class="node">
<title>AddressReferenceCreate</title>
<polygon fill="white" stroke="black" points="601,-36 415,-36 415,0 601,0 601,-36"/>
<text text-anchor="middle" x="508" y="-14.3" font-family="Helvetica,sans-Serif" font-size="14.00">AddressReferenceCreate</text>
</g>
<!-- AddressReference&#45;&gt;AddressReferenceCreate -->
<g id="edge1" class="edge">
<title>AddressReference&#45;&gt;AddressReferenceCreate</title>
<path fill="none" stroke="black" d="M352.92,-61.2C390.51,-61.2 429,-61.2 429,-61.2 429,-61.2 429,-47.91 429,-36.07"/>
</g>
<!-- AddressReferences -->
<g id="node4" class="node">
<title>AddressReferences</title>
<polygon fill="white" stroke="black" points="582.5,-144 433.5,-144 433.5,-108 582.5,-108 582.5,-144"/>
<text text-anchor="middle" x="508" y="-122.3" font-family="Helvetica,sans-Serif" font-size="14.00">AddressReferences</text>
</g>
<!-- AddressReference&#45;&gt;AddressReferences -->
<g id="edge2" class="edge">
<title>AddressReference&#45;&gt;AddressReferences</title>
<path fill="none" stroke="black" stroke-width="2" d="M352.88,-75.6C398,-75.6 448,-75.6 448,-75.6 448,-75.6 448,-93.37 448,-107.8"/>
</g>
<!-- AddressReference&#45;&gt;AddressReferences -->
<g id="edge3" class="edge">
<title>AddressReference&#45;&gt;AddressReferences</title>
<path fill="none" stroke="black" d="M352.76,-68.4C403.52,-68.4 463,-68.4 463,-68.4 463,-68.4 463,-90.9 463,-107.77"/>
</g>
<!-- AppointmentCreate -->
<g id="node7" class="node">
<title>AppointmentCreate</title>
<polygon fill="white" stroke="black" points="1113.5,-328 961.5,-328 961.5,-292 1113.5,-292 1113.5,-328"/>
<text text-anchor="middle" x="1037.5" y="-306.3" font-family="Helvetica,sans-Serif" font-size="14.00">AppointmentCreate</text>
</g>
<!-- AddressReference&#45;&gt;AppointmentCreate -->
<g id="edge4" class="edge">
<title>AddressReference&#45;&gt;AppointmentCreate</title>
<path fill="none" stroke="black" d="M259,-90.05C259,-121.11 259,-181.33 259,-181.33 259,-181.33 923,-181.33 923,-181.33 923,-181.33 923,-296 923,-296 923,-296 940.3,-296 961.45,-296"/>
</g>
<!-- AppointmentUpdate -->
<g id="node13" class="node">
<title>AppointmentUpdate</title>
<polygon fill="white" stroke="black" points="1116,-274 959,-274 959,-238 1116,-238 1116,-274"/>
<text text-anchor="middle" x="1037.5" y="-252.3" font-family="Helvetica,sans-Serif" font-size="14.00">AppointmentUpdate</text>
</g>
<!-- AddressReference&#45;&gt;AppointmentUpdate -->
<g id="edge5" class="edge">
<title>AddressReference&#45;&gt;AppointmentUpdate</title>
<path fill="none" stroke="black" d="M306,-90.35C306,-116.84 306,-162.67 306,-162.67 306,-162.67 1038,-162.67 1038,-162.67 1038,-162.67 1038,-210.36 1038,-237.56"/>
</g>
<!-- AppointmentView -->
<g id="node14" class="node">
<title>AppointmentView</title>
<polygon fill="white" stroke="black" points="1107,-428 968,-428 968,-392 1107,-392 1107,-428"/>
<text text-anchor="middle" x="1037.5" y="-406.3" font-family="Helvetica,sans-Serif" font-size="14.00">AppointmentView</text>
</g>
<!-- AddressReference&#45;&gt;AppointmentView -->
<g id="edge6" class="edge">
<title>AddressReference&#45;&gt;AppointmentView</title>
<path fill="none" stroke="black" d="M352.66,-82.8C388.69,-82.8 425,-82.8 425,-82.8 425,-82.8 425,-413 425,-413 425,-413 807.3,-413 967.83,-413"/>
</g>
<!-- AddressReferenceUpdate -->
<g id="node3" class="node">
<title>AddressReferenceUpdate</title>
<polygon fill="white" stroke="black" points="377.5,-36 186.5,-36 186.5,0 377.5,0 377.5,-36"/>
<text text-anchor="middle" x="282" y="-14.3" font-family="Helvetica,sans-Serif" font-size="14.00">AddressReferenceUpdate</text>
</g>
<!-- AppointmentCustomerSnapshot -->
<g id="node8" class="node">
<title>AppointmentCustomerSnapshot</title>
<polygon fill="white" stroke="black" points="895.5,-328 656.5,-328 656.5,-292 895.5,-292 895.5,-328"/>
<text text-anchor="middle" x="776" y="-306.3" font-family="Helvetica,sans-Serif" font-size="14.00">AppointmentCustomerSnapshot</text>
</g>
<!-- AddressReferences&#45;&gt;AppointmentCustomerSnapshot -->
<g id="edge7" class="edge">
<title>AddressReferences&#45;&gt;AppointmentCustomerSnapshot</title>
<path fill="none" stroke="black" d="M577,-144.01C577,-188 577,-297.33 577,-297.33 577,-297.33 614.08,-297.33 656.22,-297.33"/>
</g>
<!-- AppointmentAdvisorRef -->
<g id="node5" class="node">
<title>AppointmentAdvisorRef</title>
<polygon fill="white" stroke="black" points="866.5,-528 685.5,-528 685.5,-492 866.5,-492 866.5,-528"/>
<text text-anchor="middle" x="776" y="-506.3" font-family="Helvetica,sans-Serif" font-size="14.00">AppointmentAdvisorRef</text>
</g>
<!-- AppointmentAdvisorRef&#45;&gt;AppointmentView -->
<g id="edge12" class="edge">
<title>AppointmentAdvisorRef&#45;&gt;AppointmentView</title>
<path fill="none" stroke="black" d="M857,-491.58C857,-464.99 857,-419 857,-419 857,-419 917.12,-419 967.97,-419"/>
</g>
<!-- AppointmentAudit -->
<g id="node6" class="node">
<title>AppointmentAudit</title>
<polygon fill="white" stroke="black" points="847.5,-474 704.5,-474 704.5,-438 847.5,-438 847.5,-474"/>
<text text-anchor="middle" x="776" y="-452.3" font-family="Helvetica,sans-Serif" font-size="14.00">AppointmentAudit</text>
</g>
<!-- AppointmentAudit&#45;&gt;AppointmentView -->
<g id="edge13" class="edge">
<title>AppointmentAudit&#45;&gt;AppointmentView</title>
<path fill="none" stroke="black" d="M776,-437.87C776,-427.29 776,-416 776,-416 776,-416 890.3,-416 967.77,-416"/>
</g>
<!-- AppointmentCustomerSnapshot&#45;&gt;AppointmentCreate -->
<g id="edge14" class="edge">
<title>AppointmentCustomerSnapshot&#45;&gt;AppointmentCreate</title>
<path fill="none" stroke="black" d="M895.65,-316C917.98,-316 940.74,-316 961.3,-316"/>
</g>
<!-- AppointmentCustomerSnapshot&#45;&gt;AppointmentUpdate -->
<g id="edge15" class="edge">
<title>AppointmentCustomerSnapshot&#45;&gt;AppointmentUpdate</title>
<path fill="none" stroke="black" d="M895.82,-300C915.7,-300 930,-300 930,-300 930,-300 930,-256 930,-256 930,-256 942.42,-256 958.81,-256"/>
</g>
<!-- AppointmentCustomerSnapshot&#45;&gt;AppointmentView -->
<g id="edge16" class="edge">
<title>AppointmentCustomerSnapshot&#45;&gt;AppointmentView</title>
<path fill="none" stroke="black" d="M895.81,-312C900.35,-312 903,-312 903,-312 903,-312 903,-407 903,-407 903,-407 935.07,-407 967.89,-407"/>
</g>
<!-- AppointmentLaborOperationSelection -->
<g id="node9" class="node">
<title>AppointmentLaborOperationSelection</title>
<polygon fill="white" stroke="black" points="915,-274 637,-274 637,-238 915,-238 915,-274"/>
<text text-anchor="middle" x="776" y="-252.3" font-family="Helvetica,sans-Serif" font-size="14.00">AppointmentLaborOperationSelection</text>
</g>
<!-- AppointmentLaborOperationSelection&#45;&gt;AppointmentCreate -->
<g id="edge17" class="edge">
<title>AppointmentLaborOperationSelection&#45;&gt;AppointmentCreate</title>
<path fill="none" stroke="black" stroke-width="2" d="M911,-274.19C911,-289.18 911,-308 911,-308 911,-308 934.57,-308 961.36,-308"/>
</g>
<!-- AppointmentLaborOperationSelection&#45;&gt;AppointmentCreate -->
<g id="edge18" class="edge">
<title>AppointmentLaborOperationSelection&#45;&gt;AppointmentCreate</title>
<path fill="none" stroke="black" d="M913,-274.15C913,-287.74 913,-304 913,-304 913,-304 935.57,-304 961.49,-304"/>
</g>
<!-- AppointmentLaborOperationSelection&#45;&gt;AppointmentUpdate -->
<g id="edge19" class="edge">
<title>AppointmentLaborOperationSelection&#45;&gt;AppointmentUpdate</title>
<path fill="none" stroke="black" stroke-width="2" d="M915.17,-244C930.17,-244 945.03,-244 958.94,-244"/>
</g>
<!-- AppointmentLaborOperationSelection&#45;&gt;AppointmentUpdate -->
<g id="edge20" class="edge">
<title>AppointmentLaborOperationSelection&#45;&gt;AppointmentUpdate</title>
<path fill="none" stroke="black" d="M915.17,-250C930.17,-250 945.03,-250 958.94,-250"/>
</g>
<!-- AppointmentLaborOperationSelection&#45;&gt;AppointmentView -->
<g id="edge21" class="edge">
<title>AppointmentLaborOperationSelection&#45;&gt;AppointmentView</title>
<path fill="none" stroke="black" stroke-width="2" d="M906,-274.15C906,-313.67 906,-404 906,-404 906,-404 936.36,-404 967.9,-404"/>
</g>
<!-- AppointmentLaborOperationSelection&#45;&gt;AppointmentView -->
<g id="edge22" class="edge">
<title>AppointmentLaborOperationSelection&#45;&gt;AppointmentView</title>
<path fill="none" stroke="black" d="M908,-274.07C908,-312.94 908,-401 908,-401 908,-401 937.17,-401 967.82,-401"/>
</g>
<!-- AppointmentListResponse -->
<g id="node10" class="node">
<title>AppointmentListResponse</title>
<polygon fill="white" stroke="black" points="1357,-428 1160,-428 1160,-392 1357,-392 1357,-428"/>
<text text-anchor="middle" x="1258.5" y="-406.3" font-family="Helvetica,sans-Serif" font-size="14.00">AppointmentListResponse</text>
</g>
<!-- AppointmentResponse -->
<g id="node11" class="node">
<title>AppointmentResponse</title>
<polygon fill="white" stroke="black" points="1345,-374 1172,-374 1172,-338 1345,-338 1345,-374"/>
<text text-anchor="middle" x="1258.5" y="-352.3" font-family="Helvetica,sans-Serif" font-size="14.00">AppointmentResponse</text>
</g>
<!-- AppointmentTransportSelection -->
<g id="node12" class="node">
<title>AppointmentTransportSelection</title>
<polygon fill="white" stroke="black" points="894,-382 658,-382 658,-346 894,-346 894,-382"/>
<text text-anchor="middle" x="776" y="-360.3" font-family="Helvetica,sans-Serif" font-size="14.00">AppointmentTransportSelection</text>
</g>
<!-- AppointmentTransportSelection&#45;&gt;AppointmentCreate -->
<g id="edge23" class="edge">
<title>AppointmentTransportSelection&#45;&gt;AppointmentCreate</title>
<path fill="none" stroke="black" d="M894.1,-360C954.31,-360 1015,-360 1015,-360 1015,-360 1015,-342.37 1015,-328.05"/>
</g>
<!-- AppointmentTransportSelection&#45;&gt;AppointmentUpdate -->
<g id="edge24" class="edge">
<title>AppointmentTransportSelection&#45;&gt;AppointmentUpdate</title>
<path fill="none" stroke="black" d="M894.28,-353C918.62,-353 937,-353 937,-353 937,-353 937,-262 937,-262 937,-262 946.09,-262 958.81,-262"/>
</g>
<!-- AppointmentTransportSelection&#45;&gt;AppointmentView -->
<g id="edge25" class="edge">
<title>AppointmentTransportSelection&#45;&gt;AppointmentView</title>
<path fill="none" stroke="black" d="M888,-382.18C888,-395.04 888,-410 888,-410 888,-410 928.66,-410 967.56,-410"/>
</g>
<!-- AppointmentView&#45;&gt;AppointmentListResponse -->
<g id="edge26" class="edge">
<title>AppointmentView&#45;&gt;AppointmentListResponse</title>
<path fill="none" stroke="black" stroke-width="2" d="M1107.12,-404C1123.82,-404 1141.97,-404 1159.72,-404"/>
</g>
<!-- AppointmentView&#45;&gt;AppointmentListResponse -->
<g id="edge27" class="edge">
<title>AppointmentView&#45;&gt;AppointmentListResponse</title>
<path fill="none" stroke="black" d="M1107.12,-416C1123.82,-416 1141.97,-416 1159.72,-416"/>
</g>
<!-- AppointmentView&#45;&gt;AppointmentResponse -->
<g id="edge28" class="edge">
<title>AppointmentView&#45;&gt;AppointmentResponse</title>
<path fill="none" stroke="black" d="M1061,-391.51C1061,-379.86 1061,-367 1061,-367 1061,-367 1118.81,-367 1171.87,-367"/>
</g>
<!-- Capabilities -->
<g id="node15" class="node">
<title>Capabilities</title>
<polygon fill="white" stroke="black" points="123,-850 26,-850 26,-814 123,-814 123,-850"/>
<text text-anchor="middle" x="74.5" y="-828.3" font-family="Helvetica,sans-Serif" font-size="14.00">Capabilities</text>
</g>
<!-- Codes -->
<g id="node16" class="node">
<title>Codes</title>
<polygon fill="white" stroke="black" points="104,-682 45,-682 45,-646 104,-646 104,-682"/>
<text text-anchor="middle" x="74.5" y="-660.3" font-family="Helvetica,sans-Serif" font-size="14.00">Codes</text>
</g>
<!-- EffectivePeriod -->
<g id="node19" class="node">
<title>EffectivePeriod</title>
<polygon fill="white" stroke="black" points="342,-766 222,-766 222,-730 342,-730 342,-766"/>
<text text-anchor="middle" x="282" y="-744.3" font-family="Helvetica,sans-Serif" font-size="14.00">EffectivePeriod</text>
</g>
<!-- Codes&#45;&gt;EffectivePeriod -->
<g id="edge29" class="edge">
<title>Codes&#45;&gt;EffectivePeriod</title>
<path fill="none" stroke="black" d="M104.23,-677.5C161.61,-677.5 282,-677.5 282,-677.5 282,-677.5 282,-708.96 282,-729.84"/>
</g>
<!-- LaborOperationReference -->
<g id="node22" class="node">
<title>LaborOperationReference</title>
<polygon fill="white" stroke="black" points="379,-313 185,-313 185,-277 379,-277 379,-313"/>
<text text-anchor="middle" x="282" y="-291.3" font-family="Helvetica,sans-Serif" font-size="14.00">LaborOperationReference</text>
</g>
<!-- Codes&#45;&gt;LaborOperationReference -->
<g id="edge30" class="edge">
<title>Codes&#45;&gt;LaborOperationReference</title>
<path fill="none" stroke="black" d="M104.24,-650.5C138.47,-650.5 190,-650.5 190,-650.5 190,-650.5 190,-385.56 190,-313.12"/>
</g>
<!-- MetricValue -->
<g id="node24" class="node">
<title>MetricValue</title>
<polygon fill="white" stroke="black" points="556.5,-582 459.5,-582 459.5,-546 556.5,-546 556.5,-582"/>
<text text-anchor="middle" x="508" y="-560.3" font-family="Helvetica,sans-Serif" font-size="14.00">MetricValue</text>
</g>
<!-- Codes&#45;&gt;MetricValue -->
<g id="edge31" class="edge">
<title>Codes&#45;&gt;MetricValue</title>
<path fill="none" stroke="black" d="M104.02,-655C177.55,-655 363,-655 363,-655 363,-655 363,-570 363,-570 363,-570 417.19,-570 459.31,-570"/>
</g>
<!-- PartyReference -->
<g id="node27" class="node">
<title>PartyReference</title>
<polygon fill="white" stroke="black" points="836.5,-835 715.5,-835 715.5,-799 836.5,-799 836.5,-835"/>
<text text-anchor="middle" x="776" y="-813.3" font-family="Helvetica,sans-Serif" font-size="14.00">PartyReference</text>
</g>
<!-- Codes&#45;&gt;PartyReference -->
<g id="edge32" class="edge">
<title>Codes&#45;&gt;PartyReference</title>
<path fill="none" stroke="black" d="M104.08,-673C177.28,-673 361,-673 361,-673 361,-673 361,-814.67 361,-814.67 361,-814.67 599.94,-814.67 715.21,-814.67"/>
</g>
<!-- PartyReferenceUpdate -->
<g id="node29" class="node">
<title>PartyReferenceUpdate</title>
<polygon fill="white" stroke="black" points="861.5,-758 690.5,-758 690.5,-722 861.5,-722 861.5,-758"/>
<text text-anchor="middle" x="776" y="-736.3" font-family="Helvetica,sans-Serif" font-size="14.00">PartyReferenceUpdate</text>
</g>
<!-- Codes&#45;&gt;PartyReferenceUpdate -->
<g id="edge33" class="edge">
<title>Codes&#45;&gt;PartyReferenceUpdate</title>
<path fill="none" stroke="black" d="M104.06,-668.5C227.57,-668.5 696,-668.5 696,-668.5 696,-668.5 696,-700.78 696,-721.96"/>
</g>
<!-- VehicleIdentifier -->
<g id="node33" class="node">
<title>VehicleIdentifier</title>
<polygon fill="white" stroke="black" points="840,-636 712,-636 712,-600 840,-600 840,-636"/>
<text text-anchor="middle" x="776" y="-614.3" font-family="Helvetica,sans-Serif" font-size="14.00">VehicleIdentifier</text>
</g>
<!-- Codes&#45;&gt;VehicleIdentifier -->
<g id="edge34" class="edge">
<title>Codes&#45;&gt;VehicleIdentifier</title>
<path fill="none" stroke="black" d="M104.19,-664C237.71,-664 776,-664 776,-664 776,-664 776,-649.04 776,-636.18"/>
</g>
<!-- VehicleIdentifierUpdate -->
<g id="node35" class="node">
<title>VehicleIdentifierUpdate</title>
<polygon fill="white" stroke="black" points="865.5,-582 686.5,-582 686.5,-546 865.5,-546 865.5,-582"/>
<text text-anchor="middle" x="776" y="-560.3" font-family="Helvetica,sans-Serif" font-size="14.00">VehicleIdentifierUpdate</text>
</g>
<!-- Codes&#45;&gt;VehicleIdentifierUpdate -->
<g id="edge35" class="edge">
<title>Codes&#45;&gt;VehicleIdentifierUpdate</title>
<path fill="none" stroke="black" d="M104.16,-659.5C229.21,-659.5 707,-659.5 707,-659.5 707,-659.5 707,-610.16 707,-582.41"/>
</g>
<!-- Communication -->
<g id="node17" class="node">
<title>Communication</title>
<polygon fill="white" stroke="black" points="570.5,-344 445.5,-344 445.5,-308 570.5,-308 570.5,-344"/>
<text text-anchor="middle" x="508" y="-322.3" font-family="Helvetica,sans-Serif" font-size="14.00">Communication</text>
</g>
<!-- Communication&#45;&gt;AppointmentCustomerSnapshot -->
<g id="edge36" class="edge">
<title>Communication&#45;&gt;AppointmentCustomerSnapshot</title>
<path fill="none" stroke="black" stroke-width="2" d="M570.83,-312C596.44,-312 626.93,-312 656.47,-312"/>
</g>
<!-- Communication&#45;&gt;AppointmentCustomerSnapshot -->
<g id="edge37" class="edge">
<title>Communication&#45;&gt;AppointmentCustomerSnapshot</title>
<path fill="none" stroke="black" d="M570.83,-316C596.44,-316 626.93,-316 656.47,-316"/>
</g>
<!-- ContactMethod -->
<g id="node18" class="node">
<title>ContactMethod</title>
<polygon fill="white" stroke="black" points="569,-290 447,-290 447,-254 569,-254 569,-290"/>
<text text-anchor="middle" x="508" y="-268.3" font-family="Helvetica,sans-Serif" font-size="14.00">ContactMethod</text>
</g>
<!-- ContactMethod&#45;&gt;AppointmentCustomerSnapshot -->
<g id="edge38" class="edge">
<title>ContactMethod&#45;&gt;AppointmentCustomerSnapshot</title>
<path fill="none" stroke="black" stroke-width="2" d="M488,-290.19C488,-296.8 488,-302.67 488,-302.67 488,-302.67 577.24,-302.67 656.36,-302.67"/>
</g>
<!-- ContactMethod&#45;&gt;AppointmentCustomerSnapshot -->
<g id="edge39" class="edge">
<title>ContactMethod&#45;&gt;AppointmentCustomerSnapshot</title>
<path fill="none" stroke="black" d="M529,-290.21C529,-295.55 529,-300 529,-300 529,-300 593.43,-300 656.48,-300"/>
</g>
<!-- EffectivePeriod&#45;&gt;PartyReference -->
<g id="edge42" class="edge">
<title>EffectivePeriod&#45;&gt;PartyReference</title>
<path fill="none" stroke="black" d="M342.08,-760C473.73,-760 776,-760 776,-760 776,-760 776,-782.27 776,-798.96"/>
</g>
<!-- EffectivePeriod&#45;&gt;PartyReferenceUpdate -->
<g id="edge43" class="edge">
<title>EffectivePeriod&#45;&gt;PartyReferenceUpdate</title>
<path fill="none" stroke="black" d="M342.08,-748.67C429.12,-748.67 590.73,-748.67 690.27,-748.67"/>
</g>
<!-- TimeSlot -->
<g id="node32" class="node">
<title>TimeSlot</title>
<polygon fill="white" stroke="black" points="546.5,-804 469.5,-804 469.5,-768 546.5,-768 546.5,-804"/>
<text text-anchor="middle" x="508" y="-782.3" font-family="Helvetica,sans-Serif" font-size="14.00">TimeSlot</text>
</g>
<!-- EffectivePeriod&#45;&gt;TimeSlot -->
<g id="edge44" class="edge">
<title>EffectivePeriod&#45;&gt;TimeSlot</title>
<path fill="none" stroke="black" d="M342.18,-764C405.48,-764 496,-764 496,-764 496,-764 496,-765.55 496,-767.83"/>
</g>
<!-- VehicleLicense -->
<g id="node36" class="node">
<title>VehicleLicense</title>
<polygon fill="white" stroke="black" points="566.5,-636 449.5,-636 449.5,-600 566.5,-600 566.5,-636"/>
<text text-anchor="middle" x="508" y="-614.3" font-family="Helvetica,sans-Serif" font-size="14.00">VehicleLicense</text>
</g>
<!-- EffectivePeriod&#45;&gt;VehicleLicense -->
<g id="edge45" class="edge">
<title>EffectivePeriod&#45;&gt;VehicleLicense</title>
<path fill="none" stroke="black" d="M342.26,-739.33C393.9,-739.33 460,-739.33 460,-739.33 460,-739.33 460,-670.01 460,-636.16"/>
</g>
<!-- EventMessage -->
<g id="node20" class="node">
<title>EventMessage</title>
<polygon fill="white" stroke="black" points="340.5,-988 223.5,-988 223.5,-952 340.5,-952 340.5,-988"/>
<text text-anchor="middle" x="282" y="-966.3" font-family="Helvetica,sans-Serif" font-size="14.00">EventMessage</text>
</g>
<!-- Identifier -->
<g id="node21" class="node">
<title>Identifier</title>
<polygon fill="white" stroke="black" points="548,-528 468,-528 468,-492 548,-492 548,-528"/>
<text text-anchor="middle" x="508" y="-506.3" font-family="Helvetica,sans-Serif" font-size="14.00">Identifier</text>
</g>
<!-- Identifier&#45;&gt;AppointmentCustomerSnapshot -->
<g id="edge46" class="edge">
<title>Identifier&#45;&gt;AppointmentCustomerSnapshot</title>
<path fill="none" stroke="black" stroke-width="2" d="M548.43,-496C567.86,-496 587,-496 587,-496 587,-496 587,-320 587,-320 587,-320 618.8,-320 656.3,-320"/>
</g>
<!-- Identifier&#45;&gt;AppointmentCustomerSnapshot -->
<g id="edge47" class="edge">
<title>Identifier&#45;&gt;AppointmentCustomerSnapshot</title>
<path fill="none" stroke="black" d="M548.03,-500C568.43,-500 589,-500 589,-500 589,-500 589,-324 589,-324 589,-324 619.71,-324 656.25,-324"/>
</g>
<!-- Identifier&#45;&gt;PartyReference -->
<g id="edge48" class="edge">
<title>Identifier&#45;&gt;PartyReference</title>
<path fill="none" stroke="black" d="M548.23,-516C566.46,-516 584,-516 584,-516 584,-516 584,-809.33 584,-809.33 584,-809.33 659,-809.33 715.25,-809.33"/>
</g>
<!-- Identifier&#45;&gt;PartyReferenceUpdate -->
<g id="edge49" class="edge">
<title>Identifier&#45;&gt;PartyReferenceUpdate</title>
<path fill="none" stroke="black" d="M548.37,-512C567.4,-512 586,-512 586,-512 586,-512 586,-726 586,-726 586,-726 640.02,-726 690.45,-726"/>
</g>
<!-- Identifier&#45;&gt;VehicleIdentifier -->
<g id="edge50" class="edge">
<title>Identifier&#45;&gt;VehicleIdentifier</title>
<path fill="none" stroke="black" stroke-width="2" d="M548.01,-508C570.06,-508 593,-508 593,-508 593,-508 593,-612 593,-612 593,-612 659.22,-612 712,-612"/>
</g>
<!-- Identifier&#45;&gt;VehicleIdentifier -->
<g id="edge51" class="edge">
<title>Identifier&#45;&gt;VehicleIdentifier</title>
<path fill="none" stroke="black" d="M548.19,-504C570.98,-504 595,-504 595,-504 595,-504 595,-606 595,-606 595,-606 659.86,-606 711.93,-606"/>
</g>
<!-- Identifier&#45;&gt;VehicleIdentifierUpdate -->
<g id="edge52" class="edge">
<title>Identifier&#45;&gt;VehicleIdentifierUpdate</title>
<path fill="none" stroke="black" stroke-width="2" d="M548.17,-524C555.56,-524 561,-524 561,-524 561,-524 561,-560.4 561,-560.4 561,-560.4 627.38,-560.4 686.38,-560.4"/>
</g>
<!-- Identifier&#45;&gt;VehicleIdentifierUpdate -->
<g id="edge53" class="edge">
<title>Identifier&#45;&gt;VehicleIdentifierUpdate</title>
<path fill="none" stroke="black" d="M548.1,-520C557.08,-520 564,-520 564,-520 564,-520 564,-553.2 564,-553.2 564,-553.2 628.54,-553.2 686.4,-553.2"/>
</g>
<!-- LaborOperationReference&#45;&gt;AppointmentLaborOperationSelection -->
<g id="edge54" class="edge">
<title>LaborOperationReference&#45;&gt;AppointmentLaborOperationSelection</title>
<path fill="none" stroke="black" d="M379.33,-305.33C487.46,-305.33 647,-305.33 647,-305.33 647,-305.33 647,-288.17 647,-274.09"/>
</g>
<!-- Memo -->
<g id="node23" class="node">
<title>Memo</title>
<polygon fill="white" stroke="black" points="104,-1015 45,-1015 45,-979 104,-979 104,-1015"/>
<text text-anchor="middle" x="74.5" y="-993.3" font-family="Helvetica,sans-Serif" font-size="14.00">Memo</text>
</g>
<!-- Memo&#45;&gt;EventMessage -->
<g id="edge55" class="edge">
<title>Memo&#45;&gt;EventMessage</title>
<path fill="none" stroke="black" d="M104.23,-983.5C135.16,-983.5 184.4,-983.5 223.22,-983.5"/>
</g>
<!-- MetricValue&#45;&gt;VehicleIdentifier -->
<g id="edge56" class="edge">
<title>MetricValue&#45;&gt;VehicleIdentifier</title>
<path fill="none" stroke="black" d="M556.86,-574.8C575.34,-574.8 592,-574.8 592,-574.8 592,-574.8 592,-618 592,-618 592,-618 658.8,-618 711.9,-618"/>
</g>
<!-- MetricValue&#45;&gt;VehicleIdentifierUpdate -->
<g id="edge57" class="edge">
<title>MetricValue&#45;&gt;VehicleIdentifierUpdate</title>
<path fill="none" stroke="black" d="M556.53,-567.6C592.66,-567.6 643.01,-567.6 686.37,-567.6"/>
</g>
<!-- Money -->
<g id="node25" class="node">
<title>Money</title>
<polygon fill="white" stroke="black" points="539,-90 477,-90 477,-54 539,-54 539,-90"/>
<text text-anchor="middle" x="508" y="-68.3" font-family="Helvetica,sans-Serif" font-size="14.00">Money</text>
</g>
<!-- Money&#45;&gt;AppointmentLaborOperationSelection -->
<g id="edge58" class="edge">
<title>Money&#45;&gt;AppointmentLaborOperationSelection</title>
<path fill="none" stroke="black" d="M539,-72C609.55,-72 776,-72 776,-72 776,-72 776,-191.14 776,-237.68"/>
</g>
<!-- Name -->
<g id="node26" class="node">
<title>Name</title>
<polygon fill="white" stroke="black" points="536.5,-236 479.5,-236 479.5,-200 536.5,-200 536.5,-236"/>
<text text-anchor="middle" x="508" y="-214.3" font-family="Helvetica,sans-Serif" font-size="14.00">Name</text>
</g>
<!-- Name&#45;&gt;AppointmentCustomerSnapshot -->
<g id="edge59" class="edge">
<title>Name&#45;&gt;AppointmentCustomerSnapshot</title>
<path fill="none" stroke="black" d="M536.68,-218C560.33,-218 590,-218 590,-218 590,-218 590,-294.67 590,-294.67 590,-294.67 620.26,-294.67 656.36,-294.67"/>
</g>
<!-- PartyReference&#45;&gt;AppointmentCreate -->
<g id="edge61" class="edge">
<title>PartyReference&#45;&gt;AppointmentCreate</title>
<path fill="none" stroke="black" d="M836.67,-809.29C868.52,-809.29 901,-809.29 901,-809.29 901,-809.29 901,-324 901,-324 901,-324 930,-324 961.27,-324"/>
</g>
<!-- PartyReference&#45;&gt;AppointmentUpdate -->
<g id="edge62" class="edge">
<title>PartyReference&#45;&gt;AppointmentUpdate</title>
<path fill="none" stroke="black" d="M836.65,-814.43C884.77,-814.43 944,-814.43 944,-814.43 944,-814.43 944,-268 944,-268 944,-268 949.84,-268 958.61,-268"/>
</g>
<!-- PartyReference&#45;&gt;AppointmentView -->
<g id="edge63" class="edge">
<title>PartyReference&#45;&gt;AppointmentView</title>
<path fill="none" stroke="black" d="M836.77,-804.14C860,-804.14 881,-804.14 881,-804.14 881,-804.14 881,-425 881,-425 881,-425 926.15,-425 967.95,-425"/>
</g>
<!-- PartyReferenceCreate -->
<g id="node28" class="node">
<title>PartyReferenceCreate</title>
<polygon fill="white" stroke="black" points="1120.5,-889 954.5,-889 954.5,-853 1120.5,-853 1120.5,-889"/>
<text text-anchor="middle" x="1037.5" y="-867.3" font-family="Helvetica,sans-Serif" font-size="14.00">PartyReferenceCreate</text>
</g>
<!-- PartyReference&#45;&gt;PartyReferenceCreate -->
<g id="edge64" class="edge">
<title>PartyReference&#45;&gt;PartyReferenceCreate</title>
<path fill="none" stroke="black" d="M836.52,-829.86C891.48,-829.86 964,-829.86 964,-829.86 964,-829.86 964,-841.81 964,-852.83"/>
</g>
<!-- PartyReferences -->
<g id="node30" class="node">
<title>PartyReferences</title>
<polygon fill="white" stroke="black" points="1101.5,-835 973.5,-835 973.5,-799 1101.5,-799 1101.5,-835"/>
<text text-anchor="middle" x="1037.5" y="-813.3" font-family="Helvetica,sans-Serif" font-size="14.00">PartyReferences</text>
</g>
<!-- PartyReference&#45;&gt;PartyReferences -->
<g id="edge65" class="edge">
<title>PartyReference&#45;&gt;PartyReferences</title>
<path fill="none" stroke="black" stroke-width="2" d="M836.65,-819.57C877.54,-819.57 931.41,-819.57 973.07,-819.57"/>
</g>
<!-- PartyReference&#45;&gt;PartyReferences -->
<g id="edge66" class="edge">
<title>PartyReference&#45;&gt;PartyReferences</title>
<path fill="none" stroke="black" d="M836.65,-824.71C877.54,-824.71 931.41,-824.71 973.07,-824.71"/>
</g>
<!-- Preferences -->
<g id="node31" class="node">
<title>Preferences</title>
<polygon fill="white" stroke="black" points="557,-398 459,-398 459,-362 557,-362 557,-398"/>
<text text-anchor="middle" x="508" y="-376.3" font-family="Helvetica,sans-Serif" font-size="14.00">Preferences</text>
</g>
<!-- Preferences&#45;&gt;AppointmentTransportSelection -->
<g id="edge71" class="edge">
<title>Preferences&#45;&gt;AppointmentTransportSelection</title>
<path fill="none" stroke="black" d="M557.16,-372C585.49,-372 622.42,-372 657.85,-372"/>
</g>
<!-- TimeSlot&#45;&gt;EffectivePeriod -->
<g id="edge73" class="edge">
<title>TimeSlot&#45;&gt;EffectivePeriod</title>
<path fill="none" stroke="black" d="M521,-767.81C521,-764.46 521,-762 521,-762 521,-762 412.8,-762 342,-762"/>
</g>
<!-- VehicleIdentifier&#45;&gt;AppointmentCreate -->
<g id="edge76" class="edge">
<title>VehicleIdentifier&#45;&gt;AppointmentCreate</title>
<path fill="none" stroke="black" d="M840.22,-618C869.61,-618 898,-618 898,-618 898,-618 898,-320 898,-320 898,-320 928.65,-320 961.22,-320"/>
</g>
<!-- VehicleIdentifier&#45;&gt;AppointmentView -->
<g id="edge77" class="edge">
<title>VehicleIdentifier&#45;&gt;AppointmentView</title>
<path fill="none" stroke="black" d="M840.27,-609C858.75,-609 874,-609 874,-609 874,-609 874,-422 874,-422 874,-422 923.25,-422 967.69,-422"/>
</g>
<!-- VehicleIdentifierCreate -->
<g id="node34" class="node">
<title>VehicleIdentifierCreate</title>
<polygon fill="white" stroke="black" points="1124,-636 951,-636 951,-600 1124,-600 1124,-636"/>
<text text-anchor="middle" x="1037.5" y="-614.3" font-family="Helvetica,sans-Serif" font-size="14.00">VehicleIdentifierCreate</text>
</g>
<!-- VehicleIdentifier&#45;&gt;VehicleIdentifierCreate -->
<g id="edge78" class="edge">
<title>VehicleIdentifier&#45;&gt;VehicleIdentifierCreate</title>
<path fill="none" stroke="black" d="M840.31,-627C873.57,-627 914.66,-627 950.71,-627"/>
</g>
<!-- VehicleLicense&#45;&gt;VehicleIdentifier -->
<g id="edge79" class="edge">
<title>VehicleLicense&#45;&gt;VehicleIdentifier</title>
<path fill="none" stroke="black" d="M566.81,-630C609.65,-630 667.64,-630 711.7,-630"/>
</g>
<!-- VehicleLicense&#45;&gt;VehicleIdentifierUpdate -->
<g id="edge80" class="edge">
<title>VehicleLicense&#45;&gt;VehicleIdentifierUpdate</title>
<path fill="none" stroke="black" d="M566.73,-624C623.83,-624 702,-624 702,-624 702,-624 702,-599.68 702,-582"/>
</g>
<!-- AddressTypes -->
<g id="node37" class="node">
<title>AddressTypes</title>
<polygon fill="#faff91" stroke="black" points="130,-63 19,-63 19,-27 130,-27 130,-63"/>
<text text-anchor="middle" x="74.5" y="-41.3" font-family="Helvetica,sans-Serif" font-size="14.00">AddressTypes</text>
</g>
<!-- AddressTypes&#45;&gt;AddressReference -->
<g id="edge8" class="edge">
<title>AddressTypes&#45;&gt;AddressReference</title>
<path fill="none" stroke="black" stroke-width="2" d="M130.11,-57C155.08,-57 184.83,-57 211.35,-57"/>
</g>
<!-- AddressTypes&#45;&gt;AddressReference -->
<g id="edge9" class="edge">
<title>AddressTypes&#45;&gt;AddressReference</title>
<path fill="none" stroke="black" d="M130.11,-60C155.08,-60 184.83,-60 211.35,-60"/>
</g>
<!-- AddressTypes&#45;&gt;AddressReferenceUpdate -->
<g id="edge10" class="edge">
<title>AddressTypes&#45;&gt;AddressReferenceUpdate</title>
<path fill="none" stroke="black" stroke-width="2" d="M130.11,-30C147.39,-30 166.97,-30 186.18,-30"/>
</g>
<!-- AddressTypes&#45;&gt;AddressReferenceUpdate -->
<g id="edge11" class="edge">
<title>AddressTypes&#45;&gt;AddressReferenceUpdate</title>
<path fill="none" stroke="black" d="M130.11,-33C147.39,-33 166.97,-33 186.18,-33"/>
</g>
<!-- DaysOfWeekTypes -->
<g id="node38" class="node">
<title>DaysOfWeekTypes</title>
<polygon fill="#faff91" stroke="black" points="354,-820 210,-820 210,-784 354,-784 354,-820"/>
<text text-anchor="middle" x="282" y="-798.3" font-family="Helvetica,sans-Serif" font-size="14.00">DaysOfWeekTypes</text>
</g>
<!-- DaysOfWeekTypes&#45;&gt;TimeSlot -->
<g id="edge40" class="edge">
<title>DaysOfWeekTypes&#45;&gt;TimeSlot</title>
<path fill="none" stroke="black" d="M354.13,-789C392.37,-789 437.82,-789 469.37,-789"/>
</g>
<!-- DurationUOMTypes -->
<g id="node39" class="node">
<title>DurationUOMTypes</title>
<polygon fill="#faff91" stroke="black" points="149,-766 0,-766 0,-730 149,-730 149,-766"/>
<text text-anchor="middle" x="74.5" y="-744.3" font-family="Helvetica,sans-Serif" font-size="14.00">DurationUOMTypes</text>
</g>
<!-- DurationUOMTypes&#45;&gt;EffectivePeriod -->
<g id="edge41" class="edge">
<title>DurationUOMTypes&#45;&gt;EffectivePeriod</title>
<path fill="none" stroke="black" d="M149.12,-748C173.05,-748 199.24,-748 221.99,-748"/>
</g>
<!-- NarrativeUomTypes -->
<g id="node40" class="node">
<title>NarrativeUomTypes</title>
<polygon fill="#faff91" stroke="black" points="358,-582 206,-582 206,-546 358,-546 358,-582"/>
<text text-anchor="middle" x="282" y="-560.3" font-family="Helvetica,sans-Serif" font-size="14.00">NarrativeUomTypes</text>
</g>
<!-- NarrativeUomTypes&#45;&gt;MetricValue -->
<g id="edge60" class="edge">
<title>NarrativeUomTypes&#45;&gt;MetricValue</title>
<path fill="none" stroke="black" d="M358.2,-558C391.64,-558 429.92,-558 459.41,-558"/>
</g>
<!-- PartyRelationshipTypes -->
<g id="node41" class="node">
<title>PartyRelationshipTypes</title>
<polygon fill="#faff91" stroke="black" points="596,-858 420,-858 420,-822 596,-822 596,-858"/>
<text text-anchor="middle" x="508" y="-836.3" font-family="Helvetica,sans-Serif" font-size="14.00">PartyRelationshipTypes</text>
</g>
<!-- PartyRelationshipTypes&#45;&gt;PartyReference -->
<g id="edge67" class="edge">
<title>PartyRelationshipTypes&#45;&gt;PartyReference</title>
<path fill="none" stroke="black" stroke-width="2" d="M596.12,-829.8C635.18,-829.8 680.15,-829.8 715.35,-829.8"/>
</g>
<!-- PartyRelationshipTypes&#45;&gt;PartyReference -->
<g id="edge68" class="edge">
<title>PartyRelationshipTypes&#45;&gt;PartyReference</title>
<path fill="none" stroke="black" d="M596.12,-832.4C635.18,-832.4 680.15,-832.4 715.35,-832.4"/>
</g>
<!-- PartyRelationshipTypes&#45;&gt;PartyReferenceUpdate -->
<g id="edge69" class="edge">
<title>PartyRelationshipTypes&#45;&gt;PartyReferenceUpdate</title>
<path fill="none" stroke="black" stroke-width="2" d="M596.23,-824.6C646.28,-824.6 699,-824.6 699,-824.6 699,-824.6 699,-783.24 699,-758.36"/>
</g>
<!-- PartyRelationshipTypes&#45;&gt;PartyReferenceUpdate -->
<g id="edge70" class="edge">
<title>PartyRelationshipTypes&#45;&gt;PartyReferenceUpdate</title>
<path fill="none" stroke="black" d="M596.01,-827.2C649.67,-827.2 708,-827.2 708,-827.2 708,-827.2 708,-783.61 708,-758.07"/>
</g>
<!-- RoleTypes -->
<g id="node42" class="node">
<title>RoleTypes</title>
<polygon fill="#faff91" stroke="black" points="117,-961 32,-961 32,-925 117,-925 117,-961"/>
<text text-anchor="middle" x="74.5" y="-939.3" font-family="Helvetica,sans-Serif" font-size="14.00">RoleTypes</text>
</g>
<!-- RoleTypes&#45;&gt;EventMessage -->
<g id="edge72" class="edge">
<title>RoleTypes&#45;&gt;EventMessage</title>
<path fill="none" stroke="black" d="M117.24,-956.5C147.85,-956.5 189.45,-956.5 223.19,-956.5"/>
</g>
<!-- TimeslotDirectiveTypes -->
<g id="node43" class="node">
<title>TimeslotDirectiveTypes</title>
<polygon fill="#faff91" stroke="black" points="369.5,-874 194.5,-874 194.5,-838 369.5,-838 369.5,-874"/>
<text text-anchor="middle" x="282" y="-852.3" font-family="Helvetica,sans-Serif" font-size="14.00">TimeslotDirectiveTypes</text>
</g>
<!-- TimeslotDirectiveTypes&#45;&gt;TimeSlot -->
<g id="edge74" class="edge">
<title>TimeslotDirectiveTypes&#45;&gt;TimeSlot</title>
<path fill="none" stroke="black" stroke-width="2" d="M365,-837.73C365,-819.44 365,-794 365,-794 365,-794 426.95,-794 469.3,-794"/>
</g>
<!-- TimeslotDirectiveTypes&#45;&gt;TimeSlot -->
<g id="edge75" class="edge">
<title>TimeslotDirectiveTypes&#45;&gt;TimeSlot</title>
<path fill="none" stroke="black" d="M368,-837.96C368,-821.27 368,-799 368,-799 368,-799 427.93,-799 469.37,-799"/>
</g>
</g>
</svg>
