<?xml version="1.0" encoding="us-ascii" standalone="no"?><svg xmlns="http://www.w3.org/2000/svg" xmlns:xlink="http://www.w3.org/1999/xlink" contentStyleType="text/css" height="628px" preserveAspectRatio="none" style="width:3463px;height:628px;background:#FFFFFF;" version="1.1" viewBox="0 0 3463 628" width="3463px" zoomAndPan="magnify"><defs/><g><g id="elem_AddressReference"><rect fill="#F1F1F1" height="36.4883" rx="2.5" ry="2.5" style="stroke:#181818;stroke-width:0.5;" width="144" x="1560" y="103.49"/><text fill="#000000" font-family="sans-serif" font-size="14" lengthAdjust="spacing" textLength="124" x="1570" y="127.0252">AddressReference</text></g><g id="elem_AppointmentReference"><rect fill="#F1F1F1" height="36.4883" rx="2.5" ry="2.5" style="stroke:#181818;stroke-width:0.5;" width="178" x="238" y="199.98"/><text fill="#000000" font-family="sans-serif" font-size="14" lengthAdjust="spacing" textLength="158" x="248" y="223.5152">AppointmentReference</text></g><g id="elem_BillOfMaterialReference"><rect fill="#F1F1F1" height="36.4883" rx="2.5" ry="2.5" style="stroke:#181818;stroke-width:0.5;" width="179" x="2483.5" y="199.98"/><text fill="#000000" font-family="sans-serif" font-size="14" lengthAdjust="spacing" textLength="159" x="2493.5" y="223.5152">BillOfMaterialReference</text></g><g id="elem_EffectivePeriod"><rect fill="#F1F1F1" height="36.4883" rx="2.5" ry="2.5" style="stroke:#181818;stroke-width:0.5;" width="121" x="1305.5" y="103.49"/><text fill="#000000" font-family="sans-serif" font-size="14" lengthAdjust="spacing" textLength="101" x="1315.5" y="127.0252">EffectivePeriod</text></g><g id="elem_FinancialSplitReference"><rect fill="#F1F1F1" height="36.4883" rx="2.5" ry="2.5" style="stroke:#181818;stroke-width:0.5;" width="179" x="2556.5" y="103.49"/><text fill="#000000" font-family="sans-serif" font-size="14" lengthAdjust="spacing" textLength="159" x="2566.5" y="127.0252">FinancialSplitReference</text></g><g id="elem_Identifier"><rect fill="#F1F1F1" height="36.4883" rx="2.5" ry="2.5" style="stroke:#181818;stroke-width:0.5;" width="82" x="2392" y="7"/><text fill="#000000" font-family="sans-serif" font-size="14" lengthAdjust="spacing" textLength="62" x="2402" y="30.5352">Identifier</text></g><g id="elem_Inspection"><rect fill="#F1F1F1" height="36.4883" rx="2.5" ry="2.5" style="stroke:#181818;stroke-width:0.5;" width="91" x="1943.5" y="392.96"/><text fill="#000000" font-family="sans-serif" font-size="14" lengthAdjust="spacing" textLength="71" x="1953.5" y="416.4952">Inspection</text></g><g id="elem_LaborOperation"><rect fill="#F1F1F1" height="36.4883" rx="2.5" ry="2.5" style="stroke:#181818;stroke-width:0.5;" width="128" x="2367" y="489.44"/><text fill="#000000" font-family="sans-serif" font-size="14" lengthAdjust="spacing" textLength="108" x="2377" y="512.9752">LaborOperation</text></g><g id="elem_LaborOperationEvent"><rect fill="#F1F1F1" height="36.4883" rx="2.5" ry="2.5" style="stroke:#181818;stroke-width:0.5;" width="165" x="2212.5" y="392.96"/><text fill="#000000" font-family="sans-serif" font-size="14" lengthAdjust="spacing" textLength="145" x="2222.5" y="416.4952">LaborOperationEvent</text></g><g id="elem_LaborResource"><rect fill="#F1F1F1" height="36.4883" rx="2.5" ry="2.5" style="stroke:#181818;stroke-width:0.5;" width="122" x="3121" y="392.96"/><text fill="#000000" font-family="sans-serif" font-size="14" lengthAdjust="spacing" textLength="102" x="3131" y="416.4952">LaborResource</text></g><g id="elem_Locale"><rect fill="#F1F1F1" height="36.4883" rx="2.5" ry="2.5" style="stroke:#181818;stroke-width:0.5;" width="63" x="1461.5" y="103.49"/><text fill="#000000" font-family="sans-serif" font-size="14" lengthAdjust="spacing" textLength="43" x="1471.5" y="127.0252">Locale</text></g><g id="elem_Manifest"><rect fill="#F1F1F1" height="36.4883" rx="2.5" ry="2.5" style="stroke:#181818;stroke-width:0.5;" width="78" x="2530" y="489.44"/><text fill="#000000" font-family="sans-serif" font-size="14" lengthAdjust="spacing" textLength="58" x="2540" y="512.9752">Manifest</text></g><g id="elem_ManifestItem"><rect fill="#F1F1F1" height="36.4883" rx="2.5" ry="2.5" style="stroke:#181818;stroke-width:0.5;" width="108" x="3349" y="392.96"/><text fill="#000000" font-family="sans-serif" font-size="14" lengthAdjust="spacing" textLength="88" x="3359" y="416.4952">ManifestItem</text></g><g id="elem_Media"><rect fill="#F1F1F1" height="36.4883" rx="2.5" ry="2.5" style="stroke:#181818;stroke-width:0.5;" width="61" x="1192.5" y="296.47"/><text fill="#000000" font-family="sans-serif" font-size="14" lengthAdjust="spacing" textLength="41" x="1202.5" y="320.0052">Media</text></g><g id="elem_MediaAccessMetric"><rect fill="#F1F1F1" height="36.4883" rx="2.5" ry="2.5" style="stroke:#181818;stroke-width:0.5;" width="149" x="702.5" y="199.98"/><text fill="#000000" font-family="sans-serif" font-size="14" lengthAdjust="spacing" textLength="129" x="712.5" y="223.5152">MediaAccessMetric</text></g><g id="elem_MetricValue"><rect fill="#F1F1F1" height="36.4883" rx="2.5" ry="2.5" style="stroke:#181818;stroke-width:0.5;" width="100" x="1185" y="392.96"/><text fill="#000000" font-family="sans-serif" font-size="14" lengthAdjust="spacing" textLength="80" x="1195" y="416.4952">MetricValue</text></g><g id="elem_Money"><rect fill="#F1F1F1" height="36.4883" rx="2.5" ry="2.5" style="stroke:#181818;stroke-width:0.5;" width="65" x="2949.5" y="392.96"/><text fill="#000000" font-family="sans-serif" font-size="14" lengthAdjust="spacing" textLength="45" x="2959.5" y="416.4952">Money</text></g><g id="elem_MultiPointInspection"><rect fill="#F1F1F1" height="36.4883" rx="2.5" ry="2.5" style="stroke:#181818;stroke-width:0.5;" width="160" x="1052" y="585.93"/><text fill="#000000" font-family="sans-serif" font-size="14" lengthAdjust="spacing" textLength="140" x="1062" y="609.4652">MultiPointInspection</text></g><g id="elem_PartyReference"><rect fill="#F1F1F1" height="36.4883" rx="2.5" ry="2.5" style="stroke:#181818;stroke-width:0.5;" width="122" x="1840" y="199.98"/><text fill="#000000" font-family="sans-serif" font-size="14" lengthAdjust="spacing" textLength="102" x="1850" y="223.5152">PartyReference</text></g><g id="elem_PricePlanReference"><rect fill="#F1F1F1" height="36.4883" rx="2.5" ry="2.5" style="stroke:#181818;stroke-width:0.5;" width="150" x="2841" y="199.98"/><text fill="#000000" font-family="sans-serif" font-size="14" lengthAdjust="spacing" textLength="130" x="2851" y="223.5152">PricePlanReference</text></g><g id="elem_StaffAssignmentReference"><rect fill="#F1F1F1" height="36.4883" rx="2.5" ry="2.5" style="stroke:#181818;stroke-width:0.5;" width="200" x="2249" y="296.47"/><text fill="#000000" font-family="sans-serif" font-size="14" lengthAdjust="spacing" textLength="180" x="2259" y="320.0052">StaffAssignmentReference</text></g><g id="elem_TextualDetail"><rect fill="#F1F1F1" height="36.4883" rx="2.5" ry="2.5" style="stroke:#181818;stroke-width:0.5;" width="111" x="2758.5" y="296.47"/><text fill="#000000" font-family="sans-serif" font-size="14" lengthAdjust="spacing" textLength="91" x="2768.5" y="320.0052">TextualDetail</text></g><g id="elem_TimeSlot"><rect fill="#F1F1F1" height="36.4883" rx="2.5" ry="2.5" style="stroke:#181818;stroke-width:0.5;" width="80" x="2129" y="199.98"/><text fill="#000000" font-family="sans-serif" font-size="14" lengthAdjust="spacing" textLength="60" x="2139" y="223.5152">TimeSlot</text></g><g id="elem_VehicleIdentifier"><rect fill="#F1F1F1" height="36.4883" rx="2.5" ry="2.5" style="stroke:#181818;stroke-width:0.5;" width="131" x="791.5" y="489.44"/><text fill="#000000" font-family="sans-serif" font-size="14" lengthAdjust="spacing" textLength="111" x="801.5" y="512.9752">VehicleIdentifier</text></g><g id="elem_VehicleLicense"><rect fill="#F1F1F1" height="36.4883" rx="2.5" ry="2.5" style="stroke:#181818;stroke-width:0.5;" width="119" x="800.5" y="296.47"/><text fill="#000000" font-family="sans-serif" font-size="14" lengthAdjust="spacing" textLength="99" x="810.5" y="320.0052">VehicleLicense</text></g><g id="elem_AddressTypes"><rect fill="#FAFF91" height="36.4883" rx="2.5" ry="2.5" style="stroke:#181818;stroke-width:0.5;" width="116" x="1574" y="7"/><text fill="#000000" font-family="sans-serif" font-size="14" lengthAdjust="spacing" textLength="96" x="1584" y="30.5352">AddressTypes</text></g><g id="elem_AppointmentStatusTypes"><rect fill="#FAFF91" height="36.4883" rx="2.5" ry="2.5" style="stroke:#181818;stroke-width:0.5;" width="192" x="192" y="103.49"/><text fill="#000000" font-family="sans-serif" font-size="14" lengthAdjust="spacing" textLength="172" x="202" y="127.0252">AppointmentStatusTypes</text></g><g id="elem_AppointmentTypes"><rect fill="#FAFF91" height="36.4883" rx="2.5" ry="2.5" style="stroke:#181818;stroke-width:0.5;" width="150" x="7" y="103.49"/><text fill="#000000" font-family="sans-serif" font-size="14" lengthAdjust="spacing" textLength="130" x="17" y="127.0252">AppointmentTypes</text></g><g id="elem_DaysOfWeekTypes"><rect fill="#FAFF91" height="36.4883" rx="2.5" ry="2.5" style="stroke:#181818;stroke-width:0.5;" width="144" x="2236" y="103.49"/><text fill="#000000" font-family="sans-serif" font-size="14" lengthAdjust="spacing" textLength="124" x="2246" y="127.0252">DaysOfWeekTypes</text></g><g id="elem_DeviceTypes"><rect fill="#FAFF91" height="36.4883" rx="2.5" ry="2.5" style="stroke:#181818;stroke-width:0.5;" width="104" x="725" y="103.49"/><text fill="#000000" font-family="sans-serif" font-size="14" lengthAdjust="spacing" textLength="84" x="735" y="127.0252">DeviceTypes</text></g><g id="elem_DurationUOMTypes"><rect fill="#FAFF91" height="36.4883" rx="2.5" ry="2.5" style="stroke:#181818;stroke-width:0.5;" width="153" x="1289.5" y="7"/><text fill="#000000" font-family="sans-serif" font-size="14" lengthAdjust="spacing" textLength="133" x="1299.5" y="30.5352">DurationUOMTypes</text></g><g id="elem_LaborLocationTypes"><rect fill="#FAFF91" height="36.4883" rx="2.5" ry="2.5" style="stroke:#181818;stroke-width:0.5;" width="157" x="1548.5" y="392.96"/><text fill="#000000" font-family="sans-serif" font-size="14" lengthAdjust="spacing" textLength="137" x="1558.5" y="416.4952">LaborLocationTypes</text></g><g id="elem_LaborOperationStatusTypes"><rect fill="#FAFF91" height="36.4883" rx="2.5" ry="2.5" style="stroke:#181818;stroke-width:0.5;" width="210" x="2004" y="296.47"/><text fill="#000000" font-family="sans-serif" font-size="14" lengthAdjust="spacing" textLength="190" x="2014" y="320.0052">LaborOperationStatusTypes</text></g><g id="elem_LaborOperationTypes"><rect fill="#FAFF91" height="36.4883" rx="2.5" ry="2.5" style="stroke:#181818;stroke-width:0.5;" width="168" x="1741" y="392.96"/><text fill="#000000" font-family="sans-serif" font-size="14" lengthAdjust="spacing" textLength="148" x="1751" y="416.4952">LaborOperationTypes</text></g><g id="elem_LaborResourceTypes"><rect fill="#FAFF91" height="36.4883" rx="2.5" ry="2.5" style="stroke:#181818;stroke-width:0.5;" width="162" x="3081" y="296.47"/><text fill="#000000" font-family="sans-serif" font-size="14" lengthAdjust="spacing" textLength="142" x="3091" y="320.0052">LaborResourceTypes</text></g><g id="elem_MediaDeliveryMethodTypes"><rect fill="#FAFF91" height="36.4883" rx="2.5" ry="2.5" style="stroke:#181818;stroke-width:0.5;" width="207" x="1526.5" y="199.98"/><text fill="#000000" font-family="sans-serif" font-size="14" lengthAdjust="spacing" textLength="187" x="1536.5" y="223.5152">MediaDeliveryMethodTypes</text></g><g id="elem_MediaFormatTypes"><rect fill="#FAFF91" height="36.4883" rx="2.5" ry="2.5" style="stroke:#181818;stroke-width:0.5;" width="150" x="1028" y="199.98"/><text fill="#000000" font-family="sans-serif" font-size="14" lengthAdjust="spacing" textLength="130" x="1038" y="223.5152">MediaFormatTypes</text></g><g id="elem_MediaTypes"><rect fill="#FAFF91" height="36.4883" rx="2.5" ry="2.5" style="stroke:#181818;stroke-width:0.5;" width="101" x="1212.5" y="199.98"/><text fill="#000000" font-family="sans-serif" font-size="14" lengthAdjust="spacing" textLength="81" x="1222.5" y="223.5152">MediaTypes</text></g><g id="elem_MediaUsageTypes"><rect fill="#FAFF91" height="36.4883" rx="2.5" ry="2.5" style="stroke:#181818;stroke-width:0.5;" width="143" x="1348.5" y="199.98"/><text fill="#000000" font-family="sans-serif" font-size="14" lengthAdjust="spacing" textLength="123" x="1358.5" y="223.5152">MediaUsageTypes</text></g><g id="elem_NarrativeUomTypes"><rect fill="#FAFF91" height="36.4883" rx="2.5" ry="2.5" style="stroke:#181818;stroke-width:0.5;" width="154" x="1288" y="296.47"/><text fill="#000000" font-family="sans-serif" font-size="14" lengthAdjust="spacing" textLength="134" x="1298" y="320.0052">NarrativeUomTypes</text></g><g id="elem_PartyRelationshipTypes"><rect fill="#FAFF91" height="36.4883" rx="2.5" ry="2.5" style="stroke:#181818;stroke-width:0.5;" width="179" x="1809.5" y="103.49"/><text fill="#000000" font-family="sans-serif" font-size="14" lengthAdjust="spacing" textLength="159" x="1819.5" y="127.0252">PartyRelationshipTypes</text></g><g id="elem_PayTypes"><rect fill="#FAFF91" height="36.4883" rx="2.5" ry="2.5" style="stroke:#181818;stroke-width:0.5;" width="83" x="2697.5" y="392.96"/><text fill="#000000" font-family="sans-serif" font-size="14" lengthAdjust="spacing" textLength="63" x="2707.5" y="416.4952">PayTypes</text></g><g id="elem_PayeeTypes"><rect fill="#FAFF91" height="36.4883" rx="2.5" ry="2.5" style="stroke:#181818;stroke-width:0.5;" width="99" x="2815.5" y="392.96"/><text fill="#000000" font-family="sans-serif" font-size="14" lengthAdjust="spacing" textLength="79" x="2825.5" y="416.4952">PayeeTypes</text></g><g id="elem_RepairStatusTypes"><rect fill="#FAFF91" height="36.4883" rx="2.5" ry="2.5" style="stroke:#181818;stroke-width:0.5;" width="146" x="2643" y="489.44"/><text fill="#000000" font-family="sans-serif" font-size="14" lengthAdjust="spacing" textLength="126" x="2653" y="512.9752">RepairStatusTypes</text></g><g id="elem_RoleTypes"><rect fill="#FAFF91" height="36.4883" rx="2.5" ry="2.5" style="stroke:#181818;stroke-width:0.5;" width="90" x="2004" y="199.98"/><text fill="#000000" font-family="sans-serif" font-size="14" lengthAdjust="spacing" textLength="70" x="2014" y="223.5152">RoleTypes</text></g><g id="elem_ServiceJobTypes"><rect fill="#FAFF91" height="36.4883" rx="2.5" ry="2.5" style="stroke:#181818;stroke-width:0.5;" width="130" x="2318" y="199.98"/><text fill="#000000" font-family="sans-serif" font-size="14" lengthAdjust="spacing" textLength="110" x="2328" y="223.5152">ServiceJobTypes</text></g><g id="elem_TimeslotDirectiveTypes"><rect fill="#FAFF91" height="36.4883" rx="2.5" ry="2.5" style="stroke:#181818;stroke-width:0.5;" width="178" x="2023" y="103.49"/><text fill="#000000" font-family="sans-serif" font-size="14" lengthAdjust="spacing" textLength="158" x="2033" y="127.0252">TimeslotDirectiveTypes</text></g><g id="link_AddressReference_PartyReference"><path d="M1693.6017,144.3773 C1741.6517,161.2573 1802.39,182.58 1850.51,199.49 " fill="none" id="AddressReference-backto-PartyReference" style="stroke:#181818;stroke-width:1.0;"/><polygon fill="#181818" points="1682.28,140.4,1686.6151,146.1626,1693.6017,144.3773,1689.2666,138.6148,1682.28,140.4" style="stroke:#181818;stroke-width:1.0;"/></g><g id="link_AddressTypes_AddressReference"><path d="M1632,55.58 C1632,72.52 1632,86.18 1632,103.19 " fill="none" id="AddressTypes-backto-AddressReference" style="stroke:#181818;stroke-width:1.0;"/><polygon fill="#181818" points="1632,43.58,1628,49.58,1632,55.58,1636,49.58,1632,43.58" style="stroke:#181818;stroke-width:1.0;"/></g><g id="link_AppointmentReference_MultiPointInspection"><path d="M332.1937,248.654 C342.2937,302.464 378.37,453.41 482,525.93 C572.26,589.09 898.61,600.89 1051.69,602.9 " fill="none" id="AppointmentReference-backto-MultiPointInspection" style="stroke:#181818;stroke-width:1.0;"/><polygon fill="#181818" points="329.98,236.86,327.1555,243.4949,332.1937,248.654,335.0182,242.0191,329.98,236.86" style="stroke:#181818;stroke-width:1.0;"/></g><g id="link_AppointmentStatusTypes_AppointmentReference"><path d="M295.15,140.06 C302.15,157.01 312.74,182.67 319.76,199.68 " fill="none" id="AppointmentStatusTypes-AppointmentReference" style="stroke:#181818;stroke-width:1.0;"/></g><g id="link_AppointmentTypes_AppointmentReference"><path d="M128.3671,145.039 C168.6371,161.919 223.18,182.58 270.5,199.49 " fill="none" id="AppointmentTypes-backto-AppointmentReference" style="stroke:#181818;stroke-width:1.0;"/><polygon fill="#181818" points="117.3,140.4,121.2872,146.4085,128.3671,145.039,124.3799,139.0305,117.3,140.4" style="stroke:#181818;stroke-width:1.0;"/></g><g id="link_AppointmentTypes_AppointmentReference"><path d="M138.29,140.4 C185.56,157.28 251.18,182.58 291.53,199.49 " fill="none" id="AppointmentTypes-AppointmentReference" style="stroke:#181818;stroke-width:1.0;"/></g><g id="link_BillOfMaterialReference_LaborOperation"><path d="M2565.6395,248.3236 C2555.9695,285.5036 2533.44,362.86 2495,429.44 C2482.11,451.77 2462.74,474.09 2448.68,488.96 " fill="none" id="BillOfMaterialReference-backto-LaborOperation" style="stroke:#181818;stroke-width:1.0;"/><polygon fill="#181818" points="2568.66,236.71,2563.2785,241.51,2565.6395,248.3236,2571.0209,243.5237,2568.66,236.71" style="stroke:#181818;stroke-width:1.0;"/></g><g id="link_DaysOfWeekTypes_TimeSlot"><path d="M2282.18,140.29 C2257.21,157.26 2219.6,182.83 2194.68,199.77 " fill="none" id="DaysOfWeekTypes-TimeSlot" style="stroke:#181818;stroke-width:1.0;"/></g><g id="link_DeviceTypes_MediaAccessMetric"><path d="M777,140.06 C777,157.01 777,182.67 777,199.68 " fill="none" id="DeviceTypes-MediaAccessMetric" style="stroke:#181818;stroke-width:1.0;"/></g><g id="link_DurationUOMTypes_EffectivePeriod"><path d="M1366,43.58 C1366,60.52 1366,86.18 1366,103.19 " fill="none" id="DurationUOMTypes-EffectivePeriod" style="stroke:#181818;stroke-width:1.0;"/></g><g id="link_EffectivePeriod_AppointmentReference"><path d="M1305.27,128.26 C1130.02,144.19 622.83,190.32 416.2,209.11 " fill="none" id="EffectivePeriod-AppointmentReference" style="stroke:#181818;stroke-width:1.0;"/></g><g id="link_EffectivePeriod_LaborOperation"><path d="M1426.86,136.34 C1432.65,137.59 1438.43,138.82 1444,139.98 C1580.11,168.32 1662.62,92.66 1751,199.98 C1840.81,309.04 1435.46,325.36 1531,429.44 C1587.34,490.82 2170.27,503.53 2366.75,506.07 " fill="none" id="EffectivePeriod-LaborOperation" style="stroke:#181818;stroke-width:1.0;"/></g><g id="link_EffectivePeriod_MultiPointInspection"><path d="M1305.05,125.87 C1146.89,134.52 732.3,160.73 685,199.98 C644.3,233.75 650,260.82 650,313.71 C650,313.71 650,313.71 650,412.2 C650,486.98 707.58,491.57 774,525.93 C862.38,571.65 976.5,590.34 1051.85,597.96 " fill="none" id="EffectivePeriod-MultiPointInspection" style="stroke:#181818;stroke-width:1.0;"/></g><g id="link_EffectivePeriod_PartyReference"><path d="M1426.82,136.53 C1432.62,137.74 1438.42,138.91 1444,139.98 C1607.18,171.26 1649.45,170.67 1813,199.98 C1821.58,201.52 1830.62,203.21 1839.5,204.91 " fill="none" id="EffectivePeriod-PartyReference" style="stroke:#181818;stroke-width:1.0;"/></g><g id="link_EffectivePeriod_TimeSlot"><path d="M1426.93,140.05 C1721.15,185.54 1802.02,143.22 2094.5,199.98 C2105.46,202.11 2117.32,205.51 2128.68,208.73 " fill="none" id="EffectivePeriod-TimeSlot" style="stroke:#181818;stroke-width:1.0;"/></g><g id="link_TimeSlot_EffectivePeriod"><path d="M2128.64,199.81 C1836.72,143.27 1755.79,185.53 1461.5,139.98 C1450.4,138.26 1438.51,135.9 1426.9,133.48 " fill="none" id="TimeSlot-EffectivePeriod" style="stroke:#181818;stroke-width:1.0;"/></g><g id="link_EffectivePeriod_VehicleLicense"><path d="M1305.09,128.68 C1204.28,139.39 1008.03,164.2 949,199.98 C910.19,223.5 881.77,270.62 868.45,296.2 " fill="none" id="EffectivePeriod-VehicleLicense" style="stroke:#181818;stroke-width:1.0;"/></g><g id="link_FinancialSplitReference_BillOfMaterialReference"><path d="M2632.61,140.06 C2619.52,157.01 2599.7,182.67 2586.55,199.68 " fill="none" id="FinancialSplitReference-BillOfMaterialReference" style="stroke:#181818;stroke-width:1.0;"/></g><g id="link_FinancialSplitReference_LaborOperation"><path d="M2658.05,140.21 C2671.97,162.66 2691.57,202.74 2680,236.47 C2639.23,355.34 2513.76,451.28 2458.08,489.19 " fill="none" id="FinancialSplitReference-LaborOperation" style="stroke:#181818;stroke-width:1.0;"/></g><g id="link_FinancialSplitReference_PricePlanReference"><path d="M2696.47,140.4 C2744.7,157.28 2817.02,182.58 2865.32,199.49 " fill="none" id="FinancialSplitReference-PricePlanReference" style="stroke:#181818;stroke-width:1.0;"/></g><g id="link_Identifier_BillOfMaterialReference"><path d="M2445.92,43.87 C2472.59,80.25 2533.47,163.3 2560.11,199.64 " fill="none" id="Identifier-BillOfMaterialReference" style="stroke:#181818;stroke-width:1.0;"/></g><g id="link_Identifier_FinancialSplitReference"><path d="M2462.09,43.8 C2496.7,60.72 2554.09,86.18 2595.8,103.12 " fill="none" id="Identifier-FinancialSplitReference" style="stroke:#181818;stroke-width:1.0;"/></g><g id="link_Identifier_FinancialSplitReference"><path d="M2485.4692,44.7279 C2527.4492,61.4379 2579.5,84.91 2616.67,103.07 " fill="none" id="Identifier-backto-FinancialSplitReference" style="stroke:#181818;stroke-width:1.0;"/><polygon fill="#181818" points="2474.32,40.29,2478.4153,46.2254,2485.4692,44.7279,2481.3739,38.7925,2474.32,40.29" style="stroke:#181818;stroke-width:1.0;"/></g><g id="link_Identifier_PartyReference"><path d="M2391.54,28.11 C2255.94,34.62 1831.93,58.46 1792,103.49 C1760.97,138.48 1820.03,177.47 1862.67,199.51 " fill="none" id="Identifier-PartyReference" style="stroke:#181818;stroke-width:1.0;"/></g><g id="link_Identifier_PricePlanReference"><path d="M2474.3,26.31 C2547.56,28.16 2703,39.95 2814,103.49 C2855.66,127.34 2889.4,174.32 2905.59,199.8 " fill="none" id="Identifier-PricePlanReference" style="stroke:#181818;stroke-width:1.0;"/></g><g id="link_Identifier_StaffAssignmentReference"><path d="M2431.46,43.8 C2428.57,67.78 2420.42,111.09 2398,139.98 C2366.69,180.32 2324.96,155.42 2300,199.98 C2281.71,232.61 2310.92,273.43 2331.51,296.22 " fill="none" id="Identifier-StaffAssignmentReference" style="stroke:#181818;stroke-width:1.0;"/></g><g id="link_Identifier_AppointmentReference"><path d="M2379.7333,27.4699 C2106.2333,33.8499 575.3,70.88 482,103.49 C424.34,123.65 369.91,173.1 343.56,199.67 " fill="none" id="Identifier-backto-AppointmentReference" style="stroke:#181818;stroke-width:1.0;"/><polygon fill="#181818" points="2391.73,27.19,2385.6383,23.331,2379.7333,27.4699,2385.8249,31.3288,2391.73,27.19" style="stroke:#181818;stroke-width:1.0;"/></g><g id="link_Identifier_Locale"><path d="M2379.6702,26.3233 C2251.9102,27.1033 1864.62,35.16 1543,103.49 C1537.07,104.75 1530.88,106.51 1524.95,108.42 " fill="none" id="Identifier-backto-Locale" style="stroke:#181818;stroke-width:1.0;"/><polygon fill="#181818" points="2391.67,26.25,2385.6457,22.2867,2379.6702,26.3233,2385.6945,30.2866,2391.67,26.25" style="stroke:#181818;stroke-width:1.0;"/></g><g id="link_Identifier_MultiPointInspection"><path d="M2379.6949,27.7513 C2122.0649,35.0813 756.1,75.15 672,103.49 C587.94,131.82 508,128.52 508,217.22 C508,217.22 508,217.22 508,412.2 C508,524.64 883.17,577.53 1051.7,595.62 " fill="none" id="Identifier-backto-MultiPointInspection" style="stroke:#181818;stroke-width:1.0;"/><polygon fill="#181818" points="2391.69,27.41,2385.5787,23.5823,2379.6949,27.7513,2385.8062,31.579,2391.69,27.41" style="stroke:#181818;stroke-width:1.0;"/></g><g id="link_Identifier_TextualDetail"><path d="M2486.2649,32.568 C2563.3949,42.338 2713.12,65.39 2753,103.49 C2808.23,156.26 2814.34,255.76 2814.41,296.08 " fill="none" id="Identifier-backto-TextualDetail" style="stroke:#181818;stroke-width:1.0;"/><polygon fill="#181818" points="2474.36,31.06,2479.8098,35.7823,2486.2649,32.568,2480.8151,27.8457,2474.36,31.06" style="stroke:#181818;stroke-width:1.0;"/></g><g id="link_Identifier_VehicleIdentifier"><path d="M2379.6649,27.7525 C2120.5049,35.1525 741.52,75.78 708,103.49 C582.9,206.9 777.92,425.64 839.42,489.09 " fill="none" id="Identifier-backto-VehicleIdentifier" style="stroke:#181818;stroke-width:1.0;"/><polygon fill="#181818" points="2391.66,27.41,2385.5483,23.5829,2379.6649,27.7525,2385.7766,31.5796,2391.66,27.41" style="stroke:#181818;stroke-width:1.0;"/></g><g id="link_Inspection_LaborOperation"><path d="M2046.5912,425.9777 C2055.5612,428.0877 2053.23,427.49 2062,429.44 C2168.53,453.17 2292.84,478.76 2366.57,493.72 " fill="none" id="Inspection-backto-LaborOperation" style="stroke:#181818;stroke-width:1.0;"/><polygon fill="#181818" points="2034.91,423.23,2039.8347,428.4976,2046.5912,425.9777,2041.6665,420.7101,2034.91,423.23" style="stroke:#181818;stroke-width:1.0;"/></g><g id="link_LaborLocationTypes_LaborOperation"><path d="M1705.81,426.67 C1711.96,427.65 1718.07,428.59 1724,429.44 C1960.2,463.3 2242.67,490.06 2366.96,501.14 " fill="none" id="LaborLocationTypes-LaborOperation" style="stroke:#181818;stroke-width:1.0;"/></g><g id="link_LaborOperationEvent_LaborOperation"><path d="M2330.1155,436.596 C2354.5455,453.566 2381.49,472.29 2405.87,489.23 " fill="none" id="LaborOperationEvent-backto-LaborOperation" style="stroke:#181818;stroke-width:1.0;"/><polygon fill="#181818" points="2320.26,429.75,2322.9058,436.4582,2330.1155,436.596,2327.4698,429.8878,2320.26,429.75" style="stroke:#181818;stroke-width:1.0;"/></g><g id="link_LaborOperationStatusTypes_LaborOperation"><path d="M2117.87,333.4 C2131.26,358.35 2158.93,403.7 2195,429.44 C2246.41,466.13 2316.27,486.13 2366.62,496.52 " fill="none" id="LaborOperationStatusTypes-LaborOperation" style="stroke:#181818;stroke-width:1.0;"/></g><g id="link_LaborOperationStatusTypes_LaborOperationEvent"><path d="M2143.55,333.26 C2176.85,350.18 2226.97,375.64 2260.32,392.58 " fill="none" id="LaborOperationStatusTypes-LaborOperationEvent" style="stroke:#181818;stroke-width:1.0;"/></g><g id="link_LaborOperationTypes_LaborOperation"><path d="M1909.3,426.7 C1914.95,427.64 1920.56,428.56 1926,429.44 C2084.25,455.05 2270.79,483.01 2366.77,497.23 " fill="none" id="LaborOperationTypes-LaborOperation" style="stroke:#181818;stroke-width:1.0;"/></g><g id="link_LaborOperation_MultiPointInspection"><path d="M2354.6116,514.241 C2138.3216,529.981 1450.28,580.02 1212.16,597.35 " fill="none" id="LaborOperation-backto-MultiPointInspection" style="stroke:#181818;stroke-width:1.0;"/><polygon fill="#181818" points="2366.58,513.37,2360.3055,509.816,2354.6116,514.241,2360.8861,517.7949,2366.58,513.37" style="stroke:#181818;stroke-width:1.0;"/></g><g id="link_LaborResourceTypes_LaborResource"><path d="M3165.67,333.04 C3169.25,349.98 3174.69,375.64 3178.29,392.66 " fill="none" id="LaborResourceTypes-LaborResource" style="stroke:#181818;stroke-width:1.0;"/></g><g id="link_LaborResource_LaborOperation"><path d="M3108.7787,427.1446 C3099.8787,428.7846 3102.62,428.16 3094,429.44 C2837.25,467.78 2769.48,449.34 2513,489.44 C2507.25,490.34 2501.3,491.38 2495.34,492.49 " fill="none" id="LaborResource-backto-LaborOperation" style="stroke:#181818;stroke-width:1.0;"/><polygon fill="#181818" points="3120.58,424.97,3113.9545,422.1235,3108.7787,427.1446,3115.4042,429.9911,3120.58,424.97" style="stroke:#181818;stroke-width:1.0;"/></g><g id="link_Locale_MultiPointInspection"><path d="M1461.12,134.99 C1455.48,136.86 1449.61,138.62 1444,139.98 C1349.6,162.88 1085.24,137.33 1011,199.98 C970.48,234.17 975,260.69 975,313.71 C975,313.71 975,313.71 975,412.2 C975,491.6 1056.99,555.98 1102.47,585.58 " fill="none" id="Locale-MultiPointInspection" style="stroke:#181818;stroke-width:1.0;"/></g><g id="link_Locale_PartyReference"><path d="M1524.83,134.35 C1530.83,136.35 1537.07,138.32 1543,139.98 C1598.12,155.37 1752.71,187.31 1839.65,204.91 " fill="none" id="Locale-PartyReference" style="stroke:#181818;stroke-width:1.0;"/></g><g id="link_ManifestItem_Manifest"><path d="M3336.9335,427.0759 C3328.0435,428.8559 3330.67,428.15 3322,429.44 C3014.47,475.24 2930.19,430.02 2625,489.44 C2619.51,490.51 2613.79,491.92 2608.2,493.47 " fill="none" id="ManifestItem-backto-Manifest" style="stroke:#181818;stroke-width:1.0;"/><polygon fill="#181818" points="3348.7,424.72,3342.0315,421.9758,3336.9335,427.0759,3343.6021,429.8201,3348.7,424.72" style="stroke:#181818;stroke-width:1.0;"/></g><g id="link_Manifest_MultiPointInspection"><path d="M2517.9428,525.2974 C2512.4428,526.7974 2518.41,524.96 2513,525.93 C2260.53,571.17 1467.77,594.7 1212.24,601.25 " fill="none" id="Manifest-backto-MultiPointInspection" style="stroke:#181818;stroke-width:1.0;"/><polygon fill="#181818" points="2529.52,522.14,2522.6789,519.8596,2517.9428,525.2974,2524.7839,527.5778,2529.52,522.14" style="stroke:#181818;stroke-width:1.0;"/></g><g id="link_MediaAccessMetric_Media"><path d="M863.6395,237.5768 C963.0095,258.6268 1122.25,292.37 1192.01,307.14 " fill="none" id="MediaAccessMetric-backto-Media" style="stroke:#181818;stroke-width:1.0;"/><polygon fill="#181818" points="851.9,235.09,856.9408,240.2466,863.6395,237.5768,858.5987,232.4203,851.9,235.09" style="stroke:#181818;stroke-width:1.0;"/></g><g id="link_MediaDeliveryMethodTypes_Media"><path d="M1529.36,236.9 C1456.64,250.61 1356.43,271.47 1270,296.47 C1264.74,297.99 1259.22,299.8 1253.89,301.68 " fill="none" id="MediaDeliveryMethodTypes-Media" style="stroke:#181818;stroke-width:1.0;"/></g><g id="link_MediaFormatTypes_Media"><path d="M1125.29,236.77 C1146.84,253.75 1179.32,279.31 1200.83,296.25 " fill="none" id="MediaFormatTypes-Media" style="stroke:#181818;stroke-width:1.0;"/></g><g id="link_MediaTypes_Media"><path d="M1255.66,236.55 C1248.49,253.5 1237.63,279.16 1230.43,296.17 " fill="none" id="MediaTypes-Media" style="stroke:#181818;stroke-width:1.0;"/></g><g id="link_MediaUsageTypes_Media"><path d="M1383.41,236.77 C1346.13,254.65 1288.96,282.07 1253.89,298.89 " fill="none" id="MediaUsageTypes-Media" style="stroke:#181818;stroke-width:1.0;"/></g><g id="link_Media_Inspection"><path d="M1265.1171,332.1357 C1270.4671,333.9457 1264.66,331.75 1270,332.96 C1555.62,397.25 1637.92,340.77 1926,392.96 C1931.58,393.97 1937.38,395.24 1943.11,396.63 " fill="none" id="Media-backto-Inspection" style="stroke:#181818;stroke-width:1.0;"/><polygon fill="#181818" points="1253.75,328.29,1258.1516,334.0019,1265.1171,332.1357,1260.7154,326.4238,1253.75,328.29" style="stroke:#181818;stroke-width:1.0;"/></g><g id="link_Media_MultiPointInspection"><path d="M1198.6831,342.3329 C1185.8231,357.1129 1176.46,370.34 1167,392.96 C1138.88,460.2 1133.31,548.44 1132.24,585.54 " fill="none" id="Media-backto-MultiPointInspection" style="stroke:#181818;stroke-width:1.0;"/><polygon fill="#181818" points="1206.56,333.28,1199.6039,335.1808,1198.6831,342.3329,1205.6392,340.4321,1206.56,333.28" style="stroke:#181818;stroke-width:1.0;"/></g><g id="link_MetricValue_MultiPointInspection"><path d="M1225.49,429.82 C1205.87,466.21 1161.08,549.25 1141.48,585.59 " fill="none" id="MetricValue-MultiPointInspection" style="stroke:#181818;stroke-width:1.0;"/></g><g id="link_MetricValue_VehicleIdentifier"><path d="M1184.8,424.75 C1117.43,441.59 997.6,471.54 922.99,490.19 " fill="none" id="MetricValue-VehicleIdentifier" style="stroke:#181818;stroke-width:1.0;"/></g><g id="link_Money_LaborOperation"><path d="M2949.18,424.51 C2943.51,426.35 2937.62,428.08 2932,429.44 C2749.14,473.64 2698.26,456.74 2513,489.44 C2507.27,490.46 2501.33,491.57 2495.38,492.74 " fill="none" id="Money-LaborOperation" style="stroke:#181818;stroke-width:1.0;"/></g><g id="link_NarrativeUomTypes_Inspection"><path d="M1442.21,323.12 C1550.88,334.28 1754.8,357.89 1926,392.96 C1931.55,394.09 1937.34,395.44 1943.06,396.88 " fill="none" id="NarrativeUomTypes-Inspection" style="stroke:#181818;stroke-width:1.0;"/></g><g id="link_NarrativeUomTypes_MetricValue"><path d="M1340.85,333.26 C1317.5,350.23 1282.32,375.8 1259.02,392.74 " fill="none" id="NarrativeUomTypes-MetricValue" style="stroke:#181818;stroke-width:1.0;"/></g><g id="link_PartyReference_Inspection"><path d="M1903.1069,248.5751 C1905.1069,271.6351 1909.64,301.15 1925,332.96 C1936.13,356.01 1955.58,378.06 1970.13,392.65 " fill="none" id="PartyReference-backto-Inspection" style="stroke:#181818;stroke-width:1.0;"/><polygon fill="#181818" points="1902.07,236.62,1898.6034,242.9432,1903.1069,248.5751,1906.5735,242.2519,1902.07,236.62" style="stroke:#181818;stroke-width:1.0;"/></g><g id="link_PartyReference_LaborOperation"><path d="M1917.1443,247.0317 C1931.4343,270.9517 1953.46,303.89 1986,332.96 C2097.65,432.68 2273.08,478.15 2366.85,496.29 " fill="none" id="PartyReference-backto-LaborOperation" style="stroke:#181818;stroke-width:1.0;"/><polygon fill="#181818" points="1910.99,236.73,1910.6333,243.9323,1917.1443,247.0317,1917.501,239.8294,1910.99,236.73" style="stroke:#181818;stroke-width:1.0;"/></g><g id="link_PartyReference_Media"><path d="M1827.7606,227.7285 C1674.6106,245.5685 1297.53,289.83 1270,296.47 C1264.68,297.75 1259.13,299.45 1253.79,301.28 " fill="none" id="PartyReference-backto-Media" style="stroke:#181818;stroke-width:1.0;"/><polygon fill="#181818" points="1839.68,226.34,1833.2575,223.0611,1827.7606,227.7285,1834.1831,231.0074,1839.68,226.34" style="stroke:#181818;stroke-width:1.0;"/></g><g id="link_PartyReference_MultiPointInspection"><path d="M1850.9016,241.8568 C1783.0616,272.6268 1650.43,333.49 1531,392.96 C1393.27,461.53 1231.9,548.69 1164.32,585.5 " fill="none" id="PartyReference-backto-MultiPointInspection" style="stroke:#181818;stroke-width:1.0;"/><polygon fill="#181818" points="1861.83,236.9,1854.7135,235.7356,1850.9016,241.8568,1858.018,243.0212,1861.83,236.9" style="stroke:#181818;stroke-width:1.0;"/></g><g id="link_PartyRelationshipTypes_PartyReference"><path d="M1899.6248,152.0573 C1899.9848,169.0073 1900.27,182.67 1900.63,199.68 " fill="none" id="PartyRelationshipTypes-backto-PartyReference" style="stroke:#181818;stroke-width:1.0;"/><polygon fill="#181818" points="1899.37,140.06,1895.4983,146.1436,1899.6248,152.0573,1903.4965,145.9737,1899.37,140.06" style="stroke:#181818;stroke-width:1.0;"/></g><g id="link_PayTypes_LaborOperation"><path d="M2697.14,425.04 C2643.27,441.57 2549.43,470.36 2488.79,488.96 " fill="none" id="PayTypes-LaborOperation" style="stroke:#181818;stroke-width:1.0;"/></g><g id="link_PayeeTypes_LaborOperation"><path d="M2815.3,425.25 C2809.48,426.7 2803.61,428.13 2798,429.44 C2796.14,429.88 2600.13,471.11 2495.37,493.15 " fill="none" id="PayeeTypes-LaborOperation" style="stroke:#181818;stroke-width:1.0;"/></g><g id="link_PricePlanReference_LaborOperation"><path d="M3003.1508,226.4809 C3094.2908,235.5709 3227.86,255.09 3261,296.47 C3277.1,316.57 3301.07,385.4 3260,429.44 C3203.21,490.34 2595.41,477.52 2513,489.44 C2507.24,490.28 2501.28,491.27 2495.32,492.35 " fill="none" id="PricePlanReference-backto-LaborOperation" style="stroke:#181818;stroke-width:1.0;"/><polygon fill="#181818" points="2991.21,225.29,2996.7834,229.8657,3003.1508,226.4809,2997.5774,221.9052,2991.21,225.29" style="stroke:#181818;stroke-width:1.0;"/></g><g id="link_RepairStatusTypes_MultiPointInspection"><path d="M2642.63,523.48 C2636.68,524.4 2630.75,525.24 2625,525.93 C2088.34,590.36 1436.82,601.08 1212.44,602.84 " fill="none" id="RepairStatusTypes-MultiPointInspection" style="stroke:#181818;stroke-width:1.0;"/></g><g id="link_RoleTypes_StaffAssignmentReference"><path d="M2105.6856,237.0754 C2158.7956,253.8054 2235.48,277.96 2292.9,296.04 " fill="none" id="RoleTypes-backto-StaffAssignmentReference" style="stroke:#181818;stroke-width:1.0;"/><polygon fill="#181818" points="2094.24,233.47,2098.761,239.0879,2105.6856,237.0754,2101.1646,231.4575,2094.24,233.47" style="stroke:#181818;stroke-width:1.0;"/></g><g id="link_ServiceJobTypes_LaborOperation"><path d="M2412.24,236.79 C2431.77,250.35 2455.85,271.07 2467,296.47 C2496.32,363.26 2459.2,451.74 2440.53,488.98 " fill="none" id="ServiceJobTypes-LaborOperation" style="stroke:#181818;stroke-width:1.0;"/></g><g id="link_ServiceJobTypes_StaffAssignmentReference"><path d="M2376.76,236.55 C2370.67,253.5 2361.43,279.16 2355.31,296.17 " fill="none" id="ServiceJobTypes-StaffAssignmentReference" style="stroke:#181818;stroke-width:1.0;"/></g><g id="link_StaffAssignmentReference_LaborOperation"><path d="M2367.6139,343.1928 C2377.6939,358.4528 2385.35,371.45 2395,392.96 C2409.75,425.83 2421.08,466.56 2426.83,489.28 " fill="none" id="StaffAssignmentReference-backto-LaborOperation" style="stroke:#181818;stroke-width:1.0;"/><polygon fill="#181818" points="2361,333.18,2360.9694,340.391,2367.6139,343.1928,2367.6446,335.9817,2361,333.18" style="stroke:#181818;stroke-width:1.0;"/></g><g id="link_TextualDetail_LaborOperation"><path d="M2881.5698,326.022 C2962.0598,340.132 3083.97,371.12 3032,429.44 C2954.76,516.13 2627.6,470.81 2513,489.44 C2507.26,490.38 2501.31,491.44 2495.35,492.57 " fill="none" id="TextualDetail-backto-LaborOperation" style="stroke:#181818;stroke-width:1.0;"/><polygon fill="#181818" points="2869.75,323.95,2874.9692,328.9259,2881.5698,326.022,2876.3506,321.0461,2869.75,323.95" style="stroke:#181818;stroke-width:1.0;"/></g><g id="link_TimeSlot_StaffAssignmentReference"><path d="M2213.0549,242.3478 C2245.2849,259.2678 2283.17,279.15 2315.44,296.09 " fill="none" id="TimeSlot-backto-StaffAssignmentReference" style="stroke:#181818;stroke-width:1.0;"/><polygon fill="#181818" points="2202.43,236.77,2205.8832,243.1005,2213.0549,242.3478,2209.6017,236.0173,2202.43,236.77" style="stroke:#181818;stroke-width:1.0;"/></g><g id="link_TimeslotDirectiveTypes_TimeSlot"><path d="M2128.6507,150.3338 C2138.8807,167.2838 2148.15,182.67 2158.42,199.68 " fill="none" id="TimeslotDirectiveTypes-backto-TimeSlot" style="stroke:#181818;stroke-width:1.0;"/><polygon fill="#181818" points="2122.45,140.06,2122.1257,147.2638,2128.6507,150.3338,2128.9749,143.13,2122.45,140.06" style="stroke:#181818;stroke-width:1.0;"/></g><g id="link_VehicleIdentifier_MultiPointInspection"><path d="M908.4,526.35 C957.53,543.23 1031.19,568.54 1080.38,585.44 " fill="none" id="VehicleIdentifier-MultiPointInspection" style="stroke:#181818;stroke-width:1.0;"/></g><g id="link_VehicleLicense_VehicleIdentifier"><path d="M859.72,333.34 C859.15,369.72 857.85,452.76 857.28,489.11 " fill="none" id="VehicleLicense-VehicleIdentifier" style="stroke:#181818;stroke-width:1.0;"/></g></g></svg>
