<?xml version="1.0" encoding="us-ascii" standalone="no"?><svg xmlns="http://www.w3.org/2000/svg" xmlns:xlink="http://www.w3.org/1999/xlink" contentStyleType="text/css" height="338px" preserveAspectRatio="none" style="width:1401px;height:338px;background:#FFFFFF;" version="1.1" viewBox="0 0 1401 338" width="1401px" zoomAndPan="magnify"><defs/><g><g id="elem_EffectivePeriod"><rect fill="#F1F1F1" height="36.4883" rx="2.5" ry="2.5" style="stroke:#181818;stroke-width:0.5;" width="121" x="338.5" y="103.49"/><text fill="#000000" font-family="sans-serif" font-size="14" lengthAdjust="spacing" textLength="101" x="348.5" y="127.0252">EffectivePeriod</text></g><g id="elem_Identifier"><rect fill="#F1F1F1" height="36.4883" rx="2.5" ry="2.5" style="stroke:#181818;stroke-width:0.5;" width="82" x="7" y="103.49"/><text fill="#000000" font-family="sans-serif" font-size="14" lengthAdjust="spacing" textLength="62" x="17" y="127.0252">Identifier</text></g><g id="elem_PartName"><rect fill="#F1F1F1" height="36.4883" rx="2.5" ry="2.5" style="stroke:#181818;stroke-width:0.5;" width="86" x="307" y="199.97"/><text fill="#000000" font-family="sans-serif" font-size="14" lengthAdjust="spacing" textLength="66" x="317" y="223.5052">PartName</text></g><g id="elem_PartyIdentifier"><rect fill="#F1F1F1" height="36.4883" rx="2.5" ry="2.5" style="stroke:#181818;stroke-width:0.5;" width="116" x="156" y="199.97"/><text fill="#000000" font-family="sans-serif" font-size="14" lengthAdjust="spacing" textLength="96" x="166" y="223.5052">PartyIdentifier</text></g><g id="elem_SuperSession"><rect fill="#F1F1F1" height="36.4883" rx="2.5" ry="2.5" style="stroke:#181818;stroke-width:0.5;" width="112" x="551" y="296.46"/><text fill="#000000" font-family="sans-serif" font-size="14" lengthAdjust="spacing" textLength="92" x="561" y="319.9952">SuperSession</text></g><g id="elem_DurationUOMTypes"><rect fill="#FAFF91" height="36.4883" rx="2.5" ry="2.5" style="stroke:#181818;stroke-width:0.5;" width="153" x="322.5" y="7"/><text fill="#000000" font-family="sans-serif" font-size="14" lengthAdjust="spacing" textLength="133" x="332.5" y="30.5352">DurationUOMTypes</text></g><g id="elem_PartNameTypes"><rect fill="#FAFF91" height="36.4883" rx="2.5" ry="2.5" style="stroke:#181818;stroke-width:0.5;" width="126" x="495" y="103.49"/><text fill="#000000" font-family="sans-serif" font-size="14" lengthAdjust="spacing" textLength="106" x="505" y="127.0252">PartNameTypes</text></g><g id="elem_PartOrderConfigTypes"><rect fill="#FAFF91" height="36.4883" rx="2.5" ry="2.5" style="stroke:#181818;stroke-width:0.5;" width="173" x="427.5" y="199.97"/><text fill="#000000" font-family="sans-serif" font-size="14" lengthAdjust="spacing" textLength="153" x="437.5" y="223.5052">PartOrderConfigTypes</text></g><g id="elem_PartStatusTypes"><rect fill="#FAFF91" height="36.4883" rx="2.5" ry="2.5" style="stroke:#181818;stroke-width:0.5;" width="129" x="635.5" y="199.97"/><text fill="#000000" font-family="sans-serif" font-size="14" lengthAdjust="spacing" textLength="109" x="645.5" y="223.5052">PartStatusTypes</text></g><g id="elem_PartyRelationshipTypes"><rect fill="#FAFF91" height="36.4883" rx="2.5" ry="2.5" style="stroke:#181818;stroke-width:0.5;" width="179" x="124.5" y="103.49"/><text fill="#000000" font-family="sans-serif" font-size="14" lengthAdjust="spacing" textLength="159" x="134.5" y="127.0252">PartyRelationshipTypes</text></g><g id="elem_ProductConsumptionTypes"><rect fill="#FAFF91" height="36.4883" rx="2.5" ry="2.5" style="stroke:#181818;stroke-width:0.5;" width="206" x="800" y="199.97"/><text fill="#000000" font-family="sans-serif" font-size="14" lengthAdjust="spacing" textLength="186" x="810" y="223.5052">ProductConsumptionTypes</text></g><g id="elem_ProductPackageTypes"><rect fill="#FAFF91" height="36.4883" rx="2.5" ry="2.5" style="stroke:#181818;stroke-width:0.5;" width="169" x="1040.5" y="199.97"/><text fill="#000000" font-family="sans-serif" font-size="14" lengthAdjust="spacing" textLength="149" x="1050.5" y="223.5052">ProductPackageTypes</text></g><g id="elem_ProductStageTypes"><rect fill="#FAFF91" height="36.4883" rx="2.5" ry="2.5" style="stroke:#181818;stroke-width:0.5;" width="151" x="1244.5" y="199.97"/><text fill="#000000" font-family="sans-serif" font-size="14" lengthAdjust="spacing" textLength="131" x="1254.5" y="223.5052">ProductStageTypes</text></g><g id="link_DurationUOMTypes_EffectivePeriod"><path d="M399,43.57 C399,60.51 399,86.17 399,103.19 " fill="none" id="DurationUOMTypes-EffectivePeriod" style="stroke:#181818;stroke-width:1.0;"/></g><g id="link_EffectivePeriod_PartyIdentifier"><path d="M364.64,140.28 C331.51,157.2 281.66,182.66 248.49,199.6 " fill="none" id="EffectivePeriod-PartyIdentifier" style="stroke:#181818;stroke-width:1.0;"/></g><g id="link_Identifier_PartyIdentifier"><path d="M78.83,140.28 C108.56,157.2 153.29,182.66 183.05,199.6 " fill="none" id="Identifier-PartyIdentifier" style="stroke:#181818;stroke-width:1.0;"/></g><g id="link_Identifier_SuperSession"><path d="M62.3268,150.9337 C76.0068,176.6437 99.5,213.33 139,236.46 C208.11,276.93 442.35,300.5 550.91,309.48 " fill="none" id="Identifier-backto-SuperSession" style="stroke:#181818;stroke-width:1.0;"/><polygon fill="#181818" points="56.69,140.34,55.9772,147.5158,62.3268,150.9337,63.0396,143.7579,56.69,140.34" style="stroke:#181818;stroke-width:1.0;"/></g><g id="link_PartNameTypes_PartName"><path d="M519.36,140.28 C482.12,157.2 426.07,182.66 388.78,199.6 " fill="none" id="PartNameTypes-PartName" style="stroke:#181818;stroke-width:1.0;"/></g><g id="link_PartName_SuperSession"><path d="M404.5731,239.2803 C450.4931,256.1603 511.56,278.62 559.14,296.11 " fill="none" id="PartName-backto-SuperSession" style="stroke:#181818;stroke-width:1.0;"/><polygon fill="#181818" points="393.31,235.14,397.5615,240.9645,404.5731,239.2803,400.3217,233.4558,393.31,235.14" style="stroke:#181818;stroke-width:1.0;"/></g><g id="link_PartOrderConfigTypes_SuperSession"><path d="M531.06,236.55 C547.73,253.49 572.99,279.15 589.74,296.17 " fill="none" id="PartOrderConfigTypes-SuperSession" style="stroke:#181818;stroke-width:1.0;"/></g><g id="link_PartStatusTypes_SuperSession"><path d="M674.5232,245.1032 C657.8532,262.0432 641.01,279.15 624.26,296.17 " fill="none" id="PartStatusTypes-backto-SuperSession" style="stroke:#181818;stroke-width:1.0;"/><polygon fill="#181818" points="682.94,236.55,675.8805,238.021,674.5232,245.1032,681.5826,243.6322,682.94,236.55" style="stroke:#181818;stroke-width:1.0;"/></g><g id="link_PartyIdentifier_SuperSession"><path d="M284.0775,236.0652 C359.0275,254.0852 476.49,282.33 550.5,300.12 " fill="none" id="PartyIdentifier-backto-SuperSession" style="stroke:#181818;stroke-width:1.0;"/><polygon fill="#181818" points="272.41,233.26,277.3087,238.5518,284.0775,236.0652,279.1788,230.7734,272.41,233.26" style="stroke:#181818;stroke-width:1.0;"/></g><g id="link_PartyRelationshipTypes_PartyIdentifier"><path d="M214,152.06 C214,169 214,182.66 214,199.68 " fill="none" id="PartyRelationshipTypes-backto-PartyIdentifier" style="stroke:#181818;stroke-width:1.0;"/><polygon fill="#181818" points="214,140.06,210,146.06,214,152.06,218,146.06,214,140.06" style="stroke:#181818;stroke-width:1.0;"/></g><g id="link_ProductConsumptionTypes_SuperSession"><path d="M847.67,236.88 C794.8,253.76 715.51,279.07 662.56,295.97 " fill="none" id="ProductConsumptionTypes-SuperSession" style="stroke:#181818;stroke-width:1.0;"/></g><g id="link_ProductPackageTypes_SuperSession"><path d="M1040.04,234.71 C933.56,254.14 754.02,286.89 663.21,303.45 " fill="none" id="ProductPackageTypes-SuperSession" style="stroke:#181818;stroke-width:1.0;"/></g><g id="link_ProductStageTypes_SuperSession"><path d="M1244.19,233.66 C1238.38,234.65 1232.6,235.59 1227,236.46 C1019.85,268.54 772.14,296.21 663.15,307.84 " fill="none" id="ProductStageTypes-SuperSession" style="stroke:#181818;stroke-width:1.0;"/></g></g></svg>