<?xml version="1.0" encoding="us-ascii" standalone="no"?><svg xmlns="http://www.w3.org/2000/svg" xmlns:xlink="http://www.w3.org/1999/xlink" contentStyleType="text/css" height="338px" preserveAspectRatio="none" style="width:994px;height:338px;background:#FFFFFF;" version="1.1" viewBox="0 0 994 338" width="994px" zoomAndPan="magnify"><defs/><g><g id="elem_EffectivePeriod"><rect fill="#F1F1F1" height="36.4883" rx="2.5" ry="2.5" style="stroke:#181818;stroke-width:0.5;" width="121" x="671.5" y="103.49"/><text fill="#000000" font-family="sans-serif" font-size="14" lengthAdjust="spacing" textLength="101" x="681.5" y="127.0252">EffectivePeriod</text></g><g id="elem_Identifier"><rect fill="#F1F1F1" height="36.4883" rx="2.5" ry="2.5" style="stroke:#181818;stroke-width:0.5;" width="82" x="340" y="103.49"/><text fill="#000000" font-family="sans-serif" font-size="14" lengthAdjust="spacing" textLength="62" x="350" y="127.0252">Identifier</text></g><g id="elem_LifecycleEvent"><rect fill="#F1F1F1" height="36.4883" rx="2.5" ry="2.5" style="stroke:#181818;stroke-width:0.5;" width="114" x="12" y="199.97"/><text fill="#000000" font-family="sans-serif" font-size="14" lengthAdjust="spacing" textLength="94" x="22" y="223.5052">LifecycleEvent</text></g><g id="elem_PartyIdentifier"><rect fill="#F1F1F1" height="36.4883" rx="2.5" ry="2.5" style="stroke:#181818;stroke-width:0.5;" width="116" x="461" y="199.97"/><text fill="#000000" font-family="sans-serif" font-size="14" lengthAdjust="spacing" textLength="96" x="471" y="223.5052">PartyIdentifier</text></g><g id="elem_Price"><rect fill="#F1F1F1" height="36.4883" rx="2.5" ry="2.5" style="stroke:#181818;stroke-width:0.5;" width="53" x="231.5" y="199.97"/><text fill="#000000" font-family="sans-serif" font-size="14" lengthAdjust="spacing" textLength="33" x="241.5" y="223.5052">Price</text></g><g id="elem_PriceList"><rect fill="#F1F1F1" height="36.4883" rx="2.5" ry="2.5" style="stroke:#181818;stroke-width:0.5;" width="76" x="334" y="296.46"/><text fill="#000000" font-family="sans-serif" font-size="14" lengthAdjust="spacing" textLength="56" x="344" y="319.9952">PriceList</text></g><g id="elem_PriceSensitivity"><rect fill="#F1F1F1" height="36.4883" rx="2.5" ry="2.5" style="stroke:#181818;stroke-width:0.5;" width="121" x="612.5" y="199.97"/><text fill="#000000" font-family="sans-serif" font-size="14" lengthAdjust="spacing" textLength="101" x="622.5" y="223.5052">PriceSensitivity</text></g><g id="elem_DurationUOMTypes"><rect fill="#FAFF91" height="36.4883" rx="2.5" ry="2.5" style="stroke:#181818;stroke-width:0.5;" width="153" x="655.5" y="7"/><text fill="#000000" font-family="sans-serif" font-size="14" lengthAdjust="spacing" textLength="133" x="665.5" y="30.5352">DurationUOMTypes</text></g><g id="elem_LifecycleEventTypes"><rect fill="#FAFF91" height="36.4883" rx="2.5" ry="2.5" style="stroke:#181818;stroke-width:0.5;" width="154" x="7" y="103.49"/><text fill="#000000" font-family="sans-serif" font-size="14" lengthAdjust="spacing" textLength="134" x="17" y="127.0252">LifecycleEventTypes</text></g><g id="elem_PartyRelationshipTypes"><rect fill="#FAFF91" height="36.4883" rx="2.5" ry="2.5" style="stroke:#181818;stroke-width:0.5;" width="179" x="457.5" y="103.49"/><text fill="#000000" font-family="sans-serif" font-size="14" lengthAdjust="spacing" textLength="159" x="467.5" y="127.0252">PartyRelationshipTypes</text></g><g id="elem_PriceClassTypes"><rect fill="#FAFF91" height="36.4883" rx="2.5" ry="2.5" style="stroke:#181818;stroke-width:0.5;" width="129" x="768.5" y="199.97"/><text fill="#000000" font-family="sans-serif" font-size="14" lengthAdjust="spacing" textLength="109" x="778.5" y="223.5052">PriceClassTypes</text></g><g id="elem_PriceSensitivityTypes"><rect fill="#FAFF91" height="36.4883" rx="2.5" ry="2.5" style="stroke:#181818;stroke-width:0.5;" width="161" x="827.5" y="103.49"/><text fill="#000000" font-family="sans-serif" font-size="14" lengthAdjust="spacing" textLength="141" x="837.5" y="127.0252">PriceSensitivityTypes</text></g><g id="elem_PriceTypes"><rect fill="#FAFF91" height="36.4883" rx="2.5" ry="2.5" style="stroke:#181818;stroke-width:0.5;" width="93" x="211.5" y="103.49"/><text fill="#000000" font-family="sans-serif" font-size="14" lengthAdjust="spacing" textLength="73" x="221.5" y="127.0252">PriceTypes</text></g><g id="link_DurationUOMTypes_EffectivePeriod"><path d="M732,43.57 C732,60.51 732,86.17 732,103.19 " fill="none" id="DurationUOMTypes-EffectivePeriod" style="stroke:#181818;stroke-width:1.0;"/></g><g id="link_EffectivePeriod_PartyIdentifier"><path d="M692.44,140.28 C654.3,157.2 596.9,182.66 558.71,199.6 " fill="none" id="EffectivePeriod-PartyIdentifier" style="stroke:#181818;stroke-width:1.0;"/></g><g id="link_Identifier_PartyIdentifier"><path d="M406.63,140.28 C431.42,157.25 468.76,182.82 493.5,199.76 " fill="none" id="Identifier-PartyIdentifier" style="stroke:#181818;stroke-width:1.0;"/></g><g id="link_Identifier_PriceList"><path d="M379.6034,152.3366 C377.8834,188.7266 374.54,259.78 372.83,296.12 " fill="none" id="Identifier-backto-PriceList" style="stroke:#181818;stroke-width:1.0;"/><polygon fill="#181818" points="380.17,140.35,375.8912,146.1545,379.6034,152.3366,383.8823,146.5322,380.17,140.35" style="stroke:#181818;stroke-width:1.0;"/></g><g id="link_LifecycleEventTypes_LifecycleEvent"><path d="M81.25,140.06 C78.56,157 74.49,182.66 71.78,199.68 " fill="none" id="LifecycleEventTypes-LifecycleEvent" style="stroke:#181818;stroke-width:1.0;"/></g><g id="link_LifecycleEventTypes_PriceList"><path d="M100.87,140.14 C124.57,163.96 169.8,207.08 214,236.46 C252.52,262.07 300.78,284.42 333.77,298.4 " fill="none" id="LifecycleEventTypes-PriceList" style="stroke:#181818;stroke-width:1.0;"/></g><g id="link_LifecycleEvent_PriceList"><path d="M137.0959,240.4524 C197.8959,259.4124 281.37,285.44 333.86,301.81 " fill="none" id="LifecycleEvent-backto-PriceList" style="stroke:#181818;stroke-width:1.0;"/><polygon fill="#181818" points="125.64,236.88,130.1771,242.4849,137.0959,240.4524,132.5588,234.8476,125.64,236.88" style="stroke:#181818;stroke-width:1.0;"/></g><g id="link_PartyIdentifier_PriceList"><path d="M481.5956,243.2587 C455.1956,260.2287 425.51,279.31 399.16,296.25 " fill="none" id="PartyIdentifier-backto-PriceList" style="stroke:#181818;stroke-width:1.0;"/><polygon fill="#181818" points="491.69,236.77,484.4799,236.6496,481.5956,243.2587,488.8057,243.3791,491.69,236.77" style="stroke:#181818;stroke-width:1.0;"/></g><g id="link_PartyRelationshipTypes_PartyIdentifier"><path d="M538.4505,151.5654 C533.4305,168.5054 529.24,182.66 524.2,199.68 " fill="none" id="PartyRelationshipTypes-backto-PartyIdentifier" style="stroke:#181818;stroke-width:1.0;"/><polygon fill="#181818" points="541.86,140.06,536.3201,144.6762,538.4505,151.5654,543.9904,146.9492,541.86,140.06" style="stroke:#181818;stroke-width:1.0;"/></g><g id="link_Price_PriceList"><path d="M279.18,236.77 C299.65,253.74 330.5,279.31 350.94,296.25 " fill="none" id="Price-PriceList" style="stroke:#181818;stroke-width:1.0;"/></g><g id="link_PriceClassTypes_PriceList"><path d="M756.3638,235.3547 C750.5738,236.5647 756.56,235.31 751,236.46 C626.56,262.23 478.98,292.11 410.48,305.95 " fill="none" id="PriceClassTypes-backto-PriceList" style="stroke:#181818;stroke-width:1.0;"/><polygon fill="#181818" points="768.11,232.9,761.4186,230.212,756.3638,235.3547,763.0551,238.0428,768.11,232.9" style="stroke:#181818;stroke-width:1.0;"/></g><g id="link_PriceSensitivity_PriceList"><path d="M616.74,236.88 C556.5,255.79 462.57,285.28 410.33,301.67 " fill="none" id="PriceSensitivity-PriceList" style="stroke:#181818;stroke-width:1.0;"/></g><g id="link_PriceSensitivityTypes_PriceSensitivity"><path d="M864.07,140.39 C822.09,157.27 759.15,182.58 717.11,199.48 " fill="none" id="PriceSensitivityTypes-PriceSensitivity" style="stroke:#181818;stroke-width:1.0;"/></g><g id="link_PriceTypes_Price"><path d="M258,152.06 C258,169 258,182.66 258,199.68 " fill="none" id="PriceTypes-backto-Price" style="stroke:#181818;stroke-width:1.0;"/><polygon fill="#181818" points="258,140.06,254,146.06,258,152.06,262,146.06,258,140.06" style="stroke:#181818;stroke-width:1.0;"/></g><g id="link_PriceTypes_PriceList"><path d="M274.6702,150.6541 C296.3902,187.0441 339.81,259.78 361.5,296.12 " fill="none" id="PriceTypes-backto-PriceList" style="stroke:#181818;stroke-width:1.0;"/><polygon fill="#181818" points="268.52,140.35,268.1604,147.5521,274.6702,150.6541,275.0298,143.452,268.52,140.35" style="stroke:#181818;stroke-width:1.0;"/></g></g></svg>