<?xml version="1.0" encoding="us-ascii" standalone="no"?><svg xmlns="http://www.w3.org/2000/svg" xmlns:xlink="http://www.w3.org/1999/xlink" contentStyleType="text/css" height="435px" preserveAspectRatio="none" style="width:1440px;height:435px;background:#FFFFFF;" version="1.1" viewBox="0 0 1440 435" width="1440px" zoomAndPan="magnify"><defs/><g><g id="elem_BillOfMaterial"><rect fill="#F1F1F1" height="36.4883" rx="2.5" ry="2.5" style="stroke:#181818;stroke-width:0.5;" width="111" x="546" y="392.95"/><text fill="#000000" font-family="sans-serif" font-size="14" lengthAdjust="spacing" textLength="91" x="556" y="416.4852">BillOfMaterial</text></g><g id="elem_BomComponent"><rect fill="#F1F1F1" height="36.4883" rx="2.5" ry="2.5" style="stroke:#181818;stroke-width:0.5;" width="131" x="477" y="296.46"/><text fill="#000000" font-family="sans-serif" font-size="14" lengthAdjust="spacing" textLength="111" x="487" y="319.9952">BomComponent</text></g><g id="elem_EffectivePeriod"><rect fill="#F1F1F1" height="36.4883" rx="2.5" ry="2.5" style="stroke:#181818;stroke-width:0.5;" width="121" x="471" y="199.98"/><text fill="#000000" font-family="sans-serif" font-size="14" lengthAdjust="spacing" textLength="101" x="481" y="223.5152">EffectivePeriod</text></g><g id="elem_Identifier"><rect fill="#F1F1F1" height="36.4883" rx="2.5" ry="2.5" style="stroke:#181818;stroke-width:0.5;" width="82" x="311.5" y="103.49"/><text fill="#000000" font-family="sans-serif" font-size="14" lengthAdjust="spacing" textLength="62" x="321.5" y="127.0252">Identifier</text></g><g id="elem_PartIdentifier"><rect fill="#F1F1F1" height="36.4883" rx="2.5" ry="2.5" style="stroke:#181818;stroke-width:0.5;" width="109" x="181" y="199.98"/><text fill="#000000" font-family="sans-serif" font-size="14" lengthAdjust="spacing" textLength="89" x="191" y="223.5152">PartIdentifier</text></g><g id="elem_PartName"><rect fill="#F1F1F1" height="36.4883" rx="2.5" ry="2.5" style="stroke:#181818;stroke-width:0.5;" width="86" x="190.5" y="103.49"/><text fill="#000000" font-family="sans-serif" font-size="14" lengthAdjust="spacing" textLength="66" x="200.5" y="127.0252">PartName</text></g><g id="elem_PartSpecification"><rect fill="#F1F1F1" height="36.4883" rx="2.5" ry="2.5" style="stroke:#181818;stroke-width:0.5;" width="134" x="627.5" y="199.98"/><text fill="#000000" font-family="sans-serif" font-size="14" lengthAdjust="spacing" textLength="114" x="637.5" y="223.5152">PartSpecification</text></g><g id="elem_TextualDetail"><rect fill="#F1F1F1" height="36.4883" rx="2.5" ry="2.5" style="stroke:#181818;stroke-width:0.5;" width="111" x="325" y="199.98"/><text fill="#000000" font-family="sans-serif" font-size="14" lengthAdjust="spacing" textLength="91" x="335" y="223.5152">TextualDetail</text></g><g id="elem_UnitOfMeasure"><rect fill="#F1F1F1" height="36.4883" rx="2.5" ry="2.5" style="stroke:#181818;stroke-width:0.5;" width="122" x="878.5" y="103.49"/><text fill="#000000" font-family="sans-serif" font-size="14" lengthAdjust="spacing" textLength="102" x="888.5" y="127.0252">UnitOfMeasure</text></g><g id="elem_DurationUOMTypes"><rect fill="#FAFF91" height="36.4883" rx="2.5" ry="2.5" style="stroke:#181818;stroke-width:0.5;" width="153" x="429" y="103.49"/><text fill="#000000" font-family="sans-serif" font-size="14" lengthAdjust="spacing" textLength="133" x="439" y="127.0252">DurationUOMTypes</text></g><g id="elem_PartConditionGradeTypes"><rect fill="#FAFF91" height="36.4883" rx="2.5" ry="2.5" style="stroke:#181818;stroke-width:0.5;" width="196" x="1238.5" y="103.49"/><text fill="#000000" font-family="sans-serif" font-size="14" lengthAdjust="spacing" textLength="176" x="1248.5" y="127.0252">PartConditionGradeTypes</text></g><g id="elem_PartConditionTypes"><rect fill="#FAFF91" height="36.4883" rx="2.5" ry="2.5" style="stroke:#181818;stroke-width:0.5;" width="155" x="617" y="103.49"/><text fill="#000000" font-family="sans-serif" font-size="14" lengthAdjust="spacing" textLength="135" x="627" y="127.0252">PartConditionTypes</text></g><g id="elem_PartIdentifierTypes"><rect fill="#FAFF91" height="36.4883" rx="2.5" ry="2.5" style="stroke:#181818;stroke-width:0.5;" width="149" x="7" y="103.49"/><text fill="#000000" font-family="sans-serif" font-size="14" lengthAdjust="spacing" textLength="129" x="17" y="127.0252">PartIdentifierTypes</text></g><g id="elem_PartNameTypes"><rect fill="#FAFF91" height="36.4883" rx="2.5" ry="2.5" style="stroke:#181818;stroke-width:0.5;" width="126" x="421.5" y="7"/><text fill="#000000" font-family="sans-serif" font-size="14" lengthAdjust="spacing" textLength="106" x="431.5" y="30.5352">PartNameTypes</text></g><g id="elem_ProductPackageTypes"><rect fill="#FAFF91" height="36.4883" rx="2.5" ry="2.5" style="stroke:#181818;stroke-width:0.5;" width="169" x="1035" y="103.49"/><text fill="#000000" font-family="sans-serif" font-size="14" lengthAdjust="spacing" textLength="149" x="1045" y="127.0252">ProductPackageTypes</text></g><g id="elem_ProductStatusTypes"><rect fill="#FAFF91" height="36.4883" rx="2.5" ry="2.5" style="stroke:#181818;stroke-width:0.5;" width="155" x="797" y="199.98"/><text fill="#000000" font-family="sans-serif" font-size="14" lengthAdjust="spacing" textLength="135" x="807" y="223.5152">ProductStatusTypes</text></g><g id="elem_UOMQuantityCategoryTypes"><rect fill="#FAFF91" height="36.4883" rx="2.5" ry="2.5" style="stroke:#181818;stroke-width:0.5;" width="213" x="833" y="7"/><text fill="#000000" font-family="sans-serif" font-size="14" lengthAdjust="spacing" textLength="193" x="843" y="30.5352">UOMQuantityCategoryTypes</text></g><g id="link_BomComponent_BillOfMaterial"><path d="M559.6767,343.218 C570.2567,360.158 579.92,375.64 590.55,392.66 " fill="none" id="BomComponent-backto-BillOfMaterial" style="stroke:#181818;stroke-width:1.0;"/><polygon fill="#181818" points="553.32,333.04,553.1057,340.2479,559.6767,343.218,559.891,336.0101,553.32,333.04" style="stroke:#181818;stroke-width:1.0;"/></g><g id="link_DurationUOMTypes_EffectivePeriod"><path d="M510.27,140.06 C514.93,157 521.99,182.66 526.67,199.68 " fill="none" id="DurationUOMTypes-EffectivePeriod" style="stroke:#181818;stroke-width:1.0;"/></g><g id="link_EffectivePeriod_BomComponent"><path d="M533.52,236.55 C535.49,253.49 538.48,279.15 540.46,296.17 " fill="none" id="EffectivePeriod-BomComponent" style="stroke:#181818;stroke-width:1.0;"/></g><g id="link_Identifier_PartIdentifier"><path d="M321.433,147.818 C300.413,164.788 278.09,182.82 257.12,199.76 " fill="none" id="Identifier-backto-PartIdentifier" style="stroke:#181818;stroke-width:1.0;"/><polygon fill="#181818" points="330.77,140.28,323.5889,140.9367,321.433,147.818,328.6142,147.1613,330.77,140.28" style="stroke:#181818;stroke-width:1.0;"/></g><g id="link_Identifier_PartSpecification"><path d="M405.2628,138.2303 C411.2128,139.9603 405.75,138.35 411.5,139.98 C485.63,160.92 570.95,184.08 628.36,199.53 " fill="none" id="Identifier-backto-PartSpecification" style="stroke:#181818;stroke-width:1.0;"/><polygon fill="#181818" points="393.74,134.88,398.3846,140.3961,405.2628,138.2303,400.6182,132.7142,393.74,134.88" style="stroke:#181818;stroke-width:1.0;"/></g><g id="link_Identifier_TextualDetail"><path d="M361.0495,151.5654 C366.0695,168.5054 370.26,182.66 375.3,199.68 " fill="none" id="Identifier-backto-TextualDetail" style="stroke:#181818;stroke-width:1.0;"/><polygon fill="#181818" points="357.64,140.06,355.5096,146.9492,361.0495,151.5654,363.1799,144.6762,357.64,140.06" style="stroke:#181818;stroke-width:1.0;"/></g><g id="link_PartConditionGradeTypes_PartSpecification"><path d="M1226.144,139.3108 C1220.554,140.1208 1226.9,139.2 1221.5,139.98 C1025.25,168.01 974.97,166.92 779.5,199.98 C773.71,200.95 767.71,202.04 761.7,203.16 " fill="none" id="PartConditionGradeTypes-backto-PartSpecification" style="stroke:#181818;stroke-width:1.0;"/><polygon fill="#181818" points="1238.02,137.59,1231.5084,134.4918,1226.144,139.3108,1232.6556,142.4091,1238.02,137.59" style="stroke:#181818;stroke-width:1.0;"/></g><g id="link_PartConditionTypes_PartSpecification"><path d="M694.5,152.06 C694.5,169 694.5,182.66 694.5,199.68 " fill="none" id="PartConditionTypes-backto-PartSpecification" style="stroke:#181818;stroke-width:1.0;"/><polygon fill="#181818" points="694.5,140.06,690.5,146.06,694.5,152.06,698.5,146.06,694.5,140.06" style="stroke:#181818;stroke-width:1.0;"/></g><g id="link_PartIdentifierTypes_PartIdentifier"><path d="M110.11,140.28 C137.68,157.2 179.18,182.66 206.79,199.6 " fill="none" id="PartIdentifierTypes-PartIdentifier" style="stroke:#181818;stroke-width:1.0;"/></g><g id="link_PartIdentifier_BillOfMaterial"><path d="M279.9183,242.3921 C349.5483,278.7321 497.75,356.06 567.54,392.48 " fill="none" id="PartIdentifier-backto-BillOfMaterial" style="stroke:#181818;stroke-width:1.0;"/><polygon fill="#181818" points="269.28,236.84,272.7484,243.1622,279.9183,242.3921,276.4499,236.07,269.28,236.84" style="stroke:#181818;stroke-width:1.0;"/></g><g id="link_PartIdentifier_BomComponent"><path d="M301.859,239.6402 C356.699,256.5202 429.2,278.84 484.96,296 " fill="none" id="PartIdentifier-backto-BomComponent" style="stroke:#181818;stroke-width:1.0;"/><polygon fill="#181818" points="290.39,236.11,294.9478,241.6981,301.859,239.6402,297.3012,234.0521,290.39,236.11" style="stroke:#181818;stroke-width:1.0;"/></g><g id="link_PartNameTypes_PartName"><path d="M437.58,43.9 C391.47,61.26 321.67,87.54 276.83,104.42 " fill="none" id="PartNameTypes-PartName" style="stroke:#181818;stroke-width:1.0;"/></g><g id="link_PartNameTypes_PartSpecification"><path d="M547.96,33.22 C628.4,43.52 760.14,65.77 789.5,103.49 C816.6,138.31 764.75,177.52 727.58,199.61 " fill="none" id="PartNameTypes-PartSpecification" style="stroke:#181818;stroke-width:1.0;"/></g><g id="link_PartName_PartIdentifier"><path d="M234.125,152.0573 C234.485,168.9973 234.77,182.66 235.13,199.68 " fill="none" id="PartName-backto-PartIdentifier" style="stroke:#181818;stroke-width:1.0;"/><polygon fill="#181818" points="233.87,140.06,229.9984,146.1436,234.125,152.0573,237.9966,145.9737,233.87,140.06" style="stroke:#181818;stroke-width:1.0;"/></g><g id="link_PartSpecification_BillOfMaterial"><path d="M685.92,236.84 C668.2,273.23 627.76,356.27 610.06,392.61 " fill="none" id="PartSpecification-BillOfMaterial" style="stroke:#181818;stroke-width:1.0;"/></g><g id="link_PartSpecification_BomComponent"><path d="M666.27,236.77 C639.05,253.69 598.09,279.15 570.84,296.09 " fill="none" id="PartSpecification-BomComponent" style="stroke:#181818;stroke-width:1.0;"/></g><g id="link_ProductPackageTypes_PartSpecification"><path d="M1040.06,140.39 C959.81,158.23 837.21,185.49 761.66,202.29 " fill="none" id="ProductPackageTypes-PartSpecification" style="stroke:#181818;stroke-width:1.0;"/></g><g id="link_ProductStatusTypes_BillOfMaterial"><path d="M849.31,236.84 C797.3,273.23 678.59,356.27 626.63,392.61 " fill="none" id="ProductStatusTypes-BillOfMaterial" style="stroke:#181818;stroke-width:1.0;"/></g><g id="link_ProductStatusTypes_BomComponent"><path d="M812.44,236.88 C753.14,253.76 664.21,279.07 604.82,295.97 " fill="none" id="ProductStatusTypes-BomComponent" style="stroke:#181818;stroke-width:1.0;"/></g><g id="link_TextualDetail_BomComponent"><path d="M420.9557,242.8158 C449.9657,259.7358 483.25,279.15 512.3,296.09 " fill="none" id="TextualDetail-backto-BomComponent" style="stroke:#181818;stroke-width:1.0;"/><polygon fill="#181818" points="410.59,236.77,413.7576,243.2481,420.9557,242.8158,417.7881,236.3376,410.59,236.77" style="stroke:#181818;stroke-width:1.0;"/></g><g id="link_UOMQuantityCategoryTypes_UnitOfMeasure"><path d="M939.5,43.57 C939.5,60.52 939.5,86.18 939.5,103.19 " fill="none" id="UOMQuantityCategoryTypes-UnitOfMeasure" style="stroke:#181818;stroke-width:1.0;"/></g><g id="link_UnitOfMeasure_PartSpecification"><path d="M882.5041,144.7087 C838.7441,161.5887 784.32,182.58 740.49,199.48 " fill="none" id="UnitOfMeasure-backto-PartSpecification" style="stroke:#181818;stroke-width:1.0;"/><polygon fill="#181818" points="893.7,140.39,886.6625,138.8174,882.5041,144.7087,889.5416,146.2813,893.7,140.39" style="stroke:#181818;stroke-width:1.0;"/></g></g></svg>