<?xml version="1.0" encoding="us-ascii" standalone="no"?><svg xmlns="http://www.w3.org/2000/svg" xmlns:xlink="http://www.w3.org/1999/xlink" contentStyleType="text/css" height="338px" preserveAspectRatio="none" style="width:1498px;height:338px;background:#FFFFFF;" version="1.1" viewBox="0 0 1498 338" width="1498px" zoomAndPan="magnify"><defs/><g><g id="elem_ControlAccount"><rect fill="#F1F1F1" height="36.4883" rx="2.5" ry="2.5" style="stroke:#181818;stroke-width:0.5;" width="128" x="471" y="103.49"/><text fill="#000000" font-family="sans-serif" font-size="14" lengthAdjust="spacing" textLength="108" x="481" y="127.0252">ControlAccount</text></g><g id="elem_Identifier"><rect fill="#F1F1F1" height="36.4883" rx="2.5" ry="2.5" style="stroke:#181818;stroke-width:0.5;" width="82" x="662" y="7"/><text fill="#000000" font-family="sans-serif" font-size="14" lengthAdjust="spacing" textLength="62" x="672" y="30.5352">Identifier</text></g><g id="elem_JournalEntry"><rect fill="#F1F1F1" height="36.4883" rx="2.5" ry="2.5" style="stroke:#181818;stroke-width:0.5;" width="104" x="1018" y="199.97"/><text fill="#000000" font-family="sans-serif" font-size="14" lengthAdjust="spacing" textLength="84" x="1028" y="223.5052">JournalEntry</text></g><g id="elem_JournalEntryTransaction"><rect fill="#F1F1F1" height="36.4883" rx="2.5" ry="2.5" style="stroke:#181818;stroke-width:0.5;" width="185" x="1029.5" y="296.46"/><text fill="#000000" font-family="sans-serif" font-size="14" lengthAdjust="spacing" textLength="165" x="1039.5" y="319.9952">JournalEntryTransaction</text></g><g id="elem_Money"><rect fill="#F1F1F1" height="36.4883" rx="2.5" ry="2.5" style="stroke:#181818;stroke-width:0.5;" width="65" x="1427.5" y="103.49"/><text fill="#000000" font-family="sans-serif" font-size="14" lengthAdjust="spacing" textLength="45" x="1437.5" y="127.0252">Money</text></g><g id="elem_PartyIdentifier"><rect fill="#F1F1F1" height="36.4883" rx="2.5" ry="2.5" style="stroke:#181818;stroke-width:0.5;" width="116" x="756" y="103.49"/><text fill="#000000" font-family="sans-serif" font-size="14" lengthAdjust="spacing" textLength="96" x="766" y="127.0252">PartyIdentifier</text></g><g id="elem_ControlAccountRoleTypes"><rect fill="#FAFF91" height="36.4883" rx="2.5" ry="2.5" style="stroke:#181818;stroke-width:0.5;" width="198" x="7" y="7"/><text fill="#000000" font-family="sans-serif" font-size="14" lengthAdjust="spacing" textLength="178" x="17" y="30.5352">ControlAccountRoleTypes</text></g><g id="elem_ControlAccountTypes"><rect fill="#FAFF91" height="36.4883" rx="2.5" ry="2.5" style="stroke:#181818;stroke-width:0.5;" width="168" x="240" y="7"/><text fill="#000000" font-family="sans-serif" font-size="14" lengthAdjust="spacing" textLength="148" x="250" y="30.5352">ControlAccountTypes</text></g><g id="elem_EntryResourceTypes"><rect fill="#FAFF91" height="36.4883" rx="2.5" ry="2.5" style="stroke:#181818;stroke-width:0.5;" width="158" x="907" y="103.49"/><text fill="#000000" font-family="sans-serif" font-size="14" lengthAdjust="spacing" textLength="138" x="917" y="127.0252">EntryResourceTypes</text></g><g id="elem_FinancialCategoryTypes"><rect fill="#FAFF91" height="36.4883" rx="2.5" ry="2.5" style="stroke:#181818;stroke-width:0.5;" width="183" x="443.5" y="7"/><text fill="#000000" font-family="sans-serif" font-size="14" lengthAdjust="spacing" textLength="163" x="453.5" y="30.5352">FinancialCategoryTypes</text></g><g id="elem_JournalTypes"><rect fill="#FAFF91" height="36.4883" rx="2.5" ry="2.5" style="stroke:#181818;stroke-width:0.5;" width="109" x="1099.5" y="103.49"/><text fill="#000000" font-family="sans-serif" font-size="14" lengthAdjust="spacing" textLength="89" x="1109.5" y="127.0252">JournalTypes</text></g><g id="elem_OrganizationTypes"><rect fill="#FAFF91" height="36.4883" rx="2.5" ry="2.5" style="stroke:#181818;stroke-width:0.5;" width="150" x="1243" y="103.49"/><text fill="#000000" font-family="sans-serif" font-size="14" lengthAdjust="spacing" textLength="130" x="1253" y="127.0252">OrganizationTypes</text></g><g id="elem_PartyRelationshipTypes"><rect fill="#FAFF91" height="36.4883" rx="2.5" ry="2.5" style="stroke:#181818;stroke-width:0.5;" width="179" x="779.5" y="7"/><text fill="#000000" font-family="sans-serif" font-size="14" lengthAdjust="spacing" textLength="159" x="789.5" y="30.5352">PartyRelationshipTypes</text></g><g id="link_ControlAccountRoleTypes_ControlAccount"><path d="M186.44,43.96 C268.69,62.07 394.83,89.86 470.68,106.56 " fill="none" id="ControlAccountRoleTypes-ControlAccount" style="stroke:#181818;stroke-width:1.0;"/></g><g id="link_ControlAccountTypes_ControlAccount"><path d="M363.19,43.79 C400.97,60.71 457.83,86.17 495.66,103.11 " fill="none" id="ControlAccountTypes-ControlAccount" style="stroke:#181818;stroke-width:1.0;"/></g><g id="link_ControlAccount_JournalEntry"><path d="M611.0872,136.1667 C718.1172,155.0667 919.01,190.55 1017.59,207.96 " fill="none" id="ControlAccount-backto-JournalEntry" style="stroke:#181818;stroke-width:1.0;"/><polygon fill="#181818" points="599.27,134.08,604.483,139.0624,611.0872,136.1667,605.8742,131.1843,599.27,134.08" style="stroke:#181818;stroke-width:1.0;"/></g><g id="link_EntryResourceTypes_JournalEntry"><path d="M1001.41,140.06 C1016.47,157 1039.28,182.66 1054.41,199.68 " fill="none" id="EntryResourceTypes-JournalEntry" style="stroke:#181818;stroke-width:1.0;"/></g><g id="link_FinancialCategoryTypes_ControlAccount"><path d="M535,43.57 C535,60.51 535,86.17 535,103.19 " fill="none" id="FinancialCategoryTypes-ControlAccount" style="stroke:#181818;stroke-width:1.0;"/></g><g id="link_Identifier_ControlAccount"><path d="M661.3311,49.6731 C631.2511,66.5931 596.44,86.17 566.32,103.11 " fill="none" id="Identifier-backto-ControlAccount" style="stroke:#181818;stroke-width:1.0;"/><polygon fill="#181818" points="671.79,43.79,664.5995,43.2453,661.3311,49.6731,668.5216,50.2179,671.79,43.79" style="stroke:#181818;stroke-width:1.0;"/></g><g id="link_Identifier_JournalEntry"><path d="M704.1462,55.6468 C705.7062,80.6868 711.64,114.65 739,139.97 C779.17,177.15 934.92,201.01 1017.66,211.33 " fill="none" id="Identifier-backto-JournalEntry" style="stroke:#181818;stroke-width:1.0;"/><polygon fill="#181818" points="703.4,43.67,699.7808,49.9071,704.1462,55.6468,707.7653,49.4097,703.4,43.67" style="stroke:#181818;stroke-width:1.0;"/></g><g id="link_JournalEntry_JournalEntryTransaction"><path d="M1085.3245,247.0638 C1094.6445,264.0038 1102.98,279.15 1112.35,296.17 " fill="none" id="JournalEntry-backto-JournalEntryTransaction" style="stroke:#181818;stroke-width:1.0;"/><polygon fill="#181818" points="1079.54,236.55,1078.9276,243.7351,1085.3245,247.0638,1085.9368,239.8788,1079.54,236.55" style="stroke:#181818;stroke-width:1.0;"/></g><g id="link_JournalTypes_JournalEntry"><path d="M1138.59,140.06 C1123.53,157 1100.72,182.66 1085.59,199.68 " fill="none" id="JournalTypes-JournalEntry" style="stroke:#181818;stroke-width:1.0;"/></g><g id="link_Money_JournalEntry"><path d="M1427.08,134.65 C1421.42,136.54 1415.56,138.39 1410,139.97 C1309.29,168.69 1189.43,193.87 1122.29,207.18 " fill="none" id="Money-JournalEntry" style="stroke:#181818;stroke-width:1.0;"/></g><g id="link_Money_JournalEntryTransaction"><path d="M1428.81,140.35 C1364.42,176.74 1217.44,259.78 1153.12,296.12 " fill="none" id="Money-JournalEntryTransaction" style="stroke:#181818;stroke-width:1.0;"/></g><g id="link_OrganizationTypes_JournalEntry"><path d="M1271.64,140.39 C1227.34,157.27 1160.92,182.58 1116.55,199.48 " fill="none" id="OrganizationTypes-JournalEntry" style="stroke:#181818;stroke-width:1.0;"/></g><g id="link_PartyIdentifier_JournalEntry"><path d="M873.1076,144.5454 C918.8376,161.4254 976.15,182.58 1021.95,199.48 " fill="none" id="PartyIdentifier-backto-JournalEntry" style="stroke:#181818;stroke-width:1.0;"/><polygon fill="#181818" points="861.85,140.39,866.0936,146.2202,873.1076,144.5454,868.8639,138.7152,861.85,140.39" style="stroke:#181818;stroke-width:1.0;"/></g><g id="link_PartyRelationshipTypes_PartyIdentifier"><path d="M852.8734,53.9411 C843.0134,70.8811 834.11,86.17 824.21,103.19 " fill="none" id="PartyRelationshipTypes-backto-PartyIdentifier" style="stroke:#181818;stroke-width:1.0;"/><polygon fill="#181818" points="858.91,43.57,852.4347,46.7434,852.8734,53.9411,859.3488,50.7677,858.91,43.57" style="stroke:#181818;stroke-width:1.0;"/></g></g></svg>