<?xml version="1.0" encoding="us-ascii" standalone="no"?><svg xmlns="http://www.w3.org/2000/svg" xmlns:xlink="http://www.w3.org/1999/xlink" contentStyleType="text/css" height="531px" preserveAspectRatio="none" style="width:1153px;height:531px;background:#FFFFFF;" version="1.1" viewBox="0 0 1153 531" width="1153px" zoomAndPan="magnify"><defs/><g><g id="elem_BillOfMaterial"><rect fill="#F1F1F1" height="36.4883" rx="2.5" ry="2.5" style="stroke:#181818;stroke-width:0.5;" width="111" x="166.5" y="296.47"/><text fill="#000000" font-family="sans-serif" font-size="14" lengthAdjust="spacing" textLength="91" x="176.5" y="320.0052">BillOfMaterial</text></g><g id="elem_Identifier"><rect fill="#F1F1F1" height="36.4883" rx="2.5" ry="2.5" style="stroke:#181818;stroke-width:0.5;" width="82" x="7" y="103.49"/><text fill="#000000" font-family="sans-serif" font-size="14" lengthAdjust="spacing" textLength="62" x="17" y="127.0252">Identifier</text></g><g id="elem_PartIdentifier"><rect fill="#F1F1F1" height="36.4883" rx="2.5" ry="2.5" style="stroke:#181818;stroke-width:0.5;" width="109" x="239.5" y="199.98"/><text fill="#000000" font-family="sans-serif" font-size="14" lengthAdjust="spacing" textLength="89" x="249.5" y="223.5152">PartIdentifier</text></g><g id="elem_PartName"><rect fill="#F1F1F1" height="36.4883" rx="2.5" ry="2.5" style="stroke:#181818;stroke-width:0.5;" width="86" x="359" y="103.49"/><text fill="#000000" font-family="sans-serif" font-size="14" lengthAdjust="spacing" textLength="66" x="369" y="127.0252">PartName</text></g><g id="elem_PartPriceCriteria"><rect fill="#F1F1F1" height="36.4883" rx="2.5" ry="2.5" style="stroke:#181818;stroke-width:0.5;" width="131" x="454.5" y="296.47"/><text fill="#000000" font-family="sans-serif" font-size="14" lengthAdjust="spacing" textLength="111" x="464.5" y="320.0052">PartPriceCriteria</text></g><g id="elem_PartSearchResponse"><rect fill="#F1F1F1" height="36.4883" rx="2.5" ry="2.5" style="stroke:#181818;stroke-width:0.5;" width="159" x="119.5" y="489.44"/><text fill="#000000" font-family="sans-serif" font-size="14" lengthAdjust="spacing" textLength="139" x="129.5" y="512.9752">PartSearchResponse</text></g><g id="elem_PartSearchResult"><rect fill="#F1F1F1" height="36.4883" rx="2.5" ry="2.5" style="stroke:#181818;stroke-width:0.5;" width="135" x="393.5" y="392.95"/><text fill="#000000" font-family="sans-serif" font-size="14" lengthAdjust="spacing" textLength="115" x="403.5" y="416.4852">PartSearchResult</text></g><g id="elem_PartConditionTypes"><rect fill="#FAFF91" height="36.4883" rx="2.5" ry="2.5" style="stroke:#181818;stroke-width:0.5;" width="155" x="620.5" y="296.47"/><text fill="#000000" font-family="sans-serif" font-size="14" lengthAdjust="spacing" textLength="135" x="630.5" y="320.0052">PartConditionTypes</text></g><g id="elem_PartIdentifierTypes"><rect fill="#FAFF91" height="36.4883" rx="2.5" ry="2.5" style="stroke:#181818;stroke-width:0.5;" width="149" x="175.5" y="103.49"/><text fill="#000000" font-family="sans-serif" font-size="14" lengthAdjust="spacing" textLength="129" x="185.5" y="127.0252">PartIdentifierTypes</text></g><g id="elem_PartNameTypes"><rect fill="#FAFF91" height="36.4883" rx="2.5" ry="2.5" style="stroke:#181818;stroke-width:0.5;" width="126" x="339" y="7"/><text fill="#000000" font-family="sans-serif" font-size="14" lengthAdjust="spacing" textLength="106" x="349" y="30.5352">PartNameTypes</text></g><g id="elem_PartStatusTypes"><rect fill="#FAFF91" height="36.4883" rx="2.5" ry="2.5" style="stroke:#181818;stroke-width:0.5;" width="129" x="810.5" y="296.47"/><text fill="#000000" font-family="sans-serif" font-size="14" lengthAdjust="spacing" textLength="109" x="820.5" y="320.0052">PartStatusTypes</text></g><g id="elem_PriceTypes"><rect fill="#FAFF91" height="36.4883" rx="2.5" ry="2.5" style="stroke:#181818;stroke-width:0.5;" width="93" x="464.5" y="199.98"/><text fill="#000000" font-family="sans-serif" font-size="14" lengthAdjust="spacing" textLength="73" x="474.5" y="223.5152">PriceTypes</text></g><g id="elem_ProductStatusTypes"><rect fill="#FAFF91" height="36.4883" rx="2.5" ry="2.5" style="stroke:#181818;stroke-width:0.5;" width="155" x="49.5" y="199.98"/><text fill="#000000" font-family="sans-serif" font-size="14" lengthAdjust="spacing" textLength="135" x="59.5" y="223.5152">ProductStatusTypes</text></g><g id="elem_ShippingMethodTypes"><rect fill="#FAFF91" height="36.4883" rx="2.5" ry="2.5" style="stroke:#181818;stroke-width:0.5;" width="173" x="974.5" y="296.47"/><text fill="#000000" font-family="sans-serif" font-size="14" lengthAdjust="spacing" textLength="153" x="984.5" y="320.0052">ShippingMethodTypes</text></g><g id="elem_WarrantyTypes"><rect fill="#FAFF91" height="36.4883" rx="2.5" ry="2.5" style="stroke:#181818;stroke-width:0.5;" width="121" x="592.5" y="199.98"/><text fill="#000000" font-family="sans-serif" font-size="14" lengthAdjust="spacing" textLength="101" x="602.5" y="223.5152">WarrantyTypes</text></g><g id="link_BillOfMaterial_PartSearchResult"><path d="M266.67,333.37 C309.37,350.25 373.38,375.56 416.14,392.46 " fill="none" id="BillOfMaterial-PartSearchResult" style="stroke:#181818;stroke-width:1.0;"/></g><g id="link_Identifier_PartIdentifier"><path d="M100.6517,142.9538 C144.6117,159.8438 202.65,182.13 248.19,199.63 " fill="none" id="Identifier-backto-PartIdentifier" style="stroke:#181818;stroke-width:1.0;"/><polygon fill="#181818" points="89.45,138.65,93.6162,144.5358,100.6517,142.9538,96.4854,137.068,89.45,138.65" style="stroke:#181818;stroke-width:1.0;"/></g><g id="link_Identifier_PartSearchResponse"><path d="M37.1239,151.7126 C29.2439,174.3426 22.57,203.28 32,236.47 C62.22,342.83 147.54,448.34 183.12,489.09 " fill="none" id="Identifier-backto-PartSearchResponse" style="stroke:#181818;stroke-width:1.0;"/><polygon fill="#181818" points="41.07,140.38,35.3194,144.7309,37.1239,151.7126,42.8745,147.3617,41.07,140.38" style="stroke:#181818;stroke-width:1.0;"/></g><g id="link_PartConditionTypes_PartSearchResult"><path d="M653.7,333.37 C611.36,350.25 547.88,375.56 505.48,392.46 " fill="none" id="PartConditionTypes-PartSearchResult" style="stroke:#181818;stroke-width:1.0;"/></g><g id="link_PartIdentifierTypes_PartIdentifier"><path d="M258.07,140.06 C265.96,157.01 277.91,182.67 285.83,199.68 " fill="none" id="PartIdentifierTypes-PartIdentifier" style="stroke:#181818;stroke-width:1.0;"/></g><g id="link_PartIdentifier_BillOfMaterial"><path d="M273.5163,246.0943 C260.6063,263.0343 248.33,279.15 235.37,296.17 " fill="none" id="PartIdentifier-backto-BillOfMaterial" style="stroke:#181818;stroke-width:1.0;"/><polygon fill="#181818" points="280.79,236.55,273.9717,238.8976,273.5163,246.0943,280.3346,243.7467,280.79,236.55" style="stroke:#181818;stroke-width:1.0;"/></g><g id="link_PartIdentifier_PartSearchResult"><path d="M311.3958,246.7263 C326.2158,269.7963 347.63,301.18 376,332.95 C395.79,355.11 421.34,377.65 439.24,392.61 " fill="none" id="PartIdentifier-backto-PartSearchResult" style="stroke:#181818;stroke-width:1.0;"/><polygon fill="#181818" points="304.91,236.63,304.7875,243.8401,311.3958,246.7263,311.5183,239.5162,304.91,236.63" style="stroke:#181818;stroke-width:1.0;"/></g><g id="link_PartNameTypes_PartName"><path d="M402,43.57 C402,60.52 402,86.18 402,103.19 " fill="none" id="PartNameTypes-PartName" style="stroke:#181818;stroke-width:1.0;"/></g><g id="link_PartName_PartIdentifier"><path d="M372.9102,148.1834 C353.5102,165.1634 333.32,182.82 313.95,199.76 " fill="none" id="PartName-backto-PartIdentifier" style="stroke:#181818;stroke-width:1.0;"/><polygon fill="#181818" points="381.94,140.28,374.7907,141.2218,372.9102,148.1834,380.0596,147.2416,381.94,140.28" style="stroke:#181818;stroke-width:1.0;"/></g><g id="link_PartName_PartSearchResult"><path d="M405.5924,152.2481 C410.1124,188.5581 420.25,262.4 437,332.95 C441.93,353.72 449.47,377.06 454.78,392.59 " fill="none" id="PartName-backto-PartSearchResult" style="stroke:#181818;stroke-width:1.0;"/><polygon fill="#181818" points="404.11,140.34,400.8818,146.7882,405.5924,152.2481,408.8205,145.7999,404.11,140.34" style="stroke:#181818;stroke-width:1.0;"/></g><g id="link_PartPriceCriteria_PartSearchResult"><path d="M509.18,333.04 C498.6,349.98 482.58,375.64 471.95,392.66 " fill="none" id="PartPriceCriteria-PartSearchResult" style="stroke:#181818;stroke-width:1.0;"/></g><g id="link_PartSearchResult_PartSearchResponse"><path d="M400.7415,433.9307 C353.9315,450.8107 295.05,472.05 248.18,488.95 " fill="none" id="PartSearchResult-backto-PartSearchResponse" style="stroke:#181818;stroke-width:1.0;"/><polygon fill="#181818" points="412.03,429.86,405.0289,428.1325,400.7415,433.9307,407.7427,435.6582,412.03,429.86" style="stroke:#181818;stroke-width:1.0;"/></g><g id="link_PartStatusTypes_PartSearchResult"><path d="M810.31,330.47 C733.67,347.96 606.59,376.97 528.67,394.75 " fill="none" id="PartStatusTypes-PartSearchResult" style="stroke:#181818;stroke-width:1.0;"/></g><g id="link_PriceTypes_PartPriceCriteria"><path d="M513.7854,248.4962 C515.3954,265.4362 516.71,279.15 518.33,296.17 " fill="none" id="PriceTypes-backto-PartPriceCriteria" style="stroke:#181818;stroke-width:1.0;"/><polygon fill="#181818" points="512.65,236.55,509.2356,242.9015,513.7854,248.4962,517.1997,242.1446,512.65,236.55" style="stroke:#181818;stroke-width:1.0;"/></g><g id="link_ProductStatusTypes_BillOfMaterial"><path d="M144.42,236.55 C161.46,253.49 187.26,279.15 204.36,296.17 " fill="none" id="ProductStatusTypes-BillOfMaterial" style="stroke:#181818;stroke-width:1.0;"/></g><g id="link_ShippingMethodTypes_PartSearchResult"><path d="M962.3467,332.1032 C956.5267,333.0532 962.6,332.05 957,332.95 C804.06,357.54 624.38,385.22 528.83,399.85 " fill="none" id="ShippingMethodTypes-backto-PartSearchResult" style="stroke:#181818;stroke-width:1.0;"/><polygon fill="#181818" points="974.19,330.17,967.624,327.1888,962.3467,332.1032,968.9128,335.0843,974.19,330.17" style="stroke:#181818;stroke-width:1.0;"/></g><g id="link_WarrantyTypes_PartPriceCriteria"><path d="M618.517,243.7193 C594.627,260.6893 568.42,279.31 544.57,296.25 " fill="none" id="WarrantyTypes-backto-PartPriceCriteria" style="stroke:#181818;stroke-width:1.0;"/><polygon fill="#181818" points="628.3,236.77,621.0921,236.9836,618.517,243.7193,625.7249,243.5056,628.3,236.77" style="stroke:#181818;stroke-width:1.0;"/></g></g></svg>