<?xml version="1.0" encoding="us-ascii" standalone="no"?><svg xmlns="http://www.w3.org/2000/svg" xmlns:xlink="http://www.w3.org/1999/xlink" contentStyleType="text/css" height="1803px" preserveAspectRatio="none" style="width:975px;height:1803px;background:#FFFFFF;" version="1.1" viewBox="0 0 975 1803" width="975px" zoomAndPan="magnify"><defs/><g><g id="elem_Address"><rect codeLine="1" fill="#F1F1F1" height="493.1836" id="Address" rx="2.5" ry="2.5" style="stroke:#181818;stroke-width:0.5;" width="264" x="477" y="1063.9"/><ellipse cx="576.75" cy="1079.9" fill="#ADD1B2" rx="11" ry="11" style="stroke:#181818;stroke-width:1.0;"/><path d="M579.2231,1086.0431 Q578.6421,1086.3419 578.0029,1086.4913 Q577.3638,1086.6407 576.6582,1086.6407 Q574.1514,1086.6407 572.8315,1084.9889 Q571.5117,1083.337 571.5117,1080.2159 Q571.5117,1077.0865 572.8315,1075.4347 Q574.1514,1073.7828 576.6582,1073.7828 Q577.3638,1073.7828 578.0112,1073.9322 Q578.6587,1074.0816 579.2231,1074.3805 L579.2231,1077.1031 Q578.5923,1076.5221 577.9988,1076.2523 Q577.4053,1075.9825 576.7744,1075.9825 Q575.4297,1075.9825 574.7449,1077.0492 Q574.0601,1078.1158 574.0601,1080.2159 Q574.0601,1082.3077 574.7449,1083.3744 Q575.4297,1084.441 576.7744,1084.441 Q577.4053,1084.441 577.9988,1084.1712 Q578.5923,1083.9015 579.2231,1083.3204 Z " fill="#000000"/><text fill="#000000" font-family="sans-serif" font-size="14" lengthAdjust="spacing" textLength="56" x="597.25" y="1085.191">Address</text><line style="stroke:#181818;stroke-width:0.5;" x1="478" x2="740" y1="1095.9" y2="1095.9"/><text fill="#000000" font-family="sans-serif" font-size="14" lengthAdjust="spacing" textLength="252" x="483" y="1113.4352">addressLocales:List&lt;AddressLocale&gt;</text><text fill="#000000" font-family="sans-serif" font-size="14" lengthAdjust="spacing" textLength="95" x="483" y="1129.9234">priority:String</text><text fill="#000000" font-family="sans-serif" font-size="14" lengthAdjust="spacing" textLength="104" x="483" y="1146.4117">cityCode:String</text><text fill="#000000" font-family="sans-serif" font-size="14" lengthAdjust="spacing" textLength="123" x="483" y="1162.9">addressKey:String</text><text fill="#000000" font-family="sans-serif" font-size="14" lengthAdjust="spacing" textLength="112" x="483" y="1179.3883">addressId:String</text><text fill="#000000" font-family="sans-serif" font-size="14" lengthAdjust="spacing" textLength="135" x="483" y="1195.8766">addressInput:String</text><text fill="#000000" font-family="sans-serif" font-size="14" lengthAdjust="spacing" textLength="136" x="483" y="1212.3648">addressLine1:String</text><text fill="#000000" font-family="sans-serif" font-size="14" lengthAdjust="spacing" textLength="136" x="483" y="1228.8531">addressLine2:String</text><text fill="#000000" font-family="sans-serif" font-size="14" lengthAdjust="spacing" textLength="136" x="483" y="1245.3414">addressLine3:String</text><text fill="#000000" font-family="sans-serif" font-size="14" lengthAdjust="spacing" textLength="136" x="483" y="1261.8297">addressLine4:String</text><text fill="#000000" font-family="sans-serif" font-size="14" lengthAdjust="spacing" textLength="136" x="483" y="1278.318">addressLine5:String</text><text fill="#000000" font-family="sans-serif" font-size="14" lengthAdjust="spacing" textLength="239" x="483" y="1294.8062">addressTypes:List&lt;AddressTypes&gt;</text><text fill="#000000" font-family="sans-serif" font-size="14" lengthAdjust="spacing" textLength="244" x="483" y="1311.2945">authorizations:List&lt;Authorization&gt;</text><text fill="#000000" font-family="sans-serif" font-size="14" lengthAdjust="spacing" textLength="68" x="483" y="1327.7828">city:String</text><text fill="#000000" font-family="sans-serif" font-size="14" lengthAdjust="spacing" textLength="147" x="483" y="1344.2711">citySubdivision:String</text><text fill="#000000" font-family="sans-serif" font-size="14" lengthAdjust="spacing" textLength="97" x="483" y="1360.7594">country:String</text><text fill="#000000" font-family="sans-serif" font-size="14" lengthAdjust="spacing" textLength="133" x="483" y="1377.2477">countryCode:String</text><text fill="#000000" font-family="sans-serif" font-size="14" lengthAdjust="spacing" textLength="91" x="483" y="1393.7359">county:String</text><text fill="#000000" font-family="sans-serif" font-size="14" lengthAdjust="spacing" textLength="127" x="483" y="1410.2242">countyCode:String</text><text fill="#000000" font-family="sans-serif" font-size="14" lengthAdjust="spacing" textLength="78" x="483" y="1426.7125">label:String</text><text fill="#000000" font-family="sans-serif" font-size="14" lengthAdjust="spacing" textLength="115" x="483" y="1443.2008">position:Position</text><text fill="#000000" font-family="sans-serif" font-size="14" lengthAdjust="spacing" textLength="123" x="483" y="1459.6891">postalCode:String</text><text fill="#000000" font-family="sans-serif" font-size="14" lengthAdjust="spacing" textLength="145" x="483" y="1476.1773">postalCodeExt:String</text><text fill="#000000" font-family="sans-serif" font-size="14" lengthAdjust="spacing" textLength="185" x="483" y="1492.6656">preferredIndicator:Boolean</text><text fill="#000000" font-family="sans-serif" font-size="14" lengthAdjust="spacing" textLength="90" x="483" y="1509.1539">region:String</text><text fill="#000000" font-family="sans-serif" font-size="14" lengthAdjust="spacing" textLength="78" x="483" y="1525.6422">state:String</text><text fill="#000000" font-family="sans-serif" font-size="14" lengthAdjust="spacing" textLength="85" x="483" y="1542.1305">locale:String</text><line style="stroke:#181818;stroke-width:0.5;" x1="478" x2="740" y1="1549.0836" y2="1549.0836"/></g><g id="elem_AddressLocale"><rect codeLine="30" fill="#F1F1F1" height="130.4414" id="AddressLocale" rx="2.5" ry="2.5" style="stroke:#181818;stroke-width:0.5;" width="202" x="164" y="675.6"/><ellipse cx="211.25" cy="691.6" fill="#ADD1B2" rx="11" ry="11" style="stroke:#181818;stroke-width:1.0;"/><path d="M213.7231,697.7431 Q213.1421,698.0419 212.5029,698.1913 Q211.8638,698.3407 211.1582,698.3407 Q208.6514,698.3407 207.3315,696.6889 Q206.0117,695.037 206.0117,691.9159 Q206.0117,688.7865 207.3315,687.1347 Q208.6514,685.4828 211.1582,685.4828 Q211.8638,685.4828 212.5112,685.6322 Q213.1587,685.7816 213.7231,686.0805 L213.7231,688.8031 Q213.0923,688.2221 212.4988,687.9523 Q211.9053,687.6825 211.2744,687.6825 Q209.9297,687.6825 209.2449,688.7492 Q208.5601,689.8158 208.5601,691.9159 Q208.5601,694.0077 209.2449,695.0744 Q209.9297,696.141 211.2744,696.141 Q211.9053,696.141 212.4988,695.8712 Q213.0923,695.6015 213.7231,695.0204 Z " fill="#000000"/><text fill="#000000" font-family="sans-serif" font-size="14" lengthAdjust="spacing" textLength="99" x="231.75" y="696.891">AddressLocale</text><line style="stroke:#181818;stroke-width:0.5;" x1="165" x2="365" y1="707.6" y2="707.6"/><text fill="#000000" font-family="sans-serif" font-size="14" lengthAdjust="spacing" textLength="166" x="170" y="725.1352">addressLocaleKey:String</text><text fill="#000000" font-family="sans-serif" font-size="14" lengthAdjust="spacing" textLength="155" x="170" y="741.6234">addressLocaleId:String</text><text fill="#000000" font-family="sans-serif" font-size="14" lengthAdjust="spacing" textLength="126" x="170" y="758.1117">regionCode:String</text><text fill="#000000" font-family="sans-serif" font-size="14" lengthAdjust="spacing" textLength="129" x="170" y="774.6">regionName:String</text><text fill="#000000" font-family="sans-serif" font-size="14" lengthAdjust="spacing" textLength="190" x="170" y="791.0883">locationType:LocationTypes</text><line style="stroke:#181818;stroke-width:0.5;" x1="165" x2="365" y1="798.0414" y2="798.0414"/></g><g id="elem_Authorization"><rect codeLine="37" fill="#F1F1F1" height="97.4648" id="Authorization" rx="2.5" ry="2.5" style="stroke:#181818;stroke-width:0.5;" width="207" x="401.5" y="692.09"/><ellipse cx="453.25" cy="708.09" fill="#ADD1B2" rx="11" ry="11" style="stroke:#181818;stroke-width:1.0;"/><path d="M455.7231,714.2331 Q455.1421,714.5319 454.5029,714.6813 Q453.8638,714.8307 453.1582,714.8307 Q450.6514,714.8307 449.3315,713.1789 Q448.0117,711.527 448.0117,708.4059 Q448.0117,705.2765 449.3315,703.6247 Q450.6514,701.9728 453.1582,701.9728 Q453.8638,701.9728 454.5112,702.1222 Q455.1587,702.2716 455.7231,702.5705 L455.7231,705.2931 Q455.0923,704.7121 454.4988,704.4423 Q453.9053,704.1725 453.2744,704.1725 Q451.9297,704.1725 451.2449,705.2392 Q450.5601,706.3058 450.5601,708.4059 Q450.5601,710.4977 451.2449,711.5644 Q451.9297,712.631 453.2744,712.631 Q453.9053,712.631 454.4988,712.3612 Q455.0923,712.0915 455.7231,711.5104 Z " fill="#000000"/><text fill="#000000" font-family="sans-serif" font-size="14" lengthAdjust="spacing" textLength="95" x="473.75" y="713.381">Authorization</text><line style="stroke:#181818;stroke-width:0.5;" x1="402.5" x2="607.5" y1="724.09" y2="724.09"/><text fill="#000000" font-family="sans-serif" font-size="14" lengthAdjust="spacing" textLength="148" x="407.5" y="741.6252">updateDateTime:Date</text><text fill="#000000" font-family="sans-serif" font-size="14" lengthAdjust="spacing" textLength="195" x="407.5" y="758.1134">authorizedIndicator:Boolean</text><text fill="#000000" font-family="sans-serif" font-size="14" lengthAdjust="spacing" textLength="162" x="407.5" y="774.6017">authorizationKey:String</text><line style="stroke:#181818;stroke-width:0.5;" x1="402.5" x2="607.5" y1="781.5548" y2="781.5548"/></g><g id="elem_Identifier"><rect codeLine="42" fill="#F1F1F1" height="146.9297" id="Identifier" rx="2.5" ry="2.5" style="stroke:#181818;stroke-width:0.5;" width="152" x="7" y="1237.03"/><ellipse cx="48.1" cy="1253.03" fill="#ADD1B2" rx="11" ry="11" style="stroke:#181818;stroke-width:1.0;"/><path d="M50.5731,1259.1731 Q49.9921,1259.4719 49.3529,1259.6213 Q48.7138,1259.7707 48.0082,1259.7707 Q45.5014,1259.7707 44.1815,1258.1189 Q42.8617,1256.467 42.8617,1253.3459 Q42.8617,1250.2165 44.1815,1248.5647 Q45.5014,1246.9128 48.0082,1246.9128 Q48.7138,1246.9128 49.3612,1247.0622 Q50.0087,1247.2116 50.5731,1247.5105 L50.5731,1250.2331 Q49.9423,1249.6521 49.3488,1249.3823 Q48.7553,1249.1125 48.1244,1249.1125 Q46.7797,1249.1125 46.0949,1250.1792 Q45.4101,1251.2458 45.4101,1253.3459 Q45.4101,1255.4377 46.0949,1256.5044 Q46.7797,1257.571 48.1244,1257.571 Q48.7553,1257.571 49.3488,1257.3012 Q49.9423,1257.0315 50.5731,1256.4504 Z " fill="#000000"/><text fill="#000000" font-family="sans-serif" font-size="14" lengthAdjust="spacing" textLength="62" x="67.9" y="1258.321">Identifier</text><line style="stroke:#181818;stroke-width:0.5;" x1="8" x2="158" y1="1269.03" y2="1269.03"/><text fill="#000000" font-family="sans-serif" font-size="14" lengthAdjust="spacing" textLength="120" x="13" y="1286.5652">identifierId:String</text><text fill="#000000" font-family="sans-serif" font-size="14" lengthAdjust="spacing" textLength="131" x="13" y="1303.0534">identifierKey:String</text><text fill="#000000" font-family="sans-serif" font-size="14" lengthAdjust="spacing" textLength="97" x="13" y="1319.5417">context:String</text><text fill="#000000" font-family="sans-serif" font-size="14" lengthAdjust="spacing" textLength="81" x="13" y="1336.03">value:String</text><text fill="#000000" font-family="sans-serif" font-size="14" lengthAdjust="spacing" textLength="83" x="13" y="1352.5183">detail:String</text><text fill="#000000" font-family="sans-serif" font-size="14" lengthAdjust="spacing" textLength="140" x="13" y="1369.0066">identifierType:String</text><line style="stroke:#181818;stroke-width:0.5;" x1="8" x2="158" y1="1375.9597" y2="1375.9597"/></g><g id="elem_Position"><rect codeLine="50" fill="#F1F1F1" height="163.418" id="Position" rx="2.5" ry="2.5" style="stroke:#181818;stroke-width:0.5;" width="137" x="643.5" y="659.11"/><ellipse cx="681" cy="675.11" fill="#ADD1B2" rx="11" ry="11" style="stroke:#181818;stroke-width:1.0;"/><path d="M683.4731,681.2531 Q682.8921,681.5519 682.2529,681.7013 Q681.6138,681.8507 680.9082,681.8507 Q678.4014,681.8507 677.0815,680.1989 Q675.7617,678.547 675.7617,675.4259 Q675.7617,672.2965 677.0815,670.6447 Q678.4014,668.9928 680.9082,668.9928 Q681.6138,668.9928 682.2612,669.1422 Q682.9087,669.2916 683.4731,669.5905 L683.4731,672.3131 Q682.8423,671.7321 682.2488,671.4623 Q681.6553,671.1925 681.0244,671.1925 Q679.6797,671.1925 678.9949,672.2592 Q678.3101,673.3258 678.3101,675.4259 Q678.3101,677.5177 678.9949,678.5844 Q679.6797,679.651 681.0244,679.651 Q681.6553,679.651 682.2488,679.3812 Q682.8423,679.1115 683.4731,678.5304 Z " fill="#000000"/><text fill="#000000" font-family="sans-serif" font-size="14" lengthAdjust="spacing" textLength="55" x="700" y="680.401">Position</text><line style="stroke:#181818;stroke-width:0.5;" x1="644.5" x2="779.5" y1="691.11" y2="691.11"/><text fill="#000000" font-family="sans-serif" font-size="14" lengthAdjust="spacing" textLength="114" x="649.5" y="708.6452">positionId:String</text><text fill="#000000" font-family="sans-serif" font-size="14" lengthAdjust="spacing" textLength="125" x="649.5" y="725.1334">positionKey:String</text><text fill="#000000" font-family="sans-serif" font-size="14" lengthAdjust="spacing" textLength="97" x="649.5" y="741.6217">latitude:String</text><text fill="#000000" font-family="sans-serif" font-size="14" lengthAdjust="spacing" textLength="111" x="649.5" y="758.11">longitude:String</text><text fill="#000000" font-family="sans-serif" font-size="14" lengthAdjust="spacing" textLength="97" x="649.5" y="774.5983">altitude:String</text><text fill="#000000" font-family="sans-serif" font-size="14" lengthAdjust="spacing" textLength="98" x="649.5" y="791.0866">bearing:String</text><text fill="#000000" font-family="sans-serif" font-size="14" lengthAdjust="spacing" textLength="123" x="649.5" y="807.5748">postalCode:String</text><line style="stroke:#181818;stroke-width:0.5;" x1="644.5" x2="779.5" y1="814.528" y2="814.528"/></g><g id="elem_Warehouse"><rect codeLine="59" fill="#F1F1F1" height="179.9063" id="Warehouse" rx="2.5" ry="2.5" style="stroke:#181818;stroke-width:0.5;" width="292" x="172" y="1617.08"/><ellipse cx="275.75" cy="1633.08" fill="#ADD1B2" rx="11" ry="11" style="stroke:#181818;stroke-width:1.0;"/><path d="M278.2231,1639.2231 Q277.6421,1639.5219 277.0029,1639.6713 Q276.3638,1639.8207 275.6582,1639.8207 Q273.1514,1639.8207 271.8315,1638.1689 Q270.5117,1636.517 270.5117,1633.3959 Q270.5117,1630.2665 271.8315,1628.6147 Q273.1514,1626.9628 275.6582,1626.9628 Q276.3638,1626.9628 277.0112,1627.1122 Q277.6587,1627.2616 278.2231,1627.5605 L278.2231,1630.2831 Q277.5923,1629.7021 276.9988,1629.4323 Q276.4053,1629.1625 275.7744,1629.1625 Q274.4297,1629.1625 273.7449,1630.2292 Q273.0601,1631.2958 273.0601,1633.3959 Q273.0601,1635.4877 273.7449,1636.5544 Q274.4297,1637.621 275.7744,1637.621 Q276.4053,1637.621 276.9988,1637.3512 Q277.5923,1637.0815 278.2231,1636.5004 Z " fill="#000000"/><text fill="#000000" font-family="sans-serif" font-size="14" lengthAdjust="spacing" textLength="76" x="296.25" y="1638.371">Warehouse</text><line style="stroke:#181818;stroke-width:0.5;" x1="173" x2="463" y1="1649.08" y2="1649.08"/><text fill="#000000" font-family="sans-serif" font-size="14" lengthAdjust="spacing" textLength="133" x="178" y="1666.6152">warehouseId:String</text><text fill="#000000" font-family="sans-serif" font-size="14" lengthAdjust="spacing" textLength="144" x="178" y="1683.1034">warehouseKey:String</text><text fill="#000000" font-family="sans-serif" font-size="14" lengthAdjust="spacing" textLength="156" x="178" y="1699.5917">warehouseCode:String</text><text fill="#000000" font-family="sans-serif" font-size="14" lengthAdjust="spacing" textLength="159" x="178" y="1716.08">warehouseName:String</text><text fill="#000000" font-family="sans-serif" font-size="14" lengthAdjust="spacing" textLength="93" x="178" y="1732.5683">partyId:String</text><text fill="#000000" font-family="sans-serif" font-size="14" lengthAdjust="spacing" textLength="180" x="178" y="1749.0566">identifiers:List&lt;Identifier&gt;</text><text fill="#000000" font-family="sans-serif" font-size="14" lengthAdjust="spacing" textLength="280" x="178" y="1765.5448">warehouseTypes:List&lt;WarehouseTypes&gt;</text><text fill="#000000" font-family="sans-serif" font-size="14" lengthAdjust="spacing" textLength="174" x="178" y="1782.0331">addresses:List&lt;Address&gt;</text><line style="stroke:#181818;stroke-width:0.5;" x1="173" x2="463" y1="1788.9863" y2="1788.9863"/></g><g id="elem_AddressTypes"><rect codeLine="69" fill="#FAFF91" height="526.1602" id="AddressTypes" rx="2.5" ry="2.5" style="stroke:#181818;stroke-width:0.5;" width="153" x="815.5" y="477.74"/><ellipse cx="841.75" cy="493.74" fill="#ADD1B2" rx="11" ry="11" style="stroke:#181818;stroke-width:1.0;"/><path d="M844.2231,499.8831 Q843.6421,500.1819 843.0029,500.3313 Q842.3638,500.4807 841.6582,500.4807 Q839.1514,500.4807 837.8315,498.8289 Q836.5117,497.177 836.5117,494.0559 Q836.5117,490.9265 837.8315,489.2747 Q839.1514,487.6228 841.6582,487.6228 Q842.3638,487.6228 843.0112,487.7722 Q843.6587,487.9216 844.2231,488.2205 L844.2231,490.9431 Q843.5923,490.3621 842.9988,490.0923 Q842.4053,489.8225 841.7744,489.8225 Q840.4297,489.8225 839.7449,490.8892 Q839.0601,491.9558 839.0601,494.0559 Q839.0601,496.1477 839.7449,497.2144 Q840.4297,498.281 841.7744,498.281 Q842.4053,498.281 842.9988,498.0112 Q843.5923,497.7415 844.2231,497.1604 Z " fill="#000000"/><text fill="#000000" font-family="sans-serif" font-size="14" lengthAdjust="spacing" textLength="96" x="858.25" y="499.031">AddressTypes</text><line style="stroke:#181818;stroke-width:0.5;" x1="816.5" x2="967.5" y1="509.74" y2="509.74"/><text fill="#000000" font-family="sans-serif" font-size="14" lengthAdjust="spacing" textLength="60" x="821.5" y="527.2752">ARCHIVE</text><text fill="#000000" font-family="sans-serif" font-size="14" lengthAdjust="spacing" textLength="89" x="821.5" y="543.7634">AR_ADDRESS</text><text fill="#000000" font-family="sans-serif" font-size="14" lengthAdjust="spacing" textLength="50" x="821.5" y="560.2517">BILLING</text><text fill="#000000" font-family="sans-serif" font-size="14" lengthAdjust="spacing" textLength="64" x="821.5" y="576.74">BUSINESS</text><text fill="#000000" font-family="sans-serif" font-size="14" lengthAdjust="spacing" textLength="78" x="821.5" y="593.2283">CONTRACT</text><text fill="#000000" font-family="sans-serif" font-size="14" lengthAdjust="spacing" textLength="65" x="821.5" y="609.7166">CURRENT</text><text fill="#000000" font-family="sans-serif" font-size="14" lengthAdjust="spacing" textLength="52" x="821.5" y="626.2048">DEALER</text><text fill="#000000" font-family="sans-serif" font-size="14" lengthAdjust="spacing" textLength="64" x="821.5" y="642.6931">DELIVERY</text><text fill="#000000" font-family="sans-serif" font-size="14" lengthAdjust="spacing" textLength="93" x="821.5" y="659.1814">DESTINATION</text><text fill="#000000" font-family="sans-serif" font-size="14" lengthAdjust="spacing" textLength="84" x="821.5" y="675.6697">EMERGENCY</text><text fill="#000000" font-family="sans-serif" font-size="14" lengthAdjust="spacing" textLength="57" x="821.5" y="692.158">GARAGE</text><text fill="#000000" font-family="sans-serif" font-size="14" lengthAdjust="spacing" textLength="41" x="821.5" y="708.6463">HOME</text><text fill="#000000" font-family="sans-serif" font-size="14" lengthAdjust="spacing" textLength="79" x="821.5" y="725.1345">INSURANCE</text><text fill="#000000" font-family="sans-serif" font-size="14" lengthAdjust="spacing" textLength="42" x="821.5" y="741.6228">LEGAL</text><text fill="#000000" font-family="sans-serif" font-size="14" lengthAdjust="spacing" textLength="57" x="821.5" y="758.1111">MAILING</text><text fill="#000000" font-family="sans-serif" font-size="14" lengthAdjust="spacing" textLength="65" x="821.5" y="774.5994">ORIGINAL</text><text fill="#000000" font-family="sans-serif" font-size="14" lengthAdjust="spacing" textLength="47" x="821.5" y="791.0877">OTHER</text><text fill="#000000" font-family="sans-serif" font-size="14" lengthAdjust="spacing" textLength="53" x="821.5" y="807.5759">POSTAL</text><text fill="#000000" font-family="sans-serif" font-size="14" lengthAdjust="spacing" textLength="67" x="821.5" y="824.0642">PREVIOUS</text><text fill="#000000" font-family="sans-serif" font-size="14" lengthAdjust="spacing" textLength="67" x="821.5" y="840.5525">PRODUCT</text><text fill="#000000" font-family="sans-serif" font-size="14" lengthAdjust="spacing" textLength="52" x="821.5" y="857.0408">REBATE</text><text fill="#000000" font-family="sans-serif" font-size="14" lengthAdjust="spacing" textLength="70" x="821.5" y="873.5291">RECIPIENT</text><text fill="#000000" font-family="sans-serif" font-size="14" lengthAdjust="spacing" textLength="75" x="821.5" y="890.0173">RESIDENCE</text><text fill="#000000" font-family="sans-serif" font-size="14" lengthAdjust="spacing" textLength="56" x="821.5" y="906.5056">SERVICE</text><text fill="#000000" font-family="sans-serif" font-size="14" lengthAdjust="spacing" textLength="141" x="821.5" y="922.9939">SERVICE_CONTRACT</text><text fill="#000000" font-family="sans-serif" font-size="14" lengthAdjust="spacing" textLength="62" x="821.5" y="939.4822">SHIPPING</text><text fill="#000000" font-family="sans-serif" font-size="14" lengthAdjust="spacing" textLength="85" x="821.5" y="955.9705">TEMPORARY</text><text fill="#000000" font-family="sans-serif" font-size="14" lengthAdjust="spacing" textLength="73" x="821.5" y="972.4588">VACATION</text><text fill="#000000" font-family="sans-serif" font-size="14" lengthAdjust="spacing" textLength="41" x="821.5" y="988.947">WORK</text><line style="stroke:#181818;stroke-width:0.5;" x1="816.5" x2="967.5" y1="995.9002" y2="995.9002"/></g><g id="elem_LocationTypes"><rect codeLine="100" fill="#FAFF91" height="410.7422" id="LocationTypes" rx="2.5" ry="2.5" style="stroke:#181818;stroke-width:0.5;" width="135" x="197.5" y="7"/><ellipse cx="214.75" cy="23" fill="#ADD1B2" rx="11" ry="11" style="stroke:#181818;stroke-width:1.0;"/><path d="M217.2231,29.1431 Q216.6421,29.4419 216.0029,29.5913 Q215.3638,29.7407 214.6582,29.7407 Q212.1514,29.7407 210.8315,28.0889 Q209.5117,26.437 209.5117,23.3159 Q209.5117,20.1865 210.8315,18.5347 Q212.1514,16.8828 214.6582,16.8828 Q215.3638,16.8828 216.0112,17.0322 Q216.6587,17.1816 217.2231,17.4805 L217.2231,20.2031 Q216.5923,19.6221 215.9988,19.3523 Q215.4053,19.0825 214.7744,19.0825 Q213.4297,19.0825 212.7449,20.1492 Q212.0601,21.2158 212.0601,23.3159 Q212.0601,25.4077 212.7449,26.4744 Q213.4297,27.541 214.7744,27.541 Q215.4053,27.541 215.9988,27.2712 Q216.5923,27.0015 217.2231,26.4204 Z " fill="#000000"/><text fill="#000000" font-family="sans-serif" font-size="14" lengthAdjust="spacing" textLength="98" x="229.25" y="28.291">LocationTypes</text><line style="stroke:#181818;stroke-width:0.5;" x1="198.5" x2="331.5" y1="39" y2="39"/><text fill="#000000" font-family="sans-serif" font-size="14" lengthAdjust="spacing" textLength="63" x="203.5" y="56.5352">ADDRESS</text><text fill="#000000" font-family="sans-serif" font-size="14" lengthAdjust="spacing" textLength="69" x="203.5" y="73.0234">BOROUGH</text><text fill="#000000" font-family="sans-serif" font-size="14" lengthAdjust="spacing" textLength="77" x="203.5" y="89.5117">BOUNDARY</text><text fill="#000000" font-family="sans-serif" font-size="14" lengthAdjust="spacing" textLength="32" x="203.5" y="106">CITY</text><text fill="#000000" font-family="sans-serif" font-size="14" lengthAdjust="spacing" textLength="68" x="203.5" y="122.4883">COUNTRY</text><text fill="#000000" font-family="sans-serif" font-size="14" lengthAdjust="spacing" textLength="59" x="203.5" y="138.9766">COUNTY</text><text fill="#000000" font-family="sans-serif" font-size="14" lengthAdjust="spacing" textLength="63" x="203.5" y="155.4648">DISTRICT</text><text fill="#000000" font-family="sans-serif" font-size="14" lengthAdjust="spacing" textLength="60" x="203.5" y="171.9531">FEDERAL</text><text fill="#000000" font-family="sans-serif" font-size="14" lengthAdjust="spacing" textLength="26" x="203.5" y="188.4414">GPS</text><text fill="#000000" font-family="sans-serif" font-size="14" lengthAdjust="spacing" textLength="67" x="203.5" y="204.9297">LOCALITY</text><text fill="#000000" font-family="sans-serif" font-size="14" lengthAdjust="spacing" textLength="114" x="203.5" y="221.418">NO_PREFERENCE</text><text fill="#000000" font-family="sans-serif" font-size="14" lengthAdjust="spacing" textLength="49" x="203.5" y="237.9063">PARISH</text><text fill="#000000" font-family="sans-serif" font-size="14" lengthAdjust="spacing" textLength="53" x="203.5" y="254.3945">POSTAL</text><text fill="#000000" font-family="sans-serif" font-size="14" lengthAdjust="spacing" textLength="69" x="203.5" y="270.8828">PROVINCE</text><text fill="#000000" font-family="sans-serif" font-size="14" lengthAdjust="spacing" textLength="52" x="203.5" y="287.3711">REGION</text><text fill="#000000" font-family="sans-serif" font-size="14" lengthAdjust="spacing" textLength="44" x="203.5" y="303.8594">STATE</text><text fill="#000000" font-family="sans-serif" font-size="14" lengthAdjust="spacing" textLength="51" x="203.5" y="320.3477">STREET</text><text fill="#000000" font-family="sans-serif" font-size="14" lengthAdjust="spacing" textLength="123" x="203.5" y="336.8359">SUB_ADMIN_AREA</text><text fill="#000000" font-family="sans-serif" font-size="14" lengthAdjust="spacing" textLength="100" x="203.5" y="353.3242">SUB_LOCALITY</text><text fill="#000000" font-family="sans-serif" font-size="14" lengthAdjust="spacing" textLength="85" x="203.5" y="369.8125">TELEMATICS</text><text fill="#000000" font-family="sans-serif" font-size="14" lengthAdjust="spacing" textLength="55" x="203.5" y="386.3008">VILLAGE</text><text fill="#000000" font-family="sans-serif" font-size="14" lengthAdjust="spacing" textLength="86" x="203.5" y="402.7891">WAREHOUSE</text><line style="stroke:#181818;stroke-width:0.5;" x1="198.5" x2="331.5" y1="409.7422" y2="409.7422"/></g><g id="elem_WarehouseTypes"><rect codeLine="124" fill="#FAFF91" height="311.8125" id="WarehouseTypes" rx="2.5" ry="2.5" style="stroke:#181818;stroke-width:0.5;" width="247" x="194.5" y="1154.59"/><ellipse cx="255.75" cy="1170.59" fill="#ADD1B2" rx="11" ry="11" style="stroke:#181818;stroke-width:1.0;"/><path d="M258.2231,1176.7331 Q257.6421,1177.0319 257.0029,1177.1813 Q256.3638,1177.3307 255.6582,1177.3307 Q253.1514,1177.3307 251.8315,1175.6789 Q250.5117,1174.027 250.5117,1170.9059 Q250.5117,1167.7765 251.8315,1166.1247 Q253.1514,1164.4728 255.6582,1164.4728 Q256.3638,1164.4728 257.0112,1164.6222 Q257.6587,1164.7716 258.2231,1165.0705 L258.2231,1167.7931 Q257.5923,1167.2121 256.9988,1166.9423 Q256.4053,1166.6725 255.7744,1166.6725 Q254.4297,1166.6725 253.7449,1167.7392 Q253.0601,1168.8058 253.0601,1170.9059 Q253.0601,1172.9977 253.7449,1174.0644 Q254.4297,1175.131 255.7744,1175.131 Q256.4053,1175.131 256.9988,1174.8612 Q257.5923,1174.5915 258.2231,1174.0104 Z " fill="#000000"/><text fill="#000000" font-family="sans-serif" font-size="14" lengthAdjust="spacing" textLength="116" x="276.25" y="1175.881">WarehouseTypes</text><line style="stroke:#181818;stroke-width:0.5;" x1="195.5" x2="440.5" y1="1186.59" y2="1186.59"/><text fill="#000000" font-family="sans-serif" font-size="14" lengthAdjust="spacing" textLength="176" x="200.5" y="1204.1252">ACCESSORY_WAREHOUSE</text><text fill="#000000" font-family="sans-serif" font-size="14" lengthAdjust="spacing" textLength="170" x="200.5" y="1220.6134">AFTERMARKET_SUPPLIER</text><text fill="#000000" font-family="sans-serif" font-size="14" lengthAdjust="spacing" textLength="175" x="200.5" y="1237.1017">BODY_SHOP_WAREHOUSE</text><text fill="#000000" font-family="sans-serif" font-size="14" lengthAdjust="spacing" textLength="82" x="200.5" y="1253.59">DEALERSHIP</text><text fill="#000000" font-family="sans-serif" font-size="14" lengthAdjust="spacing" textLength="91" x="200.5" y="1270.0783">DISTRIBUTOR</text><text fill="#000000" font-family="sans-serif" font-size="14" lengthAdjust="spacing" textLength="191" x="200.5" y="1286.5666">IN_HOUSE_PARTS_STORAGE</text><text fill="#000000" font-family="sans-serif" font-size="14" lengthAdjust="spacing" textLength="141" x="200.5" y="1303.0548">MOBILE_PARTS_UNIT</text><text fill="#000000" font-family="sans-serif" font-size="14" lengthAdjust="spacing" textLength="235" x="200.5" y="1319.5431">NATIONAL_DISTRIBUTION_CENTER</text><text fill="#000000" font-family="sans-serif" font-size="14" lengthAdjust="spacing" textLength="124" x="200.5" y="1336.0314">OEM_WAREHOUSE</text><text fill="#000000" font-family="sans-serif" font-size="14" lengthAdjust="spacing" textLength="47" x="200.5" y="1352.5197">OTHER</text><text fill="#000000" font-family="sans-serif" font-size="14" lengthAdjust="spacing" textLength="113" x="200.5" y="1369.008">PARTS_SUPPLIER</text><text fill="#000000" font-family="sans-serif" font-size="14" lengthAdjust="spacing" textLength="233" x="200.5" y="1385.4963">REGIONAL_DISTRIBUTION_CENTER</text><text fill="#000000" font-family="sans-serif" font-size="14" lengthAdjust="spacing" textLength="161" x="200.5" y="1401.9845">RETURN_CORE_CENTER</text><text fill="#000000" font-family="sans-serif" font-size="14" lengthAdjust="spacing" textLength="172" x="200.5" y="1418.4728">THIRD_PARTY_LOGISTICS</text><text fill="#000000" font-family="sans-serif" font-size="14" lengthAdjust="spacing" textLength="185" x="200.5" y="1434.9611">TIRES_ONLY_DISTRIBUTION</text><text fill="#000000" font-family="sans-serif" font-size="14" lengthAdjust="spacing" textLength="132" x="200.5" y="1451.4494">USED_PARTS_YARD</text><line style="stroke:#181818;stroke-width:0.5;" x1="195.5" x2="440.5" y1="1458.4025" y2="1458.4025"/></g><g id="link_AddressLocale_Address"><path codeLine="142" d="M288.6815,817.8281 C307.9515,873.8781 337.29,943.85 384,1003.9 C410.21,1037.59 430.78,1031.87 459,1063.9 C464.94,1070.65 470.79,1077.66 476.53,1084.87 " fill="none" id="AddressLocale-backto-Address" style="stroke:#181818;stroke-width:1.0;"/><polygon fill="#181818" points="284.78,806.48,282.948,813.4545,288.6815,817.8281,290.5134,810.8535,284.78,806.48" style="stroke:#181818;stroke-width:1.0;"/></g><g id="link_AddressTypes_Address"><path codeLine="143" d="M810.383,977.1997 C804.863,990.0797 803.88,991.71 798,1003.9 C781.28,1038.6 761.62,1074.34 741.43,1108.6 " fill="none" id="AddressTypes-backto-Address" style="stroke:#181818;stroke-width:1.0;"/><polygon fill="#181818" points="815.11,966.17,809.0699,970.1092,810.383,977.1997,816.4231,973.2605,815.11,966.17" style="stroke:#181818;stroke-width:1.0;"/></g><g id="link_Address_Warehouse"><path codeLine="144" d="M469.6527,1542.9759 C463.8227,1551.1159 464.92,1549.35 459,1557.08 C443.53,1577.3 425.7,1597.85 408.04,1616.96 " fill="none" id="Address-backto-Warehouse" style="stroke:#181818;stroke-width:1.0;"/><polygon fill="#181818" points="476.64,1533.22,469.8944,1535.7688,469.6527,1542.9759,476.3983,1540.4271,476.64,1533.22" style="stroke:#181818;stroke-width:1.0;"/></g><g id="link_Authorization_Address"><path codeLine="145" d="M515.9411,801.5338 C527.1111,862.5438 545.09,960.65 563.98,1063.74 " fill="none" id="Authorization-backto-Address" style="stroke:#181818;stroke-width:1.0;"/><polygon fill="#181818" points="513.78,789.73,510.9259,796.3523,515.9411,801.5338,518.7951,794.9115,513.78,789.73" style="stroke:#181818;stroke-width:1.0;"/></g><g id="link_Identifier_Warehouse"><path codeLine="146" d="M106.1327,1395.7713 C121.7327,1446.5713 143.08,1503.18 177,1557.08 C189.99,1577.73 206.13,1597.99 222.79,1616.59 " fill="none" id="Identifier-backto-Warehouse" style="stroke:#181818;stroke-width:1.0;"/><polygon fill="#181818" points="102.61,1384.3,100.5476,1391.2099,106.1327,1395.7713,108.1951,1388.8614,102.61,1384.3" style="stroke:#181818;stroke-width:1.0;"/></g><g id="link_LocationTypes_AddressLocale"><path codeLine="147" d="M265,418.04 C265,509.61 265,611.14 265,675.2 " fill="none" id="LocationTypes-AddressLocale" style="stroke:#181818;stroke-width:1.0;"/></g><g id="link_Position_Address"><path codeLine="148" d="M697.3,822.85 C685.85,885.96 669.32,977.06 653.65,1063.42 " fill="none" id="Position-Address" style="stroke:#181818;stroke-width:1.0;"/></g><g id="link_WarehouseTypes_Warehouse"><path codeLine="149" d="M318,1478.86 C318,1529.75 318,1572.54 318,1616.83 " fill="none" id="WarehouseTypes-backto-Warehouse" style="stroke:#181818;stroke-width:1.0;"/><polygon fill="#181818" points="318,1466.86,314,1472.86,318,1478.86,322,1472.86,318,1466.86" style="stroke:#181818;stroke-width:1.0;"/></g></g></svg>