<?xml version="1.0" encoding="us-ascii" standalone="no"?><svg xmlns="http://www.w3.org/2000/svg" xmlns:xlink="http://www.w3.org/1999/xlink" contentStyleType="text/css" height="435px" preserveAspectRatio="none" style="width:1742px;height:435px;background:#FFFFFF;" version="1.1" viewBox="0 0 1742 435" width="1742px" zoomAndPan="magnify"><defs/><g><g id="elem_ControlAccount"><rect fill="#F1F1F1" height="36.4883" rx="2.5" ry="2.5" style="stroke:#181818;stroke-width:0.5;" width="128" x="1082.85" y="103.49"/><text fill="#000000" font-family="sans-serif" font-size="14" lengthAdjust="spacing" textLength="108" x="1092.85" y="127.0252">ControlAccount</text></g><g id="elem_Identifier"><rect fill="#F1F1F1" height="36.4883" rx="2.5" ry="2.5" style="stroke:#181818;stroke-width:0.5;" width="82" x="711.85" y="7"/><text fill="#000000" font-family="sans-serif" font-size="14" lengthAdjust="spacing" textLength="62" x="721.85" y="30.5352">Identifier</text></g><g id="elem_Part"><rect fill="#F1F1F1" height="36.4883" rx="2.5" ry="2.5" style="stroke:#181818;stroke-width:0.5;" width="47" x="1010.35" y="296.46"/><text fill="#000000" font-family="sans-serif" font-size="14" lengthAdjust="spacing" textLength="27" x="1020.35" y="319.9952">Part</text></g><g id="elem_PartEvent"><rect fill="#F1F1F1" height="36.4883" rx="2.5" ry="2.5" style="stroke:#181818;stroke-width:0.5;" width="84" x="319.85" y="199.98"/><text fill="#000000" font-family="sans-serif" font-size="14" lengthAdjust="spacing" textLength="64" x="329.85" y="223.5152">PartEvent</text></g><g id="elem_PartIdentifier"><rect fill="#F1F1F1" height="36.4883" rx="2.5" ry="2.5" style="stroke:#181818;stroke-width:0.5;" width="109" x="104.35" y="199.98"/><text fill="#000000" font-family="sans-serif" font-size="14" lengthAdjust="spacing" textLength="89" x="114.35" y="223.5152">PartIdentifier</text></g><g id="elem_PartInventory"><rect fill="#F1F1F1" height="36.4883" rx="2.5" ry="2.5" style="stroke:#181818;stroke-width:0.5;" width="111" x="978.35" y="392.95"/><text fill="#000000" font-family="sans-serif" font-size="14" lengthAdjust="spacing" textLength="91" x="988.35" y="416.4852">PartInventory</text></g><g id="elem_PartInventoryEvent"><rect fill="#F1F1F1" height="36.4883" rx="2.5" ry="2.5" style="stroke:#181818;stroke-width:0.5;" width="148" x="519.85" y="296.46"/><text fill="#000000" font-family="sans-serif" font-size="14" lengthAdjust="spacing" textLength="128" x="529.85" y="319.9952">PartInventoryEvent</text></g><g id="elem_PartInventoryMetric"><rect fill="#F1F1F1" height="36.4883" rx="2.5" ry="2.5" style="stroke:#181818;stroke-width:0.5;" width="153" x="1164.35" y="296.46"/><text fill="#000000" font-family="sans-serif" font-size="14" lengthAdjust="spacing" textLength="133" x="1174.35" y="319.9952">PartInventoryMetric</text></g><g id="elem_PartLifecycle"><rect fill="#F1F1F1" height="36.4883" rx="2.5" ry="2.5" style="stroke:#181818;stroke-width:0.5;" width="104" x="859.85" y="199.98"/><text fill="#000000" font-family="sans-serif" font-size="14" lengthAdjust="spacing" textLength="84" x="869.85" y="223.5152">PartLifecycle</text></g><g id="elem_PartLocation"><rect fill="#F1F1F1" height="36.4883" rx="2.5" ry="2.5" style="stroke:#181818;stroke-width:0.5;" width="105" x="1245.35" y="199.98"/><text fill="#000000" font-family="sans-serif" font-size="14" lengthAdjust="spacing" textLength="85" x="1255.35" y="223.5152">PartLocation</text></g><g id="elem_PartName"><rect fill="#F1F1F1" height="36.4883" rx="2.5" ry="2.5" style="stroke:#181818;stroke-width:0.5;" width="86" x="33.85" y="103.49"/><text fill="#000000" font-family="sans-serif" font-size="14" lengthAdjust="spacing" textLength="66" x="43.85" y="127.0252">PartName</text></g><g id="elem_Price"><rect fill="#F1F1F1" height="36.4883" rx="2.5" ry="2.5" style="stroke:#181818;stroke-width:0.5;" width="53" x="1455.35" y="199.98"/><text fill="#000000" font-family="sans-serif" font-size="14" lengthAdjust="spacing" textLength="33" x="1465.35" y="223.5152">Price</text></g><g id="elem_Warehouse"><rect fill="#F1F1F1" height="36.4883" rx="2.5" ry="2.5" style="stroke:#181818;stroke-width:0.5;" width="96" x="1420.85" y="103.49"/><text fill="#000000" font-family="sans-serif" font-size="14" lengthAdjust="spacing" textLength="76" x="1430.85" y="127.0252">Warehouse</text></g><g id="elem_ControlAccountRoleTypes"><rect fill="#FAFF91" height="36.4883" rx="2.5" ry="2.5" style="stroke:#181818;stroke-width:0.5;" width="198" x="1047.85" y="7"/><text fill="#000000" font-family="sans-serif" font-size="14" lengthAdjust="spacing" textLength="178" x="1057.85" y="30.5352">ControlAccountRoleTypes</text></g><g id="elem_ControlAccountTypes"><rect fill="#FAFF91" height="36.4883" rx="2.5" ry="2.5" style="stroke:#181818;stroke-width:0.5;" width="168" x="1280.85" y="7"/><text fill="#000000" font-family="sans-serif" font-size="14" lengthAdjust="spacing" textLength="148" x="1290.85" y="30.5352">ControlAccountTypes</text></g><g id="elem_FinancialCategoryTypes"><rect fill="#FAFF91" height="36.4883" rx="2.5" ry="2.5" style="stroke:#181818;stroke-width:0.5;" width="183" x="829.35" y="7"/><text fill="#000000" font-family="sans-serif" font-size="14" lengthAdjust="spacing" textLength="163" x="839.35" y="30.5352">FinancialCategoryTypes</text></g><g id="elem_InventoryStatusTypes"><rect fill="#FAFF91" height="36.4883" rx="2.5" ry="2.5" style="stroke:#181818;stroke-width:0.5;" width="166" x="1352.85" y="296.46"/><text fill="#000000" font-family="sans-serif" font-size="14" lengthAdjust="spacing" textLength="146" x="1362.85" y="319.9952">InventoryStatusTypes</text></g><g id="elem_PartConditionGradeTypes"><rect fill="#FAFF91" height="36.4883" rx="2.5" ry="2.5" style="stroke:#181818;stroke-width:0.5;" width="196" x="438.85" y="199.98"/><text fill="#000000" font-family="sans-serif" font-size="14" lengthAdjust="spacing" textLength="176" x="448.85" y="223.5152">PartConditionGradeTypes</text></g><g id="elem_PartConditionTypes"><rect fill="#FAFF91" height="36.4883" rx="2.5" ry="2.5" style="stroke:#181818;stroke-width:0.5;" width="155" x="670.35" y="199.98"/><text fill="#000000" font-family="sans-serif" font-size="14" lengthAdjust="spacing" textLength="135" x="680.35" y="223.5152">PartConditionTypes</text></g><g id="elem_PartIdentifierTypes"><rect fill="#FAFF91" height="36.4883" rx="2.5" ry="2.5" style="stroke:#181818;stroke-width:0.5;" width="149" x="154.35" y="103.49"/><text fill="#000000" font-family="sans-serif" font-size="14" lengthAdjust="spacing" textLength="129" x="164.35" y="127.0252">PartIdentifierTypes</text></g><g id="elem_PartInventoryMetricTypes"><rect fill="#FAFF91" height="36.4883" rx="2.5" ry="2.5" style="stroke:#181818;stroke-width:0.5;" width="193" x="1543.35" y="199.98"/><text fill="#000000" font-family="sans-serif" font-size="14" lengthAdjust="spacing" textLength="173" x="1553.35" y="223.5152">PartInventoryMetricTypes</text></g><g id="elem_PartInventoryOrderTypes"><rect fill="#FAFF91" height="36.4883" rx="2.5" ry="2.5" style="stroke:#181818;stroke-width:0.5;" width="191" x="409.35" y="103.49"/><text fill="#000000" font-family="sans-serif" font-size="14" lengthAdjust="spacing" textLength="171" x="419.35" y="127.0252">PartInventoryOrderTypes</text></g><g id="elem_PartNameTypes"><rect fill="#FAFF91" height="36.4883" rx="2.5" ry="2.5" style="stroke:#181818;stroke-width:0.5;" width="126" x="13.85" y="7"/><text fill="#000000" font-family="sans-serif" font-size="14" lengthAdjust="spacing" textLength="106" x="23.85" y="30.5352">PartNameTypes</text></g><g id="elem_PartStatusTypes"><rect fill="#FAFF91" height="36.4883" rx="2.5" ry="2.5" style="stroke:#181818;stroke-width:0.5;" width="129" x="847.35" y="103.49"/><text fill="#000000" font-family="sans-serif" font-size="14" lengthAdjust="spacing" textLength="109" x="857.35" y="127.0252">PartStatusTypes</text></g><g id="elem_PartStorageTypes"><rect fill="#FAFF91" height="36.4883" rx="2.5" ry="2.5" style="stroke:#181818;stroke-width:0.5;" width="140" x="1245.85" y="103.49"/><text fill="#000000" font-family="sans-serif" font-size="14" lengthAdjust="spacing" textLength="120" x="1255.85" y="127.0252">PartStorageTypes</text></g><g id="elem_PriceTypes"><rect fill="#FAFF91" height="36.4883" rx="2.5" ry="2.5" style="stroke:#181818;stroke-width:0.5;" width="93" x="1552.35" y="103.49"/><text fill="#000000" font-family="sans-serif" font-size="14" lengthAdjust="spacing" textLength="73" x="1562.35" y="127.0252">PriceTypes</text></g><g id="elem_WarehouseTypes"><rect fill="#FAFF91" height="36.4883" rx="2.5" ry="2.5" style="stroke:#181818;stroke-width:0.5;" width="136" x="1483.85" y="7"/><text fill="#000000" font-family="sans-serif" font-size="14" lengthAdjust="spacing" textLength="116" x="1493.85" y="30.5352">WarehouseTypes</text></g><g id="link_ControlAccount_Part"><path d="M1151.85,140.11 C1157.56,163.52 1164.14,205.76 1147.85,236.46 C1128.92,272.16 1085.3,294.39 1057.84,305.37 " fill="none" id="ControlAccount-Part" style="stroke:#181818;stroke-width:1.0;"/></g><g id="link_ControlAccountRoleTypes_ControlAccount"><path d="M1146.85,43.57 C1146.85,60.52 1146.85,86.18 1146.85,103.19 " fill="none" id="ControlAccountRoleTypes-ControlAccount" style="stroke:#181818;stroke-width:1.0;"/></g><g id="link_ControlAccountTypes_ControlAccount"><path d="M1324.1,43.9 C1285.16,60.78 1226.77,86.09 1187.77,103 " fill="none" id="ControlAccountTypes-ControlAccount" style="stroke:#181818;stroke-width:1.0;"/></g><g id="link_FinancialCategoryTypes_ControlAccount"><path d="M963.1,43.9 C1003.47,60.78 1064,86.09 1104.43,103 " fill="none" id="FinancialCategoryTypes-ControlAccount" style="stroke:#181818;stroke-width:1.0;"/></g><g id="link_Identifier_ControlAccount"><path d="M805.8957,41.9706 C811.7557,43.6306 806.17,42 811.85,43.49 C905.4,67.92 1014.71,92.36 1082.36,107.02 " fill="none" id="Identifier-backto-ControlAccount" style="stroke:#181818;stroke-width:1.0;"/><polygon fill="#181818" points="794.35,38.7,799.0326,44.1839,805.8957,41.9706,801.2131,36.4867,794.35,38.7" style="stroke:#181818;stroke-width:1.0;"/></g><g id="link_Identifier_Part"><path d="M805.788,41.9745 C872.678,61.9545 986.3,96.53 993.85,103.49 C1048.93,154.18 1042.09,255.31 1036.67,296.07 " fill="none" id="Identifier-backto-Part" style="stroke:#181818;stroke-width:1.0;"/><polygon fill="#181818" points="794.29,38.54,798.8942,44.0899,805.788,41.9745,801.1838,36.4246,794.29,38.54" style="stroke:#181818;stroke-width:1.0;"/></g><g id="link_Identifier_PartIdentifier"><path d="M699.6627,33.1008 C631.5627,42.5008 503.98,63.48 391.85,103.49 C358.44,115.41 352.65,124.23 320.85,139.98 C278.55,160.92 229.58,184.13 196.65,199.59 " fill="none" id="Identifier-backto-PartIdentifier" style="stroke:#181818;stroke-width:1.0;"/><polygon fill="#181818" points="711.55,31.46,705.0594,28.318,699.6627,33.1008,706.1533,36.2428,711.55,31.46" style="stroke:#181818;stroke-width:1.0;"/></g><g id="link_Identifier_PartInventory"><path d="M699.6059,27.7962 C551.3359,32.4462 63.66,51.51 16.85,103.49 C6,115.54 11.85,124.55 16.85,139.98 C33.21,190.37 44.23,205 86.85,236.46 C193.77,315.38 240.23,303.67 369.85,332.95 C591.73,383.08 863.08,401.73 978.09,407.72 " fill="none" id="Identifier-backto-PartInventory" style="stroke:#181818;stroke-width:1.0;"/><polygon fill="#181818" points="711.6,27.42,705.4776,23.61,699.6059,27.7962,705.7283,31.6061,711.6,27.42" style="stroke:#181818;stroke-width:1.0;"/></g><g id="link_Identifier_Warehouse"><path d="M805.7938,42.4556 C811.6738,44.0256 806.09,42.36 811.85,43.49 C1070.98,94.07 1143.02,56.64 1402.85,103.49 C1408.56,104.52 1414.51,105.78 1420.38,107.16 " fill="none" id="Identifier-backto-Warehouse" style="stroke:#181818;stroke-width:1.0;"/><polygon fill="#181818" points="794.2,39.36,798.965,44.7724,805.7938,42.4556,801.0288,37.0432,794.2,39.36" style="stroke:#181818;stroke-width:1.0;"/></g><g id="link_InventoryStatusTypes_PartInventory"><path d="M1360.71,333.37 C1281.97,351.88 1160.1,380.52 1089.55,397.11 " fill="none" id="InventoryStatusTypes-PartInventory" style="stroke:#181818;stroke-width:1.0;"/></g><g id="link_PartConditionGradeTypes_Part"><path d="M630.04,236.94 C747.53,259.27 942.33,296.31 1009.9,309.15 " fill="none" id="PartConditionGradeTypes-Part" style="stroke:#181818;stroke-width:1.0;"/></g><g id="link_PartConditionTypes_Part"><path d="M801.31,236.88 C863.72,257.5 964.2,290.7 1009.87,305.79 " fill="none" id="PartConditionTypes-Part" style="stroke:#181818;stroke-width:1.0;"/></g><g id="link_PartEvent_Part"><path d="M415.8587,235.3572 C421.7387,236.9172 416.12,235.29 421.85,236.46 C648.17,282.98 927.7,305.95 1010.01,312.03 " fill="none" id="PartEvent-backto-Part" style="stroke:#181818;stroke-width:1.0;"/><polygon fill="#181818" points="404.26,232.28,409.0336,237.6849,415.8587,235.3572,411.0851,229.9524,404.26,232.28" style="stroke:#181818;stroke-width:1.0;"/></g><g id="link_PartIdentifierTypes_PartIdentifier"><path d="M216.01,140.06 C203.46,157 184.45,182.66 171.85,199.68 " fill="none" id="PartIdentifierTypes-PartIdentifier" style="stroke:#181818;stroke-width:1.0;"/></g><g id="link_PartIdentifier_Part"><path d="M225.7413,227.4964 C252.3213,230.7464 272.78,233.18 301.85,236.46 C580.26,267.94 918.71,302.16 1010.14,311.33 " fill="none" id="PartIdentifier-backto-Part" style="stroke:#181818;stroke-width:1.0;"/><polygon fill="#181818" points="213.83,226.04,219.3002,230.7386,225.7413,227.4964,220.2711,222.7978,213.83,226.04" style="stroke:#181818;stroke-width:1.0;"/></g><g id="link_PartIdentifier_PartInventory"><path d="M214.8203,241.1873 C279.6203,266.1073 392.57,307.11 501.85,332.95 C673.06,373.43 880.58,396.18 978.11,405.36 " fill="none" id="PartIdentifier-backto-PartInventory" style="stroke:#181818;stroke-width:1.0;"/><polygon fill="#181818" points="203.62,236.88,207.7844,242.7671,214.8203,241.1873,210.6559,235.3002,203.62,236.88" style="stroke:#181818;stroke-width:1.0;"/></g><g id="link_PartInventoryEvent_PartInventory"><path d="M679.7226,334.1491 C767.2826,352.9491 899.21,381.28 977.93,398.19 " fill="none" id="PartInventoryEvent-backto-PartInventory" style="stroke:#181818;stroke-width:1.0;"/><polygon fill="#181818" points="667.99,331.63,673.0166,336.8004,679.7226,334.1491,674.696,328.9787,667.99,331.63" style="stroke:#181818;stroke-width:1.0;"/></g><g id="link_PartInventoryMetricTypes_PartInventoryMetric"><path d="M1565.27,236.88 C1494,253.76 1387.12,279.07 1315.74,295.97 " fill="none" id="PartInventoryMetricTypes-PartInventoryMetric" style="stroke:#181818;stroke-width:1.0;"/></g><g id="link_PartInventoryMetric_PartInventory"><path d="M1191.4839,338.2438 C1154.4239,355.1638 1109.56,375.64 1072.45,392.58 " fill="none" id="PartInventoryMetric-backto-PartInventory" style="stroke:#181818;stroke-width:1.0;"/><polygon fill="#181818" points="1202.4,333.26,1195.2807,332.1132,1191.4839,338.2438,1198.6032,339.3906,1202.4,333.26" style="stroke:#181818;stroke-width:1.0;"/></g><g id="link_PartInventoryOrderTypes_PartEvent"><path d="M478.29,140.28 C452.61,157.25 413.91,182.82 388.27,199.76 " fill="none" id="PartInventoryOrderTypes-PartEvent" style="stroke:#181818;stroke-width:1.0;"/></g><g id="link_PartInventoryOrderTypes_PartInventoryEvent"><path d="M409.9,140.47 C340.68,157.76 264.95,188.53 301.85,236.46 C328.24,270.74 441.92,292.92 519.4,304.36 " fill="none" id="PartInventoryOrderTypes-PartInventoryEvent" style="stroke:#181818;stroke-width:1.0;"/></g><g id="link_PartLifecycle_Part"><path d="M943.9988,244.116 C965.9188,261.086 989.44,279.31 1011.31,296.25 " fill="none" id="PartLifecycle-backto-Part" style="stroke:#181818;stroke-width:1.0;"/><polygon fill="#181818" points="934.51,236.77,936.8057,243.6059,943.9988,244.116,941.703,237.2801,934.51,236.77" style="stroke:#181818;stroke-width:1.0;"/></g><g id="link_PartLocation_Part"><path d="M1248.51,236.88 C1191.64,257.23 1100.55,289.84 1057.65,305.19 " fill="none" id="PartLocation-Part" style="stroke:#181818;stroke-width:1.0;"/></g><g id="link_PartNameTypes_PartName"><path d="M76.85,43.57 C76.85,60.52 76.85,86.18 76.85,103.19 " fill="none" id="PartNameTypes-PartName" style="stroke:#181818;stroke-width:1.0;"/></g><g id="link_PartName_PartIdentifier"><path d="M99.7579,149.1207 C114.4679,166.0607 128.86,182.66 143.63,199.68 " fill="none" id="PartName-backto-PartIdentifier" style="stroke:#181818;stroke-width:1.0;"/><polygon fill="#181818" points="91.89,140.06,92.8037,147.213,99.7579,149.1207,98.8442,141.9677,91.89,140.06" style="stroke:#181818;stroke-width:1.0;"/></g><g id="link_PartStatusTypes_Part"><path d="M923.4919,149.7096 C934.9919,164.6096 948.61,177.6 963.35,199.98 C984.33,231.81 1001.39,273.27 1015.68,296.32 " fill="none" id="PartStatusTypes-backto-Part" style="stroke:#181818;stroke-width:1.0;"/><polygon fill="#181818" points="916.16,140.21,916.6594,147.4038,923.4919,149.7096,922.9925,142.5158,916.16,140.21" style="stroke:#181818;stroke-width:1.0;"/></g><g id="link_PartStatusTypes_Part"><path d="M944.26,140.21 C962.66,155.11 983.61,177.6 998.35,199.98 C1019.33,231.81 1036.39,273.27 1039.5,296.32 " fill="none" id="PartStatusTypes-Part" style="stroke:#181818;stroke-width:1.0;"/></g><g id="link_PartStatusTypes_PartLifecycle"><path d="M911.85,152.06 C911.85,169 911.85,182.66 911.85,199.68 " fill="none" id="PartStatusTypes-backto-PartLifecycle" style="stroke:#181818;stroke-width:1.0;"/><polygon fill="#181818" points="911.85,140.06,907.85,146.06,911.85,152.06,915.85,146.06,911.85,140.06" style="stroke:#181818;stroke-width:1.0;"/></g><g id="link_PartStatusTypes_PartEvent"><path d="M847.17,130.34 C752.96,142.01 572.78,166.53 421.85,199.98 C416.14,201.24 410.17,202.74 404.3,204.32 " fill="none" id="PartStatusTypes-PartEvent" style="stroke:#181818;stroke-width:1.0;"/></g><g id="link_PartStorageTypes_PartLocation"><path d="M1312.55,140.06 C1309.32,157 1304.43,182.66 1301.19,199.68 " fill="none" id="PartStorageTypes-PartLocation" style="stroke:#181818;stroke-width:1.0;"/></g><g id="link_Part_PartInventory"><path d="M1033.85,345.04 C1033.85,361.98 1033.85,375.64 1033.85,392.66 " fill="none" id="Part-backto-PartInventory" style="stroke:#181818;stroke-width:1.0;"/><polygon fill="#181818" points="1033.85,333.04,1029.85,339.04,1033.85,345.04,1037.85,339.04,1033.85,333.04" style="stroke:#181818;stroke-width:1.0;"/></g><g id="link_PriceTypes_Price"><path d="M1567.783,147.818 C1546.763,164.788 1524.44,182.82 1503.47,199.76 " fill="none" id="PriceTypes-backto-Price" style="stroke:#181818;stroke-width:1.0;"/><polygon fill="#181818" points="1577.12,140.28,1569.9389,140.9367,1567.783,147.818,1574.9642,147.1613,1577.12,140.28" style="stroke:#181818;stroke-width:1.0;"/></g><g id="link_Price_Part"><path d="M1443.7049,232.5019 C1435.3749,235.2519 1437.49,234.32 1428.85,236.46 C1278.24,273.9 1235.25,258.16 1084.85,296.46 C1075.89,298.75 1066.23,301.84 1057.75,304.78 " fill="none" id="Price-backto-Part" style="stroke:#181818;stroke-width:1.0;"/><polygon fill="#181818" points="1455.1,228.74,1448.1485,226.8226,1443.7049,232.5019,1450.6564,234.4193,1455.1,228.74" style="stroke:#181818;stroke-width:1.0;"/></g><g id="link_Price_PartInventory"><path d="M1443.559,229.3206 C1431.299,232.5206 1428.16,233.26 1414.85,236.46 C1296.18,265.01 1253.71,237.47 1146.85,296.46 C1102.99,320.68 1064.94,367.07 1046.22,392.48 " fill="none" id="Price-backto-PartInventory" style="stroke:#181818;stroke-width:1.0;"/><polygon fill="#181818" points="1455.17,226.29,1448.3543,223.935,1443.559,229.3206,1450.3747,231.6756,1455.17,226.29" style="stroke:#181818;stroke-width:1.0;"/></g><g id="link_Warehouse_Part"><path d="M1458.56,140.11 C1442.55,165.53 1409.17,212.43 1367.85,236.46 C1256.71,301.1 1208.85,262.48 1084.85,296.46 C1075.93,298.91 1066.28,302.04 1057.8,304.97 " fill="none" id="Warehouse-Part" style="stroke:#181818;stroke-width:1.0;"/></g><g id="link_Warehouse_PartLocation"><path d="M1437.09,140.28 C1406.47,157.2 1360.39,182.66 1329.73,199.6 " fill="none" id="Warehouse-PartLocation" style="stroke:#181818;stroke-width:1.0;"/></g><g id="link_WarehouseTypes_Warehouse"><path d="M1528.7133,52.5881 C1513.8333,69.5381 1499.21,86.18 1484.26,103.19 " fill="none" id="WarehouseTypes-backto-Warehouse" style="stroke:#181818;stroke-width:1.0;"/><polygon fill="#181818" points="1536.63,43.57,1529.6656,45.4401,1528.7133,52.5881,1535.6777,50.7179,1536.63,43.57" style="stroke:#181818;stroke-width:1.0;"/></g></g></svg>