<?xml version="1.0" encoding="us-ascii" standalone="no"?><svg xmlns="http://www.w3.org/2000/svg" xmlns:xlink="http://www.w3.org/1999/xlink" contentStyleType="text/css" height="338px" preserveAspectRatio="none" style="width:796px;height:338px;background:#FFFFFF;" version="1.1" viewBox="0 0 796 338" width="796px" zoomAndPan="magnify"><defs/><g><g id="elem_Money"><rect fill="#F1F1F1" height="36.4883" rx="2.5" ry="2.5" style="stroke:#181818;stroke-width:0.5;" width="65" x="7" y="103.49"/><text fill="#000000" font-family="sans-serif" font-size="14" lengthAdjust="spacing" textLength="45" x="17" y="127.0252">Money</text></g><g id="elem_Payment"><rect fill="#F1F1F1" height="36.4883" rx="2.5" ry="2.5" style="stroke:#181818;stroke-width:0.5;" width="78" x="167.5" y="296.46"/><text fill="#000000" font-family="sans-serif" font-size="14" lengthAdjust="spacing" textLength="58" x="177.5" y="319.9952">Payment</text></g><g id="elem_PaymentMethodReference"><rect fill="#F1F1F1" height="36.4883" rx="2.5" ry="2.5" style="stroke:#181818;stroke-width:0.5;" width="198" x="107.5" y="103.49"/><text fill="#000000" font-family="sans-serif" font-size="14" lengthAdjust="spacing" textLength="178" x="117.5" y="127.0252">PaymentMethodReference</text></g><g id="elem_PaymentTransaction"><rect fill="#F1F1F1" height="36.4883" rx="2.5" ry="2.5" style="stroke:#181818;stroke-width:0.5;" width="159" x="127" y="199.97"/><text fill="#000000" font-family="sans-serif" font-size="14" lengthAdjust="spacing" textLength="139" x="137" y="223.5052">PaymentTransaction</text></g><g id="elem_PaymentAmountTypes"><rect fill="#FAFF91" height="36.4883" rx="2.5" ry="2.5" style="stroke:#181818;stroke-width:0.5;" width="173" x="341" y="103.49"/><text fill="#000000" font-family="sans-serif" font-size="14" lengthAdjust="spacing" textLength="153" x="351" y="127.0252">PaymentAmountTypes</text></g><g id="elem_PaymentMethodTypes"><rect fill="#FAFF91" height="36.4883" rx="2.5" ry="2.5" style="stroke:#181818;stroke-width:0.5;" width="170" x="121.5" y="7"/><text fill="#000000" font-family="sans-serif" font-size="14" lengthAdjust="spacing" textLength="150" x="131.5" y="30.5352">PaymentMethodTypes</text></g><g id="elem_PaymentStatusTypes"><rect fill="#FAFF91" height="36.4883" rx="2.5" ry="2.5" style="stroke:#181818;stroke-width:0.5;" width="160" x="320.5" y="199.97"/><text fill="#000000" font-family="sans-serif" font-size="14" lengthAdjust="spacing" textLength="140" x="330.5" y="223.5052">PaymentStatusTypes</text></g><g id="elem_PaymentTransactionStatusTypes"><rect fill="#FAFF91" height="36.4883" rx="2.5" ry="2.5" style="stroke:#181818;stroke-width:0.5;" width="241" x="549" y="103.49"/><text fill="#000000" font-family="sans-serif" font-size="14" lengthAdjust="spacing" textLength="221" x="559" y="127.0252">PaymentTransactionStatusTypes</text></g><g id="link_Money_Payment"><path d="M47.81,140.16 C59.5,163.62 82.44,205.92 109.5,236.46 C130.34,259.99 158.96,281.8 179.71,296.21 " fill="none" id="Money-Payment" style="stroke:#181818;stroke-width:1.0;"/></g><g id="link_Money_PaymentTransaction"><path d="M70.52,140.28 C100.42,157.2 145.42,182.66 175.36,199.6 " fill="none" id="Money-PaymentTransaction" style="stroke:#181818;stroke-width:1.0;"/></g><g id="link_PaymentAmountTypes_PaymentTransaction"><path d="M386.19,140.39 C346.71,157.27 287.52,182.58 247.98,199.48 " fill="none" id="PaymentAmountTypes-PaymentTransaction" style="stroke:#181818;stroke-width:1.0;"/></g><g id="link_PaymentMethodReference_PaymentTransaction"><path d="M206.5,140.06 C206.5,157 206.5,182.66 206.5,199.68 " fill="none" id="PaymentMethodReference-PaymentTransaction" style="stroke:#181818;stroke-width:1.0;"/></g><g id="link_PaymentMethodTypes_PaymentMethodReference"><path d="M206.5,43.57 C206.5,60.51 206.5,86.17 206.5,103.19 " fill="none" id="PaymentMethodTypes-PaymentMethodReference" style="stroke:#181818;stroke-width:1.0;"/></g><g id="link_PaymentStatusTypes_Payment"><path d="M364.46,236.77 C329.73,253.69 277.45,279.15 242.67,296.09 " fill="none" id="PaymentStatusTypes-Payment" style="stroke:#181818;stroke-width:1.0;"/></g><g id="link_PaymentTransactionStatusTypes_PaymentTransaction"><path d="M582.68,140.45 C497.59,157.81 368.95,184.07 286.33,200.93 " fill="none" id="PaymentTransactionStatusTypes-PaymentTransaction" style="stroke:#181818;stroke-width:1.0;"/></g><g id="link_PaymentTransaction_Payment"><path d="M206.5,248.55 C206.5,265.49 206.5,279.15 206.5,296.17 " fill="none" id="PaymentTransaction-backto-Payment" style="stroke:#181818;stroke-width:1.0;"/><polygon fill="#181818" points="206.5,236.55,202.5,242.55,206.5,248.55,210.5,242.55,206.5,236.55" style="stroke:#181818;stroke-width:1.0;"/></g></g></svg>