<?xml version="1.0" encoding="us-ascii" standalone="no"?><svg xmlns="http://www.w3.org/2000/svg" xmlns:xlink="http://www.w3.org/1999/xlink" contentStyleType="text/css" height="2018px" preserveAspectRatio="none" style="width:1116px;height:2018px;background:#FFFFFF;" version="1.1" viewBox="0 0 1116 2018" width="1116px" zoomAndPan="magnify"><defs/><g><g id="elem_Money"><rect codeLine="1" fill="#F1F1F1" height="146.9297" id="Money" rx="2.5" ry="2.5" style="stroke:#181818;stroke-width:0.5;" width="152" x="72.45" y="733.31"/><ellipse cx="121.7" cy="749.31" fill="#ADD1B2" rx="11" ry="11" style="stroke:#181818;stroke-width:1.0;"/><path d="M124.1731,755.4531 Q123.5921,755.7519 122.9529,755.9013 Q122.3138,756.0507 121.6082,756.0507 Q119.1014,756.0507 117.7815,754.3989 Q116.4617,752.747 116.4617,749.6259 Q116.4617,746.4965 117.7815,744.8447 Q119.1014,743.1928 121.6082,743.1928 Q122.3138,743.1928 122.9612,743.3422 Q123.6087,743.4916 124.1731,743.7905 L124.1731,746.5131 Q123.5423,745.9321 122.9488,745.6623 Q122.3553,745.3925 121.7244,745.3925 Q120.3797,745.3925 119.6949,746.4592 Q119.0101,747.5258 119.0101,749.6259 Q119.0101,751.7177 119.6949,752.7844 Q120.3797,753.851 121.7244,753.851 Q122.3553,753.851 122.9488,753.5812 Q123.5423,753.3115 124.1731,752.7304 Z " fill="#000000"/><text fill="#000000" font-family="sans-serif" font-size="14" lengthAdjust="spacing" textLength="45" x="142.2" y="754.601">Money</text><line style="stroke:#181818;stroke-width:0.5;" x1="73.45" x2="223.45" y1="765.31" y2="765.31"/><text fill="#000000" font-family="sans-serif" font-size="14" lengthAdjust="spacing" textLength="115" x="78.45" y="782.8452">moneyKey:String</text><text fill="#000000" font-family="sans-serif" font-size="14" lengthAdjust="spacing" textLength="104" x="78.45" y="799.3334">moneyId:String</text><text fill="#000000" font-family="sans-serif" font-size="14" lengthAdjust="spacing" textLength="140" x="78.45" y="815.8217">currencyCode:String</text><text fill="#000000" font-family="sans-serif" font-size="14" lengthAdjust="spacing" textLength="131" x="78.45" y="832.31">displayValue:String</text><text fill="#000000" font-family="sans-serif" font-size="14" lengthAdjust="spacing" textLength="85" x="78.45" y="848.7983">locale:String</text><text fill="#000000" font-family="sans-serif" font-size="14" lengthAdjust="spacing" textLength="81" x="78.45" y="865.2866">value:String</text><line style="stroke:#181818;stroke-width:0.5;" x1="73.45" x2="223.45" y1="872.2397" y2="872.2397"/></g><g id="elem_Payment"><rect codeLine="9" fill="#F1F1F1" height="163.418" id="Payment" rx="2.5" ry="2.5" style="stroke:#181818;stroke-width:0.5;" width="347" x="253.95" y="1847.92"/><ellipse cx="394.2" cy="1863.92" fill="#ADD1B2" rx="11" ry="11" style="stroke:#181818;stroke-width:1.0;"/><path d="M396.6731,1870.0631 Q396.0921,1870.3619 395.4529,1870.5113 Q394.8138,1870.6607 394.1082,1870.6607 Q391.6014,1870.6607 390.2815,1869.0089 Q388.9617,1867.357 388.9617,1864.2359 Q388.9617,1861.1065 390.2815,1859.4547 Q391.6014,1857.8028 394.1082,1857.8028 Q394.8138,1857.8028 395.4612,1857.9522 Q396.1087,1858.1016 396.6731,1858.4005 L396.6731,1861.1231 Q396.0423,1860.5421 395.4488,1860.2723 Q394.8553,1860.0025 394.2244,1860.0025 Q392.8797,1860.0025 392.1949,1861.0692 Q391.5101,1862.1358 391.5101,1864.2359 Q391.5101,1866.3277 392.1949,1867.3944 Q392.8797,1868.461 394.2244,1868.461 Q394.8553,1868.461 395.4488,1868.1912 Q396.0423,1867.9215 396.6731,1867.3404 Z " fill="#000000"/><text fill="#000000" font-family="sans-serif" font-size="14" lengthAdjust="spacing" textLength="58" x="414.7" y="1869.211">Payment</text><line style="stroke:#181818;stroke-width:0.5;" x1="254.95" x2="599.95" y1="1879.92" y2="1879.92"/><text fill="#000000" font-family="sans-serif" font-size="14" lengthAdjust="spacing" textLength="117" x="259.95" y="1897.4552">paymentId:String</text><text fill="#000000" font-family="sans-serif" font-size="14" lengthAdjust="spacing" textLength="128" x="259.95" y="1913.9434">paymentKey:String</text><text fill="#000000" font-family="sans-serif" font-size="14" lengthAdjust="spacing" textLength="335" x="259.95" y="1930.4317">paymentTransactions:List&lt;PaymentTransaction&gt;</text><text fill="#000000" font-family="sans-serif" font-size="14" lengthAdjust="spacing" textLength="145" x="259.95" y="1946.92">targetAmount:Money</text><text fill="#000000" font-family="sans-serif" font-size="14" lengthAdjust="spacing" textLength="278" x="259.95" y="1963.4083">paymentStatusType:PaymentStatusTypes</text><text fill="#000000" font-family="sans-serif" font-size="14" lengthAdjust="spacing" textLength="97" x="259.95" y="1979.8966">context:String</text><text fill="#000000" font-family="sans-serif" font-size="14" lengthAdjust="spacing" textLength="176" x="259.95" y="1996.3848">occurrenceDateTime:Date</text><line style="stroke:#181818;stroke-width:0.5;" x1="254.95" x2="599.95" y1="2003.338" y2="2003.338"/></g><g id="elem_PaymentMethodReference"><rect codeLine="18" fill="#F1F1F1" height="179.9063" id="PaymentMethodReference" rx="2.5" ry="2.5" style="stroke:#181818;stroke-width:0.5;" width="310" x="259.45" y="716.82"/><ellipse cx="321.2" cy="732.82" fill="#ADD1B2" rx="11" ry="11" style="stroke:#181818;stroke-width:1.0;"/><path d="M323.6731,738.9631 Q323.0921,739.2619 322.4529,739.4113 Q321.8138,739.5607 321.1082,739.5607 Q318.6014,739.5607 317.2815,737.9089 Q315.9617,736.257 315.9617,733.1359 Q315.9617,730.0065 317.2815,728.3547 Q318.6014,726.7028 321.1082,726.7028 Q321.8138,726.7028 322.4612,726.8522 Q323.1087,727.0016 323.6731,727.3005 L323.6731,730.0231 Q323.0423,729.4421 322.4488,729.1723 Q321.8553,728.9025 321.2244,728.9025 Q319.8797,728.9025 319.1949,729.9692 Q318.5101,731.0358 318.5101,733.1359 Q318.5101,735.2277 319.1949,736.2944 Q319.8797,737.361 321.2244,737.361 Q321.8553,737.361 322.4488,737.0912 Q323.0423,736.8215 323.6731,736.2404 Z " fill="#000000"/><text fill="#000000" font-family="sans-serif" font-size="14" lengthAdjust="spacing" textLength="178" x="341.7" y="738.111">PaymentMethodReference</text><line style="stroke:#181818;stroke-width:0.5;" x1="260.45" x2="568.45" y1="748.82" y2="748.82"/><text fill="#000000" font-family="sans-serif" font-size="14" lengthAdjust="spacing" textLength="237" x="265.45" y="766.3552">paymentMethodReferenceId:String</text><text fill="#000000" font-family="sans-serif" font-size="14" lengthAdjust="spacing" textLength="248" x="265.45" y="782.8434">paymentMethodReferenceKey:String</text><text fill="#000000" font-family="sans-serif" font-size="14" lengthAdjust="spacing" textLength="180" x="265.45" y="799.3317">paymentMethodKey:String</text><text fill="#000000" font-family="sans-serif" font-size="14" lengthAdjust="spacing" textLength="97" x="265.45" y="815.82">context:String</text><text fill="#000000" font-family="sans-serif" font-size="14" lengthAdjust="spacing" textLength="298" x="265.45" y="832.3083">paymentMethodType:PaymentMethodTypes</text><text fill="#000000" font-family="sans-serif" font-size="14" lengthAdjust="spacing" textLength="188" x="265.45" y="848.7966">processorOptions:Identifier</text><text fill="#000000" font-family="sans-serif" font-size="14" lengthAdjust="spacing" textLength="175" x="265.45" y="865.2848">snapshotDetails:Identifier</text><text fill="#000000" font-family="sans-serif" font-size="14" lengthAdjust="spacing" textLength="176" x="265.45" y="881.7731">occurrenceDateTime:Date</text><line style="stroke:#181818;stroke-width:0.5;" x1="260.45" x2="568.45" y1="888.7262" y2="888.7262"/></g><g id="elem_PaymentTransaction"><rect codeLine="28" fill="#F1F1F1" height="146.9297" id="PaymentTransaction" rx="2.5" ry="2.5" style="stroke:#181818;stroke-width:0.5;" width="452" x="201.45" y="1401.91"/><ellipse cx="353.7" cy="1417.91" fill="#ADD1B2" rx="11" ry="11" style="stroke:#181818;stroke-width:1.0;"/><path d="M356.1731,1424.0531 Q355.5921,1424.3519 354.9529,1424.5013 Q354.3138,1424.6507 353.6082,1424.6507 Q351.1014,1424.6507 349.7815,1422.9989 Q348.4617,1421.347 348.4617,1418.2259 Q348.4617,1415.0965 349.7815,1413.4447 Q351.1014,1411.7928 353.6082,1411.7928 Q354.3138,1411.7928 354.9612,1411.9422 Q355.6087,1412.0916 356.1731,1412.3905 L356.1731,1415.1131 Q355.5423,1414.5321 354.9488,1414.2623 Q354.3553,1413.9925 353.7244,1413.9925 Q352.3797,1413.9925 351.6949,1415.0592 Q351.0101,1416.1258 351.0101,1418.2259 Q351.0101,1420.3177 351.6949,1421.3844 Q352.3797,1422.451 353.7244,1422.451 Q354.3553,1422.451 354.9488,1422.1812 Q355.5423,1421.9115 356.1731,1421.3304 Z " fill="#000000"/><text fill="#000000" font-family="sans-serif" font-size="14" lengthAdjust="spacing" textLength="139" x="374.2" y="1423.201">PaymentTransaction</text><line style="stroke:#181818;stroke-width:0.5;" x1="202.45" x2="652.45" y1="1433.91" y2="1433.91"/><text fill="#000000" font-family="sans-serif" font-size="14" lengthAdjust="spacing" textLength="183" x="207.45" y="1451.4452">paymentAmountKey:String</text><text fill="#000000" font-family="sans-serif" font-size="14" lengthAdjust="spacing" textLength="172" x="207.45" y="1467.9334">paymentAmountId:String</text><text fill="#000000" font-family="sans-serif" font-size="14" lengthAdjust="spacing" textLength="304" x="207.45" y="1484.4217">paymentAmountType:PaymentAmountTypes</text><text fill="#000000" font-family="sans-serif" font-size="14" lengthAdjust="spacing" textLength="361" x="207.45" y="1500.91">paymentMethodReference:PaymentMethodReference</text><text fill="#000000" font-family="sans-serif" font-size="14" lengthAdjust="spacing" textLength="102" x="207.45" y="1517.3983">amount:Money</text><text fill="#000000" font-family="sans-serif" font-size="14" lengthAdjust="spacing" textLength="440" x="207.45" y="1533.8866">paymentTransactionStatusType:PaymentTransactionStatusTypes</text><line style="stroke:#181818;stroke-width:0.5;" x1="202.45" x2="652.45" y1="1540.8397" y2="1540.8397"/></g><g id="elem_PaymentAmountTypes"><rect codeLine="36" fill="#FAFF91" height="410.7422" id="PaymentAmountTypes" rx="2.5" ry="2.5" style="stroke:#181818;stroke-width:0.5;" width="217" x="604.95" y="601.4"/><ellipse cx="634.35" cy="617.4" fill="#ADD1B2" rx="11" ry="11" style="stroke:#181818;stroke-width:1.0;"/><path d="M636.8231,623.5431 Q636.2421,623.8419 635.6029,623.9913 Q634.9638,624.1407 634.2582,624.1407 Q631.7514,624.1407 630.4315,622.4889 Q629.1117,620.837 629.1117,617.7159 Q629.1117,614.5865 630.4315,612.9347 Q631.7514,611.2828 634.2582,611.2828 Q634.9638,611.2828 635.6112,611.4322 Q636.2587,611.5816 636.8231,611.8805 L636.8231,614.6031 Q636.1923,614.0221 635.5988,613.7523 Q635.0053,613.4825 634.3744,613.4825 Q633.0297,613.4825 632.3449,614.5492 Q631.6601,615.6158 631.6601,617.7159 Q631.6601,619.8077 632.3449,620.8744 Q633.0297,621.941 634.3744,621.941 Q635.0053,621.941 635.5988,621.6712 Q636.1923,621.4015 636.8231,620.8204 Z " fill="#000000"/><text fill="#000000" font-family="sans-serif" font-size="14" lengthAdjust="spacing" textLength="153" x="651.55" y="622.691">PaymentAmountTypes</text><line style="stroke:#181818;stroke-width:0.5;" x1="605.95" x2="820.95" y1="633.4" y2="633.4"/><text fill="#000000" font-family="sans-serif" font-size="14" lengthAdjust="spacing" textLength="77" x="610.95" y="650.9352">ADMIN_FEE</text><text fill="#000000" font-family="sans-serif" font-size="14" lengthAdjust="spacing" textLength="158" x="610.95" y="667.4234">BASE_PAYMENT_EVENT</text><text fill="#000000" font-family="sans-serif" font-size="14" lengthAdjust="spacing" textLength="111" x="610.95" y="683.9117">CASH_PAYMENT</text><text fill="#000000" font-family="sans-serif" font-size="14" lengthAdjust="spacing" textLength="120" x="610.95" y="700.4">CHECK_PAYMENT</text><text fill="#000000" font-family="sans-serif" font-size="14" lengthAdjust="spacing" textLength="169" x="610.95" y="716.8883">CREDIT_CARD_PAYMENT</text><text fill="#000000" font-family="sans-serif" font-size="14" lengthAdjust="spacing" textLength="130" x="610.95" y="733.3766">DESIRED_PAYMENT</text><text fill="#000000" font-family="sans-serif" font-size="14" lengthAdjust="spacing" textLength="116" x="610.95" y="749.8648">DOWN_PAYMENT</text><text fill="#000000" font-family="sans-serif" font-size="14" lengthAdjust="spacing" textLength="98" x="610.95" y="766.3531">EFT_PAYMENT</text><text fill="#000000" font-family="sans-serif" font-size="14" lengthAdjust="spacing" textLength="127" x="610.95" y="782.8414">GOVERNMENT_FEE</text><text fill="#000000" font-family="sans-serif" font-size="14" lengthAdjust="spacing" textLength="65" x="610.95" y="799.3297">LATE_FEE</text><text fill="#000000" font-family="sans-serif" font-size="14" lengthAdjust="spacing" textLength="47" x="610.95" y="815.818">OTHER</text><text fill="#000000" font-family="sans-serif" font-size="14" lengthAdjust="spacing" textLength="119" x="610.95" y="832.3062">PARTIAL_REFUND</text><text fill="#000000" font-family="sans-serif" font-size="14" lengthAdjust="spacing" textLength="117" x="610.95" y="848.7945">PAYMENT_EVENT</text><text fill="#000000" font-family="sans-serif" font-size="14" lengthAdjust="spacing" textLength="61" x="610.95" y="865.2828">PAYROLL</text><text fill="#000000" font-family="sans-serif" font-size="14" lengthAdjust="spacing" textLength="205" x="610.95" y="881.7711">SCHEDULED_PAYMENT_EVENT</text><text fill="#000000" font-family="sans-serif" font-size="14" lengthAdjust="spacing" textLength="87" x="610.95" y="898.2594">SERVICE_FEE</text><text fill="#000000" font-family="sans-serif" font-size="14" lengthAdjust="spacing" textLength="123" x="610.95" y="914.7477">TOTAL_FINANCED</text><text fill="#000000" font-family="sans-serif" font-size="14" lengthAdjust="spacing" textLength="118" x="610.95" y="931.2359">TOTAL_INTEREST</text><text fill="#000000" font-family="sans-serif" font-size="14" lengthAdjust="spacing" textLength="119" x="610.95" y="947.7242">TOTAL_PAYMENT</text><text fill="#000000" font-family="sans-serif" font-size="14" lengthAdjust="spacing" textLength="123" x="610.95" y="964.2125">TOTAL_PRINCIPAL</text><text fill="#000000" font-family="sans-serif" font-size="14" lengthAdjust="spacing" textLength="108" x="610.95" y="980.7008">TOTAL_REFUND</text><text fill="#000000" font-family="sans-serif" font-size="14" lengthAdjust="spacing" textLength="159" x="610.95" y="997.1891">TRADE_IN_ALLOWANCE</text><line style="stroke:#181818;stroke-width:0.5;" x1="605.95" x2="820.95" y1="1004.1422" y2="1004.1422"/></g><g id="elem_PaymentMethodTypes"><rect codeLine="60" fill="#FAFF91" height="443.7188" id="PaymentMethodTypes" rx="2.5" ry="2.5" style="stroke:#181818;stroke-width:0.5;" width="216" x="306.45" y="7"/><ellipse cx="336.75" cy="23" fill="#ADD1B2" rx="11" ry="11" style="stroke:#181818;stroke-width:1.0;"/><path d="M339.2231,29.1431 Q338.6421,29.4419 338.0029,29.5913 Q337.3638,29.7407 336.6582,29.7407 Q334.1514,29.7407 332.8315,28.0889 Q331.5117,26.437 331.5117,23.3159 Q331.5117,20.1865 332.8315,18.5347 Q334.1514,16.8828 336.6582,16.8828 Q337.3638,16.8828 338.0112,17.0322 Q338.6587,17.1816 339.2231,17.4805 L339.2231,20.2031 Q338.5923,19.6221 337.9988,19.3523 Q337.4053,19.0825 336.7744,19.0825 Q335.4297,19.0825 334.7449,20.1492 Q334.0601,21.2158 334.0601,23.3159 Q334.0601,25.4077 334.7449,26.4744 Q335.4297,27.541 336.7744,27.541 Q337.4053,27.541 337.9988,27.2712 Q338.5923,27.0015 339.2231,26.4204 Z " fill="#000000"/><text fill="#000000" font-family="sans-serif" font-size="14" lengthAdjust="spacing" textLength="150" x="354.15" y="28.291">PaymentMethodTypes</text><line style="stroke:#181818;stroke-width:0.5;" x1="307.45" x2="521.45" y1="39" y2="39"/><text fill="#000000" font-family="sans-serif" font-size="14" lengthAdjust="spacing" textLength="38" x="312.45" y="56.5352">CASH</text><text fill="#000000" font-family="sans-serif" font-size="14" lengthAdjust="spacing" textLength="137" x="312.45" y="73.0234">CASH_ON_DELIVERY</text><text fill="#000000" font-family="sans-serif" font-size="14" lengthAdjust="spacing" textLength="47" x="312.45" y="89.5117">CHECK</text><text fill="#000000" font-family="sans-serif" font-size="14" lengthAdjust="spacing" textLength="96" x="312.45" y="106">CREDIT_CARD</text><text fill="#000000" font-family="sans-serif" font-size="14" lengthAdjust="spacing" textLength="131" x="312.45" y="122.4883">CRYPTOCURRENCY</text><text fill="#000000" font-family="sans-serif" font-size="14" lengthAdjust="spacing" textLength="85" x="312.45" y="138.9766">DEBIT_CARD</text><text fill="#000000" font-family="sans-serif" font-size="14" lengthAdjust="spacing" textLength="119" x="312.45" y="155.4648">DUE_ON_RECEIPT</text><text fill="#000000" font-family="sans-serif" font-size="14" lengthAdjust="spacing" textLength="25" x="312.45" y="171.9531">EFT</text><text fill="#000000" font-family="sans-serif" font-size="14" lengthAdjust="spacing" textLength="75" x="312.45" y="188.4414">EXCHANGE</text><text fill="#000000" font-family="sans-serif" font-size="14" lengthAdjust="spacing" textLength="60" x="312.45" y="204.9297">FINANCE</text><text fill="#000000" font-family="sans-serif" font-size="14" lengthAdjust="spacing" textLength="77" x="312.45" y="221.418">GIFT_CARD</text><text fill="#000000" font-family="sans-serif" font-size="14" lengthAdjust="spacing" textLength="41" x="312.45" y="237.9063">LEASE</text><text fill="#000000" font-family="sans-serif" font-size="14" lengthAdjust="spacing" textLength="110" x="312.45" y="254.3945">MOBILE_WALLET</text><text fill="#000000" font-family="sans-serif" font-size="14" lengthAdjust="spacing" textLength="104" x="312.45" y="270.8828">MONEY_ORDER</text><text fill="#000000" font-family="sans-serif" font-size="14" lengthAdjust="spacing" textLength="117" x="312.45" y="287.3711">NOT_APPLICABLE</text><text fill="#000000" font-family="sans-serif" font-size="14" lengthAdjust="spacing" textLength="172" x="312.45" y="303.8594">ONLINE_BANK_TRANSFER</text><text fill="#000000" font-family="sans-serif" font-size="14" lengthAdjust="spacing" textLength="204" x="312.45" y="320.3477">ONLINE_PAYMENT_PLATFORM</text><text fill="#000000" font-family="sans-serif" font-size="14" lengthAdjust="spacing" textLength="47" x="312.45" y="336.8359">OTHER</text><text fill="#000000" font-family="sans-serif" font-size="14" lengthAdjust="spacing" textLength="150" x="312.45" y="353.3242">PAYROLL_DEDUCTION</text><text fill="#000000" font-family="sans-serif" font-size="14" lengthAdjust="spacing" textLength="53" x="312.45" y="369.8125">RENTAL</text><text fill="#000000" font-family="sans-serif" font-size="14" lengthAdjust="spacing" textLength="115" x="312.45" y="386.3008">REWARD_POINTS</text><text fill="#000000" font-family="sans-serif" font-size="14" lengthAdjust="spacing" textLength="102" x="312.45" y="402.7891">STORE_CREDIT</text><text fill="#000000" font-family="sans-serif" font-size="14" lengthAdjust="spacing" textLength="46" x="312.45" y="419.2773">TERMS</text><text fill="#000000" font-family="sans-serif" font-size="14" lengthAdjust="spacing" textLength="67" x="312.45" y="435.7656">TRADE_IN</text><line style="stroke:#181818;stroke-width:0.5;" x1="307.45" x2="521.45" y1="442.7188" y2="442.7188"/></g><g id="elem_PaymentStatusTypes"><rect codeLine="86" fill="#FAFF91" height="625.0898" id="PaymentStatusTypes" rx="2.5" ry="2.5" style="stroke:#181818;stroke-width:0.5;" width="213" x="687.95" y="1162.83"/><ellipse cx="721.4" cy="1178.83" fill="#ADD1B2" rx="11" ry="11" style="stroke:#181818;stroke-width:1.0;"/><path d="M723.8731,1184.9731 Q723.2921,1185.2719 722.6529,1185.4213 Q722.0138,1185.5707 721.3082,1185.5707 Q718.8014,1185.5707 717.4815,1183.9189 Q716.1617,1182.267 716.1617,1179.1459 Q716.1617,1176.0165 717.4815,1174.3647 Q718.8014,1172.7128 721.3082,1172.7128 Q722.0138,1172.7128 722.6612,1172.8622 Q723.3087,1173.0116 723.8731,1173.3105 L723.8731,1176.0331 Q723.2423,1175.4521 722.6488,1175.1823 Q722.0553,1174.9125 721.4244,1174.9125 Q720.0797,1174.9125 719.3949,1175.9792 Q718.7101,1177.0458 718.7101,1179.1459 Q718.7101,1181.2377 719.3949,1182.3044 Q720.0797,1183.371 721.4244,1183.371 Q722.0553,1183.371 722.6488,1183.1012 Q723.2423,1182.8315 723.8731,1182.2504 Z " fill="#000000"/><text fill="#000000" font-family="sans-serif" font-size="14" lengthAdjust="spacing" textLength="140" x="739.5" y="1184.121">PaymentStatusTypes</text><line style="stroke:#181818;stroke-width:0.5;" x1="688.95" x2="899.95" y1="1194.83" y2="1194.83"/><text fill="#000000" font-family="sans-serif" font-size="14" lengthAdjust="spacing" textLength="73" x="693.95" y="1212.3652">ACCEPTED</text><text fill="#000000" font-family="sans-serif" font-size="14" lengthAdjust="spacing" textLength="50" x="693.95" y="1228.8534">ACTIVE</text><text fill="#000000" font-family="sans-serif" font-size="14" lengthAdjust="spacing" textLength="73" x="693.95" y="1245.3417">APPROVED</text><text fill="#000000" font-family="sans-serif" font-size="14" lengthAdjust="spacing" textLength="115" x="693.95" y="1261.83">AUTO_INITIATED</text><text fill="#000000" font-family="sans-serif" font-size="14" lengthAdjust="spacing" textLength="128" x="693.95" y="1278.3183">AUTO_SCHEDULED</text><text fill="#000000" font-family="sans-serif" font-size="14" lengthAdjust="spacing" textLength="80" x="693.95" y="1294.8066">CANCELLED</text><text fill="#000000" font-family="sans-serif" font-size="14" lengthAdjust="spacing" textLength="62" x="693.95" y="1311.2948">CLEARED</text><text fill="#000000" font-family="sans-serif" font-size="14" lengthAdjust="spacing" textLength="83" x="693.95" y="1327.7831">COMPLETED</text><text fill="#000000" font-family="sans-serif" font-size="14" lengthAdjust="spacing" textLength="64" x="693.95" y="1344.2714">CREATED</text><text fill="#000000" font-family="sans-serif" font-size="14" lengthAdjust="spacing" textLength="70" x="693.95" y="1360.7597">DEFERRED</text><text fill="#000000" font-family="sans-serif" font-size="14" lengthAdjust="spacing" textLength="144" x="693.95" y="1377.248">DEFERRED_INTERNAL</text><text fill="#000000" font-family="sans-serif" font-size="14" lengthAdjust="spacing" textLength="50" x="693.95" y="1393.7363">DENIED</text><text fill="#000000" font-family="sans-serif" font-size="14" lengthAdjust="spacing" textLength="56" x="693.95" y="1410.2245">EXPIRED</text><text fill="#000000" font-family="sans-serif" font-size="14" lengthAdjust="spacing" textLength="47" x="693.95" y="1426.7128">FAILED</text><text fill="#000000" font-family="sans-serif" font-size="14" lengthAdjust="spacing" textLength="104" x="693.95" y="1443.2011">FRAUD_REVIEW</text><text fill="#000000" font-family="sans-serif" font-size="14" lengthAdjust="spacing" textLength="56" x="693.95" y="1459.6894">FUNDED</text><text fill="#000000" font-family="sans-serif" font-size="14" lengthAdjust="spacing" textLength="64" x="693.95" y="1476.1777">INACTIVE</text><text fill="#000000" font-family="sans-serif" font-size="14" lengthAdjust="spacing" textLength="134" x="693.95" y="1492.6659">MANUAL_INITIATED</text><text fill="#000000" font-family="sans-serif" font-size="14" lengthAdjust="spacing" textLength="32" x="693.95" y="1509.1542">PAID</text><text fill="#000000" font-family="sans-serif" font-size="14" lengthAdjust="spacing" textLength="137" x="693.95" y="1525.6425">PAYROLL_FINALIZED</text><text fill="#000000" font-family="sans-serif" font-size="14" lengthAdjust="spacing" textLength="128" x="693.95" y="1542.1308">PAYROLL_PENDING</text><text fill="#000000" font-family="sans-serif" font-size="14" lengthAdjust="spacing" textLength="60" x="693.95" y="1558.6191">PENDING</text><text fill="#000000" font-family="sans-serif" font-size="14" lengthAdjust="spacing" textLength="164" x="693.95" y="1575.1073">PENDING_PAYER_FUNDS</text><text fill="#000000" font-family="sans-serif" font-size="14" lengthAdjust="spacing" textLength="80" x="693.95" y="1591.5956">PROCESSED</text><text fill="#000000" font-family="sans-serif" font-size="14" lengthAdjust="spacing" textLength="86" x="693.95" y="1608.0839">PROCESSING</text><text fill="#000000" font-family="sans-serif" font-size="14" lengthAdjust="spacing" textLength="73" x="693.95" y="1624.5722">REFUNDED</text><text fill="#000000" font-family="sans-serif" font-size="14" lengthAdjust="spacing" textLength="66" x="693.95" y="1641.0605">REJECTED</text><text fill="#000000" font-family="sans-serif" font-size="14" lengthAdjust="spacing" textLength="128" x="693.95" y="1657.5488">REQUIRES_ACTION</text><text fill="#000000" font-family="sans-serif" font-size="14" lengthAdjust="spacing" textLength="201" x="693.95" y="1674.037">REQUIRES_PAYMENT_STATUS</text><text fill="#000000" font-family="sans-serif" font-size="14" lengthAdjust="spacing" textLength="73" x="693.95" y="1690.5253">RETURNED</text><text fill="#000000" font-family="sans-serif" font-size="14" lengthAdjust="spacing" textLength="69" x="693.95" y="1707.0136">REVERSED</text><text fill="#000000" font-family="sans-serif" font-size="14" lengthAdjust="spacing" textLength="81" x="693.95" y="1723.5019">SCHEDULED</text><text fill="#000000" font-family="sans-serif" font-size="14" lengthAdjust="spacing" textLength="78" x="693.95" y="1739.9902">SUBMITTED</text><text fill="#000000" font-family="sans-serif" font-size="14" lengthAdjust="spacing" textLength="82" x="693.95" y="1756.4784">SUCCEEDED</text><text fill="#000000" font-family="sans-serif" font-size="14" lengthAdjust="spacing" textLength="52" x="693.95" y="1772.9667">VOIDED</text><line style="stroke:#181818;stroke-width:0.5;" x1="688.95" x2="899.95" y1="1779.9198" y2="1779.9198"/></g><g id="elem_PaymentTransactionStatusTypes"><rect codeLine="123" fill="#FAFF91" height="592.1133" id="PaymentTransactionStatusTypes" rx="2.5" ry="2.5" style="stroke:#181818;stroke-width:0.5;" width="253" x="856.95" y="510.72"/><ellipse cx="871.95" cy="526.72" fill="#ADD1B2" rx="11" ry="11" style="stroke:#181818;stroke-width:1.0;"/><path d="M874.4231,532.8631 Q873.8421,533.1619 873.2029,533.3113 Q872.5638,533.4607 871.8582,533.4607 Q869.3514,533.4607 868.0315,531.8089 Q866.7117,530.157 866.7117,527.0359 Q866.7117,523.9065 868.0315,522.2547 Q869.3514,520.6028 871.8582,520.6028 Q872.5638,520.6028 873.2112,520.7522 Q873.8587,520.9016 874.4231,521.2005 L874.4231,523.9231 Q873.7923,523.3421 873.1988,523.0723 Q872.6053,522.8025 871.9744,522.8025 Q870.6297,522.8025 869.9449,523.8692 Q869.2601,524.9358 869.2601,527.0359 Q869.2601,529.1277 869.9449,530.1944 Q870.6297,531.261 871.9744,531.261 Q872.6053,531.261 873.1988,530.9912 Q873.7923,530.7215 874.4231,530.1404 Z " fill="#000000"/><text fill="#000000" font-family="sans-serif" font-size="14" lengthAdjust="spacing" textLength="221" x="885.95" y="532.011">PaymentTransactionStatusTypes</text><line style="stroke:#181818;stroke-width:0.5;" x1="857.95" x2="1108.95" y1="542.72" y2="542.72"/><text fill="#000000" font-family="sans-serif" font-size="14" lengthAdjust="spacing" textLength="79" x="862.95" y="560.2552">ACTIVATED</text><text fill="#000000" font-family="sans-serif" font-size="14" lengthAdjust="spacing" textLength="91" x="862.95" y="576.7434">ADMIN_HOLD</text><text fill="#000000" font-family="sans-serif" font-size="14" lengthAdjust="spacing" textLength="63" x="862.95" y="593.2317">APPROVE</text><text fill="#000000" font-family="sans-serif" font-size="14" lengthAdjust="spacing" textLength="79" x="862.95" y="609.72">AUTHORIZE</text><text fill="#000000" font-family="sans-serif" font-size="14" lengthAdjust="spacing" textLength="55" x="862.95" y="626.2083">CANCEL</text><text fill="#000000" font-family="sans-serif" font-size="14" lengthAdjust="spacing" textLength="74" x="862.95" y="642.6966">CAPTURED</text><text fill="#000000" font-family="sans-serif" font-size="14" lengthAdjust="spacing" textLength="44" x="862.95" y="659.1848">CLOSE</text><text fill="#000000" font-family="sans-serif" font-size="14" lengthAdjust="spacing" textLength="64" x="862.95" y="675.6731">CONFIRM</text><text fill="#000000" font-family="sans-serif" font-size="14" lengthAdjust="spacing" textLength="108" x="862.95" y="692.1614">CONFIRMATION</text><text fill="#000000" font-family="sans-serif" font-size="14" lengthAdjust="spacing" textLength="106" x="862.95" y="708.6497">CUSTOM_CODE</text><text fill="#000000" font-family="sans-serif" font-size="14" lengthAdjust="spacing" textLength="87" x="862.95" y="725.138">DEACTIVATE</text><text fill="#000000" font-family="sans-serif" font-size="14" lengthAdjust="spacing" textLength="57" x="862.95" y="741.6263">DECLINE</text><text fill="#000000" font-family="sans-serif" font-size="14" lengthAdjust="spacing" textLength="90" x="862.95" y="758.1145">DOWNGRADE</text><text fill="#000000" font-family="sans-serif" font-size="14" lengthAdjust="spacing" textLength="28" x="862.95" y="774.6028">DUE</text><text fill="#000000" font-family="sans-serif" font-size="14" lengthAdjust="spacing" textLength="56" x="862.95" y="791.0911">EXPIRED</text><text fill="#000000" font-family="sans-serif" font-size="14" lengthAdjust="spacing" textLength="110" x="862.95" y="807.5794">HOLD_ON_DATE</text><text fill="#000000" font-family="sans-serif" font-size="14" lengthAdjust="spacing" textLength="137" x="862.95" y="824.0677">HOLD_ON_RENEWAL</text><text fill="#000000" font-family="sans-serif" font-size="14" lengthAdjust="spacing" textLength="70" x="862.95" y="840.5559">INCURRED</text><text fill="#000000" font-family="sans-serif" font-size="14" lengthAdjust="spacing" textLength="39" x="862.95" y="857.0442">NONE</text><text fill="#000000" font-family="sans-serif" font-size="14" lengthAdjust="spacing" textLength="37" x="862.95" y="873.5325">OPEN</text><text fill="#000000" font-family="sans-serif" font-size="14" lengthAdjust="spacing" textLength="68" x="862.95" y="890.0208">OVERRIDE</text><text fill="#000000" font-family="sans-serif" font-size="14" lengthAdjust="spacing" textLength="153" x="862.95" y="906.5091">PARTIALLY_REFUNDED</text><text fill="#000000" font-family="sans-serif" font-size="14" lengthAdjust="spacing" textLength="66" x="862.95" y="922.9973">PAYMENT</text><text fill="#000000" font-family="sans-serif" font-size="14" lengthAdjust="spacing" textLength="36" x="862.95" y="939.4856">PEND</text><text fill="#000000" font-family="sans-serif" font-size="14" lengthAdjust="spacing" textLength="145" x="862.95" y="955.9739">PENDING_MERCHANT</text><text fill="#000000" font-family="sans-serif" font-size="14" lengthAdjust="spacing" textLength="62" x="862.95" y="972.4622">PROCESS</text><text fill="#000000" font-family="sans-serif" font-size="14" lengthAdjust="spacing" textLength="73" x="862.95" y="988.9505">REFUNDED</text><text fill="#000000" font-family="sans-serif" font-size="14" lengthAdjust="spacing" textLength="99" x="862.95" y="1005.4388">SUBSCRIPTION</text><text fill="#000000" font-family="sans-serif" font-size="14" lengthAdjust="spacing" textLength="80" x="862.95" y="1021.927">SUSPENDED</text><text fill="#000000" font-family="sans-serif" font-size="14" lengthAdjust="spacing" textLength="39" x="862.95" y="1038.4153">TRIAL</text><text fill="#000000" font-family="sans-serif" font-size="14" lengthAdjust="spacing" textLength="65" x="862.95" y="1054.9036">UPGRADE</text><text fill="#000000" font-family="sans-serif" font-size="14" lengthAdjust="spacing" textLength="80" x="862.95" y="1071.3919">USER_HOLD</text><text fill="#000000" font-family="sans-serif" font-size="14" lengthAdjust="spacing" textLength="34" x="862.95" y="1087.8802">VOID</text><line style="stroke:#181818;stroke-width:0.5;" x1="857.95" x2="1108.95" y1="1094.8333" y2="1094.8333"/></g><g id="link_Money_Payment"><path codeLine="158" d="M128.87,880.55 C86.94,1052.79 6,1493.03 183.45,1787.92 C200.59,1816.41 225.85,1839.7 253.69,1858.53 " fill="none" id="Money-Payment" style="stroke:#181818;stroke-width:1.0;"/></g><g id="link_Money_PaymentTransaction"><path codeLine="159" d="M167.87,880.45 C184.84,940.87 211.41,1028.66 241.45,1102.83 C284.7,1209.64 346.4,1327.83 386.68,1401.6 " fill="none" id="Money-PaymentTransaction" style="stroke:#181818;stroke-width:1.0;"/></g><g id="link_PaymentAmountTypes_PaymentTransaction"><path codeLine="160" d="M626.09,1012.57 C613.15,1042.84 599.96,1073.65 587.45,1102.83 C542.95,1206.59 491.25,1326.54 458.94,1401.44 " fill="none" id="PaymentAmountTypes-PaymentTransaction" style="stroke:#181818;stroke-width:1.0;"/></g><g id="link_PaymentMethodReference_PaymentTransaction"><path codeLine="161" d="M416.19,896.98 C418.79,1030.2 423.63,1278.58 426.03,1401.55 " fill="none" id="PaymentMethodReference-PaymentTransaction" style="stroke:#181818;stroke-width:1.0;"/></g><g id="link_PaymentMethodTypes_PaymentMethodReference"><path codeLine="162" d="M414.45,450.88 C414.45,543.34 414.45,645.56 414.45,716.45 " fill="none" id="PaymentMethodTypes-PaymentMethodReference" style="stroke:#181818;stroke-width:1.0;"/></g><g id="link_PaymentStatusTypes_Payment"><path codeLine="163" d="M687.56,1767.64 C682.42,1774.65 677.05,1781.43 671.45,1787.92 C651.64,1810.88 627.12,1830.97 601.33,1848.23 " fill="none" id="PaymentStatusTypes-Payment" style="stroke:#181818;stroke-width:1.0;"/></g><g id="link_PaymentTransactionStatusTypes_PaymentTransaction"><path codeLine="164" d="M856.65,1086.03 C851.13,1091.9 845.4,1097.52 839.45,1102.83 C780,1155.92 735.1,1116.21 670.45,1162.83 C581.99,1226.63 509.67,1331.36 467.57,1401.56 " fill="none" id="PaymentTransactionStatusTypes-PaymentTransaction" style="stroke:#181818;stroke-width:1.0;"/></g><g id="link_PaymentTransaction_Payment"><path codeLine="165" d="M427.45,1561.29 C427.45,1642.86 427.45,1762.66 427.45,1847.45 " fill="none" id="PaymentTransaction-backto-Payment" style="stroke:#181818;stroke-width:1.0;"/><polygon fill="#181818" points="427.45,1549.29,423.45,1555.29,427.45,1561.29,431.45,1555.29,427.45,1549.29" style="stroke:#181818;stroke-width:1.0;"/></g></g></svg>