<?xml version="1.0" encoding="us-ascii" standalone="no"?><svg xmlns="http://www.w3.org/2000/svg" xmlns:xlink="http://www.w3.org/1999/xlink" contentStyleType="text/css" height="242px" preserveAspectRatio="none" style="width:678px;height:242px;background:#FFFFFF;" version="1.1" viewBox="0 0 678 242" width="678px" zoomAndPan="magnify"><defs/><g><g id="elem_EffectivePeriod"><rect fill="#F1F1F1" height="36.4883" rx="2.5" ry="2.5" style="stroke:#181818;stroke-width:0.5;" width="121" x="371.5" y="103.48"/><text fill="#000000" font-family="sans-serif" font-size="14" lengthAdjust="spacing" textLength="101" x="381.5" y="127.0152">EffectivePeriod</text></g><g id="elem_Identifier"><rect fill="#F1F1F1" height="36.4883" rx="2.5" ry="2.5" style="stroke:#181818;stroke-width:0.5;" width="82" x="7" y="103.48"/><text fill="#000000" font-family="sans-serif" font-size="14" lengthAdjust="spacing" textLength="62" x="17" y="127.0152">Identifier</text></g><g id="elem_PayrollRun"><rect fill="#F1F1F1" height="36.4883" rx="2.5" ry="2.5" style="stroke:#181818;stroke-width:0.5;" width="93" x="183.5" y="199.97"/><text fill="#000000" font-family="sans-serif" font-size="14" lengthAdjust="spacing" textLength="73" x="193.5" y="223.5052">PayrollRun</text></g><g id="elem_TimeSlot"><rect fill="#F1F1F1" height="36.4883" rx="2.5" ry="2.5" style="stroke:#181818;stroke-width:0.5;" width="80" x="392" y="199.97"/><text fill="#000000" font-family="sans-serif" font-size="14" lengthAdjust="spacing" textLength="60" x="402" y="223.5052">TimeSlot</text></g><g id="elem_DaysOfWeekTypes"><rect fill="#FAFF91" height="36.4883" rx="2.5" ry="2.5" style="stroke:#181818;stroke-width:0.5;" width="144" x="528" y="103.48"/><text fill="#000000" font-family="sans-serif" font-size="14" lengthAdjust="spacing" textLength="124" x="538" y="127.0152">DaysOfWeekTypes</text></g><g id="elem_DurationUOMTypes"><rect fill="#FAFF91" height="36.4883" rx="2.5" ry="2.5" style="stroke:#181818;stroke-width:0.5;" width="153" x="355.5" y="7"/><text fill="#000000" font-family="sans-serif" font-size="14" lengthAdjust="spacing" textLength="133" x="365.5" y="30.5352">DurationUOMTypes</text></g><g id="elem_PayrollCycleFrequencyTypes"><rect fill="#FAFF91" height="36.4883" rx="2.5" ry="2.5" style="stroke:#181818;stroke-width:0.5;" width="213" x="123.5" y="103.48"/><text fill="#000000" font-family="sans-serif" font-size="14" lengthAdjust="spacing" textLength="193" x="133.5" y="127.0152">PayrollCycleFrequencyTypes</text></g><g id="link_DaysOfWeekTypes_TimeSlot"><path d="M568.79,140.28 C538.71,157.2 493.44,182.66 463.32,199.6 " fill="none" id="DaysOfWeekTypes-TimeSlot" style="stroke:#181818;stroke-width:1.0;"/></g><g id="link_DurationUOMTypes_EffectivePeriod"><path d="M432,43.57 C432,60.51 432,86.17 432,103.19 " fill="none" id="DurationUOMTypes-EffectivePeriod" style="stroke:#181818;stroke-width:1.0;"/></g><g id="link_EffectivePeriod_PayrollRun"><path d="M394.48,140.28 C358.31,157.2 303.88,182.66 267.66,199.6 " fill="none" id="EffectivePeriod-PayrollRun" style="stroke:#181818;stroke-width:1.0;"/></g><g id="link_EffectivePeriod_TimeSlot"><path d="M421.57,140.06 C417.99,157 417.98,182.66 421.53,199.68 " fill="none" id="EffectivePeriod-TimeSlot" style="stroke:#181818;stroke-width:1.0;"/></g><g id="link_TimeSlot_EffectivePeriod"><path d="M442.47,199.68 C446.02,182.66 446.01,157 442.43,140.06 " fill="none" id="TimeSlot-EffectivePeriod" style="stroke:#181818;stroke-width:1.0;"/></g><g id="link_Identifier_PayrollRun"><path d="M92.4595,145.8107 C125.0395,162.7307 163.44,182.66 196.07,199.6 " fill="none" id="Identifier-backto-PayrollRun" style="stroke:#181818;stroke-width:1.0;"/><polygon fill="#181818" points="81.81,140.28,85.2912,146.5952,92.4595,145.8107,88.9783,139.4955,81.81,140.28" style="stroke:#181818;stroke-width:1.0;"/></g><g id="link_PayrollCycleFrequencyTypes_PayrollRun"><path d="M230,140.06 C230,157 230,182.66 230,199.68 " fill="none" id="PayrollCycleFrequencyTypes-PayrollRun" style="stroke:#181818;stroke-width:1.0;"/></g></g></svg>