<?xml version="1.0" encoding="us-ascii" standalone="no"?><svg xmlns="http://www.w3.org/2000/svg" xmlns:xlink="http://www.w3.org/1999/xlink" contentStyleType="text/css" height="338px" preserveAspectRatio="none" style="width:1032px;height:338px;background:#FFFFFF;" version="1.1" viewBox="0 0 1032 338" width="1032px" zoomAndPan="magnify"><defs/><g><g id="elem_EffectivePeriod"><rect fill="#F1F1F1" height="36.4883" rx="2.5" ry="2.5" style="stroke:#181818;stroke-width:0.5;" width="121" x="726" y="199.97"/><text fill="#000000" font-family="sans-serif" font-size="14" lengthAdjust="spacing" textLength="101" x="736" y="223.5052">EffectivePeriod</text></g><g id="elem_Identifier"><rect fill="#F1F1F1" height="36.4883" rx="2.5" ry="2.5" style="stroke:#181818;stroke-width:0.5;" width="82" x="179.5" y="7"/><text fill="#000000" font-family="sans-serif" font-size="14" lengthAdjust="spacing" textLength="62" x="189.5" y="30.5352">Identifier</text></g><g id="elem_Money"><rect fill="#F1F1F1" height="36.4883" rx="2.5" ry="2.5" style="stroke:#181818;stroke-width:0.5;" width="65" x="7" y="199.97"/><text fill="#000000" font-family="sans-serif" font-size="14" lengthAdjust="spacing" textLength="45" x="17" y="223.5052">Money</text></g><g id="elem_Party"><rect fill="#F1F1F1" height="36.4883" rx="2.5" ry="2.5" style="stroke:#181818;stroke-width:0.5;" width="54" x="134.5" y="103.49"/><text fill="#000000" font-family="sans-serif" font-size="14" lengthAdjust="spacing" textLength="34" x="144.5" y="127.0252">Party</text></g><g id="elem_PartyIdentifier"><rect fill="#F1F1F1" height="36.4883" rx="2.5" ry="2.5" style="stroke:#181818;stroke-width:0.5;" width="116" x="107.5" y="199.97"/><text fill="#000000" font-family="sans-serif" font-size="14" lengthAdjust="spacing" textLength="96" x="117.5" y="223.5052">PartyIdentifier</text></g><g id="elem_PayRate"><rect fill="#F1F1F1" height="36.4883" rx="2.5" ry="2.5" style="stroke:#181818;stroke-width:0.5;" width="73" x="320" y="296.46"/><text fill="#000000" font-family="sans-serif" font-size="14" lengthAdjust="spacing" textLength="53" x="330" y="319.9952">PayRate</text></g><g id="elem_TextualDetail"><rect fill="#F1F1F1" height="36.4883" rx="2.5" ry="2.5" style="stroke:#181818;stroke-width:0.5;" width="111" x="224" y="103.49"/><text fill="#000000" font-family="sans-serif" font-size="14" lengthAdjust="spacing" textLength="91" x="234" y="127.0252">TextualDetail</text></g><g id="elem_TimeSlot"><rect fill="#F1F1F1" height="36.4883" rx="2.5" ry="2.5" style="stroke:#181818;stroke-width:0.5;" width="80" x="746.5" y="296.46"/><text fill="#000000" font-family="sans-serif" font-size="14" lengthAdjust="spacing" textLength="60" x="756.5" y="319.9952">TimeSlot</text></g><g id="elem_DaysOfWeekTypes"><rect fill="#FAFF91" height="36.4883" rx="2.5" ry="2.5" style="stroke:#181818;stroke-width:0.5;" width="144" x="882.5" y="199.97"/><text fill="#000000" font-family="sans-serif" font-size="14" lengthAdjust="spacing" textLength="124" x="892.5" y="223.5052">DaysOfWeekTypes</text></g><g id="elem_DurationUOMTypes"><rect fill="#FAFF91" height="36.4883" rx="2.5" ry="2.5" style="stroke:#181818;stroke-width:0.5;" width="153" x="710" y="103.49"/><text fill="#000000" font-family="sans-serif" font-size="14" lengthAdjust="spacing" textLength="133" x="720" y="127.0252">DurationUOMTypes</text></g><g id="elem_PayrollCycleFrequencyTypes"><rect fill="#FAFF91" height="36.4883" rx="2.5" ry="2.5" style="stroke:#181818;stroke-width:0.5;" width="213" x="329" y="199.97"/><text fill="#000000" font-family="sans-serif" font-size="14" lengthAdjust="spacing" textLength="193" x="339" y="223.5052">PayrollCycleFrequencyTypes</text></g><g id="elem_StaffPayTypes"><rect fill="#FAFF91" height="36.4883" rx="2.5" ry="2.5" style="stroke:#181818;stroke-width:0.5;" width="114" x="576.5" y="199.97"/><text fill="#000000" font-family="sans-serif" font-size="14" lengthAdjust="spacing" textLength="94" x="586.5" y="223.5052">StaffPayTypes</text></g><g id="link_DaysOfWeekTypes_TimeSlot"><path d="M923.29,236.77 C893.21,253.69 847.94,279.15 817.82,296.09 " fill="none" id="DaysOfWeekTypes-TimeSlot" style="stroke:#181818;stroke-width:1.0;"/></g><g id="link_DurationUOMTypes_EffectivePeriod"><path d="M786.5,140.06 C786.5,157 786.5,182.66 786.5,199.68 " fill="none" id="DurationUOMTypes-EffectivePeriod" style="stroke:#181818;stroke-width:1.0;"/></g><g id="link_EffectivePeriod_PayRate"><path d="M725.8,232.56 C635.29,252.45 467.64,289.28 393.46,305.58 " fill="none" id="EffectivePeriod-PayRate" style="stroke:#181818;stroke-width:1.0;"/></g><g id="link_EffectivePeriod_TimeSlot"><path d="M776.07,236.55 C772.49,253.49 772.48,279.15 776.03,296.17 " fill="none" id="EffectivePeriod-TimeSlot" style="stroke:#181818;stroke-width:1.0;"/></g><g id="link_TimeSlot_EffectivePeriod"><path d="M796.97,296.17 C800.52,279.15 800.51,253.49 796.93,236.55 " fill="none" id="TimeSlot-EffectivePeriod" style="stroke:#181818;stroke-width:1.0;"/></g><g id="link_Identifier_Party"><path d="M203.3233,53.748 C192.7433,70.688 183.08,86.17 172.45,103.19 " fill="none" id="Identifier-backto-Party" style="stroke:#181818;stroke-width:1.0;"/><polygon fill="#181818" points="209.68,43.57,203.109,46.5401,203.3233,53.748,209.8943,50.7779,209.68,43.57" style="stroke:#181818;stroke-width:1.0;"/></g><g id="link_Identifier_TextualDetail"><path d="M237.6767,53.748 C248.2567,70.688 257.92,86.17 268.55,103.19 " fill="none" id="Identifier-backto-TextualDetail" style="stroke:#181818;stroke-width:1.0;"/><polygon fill="#181818" points="231.32,43.57,231.1057,50.7779,237.6767,53.748,237.891,46.5401,231.32,43.57" style="stroke:#181818;stroke-width:1.0;"/></g><g id="link_Money_PayRate"><path d="M72.35,230.56 C78.37,232.57 84.61,234.61 90.5,236.46 C171.93,262.04 268.32,289.28 319.78,303.59 " fill="none" id="Money-PayRate" style="stroke:#181818;stroke-width:1.0;"/></g><g id="link_Party_PartyIdentifier"><path d="M162.23,140.06 C162.95,157 164.04,182.66 164.76,199.68 " fill="none" id="Party-PartyIdentifier" style="stroke:#181818;stroke-width:1.0;"/></g><g id="link_PartyIdentifier_PayRate"><path d="M211.7357,242.0912 C245.9357,259.0112 286.64,279.15 320.89,296.09 " fill="none" id="PartyIdentifier-backto-PayRate" style="stroke:#181818;stroke-width:1.0;"/><polygon fill="#181818" points="200.98,236.77,204.5841,243.0158,211.7357,242.0912,208.1316,235.8454,200.98,236.77" style="stroke:#181818;stroke-width:1.0;"/></g><g id="link_PayrollCycleFrequencyTypes_PayRate"><path d="M421.01,236.55 C406.85,253.49 385.39,279.15 371.17,296.17 " fill="none" id="PayrollCycleFrequencyTypes-PayRate" style="stroke:#181818;stroke-width:1.0;"/></g><g id="link_StaffPayTypes_PayRate"><path d="M581.72,236.88 C526.92,255.57 441.79,284.61 393.41,301.11 " fill="none" id="StaffPayTypes-PayRate" style="stroke:#181818;stroke-width:1.0;"/></g><g id="link_TextualDetail_PayRate"><path d="M285.4553,151.8877 C290.2853,174.6077 297.57,203.6 311.5,236.46 C320.58,257.9 334.47,280.73 344.42,295.97 " fill="none" id="TextualDetail-backto-PayRate" style="stroke:#181818;stroke-width:1.0;"/><polygon fill="#181818" points="282.96,140.15,280.2951,146.8506,285.4553,151.8877,288.1202,145.1871,282.96,140.15" style="stroke:#181818;stroke-width:1.0;"/></g></g></svg>