<?xml version="1.0" encoding="us-ascii" standalone="no"?><svg xmlns="http://www.w3.org/2000/svg" xmlns:xlink="http://www.w3.org/1999/xlink" contentStyleType="text/css" height="1803px" preserveAspectRatio="none" style="width:1968px;height:1803px;background:#FFFFFF;" version="1.1" viewBox="0 0 1968 1803" width="1968px" zoomAndPan="magnify"><defs/><g><g id="elem_ControlAccount"><rect codeLine="1" fill="#F1F1F1" height="245.8594" id="ControlAccount" rx="2.5" ry="2.5" style="stroke:#181818;stroke-width:0.5;" width="362" x="353" y="766.28"/><ellipse cx="475.75" cy="782.28" fill="#ADD1B2" rx="11" ry="11" style="stroke:#181818;stroke-width:1.0;"/><path d="M478.2231,788.4231 Q477.6421,788.7219 477.0029,788.8713 Q476.3638,789.0207 475.6582,789.0207 Q473.1514,789.0207 471.8315,787.3689 Q470.5117,785.717 470.5117,782.5959 Q470.5117,779.4665 471.8315,777.8147 Q473.1514,776.1628 475.6582,776.1628 Q476.3638,776.1628 477.0112,776.3122 Q477.6587,776.4616 478.2231,776.7605 L478.2231,779.4831 Q477.5923,778.9021 476.9988,778.6323 Q476.4053,778.3625 475.7744,778.3625 Q474.4297,778.3625 473.7449,779.4292 Q473.0601,780.4958 473.0601,782.5959 Q473.0601,784.6877 473.7449,785.7544 Q474.4297,786.821 475.7744,786.821 Q476.4053,786.821 476.9988,786.5512 Q477.5923,786.2815 478.2231,785.7004 Z " fill="#000000"/><text fill="#000000" font-family="sans-serif" font-size="14" lengthAdjust="spacing" textLength="108" x="496.25" y="787.571">ControlAccount</text><line style="stroke:#181818;stroke-width:0.5;" x1="354" x2="714" y1="798.28" y2="798.28"/><text fill="#000000" font-family="sans-serif" font-size="14" lengthAdjust="spacing" textLength="180" x="359" y="815.8152">identifiers:List&lt;Identifier&gt;</text><text fill="#000000" font-family="sans-serif" font-size="14" lengthAdjust="spacing" textLength="182" x="359" y="832.3034">controlAccountDesc:String</text><text fill="#000000" font-family="sans-serif" font-size="14" lengthAdjust="spacing" textLength="163" x="359" y="848.7917">controlAccountId:String</text><text fill="#000000" font-family="sans-serif" font-size="14" lengthAdjust="spacing" textLength="174" x="359" y="865.28">controlAccountKey:String</text><text fill="#000000" font-family="sans-serif" font-size="14" lengthAdjust="spacing" textLength="189" x="359" y="881.7683">controlAccountName:String</text><text fill="#000000" font-family="sans-serif" font-size="14" lengthAdjust="spacing" textLength="290" x="359" y="898.2566">controlAccountType:ControlAccountTypes</text><text fill="#000000" font-family="sans-serif" font-size="14" lengthAdjust="spacing" textLength="140" x="359" y="914.7448">controlTypeId:String</text><text fill="#000000" font-family="sans-serif" font-size="14" lengthAdjust="spacing" textLength="148" x="359" y="931.2331">bankAccountId:String</text><text fill="#000000" font-family="sans-serif" font-size="14" lengthAdjust="spacing" textLength="129" x="359" y="947.7214">isCounted:Boolean</text><text fill="#000000" font-family="sans-serif" font-size="14" lengthAdjust="spacing" textLength="86" x="359" y="964.2097">prefix:String</text><text fill="#000000" font-family="sans-serif" font-size="14" lengthAdjust="spacing" textLength="350" x="359" y="980.698">controlAccountRoleType:ControlAccountRoleTypes</text><text fill="#000000" font-family="sans-serif" font-size="14" lengthAdjust="spacing" textLength="320" x="359" y="997.1863">financialCategoryType:FinancialCategoryTypes</text><line style="stroke:#181818;stroke-width:0.5;" x1="354" x2="714" y1="1004.1394" y2="1004.1394"/></g><g id="elem_Identifier"><rect codeLine="15" fill="#F1F1F1" height="113.9531" id="Identifier" rx="2.5" ry="2.5" style="stroke:#181818;stroke-width:0.5;" width="143" x="696.5" y="246.08"/><ellipse cx="733.55" cy="262.08" fill="#ADD1B2" rx="11" ry="11" style="stroke:#181818;stroke-width:1.0;"/><path d="M736.0231,268.2231 Q735.4421,268.5219 734.8029,268.6713 Q734.1638,268.8207 733.4582,268.8207 Q730.9514,268.8207 729.6315,267.1689 Q728.3117,265.517 728.3117,262.3959 Q728.3117,259.2665 729.6315,257.6147 Q730.9514,255.9628 733.4582,255.9628 Q734.1638,255.9628 734.8112,256.1122 Q735.4587,256.2616 736.0231,256.5605 L736.0231,259.2831 Q735.3923,258.7021 734.7988,258.4323 Q734.2053,258.1625 733.5744,258.1625 Q732.2297,258.1625 731.5449,259.2292 Q730.8601,260.2958 730.8601,262.3959 Q730.8601,264.4877 731.5449,265.5544 Q732.2297,266.621 733.5744,266.621 Q734.2053,266.621 734.7988,266.3512 Q735.3923,266.0815 736.0231,265.5004 Z " fill="#000000"/><text fill="#000000" font-family="sans-serif" font-size="14" lengthAdjust="spacing" textLength="62" x="752.45" y="267.371">Identifier</text><line style="stroke:#181818;stroke-width:0.5;" x1="697.5" x2="838.5" y1="278.08" y2="278.08"/><text fill="#000000" font-family="sans-serif" font-size="14" lengthAdjust="spacing" textLength="120" x="702.5" y="295.6152">identifierId:String</text><text fill="#000000" font-family="sans-serif" font-size="14" lengthAdjust="spacing" textLength="131" x="702.5" y="312.1034">identifierKey:String</text><text fill="#000000" font-family="sans-serif" font-size="14" lengthAdjust="spacing" textLength="97" x="702.5" y="328.5917">context:String</text><text fill="#000000" font-family="sans-serif" font-size="14" lengthAdjust="spacing" textLength="81" x="702.5" y="345.08">value:String</text><line style="stroke:#181818;stroke-width:0.5;" x1="697.5" x2="838.5" y1="352.0331" y2="352.0331"/></g><g id="elem_JournalEntry"><rect codeLine="21" fill="#F1F1F1" height="361.2773" id="JournalEntry" rx="2.5" ry="2.5" style="stroke:#181818;stroke-width:0.5;" width="281" x="1281.5" y="1179.32"/><ellipse cx="1375.75" cy="1195.32" fill="#ADD1B2" rx="11" ry="11" style="stroke:#181818;stroke-width:1.0;"/><path d="M1378.2231,1201.4631 Q1377.6421,1201.7619 1377.0029,1201.9113 Q1376.3638,1202.0607 1375.6582,1202.0607 Q1373.1514,1202.0607 1371.8315,1200.4089 Q1370.5117,1198.757 1370.5117,1195.6359 Q1370.5117,1192.5065 1371.8315,1190.8547 Q1373.1514,1189.2028 1375.6582,1189.2028 Q1376.3638,1189.2028 1377.0112,1189.3522 Q1377.6587,1189.5016 1378.2231,1189.8005 L1378.2231,1192.5231 Q1377.5923,1191.9421 1376.9988,1191.6723 Q1376.4053,1191.4025 1375.7744,1191.4025 Q1374.4297,1191.4025 1373.7449,1192.4692 Q1373.0601,1193.5358 1373.0601,1195.6359 Q1373.0601,1197.7277 1373.7449,1198.7944 Q1374.4297,1199.861 1375.7744,1199.861 Q1376.4053,1199.861 1376.9988,1199.5912 Q1377.5923,1199.3215 1378.2231,1198.7404 Z " fill="#000000"/><text fill="#000000" font-family="sans-serif" font-size="14" lengthAdjust="spacing" textLength="84" x="1396.25" y="1200.611">JournalEntry</text><line style="stroke:#181818;stroke-width:0.5;" x1="1282.5" x2="1561.5" y1="1211.32" y2="1211.32"/><text fill="#000000" font-family="sans-serif" font-size="14" lengthAdjust="spacing" textLength="142" x="1287.5" y="1228.8552">journalEntryId:String</text><text fill="#000000" font-family="sans-serif" font-size="14" lengthAdjust="spacing" textLength="153" x="1287.5" y="1245.3434">journalEntryKey:String</text><text fill="#000000" font-family="sans-serif" font-size="14" lengthAdjust="spacing" textLength="146" x="1287.5" y="1261.8317">entrySequence:String</text><text fill="#000000" font-family="sans-serif" font-size="14" lengthAdjust="spacing" textLength="208" x="1287.5" y="1278.32">financialTransactionKey:String</text><text fill="#000000" font-family="sans-serif" font-size="14" lengthAdjust="spacing" textLength="269" x="1287.5" y="1294.8083">controlAccounts:List&lt;ControlAccount&gt;</text><text fill="#000000" font-family="sans-serif" font-size="14" lengthAdjust="spacing" textLength="76" x="1287.5" y="1311.2966">desc:String</text><text fill="#000000" font-family="sans-serif" font-size="14" lengthAdjust="spacing" textLength="149" x="1287.5" y="1327.7848">detailSequence:String</text><text fill="#000000" font-family="sans-serif" font-size="14" lengthAdjust="spacing" textLength="175" x="1287.5" y="1344.2731">journalType:JournalTypes</text><text fill="#000000" font-family="sans-serif" font-size="14" lengthAdjust="spacing" textLength="98" x="1287.5" y="1360.7614">orgHref:String</text><text fill="#000000" font-family="sans-serif" font-size="14" lengthAdjust="spacing" textLength="82" x="1287.5" y="1377.2497">orgId:String</text><text fill="#000000" font-family="sans-serif" font-size="14" lengthAdjust="spacing" textLength="249" x="1287.5" y="1393.738">partyIdentifiers:List&lt;PartyIdentifier&gt;</text><text fill="#000000" font-family="sans-serif" font-size="14" lengthAdjust="spacing" textLength="191" x="1287.5" y="1410.2263">orgType:OrganizationTypes</text><text fill="#000000" font-family="sans-serif" font-size="14" lengthAdjust="spacing" textLength="95" x="1287.5" y="1426.7145">money:Money</text><text fill="#000000" font-family="sans-serif" font-size="14" lengthAdjust="spacing" textLength="236" x="1287.5" y="1443.2028">entryReferenceAccountDesc:String</text><text fill="#000000" font-family="sans-serif" font-size="14" lengthAdjust="spacing" textLength="179" x="1287.5" y="1459.6911">referenceAccountId:String</text><text fill="#000000" font-family="sans-serif" font-size="14" lengthAdjust="spacing" textLength="134" x="1287.5" y="1476.1794">resourceHref:String</text><text fill="#000000" font-family="sans-serif" font-size="14" lengthAdjust="spacing" textLength="118" x="1287.5" y="1492.6677">resourceId:String</text><text fill="#000000" font-family="sans-serif" font-size="14" lengthAdjust="spacing" textLength="235" x="1287.5" y="1509.1559">resourceType:EntryResourceTypes</text><text fill="#000000" font-family="sans-serif" font-size="14" lengthAdjust="spacing" textLength="191" x="1287.5" y="1525.6442">glSegments:List&lt;Identifier&gt;</text><line style="stroke:#181818;stroke-width:0.5;" x1="1282.5" x2="1561.5" y1="1532.5973" y2="1532.5973"/></g><g id="elem_JournalEntryTransaction"><rect codeLine="42" fill="#F1F1F1" height="196.3945" id="JournalEntryTransaction" rx="2.5" ry="2.5" style="stroke:#181818;stroke-width:0.5;" width="246" x="1396" y="1600.6"/><ellipse cx="1433.05" cy="1616.6" fill="#ADD1B2" rx="11" ry="11" style="stroke:#181818;stroke-width:1.0;"/><path d="M1435.5231,1622.7431 Q1434.9421,1623.0419 1434.3029,1623.1913 Q1433.6638,1623.3407 1432.9582,1623.3407 Q1430.4514,1623.3407 1429.1315,1621.6889 Q1427.8117,1620.037 1427.8117,1616.9159 Q1427.8117,1613.7865 1429.1315,1612.1347 Q1430.4514,1610.4828 1432.9582,1610.4828 Q1433.6638,1610.4828 1434.3112,1610.6322 Q1434.9587,1610.7816 1435.5231,1611.0805 L1435.5231,1613.8031 Q1434.8923,1613.2221 1434.2988,1612.9523 Q1433.7053,1612.6825 1433.0744,1612.6825 Q1431.7297,1612.6825 1431.0449,1613.7492 Q1430.3601,1614.8158 1430.3601,1616.9159 Q1430.3601,1619.0077 1431.0449,1620.0744 Q1431.7297,1621.141 1433.0744,1621.141 Q1433.7053,1621.141 1434.2988,1620.8712 Q1434.8923,1620.6015 1435.5231,1620.0204 Z " fill="#000000"/><text fill="#000000" font-family="sans-serif" font-size="14" lengthAdjust="spacing" textLength="165" x="1451.95" y="1621.891">JournalEntryTransaction</text><line style="stroke:#181818;stroke-width:0.5;" x1="1397" x2="1641" y1="1632.6" y2="1632.6"/><text fill="#000000" font-family="sans-serif" font-size="14" lengthAdjust="spacing" textLength="223" x="1402" y="1650.1352">journalEntryTransactionId:String</text><text fill="#000000" font-family="sans-serif" font-size="14" lengthAdjust="spacing" textLength="234" x="1402" y="1666.6234">journalEntryTransactionKey:String</text><text fill="#000000" font-family="sans-serif" font-size="14" lengthAdjust="spacing" textLength="162" x="1402" y="1683.1117">payrollProviderId:String</text><text fill="#000000" font-family="sans-serif" font-size="14" lengthAdjust="spacing" textLength="141" x="1402" y="1699.6">payrollCycleId:String</text><text fill="#000000" font-family="sans-serif" font-size="14" lengthAdjust="spacing" textLength="101" x="1402" y="1716.0883">entryDate:Date</text><text fill="#000000" font-family="sans-serif" font-size="14" lengthAdjust="spacing" textLength="171" x="1402" y="1732.5766">totalDebitAmount:Money</text><text fill="#000000" font-family="sans-serif" font-size="14" lengthAdjust="spacing" textLength="177" x="1402" y="1749.0648">totalCreditAmount:Money</text><text fill="#000000" font-family="sans-serif" font-size="14" lengthAdjust="spacing" textLength="131" x="1402" y="1765.5531">isBalanced:Boolean</text><text fill="#000000" font-family="sans-serif" font-size="14" lengthAdjust="spacing" textLength="229" x="1402" y="1782.0414">journalEntries:List&lt;JournalEntry&gt;</text><line style="stroke:#181818;stroke-width:0.5;" x1="1397" x2="1641" y1="1788.9945" y2="1788.9945"/></g><g id="elem_Money"><rect codeLine="53" fill="#F1F1F1" height="146.9297" id="Money" rx="2.5" ry="2.5" style="stroke:#181818;stroke-width:0.5;" width="152" x="1809" y="815.75"/><ellipse cx="1858.25" cy="831.75" fill="#ADD1B2" rx="11" ry="11" style="stroke:#181818;stroke-width:1.0;"/><path d="M1860.7231,837.8931 Q1860.1421,838.1919 1859.5029,838.3413 Q1858.8638,838.4907 1858.1582,838.4907 Q1855.6514,838.4907 1854.3315,836.8389 Q1853.0117,835.187 1853.0117,832.0659 Q1853.0117,828.9365 1854.3315,827.2847 Q1855.6514,825.6328 1858.1582,825.6328 Q1858.8638,825.6328 1859.5112,825.7822 Q1860.1587,825.9316 1860.7231,826.2305 L1860.7231,828.9531 Q1860.0923,828.3721 1859.4988,828.1023 Q1858.9053,827.8325 1858.2744,827.8325 Q1856.9297,827.8325 1856.2449,828.8992 Q1855.5601,829.9658 1855.5601,832.0659 Q1855.5601,834.1577 1856.2449,835.2244 Q1856.9297,836.291 1858.2744,836.291 Q1858.9053,836.291 1859.4988,836.0212 Q1860.0923,835.7515 1860.7231,835.1704 Z " fill="#000000"/><text fill="#000000" font-family="sans-serif" font-size="14" lengthAdjust="spacing" textLength="45" x="1878.75" y="837.041">Money</text><line style="stroke:#181818;stroke-width:0.5;" x1="1810" x2="1960" y1="847.75" y2="847.75"/><text fill="#000000" font-family="sans-serif" font-size="14" lengthAdjust="spacing" textLength="115" x="1815" y="865.2852">moneyKey:String</text><text fill="#000000" font-family="sans-serif" font-size="14" lengthAdjust="spacing" textLength="104" x="1815" y="881.7734">moneyId:String</text><text fill="#000000" font-family="sans-serif" font-size="14" lengthAdjust="spacing" textLength="140" x="1815" y="898.2617">currencyCode:String</text><text fill="#000000" font-family="sans-serif" font-size="14" lengthAdjust="spacing" textLength="131" x="1815" y="914.75">displayValue:String</text><text fill="#000000" font-family="sans-serif" font-size="14" lengthAdjust="spacing" textLength="85" x="1815" y="931.2383">locale:String</text><text fill="#000000" font-family="sans-serif" font-size="14" lengthAdjust="spacing" textLength="81" x="1815" y="947.7266">value:String</text><line style="stroke:#181818;stroke-width:0.5;" x1="1810" x2="1960" y1="954.6797" y2="954.6797"/></g><g id="elem_PartyIdentifier"><rect codeLine="61" fill="#F1F1F1" height="179.9063" id="PartyIdentifier" rx="2.5" ry="2.5" style="stroke:#181818;stroke-width:0.5;" width="380" x="821" y="799.26"/><ellipse cx="958.75" cy="815.26" fill="#ADD1B2" rx="11" ry="11" style="stroke:#181818;stroke-width:1.0;"/><path d="M961.2231,821.4031 Q960.6421,821.7019 960.0029,821.8513 Q959.3638,822.0007 958.6582,822.0007 Q956.1514,822.0007 954.8315,820.3489 Q953.5117,818.697 953.5117,815.5759 Q953.5117,812.4465 954.8315,810.7947 Q956.1514,809.1428 958.6582,809.1428 Q959.3638,809.1428 960.0112,809.2922 Q960.6587,809.4416 961.2231,809.7405 L961.2231,812.4631 Q960.5923,811.8821 959.9988,811.6123 Q959.4053,811.3425 958.7744,811.3425 Q957.4297,811.3425 956.7449,812.4092 Q956.0601,813.4758 956.0601,815.5759 Q956.0601,817.6677 956.7449,818.7344 Q957.4297,819.801 958.7744,819.801 Q959.4053,819.801 959.9988,819.5312 Q960.5923,819.2615 961.2231,818.6804 Z " fill="#000000"/><text fill="#000000" font-family="sans-serif" font-size="14" lengthAdjust="spacing" textLength="96" x="979.25" y="820.551">PartyIdentifier</text><line style="stroke:#181818;stroke-width:0.5;" x1="822" x2="1200" y1="831.26" y2="831.26"/><text fill="#000000" font-family="sans-serif" font-size="14" lengthAdjust="spacing" textLength="155" x="827" y="848.7952">partyIdentifierId:String</text><text fill="#000000" font-family="sans-serif" font-size="14" lengthAdjust="spacing" textLength="166" x="827" y="865.2834">partyIdentifierKey:String</text><text fill="#000000" font-family="sans-serif" font-size="14" lengthAdjust="spacing" textLength="175" x="827" y="881.7717">partyIdentifierType:String</text><text fill="#000000" font-family="sans-serif" font-size="14" lengthAdjust="spacing" textLength="97" x="827" y="898.26">context:String</text><text fill="#000000" font-family="sans-serif" font-size="14" lengthAdjust="spacing" textLength="368" x="827" y="914.7483">partyRelationshipTypes:List&lt;PartyRelationshipTypes&gt;</text><text fill="#000000" font-family="sans-serif" font-size="14" lengthAdjust="spacing" textLength="73" x="827" y="931.2366">party:Party</text><text fill="#000000" font-family="sans-serif" font-size="14" lengthAdjust="spacing" textLength="176" x="827" y="947.7248">occurrenceDateTime:Date</text><text fill="#000000" font-family="sans-serif" font-size="14" lengthAdjust="spacing" textLength="164" x="827" y="964.2131">duration:EffectivePeriod</text><line style="stroke:#181818;stroke-width:0.5;" x1="822" x2="1200" y1="971.1663" y2="971.1663"/></g><g id="elem_ControlAccountRoleTypes"><rect codeLine="71" fill="#FAFF91" height="130.4414" id="ControlAccountRoleTypes" rx="2.5" ry="2.5" style="stroke:#181818;stroke-width:0.5;" width="210" x="7" y="237.83"/><ellipse cx="22" cy="253.83" fill="#ADD1B2" rx="11" ry="11" style="stroke:#181818;stroke-width:1.0;"/><path d="M24.4731,259.9731 Q23.8921,260.2719 23.2529,260.4213 Q22.6138,260.5707 21.9082,260.5707 Q19.4014,260.5707 18.0815,258.9189 Q16.7617,257.267 16.7617,254.1459 Q16.7617,251.0165 18.0815,249.3647 Q19.4014,247.7128 21.9082,247.7128 Q22.6138,247.7128 23.2612,247.8622 Q23.9087,248.0116 24.4731,248.3105 L24.4731,251.0331 Q23.8423,250.4521 23.2488,250.1823 Q22.6553,249.9125 22.0244,249.9125 Q20.6797,249.9125 19.9949,250.9792 Q19.3101,252.0458 19.3101,254.1459 Q19.3101,256.2377 19.9949,257.3044 Q20.6797,258.371 22.0244,258.371 Q22.6553,258.371 23.2488,258.1012 Q23.8423,257.8315 24.4731,257.2504 Z " fill="#000000"/><text fill="#000000" font-family="sans-serif" font-size="14" lengthAdjust="spacing" textLength="178" x="36" y="259.121">ControlAccountRoleTypes</text><line style="stroke:#181818;stroke-width:0.5;" x1="8" x2="216" y1="269.83" y2="269.83"/><text fill="#000000" font-family="sans-serif" font-size="14" lengthAdjust="spacing" textLength="56" x="13" y="287.3652">MASTER</text><text fill="#000000" font-family="sans-serif" font-size="14" lengthAdjust="spacing" textLength="47" x="13" y="303.8534">OTHER</text><text fill="#000000" font-family="sans-serif" font-size="14" lengthAdjust="spacing" textLength="36" x="13" y="320.3417">SPLIT</text><text fill="#000000" font-family="sans-serif" font-size="14" lengthAdjust="spacing" textLength="76" x="13" y="336.83">STANDARD</text><text fill="#000000" font-family="sans-serif" font-size="14" lengthAdjust="spacing" textLength="26" x="13" y="353.3183">SUB</text><line style="stroke:#181818;stroke-width:0.5;" x1="8" x2="216" y1="360.2714" y2="360.2714"/></g><g id="elem_ControlAccountTypes"><rect codeLine="78" fill="#FAFF91" height="592.1133" id="ControlAccountTypes" rx="2.5" ry="2.5" style="stroke:#181818;stroke-width:0.5;" width="180" x="252" y="7"/><ellipse cx="267" cy="23" fill="#ADD1B2" rx="11" ry="11" style="stroke:#181818;stroke-width:1.0;"/><path d="M269.4731,29.1431 Q268.8921,29.4419 268.2529,29.5913 Q267.6138,29.7407 266.9082,29.7407 Q264.4014,29.7407 263.0815,28.0889 Q261.7617,26.437 261.7617,23.3159 Q261.7617,20.1865 263.0815,18.5347 Q264.4014,16.8828 266.9082,16.8828 Q267.6138,16.8828 268.2612,17.0322 Q268.9087,17.1816 269.4731,17.4805 L269.4731,20.2031 Q268.8423,19.6221 268.2488,19.3523 Q267.6553,19.0825 267.0244,19.0825 Q265.6797,19.0825 264.9949,20.1492 Q264.3101,21.2158 264.3101,23.3159 Q264.3101,25.4077 264.9949,26.4744 Q265.6797,27.541 267.0244,27.541 Q267.6553,27.541 268.2488,27.2712 Q268.8423,27.0015 269.4731,26.4204 Z " fill="#000000"/><text fill="#000000" font-family="sans-serif" font-size="14" lengthAdjust="spacing" textLength="148" x="281" y="28.291">ControlAccountTypes</text><line style="stroke:#181818;stroke-width:0.5;" x1="253" x2="431" y1="39" y2="39"/><text fill="#000000" font-family="sans-serif" font-size="14" lengthAdjust="spacing" textLength="94" x="258" y="56.5352">ACCESSORIES</text><text fill="#000000" font-family="sans-serif" font-size="14" lengthAdjust="spacing" textLength="51" x="258" y="73.0234">ASSETS</text><text fill="#000000" font-family="sans-serif" font-size="14" lengthAdjust="spacing" textLength="68" x="258" y="89.5117">CLEARING</text><text fill="#000000" font-family="sans-serif" font-size="14" lengthAdjust="spacing" textLength="39" x="258" y="106">COGS</text><text fill="#000000" font-family="sans-serif" font-size="14" lengthAdjust="spacing" textLength="109" x="258" y="122.4883">CONTRA_ASSET</text><text fill="#000000" font-family="sans-serif" font-size="14" lengthAdjust="spacing" textLength="50" x="258" y="138.9766">CREDIT</text><text fill="#000000" font-family="sans-serif" font-size="14" lengthAdjust="spacing" textLength="77" x="258" y="155.4648">CUSTOMER</text><text fill="#000000" font-family="sans-serif" font-size="14" lengthAdjust="spacing" textLength="52" x="258" y="171.9531">DEALER</text><text fill="#000000" font-family="sans-serif" font-size="14" lengthAdjust="spacing" textLength="101" x="258" y="188.4414">DEPRECIATION</text><text fill="#000000" font-family="sans-serif" font-size="14" lengthAdjust="spacing" textLength="72" x="258" y="204.9297">DISCOUNT</text><text fill="#000000" font-family="sans-serif" font-size="14" lengthAdjust="spacing" textLength="71" x="258" y="221.418">EMPLOYEE</text><text fill="#000000" font-family="sans-serif" font-size="14" lengthAdjust="spacing" textLength="51" x="258" y="237.9063">EQUITY</text><text fill="#000000" font-family="sans-serif" font-size="14" lengthAdjust="spacing" textLength="59" x="258" y="254.3945">EXPENSE</text><text fill="#000000" font-family="sans-serif" font-size="14" lengthAdjust="spacing" textLength="24" x="258" y="270.8828">FEE</text><text fill="#000000" font-family="sans-serif" font-size="14" lengthAdjust="spacing" textLength="97" x="258" y="287.3711">FIXED_ASSETS</text><text fill="#000000" font-family="sans-serif" font-size="14" lengthAdjust="spacing" textLength="62" x="258" y="303.8594">LIABILITY</text><text fill="#000000" font-family="sans-serif" font-size="14" lengthAdjust="spacing" textLength="152" x="258" y="320.3477">LONG_TERM_LIABILITY</text><text fill="#000000" font-family="sans-serif" font-size="14" lengthAdjust="spacing" textLength="53" x="258" y="336.8359">OPTION</text><text fill="#000000" font-family="sans-serif" font-size="14" lengthAdjust="spacing" textLength="47" x="258" y="353.3242">OTHER</text><text fill="#000000" font-family="sans-serif" font-size="14" lengthAdjust="spacing" textLength="109" x="258" y="369.8125">OTHER_INCOME</text><text fill="#000000" font-family="sans-serif" font-size="14" lengthAdjust="spacing" textLength="65" x="258" y="386.3008">PACKAGE</text><text fill="#000000" font-family="sans-serif" font-size="14" lengthAdjust="spacing" textLength="146" x="258" y="402.7891">PARTS_SALES_ORDER</text><text fill="#000000" font-family="sans-serif" font-size="14" lengthAdjust="spacing" textLength="67" x="258" y="419.2773">PRODUCT</text><text fill="#000000" font-family="sans-serif" font-size="14" lengthAdjust="spacing" textLength="74" x="258" y="435.7656">PROVISION</text><text fill="#000000" font-family="sans-serif" font-size="14" lengthAdjust="spacing" textLength="52" x="258" y="452.2539">REBATE</text><text fill="#000000" font-family="sans-serif" font-size="14" lengthAdjust="spacing" textLength="78" x="258" y="468.7422">REFERENCE</text><text fill="#000000" font-family="sans-serif" font-size="14" lengthAdjust="spacing" textLength="102" x="258" y="485.2305">REPAIR_ORDER</text><text fill="#000000" font-family="sans-serif" font-size="14" lengthAdjust="spacing" textLength="62" x="258" y="501.7188">REVENUE</text><text fill="#000000" font-family="sans-serif" font-size="14" lengthAdjust="spacing" textLength="74" x="258" y="518.207">ROUNDING</text><text fill="#000000" font-family="sans-serif" font-size="14" lengthAdjust="spacing" textLength="56" x="258" y="534.6953">SERVICE</text><text fill="#000000" font-family="sans-serif" font-size="14" lengthAdjust="spacing" textLength="28" x="258" y="551.1836">TAX</text><text fill="#000000" font-family="sans-serif" font-size="14" lengthAdjust="spacing" textLength="56" x="258" y="567.6719">VEHICLE</text><text fill="#000000" font-family="sans-serif" font-size="14" lengthAdjust="spacing" textLength="57" x="258" y="584.1602">VENDOR</text><line style="stroke:#181818;stroke-width:0.5;" x1="253" x2="431" y1="591.1133" y2="591.1133"/></g><g id="elem_EntryResourceTypes"><rect codeLine="113" fill="#FAFF91" height="460.207" id="EntryResourceTypes" rx="2.5" ry="2.5" style="stroke:#181818;stroke-width:0.5;" width="185" x="1235.5" y="659.11"/><ellipse cx="1257.25" cy="675.11" fill="#ADD1B2" rx="11" ry="11" style="stroke:#181818;stroke-width:1.0;"/><path d="M1259.7231,681.2531 Q1259.1421,681.5519 1258.5029,681.7013 Q1257.8638,681.8507 1257.1582,681.8507 Q1254.6514,681.8507 1253.3315,680.1989 Q1252.0117,678.547 1252.0117,675.4259 Q1252.0117,672.2965 1253.3315,670.6447 Q1254.6514,668.9928 1257.1582,668.9928 Q1257.8638,668.9928 1258.5112,669.1422 Q1259.1587,669.2916 1259.7231,669.5905 L1259.7231,672.3131 Q1259.0923,671.7321 1258.4988,671.4623 Q1257.9053,671.1925 1257.2744,671.1925 Q1255.9297,671.1925 1255.2449,672.2592 Q1254.5601,673.3258 1254.5601,675.4259 Q1254.5601,677.5177 1255.2449,678.5844 Q1255.9297,679.651 1257.2744,679.651 Q1257.9053,679.651 1258.4988,679.3812 Q1259.0923,679.1115 1259.7231,678.5304 Z " fill="#000000"/><text fill="#000000" font-family="sans-serif" font-size="14" lengthAdjust="spacing" textLength="138" x="1272.75" y="680.401">EntryResourceTypes</text><line style="stroke:#181818;stroke-width:0.5;" x1="1236.5" x2="1419.5" y1="691.11" y2="691.11"/><text fill="#000000" font-family="sans-serif" font-size="14" lengthAdjust="spacing" textLength="78" x="1241.5" y="708.6452">CONTRACT</text><text fill="#000000" font-family="sans-serif" font-size="14" lengthAdjust="spacing" textLength="173" x="1241.5" y="725.1334">CONTRACTS_IN_TRANSIT</text><text fill="#000000" font-family="sans-serif" font-size="14" lengthAdjust="spacing" textLength="104" x="1241.5" y="741.6217">COST_OF_SALE</text><text fill="#000000" font-family="sans-serif" font-size="14" lengthAdjust="spacing" textLength="60" x="1241.5" y="758.11">CUSTOM</text><text fill="#000000" font-family="sans-serif" font-size="14" lengthAdjust="spacing" textLength="103" x="1241.5" y="774.5983">DEALER_VALUE</text><text fill="#000000" font-family="sans-serif" font-size="14" lengthAdjust="spacing" textLength="58" x="1241.5" y="791.0866">DEPOSIT</text><text fill="#000000" font-family="sans-serif" font-size="14" lengthAdjust="spacing" textLength="72" x="1241.5" y="807.5748">DISCOUNT</text><text fill="#000000" font-family="sans-serif" font-size="14" lengthAdjust="spacing" textLength="56" x="1241.5" y="824.0631">DUE_ON</text><text fill="#000000" font-family="sans-serif" font-size="14" lengthAdjust="spacing" textLength="59" x="1241.5" y="840.5514">EXPENSE</text><text fill="#000000" font-family="sans-serif" font-size="14" lengthAdjust="spacing" textLength="24" x="1241.5" y="857.0397">FEE</text><text fill="#000000" font-family="sans-serif" font-size="14" lengthAdjust="spacing" textLength="72" x="1241.5" y="873.528">INCENTIVE</text><text fill="#000000" font-family="sans-serif" font-size="14" lengthAdjust="spacing" textLength="55" x="1241.5" y="890.0162">INCOME</text><text fill="#000000" font-family="sans-serif" font-size="14" lengthAdjust="spacing" textLength="79" x="1241.5" y="906.5045">INSURANCE</text><text fill="#000000" font-family="sans-serif" font-size="14" lengthAdjust="spacing" textLength="79" x="1241.5" y="922.9928">INVENTORY</text><text fill="#000000" font-family="sans-serif" font-size="14" lengthAdjust="spacing" textLength="52" x="1241.5" y="939.4811">LENDER</text><text fill="#000000" font-family="sans-serif" font-size="14" lengthAdjust="spacing" textLength="60" x="1241.5" y="955.9694">PAYABLE</text><text fill="#000000" font-family="sans-serif" font-size="14" lengthAdjust="spacing" textLength="66" x="1241.5" y="972.4577">PAYMENT</text><text fill="#000000" font-family="sans-serif" font-size="14" lengthAdjust="spacing" textLength="129" x="1241.5" y="988.9459">PAYROLL_EARNING</text><text fill="#000000" font-family="sans-serif" font-size="14" lengthAdjust="spacing" textLength="67" x="1241.5" y="1005.4342">PRODUCT</text><text fill="#000000" font-family="sans-serif" font-size="14" lengthAdjust="spacing" textLength="81" x="1241.5" y="1021.9225">RECEIVABLE</text><text fill="#000000" font-family="sans-serif" font-size="14" lengthAdjust="spacing" textLength="66" x="1241.5" y="1038.4108">RESIDUAL</text><text fill="#000000" font-family="sans-serif" font-size="14" lengthAdjust="spacing" textLength="33" x="1241.5" y="1054.8991">SALE</text><text fill="#000000" font-family="sans-serif" font-size="14" lengthAdjust="spacing" textLength="56" x="1241.5" y="1071.3873">SERVICE</text><text fill="#000000" font-family="sans-serif" font-size="14" lengthAdjust="spacing" textLength="28" x="1241.5" y="1087.8756">TAX</text><text fill="#000000" font-family="sans-serif" font-size="14" lengthAdjust="spacing" textLength="67" x="1241.5" y="1104.3639">TRADE_IN</text><line style="stroke:#181818;stroke-width:0.5;" x1="1236.5" x2="1419.5" y1="1111.317" y2="1111.317"/></g><g id="elem_FinancialCategoryTypes"><rect codeLine="140" fill="#FAFF91" height="262.3477" id="FinancialCategoryTypes" rx="2.5" ry="2.5" style="stroke:#181818;stroke-width:0.5;" width="195" x="466.5" y="171.88"/><ellipse cx="481.5" cy="187.88" fill="#ADD1B2" rx="11" ry="11" style="stroke:#181818;stroke-width:1.0;"/><path d="M483.9731,194.0231 Q483.3921,194.3219 482.7529,194.4713 Q482.1138,194.6207 481.4082,194.6207 Q478.9014,194.6207 477.5815,192.9689 Q476.2617,191.317 476.2617,188.1959 Q476.2617,185.0665 477.5815,183.4147 Q478.9014,181.7628 481.4082,181.7628 Q482.1138,181.7628 482.7612,181.9122 Q483.4087,182.0616 483.9731,182.3605 L483.9731,185.0831 Q483.3423,184.5021 482.7488,184.2323 Q482.1553,183.9625 481.5244,183.9625 Q480.1797,183.9625 479.4949,185.0292 Q478.8101,186.0958 478.8101,188.1959 Q478.8101,190.2877 479.4949,191.3544 Q480.1797,192.421 481.5244,192.421 Q482.1553,192.421 482.7488,192.1512 Q483.3423,191.8815 483.9731,191.3004 Z " fill="#000000"/><text fill="#000000" font-family="sans-serif" font-size="14" lengthAdjust="spacing" textLength="163" x="495.5" y="193.171">FinancialCategoryTypes</text><line style="stroke:#181818;stroke-width:0.5;" x1="467.5" x2="660.5" y1="203.88" y2="203.88"/><text fill="#000000" font-family="sans-serif" font-size="14" lengthAdjust="spacing" textLength="45" x="472.5" y="221.4152">CAPEX</text><text fill="#000000" font-family="sans-serif" font-size="14" lengthAdjust="spacing" textLength="78" x="472.5" y="237.9034">HARDWARE</text><text fill="#000000" font-family="sans-serif" font-size="14" lengthAdjust="spacing" textLength="101" x="472.5" y="254.3917">MAINTENANCE</text><text fill="#000000" font-family="sans-serif" font-size="14" lengthAdjust="spacing" textLength="36" x="472.5" y="270.88">OPEX</text><text fill="#000000" font-family="sans-serif" font-size="14" lengthAdjust="spacing" textLength="47" x="472.5" y="287.3683">OTHER</text><text fill="#000000" font-family="sans-serif" font-size="14" lengthAdjust="spacing" textLength="36" x="472.5" y="303.8566">RENT</text><text fill="#000000" font-family="sans-serif" font-size="14" lengthAdjust="spacing" textLength="62" x="472.5" y="320.3448">REVENUE</text><text fill="#000000" font-family="sans-serif" font-size="14" lengthAdjust="spacing" textLength="53" x="472.5" y="336.8331">SALARY</text><text fill="#000000" font-family="sans-serif" font-size="14" lengthAdjust="spacing" textLength="75" x="472.5" y="353.3214">SOFTWARE</text><text fill="#000000" font-family="sans-serif" font-size="14" lengthAdjust="spacing" textLength="28" x="472.5" y="369.8097">TAX</text><text fill="#000000" font-family="sans-serif" font-size="14" lengthAdjust="spacing" textLength="66" x="472.5" y="386.298">TRAINING</text><text fill="#000000" font-family="sans-serif" font-size="14" lengthAdjust="spacing" textLength="52" x="472.5" y="402.7863">TRAVEL</text><text fill="#000000" font-family="sans-serif" font-size="14" lengthAdjust="spacing" textLength="63" x="472.5" y="419.2745">UTILITIES</text><line style="stroke:#181818;stroke-width:0.5;" x1="467.5" x2="660.5" y1="426.2277" y2="426.2277"/></g><g id="elem_JournalTypes"><rect codeLine="155" fill="#FAFF91" height="80.9766" id="JournalTypes" rx="2.5" ry="2.5" style="stroke:#181818;stroke-width:0.5;" width="121" x="1455.5" y="848.73"/><ellipse cx="1470.5" cy="864.73" fill="#ADD1B2" rx="11" ry="11" style="stroke:#181818;stroke-width:1.0;"/><path d="M1472.9731,870.8731 Q1472.3921,871.1719 1471.7529,871.3213 Q1471.1138,871.4707 1470.4082,871.4707 Q1467.9014,871.4707 1466.5815,869.8189 Q1465.2617,868.167 1465.2617,865.0459 Q1465.2617,861.9165 1466.5815,860.2647 Q1467.9014,858.6128 1470.4082,858.6128 Q1471.1138,858.6128 1471.7612,858.7622 Q1472.4087,858.9116 1472.9731,859.2105 L1472.9731,861.9331 Q1472.3423,861.3521 1471.7488,861.0823 Q1471.1553,860.8125 1470.5244,860.8125 Q1469.1797,860.8125 1468.4949,861.8792 Q1467.8101,862.9458 1467.8101,865.0459 Q1467.8101,867.1377 1468.4949,868.2044 Q1469.1797,869.271 1470.5244,869.271 Q1471.1553,869.271 1471.7488,869.0012 Q1472.3423,868.7315 1472.9731,868.1504 Z " fill="#000000"/><text fill="#000000" font-family="sans-serif" font-size="14" lengthAdjust="spacing" textLength="89" x="1484.5" y="870.021">JournalTypes</text><line style="stroke:#181818;stroke-width:0.5;" x1="1456.5" x2="1575.5" y1="880.73" y2="880.73"/><text fill="#000000" font-family="sans-serif" font-size="14" lengthAdjust="spacing" textLength="50" x="1461.5" y="898.2652">CREDIT</text><text fill="#000000" font-family="sans-serif" font-size="14" lengthAdjust="spacing" textLength="39" x="1461.5" y="914.7534">DEBIT</text><line style="stroke:#181818;stroke-width:0.5;" x1="1456.5" x2="1575.5" y1="921.7066" y2="921.7066"/></g><g id="elem_OrganizationTypes"><rect codeLine="159" fill="#FAFF91" height="229.3711" id="OrganizationTypes" rx="2.5" ry="2.5" style="stroke:#181818;stroke-width:0.5;" width="162" x="1612" y="774.53"/><ellipse cx="1627" cy="790.53" fill="#ADD1B2" rx="11" ry="11" style="stroke:#181818;stroke-width:1.0;"/><path d="M1629.4731,796.6731 Q1628.8921,796.9719 1628.2529,797.1213 Q1627.6138,797.2707 1626.9082,797.2707 Q1624.4014,797.2707 1623.0815,795.6189 Q1621.7617,793.967 1621.7617,790.8459 Q1621.7617,787.7165 1623.0815,786.0647 Q1624.4014,784.4128 1626.9082,784.4128 Q1627.6138,784.4128 1628.2612,784.5622 Q1628.9087,784.7116 1629.4731,785.0105 L1629.4731,787.7331 Q1628.8423,787.1521 1628.2488,786.8823 Q1627.6553,786.6125 1627.0244,786.6125 Q1625.6797,786.6125 1624.9949,787.6792 Q1624.3101,788.7458 1624.3101,790.8459 Q1624.3101,792.9377 1624.9949,794.0044 Q1625.6797,795.071 1627.0244,795.071 Q1627.6553,795.071 1628.2488,794.8012 Q1628.8423,794.5315 1629.4731,793.9504 Z " fill="#000000"/><text fill="#000000" font-family="sans-serif" font-size="14" lengthAdjust="spacing" textLength="130" x="1641" y="795.821">OrganizationTypes</text><line style="stroke:#181818;stroke-width:0.5;" x1="1613" x2="1773" y1="806.53" y2="806.53"/><text fill="#000000" font-family="sans-serif" font-size="14" lengthAdjust="spacing" textLength="57" x="1618" y="824.0652">BRANCH</text><text fill="#000000" font-family="sans-serif" font-size="14" lengthAdjust="spacing" textLength="102" x="1618" y="840.5534">CORPORATION</text><text fill="#000000" font-family="sans-serif" font-size="14" lengthAdjust="spacing" textLength="82" x="1618" y="857.0417">DEALERSHIP</text><text fill="#000000" font-family="sans-serif" font-size="14" lengthAdjust="spacing" textLength="93" x="1618" y="873.53">DEPARTMENT</text><text fill="#000000" font-family="sans-serif" font-size="14" lengthAdjust="spacing" textLength="60" x="1618" y="890.0183">DIVISION</text><text fill="#000000" font-family="sans-serif" font-size="14" lengthAdjust="spacing" textLength="77" x="1618" y="906.5066">FRANCHISE</text><text fill="#000000" font-family="sans-serif" font-size="14" lengthAdjust="spacing" textLength="48" x="1618" y="922.9948">GROUP</text><text fill="#000000" font-family="sans-serif" font-size="14" lengthAdjust="spacing" textLength="47" x="1618" y="939.4831">OTHER</text><text fill="#000000" font-family="sans-serif" font-size="14" lengthAdjust="spacing" textLength="60" x="1618" y="955.9714">SECTION</text><text fill="#000000" font-family="sans-serif" font-size="14" lengthAdjust="spacing" textLength="45" x="1618" y="972.4597">STORE</text><text fill="#000000" font-family="sans-serif" font-size="14" lengthAdjust="spacing" textLength="39" x="1618" y="988.948">TEAM</text><line style="stroke:#181818;stroke-width:0.5;" x1="1613" x2="1773" y1="995.9011" y2="995.9011"/></g><g id="link_ControlAccountRoleTypes_ControlAccount"><path codeLine="172" d="M130.18,368.55 C149.67,431 184.62,526.61 234,599.11 C275.43,659.94 331.32,718.08 383.63,766.07 " fill="none" id="ControlAccountRoleTypes-ControlAccount" style="stroke:#181818;stroke-width:1.0;"/></g><g id="link_ControlAccountTypes_ControlAccount"><path codeLine="173" d="M432.38,579.03 C453.92,644.58 475.84,711.28 493.79,765.86 " fill="none" id="ControlAccountTypes-ControlAccount" style="stroke:#181818;stroke-width:1.0;"/></g><g id="link_ControlAccount_JournalEntry"><path codeLine="174" d="M632.9393,1021.5508 C666.2993,1059.8708 698.7,1090.56 742,1119.32 C910.4,1231.15 1136.96,1297.26 1281.27,1330.82 " fill="none" id="ControlAccount-backto-JournalEntry" style="stroke:#181818;stroke-width:1.0;"/><polygon fill="#181818" points="625.06,1012.5,625.9827,1019.6518,632.9393,1021.5508,632.0166,1014.399,625.06,1012.5" style="stroke:#181818;stroke-width:1.0;"/></g><g id="link_EntryResourceTypes_JournalEntry"><path codeLine="175" d="M1374.04,1119.78 C1378.01,1139.61 1382,1159.49 1385.88,1178.85 " fill="none" id="EntryResourceTypes-JournalEntry" style="stroke:#181818;stroke-width:1.0;"/></g><g id="link_FinancialCategoryTypes_ControlAccount"><path codeLine="176" d="M557.3,434.42 C552.21,533.62 545.25,669.16 540.26,766.22 " fill="none" id="FinancialCategoryTypes-ControlAccount" style="stroke:#181818;stroke-width:1.0;"/></g><g id="link_Identifier_ControlAccount"><path codeLine="177" d="M751.0651,372.1177 C735.5151,432.2377 711.26,518.08 679,599.11 C656.67,655.19 627.53,715.15 601.23,765.84 " fill="none" id="Identifier-backto-ControlAccount" style="stroke:#181818;stroke-width:1.0;"/><polygon fill="#181818" points="754.07,360.5,748.695,365.3072,751.0651,372.1177,756.4401,367.3105,754.07,360.5" style="stroke:#181818;stroke-width:1.0;"/></g><g id="link_Identifier_JournalEntry"><path codeLine="178" d="M761.6732,372.3451 C747.4432,536.4251 716.05,998.08 803,1119.32 C912.89,1272.54 1135.18,1327.8 1281.3,1347.72 " fill="none" id="Identifier-backto-JournalEntry" style="stroke:#181818;stroke-width:1.0;"/><polygon fill="#181818" points="762.71,360.39,758.2065,366.022,761.6732,372.3451,766.1766,366.7132,762.71,360.39" style="stroke:#181818;stroke-width:1.0;"/></g><g id="link_JournalEntry_JournalEntryTransaction"><path codeLine="179" d="M1477.0896,1552.2517 C1482.9996,1572.7817 1485.53,1581.56 1490.96,1600.42 " fill="none" id="JournalEntry-backto-JournalEntryTransaction" style="stroke:#181818;stroke-width:1.0;"/><polygon fill="#181818" points="1473.77,1540.72,1471.5859,1547.5924,1477.0896,1552.2517,1479.2737,1545.3793,1473.77,1540.72" style="stroke:#181818;stroke-width:1.0;"/></g><g id="link_JournalTypes_JournalEntry"><path codeLine="180" d="M1507.99,930.18 C1496.95,985.2 1476.37,1087.81 1458.11,1178.87 " fill="none" id="JournalTypes-JournalEntry" style="stroke:#181818;stroke-width:1.0;"/></g><g id="link_Money_JournalEntry"><path codeLine="181" d="M1867.77,963.06 C1853.56,1011.34 1829.54,1073.91 1792,1119.32 C1758.23,1160.16 1652.7,1226.96 1562.95,1279.66 " fill="none" id="Money-JournalEntry" style="stroke:#181818;stroke-width:1.0;"/></g><g id="link_Money_JournalEntryTransaction"><path codeLine="182" d="M1856.59,963.13 C1838.68,1008.36 1814.71,1067.52 1792,1119.32 C1717.07,1290.18 1622.92,1485.91 1567.04,1600.29 " fill="none" id="Money-JournalEntryTransaction" style="stroke:#181818;stroke-width:1.0;"/></g><g id="link_OrganizationTypes_JournalEntry"><path codeLine="183" d="M1649.47,1004.12 C1633.64,1041.64 1614.55,1083.03 1594,1119.32 C1582.77,1139.15 1570.25,1159.33 1557.22,1179.13 " fill="none" id="OrganizationTypes-JournalEntry" style="stroke:#181818;stroke-width:1.0;"/></g><g id="link_PartyIdentifier_JournalEntry"><path codeLine="184" d="M1097.1812,988.503 C1151.3312,1050.263 1217.01,1125.16 1281.21,1198.38 " fill="none" id="PartyIdentifier-backto-JournalEntry" style="stroke:#181818;stroke-width:1.0;"/><polygon fill="#181818" points="1089.27,979.48,1090.2179,986.6285,1097.1812,988.503,1096.2332,981.3544,1089.27,979.48" style="stroke:#181818;stroke-width:1.0;"/></g></g></svg>