<?xml version="1.0" encoding="us-ascii" standalone="no"?><svg xmlns="http://www.w3.org/2000/svg" xmlns:xlink="http://www.w3.org/1999/xlink" contentStyleType="text/css" height="435px" preserveAspectRatio="none" style="width:3018px;height:435px;background:#FFFFFF;" version="1.1" viewBox="0 0 3018 435" width="3018px" zoomAndPan="magnify"><defs/><g><g id="elem_AdvanceSearchValue"><rect fill="#F1F1F1" height="36.4883" rx="2.5" ry="2.5" style="stroke:#181818;stroke-width:0.5;" width="162" x="2387.5" y="199.98"/><text fill="#000000" font-family="sans-serif" font-size="14" lengthAdjust="spacing" textLength="142" x="2397.5" y="223.5152">AdvanceSearchValue</text></g><g id="elem_AdvancedSearchCriteria"><rect fill="#F1F1F1" height="36.4883" rx="2.5" ry="2.5" style="stroke:#181818;stroke-width:0.5;" width="184" x="2316.5" y="296.46"/><text fill="#000000" font-family="sans-serif" font-size="14" lengthAdjust="spacing" textLength="164" x="2326.5" y="319.9952">AdvancedSearchCriteria</text></g><g id="elem_EffectivePeriod"><rect fill="#F1F1F1" height="36.4883" rx="2.5" ry="2.5" style="stroke:#181818;stroke-width:0.5;" width="121" x="23" y="199.98"/><text fill="#000000" font-family="sans-serif" font-size="14" lengthAdjust="spacing" textLength="101" x="33" y="223.5152">EffectivePeriod</text></g><g id="elem_Identifier"><rect fill="#F1F1F1" height="36.4883" rx="2.5" ry="2.5" style="stroke:#181818;stroke-width:0.5;" width="82" x="1585.5" y="199.98"/><text fill="#000000" font-family="sans-serif" font-size="14" lengthAdjust="spacing" textLength="62" x="1595.5" y="223.5152">Identifier</text></g><g id="elem_PartIdentifier"><rect fill="#F1F1F1" height="36.4883" rx="2.5" ry="2.5" style="stroke:#181818;stroke-width:0.5;" width="109" x="1767" y="296.46"/><text fill="#000000" font-family="sans-serif" font-size="14" lengthAdjust="spacing" textLength="89" x="1777" y="319.9952">PartIdentifier</text></g><g id="elem_PartLifecycle"><rect fill="#F1F1F1" height="36.4883" rx="2.5" ry="2.5" style="stroke:#181818;stroke-width:0.5;" width="104" x="2031.5" y="296.46"/><text fill="#000000" font-family="sans-serif" font-size="14" lengthAdjust="spacing" textLength="84" x="2041.5" y="319.9952">PartLifecycle</text></g><g id="elem_PartLogisticsCriteria"><rect fill="#F1F1F1" height="36.4883" rx="2.5" ry="2.5" style="stroke:#181818;stroke-width:0.5;" width="157" x="465" y="296.46"/><text fill="#000000" font-family="sans-serif" font-size="14" lengthAdjust="spacing" textLength="137" x="475" y="319.9952">PartLogisticsCriteria</text></g><g id="elem_PartName"><rect fill="#F1F1F1" height="36.4883" rx="2.5" ry="2.5" style="stroke:#181818;stroke-width:0.5;" width="86" x="1628.5" y="103.49"/><text fill="#000000" font-family="sans-serif" font-size="14" lengthAdjust="spacing" textLength="66" x="1638.5" y="127.0252">PartName</text></g><g id="elem_PartPriceCriteria"><rect fill="#F1F1F1" height="36.4883" rx="2.5" ry="2.5" style="stroke:#181818;stroke-width:0.5;" width="131" x="2655" y="296.46"/><text fill="#000000" font-family="sans-serif" font-size="14" lengthAdjust="spacing" textLength="111" x="2665" y="319.9952">PartPriceCriteria</text></g><g id="elem_PartSearchCriteria"><rect fill="#F1F1F1" height="36.4883" rx="2.5" ry="2.5" style="stroke:#181818;stroke-width:0.5;" width="144" x="1956.5" y="392.95"/><text fill="#000000" font-family="sans-serif" font-size="14" lengthAdjust="spacing" textLength="124" x="1966.5" y="416.4852">PartSearchCriteria</text></g><g id="elem_PartSpecification"><rect fill="#F1F1F1" height="36.4883" rx="2.5" ry="2.5" style="stroke:#181818;stroke-width:0.5;" width="134" x="1208.5" y="296.46"/><text fill="#000000" font-family="sans-serif" font-size="14" lengthAdjust="spacing" textLength="114" x="1218.5" y="319.9952">PartSpecification</text></g><g id="elem_SuperSession"><rect fill="#F1F1F1" height="36.4883" rx="2.5" ry="2.5" style="stroke:#181818;stroke-width:0.5;" width="112" x="2027.5" y="199.98"/><text fill="#000000" font-family="sans-serif" font-size="14" lengthAdjust="spacing" textLength="92" x="2037.5" y="223.5152">SuperSession</text></g><g id="elem_UnitOfMeasure"><rect fill="#F1F1F1" height="36.4883" rx="2.5" ry="2.5" style="stroke:#181818;stroke-width:0.5;" width="122" x="963.5" y="199.98"/><text fill="#000000" font-family="sans-serif" font-size="14" lengthAdjust="spacing" textLength="102" x="973.5" y="223.5152">UnitOfMeasure</text></g><g id="elem_AdvanceSearchTypes"><rect fill="#FAFF91" height="36.4883" rx="2.5" ry="2.5" style="stroke:#181818;stroke-width:0.5;" width="164" x="2549.5" y="103.49"/><text fill="#000000" font-family="sans-serif" font-size="14" lengthAdjust="spacing" textLength="144" x="2559.5" y="127.0252">AdvanceSearchTypes</text></g><g id="elem_DurationUOMTypes"><rect fill="#FAFF91" height="36.4883" rx="2.5" ry="2.5" style="stroke:#181818;stroke-width:0.5;" width="153" x="7" y="103.49"/><text fill="#000000" font-family="sans-serif" font-size="14" lengthAdjust="spacing" textLength="133" x="17" y="127.0252">DurationUOMTypes</text></g><g id="elem_PartConditionGradeTypes"><rect fill="#FAFF91" height="36.4883" rx="2.5" ry="2.5" style="stroke:#181818;stroke-width:0.5;" width="196" x="732.5" y="199.98"/><text fill="#000000" font-family="sans-serif" font-size="14" lengthAdjust="spacing" textLength="176" x="742.5" y="223.5152">PartConditionGradeTypes</text></g><g id="elem_PartConditionTypes"><rect fill="#FAFF91" height="36.4883" rx="2.5" ry="2.5" style="stroke:#181818;stroke-width:0.5;" width="155" x="1395" y="199.98"/><text fill="#000000" font-family="sans-serif" font-size="14" lengthAdjust="spacing" textLength="135" x="1405" y="223.5152">PartConditionTypes</text></g><g id="elem_PartIdentifierTypes"><rect fill="#FAFF91" height="36.4883" rx="2.5" ry="2.5" style="stroke:#181818;stroke-width:0.5;" width="149" x="1702" y="199.98"/><text fill="#000000" font-family="sans-serif" font-size="14" lengthAdjust="spacing" textLength="129" x="1712" y="223.5152">PartIdentifierTypes</text></g><g id="elem_PartInventoryOrderTypes"><rect fill="#FAFF91" height="36.4883" rx="2.5" ry="2.5" style="stroke:#181818;stroke-width:0.5;" width="191" x="2821" y="296.46"/><text fill="#000000" font-family="sans-serif" font-size="14" lengthAdjust="spacing" textLength="171" x="2831" y="319.9952">PartInventoryOrderTypes</text></g><g id="elem_PartNameTypes"><rect fill="#FAFF91" height="36.4883" rx="2.5" ry="2.5" style="stroke:#181818;stroke-width:0.5;" width="126" x="1341.5" y="7"/><text fill="#000000" font-family="sans-serif" font-size="14" lengthAdjust="spacing" textLength="106" x="1351.5" y="30.5352">PartNameTypes</text></g><g id="elem_PartOrderConfigTypes"><rect fill="#FAFF91" height="36.4883" rx="2.5" ry="2.5" style="stroke:#181818;stroke-width:0.5;" width="173" x="1749" y="103.49"/><text fill="#000000" font-family="sans-serif" font-size="14" lengthAdjust="spacing" textLength="153" x="1759" y="127.0252">PartOrderConfigTypes</text></g><g id="elem_PartStatusTypes"><rect fill="#FAFF91" height="36.4883" rx="2.5" ry="2.5" style="stroke:#181818;stroke-width:0.5;" width="129" x="2199" y="103.49"/><text fill="#000000" font-family="sans-serif" font-size="14" lengthAdjust="spacing" textLength="109" x="2209" y="127.0252">PartStatusTypes</text></g><g id="elem_PriceTypes"><rect fill="#FAFF91" height="36.4883" rx="2.5" ry="2.5" style="stroke:#181818;stroke-width:0.5;" width="93" x="2665" y="199.98"/><text fill="#000000" font-family="sans-serif" font-size="14" lengthAdjust="spacing" textLength="73" x="2675" y="223.5152">PriceTypes</text></g><g id="elem_ProductConsumptionTypes"><rect fill="#FAFF91" height="36.4883" rx="2.5" ry="2.5" style="stroke:#181818;stroke-width:0.5;" width="206" x="1957.5" y="103.49"/><text fill="#000000" font-family="sans-serif" font-size="14" lengthAdjust="spacing" textLength="186" x="1967.5" y="127.0252">ProductConsumptionTypes</text></g><g id="elem_ProductPackageTypes"><rect fill="#FAFF91" height="36.4883" rx="2.5" ry="2.5" style="stroke:#181818;stroke-width:0.5;" width="169" x="1191" y="199.98"/><text fill="#000000" font-family="sans-serif" font-size="14" lengthAdjust="spacing" textLength="149" x="1201" y="223.5152">ProductPackageTypes</text></g><g id="elem_ProductStageTypes"><rect fill="#FAFF91" height="36.4883" rx="2.5" ry="2.5" style="stroke:#181818;stroke-width:0.5;" width="151" x="2363" y="103.49"/><text fill="#000000" font-family="sans-serif" font-size="14" lengthAdjust="spacing" textLength="131" x="2373" y="127.0252">ProductStageTypes</text></g><g id="elem_ShippingMethodTypes"><rect fill="#FAFF91" height="36.4883" rx="2.5" ry="2.5" style="stroke:#181818;stroke-width:0.5;" width="173" x="179" y="199.98"/><text fill="#000000" font-family="sans-serif" font-size="14" lengthAdjust="spacing" textLength="153" x="189" y="223.5152">ShippingMethodTypes</text></g><g id="elem_UOMLengthTypes"><rect fill="#FAFF91" height="36.4883" rx="2.5" ry="2.5" style="stroke:#181818;stroke-width:0.5;" width="140" x="386.5" y="199.98"/><text fill="#000000" font-family="sans-serif" font-size="14" lengthAdjust="spacing" textLength="120" x="396.5" y="223.5152">UOMLengthTypes</text></g><g id="elem_UOMQuantityCategoryTypes"><rect fill="#FAFF91" height="36.4883" rx="2.5" ry="2.5" style="stroke:#181818;stroke-width:0.5;" width="213" x="873" y="103.49"/><text fill="#000000" font-family="sans-serif" font-size="14" lengthAdjust="spacing" textLength="193" x="883" y="127.0252">UOMQuantityCategoryTypes</text></g><g id="elem_WarehouseTypes"><rect fill="#FAFF91" height="36.4883" rx="2.5" ry="2.5" style="stroke:#181818;stroke-width:0.5;" width="136" x="561.5" y="199.98"/><text fill="#000000" font-family="sans-serif" font-size="14" lengthAdjust="spacing" textLength="116" x="571.5" y="223.5152">WarehouseTypes</text></g><g id="elem_WarrantyTypes"><rect fill="#FAFF91" height="36.4883" rx="2.5" ry="2.5" style="stroke:#181818;stroke-width:0.5;" width="121" x="2793" y="199.98"/><text fill="#000000" font-family="sans-serif" font-size="14" lengthAdjust="spacing" textLength="101" x="2803" y="223.5152">WarrantyTypes</text></g><g id="link_AdvanceSearchTypes_AdvanceSearchValue"><path d="M2601.22,140.28 C2572.04,157.2 2528.11,182.66 2498.89,199.6 " fill="none" id="AdvanceSearchTypes-AdvanceSearchValue" style="stroke:#181818;stroke-width:1.0;"/></g><g id="link_AdvanceSearchValue_AdvancedSearchCriteria"><path d="M2451.066,246.6794 C2440.306,263.6194 2430.44,279.15 2419.64,296.17 " fill="none" id="AdvanceSearchValue-backto-AdvancedSearchCriteria" style="stroke:#181818;stroke-width:1.0;"/><polygon fill="#181818" points="2457.5,236.55,2450.9066,239.47,2451.066,246.6794,2457.6595,243.7593,2457.5,236.55" style="stroke:#181818;stroke-width:1.0;"/></g><g id="link_AdvancedSearchCriteria_PartSearchCriteria"><path d="M2337.47,333.37 C2269.59,350.25 2167.81,375.56 2099.83,392.46 " fill="none" id="AdvancedSearchCriteria-PartSearchCriteria" style="stroke:#181818;stroke-width:1.0;"/></g><g id="link_DurationUOMTypes_EffectivePeriod"><path d="M83.5,140.06 C83.5,157 83.5,182.66 83.5,199.68 " fill="none" id="DurationUOMTypes-EffectivePeriod" style="stroke:#181818;stroke-width:1.0;"/></g><g id="link_EffectivePeriod_PartLogisticsCriteria"><path d="M144.37,232.79 C150.16,234.04 155.94,235.29 161.5,236.46 C266.25,258.63 387.47,282.91 464.77,298.22 " fill="none" id="EffectivePeriod-PartLogisticsCriteria" style="stroke:#181818;stroke-width:1.0;"/></g><g id="link_Identifier_AdvancedSearchCriteria"><path d="M1679.36,235.6 C1684.95,237.1 1679.04,235.37 1684.5,236.46 C1803.1,260.21 2148.98,291.62 2316.05,305.97 " fill="none" id="Identifier-backto-AdvancedSearchCriteria" style="stroke:#181818;stroke-width:1.0;"/><polygon fill="#181818" points="1667.77,232.49,1672.5283,237.9083,1679.36,235.6,1674.6017,230.1817,1667.77,232.49" style="stroke:#181818;stroke-width:1.0;"/></g><g id="link_Identifier_PartIdentifier"><path d="M1673.5191,242.0026 C1708.4391,258.9226 1750.18,279.15 1785.14,296.09 " fill="none" id="Identifier-backto-PartIdentifier" style="stroke:#181818;stroke-width:1.0;"/><polygon fill="#181818" points="1662.72,236.77,1666.3754,242.986,1673.5191,242.0026,1669.8637,235.7866,1662.72,236.77" style="stroke:#181818;stroke-width:1.0;"/></g><g id="link_Identifier_PartLogisticsCriteria"><path d="M1573.5703,235.5155 C1567.6803,237.0555 1573.27,235.41 1567.5,236.46 C1219.1,299.8 794.89,311.35 622.25,313.35 " fill="none" id="Identifier-backto-PartLogisticsCriteria" style="stroke:#181818;stroke-width:1.0;"/><polygon fill="#181818" points="1585.18,232.48,1578.3633,230.1278,1573.5703,235.5155,1580.387,237.8677,1585.18,232.48" style="stroke:#181818;stroke-width:1.0;"/></g><g id="link_Identifier_PartSpecification"><path d="M1573.7505,234.7373 C1567.7905,236.4573 1573.26,234.86 1567.5,236.46 C1490.71,257.84 1402.17,281.06 1342.9,296.4 " fill="none" id="Identifier-backto-PartSpecification" style="stroke:#181818;stroke-width:1.0;"/><polygon fill="#181818" points="1585.28,231.41,1578.4062,229.2305,1573.7505,234.7373,1580.6244,236.9168,1585.28,231.41" style="stroke:#181818;stroke-width:1.0;"/></g><g id="link_PartConditionGradeTypes_PartSpecification"><path d="M925.6783,239.4323 C1010.7383,257.4923 1129.33,282.67 1208.08,299.39 " fill="none" id="PartConditionGradeTypes-backto-PartSpecification" style="stroke:#181818;stroke-width:1.0;"/><polygon fill="#181818" points="913.94,236.94,918.9784,242.0989,925.6783,239.4323,920.6399,234.2734,913.94,236.94" style="stroke:#181818;stroke-width:1.0;"/></g><g id="link_PartConditionGradeTypes_PartSearchCriteria"><path d="M875.84,236.95 C943.45,262.61 1075.22,309.55 1191.5,332.95 C1470.47,389.1 1810.09,404.53 1956.1,408.69 " fill="none" id="PartConditionGradeTypes-PartSearchCriteria" style="stroke:#181818;stroke-width:1.0;"/></g><g id="link_PartConditionTypes_PartSpecification"><path d="M1425.09,241.9592 C1389.81,258.8792 1347.55,279.15 1312.23,296.09 " fill="none" id="PartConditionTypes-backto-PartSpecification" style="stroke:#181818;stroke-width:1.0;"/><polygon fill="#181818" points="1435.91,236.77,1428.7703,235.7579,1425.09,241.9592,1432.2297,242.9713,1435.91,236.77" style="stroke:#181818;stroke-width:1.0;"/></g><g id="link_PartConditionTypes_PartSearchCriteria"><path d="M1511.39,236.92 C1564.47,260.67 1662.94,303.32 1749.5,332.95 C1818.69,356.64 1899.35,378.35 1956.1,392.68 " fill="none" id="PartConditionTypes-PartSearchCriteria" style="stroke:#181818;stroke-width:1.0;"/></g><g id="link_PartIdentifierTypes_PartIdentifier"><path d="M1784.75,236.55 C1792.82,253.49 1805.04,279.15 1813.15,296.17 " fill="none" id="PartIdentifierTypes-PartIdentifier" style="stroke:#181818;stroke-width:1.0;"/></g><g id="link_PartIdentifier_PartSearchCriteria"><path d="M1870.8661,338.2438 C1907.9261,355.1638 1952.79,375.64 1989.91,392.58 " fill="none" id="PartIdentifier-backto-PartSearchCriteria" style="stroke:#181818;stroke-width:1.0;"/><polygon fill="#181818" points="1859.95,333.26,1863.7468,339.3906,1870.8661,338.2438,1867.0693,332.1132,1859.95,333.26" style="stroke:#181818;stroke-width:1.0;"/></g><g id="link_PartInventoryOrderTypes_PartSearchCriteria"><path d="M2808.7922,332.3169 C2802.9822,333.1169 2809.11,332.24 2803.5,332.95 C2545.59,365.46 2237.97,392.71 2100.76,404.26 " fill="none" id="PartInventoryOrderTypes-backto-PartSearchCriteria" style="stroke:#181818;stroke-width:1.0;"/><polygon fill="#181818" points="2820.68,330.68,2814.1905,327.5358,2808.7922,332.3169,2815.2817,335.4611,2820.68,330.68" style="stroke:#181818;stroke-width:1.0;"/></g><g id="link_PartLifecycle_PartSearchCriteria"><path d="M2067.3734,343.4111 C2057.5134,360.3511 2048.61,375.64 2038.71,392.66 " fill="none" id="PartLifecycle-backto-PartSearchCriteria" style="stroke:#181818;stroke-width:1.0;"/><polygon fill="#181818" points="2073.41,333.04,2066.9347,336.2134,2067.3734,343.4111,2073.8488,340.2377,2073.41,333.04" style="stroke:#181818;stroke-width:1.0;"/></g><g id="link_PartLogisticsCriteria_PartSearchCriteria"><path d="M622.29,320.72 C881.63,337.22 1706.25,389.69 1956.08,405.59 " fill="none" id="PartLogisticsCriteria-PartSearchCriteria" style="stroke:#181818;stroke-width:1.0;"/></g><g id="link_PartNameTypes_PartName"><path d="M1454.41,43.9 C1504.37,61.58 1580.46,88.51 1628.02,105.34 " fill="none" id="PartNameTypes-PartName" style="stroke:#181818;stroke-width:1.0;"/></g><g id="link_PartNameTypes_PartSpecification"><path d="M1361.54,43.82 C1306.27,69.07 1212.72,121.4 1173.5,199.98 C1153.84,239.37 1202.56,275.49 1239.25,296.03 " fill="none" id="PartNameTypes-PartSpecification" style="stroke:#181818;stroke-width:1.0;"/></g><g id="link_PartName_PartIdentifier"><path d="M1726.3738,140.686 C1781.5838,159.096 1859.42,186.66 1868.5,199.98 C1889.57,230.86 1859.87,272.67 1838.97,296.03 " fill="none" id="PartName-backto-PartIdentifier" style="stroke:#181818;stroke-width:1.0;"/><polygon fill="#181818" points="1714.99,136.89,1719.4166,142.5826,1726.3738,140.686,1721.9472,134.9934,1714.99,136.89" style="stroke:#181818;stroke-width:1.0;"/></g><g id="link_PartName_PartSearchCriteria"><path d="M1726.4793,139.2865 C1788.1693,158.0765 1883.78,188.26 1898.5,199.98 C1965.97,253.7 2007.63,352.66 2022.42,392.7 " fill="none" id="PartName-backto-PartSearchCriteria" style="stroke:#181818;stroke-width:1.0;"/><polygon fill="#181818" points="1715,135.79,1719.5742,141.3647,1726.4793,139.2865,1721.9051,133.7118,1715,135.79" style="stroke:#181818;stroke-width:1.0;"/></g><g id="link_PartName_SuperSession"><path d="M1726.567,138.7845 C1732.107,140.3145 1726.14,138.62 1731.5,139.98 C1786.92,154 1942.6,187.37 2027.15,205.31 " fill="none" id="PartName-backto-SuperSession" style="stroke:#181818;stroke-width:1.0;"/><polygon fill="#181818" points="1715,135.59,1719.7187,141.0429,1726.567,138.7845,1721.8483,133.3316,1715,135.59" style="stroke:#181818;stroke-width:1.0;"/></g><g id="link_PartOrderConfigTypes_SuperSession"><path d="M1881.86,140.39 C1926.16,157.27 1992.58,182.58 2036.95,199.48 " fill="none" id="PartOrderConfigTypes-SuperSession" style="stroke:#181818;stroke-width:1.0;"/></g><g id="link_PartPriceCriteria_PartSearchCriteria"><path d="M2654.75,328.51 C2645.94,330.08 2637.01,331.61 2628.5,332.95 C2438.66,362.94 2213.63,389.53 2100.73,402.25 " fill="none" id="PartPriceCriteria-PartSearchCriteria" style="stroke:#181818;stroke-width:1.0;"/></g><g id="link_PartSpecification_PartSearchCriteria"><path d="M1354.8967,325.6737 C1496.3067,343.4137 1810.74,382.87 1956.22,401.13 " fill="none" id="PartSpecification-backto-PartSearchCriteria" style="stroke:#181818;stroke-width:1.0;"/><polygon fill="#181818" points="1342.99,324.18,1348.4454,328.8957,1354.8967,325.6737,1349.4412,320.958,1342.99,324.18" style="stroke:#181818;stroke-width:1.0;"/></g><g id="link_PartStatusTypes_PartLifecycle"><path d="M2239.2597,148.9475 C2218.5497,171.3275 2189.57,202.52 2157.5,236.46 C2138.11,256.98 2115.66,280.37 2100.62,295.98 " fill="none" id="PartStatusTypes-backto-PartLifecycle" style="stroke:#181818;stroke-width:1.0;"/><polygon fill="#181818" points="2247.41,140.14,2240.399,141.827,2239.2597,148.9475,2246.2707,147.2605,2247.41,140.14" style="stroke:#181818;stroke-width:1.0;"/></g><g id="link_PartStatusTypes_PartSearchCriteria"><path d="M2253.8813,151.7725 C2240.6113,190.5125 2208.47,272.84 2152.5,332.95 C2128.56,358.66 2094.23,379.16 2067.76,392.56 " fill="none" id="PartStatusTypes-backto-PartSearchCriteria" style="stroke:#181818;stroke-width:1.0;"/><polygon fill="#181818" points="2257.77,140.42,2252.0415,144.8,2253.8813,151.7725,2259.6098,147.3925,2257.77,140.42" style="stroke:#181818;stroke-width:1.0;"/></g><g id="link_PartStatusTypes_SuperSession"><path d="M2219.4451,145.8578 C2187.2151,162.7778 2149.33,182.66 2117.06,199.6 " fill="none" id="PartStatusTypes-backto-SuperSession" style="stroke:#181818;stroke-width:1.0;"/><polygon fill="#181818" points="2230.07,140.28,2222.8983,139.5273,2219.4451,145.8578,2226.6168,146.6105,2230.07,140.28" style="stroke:#181818;stroke-width:1.0;"/></g><g id="link_PriceTypes_PartPriceCriteria"><path d="M2714.2854,248.4962 C2715.8954,265.4362 2717.21,279.15 2718.83,296.17 " fill="none" id="PriceTypes-backto-PartPriceCriteria" style="stroke:#181818;stroke-width:1.0;"/><polygon fill="#181818" points="2713.15,236.55,2709.7356,242.9015,2714.2854,248.4962,2717.6997,242.1446,2713.15,236.55" style="stroke:#181818;stroke-width:1.0;"/></g><g id="link_ProductConsumptionTypes_SuperSession"><path d="M2064.72,140.06 C2068.84,157 2075.09,182.66 2079.23,199.68 " fill="none" id="ProductConsumptionTypes-SuperSession" style="stroke:#181818;stroke-width:1.0;"/></g><g id="link_ProductPackageTypes_PartSpecification"><path d="M1275.5,236.55 C1275.5,253.49 1275.5,279.15 1275.5,296.17 " fill="none" id="ProductPackageTypes-PartSpecification" style="stroke:#181818;stroke-width:1.0;"/></g><g id="link_ProductStageTypes_AdvancedSearchCriteria"><path d="M2407.0461,148.2515 C2390.9561,162.3915 2379.59,175.9 2370.5,199.98 C2357.78,233.67 2379.61,273.76 2395.1,296.22 " fill="none" id="ProductStageTypes-backto-AdvancedSearchCriteria" style="stroke:#181818;stroke-width:1.0;"/><polygon fill="#181818" points="2416.06,140.33,2408.9126,141.2861,2407.0461,148.2515,2414.1935,147.2954,2416.06,140.33" style="stroke:#181818;stroke-width:1.0;"/></g><g id="link_ProductStageTypes_PartSearchCriteria"><path d="M2503.6234,145.2209 C2531.2734,157.3209 2551.41,171.59 2567.5,199.98 C2594.12,246.93 2524.76,328.4 2518.5,332.95 C2453.2,380.43 2220.7,399.8 2100.95,406.76 " fill="none" id="ProductStageTypes-backto-PartSearchCriteria" style="stroke:#181818;stroke-width:1.0;"/><polygon fill="#181818" points="2492.63,140.41,2496.5231,146.4799,2503.6234,145.2209,2499.7303,139.151,2492.63,140.41" style="stroke:#181818;stroke-width:1.0;"/></g><g id="link_ProductStageTypes_SuperSession"><path d="M2372.14,140.39 C2305.22,158.21 2203.01,185.41 2139.88,202.21 " fill="none" id="ProductStageTypes-SuperSession" style="stroke:#181818;stroke-width:1.0;"/></g><g id="link_ShippingMethodTypes_PartLogisticsCriteria"><path d="M328.8216,240.7419 C378.4816,257.6219 441.59,279.07 491.32,295.97 " fill="none" id="ShippingMethodTypes-backto-PartLogisticsCriteria" style="stroke:#181818;stroke-width:1.0;"/><polygon fill="#181818" points="317.46,236.88,321.8535,242.5982,328.8216,240.7419,324.4281,235.0238,317.46,236.88" style="stroke:#181818;stroke-width:1.0;"/></g><g id="link_SuperSession_PartLifecycle"><path d="M2083.5,248.55 C2083.5,265.49 2083.5,279.15 2083.5,296.17 " fill="none" id="SuperSession-backto-PartLifecycle" style="stroke:#181818;stroke-width:1.0;"/><polygon fill="#181818" points="2083.5,236.55,2079.5,242.55,2083.5,248.55,2087.5,242.55,2083.5,236.55" style="stroke:#181818;stroke-width:1.0;"/></g><g id="link_UOMLengthTypes_PartLogisticsCriteria"><path d="M472.46,236.55 C488.06,253.49 511.68,279.15 527.35,296.17 " fill="none" id="UOMLengthTypes-PartLogisticsCriteria" style="stroke:#181818;stroke-width:1.0;"/></g><g id="link_UOMQuantityCategoryTypes_UnitOfMeasure"><path d="M987.75,140.06 C995.82,157 1008.04,182.66 1016.15,199.68 " fill="none" id="UOMQuantityCategoryTypes-UnitOfMeasure" style="stroke:#181818;stroke-width:1.0;"/></g><g id="link_UnitOfMeasure_PartSpecification"><path d="M1082.6503,241.1086 C1127.4803,257.9886 1183.49,279.07 1228.39,295.97 " fill="none" id="UnitOfMeasure-backto-PartSpecification" style="stroke:#181818;stroke-width:1.0;"/><polygon fill="#181818" points="1071.42,236.88,1075.6256,242.7377,1082.6503,241.1086,1078.4447,235.2509,1071.42,236.88" style="stroke:#181818;stroke-width:1.0;"/></g><g id="link_WarehouseTypes_PartLogisticsCriteria"><path d="M605.6522,245.4241 C590.2322,262.3641 574.95,279.15 559.46,296.17 " fill="none" id="WarehouseTypes-backto-PartLogisticsCriteria" style="stroke:#181818;stroke-width:1.0;"/><polygon fill="#181818" points="613.73,236.55,606.7331,238.2944,605.6522,245.4241,612.6491,243.6796,613.73,236.55" style="stroke:#181818;stroke-width:1.0;"/></g><g id="link_WarrantyTypes_PartPriceCriteria"><path d="M2819.017,243.7193 C2795.127,260.6893 2768.92,279.31 2745.07,296.25 " fill="none" id="WarrantyTypes-backto-PartPriceCriteria" style="stroke:#181818;stroke-width:1.0;"/><polygon fill="#181818" points="2828.8,236.77,2821.5921,236.9836,2819.017,243.7193,2826.2249,243.5056,2828.8,236.77" style="stroke:#181818;stroke-width:1.0;"/></g></g></svg>