<?xml version="1.0" encoding="us-ascii" standalone="no"?><svg xmlns="http://www.w3.org/2000/svg" xmlns:xlink="http://www.w3.org/1999/xlink" contentStyleType="text/css" height="435px" preserveAspectRatio="none" style="width:2654px;height:435px;background:#FFFFFF;" version="1.1" viewBox="0 0 2654 435" width="2654px" zoomAndPan="magnify"><defs/><g><g id="elem_AdvanceSearchValue"><rect fill="#F1F1F1" height="36.4883" rx="2.5" ry="2.5" style="stroke:#181818;stroke-width:0.5;" width="162" x="8" y="103.49"/><text fill="#000000" font-family="sans-serif" font-size="14" lengthAdjust="spacing" textLength="142" x="18" y="127.0252">AdvanceSearchValue</text></g><g id="elem_AdvancedSearchCriteria"><rect fill="#F1F1F1" height="36.4883" rx="2.5" ry="2.5" style="stroke:#181818;stroke-width:0.5;" width="184" x="94" y="199.98"/><text fill="#000000" font-family="sans-serif" font-size="14" lengthAdjust="spacing" textLength="164" x="104" y="223.5152">AdvancedSearchCriteria</text></g><g id="elem_EffectivePeriod"><rect fill="#F1F1F1" height="36.4883" rx="2.5" ry="2.5" style="stroke:#181818;stroke-width:0.5;" width="121" x="2144.5" y="103.49"/><text fill="#000000" font-family="sans-serif" font-size="14" lengthAdjust="spacing" textLength="101" x="2154.5" y="127.0252">EffectivePeriod</text></g><g id="elem_Identifier"><rect fill="#F1F1F1" height="36.4883" rx="2.5" ry="2.5" style="stroke:#181818;stroke-width:0.5;" width="82" x="1308" y="103.49"/><text fill="#000000" font-family="sans-serif" font-size="14" lengthAdjust="spacing" textLength="62" x="1318" y="127.0252">Identifier</text></g><g id="elem_PartIdentifier"><rect fill="#F1F1F1" height="36.4883" rx="2.5" ry="2.5" style="stroke:#181818;stroke-width:0.5;" width="109" x="1029.5" y="199.98"/><text fill="#000000" font-family="sans-serif" font-size="14" lengthAdjust="spacing" textLength="89" x="1039.5" y="223.5152">PartIdentifier</text></g><g id="elem_PartLifecycle"><rect fill="#F1F1F1" height="36.4883" rx="2.5" ry="2.5" style="stroke:#181818;stroke-width:0.5;" width="104" x="748" y="296.46"/><text fill="#000000" font-family="sans-serif" font-size="14" lengthAdjust="spacing" textLength="84" x="758" y="319.9952">PartLifecycle</text></g><g id="elem_PartLogisticsCriteria"><rect fill="#F1F1F1" height="36.4883" rx="2.5" ry="2.5" style="stroke:#181818;stroke-width:0.5;" width="157" x="2122.5" y="199.98"/><text fill="#000000" font-family="sans-serif" font-size="14" lengthAdjust="spacing" textLength="137" x="2132.5" y="223.5152">PartLogisticsCriteria</text></g><g id="elem_PartName"><rect fill="#F1F1F1" height="36.4883" rx="2.5" ry="2.5" style="stroke:#181818;stroke-width:0.5;" width="86" x="1004" y="103.49"/><text fill="#000000" font-family="sans-serif" font-size="14" lengthAdjust="spacing" textLength="66" x="1014" y="127.0252">PartName</text></g><g id="elem_PartPriceCriteria"><rect fill="#F1F1F1" height="36.4883" rx="2.5" ry="2.5" style="stroke:#181818;stroke-width:0.5;" width="131" x="507.5" y="296.46"/><text fill="#000000" font-family="sans-serif" font-size="14" lengthAdjust="spacing" textLength="111" x="517.5" y="319.9952">PartPriceCriteria</text></g><g id="elem_PartSearchCriteria"><rect fill="#F1F1F1" height="36.4883" rx="2.5" ry="2.5" style="stroke:#181818;stroke-width:0.5;" width="144" x="958" y="392.95"/><text fill="#000000" font-family="sans-serif" font-size="14" lengthAdjust="spacing" textLength="124" x="968" y="416.4852">PartSearchCriteria</text></g><g id="elem_PartSpecification"><rect fill="#F1F1F1" height="36.4883" rx="2.5" ry="2.5" style="stroke:#181818;stroke-width:0.5;" width="134" x="1408" y="296.46"/><text fill="#000000" font-family="sans-serif" font-size="14" lengthAdjust="spacing" textLength="114" x="1418" y="319.9952">PartSpecification</text></g><g id="elem_SuperSession"><rect fill="#F1F1F1" height="36.4883" rx="2.5" ry="2.5" style="stroke:#181818;stroke-width:0.5;" width="112" x="669" y="199.98"/><text fill="#000000" font-family="sans-serif" font-size="14" lengthAdjust="spacing" textLength="92" x="679" y="223.5152">SuperSession</text></g><g id="elem_UnitOfMeasure"><rect fill="#F1F1F1" height="36.4883" rx="2.5" ry="2.5" style="stroke:#181818;stroke-width:0.5;" width="122" x="1749" y="199.98"/><text fill="#000000" font-family="sans-serif" font-size="14" lengthAdjust="spacing" textLength="102" x="1759" y="223.5152">UnitOfMeasure</text></g><g id="elem_AdvanceSearchTypes"><rect fill="#FAFF91" height="36.4883" rx="2.5" ry="2.5" style="stroke:#181818;stroke-width:0.5;" width="164" x="7" y="7"/><text fill="#000000" font-family="sans-serif" font-size="14" lengthAdjust="spacing" textLength="144" x="17" y="30.5352">AdvanceSearchTypes</text></g><g id="elem_DurationUOMTypes"><rect fill="#FAFF91" height="36.4883" rx="2.5" ry="2.5" style="stroke:#181818;stroke-width:0.5;" width="153" x="2128.5" y="7"/><text fill="#000000" font-family="sans-serif" font-size="14" lengthAdjust="spacing" textLength="133" x="2138.5" y="30.5352">DurationUOMTypes</text></g><g id="elem_PartConditionGradeTypes"><rect fill="#FAFF91" height="36.4883" rx="2.5" ry="2.5" style="stroke:#181818;stroke-width:0.5;" width="196" x="1173" y="199.98"/><text fill="#000000" font-family="sans-serif" font-size="14" lengthAdjust="spacing" textLength="176" x="1183" y="223.5152">PartConditionGradeTypes</text></g><g id="elem_PartConditionTypes"><rect fill="#FAFF91" height="36.4883" rx="2.5" ry="2.5" style="stroke:#181818;stroke-width:0.5;" width="155" x="1905.5" y="199.98"/><text fill="#000000" font-family="sans-serif" font-size="14" lengthAdjust="spacing" textLength="135" x="1915.5" y="223.5152">PartConditionTypes</text></g><g id="elem_PartIdentifierTypes"><rect fill="#FAFF91" height="36.4883" rx="2.5" ry="2.5" style="stroke:#181818;stroke-width:0.5;" width="149" x="1124.5" y="103.49"/><text fill="#000000" font-family="sans-serif" font-size="14" lengthAdjust="spacing" textLength="129" x="1134.5" y="127.0252">PartIdentifierTypes</text></g><g id="elem_PartInventoryOrderTypes"><rect fill="#FAFF91" height="36.4883" rx="2.5" ry="2.5" style="stroke:#181818;stroke-width:0.5;" width="191" x="1577.5" y="296.46"/><text fill="#000000" font-family="sans-serif" font-size="14" lengthAdjust="spacing" textLength="171" x="1587.5" y="319.9952">PartInventoryOrderTypes</text></g><g id="elem_PartNameTypes"><rect fill="#FAFF91" height="36.4883" rx="2.5" ry="2.5" style="stroke:#181818;stroke-width:0.5;" width="126" x="1297" y="7"/><text fill="#000000" font-family="sans-serif" font-size="14" lengthAdjust="spacing" textLength="106" x="1307" y="30.5352">PartNameTypes</text></g><g id="elem_PartOrderConfigTypes"><rect fill="#FAFF91" height="36.4883" rx="2.5" ry="2.5" style="stroke:#181818;stroke-width:0.5;" width="173" x="390.5" y="103.49"/><text fill="#000000" font-family="sans-serif" font-size="14" lengthAdjust="spacing" textLength="153" x="400.5" y="127.0252">PartOrderConfigTypes</text></g><g id="elem_PartStatusTypes"><rect fill="#FAFF91" height="36.4883" rx="2.5" ry="2.5" style="stroke:#181818;stroke-width:0.5;" width="129" x="840.5" y="103.49"/><text fill="#000000" font-family="sans-serif" font-size="14" lengthAdjust="spacing" textLength="109" x="850.5" y="127.0252">PartStatusTypes</text></g><g id="elem_PriceTypes"><rect fill="#FAFF91" height="36.4883" rx="2.5" ry="2.5" style="stroke:#181818;stroke-width:0.5;" width="93" x="384.5" y="199.98"/><text fill="#000000" font-family="sans-serif" font-size="14" lengthAdjust="spacing" textLength="73" x="394.5" y="223.5152">PriceTypes</text></g><g id="elem_ProductConsumptionTypes"><rect fill="#FAFF91" height="36.4883" rx="2.5" ry="2.5" style="stroke:#181818;stroke-width:0.5;" width="206" x="599" y="103.49"/><text fill="#000000" font-family="sans-serif" font-size="14" lengthAdjust="spacing" textLength="186" x="609" y="127.0252">ProductConsumptionTypes</text></g><g id="elem_ProductPackageTypes"><rect fill="#FAFF91" height="36.4883" rx="2.5" ry="2.5" style="stroke:#181818;stroke-width:0.5;" width="169" x="1474.5" y="199.98"/><text fill="#000000" font-family="sans-serif" font-size="14" lengthAdjust="spacing" textLength="149" x="1484.5" y="223.5152">ProductPackageTypes</text></g><g id="elem_ProductStageTypes"><rect fill="#FAFF91" height="36.4883" rx="2.5" ry="2.5" style="stroke:#181818;stroke-width:0.5;" width="151" x="204.5" y="103.49"/><text fill="#000000" font-family="sans-serif" font-size="14" lengthAdjust="spacing" textLength="131" x="214.5" y="127.0252">ProductStageTypes</text></g><g id="elem_ShippingMethodTypes"><rect fill="#FAFF91" height="36.4883" rx="2.5" ry="2.5" style="stroke:#181818;stroke-width:0.5;" width="173" x="2300.5" y="103.49"/><text fill="#000000" font-family="sans-serif" font-size="14" lengthAdjust="spacing" textLength="153" x="2310.5" y="127.0252">ShippingMethodTypes</text></g><g id="elem_UOMLengthTypes"><rect fill="#FAFF91" height="36.4883" rx="2.5" ry="2.5" style="stroke:#181818;stroke-width:0.5;" width="140" x="2508" y="103.49"/><text fill="#000000" font-family="sans-serif" font-size="14" lengthAdjust="spacing" textLength="120" x="2518" y="127.0252">UOMLengthTypes</text></g><g id="elem_UOMQuantityCategoryTypes"><rect fill="#FAFF91" height="36.4883" rx="2.5" ry="2.5" style="stroke:#181818;stroke-width:0.5;" width="213" x="1725.5" y="103.49"/><text fill="#000000" font-family="sans-serif" font-size="14" lengthAdjust="spacing" textLength="193" x="1735.5" y="127.0252">UOMQuantityCategoryTypes</text></g><g id="elem_WarehouseTypes"><rect fill="#FAFF91" height="36.4883" rx="2.5" ry="2.5" style="stroke:#181818;stroke-width:0.5;" width="136" x="1973" y="103.49"/><text fill="#000000" font-family="sans-serif" font-size="14" lengthAdjust="spacing" textLength="116" x="1983" y="127.0252">WarehouseTypes</text></g><g id="elem_WarrantyTypes"><rect fill="#FAFF91" height="36.4883" rx="2.5" ry="2.5" style="stroke:#181818;stroke-width:0.5;" width="121" x="512.5" y="199.98"/><text fill="#000000" font-family="sans-serif" font-size="14" lengthAdjust="spacing" textLength="101" x="522.5" y="223.5152">WarrantyTypes</text></g><g id="link_AdvanceSearchTypes_AdvanceSearchValue"><path d="M89,43.57 C89,60.52 89,86.18 89,103.19 " fill="none" id="AdvanceSearchTypes-AdvanceSearchValue" style="stroke:#181818;stroke-width:1.0;"/></g><g id="link_AdvanceSearchValue_AdvancedSearchCriteria"><path d="M115.3858,148.4333 C132.7758,165.3733 150.53,182.66 167.99,199.68 " fill="none" id="AdvanceSearchValue-backto-AdvancedSearchCriteria" style="stroke:#181818;stroke-width:1.0;"/><polygon fill="#181818" points="106.79,140.06,108.2968,147.1119,115.3858,148.4333,113.879,141.3814,106.79,140.06" style="stroke:#181818;stroke-width:1.0;"/></g><g id="link_AdvancedSearchCriteria_PartSearchCriteria"><path d="M198.25,236.75 C217.58,262.81 257.82,311.06 305,332.95 C419.82,386.23 797.74,403.41 957.58,408.37 " fill="none" id="AdvancedSearchCriteria-PartSearchCriteria" style="stroke:#181818;stroke-width:1.0;"/></g><g id="link_DurationUOMTypes_EffectivePeriod"><path d="M2205,43.57 C2205,60.52 2205,86.18 2205,103.19 " fill="none" id="DurationUOMTypes-EffectivePeriod" style="stroke:#181818;stroke-width:1.0;"/></g><g id="link_EffectivePeriod_PartLogisticsCriteria"><path d="M2204.27,140.06 C2203.55,157 2202.46,182.66 2201.74,199.68 " fill="none" id="EffectivePeriod-PartLogisticsCriteria" style="stroke:#181818;stroke-width:1.0;"/></g><g id="link_Identifier_AdvancedSearchCriteria"><path d="M1296.1595,139.2524 C1290.5695,140.7124 1296.48,139 1291,139.98 C885.89,212.4 777.22,167.12 367,199.98 C338.21,202.28 306.88,205.14 278.5,207.87 " fill="none" id="Identifier-backto-AdvancedSearchCriteria" style="stroke:#181818;stroke-width:1.0;"/><polygon fill="#181818" points="1307.77,136.22,1300.9539,133.866,1296.1595,139.2524,1302.9756,141.6064,1307.77,136.22" style="stroke:#181818;stroke-width:1.0;"/></g><g id="link_Identifier_PartIdentifier"><path d="M1296.2876,141.5219 C1249.2776,158.2919 1183.89,181.6 1133.69,199.5 " fill="none" id="Identifier-backto-PartIdentifier" style="stroke:#181818;stroke-width:1.0;"/><polygon fill="#181818" points="1307.59,137.49,1300.5948,135.7385,1296.2876,141.5219,1303.2828,143.2734,1307.59,137.49" style="stroke:#181818;stroke-width:1.0;"/></g><g id="link_Identifier_PartLogisticsCriteria"><path d="M1402.1063,127.7344 C1513.2063,138.2844 1816.52,167.8 2078,199.98 C2092.34,201.74 2107.6,203.76 2122.31,205.79 " fill="none" id="Identifier-backto-PartLogisticsCriteria" style="stroke:#181818;stroke-width:1.0;"/><polygon fill="#181818" points="1390.16,126.6,1395.755,131.1493,1402.1063,127.7344,1396.5113,123.1851,1390.16,126.6" style="stroke:#181818;stroke-width:1.0;"/></g><g id="link_Identifier_PartSpecification"><path d="M1367.238,150.3767 C1391.238,186.7567 1439.42,259.78 1463.4,296.13 " fill="none" id="Identifier-backto-PartSpecification" style="stroke:#181818;stroke-width:1.0;"/><polygon fill="#181818" points="1360.63,140.36,1360.5951,147.571,1367.238,150.3767,1367.2729,143.1657,1360.63,140.36" style="stroke:#181818;stroke-width:1.0;"/></g><g id="link_Identifier_SuperSession"><path d="M1296.1272,139.0232 C1290.5472,140.5532 1296.44,138.8 1291,139.98 C1106.56,179.73 883.66,203.06 781.33,212.42 " fill="none" id="Identifier-backto-SuperSession" style="stroke:#181818;stroke-width:1.0;"/><polygon fill="#181818" points="1307.7,135.85,1300.8558,133.579,1296.1272,139.0232,1302.9713,141.2942,1307.7,135.85" style="stroke:#181818;stroke-width:1.0;"/></g><g id="link_PartConditionGradeTypes_PartSpecification"><path d="M1319.7787,241.8134 C1356.3087,258.7334 1400.39,279.15 1436.96,296.09 " fill="none" id="PartConditionGradeTypes-backto-PartSpecification" style="stroke:#181818;stroke-width:1.0;"/><polygon fill="#181818" points="1308.89,236.77,1312.6532,242.9213,1319.7787,241.8134,1316.0155,235.6622,1308.89,236.77" style="stroke:#181818;stroke-width:1.0;"/></g><g id="link_PartConditionGradeTypes_PartSearchCriteria"><path d="M1248.76,236.84 C1202.85,273.23 1098.05,356.27 1052.19,392.61 " fill="none" id="PartConditionGradeTypes-PartSearchCriteria" style="stroke:#181818;stroke-width:1.0;"/></g><g id="link_PartConditionTypes_PartSpecification"><path d="M1893.4933,235.4652 C1780.7233,255.9552 1593.31,290.04 1560,296.46 C1554.23,297.57 1548.25,298.75 1542.25,299.94 " fill="none" id="PartConditionTypes-backto-PartSpecification" style="stroke:#181818;stroke-width:1.0;"/><polygon fill="#181818" points="1905.3,233.32,1898.6816,230.4571,1893.4933,235.4652,1900.1117,238.3282,1905.3,233.32" style="stroke:#181818;stroke-width:1.0;"/></g><g id="link_PartConditionTypes_PartSearchCriteria"><path d="M1959.99,236.91 C1924.72,262.95 1854.2,310.9 1786,332.95 C1659.84,373.74 1265.74,398.1 1102.22,406.68 " fill="none" id="PartConditionTypes-PartSearchCriteria" style="stroke:#181818;stroke-width:1.0;"/></g><g id="link_PartIdentifierTypes_PartIdentifier"><path d="M1177.64,140.28 C1156.98,157.25 1125.86,182.82 1105.25,199.76 " fill="none" id="PartIdentifierTypes-PartIdentifier" style="stroke:#181818;stroke-width:1.0;"/></g><g id="link_PartIdentifier_PartSearchCriteria"><path d="M1075.7548,248.3872 C1065.4648,284.7772 1045.25,356.27 1034.97,392.61 " fill="none" id="PartIdentifier-backto-PartSearchCriteria" style="stroke:#181818;stroke-width:1.0;"/><polygon fill="#181818" points="1079.02,236.84,1073.5383,241.5252,1075.7548,248.3872,1081.2365,243.702,1079.02,236.84" style="stroke:#181818;stroke-width:1.0;"/></g><g id="link_PartInventoryOrderTypes_PartSearchCriteria"><path d="M1565.354,332.0185 C1559.184,332.9485 1564.94,332.07 1559,332.95 C1395.82,357.21 1204.21,385.02 1102.32,399.76 " fill="none" id="PartInventoryOrderTypes-backto-PartSearchCriteria" style="stroke:#181818;stroke-width:1.0;"/><polygon fill="#181818" points="1577.22,330.23,1570.6908,327.169,1565.354,332.0185,1571.8832,335.0796,1577.22,330.23" style="stroke:#181818;stroke-width:1.0;"/></g><g id="link_PartLifecycle_PartSearchCriteria"><path d="M854.0899,337.9299 C895.1799,354.8099 945.68,375.56 986.83,392.46 " fill="none" id="PartLifecycle-backto-PartSearchCriteria" style="stroke:#181818;stroke-width:1.0;"/><polygon fill="#181818" points="842.99,333.37,847.02,339.3499,854.0899,337.9299,850.0599,331.95,842.99,333.37" style="stroke:#181818;stroke-width:1.0;"/></g><g id="link_PartLogisticsCriteria_PartSearchCriteria"><path d="M2157.5,236.86 C2092.29,262.51 1964.79,309.58 1852,332.95 C1579.01,389.53 1246.34,404.72 1102.26,408.76 " fill="none" id="PartLogisticsCriteria-PartSearchCriteria" style="stroke:#181818;stroke-width:1.0;"/></g><g id="link_PartNameTypes_PartName"><path d="M1301.49,43.9 C1240.1,62.44 1145.03,91.14 1090.13,107.71 " fill="none" id="PartNameTypes-PartName" style="stroke:#181818;stroke-width:1.0;"/></g><g id="link_PartNameTypes_PartSpecification"><path d="M1423.32,42.3 C1495.5,64.38 1610.09,111.8 1661,199.98 C1691.95,253.57 1607.49,285.1 1542.42,300.88 " fill="none" id="PartNameTypes-PartSpecification" style="stroke:#181818;stroke-width:1.0;"/></g><g id="link_PartName_PartIdentifier"><path d="M1058.1635,151.2346 C1064.7935,168.1746 1070.47,182.66 1077.13,199.68 " fill="none" id="PartName-backto-PartIdentifier" style="stroke:#181818;stroke-width:1.0;"/><polygon fill="#181818" points="1053.79,140.06,1052.2519,147.1052,1058.1635,151.2346,1059.7016,144.1895,1053.79,140.06" style="stroke:#181818;stroke-width:1.0;"/></g><g id="link_PartName_PartSearchCriteria"><path d="M1030.5154,150.8649 C1022.0254,166.0549 1016.66,178.39 1012,199.98 C996.84,270.15 1015.45,356.1 1025,392.53 " fill="none" id="PartName-backto-PartSearchCriteria" style="stroke:#181818;stroke-width:1.0;"/><polygon fill="#181818" points="1036.37,140.39,1029.9511,143.6759,1030.5154,150.8649,1036.9343,147.579,1036.37,140.39" style="stroke:#181818;stroke-width:1.0;"/></g><g id="link_PartName_SuperSession"><path d="M992.0559,138.8501 C934.5559,155.7301 844.55,182.14 781.24,200.72 " fill="none" id="PartName-backto-SuperSession" style="stroke:#181818;stroke-width:1.0;"/><polygon fill="#181818" points="1003.57,135.47,996.6862,133.322,992.0559,138.8501,998.9397,140.9981,1003.57,135.47" style="stroke:#181818;stroke-width:1.0;"/></g><g id="link_PartOrderConfigTypes_SuperSession"><path d="M523.36,140.39 C567.66,157.27 634.08,182.58 678.45,199.48 " fill="none" id="PartOrderConfigTypes-SuperSession" style="stroke:#181818;stroke-width:1.0;"/></g><g id="link_PartPriceCriteria_PartSearchCriteria"><path d="M638.96,329.35 C723.62,346.85 870,377.11 957.64,395.24 " fill="none" id="PartPriceCriteria-PartSearchCriteria" style="stroke:#181818;stroke-width:1.0;"/></g><g id="link_PartSpecification_PartSearchCriteria"><path d="M1396.1616,332.4522 C1313.9716,349.9022 1187.02,376.86 1102.46,394.81 " fill="none" id="PartSpecification-backto-PartSearchCriteria" style="stroke:#181818;stroke-width:1.0;"/><polygon fill="#181818" points="1407.9,329.96,1401.2001,327.2933,1396.1616,332.4522,1402.8616,335.1189,1407.9,329.96" style="stroke:#181818;stroke-width:1.0;"/></g><g id="link_PartStatusTypes_PartLifecycle"><path d="M889.529,150.8757 C869.529,187.2557 829.65,259.78 809.67,296.13 " fill="none" id="PartStatusTypes-backto-PartLifecycle" style="stroke:#181818;stroke-width:1.0;"/><polygon fill="#181818" points="895.31,140.36,888.9143,143.6908,889.529,150.8757,895.9247,147.5449,895.31,140.36" style="stroke:#181818;stroke-width:1.0;"/></g><g id="link_PartStatusTypes_PartSearchCriteria"><path d="M917.416,151.2843 C939.736,202.6043 999.92,341.02 1022.31,392.51 " fill="none" id="PartStatusTypes-backto-PartSearchCriteria" style="stroke:#181818;stroke-width:1.0;"/><polygon fill="#181818" points="912.63,140.28,911.3549,147.3775,917.416,151.2843,918.6911,144.1868,912.63,140.28" style="stroke:#181818;stroke-width:1.0;"/></g><g id="link_PartStatusTypes_SuperSession"><path d="M860.9451,145.8578 C828.7151,162.7778 790.83,182.66 758.56,199.6 " fill="none" id="PartStatusTypes-backto-SuperSession" style="stroke:#181818;stroke-width:1.0;"/><polygon fill="#181818" points="871.57,140.28,864.3983,139.5273,860.9451,145.8578,868.1168,146.6105,871.57,140.28" style="stroke:#181818;stroke-width:1.0;"/></g><g id="link_PriceTypes_PartPriceCriteria"><path d="M467.37,243.4183 C492.87,260.3883 521.31,279.31 546.76,296.25 " fill="none" id="PriceTypes-backto-PartPriceCriteria" style="stroke:#181818;stroke-width:1.0;"/><polygon fill="#181818" points="457.38,236.77,460.1589,243.4241,467.37,243.4183,464.5911,236.7641,457.38,236.77" style="stroke:#181818;stroke-width:1.0;"/></g><g id="link_ProductConsumptionTypes_SuperSession"><path d="M706.22,140.06 C710.34,157 716.59,182.66 720.73,199.68 " fill="none" id="ProductConsumptionTypes-SuperSession" style="stroke:#181818;stroke-width:1.0;"/></g><g id="link_ProductPackageTypes_PartSpecification"><path d="M1543.59,236.55 C1528.53,253.49 1505.72,279.15 1490.59,296.17 " fill="none" id="ProductPackageTypes-PartSpecification" style="stroke:#181818;stroke-width:1.0;"/></g><g id="link_ProductStageTypes_AdvancedSearchCriteria"><path d="M254.2948,148.5653 C237.4348,165.5053 220.38,182.66 203.45,199.68 " fill="none" id="ProductStageTypes-backto-AdvancedSearchCriteria" style="stroke:#181818;stroke-width:1.0;"/><polygon fill="#181818" points="262.76,140.06,255.6923,141.4909,254.2948,148.5653,261.3625,147.1344,262.76,140.06" style="stroke:#181818;stroke-width:1.0;"/></g><g id="link_ProductStageTypes_PartSearchCriteria"><path d="M297.0975,150.5761 C324.1075,193.3461 393.46,291.72 490,332.95 C572.79,368.31 830.46,393.75 957.58,404.51 " fill="none" id="ProductStageTypes-backto-PartSearchCriteria" style="stroke:#181818;stroke-width:1.0;"/><polygon fill="#181818" points="290.69,140.43,290.5117,147.6389,297.0975,150.5761,297.2758,143.3673,290.69,140.43" style="stroke:#181818;stroke-width:1.0;"/></g><g id="link_ProductStageTypes_SuperSession"><path d="M355.79,137.96 C430.84,153.18 549.01,177.48 651,199.98 C656.8,201.25 662.84,202.62 668.87,203.99 " fill="none" id="ProductStageTypes-SuperSession" style="stroke:#181818;stroke-width:1.0;"/></g><g id="link_ShippingMethodTypes_PartLogisticsCriteria"><path d="M2341.7518,145.7158 C2308.4518,162.6358 2269.03,182.66 2235.68,199.6 " fill="none" id="ShippingMethodTypes-backto-PartLogisticsCriteria" style="stroke:#181818;stroke-width:1.0;"/><polygon fill="#181818" points="2352.45,140.28,2345.2889,139.4319,2341.7518,145.7158,2348.9128,146.564,2352.45,140.28" style="stroke:#181818;stroke-width:1.0;"/></g><g id="link_SuperSession_PartLifecycle"><path d="M746.2184,245.9507 C759.6584,262.8907 772.57,279.15 786.08,296.17 " fill="none" id="SuperSession-backto-PartLifecycle" style="stroke:#181818;stroke-width:1.0;"/><polygon fill="#181818" points="738.76,236.55,739.3556,243.7365,746.2184,245.9507,745.6227,238.7642,738.76,236.55" style="stroke:#181818;stroke-width:1.0;"/></g><g id="link_UOMLengthTypes_PartLogisticsCriteria"><path d="M2507.53,140.39 C2440.19,157.27 2339.21,182.58 2271.76,199.48 " fill="none" id="UOMLengthTypes-PartLogisticsCriteria" style="stroke:#181818;stroke-width:1.0;"/></g><g id="link_UOMQuantityCategoryTypes_UnitOfMeasure"><path d="M1827.96,140.06 C1824.02,157 1818.05,182.66 1814.08,199.68 " fill="none" id="UOMQuantityCategoryTypes-UnitOfMeasure" style="stroke:#181818;stroke-width:1.0;"/></g><g id="link_UnitOfMeasure_PartSpecification"><path d="M1737.0106,239.8077 C1677.1306,256.6977 1598.08,278.99 1537.76,296.01 " fill="none" id="UnitOfMeasure-backto-PartSpecification" style="stroke:#181818;stroke-width:1.0;"/><polygon fill="#181818" points="1748.56,236.55,1741.6994,234.329,1737.0106,239.8077,1743.8712,242.0286,1748.56,236.55" style="stroke:#181818;stroke-width:1.0;"/></g><g id="link_WarehouseTypes_PartLogisticsCriteria"><path d="M2081.0526,146.3822 C2109.7026,163.3022 2142.48,182.66 2171.17,199.6 " fill="none" id="WarehouseTypes-backto-PartLogisticsCriteria" style="stroke:#181818;stroke-width:1.0;"/><polygon fill="#181818" points="2070.72,140.28,2073.8522,146.7753,2081.0526,146.3822,2077.9204,139.8869,2070.72,140.28" style="stroke:#181818;stroke-width:1.0;"/></g><g id="link_WarrantyTypes_PartPriceCriteria"><path d="M573,248.55 C573,265.49 573,279.15 573,296.17 " fill="none" id="WarrantyTypes-backto-PartPriceCriteria" style="stroke:#181818;stroke-width:1.0;"/><polygon fill="#181818" points="573,236.55,569,242.55,573,248.55,577,242.55,573,236.55" style="stroke:#181818;stroke-width:1.0;"/></g></g></svg>