<?xml version="1.0" encoding="us-ascii" standalone="no"?><svg xmlns="http://www.w3.org/2000/svg" xmlns:xlink="http://www.w3.org/1999/xlink" contentStyleType="text/css" height="435px" preserveAspectRatio="none" style="width:3078px;height:435px;background:#FFFFFF;" version="1.1" viewBox="0 0 3078 435" width="3078px" zoomAndPan="magnify"><defs/><g><g id="elem_Address"><rect fill="#F1F1F1" height="36.4883" rx="2.5" ry="2.5" style="stroke:#181818;stroke-width:0.5;" width="76" x="2337.5" y="103.49"/><text fill="#000000" font-family="sans-serif" font-size="14" lengthAdjust="spacing" textLength="56" x="2347.5" y="127.0252">Address</text></g><g id="elem_ControlAccount"><rect fill="#F1F1F1" height="36.4883" rx="2.5" ry="2.5" style="stroke:#181818;stroke-width:0.5;" width="128" x="1636.5" y="199.98"/><text fill="#000000" font-family="sans-serif" font-size="14" lengthAdjust="spacing" textLength="108" x="1646.5" y="223.5152">ControlAccount</text></g><g id="elem_Identifier"><rect fill="#F1F1F1" height="36.4883" rx="2.5" ry="2.5" style="stroke:#181818;stroke-width:0.5;" width="82" x="1149.5" y="103.49"/><text fill="#000000" font-family="sans-serif" font-size="14" lengthAdjust="spacing" textLength="62" x="1159.5" y="127.0252">Identifier</text></g><g id="elem_Part"><rect fill="#F1F1F1" height="36.4883" rx="2.5" ry="2.5" style="stroke:#181818;stroke-width:0.5;" width="47" x="2373" y="392.95"/><text fill="#000000" font-family="sans-serif" font-size="14" lengthAdjust="spacing" textLength="27" x="2383" y="416.4852">Part</text></g><g id="elem_PartEvent"><rect fill="#F1F1F1" height="36.4883" rx="2.5" ry="2.5" style="stroke:#181818;stroke-width:0.5;" width="84" x="2527.5" y="199.98"/><text fill="#000000" font-family="sans-serif" font-size="14" lengthAdjust="spacing" textLength="64" x="2537.5" y="223.5152">PartEvent</text></g><g id="elem_PartIdentifier"><rect fill="#F1F1F1" height="36.4883" rx="2.5" ry="2.5" style="stroke:#181818;stroke-width:0.5;" width="109" x="509" y="199.98"/><text fill="#000000" font-family="sans-serif" font-size="14" lengthAdjust="spacing" textLength="89" x="519" y="223.5152">PartIdentifier</text></g><g id="elem_PartLifecycle"><rect fill="#F1F1F1" height="36.4883" rx="2.5" ry="2.5" style="stroke:#181818;stroke-width:0.5;" width="104" x="2064.5" y="296.46"/><text fill="#000000" font-family="sans-serif" font-size="14" lengthAdjust="spacing" textLength="84" x="2074.5" y="319.9952">PartLifecycle</text></g><g id="elem_PartLocation"><rect fill="#F1F1F1" height="36.4883" rx="2.5" ry="2.5" style="stroke:#181818;stroke-width:0.5;" width="105" x="2274" y="296.46"/><text fill="#000000" font-family="sans-serif" font-size="14" lengthAdjust="spacing" textLength="85" x="2284" y="319.9952">PartLocation</text></g><g id="elem_PartName"><rect fill="#F1F1F1" height="36.4883" rx="2.5" ry="2.5" style="stroke:#181818;stroke-width:0.5;" width="86" x="190.5" y="103.49"/><text fill="#000000" font-family="sans-serif" font-size="14" lengthAdjust="spacing" textLength="66" x="200.5" y="127.0252">PartName</text></g><g id="elem_Price"><rect fill="#F1F1F1" height="36.4883" rx="2.5" ry="2.5" style="stroke:#181818;stroke-width:0.5;" width="53" x="2598" y="296.46"/><text fill="#000000" font-family="sans-serif" font-size="14" lengthAdjust="spacing" textLength="33" x="2608" y="319.9952">Price</text></g><g id="elem_SuperSession"><rect fill="#F1F1F1" height="36.4883" rx="2.5" ry="2.5" style="stroke:#181818;stroke-width:0.5;" width="112" x="885.5" y="199.98"/><text fill="#000000" font-family="sans-serif" font-size="14" lengthAdjust="spacing" textLength="92" x="895.5" y="223.5152">SuperSession</text></g><g id="elem_Warehouse"><rect fill="#F1F1F1" height="36.4883" rx="2.5" ry="2.5" style="stroke:#181818;stroke-width:0.5;" width="96" x="2045.5" y="199.98"/><text fill="#000000" font-family="sans-serif" font-size="14" lengthAdjust="spacing" textLength="76" x="2055.5" y="223.5152">Warehouse</text></g><g id="elem_AddressTypes"><rect fill="#FAFF91" height="36.4883" rx="2.5" ry="2.5" style="stroke:#181818;stroke-width:0.5;" width="116" x="2317.5" y="7"/><text fill="#000000" font-family="sans-serif" font-size="14" lengthAdjust="spacing" textLength="96" x="2327.5" y="30.5352">AddressTypes</text></g><g id="elem_ControlAccountRoleTypes"><rect fill="#FAFF91" height="36.4883" rx="2.5" ry="2.5" style="stroke:#181818;stroke-width:0.5;" width="198" x="1933.5" y="103.49"/><text fill="#000000" font-family="sans-serif" font-size="14" lengthAdjust="spacing" textLength="178" x="1943.5" y="127.0252">ControlAccountRoleTypes</text></g><g id="elem_ControlAccountStatusTypes"><rect fill="#FAFF91" height="36.4883" rx="2.5" ry="2.5" style="stroke:#181818;stroke-width:0.5;" width="210" x="1266.5" y="103.49"/><text fill="#000000" font-family="sans-serif" font-size="14" lengthAdjust="spacing" textLength="190" x="1276.5" y="127.0252">ControlAccountStatusTypes</text></g><g id="elem_ControlAccountTypes"><rect fill="#FAFF91" height="36.4883" rx="2.5" ry="2.5" style="stroke:#181818;stroke-width:0.5;" width="168" x="1511.5" y="103.49"/><text fill="#000000" font-family="sans-serif" font-size="14" lengthAdjust="spacing" textLength="148" x="1521.5" y="127.0252">ControlAccountTypes</text></g><g id="elem_FinancialCategoryTypes"><rect fill="#FAFF91" height="36.4883" rx="2.5" ry="2.5" style="stroke:#181818;stroke-width:0.5;" width="183" x="1715" y="103.49"/><text fill="#000000" font-family="sans-serif" font-size="14" lengthAdjust="spacing" textLength="163" x="1725" y="127.0252">FinancialCategoryTypes</text></g><g id="elem_PartConditionGradeTypes"><rect fill="#FAFF91" height="36.4883" rx="2.5" ry="2.5" style="stroke:#181818;stroke-width:0.5;" width="196" x="2685.5" y="296.46"/><text fill="#000000" font-family="sans-serif" font-size="14" lengthAdjust="spacing" textLength="176" x="2695.5" y="319.9952">PartConditionGradeTypes</text></g><g id="elem_PartConditionTypes"><rect fill="#FAFF91" height="36.4883" rx="2.5" ry="2.5" style="stroke:#181818;stroke-width:0.5;" width="155" x="2917" y="296.46"/><text fill="#000000" font-family="sans-serif" font-size="14" lengthAdjust="spacing" textLength="135" x="2927" y="319.9952">PartConditionTypes</text></g><g id="elem_PartIdentifierTypes"><rect fill="#FAFF91" height="36.4883" rx="2.5" ry="2.5" style="stroke:#181818;stroke-width:0.5;" width="149" x="7" y="103.49"/><text fill="#000000" font-family="sans-serif" font-size="14" lengthAdjust="spacing" textLength="129" x="17" y="127.0252">PartIdentifierTypes</text></g><g id="elem_PartInventoryOrderTypes"><rect fill="#FAFF91" height="36.4883" rx="2.5" ry="2.5" style="stroke:#181818;stroke-width:0.5;" width="191" x="2613" y="103.49"/><text fill="#000000" font-family="sans-serif" font-size="14" lengthAdjust="spacing" textLength="171" x="2623" y="127.0252">PartInventoryOrderTypes</text></g><g id="elem_PartNameTypes"><rect fill="#FAFF91" height="36.4883" rx="2.5" ry="2.5" style="stroke:#181818;stroke-width:0.5;" width="126" x="170.5" y="7"/><text fill="#000000" font-family="sans-serif" font-size="14" lengthAdjust="spacing" textLength="106" x="180.5" y="30.5352">PartNameTypes</text></g><g id="elem_PartOrderConfigTypes"><rect fill="#FAFF91" height="36.4883" rx="2.5" ry="2.5" style="stroke:#181818;stroke-width:0.5;" width="173" x="311" y="103.49"/><text fill="#000000" font-family="sans-serif" font-size="14" lengthAdjust="spacing" textLength="153" x="321" y="127.0252">PartOrderConfigTypes</text></g><g id="elem_PartStatusTypes"><rect fill="#FAFF91" height="36.4883" rx="2.5" ry="2.5" style="stroke:#181818;stroke-width:0.5;" width="129" x="2449" y="103.49"/><text fill="#000000" font-family="sans-serif" font-size="14" lengthAdjust="spacing" textLength="109" x="2459" y="127.0252">PartStatusTypes</text></g><g id="elem_PartStorageTypes"><rect fill="#FAFF91" height="36.4883" rx="2.5" ry="2.5" style="stroke:#181818;stroke-width:0.5;" width="140" x="2247.5" y="199.98"/><text fill="#000000" font-family="sans-serif" font-size="14" lengthAdjust="spacing" textLength="120" x="2257.5" y="223.5152">PartStorageTypes</text></g><g id="elem_PriceTypes"><rect fill="#FAFF91" height="36.4883" rx="2.5" ry="2.5" style="stroke:#181818;stroke-width:0.5;" width="93" x="2647" y="199.98"/><text fill="#000000" font-family="sans-serif" font-size="14" lengthAdjust="spacing" textLength="73" x="2657" y="223.5152">PriceTypes</text></g><g id="elem_ProductConsumptionTypes"><rect fill="#FAFF91" height="36.4883" rx="2.5" ry="2.5" style="stroke:#181818;stroke-width:0.5;" width="206" x="519.5" y="103.49"/><text fill="#000000" font-family="sans-serif" font-size="14" lengthAdjust="spacing" textLength="186" x="529.5" y="127.0252">ProductConsumptionTypes</text></g><g id="elem_ProductPackageTypes"><rect fill="#FAFF91" height="36.4883" rx="2.5" ry="2.5" style="stroke:#181818;stroke-width:0.5;" width="169" x="760" y="103.49"/><text fill="#000000" font-family="sans-serif" font-size="14" lengthAdjust="spacing" textLength="149" x="770" y="127.0252">ProductPackageTypes</text></g><g id="elem_ProductStageTypes"><rect fill="#FAFF91" height="36.4883" rx="2.5" ry="2.5" style="stroke:#181818;stroke-width:0.5;" width="151" x="964" y="103.49"/><text fill="#000000" font-family="sans-serif" font-size="14" lengthAdjust="spacing" textLength="131" x="974" y="127.0252">ProductStageTypes</text></g><g id="elem_WarehouseTypes"><rect fill="#FAFF91" height="36.4883" rx="2.5" ry="2.5" style="stroke:#181818;stroke-width:0.5;" width="136" x="2166.5" y="103.49"/><text fill="#000000" font-family="sans-serif" font-size="14" lengthAdjust="spacing" textLength="116" x="2176.5" y="127.0252">WarehouseTypes</text></g><g id="link_AddressTypes_Address"><path d="M2375.5,55.57 C2375.5,72.52 2375.5,86.18 2375.5,103.19 " fill="none" id="AddressTypes-backto-Address" style="stroke:#181818;stroke-width:1.0;"/><polygon fill="#181818" points="2375.5,43.57,2371.5,49.57,2375.5,55.57,2379.5,49.57,2375.5,43.57" style="stroke:#181818;stroke-width:1.0;"/></g><g id="link_Address_Warehouse"><path d="M2325.7921,139.3836 C2275.0421,156.3936 2196.91,182.57 2141.66,201.08 " fill="none" id="Address-backto-Warehouse" style="stroke:#181818;stroke-width:1.0;"/><polygon fill="#181818" points="2337.17,135.57,2330.2099,133.6841,2325.7921,139.3836,2332.7522,141.2694,2337.17,135.57" style="stroke:#181818;stroke-width:1.0;"/></g><g id="link_ControlAccount_Part"><path d="M1749.17,236.86 C1815.88,260.66 1939.73,303.44 2047.5,332.95 C2168.4,366.06 2315.8,395.01 2372.6,405.75 " fill="none" id="ControlAccount-Part" style="stroke:#181818;stroke-width:1.0;"/></g><g id="link_ControlAccountRoleTypes_ControlAccount"><path d="M1970.44,140.39 C1911.14,157.27 1822.21,182.58 1762.82,199.48 " fill="none" id="ControlAccountRoleTypes-ControlAccount" style="stroke:#181818;stroke-width:1.0;"/></g><g id="link_ControlAccountStatusTypes_ControlAccount"><path d="M1433,140.39 C1491.77,157.27 1579.89,182.58 1638.75,199.48 " fill="none" id="ControlAccountStatusTypes-ControlAccount" style="stroke:#181818;stroke-width:1.0;"/></g><g id="link_ControlAccountTypes_ControlAccount"><path d="M1614.76,140.06 C1633.59,157 1662.1,182.66 1681.01,199.68 " fill="none" id="ControlAccountTypes-ControlAccount" style="stroke:#181818;stroke-width:1.0;"/></g><g id="link_FinancialCategoryTypes_ControlAccount"><path d="M1787.06,140.06 C1768.05,157 1739.26,182.66 1720.18,199.68 " fill="none" id="FinancialCategoryTypes-ControlAccount" style="stroke:#181818;stroke-width:1.0;"/></g><g id="link_Identifier_ControlAccount"><path d="M1243.4007,138.8971 C1248.9707,140.4471 1243.08,138.71 1248.5,139.98 C1385.15,171.84 1547.88,196.44 1636.02,208.68 " fill="none" id="Identifier-backto-ControlAccount" style="stroke:#181818;stroke-width:1.0;"/><polygon fill="#181818" points="1231.84,135.68,1236.548,141.1421,1243.4007,138.8971,1238.6927,133.435,1231.84,135.68" style="stroke:#181818;stroke-width:1.0;"/></g><g id="link_Identifier_Part"><path d="M1243.2532,140.1674 C1354.2532,176.5474 1657.06,273.11 1924.5,332.95 C2094.66,371.03 2303.27,398.61 2372.74,407.3 " fill="none" id="Identifier-backto-Part" style="stroke:#181818;stroke-width:1.0;"/><polygon fill="#181818" points="1231.85,136.43,1236.3058,142.0997,1243.2532,140.1674,1238.7974,134.4976,1231.85,136.43" style="stroke:#181818;stroke-width:1.0;"/></g><g id="link_Identifier_PartIdentifier"><path d="M1137.6272,139.0232 C1132.0472,140.5532 1137.94,138.8 1132.5,139.98 C945.86,180.14 720.06,203.44 618.12,212.63 " fill="none" id="Identifier-backto-PartIdentifier" style="stroke:#181818;stroke-width:1.0;"/><polygon fill="#181818" points="1149.2,135.85,1142.3558,133.579,1137.6272,139.0232,1144.4713,141.2942,1149.2,135.85" style="stroke:#181818;stroke-width:1.0;"/></g><g id="link_Identifier_SuperSession"><path d="M1137.8802,142.6964 C1093.4902,159.5364 1034.38,181.97 988.08,199.54 " fill="none" id="Identifier-backto-SuperSession" style="stroke:#181818;stroke-width:1.0;"/><polygon fill="#181818" points="1149.1,138.44,1142.0713,136.8283,1137.8802,142.6964,1144.9089,144.3081,1149.1,138.44" style="stroke:#181818;stroke-width:1.0;"/></g><g id="link_Identifier_Warehouse"><path d="M1243.3538,139.1758 C1248.9338,140.6658 1243.03,138.92 1248.5,139.98 C1403.29,169.76 1889.77,203.72 2045.23,214.07 " fill="none" id="Identifier-backto-Warehouse" style="stroke:#181818;stroke-width:1.0;"/><polygon fill="#181818" points="1231.76,136.08,1236.5249,141.4925,1243.3538,139.1758,1238.5888,133.7633,1231.76,136.08" style="stroke:#181818;stroke-width:1.0;"/></g><g id="link_PartConditionGradeTypes_Part"><path d="M2711.16,333.37 C2622.56,355 2477.24,390.48 2420.37,404.37 " fill="none" id="PartConditionGradeTypes-Part" style="stroke:#181818;stroke-width:1.0;"/></g><g id="link_PartConditionTypes_Part"><path d="M2916.72,329.85 C2910.56,330.92 2904.43,331.96 2898.5,332.95 C2714.76,363.59 2492.43,396.26 2420.31,406.75 " fill="none" id="PartConditionTypes-Part" style="stroke:#181818;stroke-width:1.0;"/></g><g id="link_PartEvent_Part"><path d="M2556.335,247.6168 C2545.045,271.2368 2527.87,302.9 2500.5,332.95 C2476.73,359.06 2443,382.2 2420.46,396.19 " fill="none" id="PartEvent-backto-Part" style="stroke:#181818;stroke-width:1.0;"/><polygon fill="#181818" points="2561.51,236.79,2555.3136,240.4784,2556.335,247.6168,2562.5314,243.9284,2561.51,236.79" style="stroke:#181818;stroke-width:1.0;"/></g><g id="link_PartIdentifierTypes_PartIdentifier"><path d="M156.28,137.39 C253.86,156.52 422.3,189.54 508.78,206.49 " fill="none" id="PartIdentifierTypes-PartIdentifier" style="stroke:#181818;stroke-width:1.0;"/></g><g id="link_PartIdentifier_Part"><path d="M630.2539,231.2654 C753.3639,253.2054 1049.09,303.99 1308.5,332.95 C1733.82,380.44 2256.13,404.28 2372.7,409.22 " fill="none" id="PartIdentifier-backto-Part" style="stroke:#181818;stroke-width:1.0;"/><polygon fill="#181818" points="618.44,229.16,623.6451,234.1507,630.2539,231.2654,625.0487,226.2747,618.44,229.16" style="stroke:#181818;stroke-width:1.0;"/></g><g id="link_PartInventoryOrderTypes_PartEvent"><path d="M2682.68,140.28 C2657.71,157.25 2620.1,182.82 2595.18,199.76 " fill="none" id="PartInventoryOrderTypes-PartEvent" style="stroke:#181818;stroke-width:1.0;"/></g><g id="link_PartLifecycle_Part"><path d="M2180.2103,337.2061 C2241.1503,357.7661 2327.8,387.01 2372.68,402.16 " fill="none" id="PartLifecycle-backto-Part" style="stroke:#181818;stroke-width:1.0;"/><polygon fill="#181818" points="2168.84,333.37,2173.2464,339.0782,2180.2103,337.2061,2175.8039,331.498,2168.84,333.37" style="stroke:#181818;stroke-width:1.0;"/></g><g id="link_PartLocation_Part"><path d="M2339.34,333.04 C2351.89,349.98 2370.9,375.64 2383.51,392.66 " fill="none" id="PartLocation-Part" style="stroke:#181818;stroke-width:1.0;"/></g><g id="link_PartNameTypes_PartName"><path d="M233.5,43.57 C233.5,60.52 233.5,86.18 233.5,103.19 " fill="none" id="PartNameTypes-PartName" style="stroke:#181818;stroke-width:1.0;"/></g><g id="link_PartName_PartIdentifier"><path d="M288.2921,138.4883 C293.9221,140.1083 288.08,138.42 293.5,139.98 C368.02,161.34 454.13,185.97 508.68,201.56 " fill="none" id="PartName-backto-PartIdentifier" style="stroke:#181818;stroke-width:1.0;"/><polygon fill="#181818" points="276.76,135.17,281.4199,140.6732,288.2921,138.4883,283.6321,132.9851,276.76,135.17" style="stroke:#181818;stroke-width:1.0;"/></g><g id="link_PartName_SuperSession"><path d="M288.4916,139.1182 C294.0516,140.5682 288.08,138.88 293.5,139.98 C509.78,183.65 772.01,205.58 885.11,213.57 " fill="none" id="PartName-backto-SuperSession" style="stroke:#181818;stroke-width:1.0;"/><polygon fill="#181818" points="276.88,136.09,281.6764,141.4746,288.4916,139.1182,283.6952,133.7336,276.88,136.09" style="stroke:#181818;stroke-width:1.0;"/></g><g id="link_PartOrderConfigTypes_SuperSession"><path d="M484.3,137.81 C596.94,157.37 790.28,190.95 885.36,207.47 " fill="none" id="PartOrderConfigTypes-SuperSession" style="stroke:#181818;stroke-width:1.0;"/></g><g id="link_PartStatusTypes_Part"><path d="M2493.6789,150.6889 C2464.2389,202.0089 2409.39,341.02 2396.97,392.51 " fill="none" id="PartStatusTypes-backto-Part" style="stroke:#181818;stroke-width:1.0;"/><polygon fill="#181818" points="2499.65,140.28,2493.1948,143.4941,2493.6789,150.6889,2500.1341,147.4748,2499.65,140.28" style="stroke:#181818;stroke-width:1.0;"/></g><g id="link_PartStatusTypes_Part"><path d="M2513.07,140.28 C2500.73,191.6 2439.92,341.02 2410.43,392.51 " fill="none" id="PartStatusTypes-Part" style="stroke:#181818;stroke-width:1.0;"/></g><g id="link_PartStatusTypes_PartLifecycle"><path d="M2436.9311,138.9522 C2365.4511,154.7022 2267.4,178.58 2230.5,199.98 C2186.96,225.21 2148.29,271.19 2129.17,296.26 " fill="none" id="PartStatusTypes-backto-PartLifecycle" style="stroke:#181818;stroke-width:1.0;"/><polygon fill="#181818" points="2448.65,136.37,2441.9298,133.7548,2436.9311,138.9522,2443.6513,141.5674,2448.65,136.37" style="stroke:#181818;stroke-width:1.0;"/></g><g id="link_PartStatusTypes_SuperSession"><path d="M2436.9367,139.3718 C2431.1167,140.3818 2437.13,139.24 2431.5,139.98 C2146.23,177.14 1234.24,207.96 997.88,215.47 " fill="none" id="PartStatusTypes-backto-SuperSession" style="stroke:#181818;stroke-width:1.0;"/><polygon fill="#181818" points="2448.76,137.32,2442.1644,134.4048,2436.9367,139.3718,2443.5323,142.287,2448.76,137.32" style="stroke:#181818;stroke-width:1.0;"/></g><g id="link_PartStatusTypes_PartEvent"><path d="M2523.77,140.06 C2533.81,157 2549.02,182.66 2559.1,199.68 " fill="none" id="PartStatusTypes-PartEvent" style="stroke:#181818;stroke-width:1.0;"/></g><g id="link_PartStorageTypes_PartLocation"><path d="M2319.15,236.55 C2320.76,253.49 2323.21,279.15 2324.83,296.17 " fill="none" id="PartStorageTypes-PartLocation" style="stroke:#181818;stroke-width:1.0;"/></g><g id="link_PriceTypes_Price"><path d="M2673.7632,246.2412 C2661.3932,263.1812 2649.73,279.15 2637.31,296.17 " fill="none" id="PriceTypes-backto-Price" style="stroke:#181818;stroke-width:1.0;"/><polygon fill="#181818" points="2680.84,236.55,2674.0712,239.0367,2673.7632,246.2412,2680.532,243.7545,2680.84,236.55" style="stroke:#181818;stroke-width:1.0;"/></g><g id="link_Price_Part"><path d="M2586.8147,331.3252 C2541.9447,349.9252 2463,382.64 2420.18,400.38 " fill="none" id="Price-backto-Part" style="stroke:#181818;stroke-width:1.0;"/><polygon fill="#181818" points="2597.9,326.73,2590.8256,325.3325,2586.8147,331.3252,2593.8891,332.7227,2597.9,326.73" style="stroke:#181818;stroke-width:1.0;"/></g><g id="link_ProductConsumptionTypes_SuperSession"><path d="M682.13,140.39 C740.28,157.62 828.08,183.63 885.11,200.52 " fill="none" id="ProductConsumptionTypes-SuperSession" style="stroke:#181818;stroke-width:1.0;"/></g><g id="link_ProductPackageTypes_SuperSession"><path d="M862.29,140.06 C879.68,157 906.03,182.66 923.49,199.68 " fill="none" id="ProductPackageTypes-SuperSession" style="stroke:#181818;stroke-width:1.0;"/></g><g id="link_ProductStageTypes_SuperSession"><path d="M1021.53,140.06 C1003.95,157 977.34,182.66 959.69,199.68 " fill="none" id="ProductStageTypes-SuperSession" style="stroke:#181818;stroke-width:1.0;"/></g><g id="link_SuperSession_PartLifecycle"><path d="M1009.7414,224.7019 C1209.4414,240.7619 1870.52,293.93 2064.05,309.49 " fill="none" id="SuperSession-backto-PartLifecycle" style="stroke:#181818;stroke-width:1.0;"/><polygon fill="#181818" points="997.78,223.74,1003.44,228.2081,1009.7414,224.7019,1004.0813,220.2338,997.78,223.74" style="stroke:#181818;stroke-width:1.0;"/></g><g id="link_Warehouse_Part"><path d="M2117,236.79 C2148.21,259.85 2205.38,301.14 2256.5,332.95 C2296.33,357.74 2344.58,383.46 2372.78,398.08 " fill="none" id="Warehouse-Part" style="stroke:#181818;stroke-width:1.0;"/></g><g id="link_Warehouse_PartLocation"><path d="M2137.05,236.88 C2178.67,253.76 2241.08,279.07 2282.77,295.97 " fill="none" id="Warehouse-PartLocation" style="stroke:#181818;stroke-width:1.0;"/></g><g id="link_WarehouseTypes_Warehouse"><path d="M2198.3406,146.9591 C2173.0106,163.9291 2144.83,182.82 2119.55,199.76 " fill="none" id="WarehouseTypes-backto-Warehouse" style="stroke:#181818;stroke-width:1.0;"/><polygon fill="#181818" points="2208.31,140.28,2201.0989,140.2964,2198.3406,146.9591,2205.5516,146.9427,2208.31,140.28" style="stroke:#181818;stroke-width:1.0;"/></g></g></svg>