<?xml version="1.0" encoding="us-ascii" standalone="no"?><svg xmlns="http://www.w3.org/2000/svg" xmlns:xlink="http://www.w3.org/1999/xlink" contentStyleType="text/css" height="994px" preserveAspectRatio="none" style="width:350px;height:994px;background:#FFFFFF;" version="1.1" viewBox="0 0 350 994" width="350px" zoomAndPan="magnify"><defs/><g><g id="elem_LifecycleEvent"><rect codeLine="1" fill="#F1F1F1" height="295.3242" id="LifecycleEvent" rx="2.5" ry="2.5" style="stroke:#181818;stroke-width:0.5;" width="274" x="46" y="692.09"/><ellipse cx="131.75" cy="708.09" fill="#ADD1B2" rx="11" ry="11" style="stroke:#181818;stroke-width:1.0;"/><path d="M134.2231,714.2331 Q133.6421,714.5319 133.0029,714.6813 Q132.3638,714.8307 131.6582,714.8307 Q129.1514,714.8307 127.8315,713.1789 Q126.5117,711.527 126.5117,708.4059 Q126.5117,705.2765 127.8315,703.6247 Q129.1514,701.9728 131.6582,701.9728 Q132.3638,701.9728 133.0112,702.1222 Q133.6587,702.2716 134.2231,702.5705 L134.2231,705.2931 Q133.5923,704.7121 132.9988,704.4423 Q132.4053,704.1725 131.7744,704.1725 Q130.4297,704.1725 129.7449,705.2392 Q129.0601,706.3058 129.0601,708.4059 Q129.0601,710.4977 129.7449,711.5644 Q130.4297,712.631 131.7744,712.631 Q132.4053,712.631 132.9988,712.3612 Q133.5923,712.0915 134.2231,711.5104 Z " fill="#000000"/><text fill="#000000" font-family="sans-serif" font-size="14" lengthAdjust="spacing" textLength="94" x="152.25" y="713.381">LifecycleEvent</text><line style="stroke:#181818;stroke-width:0.5;" x1="47" x2="319" y1="724.09" y2="724.09"/><text fill="#000000" font-family="sans-serif" font-size="14" lengthAdjust="spacing" textLength="149" x="52" y="741.6252">lifecycleEventId:String</text><text fill="#000000" font-family="sans-serif" font-size="14" lengthAdjust="spacing" textLength="160" x="52" y="758.1134">lifecycleEventKey:String</text><text fill="#000000" font-family="sans-serif" font-size="14" lengthAdjust="spacing" textLength="109" x="52" y="774.6017">actorHref:String</text><text fill="#000000" font-family="sans-serif" font-size="14" lengthAdjust="spacing" textLength="93" x="52" y="791.09">actorId:String</text><text fill="#000000" font-family="sans-serif" font-size="14" lengthAdjust="spacing" textLength="119" x="52" y="807.5783">actorName:String</text><text fill="#000000" font-family="sans-serif" font-size="14" lengthAdjust="spacing" textLength="262" x="52" y="824.0666">lifecycleEventType:LifecycleEventTypes</text><text fill="#000000" font-family="sans-serif" font-size="14" lengthAdjust="spacing" textLength="142" x="52" y="840.5548">occurrenceDate:Date</text><text fill="#000000" font-family="sans-serif" font-size="14" lengthAdjust="spacing" textLength="134" x="52" y="857.0431">resourceHref:String</text><text fill="#000000" font-family="sans-serif" font-size="14" lengthAdjust="spacing" textLength="167" x="52" y="873.5314">resourceIdentifier:String</text><text fill="#000000" font-family="sans-serif" font-size="14" lengthAdjust="spacing" textLength="122" x="52" y="890.0197">detailName:String</text><text fill="#000000" font-family="sans-serif" font-size="14" lengthAdjust="spacing" textLength="115" x="52" y="906.508">detailDesc:String</text><text fill="#000000" font-family="sans-serif" font-size="14" lengthAdjust="spacing" textLength="121" x="52" y="922.9963">detailValue:String</text><text fill="#000000" font-family="sans-serif" font-size="14" lengthAdjust="spacing" textLength="107" x="52" y="939.4845">detailKey:String</text><text fill="#000000" font-family="sans-serif" font-size="14" lengthAdjust="spacing" textLength="119" x="52" y="955.9728">detailCode:String</text><text fill="#000000" font-family="sans-serif" font-size="14" lengthAdjust="spacing" textLength="207" x="52" y="972.4611">resourceTypes:ResourceTypes</text><line style="stroke:#181818;stroke-width:0.5;" x1="47" x2="319" y1="979.4142" y2="979.4142"/></g><g id="elem_LifecycleEventTypes"><rect codeLine="18" fill="#FAFF91" height="328.3008" id="LifecycleEventTypes" rx="2.5" ry="2.5" style="stroke:#181818;stroke-width:0.5;" width="166" x="7" y="155.39"/><ellipse cx="22" cy="171.39" fill="#ADD1B2" rx="11" ry="11" style="stroke:#181818;stroke-width:1.0;"/><path d="M24.4731,177.5331 Q23.8921,177.8319 23.2529,177.9813 Q22.6138,178.1307 21.9082,178.1307 Q19.4014,178.1307 18.0815,176.4789 Q16.7617,174.827 16.7617,171.7059 Q16.7617,168.5765 18.0815,166.9247 Q19.4014,165.2728 21.9082,165.2728 Q22.6138,165.2728 23.2612,165.4222 Q23.9087,165.5716 24.4731,165.8705 L24.4731,168.5931 Q23.8423,168.0121 23.2488,167.7423 Q22.6553,167.4725 22.0244,167.4725 Q20.6797,167.4725 19.9949,168.5392 Q19.3101,169.6058 19.3101,171.7059 Q19.3101,173.7977 19.9949,174.8644 Q20.6797,175.931 22.0244,175.931 Q22.6553,175.931 23.2488,175.6612 Q23.8423,175.3915 24.4731,174.8104 Z " fill="#000000"/><text fill="#000000" font-family="sans-serif" font-size="14" lengthAdjust="spacing" textLength="134" x="36" y="176.681">LifecycleEventTypes</text><line style="stroke:#181818;stroke-width:0.5;" x1="8" x2="172" y1="187.39" y2="187.39"/><text fill="#000000" font-family="sans-serif" font-size="14" lengthAdjust="spacing" textLength="126" x="13" y="204.9252">ACCESS_ALLOWED</text><text fill="#000000" font-family="sans-serif" font-size="14" lengthAdjust="spacing" textLength="111" x="13" y="221.4134">ACCESS_DENIED</text><text fill="#000000" font-family="sans-serif" font-size="14" lengthAdjust="spacing" textLength="80" x="13" y="237.9017">CANCELLED</text><text fill="#000000" font-family="sans-serif" font-size="14" lengthAdjust="spacing" textLength="54" x="13" y="254.39">CLOSED</text><text fill="#000000" font-family="sans-serif" font-size="14" lengthAdjust="spacing" textLength="64" x="13" y="270.8783">CREATED</text><text fill="#000000" font-family="sans-serif" font-size="14" lengthAdjust="spacing" textLength="38" x="13" y="287.3666">DEAD</text><text fill="#000000" font-family="sans-serif" font-size="14" lengthAdjust="spacing" textLength="96" x="13" y="303.8548">DELETE_HARD</text><text fill="#000000" font-family="sans-serif" font-size="14" lengthAdjust="spacing" textLength="93" x="13" y="320.3431">DELETE_SOFT</text><text fill="#000000" font-family="sans-serif" font-size="14" lengthAdjust="spacing" textLength="47" x="13" y="336.8314">FAILED</text><text fill="#000000" font-family="sans-serif" font-size="14" lengthAdjust="spacing" textLength="78" x="13" y="353.3197">INITIALIZED</text><text fill="#000000" font-family="sans-serif" font-size="14" lengthAdjust="spacing" textLength="84" x="13" y="369.808">INITIALIZING</text><text fill="#000000" font-family="sans-serif" font-size="14" lengthAdjust="spacing" textLength="80" x="13" y="386.2963">PROCESSED</text><text fill="#000000" font-family="sans-serif" font-size="14" lengthAdjust="spacing" textLength="86" x="13" y="402.7845">PROCESSING</text><text fill="#000000" font-family="sans-serif" font-size="14" lengthAdjust="spacing" textLength="72" x="13" y="419.2728">QUALIFIED</text><text fill="#000000" font-family="sans-serif" font-size="14" lengthAdjust="spacing" textLength="78" x="13" y="435.7611">SUBMITTED</text><text fill="#000000" font-family="sans-serif" font-size="14" lengthAdjust="spacing" textLength="65" x="13" y="452.2494">UPDATED</text><text fill="#000000" font-family="sans-serif" font-size="14" lengthAdjust="spacing" textLength="77" x="13" y="468.7377">VALIDATED</text><line style="stroke:#181818;stroke-width:0.5;" x1="8" x2="172" y1="475.6908" y2="475.6908"/></g><g id="elem_ResourceTypes"><rect codeLine="37" fill="#FAFF91" height="625.0898" id="ResourceTypes" rx="2.5" ry="2.5" style="stroke:#181818;stroke-width:0.5;" width="135" x="208.5" y="7"/><ellipse cx="223.5" cy="23" fill="#ADD1B2" rx="11" ry="11" style="stroke:#181818;stroke-width:1.0;"/><path d="M225.9731,29.1431 Q225.3921,29.4419 224.7529,29.5913 Q224.1138,29.7407 223.4082,29.7407 Q220.9014,29.7407 219.5815,28.0889 Q218.2617,26.437 218.2617,23.3159 Q218.2617,20.1865 219.5815,18.5347 Q220.9014,16.8828 223.4082,16.8828 Q224.1138,16.8828 224.7612,17.0322 Q225.4087,17.1816 225.9731,17.4805 L225.9731,20.2031 Q225.3423,19.6221 224.7488,19.3523 Q224.1553,19.0825 223.5244,19.0825 Q222.1797,19.0825 221.4949,20.1492 Q220.8101,21.2158 220.8101,23.3159 Q220.8101,25.4077 221.4949,26.4744 Q222.1797,27.541 223.5244,27.541 Q224.1553,27.541 224.7488,27.2712 Q225.3423,27.0015 225.9731,26.4204 Z " fill="#000000"/><text fill="#000000" font-family="sans-serif" font-size="14" lengthAdjust="spacing" textLength="103" x="237.5" y="28.291">ResourceTypes</text><line style="stroke:#181818;stroke-width:0.5;" x1="209.5" x2="342.5" y1="39" y2="39"/><text fill="#000000" font-family="sans-serif" font-size="14" lengthAdjust="spacing" textLength="70" x="214.5" y="56.5352">ACCOUNT</text><text fill="#000000" font-family="sans-serif" font-size="14" lengthAdjust="spacing" textLength="64" x="214.5" y="73.0234">ACTIVITY</text><text fill="#000000" font-family="sans-serif" font-size="14" lengthAdjust="spacing" textLength="63" x="214.5" y="89.5117">ADDRESS</text><text fill="#000000" font-family="sans-serif" font-size="14" lengthAdjust="spacing" textLength="76" x="214.5" y="106">APPLICANT</text><text fill="#000000" font-family="sans-serif" font-size="14" lengthAdjust="spacing" textLength="99" x="214.5" y="122.4883">APPOINTMENT</text><text fill="#000000" font-family="sans-serif" font-size="14" lengthAdjust="spacing" textLength="96" x="214.5" y="138.9766">BILL_ADDRESS</text><text fill="#000000" font-family="sans-serif" font-size="14" lengthAdjust="spacing" textLength="102" x="214.5" y="155.4648">BILL_CONTACT</text><text fill="#000000" font-family="sans-serif" font-size="14" lengthAdjust="spacing" textLength="117" x="214.5" y="171.9531">COMM_CHANNEL</text><text fill="#000000" font-family="sans-serif" font-size="14" lengthAdjust="spacing" textLength="77" x="214.5" y="188.4414">CUSTOMER</text><text fill="#000000" font-family="sans-serif" font-size="14" lengthAdjust="spacing" textLength="35" x="214.5" y="204.9297">DEAL</text><text fill="#000000" font-family="sans-serif" font-size="14" lengthAdjust="spacing" textLength="82" x="214.5" y="221.418">DEALERSHIP</text><text fill="#000000" font-family="sans-serif" font-size="14" lengthAdjust="spacing" textLength="102" x="214.5" y="237.9063">DEALER_STAFF</text><text fill="#000000" font-family="sans-serif" font-size="14" lengthAdjust="spacing" textLength="72" x="214.5" y="254.3945">DISCOUNT</text><text fill="#000000" font-family="sans-serif" font-size="14" lengthAdjust="spacing" textLength="49" x="214.5" y="270.8828">DRIVER</text><text fill="#000000" font-family="sans-serif" font-size="14" lengthAdjust="spacing" textLength="59" x="214.5" y="287.3711">EXPENSE</text><text fill="#000000" font-family="sans-serif" font-size="14" lengthAdjust="spacing" textLength="24" x="214.5" y="303.8594">FEE</text><text fill="#000000" font-family="sans-serif" font-size="14" lengthAdjust="spacing" textLength="60" x="214.5" y="320.3477">FINANCE</text><text fill="#000000" font-family="sans-serif" font-size="14" lengthAdjust="spacing" textLength="72" x="214.5" y="336.8359">FUNCTION</text><text fill="#000000" font-family="sans-serif" font-size="14" lengthAdjust="spacing" textLength="72" x="214.5" y="353.3242">INCENTIVE</text><text fill="#000000" font-family="sans-serif" font-size="14" lengthAdjust="spacing" textLength="65" x="214.5" y="369.8125">INCIDENT</text><text fill="#000000" font-family="sans-serif" font-size="14" lengthAdjust="spacing" textLength="56" x="214.5" y="386.3008">INVOICE</text><text fill="#000000" font-family="sans-serif" font-size="14" lengthAdjust="spacing" textLength="35" x="214.5" y="402.7891">LEAD</text><text fill="#000000" font-family="sans-serif" font-size="14" lengthAdjust="spacing" textLength="62" x="214.5" y="419.2773">LINEITEM</text><text fill="#000000" font-family="sans-serif" font-size="14" lengthAdjust="spacing" textLength="115" x="214.5" y="435.7656">MANUFACTURER</text><text fill="#000000" font-family="sans-serif" font-size="14" lengthAdjust="spacing" textLength="98" x="214.5" y="452.2539">OPPORTUNITY</text><text fill="#000000" font-family="sans-serif" font-size="14" lengthAdjust="spacing" textLength="47" x="214.5" y="468.7422">OTHER</text><text fill="#000000" font-family="sans-serif" font-size="14" lengthAdjust="spacing" textLength="45" x="214.5" y="485.2305">PARTY</text><text fill="#000000" font-family="sans-serif" font-size="14" lengthAdjust="spacing" textLength="62" x="214.5" y="501.7188">PROCESS</text><text fill="#000000" font-family="sans-serif" font-size="14" lengthAdjust="spacing" textLength="67" x="214.5" y="518.207">PRODUCT</text><text fill="#000000" font-family="sans-serif" font-size="14" lengthAdjust="spacing" textLength="54" x="214.5" y="534.6953">SYSTEM</text><text fill="#000000" font-family="sans-serif" font-size="14" lengthAdjust="spacing" textLength="28" x="214.5" y="551.1836">TAX</text><text fill="#000000" font-family="sans-serif" font-size="14" lengthAdjust="spacing" textLength="67" x="214.5" y="567.6719">TRADE_IN</text><text fill="#000000" font-family="sans-serif" font-size="14" lengthAdjust="spacing" textLength="56" x="214.5" y="584.1602">VEHICLE</text><text fill="#000000" font-family="sans-serif" font-size="14" lengthAdjust="spacing" textLength="57" x="214.5" y="600.6484">VENDOR</text><text fill="#000000" font-family="sans-serif" font-size="14" lengthAdjust="spacing" textLength="79" x="214.5" y="617.1367">WORKFLOW</text><line style="stroke:#181818;stroke-width:0.5;" x1="209.5" x2="342.5" y1="624.0898" y2="624.0898"/></g><g id="link_LifecycleEventTypes_LifecycleEvent"><path codeLine="74" d="M119.36,484.15 C131.31,550.74 145.02,627.1 156.64,691.87 " fill="none" id="LifecycleEventTypes-LifecycleEvent" style="stroke:#181818;stroke-width:1.0;"/></g><g id="link_ResourceTypes_LifecycleEvent"><path codeLine="75" d="M220.02,632.45 C216.37,652.81 212.8,672.72 209.4,691.64 " fill="none" id="ResourceTypes-LifecycleEvent" style="stroke:#181818;stroke-width:1.0;"/></g></g></svg>