<?xml version="1.0" encoding="us-ascii" standalone="no"?><svg xmlns="http://www.w3.org/2000/svg" xmlns:xlink="http://www.w3.org/1999/xlink" contentStyleType="text/css" height="1357px" preserveAspectRatio="none" style="width:358px;height:1357px;background:#FFFFFF;" version="1.1" viewBox="0 0 358 1357" width="358px" zoomAndPan="magnify"><defs/><g><g id="elem_GeographicBoundary"><rect codeLine="1" fill="#F1F1F1" height="229.3711" id="GeographicBoundary" rx="2.5" ry="2.5" style="stroke:#181818;stroke-width:0.5;" width="248" x="45.5" y="1120.79"/><ellipse cx="93.25" cy="1136.79" fill="#ADD1B2" rx="11" ry="11" style="stroke:#181818;stroke-width:1.0;"/><path d="M95.7231,1142.9331 Q95.1421,1143.2319 94.5029,1143.3813 Q93.8638,1143.5307 93.1582,1143.5307 Q90.6514,1143.5307 89.3315,1141.8789 Q88.0117,1140.227 88.0117,1137.1059 Q88.0117,1133.9765 89.3315,1132.3247 Q90.6514,1130.6728 93.1582,1130.6728 Q93.8638,1130.6728 94.5112,1130.8222 Q95.1587,1130.9716 95.7231,1131.2705 L95.7231,1133.9931 Q95.0923,1133.4121 94.4988,1133.1423 Q93.9053,1132.8725 93.2744,1132.8725 Q91.9297,1132.8725 91.2449,1133.9392 Q90.5601,1135.0058 90.5601,1137.1059 Q90.5601,1139.1977 91.2449,1140.2644 Q91.9297,1141.331 93.2744,1141.331 Q93.9053,1141.331 94.4988,1141.0612 Q95.0923,1140.7915 95.7231,1140.2104 Z " fill="#000000"/><text fill="#000000" font-family="sans-serif" font-size="14" lengthAdjust="spacing" textLength="144" x="113.75" y="1142.081">GeographicBoundary</text><line style="stroke:#181818;stroke-width:0.5;" x1="46.5" x2="292.5" y1="1152.79" y2="1152.79"/><text fill="#000000" font-family="sans-serif" font-size="14" lengthAdjust="spacing" textLength="201" x="51.5" y="1170.3252">geographicBoundaryId:String</text><text fill="#000000" font-family="sans-serif" font-size="14" lengthAdjust="spacing" textLength="212" x="51.5" y="1186.8134">geographicBoundaryKey:String</text><text fill="#000000" font-family="sans-serif" font-size="14" lengthAdjust="spacing" textLength="213" x="51.5" y="1203.3017">geographicType:LocationTypes</text><text fill="#000000" font-family="sans-serif" font-size="14" lengthAdjust="spacing" textLength="131" x="51.5" y="1219.79">distanceMax:String</text><text fill="#000000" font-family="sans-serif" font-size="14" lengthAdjust="spacing" textLength="127" x="51.5" y="1236.2783">distanceMin:String</text><text fill="#000000" font-family="sans-serif" font-size="14" lengthAdjust="spacing" textLength="236" x="51.5" y="1252.7666">distanceType:UnitOfMeasureTypes</text><text fill="#000000" font-family="sans-serif" font-size="14" lengthAdjust="spacing" textLength="83" x="51.5" y="1269.2548">name:String</text><text fill="#000000" font-family="sans-serif" font-size="14" lengthAdjust="spacing" textLength="97" x="51.5" y="1285.7431">vertices:String</text><text fill="#000000" font-family="sans-serif" font-size="14" lengthAdjust="spacing" textLength="122" x="51.5" y="1302.2314">description:String</text><text fill="#000000" font-family="sans-serif" font-size="14" lengthAdjust="spacing" textLength="143" x="51.5" y="1318.7197">centerLatitude:String</text><text fill="#000000" font-family="sans-serif" font-size="14" lengthAdjust="spacing" textLength="157" x="51.5" y="1335.208">centerLongitude:String</text><line style="stroke:#181818;stroke-width:0.5;" x1="46.5" x2="292.5" y1="1342.1611" y2="1342.1611"/></g><g id="elem_LocationTypes"><rect codeLine="14" fill="#FAFF91" height="410.7422" id="LocationTypes" rx="2.5" ry="2.5" style="stroke:#181818;stroke-width:0.5;" width="135" x="7" y="328.53"/><ellipse cx="24.25" cy="344.53" fill="#ADD1B2" rx="11" ry="11" style="stroke:#181818;stroke-width:1.0;"/><path d="M26.7231,350.6731 Q26.1421,350.9719 25.5029,351.1213 Q24.8638,351.2707 24.1582,351.2707 Q21.6514,351.2707 20.3315,349.6189 Q19.0117,347.967 19.0117,344.8459 Q19.0117,341.7165 20.3315,340.0647 Q21.6514,338.4128 24.1582,338.4128 Q24.8638,338.4128 25.5112,338.5622 Q26.1587,338.7116 26.7231,339.0105 L26.7231,341.7331 Q26.0923,341.1521 25.4988,340.8823 Q24.9053,340.6125 24.2744,340.6125 Q22.9297,340.6125 22.2449,341.6792 Q21.5601,342.7458 21.5601,344.8459 Q21.5601,346.9377 22.2449,348.0044 Q22.9297,349.071 24.2744,349.071 Q24.9053,349.071 25.4988,348.8012 Q26.0923,348.5315 26.7231,347.9504 Z " fill="#000000"/><text fill="#000000" font-family="sans-serif" font-size="14" lengthAdjust="spacing" textLength="98" x="38.75" y="349.821">LocationTypes</text><line style="stroke:#181818;stroke-width:0.5;" x1="8" x2="141" y1="360.53" y2="360.53"/><text fill="#000000" font-family="sans-serif" font-size="14" lengthAdjust="spacing" textLength="63" x="13" y="378.0652">ADDRESS</text><text fill="#000000" font-family="sans-serif" font-size="14" lengthAdjust="spacing" textLength="69" x="13" y="394.5534">BOROUGH</text><text fill="#000000" font-family="sans-serif" font-size="14" lengthAdjust="spacing" textLength="77" x="13" y="411.0417">BOUNDARY</text><text fill="#000000" font-family="sans-serif" font-size="14" lengthAdjust="spacing" textLength="32" x="13" y="427.53">CITY</text><text fill="#000000" font-family="sans-serif" font-size="14" lengthAdjust="spacing" textLength="68" x="13" y="444.0183">COUNTRY</text><text fill="#000000" font-family="sans-serif" font-size="14" lengthAdjust="spacing" textLength="59" x="13" y="460.5066">COUNTY</text><text fill="#000000" font-family="sans-serif" font-size="14" lengthAdjust="spacing" textLength="63" x="13" y="476.9948">DISTRICT</text><text fill="#000000" font-family="sans-serif" font-size="14" lengthAdjust="spacing" textLength="60" x="13" y="493.4831">FEDERAL</text><text fill="#000000" font-family="sans-serif" font-size="14" lengthAdjust="spacing" textLength="26" x="13" y="509.9714">GPS</text><text fill="#000000" font-family="sans-serif" font-size="14" lengthAdjust="spacing" textLength="67" x="13" y="526.4597">LOCALITY</text><text fill="#000000" font-family="sans-serif" font-size="14" lengthAdjust="spacing" textLength="114" x="13" y="542.948">NO_PREFERENCE</text><text fill="#000000" font-family="sans-serif" font-size="14" lengthAdjust="spacing" textLength="49" x="13" y="559.4363">PARISH</text><text fill="#000000" font-family="sans-serif" font-size="14" lengthAdjust="spacing" textLength="53" x="13" y="575.9245">POSTAL</text><text fill="#000000" font-family="sans-serif" font-size="14" lengthAdjust="spacing" textLength="69" x="13" y="592.4128">PROVINCE</text><text fill="#000000" font-family="sans-serif" font-size="14" lengthAdjust="spacing" textLength="52" x="13" y="608.9011">REGION</text><text fill="#000000" font-family="sans-serif" font-size="14" lengthAdjust="spacing" textLength="44" x="13" y="625.3894">STATE</text><text fill="#000000" font-family="sans-serif" font-size="14" lengthAdjust="spacing" textLength="51" x="13" y="641.8777">STREET</text><text fill="#000000" font-family="sans-serif" font-size="14" lengthAdjust="spacing" textLength="123" x="13" y="658.3659">SUB_ADMIN_AREA</text><text fill="#000000" font-family="sans-serif" font-size="14" lengthAdjust="spacing" textLength="100" x="13" y="674.8542">SUB_LOCALITY</text><text fill="#000000" font-family="sans-serif" font-size="14" lengthAdjust="spacing" textLength="85" x="13" y="691.3425">TELEMATICS</text><text fill="#000000" font-family="sans-serif" font-size="14" lengthAdjust="spacing" textLength="55" x="13" y="707.8308">VILLAGE</text><text fill="#000000" font-family="sans-serif" font-size="14" lengthAdjust="spacing" textLength="86" x="13" y="724.3191">WAREHOUSE</text><line style="stroke:#181818;stroke-width:0.5;" x1="8" x2="141" y1="731.2722" y2="731.2722"/></g><g id="elem_UnitOfMeasureTypes"><rect codeLine="38" fill="#FAFF91" height="1053.7852" id="UnitOfMeasureTypes" rx="2.5" ry="2.5" style="stroke:#181818;stroke-width:0.5;" width="174" x="177.5" y="7"/><ellipse cx="192.5" cy="23" fill="#ADD1B2" rx="11" ry="11" style="stroke:#181818;stroke-width:1.0;"/><path d="M194.9731,29.1431 Q194.3921,29.4419 193.7529,29.5913 Q193.1138,29.7407 192.4082,29.7407 Q189.9014,29.7407 188.5815,28.0889 Q187.2617,26.437 187.2617,23.3159 Q187.2617,20.1865 188.5815,18.5347 Q189.9014,16.8828 192.4082,16.8828 Q193.1138,16.8828 193.7612,17.0322 Q194.4087,17.1816 194.9731,17.4805 L194.9731,20.2031 Q194.3423,19.6221 193.7488,19.3523 Q193.1553,19.0825 192.5244,19.0825 Q191.1797,19.0825 190.4949,20.1492 Q189.8101,21.2158 189.8101,23.3159 Q189.8101,25.4077 190.4949,26.4744 Q191.1797,27.541 192.5244,27.541 Q193.1553,27.541 193.7488,27.2712 Q194.3423,27.0015 194.9731,26.4204 Z " fill="#000000"/><text fill="#000000" font-family="sans-serif" font-size="14" lengthAdjust="spacing" textLength="142" x="206.5" y="28.291">UnitOfMeasureTypes</text><line style="stroke:#181818;stroke-width:0.5;" x1="178.5" x2="350.5" y1="39" y2="39"/><text fill="#000000" font-family="sans-serif" font-size="14" lengthAdjust="spacing" textLength="64" x="183.5" y="56.5352">BI_WEEKS</text><text fill="#000000" font-family="sans-serif" font-size="14" lengthAdjust="spacing" textLength="42" x="183.5" y="73.0234">BYTES</text><text fill="#000000" font-family="sans-serif" font-size="14" lengthAdjust="spacing" textLength="55" x="183.5" y="89.5117">CELSIUS</text><text fill="#000000" font-family="sans-serif" font-size="14" lengthAdjust="spacing" textLength="32" x="183.5" y="106">CITY</text><text fill="#000000" font-family="sans-serif" font-size="14" lengthAdjust="spacing" textLength="68" x="183.5" y="122.4883">COUNTRY</text><text fill="#000000" font-family="sans-serif" font-size="14" lengthAdjust="spacing" textLength="59" x="183.5" y="138.9766">COUNTY</text><text fill="#000000" font-family="sans-serif" font-size="14" lengthAdjust="spacing" textLength="75" x="183.5" y="155.4648">CURRENCY</text><text fill="#000000" font-family="sans-serif" font-size="14" lengthAdjust="spacing" textLength="60" x="183.5" y="171.9531">CUSTOM</text><text fill="#000000" font-family="sans-serif" font-size="14" lengthAdjust="spacing" textLength="37" x="183.5" y="188.4414">DATE</text><text fill="#000000" font-family="sans-serif" font-size="14" lengthAdjust="spacing" textLength="77" x="183.5" y="204.9297">DATE_TIME</text><text fill="#000000" font-family="sans-serif" font-size="14" lengthAdjust="spacing" textLength="37" x="183.5" y="221.418">DAYS</text><text fill="#000000" font-family="sans-serif" font-size="14" lengthAdjust="spacing" textLength="114" x="183.5" y="237.9063">DAY_OF_MONTH</text><text fill="#000000" font-family="sans-serif" font-size="14" lengthAdjust="spacing" textLength="63" x="183.5" y="254.3945">DISTRICT</text><text fill="#000000" font-family="sans-serif" font-size="14" lengthAdjust="spacing" textLength="73" x="183.5" y="270.8828">DURATION</text><text fill="#000000" font-family="sans-serif" font-size="14" lengthAdjust="spacing" textLength="86" x="183.5" y="287.3711">FAHRENHEIT</text><text fill="#000000" font-family="sans-serif" font-size="14" lengthAdjust="spacing" textLength="60" x="183.5" y="303.8594">FATHOM</text><text fill="#000000" font-family="sans-serif" font-size="14" lengthAdjust="spacing" textLength="60" x="183.5" y="320.3477">FEDERAL</text><text fill="#000000" font-family="sans-serif" font-size="14" lengthAdjust="spacing" textLength="33" x="183.5" y="336.8359">FEET</text><text fill="#000000" font-family="sans-serif" font-size="14" lengthAdjust="spacing" textLength="55" x="183.5" y="353.3242">GALLON</text><text fill="#000000" font-family="sans-serif" font-size="14" lengthAdjust="spacing" textLength="46" x="183.5" y="369.8125">GROSS</text><text fill="#000000" font-family="sans-serif" font-size="14" lengthAdjust="spacing" textLength="48" x="183.5" y="386.3008">HOURS</text><text fill="#000000" font-family="sans-serif" font-size="14" lengthAdjust="spacing" textLength="34" x="183.5" y="402.7891">INCH</text><text fill="#000000" font-family="sans-serif" font-size="14" lengthAdjust="spacing" textLength="33" x="183.5" y="419.2773">ITEM</text><text fill="#000000" font-family="sans-serif" font-size="14" lengthAdjust="spacing" textLength="47" x="183.5" y="435.7656">KELVIN</text><text fill="#000000" font-family="sans-serif" font-size="14" lengthAdjust="spacing" textLength="19" x="183.5" y="452.2539">KG</text><text fill="#000000" font-family="sans-serif" font-size="14" lengthAdjust="spacing" textLength="21" x="183.5" y="468.7422">KM</text><text fill="#000000" font-family="sans-serif" font-size="14" lengthAdjust="spacing" textLength="15" x="183.5" y="485.2305">LB</text><text fill="#000000" font-family="sans-serif" font-size="14" lengthAdjust="spacing" textLength="37" x="183.5" y="501.7188">LITER</text><text fill="#000000" font-family="sans-serif" font-size="14" lengthAdjust="spacing" textLength="67" x="183.5" y="518.207">LOCALITY</text><text fill="#000000" font-family="sans-serif" font-size="14" lengthAdjust="spacing" textLength="69" x="183.5" y="534.6953">MAXIMUM</text><text fill="#000000" font-family="sans-serif" font-size="14" lengthAdjust="spacing" textLength="46" x="183.5" y="551.1836">METER</text><text fill="#000000" font-family="sans-serif" font-size="14" lengthAdjust="spacing" textLength="39" x="183.5" y="567.6719">MILES</text><text fill="#000000" font-family="sans-serif" font-size="14" lengthAdjust="spacing" textLength="64" x="183.5" y="584.1602">MINIMUM</text><text fill="#000000" font-family="sans-serif" font-size="14" lengthAdjust="spacing" textLength="61" x="183.5" y="600.6484">MINUTES</text><text fill="#000000" font-family="sans-serif" font-size="14" lengthAdjust="spacing" textLength="60" x="183.5" y="617.1367">MONTHS</text><text fill="#000000" font-family="sans-serif" font-size="14" lengthAdjust="spacing" textLength="93" x="183.5" y="633.625">MULTI_YEARS</text><text fill="#000000" font-family="sans-serif" font-size="14" lengthAdjust="spacing" textLength="20" x="183.5" y="650.1133">NA</text><text fill="#000000" font-family="sans-serif" font-size="14" lengthAdjust="spacing" textLength="70" x="183.5" y="666.6016">NAUTICAL</text><text fill="#000000" font-family="sans-serif" font-size="14" lengthAdjust="spacing" textLength="27" x="183.5" y="683.0898">NET</text><text fill="#000000" font-family="sans-serif" font-size="14" lengthAdjust="spacing" textLength="39" x="183.5" y="699.5781">NONE</text><text fill="#000000" font-family="sans-serif" font-size="14" lengthAdjust="spacing" textLength="95" x="183.5" y="716.0664">OCCURRENCE</text><text fill="#000000" font-family="sans-serif" font-size="14" lengthAdjust="spacing" textLength="47" x="183.5" y="732.5547">OTHER</text><text fill="#000000" font-family="sans-serif" font-size="14" lengthAdjust="spacing" textLength="19" x="183.5" y="749.043">OZ</text><text fill="#000000" font-family="sans-serif" font-size="14" lengthAdjust="spacing" textLength="62" x="183.5" y="765.5313">PERCENT</text><text fill="#000000" font-family="sans-serif" font-size="14" lengthAdjust="spacing" textLength="50" x="183.5" y="782.0195">POINTS</text><text fill="#000000" font-family="sans-serif" font-size="14" lengthAdjust="spacing" textLength="53" x="183.5" y="798.5078">POSTAL</text><text fill="#000000" font-family="sans-serif" font-size="14" lengthAdjust="spacing" textLength="66" x="183.5" y="814.9961">QUARTER</text><text fill="#000000" font-family="sans-serif" font-size="14" lengthAdjust="spacing" textLength="74" x="183.5" y="831.4844">QUARTERS</text><text fill="#000000" font-family="sans-serif" font-size="14" lengthAdjust="spacing" textLength="60" x="183.5" y="847.9727">RANKINE</text><text fill="#000000" font-family="sans-serif" font-size="14" lengthAdjust="spacing" textLength="99" x="183.5" y="864.4609">SEMI_MONTHS</text><text fill="#000000" font-family="sans-serif" font-size="14" lengthAdjust="spacing" textLength="83" x="183.5" y="880.9492">SEMI_YEARS</text><text fill="#000000" font-family="sans-serif" font-size="14" lengthAdjust="spacing" textLength="44" x="183.5" y="897.4375">STATE</text><text fill="#000000" font-family="sans-serif" font-size="14" lengthAdjust="spacing" textLength="51" x="183.5" y="913.9258">STREET</text><text fill="#000000" font-family="sans-serif" font-size="14" lengthAdjust="spacing" textLength="123" x="183.5" y="930.4141">SUB_ADMIN_AREA</text><text fill="#000000" font-family="sans-serif" font-size="14" lengthAdjust="spacing" textLength="100" x="183.5" y="946.9023">SUB_LOCALITY</text><text fill="#000000" font-family="sans-serif" font-size="14" lengthAdjust="spacing" textLength="33" x="183.5" y="963.3906">UNIT</text><text fill="#000000" font-family="sans-serif" font-size="14" lengthAdjust="spacing" textLength="74" x="183.5" y="979.8789">UNLIMITED</text><text fill="#000000" font-family="sans-serif" font-size="14" lengthAdjust="spacing" textLength="40" x="183.5" y="996.3672">WATT</text><text fill="#000000" font-family="sans-serif" font-size="14" lengthAdjust="spacing" textLength="45" x="183.5" y="1012.8555">WEEKS</text><text fill="#000000" font-family="sans-serif" font-size="14" lengthAdjust="spacing" textLength="38" x="183.5" y="1029.3438">YARD</text><text fill="#000000" font-family="sans-serif" font-size="14" lengthAdjust="spacing" textLength="44" x="183.5" y="1045.832">YEARS</text><line style="stroke:#181818;stroke-width:0.5;" x1="178.5" x2="350.5" y1="1052.7852" y2="1052.7852"/></g><g id="link_LocationTypes_GeographicBoundary"><path codeLine="101" d="M102.3,739.59 C119.16,863.79 140.06,1017.65 154.03,1120.54 " fill="none" id="LocationTypes-GeographicBoundary" style="stroke:#181818;stroke-width:1.0;"/></g><g id="link_UnitOfMeasureTypes_GeographicBoundary"><path codeLine="102" d="M193.04,1061.1 C190.18,1082.21 187.47,1102.16 184.98,1120.49 " fill="none" id="UnitOfMeasureTypes-GeographicBoundary" style="stroke:#181818;stroke-width:1.0;"/></g></g></svg>