<?xml version="1.0" encoding="us-ascii" standalone="no"?><svg xmlns="http://www.w3.org/2000/svg" xmlns:xlink="http://www.w3.org/1999/xlink" contentStyleType="text/css" height="338px" preserveAspectRatio="none" style="width:1136px;height:338px;background:#FFFFFF;" version="1.1" viewBox="0 0 1136 338" width="1136px" zoomAndPan="magnify"><defs/><g><g id="elem_EffectivePeriod"><rect fill="#F1F1F1" height="36.4883" rx="2.5" ry="2.5" style="stroke:#181818;stroke-width:0.5;" width="121" x="829.5" y="199.97"/><text fill="#000000" font-family="sans-serif" font-size="14" lengthAdjust="spacing" textLength="101" x="839.5" y="223.5052">EffectivePeriod</text></g><g id="elem_Identifier"><rect fill="#F1F1F1" height="36.4883" rx="2.5" ry="2.5" style="stroke:#181818;stroke-width:0.5;" width="82" x="80" y="7"/><text fill="#000000" font-family="sans-serif" font-size="14" lengthAdjust="spacing" textLength="62" x="90" y="30.5352">Identifier</text></g><g id="elem_Money"><rect fill="#F1F1F1" height="36.4883" rx="2.5" ry="2.5" style="stroke:#181818;stroke-width:0.5;" width="65" x="229.5" y="103.49"/><text fill="#000000" font-family="sans-serif" font-size="14" lengthAdjust="spacing" textLength="45" x="239.5" y="127.0252">Money</text></g><g id="elem_Party"><rect fill="#F1F1F1" height="36.4883" rx="2.5" ry="2.5" style="stroke:#181818;stroke-width:0.5;" width="54" x="54" y="103.49"/><text fill="#000000" font-family="sans-serif" font-size="14" lengthAdjust="spacing" textLength="34" x="64" y="127.0252">Party</text></g><g id="elem_PartyIdentifier"><rect fill="#F1F1F1" height="36.4883" rx="2.5" ry="2.5" style="stroke:#181818;stroke-width:0.5;" width="116" x="7" y="199.97"/><text fill="#000000" font-family="sans-serif" font-size="14" lengthAdjust="spacing" textLength="96" x="17" y="223.5052">PartyIdentifier</text></g><g id="elem_PaymentAmount"><rect fill="#F1F1F1" height="36.4883" rx="2.5" ry="2.5" style="stroke:#181818;stroke-width:0.5;" width="133" x="328.5" y="199.97"/><text fill="#000000" font-family="sans-serif" font-size="14" lengthAdjust="spacing" textLength="113" x="338.5" y="223.5052">PaymentAmount</text></g><g id="elem_PaymentMethod"><rect fill="#F1F1F1" height="36.4883" rx="2.5" ry="2.5" style="stroke:#181818;stroke-width:0.5;" width="130" x="330" y="103.49"/><text fill="#000000" font-family="sans-serif" font-size="14" lengthAdjust="spacing" textLength="110" x="340" y="127.0252">PaymentMethod</text></g><g id="elem_PayrollCycle"><rect fill="#F1F1F1" height="36.4883" rx="2.5" ry="2.5" style="stroke:#181818;stroke-width:0.5;" width="102" x="344" y="296.46"/><text fill="#000000" font-family="sans-serif" font-size="14" lengthAdjust="spacing" textLength="82" x="354" y="319.9952">PayrollCycle</text></g><g id="elem_TimeSlot"><rect fill="#F1F1F1" height="36.4883" rx="2.5" ry="2.5" style="stroke:#181818;stroke-width:0.5;" width="80" x="850" y="296.46"/><text fill="#000000" font-family="sans-serif" font-size="14" lengthAdjust="spacing" textLength="60" x="860" y="319.9952">TimeSlot</text></g><g id="elem_DaysOfWeekTypes"><rect fill="#FAFF91" height="36.4883" rx="2.5" ry="2.5" style="stroke:#181818;stroke-width:0.5;" width="144" x="986" y="199.97"/><text fill="#000000" font-family="sans-serif" font-size="14" lengthAdjust="spacing" textLength="124" x="996" y="223.5052">DaysOfWeekTypes</text></g><g id="elem_DurationUOMTypes"><rect fill="#FAFF91" height="36.4883" rx="2.5" ry="2.5" style="stroke:#181818;stroke-width:0.5;" width="153" x="898.5" y="103.49"/><text fill="#000000" font-family="sans-serif" font-size="14" lengthAdjust="spacing" textLength="133" x="908.5" y="127.0252">DurationUOMTypes</text></g><g id="elem_PaymentAmountTypes"><rect fill="#FAFF91" height="36.4883" rx="2.5" ry="2.5" style="stroke:#181818;stroke-width:0.5;" width="173" x="495.5" y="103.49"/><text fill="#000000" font-family="sans-serif" font-size="14" lengthAdjust="spacing" textLength="153" x="505.5" y="127.0252">PaymentAmountTypes</text></g><g id="elem_PaymentStatusTypes"><rect fill="#FAFF91" height="36.4883" rx="2.5" ry="2.5" style="stroke:#181818;stroke-width:0.5;" width="160" x="704" y="103.49"/><text fill="#000000" font-family="sans-serif" font-size="14" lengthAdjust="spacing" textLength="140" x="714" y="127.0252">PaymentStatusTypes</text></g><g id="elem_PayrollCycleFrequencyTypes"><rect fill="#FAFF91" height="36.4883" rx="2.5" ry="2.5" style="stroke:#181818;stroke-width:0.5;" width="213" x="496.5" y="199.97"/><text fill="#000000" font-family="sans-serif" font-size="14" lengthAdjust="spacing" textLength="193" x="506.5" y="223.5052">PayrollCycleFrequencyTypes</text></g><g id="link_DaysOfWeekTypes_TimeSlot"><path d="M1026.79,236.77 C996.71,253.69 951.44,279.15 921.32,296.09 " fill="none" id="DaysOfWeekTypes-TimeSlot" style="stroke:#181818;stroke-width:1.0;"/></g><g id="link_DurationUOMTypes_EffectivePeriod"><path d="M959.41,140.06 C944.17,157 921.08,182.66 905.78,199.68 " fill="none" id="DurationUOMTypes-EffectivePeriod" style="stroke:#181818;stroke-width:1.0;"/></g><g id="link_EffectivePeriod_PayrollCycle"><path d="M829.3,230.8 C730.94,249.58 538.48,286.32 446.43,303.89 " fill="none" id="EffectivePeriod-PayrollCycle" style="stroke:#181818;stroke-width:1.0;"/></g><g id="link_EffectivePeriod_TimeSlot"><path d="M879.57,236.55 C875.99,253.49 875.98,279.15 879.53,296.17 " fill="none" id="EffectivePeriod-TimeSlot" style="stroke:#181818;stroke-width:1.0;"/></g><g id="link_TimeSlot_EffectivePeriod"><path d="M900.47,296.17 C904.02,279.15 904.01,253.49 900.43,236.55 " fill="none" id="TimeSlot-EffectivePeriod" style="stroke:#181818;stroke-width:1.0;"/></g><g id="link_Identifier_Party"><path d="M108.9826,54.6209 C101.8126,71.5609 95.63,86.17 88.43,103.19 " fill="none" id="Identifier-backto-Party" style="stroke:#181818;stroke-width:1.0;"/><polygon fill="#181818" points="113.66,43.57,107.6377,47.5363,108.9826,54.6209,115.0049,50.6546,113.66,43.57" style="stroke:#181818;stroke-width:1.0;"/></g><g id="link_Identifier_PayrollCycle"><path d="M141.128,53.3415 C158.228,76.1515 182.44,107.38 212,139.97 C253.27,185.49 266.38,194.22 311,236.46 C332.87,257.17 358.38,280.51 375.5,296.07 " fill="none" id="Identifier-backto-PayrollCycle" style="stroke:#181818;stroke-width:1.0;"/><polygon fill="#181818" points="133.93,43.74,134.3285,50.9401,141.128,53.3415,140.7295,46.1414,133.93,43.74" style="stroke:#181818;stroke-width:1.0;"/></g><g id="link_Money_PaymentAmount"><path d="M286.7,140.28 C310.59,157.25 346.58,182.82 370.43,199.76 " fill="none" id="Money-PaymentAmount" style="stroke:#181818;stroke-width:1.0;"/></g><g id="link_Party_PartyIdentifier"><path d="M78.07,140.06 C75.2,157 70.85,182.66 67.97,199.68 " fill="none" id="Party-PartyIdentifier" style="stroke:#181818;stroke-width:1.0;"/></g><g id="link_PartyIdentifier_PayrollCycle"><path d="M123.24,235.89 C185.69,253.77 283.89,281.89 343.58,298.98 " fill="none" id="PartyIdentifier-PayrollCycle" style="stroke:#181818;stroke-width:1.0;"/></g><g id="link_PaymentAmountTypes_PaymentAmount"><path d="M547.26,140.28 C513.78,157.2 463.39,182.66 429.87,199.6 " fill="none" id="PaymentAmountTypes-PaymentAmount" style="stroke:#181818;stroke-width:1.0;"/></g><g id="link_PaymentAmount_PayrollCycle"><path d="M395,248.55 C395,265.49 395,279.15 395,296.17 " fill="none" id="PaymentAmount-backto-PayrollCycle" style="stroke:#181818;stroke-width:1.0;"/><polygon fill="#181818" points="395,236.55,391,242.55,395,248.55,399,242.55,395,236.55" style="stroke:#181818;stroke-width:1.0;"/></g><g id="link_PaymentMethod_PaymentAmount"><path d="M395,140.06 C395,157 395,182.66 395,199.68 " fill="none" id="PaymentMethod-PaymentAmount" style="stroke:#181818;stroke-width:1.0;"/></g><g id="link_PaymentStatusTypes_PaymentAmount"><path d="M711.29,140.39 C639.71,157.78 531.31,184.11 461.83,200.98 " fill="none" id="PaymentStatusTypes-PaymentAmount" style="stroke:#181818;stroke-width:1.0;"/></g><g id="link_PayrollCycleFrequencyTypes_PayrollCycle"><path d="M564.36,236.77 C527.12,253.69 471.07,279.15 433.78,296.09 " fill="none" id="PayrollCycleFrequencyTypes-PayrollCycle" style="stroke:#181818;stroke-width:1.0;"/></g></g></svg>