<?xml version="1.0" encoding="us-ascii" standalone="no"?><svg xmlns="http://www.w3.org/2000/svg" xmlns:xlink="http://www.w3.org/1999/xlink" contentStyleType="text/css" height="1144px" preserveAspectRatio="none" style="width:1659px;height:1144px;background:#FFFFFF;" version="1.1" viewBox="0 0 1659 1144" width="1659px" zoomAndPan="magnify"><defs/><g><g id="elem_EffectivePeriod"><rect codeLine="1" fill="#F1F1F1" height="245.8594" id="EffectivePeriod" rx="2.5" ry="2.5" style="stroke:#181818;stroke-width:0.5;" width="273" x="1188" y="618.72"/><ellipse cx="1269.75" cy="634.72" fill="#ADD1B2" rx="11" ry="11" style="stroke:#181818;stroke-width:1.0;"/><path d="M1272.2231,640.8631 Q1271.6421,641.1619 1271.0029,641.3113 Q1270.3638,641.4607 1269.6582,641.4607 Q1267.1514,641.4607 1265.8315,639.8089 Q1264.5117,638.157 1264.5117,635.0359 Q1264.5117,631.9065 1265.8315,630.2547 Q1267.1514,628.6028 1269.6582,628.6028 Q1270.3638,628.6028 1271.0112,628.7522 Q1271.6587,628.9016 1272.2231,629.2005 L1272.2231,631.9231 Q1271.5923,631.3421 1270.9988,631.0723 Q1270.4053,630.8025 1269.7744,630.8025 Q1268.4297,630.8025 1267.7449,631.8692 Q1267.0601,632.9358 1267.0601,635.0359 Q1267.0601,637.1277 1267.7449,638.1944 Q1268.4297,639.261 1269.7744,639.261 Q1270.4053,639.261 1270.9988,638.9912 Q1271.5923,638.7215 1272.2231,638.1404 Z " fill="#000000"/><text fill="#000000" font-family="sans-serif" font-size="14" lengthAdjust="spacing" textLength="101" x="1290.25" y="640.011">EffectivePeriod</text><line style="stroke:#181818;stroke-width:0.5;" x1="1189" x2="1460" y1="650.72" y2="650.72"/><text fill="#000000" font-family="sans-serif" font-size="14" lengthAdjust="spacing" textLength="170" x="1194" y="668.2552">effectivePeriodKey:String</text><text fill="#000000" font-family="sans-serif" font-size="14" lengthAdjust="spacing" textLength="159" x="1194" y="684.7434">activeIndicator:Boolean</text><text fill="#000000" font-family="sans-serif" font-size="14" lengthAdjust="spacing" textLength="183" x="1194" y="701.2317">exclusiveIndicator:Boolean</text><text fill="#000000" font-family="sans-serif" font-size="14" lengthAdjust="spacing" textLength="131" x="1194" y="717.72">startDateTime:Date</text><text fill="#000000" font-family="sans-serif" font-size="14" lengthAdjust="spacing" textLength="163" x="1194" y="734.2083">completeDateTime:Date</text><text fill="#000000" font-family="sans-serif" font-size="14" lengthAdjust="spacing" textLength="261" x="1194" y="750.6966">durationUomType:DurationUOMTypes</text><text fill="#000000" font-family="sans-serif" font-size="14" lengthAdjust="spacing" textLength="142" x="1194" y="767.1848">durationValue:String</text><text fill="#000000" font-family="sans-serif" font-size="14" lengthAdjust="spacing" textLength="238" x="1194" y="783.6731">recurUomType:DurationUOMTypes</text><text fill="#000000" font-family="sans-serif" font-size="14" lengthAdjust="spacing" textLength="123" x="1194" y="800.1614">recurCount:String</text><text fill="#000000" font-family="sans-serif" font-size="14" lengthAdjust="spacing" textLength="132" x="1194" y="816.6497">recurCriteria:String</text><text fill="#000000" font-family="sans-serif" font-size="14" lengthAdjust="spacing" textLength="156" x="1194" y="833.138">recurIndicator:Boolean</text><text fill="#000000" font-family="sans-serif" font-size="14" lengthAdjust="spacing" textLength="119" x="1194" y="849.6263">timeslot:TimeSlot</text><line style="stroke:#181818;stroke-width:0.5;" x1="1189" x2="1460" y1="856.5794" y2="856.5794"/></g><g id="elem_Identifier"><rect codeLine="15" fill="#F1F1F1" height="97.4648" id="Identifier" rx="2.5" ry="2.5" style="stroke:#181818;stroke-width:0.5;" width="143" x="494" y="7"/><ellipse cx="531.05" cy="23" fill="#ADD1B2" rx="11" ry="11" style="stroke:#181818;stroke-width:1.0;"/><path d="M533.5231,29.1431 Q532.9421,29.4419 532.3029,29.5913 Q531.6638,29.7407 530.9582,29.7407 Q528.4514,29.7407 527.1315,28.0889 Q525.8117,26.437 525.8117,23.3159 Q525.8117,20.1865 527.1315,18.5347 Q528.4514,16.8828 530.9582,16.8828 Q531.6638,16.8828 532.3112,17.0322 Q532.9587,17.1816 533.5231,17.4805 L533.5231,20.2031 Q532.8923,19.6221 532.2988,19.3523 Q531.7053,19.0825 531.0744,19.0825 Q529.7297,19.0825 529.0449,20.1492 Q528.3601,21.2158 528.3601,23.3159 Q528.3601,25.4077 529.0449,26.4744 Q529.7297,27.541 531.0744,27.541 Q531.7053,27.541 532.2988,27.2712 Q532.8923,27.0015 533.5231,26.4204 Z " fill="#000000"/><text fill="#000000" font-family="sans-serif" font-size="14" lengthAdjust="spacing" textLength="62" x="549.95" y="28.291">Identifier</text><line style="stroke:#181818;stroke-width:0.5;" x1="495" x2="636" y1="39" y2="39"/><text fill="#000000" font-family="sans-serif" font-size="14" lengthAdjust="spacing" textLength="131" x="500" y="56.5352">identifierKey:String</text><text fill="#000000" font-family="sans-serif" font-size="14" lengthAdjust="spacing" textLength="97" x="500" y="73.0234">context:String</text><text fill="#000000" font-family="sans-serif" font-size="14" lengthAdjust="spacing" textLength="120" x="500" y="89.5117">identifierId:String</text><line style="stroke:#181818;stroke-width:0.5;" x1="495" x2="636" y1="96.4648" y2="96.4648"/></g><g id="elem_Money"><rect codeLine="20" fill="#F1F1F1" height="163.418" id="Money" rx="2.5" ry="2.5" style="stroke:#181818;stroke-width:0.5;" width="213" x="7" y="659.94"/><ellipse cx="86.75" cy="675.94" fill="#ADD1B2" rx="11" ry="11" style="stroke:#181818;stroke-width:1.0;"/><path d="M89.2231,682.0831 Q88.6421,682.3819 88.0029,682.5313 Q87.3638,682.6807 86.6582,682.6807 Q84.1514,682.6807 82.8315,681.0289 Q81.5117,679.377 81.5117,676.2559 Q81.5117,673.1265 82.8315,671.4747 Q84.1514,669.8228 86.6582,669.8228 Q87.3638,669.8228 88.0112,669.9722 Q88.6587,670.1216 89.2231,670.4205 L89.2231,673.1431 Q88.5923,672.5621 87.9988,672.2923 Q87.4053,672.0225 86.7744,672.0225 Q85.4297,672.0225 84.7449,673.0892 Q84.0601,674.1558 84.0601,676.2559 Q84.0601,678.3477 84.7449,679.4144 Q85.4297,680.481 86.7744,680.481 Q87.4053,680.481 87.9988,680.2112 Q88.5923,679.9415 89.2231,679.3604 Z " fill="#000000"/><text fill="#000000" font-family="sans-serif" font-size="14" lengthAdjust="spacing" textLength="45" x="107.25" y="681.231">Money</text><line style="stroke:#181818;stroke-width:0.5;" x1="8" x2="219" y1="691.94" y2="691.94"/><text fill="#000000" font-family="sans-serif" font-size="14" lengthAdjust="spacing" textLength="115" x="13" y="709.4752">moneyKey:String</text><text fill="#000000" font-family="sans-serif" font-size="14" lengthAdjust="spacing" textLength="104" x="13" y="725.9634">moneyId:String</text><text fill="#000000" font-family="sans-serif" font-size="14" lengthAdjust="spacing" textLength="140" x="13" y="742.4517">currencyCode:String</text><text fill="#000000" font-family="sans-serif" font-size="14" lengthAdjust="spacing" textLength="131" x="13" y="758.94">displayValue:String</text><text fill="#000000" font-family="sans-serif" font-size="14" lengthAdjust="spacing" textLength="85" x="13" y="775.4283">locale:String</text><text fill="#000000" font-family="sans-serif" font-size="14" lengthAdjust="spacing" textLength="81" x="13" y="791.9166">value:String</text><text fill="#000000" font-family="sans-serif" font-size="14" lengthAdjust="spacing" textLength="201" x="13" y="808.4048">taxIncludedIndicator:Boolean</text><line style="stroke:#181818;stroke-width:0.5;" x1="8" x2="219" y1="815.358" y2="815.358"/></g><g id="elem_Party"><rect codeLine="29" fill="#F1F1F1" height="394.2539" id="Party" rx="2.5" ry="2.5" style="stroke:#181818;stroke-width:0.5;" width="306" x="270.5" y="164.46"/><ellipse cx="402.25" cy="180.46" fill="#ADD1B2" rx="11" ry="11" style="stroke:#181818;stroke-width:1.0;"/><path d="M404.7231,186.6031 Q404.1421,186.9019 403.5029,187.0513 Q402.8638,187.2007 402.1582,187.2007 Q399.6514,187.2007 398.3315,185.5489 Q397.0117,183.897 397.0117,180.7759 Q397.0117,177.6465 398.3315,175.9947 Q399.6514,174.3428 402.1582,174.3428 Q402.8638,174.3428 403.5112,174.4922 Q404.1587,174.6416 404.7231,174.9405 L404.7231,177.6631 Q404.0923,177.0821 403.4988,176.8123 Q402.9053,176.5425 402.2744,176.5425 Q400.9297,176.5425 400.2449,177.6092 Q399.5601,178.6758 399.5601,180.7759 Q399.5601,182.8677 400.2449,183.9344 Q400.9297,185.001 402.2744,185.001 Q402.9053,185.001 403.4988,184.7312 Q404.0923,184.4615 404.7231,183.8804 Z " fill="#000000"/><text fill="#000000" font-family="sans-serif" font-size="14" lengthAdjust="spacing" textLength="34" x="422.75" y="185.751">Party</text><line style="stroke:#181818;stroke-width:0.5;" x1="271.5" x2="575.5" y1="196.46" y2="196.46"/><text fill="#000000" font-family="sans-serif" font-size="14" lengthAdjust="spacing" textLength="76" x="276.5" y="213.9952">alias:String</text><text fill="#000000" font-family="sans-serif" font-size="14" lengthAdjust="spacing" textLength="116" x="276.5" y="230.4834">comments:String</text><text fill="#000000" font-family="sans-serif" font-size="14" lengthAdjust="spacing" textLength="263" x="276.5" y="246.9717">contactMethods:List&lt;ContactMethod&gt;</text><text fill="#000000" font-family="sans-serif" font-size="14" lengthAdjust="spacing" textLength="183" x="276.5" y="263.46">contactMethodsHref:String</text><text fill="#000000" font-family="sans-serif" font-size="14" lengthAdjust="spacing" textLength="133" x="276.5" y="279.9483">countryCode:String</text><text fill="#000000" font-family="sans-serif" font-size="14" lengthAdjust="spacing" textLength="106" x="276.5" y="296.4366">fullName:String</text><text fill="#000000" font-family="sans-serif" font-size="14" lengthAdjust="spacing" textLength="180" x="276.5" y="312.9248">identifiers:List&lt;Identifier&gt;</text><text fill="#000000" font-family="sans-serif" font-size="14" lengthAdjust="spacing" textLength="143" x="276.5" y="329.4131">identifiersHref:String</text><text fill="#000000" font-family="sans-serif" font-size="14" lengthAdjust="spacing" textLength="144" x="276.5" y="345.9014">orgIndicator:Boolean</text><text fill="#000000" font-family="sans-serif" font-size="14" lengthAdjust="spacing" textLength="149" x="276.5" y="362.3897">orgProfilesHref:String</text><text fill="#000000" font-family="sans-serif" font-size="14" lengthAdjust="spacing" textLength="104" x="276.5" y="378.878">partyKey:String</text><text fill="#000000" font-family="sans-serif" font-size="14" lengthAdjust="spacing" textLength="198" x="276.5" y="395.3663">partyTypes:List&lt;PartyTypes&gt;</text><text fill="#000000" font-family="sans-serif" font-size="14" lengthAdjust="spacing" textLength="213" x="276.5" y="411.8545">preferredLanguageCode:String</text><text fill="#000000" font-family="sans-serif" font-size="14" lengthAdjust="spacing" textLength="149" x="276.5" y="428.3428">preferredName:String</text><text fill="#000000" font-family="sans-serif" font-size="14" lengthAdjust="spacing" textLength="134" x="276.5" y="444.8311">privaciesHref:String</text><text fill="#000000" font-family="sans-serif" font-size="14" lengthAdjust="spacing" textLength="229" x="276.5" y="461.3194">specialRemarksDescription:String</text><text fill="#000000" font-family="sans-serif" font-size="14" lengthAdjust="spacing" textLength="93" x="276.5" y="477.8077">partyId:String</text><text fill="#000000" font-family="sans-serif" font-size="14" lengthAdjust="spacing" textLength="151" x="276.5" y="494.2959">persons:List&lt;Person&gt;</text><text fill="#000000" font-family="sans-serif" font-size="14" lengthAdjust="spacing" textLength="194" x="276.5" y="510.7842">orgProfiles:List&lt;OrgProfile&gt;</text><text fill="#000000" font-family="sans-serif" font-size="14" lengthAdjust="spacing" textLength="294" x="276.5" y="527.2725">partyServiceTypes:List&lt;PartyServiceTypes&gt;</text><text fill="#000000" font-family="sans-serif" font-size="14" lengthAdjust="spacing" textLength="101" x="276.5" y="543.7608">garage:Garage</text><line style="stroke:#181818;stroke-width:0.5;" x1="271.5" x2="575.5" y1="550.7139" y2="550.7139"/></g><g id="elem_PartyIdentifier"><rect codeLine="52" fill="#F1F1F1" height="163.418" id="PartyIdentifier" rx="2.5" ry="2.5" style="stroke:#181818;stroke-width:0.5;" width="380" x="254.5" y="659.94"/><ellipse cx="392.25" cy="675.94" fill="#ADD1B2" rx="11" ry="11" style="stroke:#181818;stroke-width:1.0;"/><path d="M394.7231,682.0831 Q394.1421,682.3819 393.5029,682.5313 Q392.8638,682.6807 392.1582,682.6807 Q389.6514,682.6807 388.3315,681.0289 Q387.0117,679.377 387.0117,676.2559 Q387.0117,673.1265 388.3315,671.4747 Q389.6514,669.8228 392.1582,669.8228 Q392.8638,669.8228 393.5112,669.9722 Q394.1587,670.1216 394.7231,670.4205 L394.7231,673.1431 Q394.0923,672.5621 393.4988,672.2923 Q392.9053,672.0225 392.2744,672.0225 Q390.9297,672.0225 390.2449,673.0892 Q389.5601,674.1558 389.5601,676.2559 Q389.5601,678.3477 390.2449,679.4144 Q390.9297,680.481 392.2744,680.481 Q392.9053,680.481 393.4988,680.2112 Q394.0923,679.9415 394.7231,679.3604 Z " fill="#000000"/><text fill="#000000" font-family="sans-serif" font-size="14" lengthAdjust="spacing" textLength="96" x="412.75" y="681.231">PartyIdentifier</text><line style="stroke:#181818;stroke-width:0.5;" x1="255.5" x2="633.5" y1="691.94" y2="691.94"/><text fill="#000000" font-family="sans-serif" font-size="14" lengthAdjust="spacing" textLength="155" x="260.5" y="709.4752">partyIdentifierId:String</text><text fill="#000000" font-family="sans-serif" font-size="14" lengthAdjust="spacing" textLength="166" x="260.5" y="725.9634">partyIdentifierKey:String</text><text fill="#000000" font-family="sans-serif" font-size="14" lengthAdjust="spacing" textLength="175" x="260.5" y="742.4517">partyIdentifierType:String</text><text fill="#000000" font-family="sans-serif" font-size="14" lengthAdjust="spacing" textLength="97" x="260.5" y="758.94">context:String</text><text fill="#000000" font-family="sans-serif" font-size="14" lengthAdjust="spacing" textLength="368" x="260.5" y="775.4283">partyRelationshipTypes:List&lt;PartyRelationshipTypes&gt;</text><text fill="#000000" font-family="sans-serif" font-size="14" lengthAdjust="spacing" textLength="73" x="260.5" y="791.9166">party:Party</text><text fill="#000000" font-family="sans-serif" font-size="14" lengthAdjust="spacing" textLength="176" x="260.5" y="808.4048">occurrenceDateTime:Date</text><line style="stroke:#181818;stroke-width:0.5;" x1="255.5" x2="633.5" y1="815.358" y2="815.358"/></g><g id="elem_PayRate"><rect codeLine="61" fill="#F1F1F1" height="212.8828" id="PayRate" rx="2.5" ry="2.5" style="stroke:#181818;stroke-width:0.5;" width="325" x="608" y="924.58"/><ellipse cx="739.75" cy="940.58" fill="#ADD1B2" rx="11" ry="11" style="stroke:#181818;stroke-width:1.0;"/><path d="M742.2231,946.7231 Q741.6421,947.0219 741.0029,947.1713 Q740.3638,947.3207 739.6582,947.3207 Q737.1514,947.3207 735.8315,945.6689 Q734.5117,944.017 734.5117,940.8959 Q734.5117,937.7665 735.8315,936.1147 Q737.1514,934.4628 739.6582,934.4628 Q740.3638,934.4628 741.0112,934.6122 Q741.6587,934.7616 742.2231,935.0605 L742.2231,937.7831 Q741.5923,937.2021 740.9988,936.9323 Q740.4053,936.6625 739.7744,936.6625 Q738.4297,936.6625 737.7449,937.7292 Q737.0601,938.7958 737.0601,940.8959 Q737.0601,942.9877 737.7449,944.0544 Q738.4297,945.121 739.7744,945.121 Q740.4053,945.121 740.9988,944.8512 Q741.5923,944.5815 742.2231,944.0004 Z " fill="#000000"/><text fill="#000000" font-family="sans-serif" font-size="14" lengthAdjust="spacing" textLength="53" x="760.25" y="945.871">PayRate</text><line style="stroke:#181818;stroke-width:0.5;" x1="609" x2="932" y1="956.58" y2="956.58"/><text fill="#000000" font-family="sans-serif" font-size="14" lengthAdjust="spacing" textLength="135" x="614" y="974.1152">payrollRateId:String</text><text fill="#000000" font-family="sans-serif" font-size="14" lengthAdjust="spacing" textLength="146" x="614" y="990.6034">payrollRateKey:String</text><text fill="#000000" font-family="sans-serif" font-size="14" lengthAdjust="spacing" textLength="155" x="614" y="1007.0917">staffMemberKey:String</text><text fill="#000000" font-family="sans-serif" font-size="14" lengthAdjust="spacing" textLength="249" x="614" y="1023.58">partyIdentifiers:List&lt;PartyIdentifier&gt;</text><text fill="#000000" font-family="sans-serif" font-size="14" lengthAdjust="spacing" textLength="313" x="614" y="1040.0683">payrollCycleType:PayrollCycleFrequencyTypes</text><text fill="#000000" font-family="sans-serif" font-size="14" lengthAdjust="spacing" textLength="102" x="614" y="1056.5566">amount:Money</text><text fill="#000000" font-family="sans-serif" font-size="14" lengthAdjust="spacing" textLength="206" x="614" y="1073.0448">effectivePeriod:EffectivePeriod</text><text fill="#000000" font-family="sans-serif" font-size="14" lengthAdjust="spacing" textLength="176" x="614" y="1089.5331">occurrenceDateTime:Date</text><text fill="#000000" font-family="sans-serif" font-size="14" lengthAdjust="spacing" textLength="234" x="614" y="1106.0214">textualDetails:List&lt;TextualDetail&gt;</text><text fill="#000000" font-family="sans-serif" font-size="14" lengthAdjust="spacing" textLength="184" x="614" y="1122.5097">staffPayType:StaffPayTypes</text><line style="stroke:#181818;stroke-width:0.5;" x1="609" x2="932" y1="1129.4628" y2="1129.4628"/></g><g id="elem_TextualDetail"><rect codeLine="73" fill="#F1F1F1" height="245.8594" id="TextualDetail" rx="2.5" ry="2.5" style="stroke:#181818;stroke-width:0.5;" width="192" x="611.5" y="238.66"/><ellipse cx="657.75" cy="254.66" fill="#ADD1B2" rx="11" ry="11" style="stroke:#181818;stroke-width:1.0;"/><path d="M660.2231,260.8031 Q659.6421,261.1019 659.0029,261.2513 Q658.3638,261.4007 657.6582,261.4007 Q655.1514,261.4007 653.8315,259.7489 Q652.5117,258.097 652.5117,254.9759 Q652.5117,251.8465 653.8315,250.1947 Q655.1514,248.5428 657.6582,248.5428 Q658.3638,248.5428 659.0112,248.6922 Q659.6587,248.8416 660.2231,249.1405 L660.2231,251.8631 Q659.5923,251.2821 658.9988,251.0123 Q658.4053,250.7425 657.7744,250.7425 Q656.4297,250.7425 655.7449,251.8092 Q655.0601,252.8758 655.0601,254.9759 Q655.0601,257.0677 655.7449,258.1344 Q656.4297,259.201 657.7744,259.201 Q658.4053,259.201 658.9988,258.9312 Q659.5923,258.6615 660.2231,258.0804 Z " fill="#000000"/><text fill="#000000" font-family="sans-serif" font-size="14" lengthAdjust="spacing" textLength="91" x="678.25" y="259.951">TextualDetail</text><line style="stroke:#181818;stroke-width:0.5;" x1="612.5" x2="802.5" y1="270.66" y2="270.66"/><text fill="#000000" font-family="sans-serif" font-size="14" lengthAdjust="spacing" textLength="156" x="617.5" y="288.1952">textualDetailKey:String</text><text fill="#000000" font-family="sans-serif" font-size="14" lengthAdjust="spacing" textLength="145" x="617.5" y="304.6834">textualDetailId:String</text><text fill="#000000" font-family="sans-serif" font-size="14" lengthAdjust="spacing" textLength="159" x="617.5" y="321.1717">shortDescription:String</text><text fill="#000000" font-family="sans-serif" font-size="14" lengthAdjust="spacing" textLength="96" x="617.5" y="337.66">textKey:String</text><text fill="#000000" font-family="sans-serif" font-size="14" lengthAdjust="spacing" textLength="83" x="617.5" y="354.1483">name:String</text><text fill="#000000" font-family="sans-serif" font-size="14" lengthAdjust="spacing" textLength="81" x="617.5" y="370.6366">value:String</text><text fill="#000000" font-family="sans-serif" font-size="14" lengthAdjust="spacing" textLength="180" x="617.5" y="387.1248">identifiers:List&lt;Identifier&gt;</text><text fill="#000000" font-family="sans-serif" font-size="14" lengthAdjust="spacing" textLength="78" x="617.5" y="403.6131">label:String</text><text fill="#000000" font-family="sans-serif" font-size="14" lengthAdjust="spacing" textLength="93" x="617.5" y="420.1014">altText:String</text><text fill="#000000" font-family="sans-serif" font-size="14" lengthAdjust="spacing" textLength="168" x="617.5" y="436.5897">textualDetailCode:String</text><text fill="#000000" font-family="sans-serif" font-size="14" lengthAdjust="spacing" textLength="125" x="617.5" y="453.078">uomDisplay:String</text><text fill="#000000" font-family="sans-serif" font-size="14" lengthAdjust="spacing" textLength="112" x="617.5" y="469.5663">uomCode:String</text><line style="stroke:#181818;stroke-width:0.5;" x1="612.5" x2="802.5" y1="476.5194" y2="476.5194"/></g><g id="elem_TimeSlot"><rect codeLine="87" fill="#F1F1F1" height="163.418" id="TimeSlot" rx="2.5" ry="2.5" style="stroke:#181818;stroke-width:0.5;" width="373" x="1138" y="949.31"/><ellipse cx="1290.25" cy="965.31" fill="#ADD1B2" rx="11" ry="11" style="stroke:#181818;stroke-width:1.0;"/><path d="M1292.7231,971.4531 Q1292.1421,971.7519 1291.5029,971.9013 Q1290.8638,972.0507 1290.1582,972.0507 Q1287.6514,972.0507 1286.3315,970.3989 Q1285.0117,968.747 1285.0117,965.6259 Q1285.0117,962.4965 1286.3315,960.8447 Q1287.6514,959.1928 1290.1582,959.1928 Q1290.8638,959.1928 1291.5112,959.3422 Q1292.1587,959.4916 1292.7231,959.7905 L1292.7231,962.5131 Q1292.0923,961.9321 1291.4988,961.6623 Q1290.9053,961.3925 1290.2744,961.3925 Q1288.9297,961.3925 1288.2449,962.4592 Q1287.5601,963.5258 1287.5601,965.6259 Q1287.5601,967.7177 1288.2449,968.7844 Q1288.9297,969.851 1290.2744,969.851 Q1290.9053,969.851 1291.4988,969.5812 Q1292.0923,969.3115 1292.7231,968.7304 Z " fill="#000000"/><text fill="#000000" font-family="sans-serif" font-size="14" lengthAdjust="spacing" textLength="60" x="1310.75" y="970.601">TimeSlot</text><line style="stroke:#181818;stroke-width:0.5;" x1="1139" x2="1510" y1="981.31" y2="981.31"/><text fill="#000000" font-family="sans-serif" font-size="14" lengthAdjust="spacing" textLength="125" x="1144" y="998.8452">timeSlotKey:String</text><text fill="#000000" font-family="sans-serif" font-size="14" lengthAdjust="spacing" textLength="105" x="1144" y="1015.3334">endTime:String</text><text fill="#000000" font-family="sans-serif" font-size="14" lengthAdjust="spacing" textLength="184" x="1144" y="1031.8217">recurringIndicator:Boolean</text><text fill="#000000" font-family="sans-serif" font-size="14" lengthAdjust="spacing" textLength="213" x="1144" y="1048.31">recurringPeriod:EffectivePeriod</text><text fill="#000000" font-family="sans-serif" font-size="14" lengthAdjust="spacing" textLength="110" x="1144" y="1064.7983">startTime:String</text><text fill="#000000" font-family="sans-serif" font-size="14" lengthAdjust="spacing" textLength="361" x="1144" y="1081.2866">timeslotDirectiveTypes:List&lt;TimeslotDirectiveTypes&gt;</text><text fill="#000000" font-family="sans-serif" font-size="14" lengthAdjust="spacing" textLength="114" x="1144" y="1097.7748">timeSlotId:String</text><line style="stroke:#181818;stroke-width:0.5;" x1="1139" x2="1510" y1="1104.728" y2="1104.728"/></g><g id="elem_DaysOfWeekTypes"><rect codeLine="96" fill="#FAFF91" height="163.418" id="DaysOfWeekTypes" rx="2.5" ry="2.5" style="stroke:#181818;stroke-width:0.5;" width="156" x="1496.5" y="659.94"/><ellipse cx="1511.5" cy="675.94" fill="#ADD1B2" rx="11" ry="11" style="stroke:#181818;stroke-width:1.0;"/><path d="M1513.9731,682.0831 Q1513.3921,682.3819 1512.7529,682.5313 Q1512.1138,682.6807 1511.4082,682.6807 Q1508.9014,682.6807 1507.5815,681.0289 Q1506.2617,679.377 1506.2617,676.2559 Q1506.2617,673.1265 1507.5815,671.4747 Q1508.9014,669.8228 1511.4082,669.8228 Q1512.1138,669.8228 1512.7612,669.9722 Q1513.4087,670.1216 1513.9731,670.4205 L1513.9731,673.1431 Q1513.3423,672.5621 1512.7488,672.2923 Q1512.1553,672.0225 1511.5244,672.0225 Q1510.1797,672.0225 1509.4949,673.0892 Q1508.8101,674.1558 1508.8101,676.2559 Q1508.8101,678.3477 1509.4949,679.4144 Q1510.1797,680.481 1511.5244,680.481 Q1512.1553,680.481 1512.7488,680.2112 Q1513.3423,679.9415 1513.9731,679.3604 Z " fill="#000000"/><text fill="#000000" font-family="sans-serif" font-size="14" lengthAdjust="spacing" textLength="124" x="1525.5" y="681.231">DaysOfWeekTypes</text><line style="stroke:#181818;stroke-width:0.5;" x1="1497.5" x2="1651.5" y1="691.94" y2="691.94"/><text fill="#000000" font-family="sans-serif" font-size="14" lengthAdjust="spacing" textLength="21" x="1502.5" y="709.4752">FRI</text><text fill="#000000" font-family="sans-serif" font-size="14" lengthAdjust="spacing" textLength="33" x="1502.5" y="725.9634">MON</text><text fill="#000000" font-family="sans-serif" font-size="14" lengthAdjust="spacing" textLength="27" x="1502.5" y="742.4517">SAT</text><text fill="#000000" font-family="sans-serif" font-size="14" lengthAdjust="spacing" textLength="28" x="1502.5" y="758.94">SUN</text><text fill="#000000" font-family="sans-serif" font-size="14" lengthAdjust="spacing" textLength="46" x="1502.5" y="775.4283">THURS</text><text fill="#000000" font-family="sans-serif" font-size="14" lengthAdjust="spacing" textLength="35" x="1502.5" y="791.9166">TUES</text><text fill="#000000" font-family="sans-serif" font-size="14" lengthAdjust="spacing" textLength="30" x="1502.5" y="808.4048">WED</text><line style="stroke:#181818;stroke-width:0.5;" x1="1497.5" x2="1651.5" y1="815.358" y2="815.358"/></g><g id="elem_DurationUOMTypes"><rect codeLine="105" fill="#FAFF91" height="328.3008" id="DurationUOMTypes" rx="2.5" ry="2.5" style="stroke:#181818;stroke-width:0.5;" width="165" x="1242" y="197.44"/><ellipse cx="1257" cy="213.44" fill="#ADD1B2" rx="11" ry="11" style="stroke:#181818;stroke-width:1.0;"/><path d="M1259.4731,219.5831 Q1258.8921,219.8819 1258.2529,220.0313 Q1257.6138,220.1807 1256.9082,220.1807 Q1254.4014,220.1807 1253.0815,218.5289 Q1251.7617,216.877 1251.7617,213.7559 Q1251.7617,210.6265 1253.0815,208.9747 Q1254.4014,207.3228 1256.9082,207.3228 Q1257.6138,207.3228 1258.2612,207.4722 Q1258.9087,207.6216 1259.4731,207.9205 L1259.4731,210.6431 Q1258.8423,210.0621 1258.2488,209.7923 Q1257.6553,209.5225 1257.0244,209.5225 Q1255.6797,209.5225 1254.9949,210.5892 Q1254.3101,211.6558 1254.3101,213.7559 Q1254.3101,215.8477 1254.9949,216.9144 Q1255.6797,217.981 1257.0244,217.981 Q1257.6553,217.981 1258.2488,217.7112 Q1258.8423,217.4415 1259.4731,216.8604 Z " fill="#000000"/><text fill="#000000" font-family="sans-serif" font-size="14" lengthAdjust="spacing" textLength="133" x="1271" y="218.731">DurationUOMTypes</text><line style="stroke:#181818;stroke-width:0.5;" x1="1243" x2="1406" y1="229.44" y2="229.44"/><text fill="#000000" font-family="sans-serif" font-size="14" lengthAdjust="spacing" textLength="64" x="1248" y="246.9752">BI_WEEKS</text><text fill="#000000" font-family="sans-serif" font-size="14" lengthAdjust="spacing" textLength="60" x="1248" y="263.4634">CUSTOM</text><text fill="#000000" font-family="sans-serif" font-size="14" lengthAdjust="spacing" textLength="37" x="1248" y="279.9517">DAYS</text><text fill="#000000" font-family="sans-serif" font-size="14" lengthAdjust="spacing" textLength="114" x="1248" y="296.44">DAY_OF_MONTH</text><text fill="#000000" font-family="sans-serif" font-size="14" lengthAdjust="spacing" textLength="48" x="1248" y="312.9283">HOURS</text><text fill="#000000" font-family="sans-serif" font-size="14" lengthAdjust="spacing" textLength="61" x="1248" y="329.4166">MINUTES</text><text fill="#000000" font-family="sans-serif" font-size="14" lengthAdjust="spacing" textLength="60" x="1248" y="345.9048">MONTHS</text><text fill="#000000" font-family="sans-serif" font-size="14" lengthAdjust="spacing" textLength="93" x="1248" y="362.3931">MULTI_YEARS</text><text fill="#000000" font-family="sans-serif" font-size="14" lengthAdjust="spacing" textLength="39" x="1248" y="378.8814">NONE</text><text fill="#000000" font-family="sans-serif" font-size="14" lengthAdjust="spacing" textLength="95" x="1248" y="395.3697">OCCURRENCE</text><text fill="#000000" font-family="sans-serif" font-size="14" lengthAdjust="spacing" textLength="47" x="1248" y="411.858">OTHER</text><text fill="#000000" font-family="sans-serif" font-size="14" lengthAdjust="spacing" textLength="74" x="1248" y="428.3463">QUARTERS</text><text fill="#000000" font-family="sans-serif" font-size="14" lengthAdjust="spacing" textLength="99" x="1248" y="444.8345">SEMI_MONTHS</text><text fill="#000000" font-family="sans-serif" font-size="14" lengthAdjust="spacing" textLength="83" x="1248" y="461.3228">SEMI_YEARS</text><text fill="#000000" font-family="sans-serif" font-size="14" lengthAdjust="spacing" textLength="74" x="1248" y="477.8111">UNLIMITED</text><text fill="#000000" font-family="sans-serif" font-size="14" lengthAdjust="spacing" textLength="45" x="1248" y="494.2994">WEEKS</text><text fill="#000000" font-family="sans-serif" font-size="14" lengthAdjust="spacing" textLength="44" x="1248" y="510.7877">YEARS</text><line style="stroke:#181818;stroke-width:0.5;" x1="1243" x2="1406" y1="517.7408" y2="517.7408"/></g><g id="elem_PayrollCycleFrequencyTypes"><rect codeLine="124" fill="#FAFF91" height="229.3711" id="PayrollCycleFrequencyTypes" rx="2.5" ry="2.5" style="stroke:#181818;stroke-width:0.5;" width="225" x="741" y="626.96"/><ellipse cx="756" cy="642.96" fill="#ADD1B2" rx="11" ry="11" style="stroke:#181818;stroke-width:1.0;"/><path d="M758.4731,649.1031 Q757.8921,649.4019 757.2529,649.5513 Q756.6138,649.7007 755.9082,649.7007 Q753.4014,649.7007 752.0815,648.0489 Q750.7617,646.397 750.7617,643.2759 Q750.7617,640.1465 752.0815,638.4947 Q753.4014,636.8428 755.9082,636.8428 Q756.6138,636.8428 757.2612,636.9922 Q757.9087,637.1416 758.4731,637.4405 L758.4731,640.1631 Q757.8423,639.5821 757.2488,639.3123 Q756.6553,639.0425 756.0244,639.0425 Q754.6797,639.0425 753.9949,640.1092 Q753.3101,641.1758 753.3101,643.2759 Q753.3101,645.3677 753.9949,646.4344 Q754.6797,647.501 756.0244,647.501 Q756.6553,647.501 757.2488,647.2312 Q757.8423,646.9615 758.4731,646.3804 Z " fill="#000000"/><text fill="#000000" font-family="sans-serif" font-size="14" lengthAdjust="spacing" textLength="193" x="770" y="648.251">PayrollCycleFrequencyTypes</text><line style="stroke:#181818;stroke-width:0.5;" x1="742" x2="965" y1="658.96" y2="658.96"/><text fill="#000000" font-family="sans-serif" font-size="14" lengthAdjust="spacing" textLength="57" x="747" y="676.4952">ANNUAL</text><text fill="#000000" font-family="sans-serif" font-size="14" lengthAdjust="spacing" textLength="87" x="747" y="692.9834">BI_MONTHLY</text><text fill="#000000" font-family="sans-serif" font-size="14" lengthAdjust="spacing" textLength="72" x="747" y="709.4717">BI_WEEKLY</text><text fill="#000000" font-family="sans-serif" font-size="14" lengthAdjust="spacing" textLength="40" x="747" y="725.96">DAILY</text><text fill="#000000" font-family="sans-serif" font-size="14" lengthAdjust="spacing" textLength="68" x="747" y="742.4483">MONTHLY</text><text fill="#000000" font-family="sans-serif" font-size="14" lengthAdjust="spacing" textLength="78" x="747" y="758.9366">OFF_CYCLE</text><text fill="#000000" font-family="sans-serif" font-size="14" lengthAdjust="spacing" textLength="88" x="747" y="775.4248">ON_DEMAND</text><text fill="#000000" font-family="sans-serif" font-size="14" lengthAdjust="spacing" textLength="82" x="747" y="791.9131">QUARTERLY</text><text fill="#000000" font-family="sans-serif" font-size="14" lengthAdjust="spacing" textLength="96" x="747" y="808.4014">SEMI_ANNUAL</text><text fill="#000000" font-family="sans-serif" font-size="14" lengthAdjust="spacing" textLength="107" x="747" y="824.8897">SEMI_MONTHLY</text><text fill="#000000" font-family="sans-serif" font-size="14" lengthAdjust="spacing" textLength="53" x="747" y="841.378">WEEKLY</text><line style="stroke:#181818;stroke-width:0.5;" x1="742" x2="965" y1="848.3311" y2="848.3311"/></g><g id="elem_StaffPayTypes"><rect codeLine="137" fill="#FAFF91" height="245.8594" id="StaffPayTypes" rx="2.5" ry="2.5" style="stroke:#181818;stroke-width:0.5;" width="152" x="1000.5" y="618.72"/><ellipse cx="1027.2" cy="634.72" fill="#ADD1B2" rx="11" ry="11" style="stroke:#181818;stroke-width:1.0;"/><path d="M1029.6731,640.8631 Q1029.0921,641.1619 1028.4529,641.3113 Q1027.8138,641.4607 1027.1082,641.4607 Q1024.6014,641.4607 1023.2815,639.8089 Q1021.9617,638.157 1021.9617,635.0359 Q1021.9617,631.9065 1023.2815,630.2547 Q1024.6014,628.6028 1027.1082,628.6028 Q1027.8138,628.6028 1028.4612,628.7522 Q1029.1087,628.9016 1029.6731,629.2005 L1029.6731,631.9231 Q1029.0423,631.3421 1028.4488,631.0723 Q1027.8553,630.8025 1027.2244,630.8025 Q1025.8797,630.8025 1025.1949,631.8692 Q1024.5101,632.9358 1024.5101,635.0359 Q1024.5101,637.1277 1025.1949,638.1944 Q1025.8797,639.261 1027.2244,639.261 Q1027.8553,639.261 1028.4488,638.9912 Q1029.0423,638.7215 1029.6731,638.1404 Z " fill="#000000"/><text fill="#000000" font-family="sans-serif" font-size="14" lengthAdjust="spacing" textLength="94" x="1043.8" y="640.011">StaffPayTypes</text><line style="stroke:#181818;stroke-width:0.5;" x1="1001.5" x2="1151.5" y1="650.72" y2="650.72"/><text fill="#000000" font-family="sans-serif" font-size="14" lengthAdjust="spacing" textLength="90" x="1006.5" y="668.2552">ADJUSTMENT</text><text fill="#000000" font-family="sans-serif" font-size="14" lengthAdjust="spacing" textLength="47" x="1006.5" y="684.7434">BONUS</text><text fill="#000000" font-family="sans-serif" font-size="14" lengthAdjust="spacing" textLength="90" x="1006.5" y="701.2317">COMMISSION</text><text fill="#000000" font-family="sans-serif" font-size="14" lengthAdjust="spacing" textLength="98" x="1006.5" y="717.72">CONTRACTOR</text><text fill="#000000" font-family="sans-serif" font-size="14" lengthAdjust="spacing" textLength="56" x="1006.5" y="734.2083">HOURLY</text><text fill="#000000" font-family="sans-serif" font-size="14" lengthAdjust="spacing" textLength="47" x="1006.5" y="750.6966">OTHER</text><text fill="#000000" font-family="sans-serif" font-size="14" lengthAdjust="spacing" textLength="70" x="1006.5" y="767.1848">OVERTIME</text><text fill="#000000" font-family="sans-serif" font-size="14" lengthAdjust="spacing" textLength="63" x="1006.5" y="783.6731">REGULAR</text><text fill="#000000" font-family="sans-serif" font-size="14" lengthAdjust="spacing" textLength="66" x="1006.5" y="800.1614">SALARIED</text><text fill="#000000" font-family="sans-serif" font-size="14" lengthAdjust="spacing" textLength="31" x="1006.5" y="816.6497">SICK</text><text fill="#000000" font-family="sans-serif" font-size="14" lengthAdjust="spacing" textLength="140" x="1006.5" y="833.138">TECHNICIAN_HOURS</text><text fill="#000000" font-family="sans-serif" font-size="14" lengthAdjust="spacing" textLength="73" x="1006.5" y="849.6263">VACATION</text><line style="stroke:#181818;stroke-width:0.5;" x1="1001.5" x2="1151.5" y1="856.5794" y2="856.5794"/></g><g id="link_DaysOfWeekTypes_TimeSlot"><path codeLine="151" d="M1512.17,823.75 C1501.14,837.53 1489.63,851.58 1478.5,864.58 C1454.38,892.74 1427.08,922.65 1402.24,949.19 " fill="none" id="DaysOfWeekTypes-TimeSlot" style="stroke:#181818;stroke-width:1.0;"/></g><g id="link_DurationUOMTypes_EffectivePeriod"><path codeLine="152" d="M1324.5,526.21 C1324.5,557.14 1324.5,589 1324.5,618.39 " fill="none" id="DurationUOMTypes-EffectivePeriod" style="stroke:#181818;stroke-width:1.0;"/></g><g id="link_EffectivePeriod_PayRate"><path codeLine="153" d="M1187.7,853.35 C1181.64,857.27 1175.56,861.03 1169.5,864.58 C1095.25,908.06 1007.39,945.81 933.05,974.22 " fill="none" id="EffectivePeriod-PayRate" style="stroke:#181818;stroke-width:1.0;"/></g><g id="link_EffectivePeriod_TimeSlot"><path codeLine="154" d="M1311.51,864.94 C1311.16,893.35 1311.51,922.91 1312.56,949.02 " fill="none" id="EffectivePeriod-TimeSlot" style="stroke:#181818;stroke-width:1.0;"/></g><g id="link_TimeSlot_EffectivePeriod"><path codeLine="163" d="M1336.44,949.02 C1337.49,922.91 1337.84,893.35 1337.49,864.94 " fill="none" id="TimeSlot-EffectivePeriod" style="stroke:#181818;stroke-width:1.0;"/></g><g id="link_Identifier_Party"><path codeLine="155" d="M537.9181,115.7508 C529.9381,132.8208 525.48,142.36 515.32,164.12 " fill="none" id="Identifier-backto-Party" style="stroke:#181818;stroke-width:1.0;"/><polygon fill="#181818" points="543,104.88,536.8354,108.6214,537.9181,115.7508,544.0826,112.0094,543,104.88" style="stroke:#181818;stroke-width:1.0;"/></g><g id="link_Identifier_TextualDetail"><path codeLine="156" d="M593.0799,115.7517 C609.8499,151.6417 628.47,191.47 650.34,238.27 " fill="none" id="Identifier-backto-TextualDetail" style="stroke:#181818;stroke-width:1.0;"/><polygon fill="#181818" points="588,104.88,586.9161,112.0092,593.0799,115.7517,594.1639,108.6225,588,104.88" style="stroke:#181818;stroke-width:1.0;"/></g><g id="link_Money_PayRate"><path codeLine="157" d="M184.02,823.8 C200.09,838.91 217.94,853.43 236.5,864.58 C351.22,933.46 497.27,976.13 607.62,1000.85 " fill="none" id="Money-PayRate" style="stroke:#181818;stroke-width:1.0;"/></g><g id="link_Party_PartyIdentifier"><path codeLine="158" d="M434.42,559.09 C436.39,594.66 438.35,629.86 440,659.67 " fill="none" id="Party-PartyIdentifier" style="stroke:#181818;stroke-width:1.0;"/></g><g id="link_PartyIdentifier_PayRate"><path codeLine="159" d="M545.6112,831.7758 C581.0112,862.9858 612.95,891.13 650.58,924.31 " fill="none" id="PartyIdentifier-backto-PayRate" style="stroke:#181818;stroke-width:1.0;"/><polygon fill="#181818" points="536.61,823.84,538.4653,830.8083,545.6112,831.7758,543.7559,824.8075,536.61,823.84" style="stroke:#181818;stroke-width:1.0;"/></g><g id="link_PayrollCycleFrequencyTypes_PayRate"><path codeLine="160" d="M820.58,856.64 C814.15,878.89 807.44,902.13 801.09,924.11 " fill="none" id="PayrollCycleFrequencyTypes-PayRate" style="stroke:#181818;stroke-width:1.0;"/></g><g id="link_StaffPayTypes_PayRate"><path codeLine="161" d="M1000.18,846.68 C994.7,852.89 989.12,858.9 983.5,864.58 C963.15,885.11 940.22,905.37 917.14,924.28 " fill="none" id="StaffPayTypes-PayRate" style="stroke:#181818;stroke-width:1.0;"/></g><g id="link_TextualDetail_PayRate"><path codeLine="162" d="M702.8891,496.8283 C701.1791,598.9583 703.51,736.09 723.5,864.58 C726.55,884.2 731.19,904.79 736.38,924.52 " fill="none" id="TextualDetail-backto-PayRate" style="stroke:#181818;stroke-width:1.0;"/><polygon fill="#181818" points="703.09,484.83,698.9901,490.7622,702.8891,496.8283,706.989,490.8961,703.09,484.83" style="stroke:#181818;stroke-width:1.0;"/></g></g></svg>