<?xml version="1.0" encoding="us-ascii" standalone="no"?><svg xmlns="http://www.w3.org/2000/svg" xmlns:xlink="http://www.w3.org/1999/xlink" contentStyleType="text/css" height="338px" preserveAspectRatio="none" style="width:1623px;height:338px;background:#FFFFFF;" version="1.1" viewBox="0 0 1623 338" width="1623px" zoomAndPan="magnify"><defs/><g><g id="elem_Address"><rect fill="#F1F1F1" height="36.4883" rx="2.5" ry="2.5" style="stroke:#181818;stroke-width:0.5;" width="76" x="683" y="103.49"/><text fill="#000000" font-family="sans-serif" font-size="14" lengthAdjust="spacing" textLength="56" x="693" y="127.0252">Address</text></g><g id="elem_BankBeneficiary"><rect fill="#F1F1F1" height="36.4883" rx="2.5" ry="2.5" style="stroke:#181818;stroke-width:0.5;" width="127" x="520.5" y="103.49"/><text fill="#000000" font-family="sans-serif" font-size="14" lengthAdjust="spacing" textLength="107" x="530.5" y="127.0252">BankBeneficiary</text></g><g id="elem_BankIntermediary"><rect fill="#F1F1F1" height="36.4883" rx="2.5" ry="2.5" style="stroke:#181818;stroke-width:0.5;" width="140" x="346" y="103.49"/><text fill="#000000" font-family="sans-serif" font-size="14" lengthAdjust="spacing" textLength="120" x="356" y="127.0252">BankIntermediary</text></g><g id="elem_CashPayment"><rect fill="#F1F1F1" height="36.4883" rx="2.5" ry="2.5" style="stroke:#181818;stroke-width:0.5;" width="112" x="178" y="199.97"/><text fill="#000000" font-family="sans-serif" font-size="14" lengthAdjust="spacing" textLength="92" x="188" y="223.5052">CashPayment</text></g><g id="elem_CheckPayment"><rect fill="#F1F1F1" height="36.4883" rx="2.5" ry="2.5" style="stroke:#181818;stroke-width:0.5;" width="120" x="524" y="199.97"/><text fill="#000000" font-family="sans-serif" font-size="14" lengthAdjust="spacing" textLength="100" x="534" y="223.5052">CheckPayment</text></g><g id="elem_CreditCard"><rect fill="#F1F1F1" height="36.4883" rx="2.5" ry="2.5" style="stroke:#181818;stroke-width:0.5;" width="95" x="894.5" y="199.97"/><text fill="#000000" font-family="sans-serif" font-size="14" lengthAdjust="spacing" textLength="75" x="904.5" y="223.5052">CreditCard</text></g><g id="elem_ElectronicPayment"><rect fill="#F1F1F1" height="36.4883" rx="2.5" ry="2.5" style="stroke:#181818;stroke-width:0.5;" width="145" x="343.5" y="199.97"/><text fill="#000000" font-family="sans-serif" font-size="14" lengthAdjust="spacing" textLength="125" x="353.5" y="223.5052">ElectronicPayment</text></g><g id="elem_Identifier"><rect fill="#F1F1F1" height="36.4883" rx="2.5" ry="2.5" style="stroke:#181818;stroke-width:0.5;" width="82" x="34" y="103.49"/><text fill="#000000" font-family="sans-serif" font-size="14" lengthAdjust="spacing" textLength="62" x="44" y="127.0252">Identifier</text></g><g id="elem_PaymentMethod"><rect fill="#F1F1F1" height="36.4883" rx="2.5" ry="2.5" style="stroke:#181818;stroke-width:0.5;" width="130" x="435" y="296.46"/><text fill="#000000" font-family="sans-serif" font-size="14" lengthAdjust="spacing" textLength="110" x="445" y="319.9952">PaymentMethod</text></g><g id="elem_PersonName"><rect fill="#F1F1F1" height="36.4883" rx="2.5" ry="2.5" style="stroke:#181818;stroke-width:0.5;" width="106" x="1116" y="103.49"/><text fill="#000000" font-family="sans-serif" font-size="14" lengthAdjust="spacing" textLength="86" x="1126" y="127.0252">PersonName</text></g><g id="elem_PlatformPayment"><rect fill="#F1F1F1" height="36.4883" rx="2.5" ry="2.5" style="stroke:#181818;stroke-width:0.5;" width="136" x="7" y="199.97"/><text fill="#000000" font-family="sans-serif" font-size="14" lengthAdjust="spacing" textLength="116" x="17" y="223.5052">PlatformPayment</text></g><g id="elem_RewardPayment"><rect fill="#F1F1F1" height="36.4883" rx="2.5" ry="2.5" style="stroke:#181818;stroke-width:0.5;" width="129" x="1291.5" y="199.97"/><text fill="#000000" font-family="sans-serif" font-size="14" lengthAdjust="spacing" textLength="109" x="1301.5" y="223.5052">RewardPayment</text></g><g id="elem_BankAccountTypes"><rect fill="#FAFF91" height="36.4883" rx="2.5" ry="2.5" style="stroke:#181818;stroke-width:0.5;" width="149" x="509.5" y="7"/><text fill="#000000" font-family="sans-serif" font-size="14" lengthAdjust="spacing" textLength="129" x="519.5" y="30.5352">BankAccountTypes</text></g><g id="elem_CreditCardStatusTypes"><rect fill="#FAFF91" height="36.4883" rx="2.5" ry="2.5" style="stroke:#181818;stroke-width:0.5;" width="177" x="1256.5" y="103.49"/><text fill="#000000" font-family="sans-serif" font-size="14" lengthAdjust="spacing" textLength="157" x="1266.5" y="127.0252">CreditCardStatusTypes</text></g><g id="elem_CreditCardTypes"><rect fill="#FAFF91" height="36.4883" rx="2.5" ry="2.5" style="stroke:#181818;stroke-width:0.5;" width="135" x="794.5" y="103.49"/><text fill="#000000" font-family="sans-serif" font-size="14" lengthAdjust="spacing" textLength="115" x="804.5" y="127.0252">CreditCardTypes</text></g><g id="elem_FundingTypes"><rect fill="#FAFF91" height="36.4883" rx="2.5" ry="2.5" style="stroke:#181818;stroke-width:0.5;" width="117" x="964.5" y="103.49"/><text fill="#000000" font-family="sans-serif" font-size="14" lengthAdjust="spacing" textLength="97" x="974.5" y="127.0252">FundingTypes</text></g><g id="elem_PaymentStatusTypes"><rect fill="#FAFF91" height="36.4883" rx="2.5" ry="2.5" style="stroke:#181818;stroke-width:0.5;" width="160" x="151" y="103.49"/><text fill="#000000" font-family="sans-serif" font-size="14" lengthAdjust="spacing" textLength="140" x="161" y="127.0252">PaymentStatusTypes</text></g><g id="elem_RewardEventTypes"><rect fill="#FAFF91" height="36.4883" rx="2.5" ry="2.5" style="stroke:#181818;stroke-width:0.5;" width="148" x="1469" y="103.49"/><text fill="#000000" font-family="sans-serif" font-size="14" lengthAdjust="spacing" textLength="128" x="1479" y="127.0252">RewardEventTypes</text></g><g id="link_Address_CheckPayment"><path d="M695.55,140.28 C670.95,157.25 633.87,182.82 609.31,199.76 " fill="none" id="Address-CheckPayment" style="stroke:#181818;stroke-width:1.0;"/></g><g id="link_Address_CreditCard"><path d="M759.5,139.19 C798.95,156.05 860.08,182.19 900.57,199.5 " fill="none" id="Address-CreditCard" style="stroke:#181818;stroke-width:1.0;"/></g><g id="link_BankAccountTypes_BankBeneficiary"><path d="M584,43.57 C584,60.51 584,86.17 584,103.19 " fill="none" id="BankAccountTypes-BankBeneficiary" style="stroke:#181818;stroke-width:1.0;"/></g><g id="link_BankBeneficiary_CheckPayment"><path d="M584,140.06 C584,157 584,182.66 584,199.68 " fill="none" id="BankBeneficiary-CheckPayment" style="stroke:#181818;stroke-width:1.0;"/></g><g id="link_BankBeneficiary_ElectronicPayment"><path d="M552.79,140.28 C522.71,157.2 477.44,182.66 447.32,199.6 " fill="none" id="BankBeneficiary-ElectronicPayment" style="stroke:#181818;stroke-width:1.0;"/></g><g id="link_BankIntermediary_ElectronicPayment"><path d="M416,140.06 C416,157 416,182.66 416,199.68 " fill="none" id="BankIntermediary-ElectronicPayment" style="stroke:#181818;stroke-width:1.0;"/></g><g id="link_CashPayment_PaymentMethod"><path d="M295.0278,240.8967 C342.5478,257.7767 402.49,279.07 450.07,295.97 " fill="none" id="CashPayment-backto-PaymentMethod" style="stroke:#181818;stroke-width:1.0;"/><polygon fill="#181818" points="283.72,236.88,288.035,242.6576,295.0278,240.8967,290.7128,235.1191,283.72,236.88" style="stroke:#181818;stroke-width:1.0;"/></g><g id="link_CheckPayment_PaymentMethod"><path d="M560.617,245.5183 C545.557,262.4583 530.72,279.15 515.59,296.17 " fill="none" id="CheckPayment-backto-PaymentMethod" style="stroke:#181818;stroke-width:1.0;"/><polygon fill="#181818" points="568.59,236.55,561.614,238.3765,560.617,245.5183,567.5929,243.6918,568.59,236.55" style="stroke:#181818;stroke-width:1.0;"/></g><g id="link_CreditCardStatusTypes_CreditCard"><path d="M1269.67,140.39 C1187.66,159.62 1058.98,189.79 989.81,206.01 " fill="none" id="CreditCardStatusTypes-CreditCard" style="stroke:#181818;stroke-width:1.0;"/></g><g id="link_CreditCardTypes_CreditCard"><path d="M876.67,140.06 C891.02,157 912.74,182.66 927.15,199.68 " fill="none" id="CreditCardTypes-CreditCard" style="stroke:#181818;stroke-width:1.0;"/></g><g id="link_CreditCard_PaymentMethod"><path d="M882.5452,231.9288 C803.0752,248.9188 655.23,280.52 565.37,299.73 " fill="none" id="CreditCard-backto-PaymentMethod" style="stroke:#181818;stroke-width:1.0;"/><polygon fill="#181818" points="894.28,229.42,887.5763,226.7628,882.5452,231.9288,889.2489,234.586,894.28,229.42" style="stroke:#181818;stroke-width:1.0;"/></g><g id="link_ElectronicPayment_PaymentMethod"><path d="M439.383,245.5183 C454.443,262.4583 469.28,279.15 484.41,296.17 " fill="none" id="ElectronicPayment-backto-PaymentMethod" style="stroke:#181818;stroke-width:1.0;"/><polygon fill="#181818" points="431.41,236.55,432.4071,243.6918,439.383,245.5183,438.386,238.3765,431.41,236.55" style="stroke:#181818;stroke-width:1.0;"/></g><g id="link_FundingTypes_CreditCard"><path d="M1008.14,140.06 C993.62,157 971.62,182.66 957.04,199.68 " fill="none" id="FundingTypes-CreditCard" style="stroke:#181818;stroke-width:1.0;"/></g><g id="link_Identifier_CashPayment"><path d="M114.8457,146.4107 C143.3157,163.3307 175.85,182.66 204.35,199.6 " fill="none" id="Identifier-backto-CashPayment" style="stroke:#181818;stroke-width:1.0;"/><polygon fill="#181818" points="104.53,140.28,107.6443,146.7839,114.8457,146.4107,111.7314,139.9068,104.53,140.28" style="stroke:#181818;stroke-width:1.0;"/></g><g id="link_Identifier_PlatformPayment"><path d="M75,152.06 C75,169 75,182.66 75,199.68 " fill="none" id="Identifier-backto-PlatformPayment" style="stroke:#181818;stroke-width:1.0;"/><polygon fill="#181818" points="75,140.06,71,146.06,75,152.06,79,146.06,75,140.06" style="stroke:#181818;stroke-width:1.0;"/></g><g id="link_PaymentStatusTypes_CashPayment"><path d="M231.55,140.06 C232.09,157 232.9,182.66 233.44,199.68 " fill="none" id="PaymentStatusTypes-CashPayment" style="stroke:#181818;stroke-width:1.0;"/></g><g id="link_PaymentStatusTypes_CheckPayment"><path d="M296.98,140.39 C362.04,157.8 460.61,184.19 523.64,201.06 " fill="none" id="PaymentStatusTypes-CheckPayment" style="stroke:#181818;stroke-width:1.0;"/></g><g id="link_PaymentStatusTypes_ElectronicPayment"><path d="M265.36,140.28 C298.49,157.2 348.34,182.66 381.51,199.6 " fill="none" id="PaymentStatusTypes-ElectronicPayment" style="stroke:#181818;stroke-width:1.0;"/></g><g id="link_PersonName_CreditCard"><path d="M1126.57,140.39 C1086.02,157.27 1025.22,182.58 984.61,199.48 " fill="none" id="PersonName-CreditCard" style="stroke:#181818;stroke-width:1.0;"/></g><g id="link_PlatformPayment_PaymentMethod"><path d="M154.994,237.0041 C235.244,254.8441 355.73,281.63 434.68,299.18 " fill="none" id="PlatformPayment-backto-PaymentMethod" style="stroke:#181818;stroke-width:1.0;"/><polygon fill="#181818" points="143.28,234.4,148.269,239.6067,154.994,237.0041,150.0051,231.7974,143.28,234.4" style="stroke:#181818;stroke-width:1.0;"/></g><g id="link_RewardEventTypes_RewardPayment"><path d="M1508.26,140.28 C1474.78,157.2 1424.39,182.66 1390.87,199.6 " fill="none" id="RewardEventTypes-RewardPayment" style="stroke:#181818;stroke-width:1.0;"/></g><g id="link_RewardPayment_PaymentMethod"><path d="M1279.3824,227.6766 C1120.5724,245.2066 724.76,288.9 565.31,306.5 " fill="none" id="RewardPayment-backto-PaymentMethod" style="stroke:#181818;stroke-width:1.0;"/><polygon fill="#181818" points="1291.31,226.36,1284.9074,223.0425,1279.3824,227.6766,1285.7851,230.9942,1291.31,226.36" style="stroke:#181818;stroke-width:1.0;"/></g></g></svg>