<?xml version="1.0" encoding="us-ascii" standalone="no"?><svg xmlns="http://www.w3.org/2000/svg" xmlns:xlink="http://www.w3.org/1999/xlink" contentStyleType="text/css" height="338px" preserveAspectRatio="none" style="width:1896px;height:338px;background:#FFFFFF;" version="1.1" viewBox="0 0 1896 338" width="1896px" zoomAndPan="magnify"><defs/><g><g id="elem_EffectivePeriod"><rect fill="#F1F1F1" height="36.4883" rx="2.5" ry="2.5" style="stroke:#181818;stroke-width:0.5;" width="121" x="1589.5" y="199.97"/><text fill="#000000" font-family="sans-serif" font-size="14" lengthAdjust="spacing" textLength="101" x="1599.5" y="223.5052">EffectivePeriod</text></g><g id="elem_Identifier"><rect fill="#F1F1F1" height="36.4883" rx="2.5" ry="2.5" style="stroke:#181818;stroke-width:0.5;" width="82" x="80" y="7"/><text fill="#000000" font-family="sans-serif" font-size="14" lengthAdjust="spacing" textLength="62" x="90" y="30.5352">Identifier</text></g><g id="elem_Money"><rect fill="#F1F1F1" height="36.4883" rx="2.5" ry="2.5" style="stroke:#181818;stroke-width:0.5;" width="65" x="990.5" y="103.49"/><text fill="#000000" font-family="sans-serif" font-size="14" lengthAdjust="spacing" textLength="45" x="1000.5" y="127.0252">Money</text></g><g id="elem_Party"><rect fill="#F1F1F1" height="36.4883" rx="2.5" ry="2.5" style="stroke:#181818;stroke-width:0.5;" width="54" x="54" y="103.49"/><text fill="#000000" font-family="sans-serif" font-size="14" lengthAdjust="spacing" textLength="34" x="64" y="127.0252">Party</text></g><g id="elem_PartyIdentifier"><rect fill="#F1F1F1" height="36.4883" rx="2.5" ry="2.5" style="stroke:#181818;stroke-width:0.5;" width="116" x="7" y="199.97"/><text fill="#000000" font-family="sans-serif" font-size="14" lengthAdjust="spacing" textLength="96" x="17" y="223.5052">PartyIdentifier</text></g><g id="elem_PaySummary"><rect fill="#F1F1F1" height="36.4883" rx="2.5" ry="2.5" style="stroke:#181818;stroke-width:0.5;" width="107" x="861.5" y="296.46"/><text fill="#000000" font-family="sans-serif" font-size="14" lengthAdjust="spacing" textLength="87" x="871.5" y="319.9952">PaySummary</text></g><g id="elem_PaymentAmount"><rect fill="#F1F1F1" height="36.4883" rx="2.5" ry="2.5" style="stroke:#181818;stroke-width:0.5;" width="133" x="1022.5" y="199.97"/><text fill="#000000" font-family="sans-serif" font-size="14" lengthAdjust="spacing" textLength="113" x="1032.5" y="223.5052">PaymentAmount</text></g><g id="elem_PaymentMethod"><rect fill="#F1F1F1" height="36.4883" rx="2.5" ry="2.5" style="stroke:#181818;stroke-width:0.5;" width="130" x="1091" y="103.49"/><text fill="#000000" font-family="sans-serif" font-size="14" lengthAdjust="spacing" textLength="110" x="1101" y="127.0252">PaymentMethod</text></g><g id="elem_PayrollEvent"><rect fill="#F1F1F1" height="36.4883" rx="2.5" ry="2.5" style="stroke:#181818;stroke-width:0.5;" width="103" x="727.5" y="199.97"/><text fill="#000000" font-family="sans-serif" font-size="14" lengthAdjust="spacing" textLength="83" x="737.5" y="223.5052">PayrollEvent</text></g><g id="elem_TimeSlot"><rect fill="#F1F1F1" height="36.4883" rx="2.5" ry="2.5" style="stroke:#181818;stroke-width:0.5;" width="80" x="1610" y="296.46"/><text fill="#000000" font-family="sans-serif" font-size="14" lengthAdjust="spacing" textLength="60" x="1620" y="319.9952">TimeSlot</text></g><g id="elem_DaysOfWeekTypes"><rect fill="#FAFF91" height="36.4883" rx="2.5" ry="2.5" style="stroke:#181818;stroke-width:0.5;" width="144" x="1746" y="199.97"/><text fill="#000000" font-family="sans-serif" font-size="14" lengthAdjust="spacing" textLength="124" x="1756" y="223.5052">DaysOfWeekTypes</text></g><g id="elem_DurationUOMTypes"><rect fill="#FAFF91" height="36.4883" rx="2.5" ry="2.5" style="stroke:#181818;stroke-width:0.5;" width="153" x="1659.5" y="103.49"/><text fill="#000000" font-family="sans-serif" font-size="14" lengthAdjust="spacing" textLength="133" x="1669.5" y="127.0252">DurationUOMTypes</text></g><g id="elem_PayerTypes"><rect fill="#FAFF91" height="36.4883" rx="2.5" ry="2.5" style="stroke:#181818;stroke-width:0.5;" width="97" x="228.5" y="103.49"/><text fill="#000000" font-family="sans-serif" font-size="14" lengthAdjust="spacing" textLength="77" x="238.5" y="127.0252">PayerTypes</text></g><g id="elem_PaymentAmountTypes"><rect fill="#FAFF91" height="36.4883" rx="2.5" ry="2.5" style="stroke:#181818;stroke-width:0.5;" width="173" x="1256.5" y="103.49"/><text fill="#000000" font-family="sans-serif" font-size="14" lengthAdjust="spacing" textLength="153" x="1266.5" y="127.0252">PaymentAmountTypes</text></g><g id="elem_PaymentStatusTypes"><rect fill="#FAFF91" height="36.4883" rx="2.5" ry="2.5" style="stroke:#181818;stroke-width:0.5;" width="160" x="1465" y="103.49"/><text fill="#000000" font-family="sans-serif" font-size="14" lengthAdjust="spacing" textLength="140" x="1475" y="127.0252">PaymentStatusTypes</text></g><g id="elem_PayrollAggregateTypes"><rect fill="#FAFF91" height="36.4883" rx="2.5" ry="2.5" style="stroke:#181818;stroke-width:0.5;" width="178" x="360" y="103.49"/><text fill="#000000" font-family="sans-serif" font-size="14" lengthAdjust="spacing" textLength="158" x="370" y="127.0252">PayrollAggregateTypes</text></g><g id="elem_PayrollCycleFrequencyTypes"><rect fill="#FAFF91" height="36.4883" rx="2.5" ry="2.5" style="stroke:#181818;stroke-width:0.5;" width="213" x="1190.5" y="199.97"/><text fill="#000000" font-family="sans-serif" font-size="14" lengthAdjust="spacing" textLength="193" x="1200.5" y="223.5052">PayrollCycleFrequencyTypes</text></g><g id="elem_PayrollEventCategoryTypes"><rect fill="#FAFF91" height="36.4883" rx="2.5" ry="2.5" style="stroke:#181818;stroke-width:0.5;" width="205" x="572.5" y="103.49"/><text fill="#000000" font-family="sans-serif" font-size="14" lengthAdjust="spacing" textLength="185" x="582.5" y="127.0252">PayrollEventCategoryTypes</text></g><g id="elem_PayrollEventTypes"><rect fill="#FAFF91" height="36.4883" rx="2.5" ry="2.5" style="stroke:#181818;stroke-width:0.5;" width="143" x="812.5" y="103.49"/><text fill="#000000" font-family="sans-serif" font-size="14" lengthAdjust="spacing" textLength="123" x="822.5" y="127.0252">PayrollEventTypes</text></g><g id="link_DaysOfWeekTypes_TimeSlot"><path d="M1786.79,236.77 C1756.71,253.69 1711.44,279.15 1681.32,296.09 " fill="none" id="DaysOfWeekTypes-TimeSlot" style="stroke:#181818;stroke-width:1.0;"/></g><g id="link_DurationUOMTypes_EffectivePeriod"><path d="M1720.23,140.06 C1704.81,157 1681.45,182.66 1665.96,199.68 " fill="none" id="DurationUOMTypes-EffectivePeriod" style="stroke:#181818;stroke-width:1.0;"/></g><g id="link_EffectivePeriod_PaySummary"><path d="M1589.23,227.03 C1448.56,245.11 1102.39,289.62 968.8,306.79 " fill="none" id="EffectivePeriod-PaySummary" style="stroke:#181818;stroke-width:1.0;"/></g><g id="link_EffectivePeriod_TimeSlot"><path d="M1639.57,236.55 C1635.99,253.49 1635.98,279.15 1639.53,296.17 " fill="none" id="EffectivePeriod-TimeSlot" style="stroke:#181818;stroke-width:1.0;"/></g><g id="link_TimeSlot_EffectivePeriod"><path d="M1660.47,296.17 C1664.02,279.15 1664.01,253.49 1660.43,236.55 " fill="none" id="TimeSlot-EffectivePeriod" style="stroke:#181818;stroke-width:1.0;"/></g><g id="link_Identifier_Party"><path d="M108.9826,54.6209 C101.8126,71.5609 95.63,86.17 88.43,103.19 " fill="none" id="Identifier-backto-Party" style="stroke:#181818;stroke-width:1.0;"/><polygon fill="#181818" points="113.66,43.57,107.6377,47.5363,108.9826,54.6209,115.0049,50.6546,113.66,43.57" style="stroke:#181818;stroke-width:1.0;"/></g><g id="link_Identifier_PaySummary"><path d="M135.7737,54.4052 C149.6337,79.7152 172.88,115.45 211,139.97 C424.07,277.04 737.21,305.97 861.41,312.07 " fill="none" id="Identifier-backto-PaySummary" style="stroke:#181818;stroke-width:1.0;"/><polygon fill="#181818" points="130.01,43.88,129.3835,51.0638,135.7737,54.4052,136.4002,47.2214,130.01,43.88" style="stroke:#181818;stroke-width:1.0;"/></g><g id="link_Money_PaymentAmount"><path d="M1035.11,140.06 C1046.94,157 1064.86,182.66 1076.75,199.68 " fill="none" id="Money-PaymentAmount" style="stroke:#181818;stroke-width:1.0;"/></g><g id="link_Money_PayrollEvent"><path d="M990.09,135.47 C947.43,151.99 872.79,180.9 824.66,199.54 " fill="none" id="Money-PayrollEvent" style="stroke:#181818;stroke-width:1.0;"/></g><g id="link_Party_PartyIdentifier"><path d="M78.07,140.06 C75.2,157 70.85,182.66 67.97,199.68 " fill="none" id="Party-PartyIdentifier" style="stroke:#181818;stroke-width:1.0;"/></g><g id="link_PartyIdentifier_PaySummary"><path d="M123.39,231.86 C132.28,233.55 141.37,235.15 150,236.46 C415.61,276.71 736.38,301.42 861.44,310.14 " fill="none" id="PartyIdentifier-PaySummary" style="stroke:#181818;stroke-width:1.0;"/></g><g id="link_PayerTypes_PayrollEvent"><path d="M325.91,135.98 C331.66,137.39 337.45,138.76 343,139.97 C480.8,170.13 645.07,196.74 727.06,209.4 " fill="none" id="PayerTypes-PayrollEvent" style="stroke:#181818;stroke-width:1.0;"/></g><g id="link_PaymentAmountTypes_PaymentAmount"><path d="M1295.52,140.39 C1250.15,157.27 1182.11,182.58 1136.68,199.48 " fill="none" id="PaymentAmountTypes-PaymentAmount" style="stroke:#181818;stroke-width:1.0;"/></g><g id="link_PaymentAmount_PaySummary"><path d="M1046.1344,242.4963 C1014.9744,259.4163 978.64,279.15 947.44,296.09 " fill="none" id="PaymentAmount-backto-PaySummary" style="stroke:#181818;stroke-width:1.0;"/><polygon fill="#181818" points="1056.68,236.77,1049.4984,236.118,1046.1344,242.4963,1053.316,243.1483,1056.68,236.77" style="stroke:#181818;stroke-width:1.0;"/></g><g id="link_PaymentMethod_PaymentAmount"><path d="M1143.71,140.06 C1131.7,157 1113.5,182.66 1101.44,199.68 " fill="none" id="PaymentMethod-PaymentAmount" style="stroke:#181818;stroke-width:1.0;"/></g><g id="link_PaymentStatusTypes_PaymentAmount"><path d="M1464.53,139.4 C1376.7,157.6 1237.69,186.41 1155.71,203.39 " fill="none" id="PaymentStatusTypes-PaymentAmount" style="stroke:#181818;stroke-width:1.0;"/></g><g id="link_PayrollAggregateTypes_PayrollEvent"><path d="M510.68,140.39 C573.08,158.26 668.47,185.57 727.11,202.36 " fill="none" id="PayrollAggregateTypes-PayrollEvent" style="stroke:#181818;stroke-width:1.0;"/></g><g id="link_PayrollCycleFrequencyTypes_PaySummary"><path d="M1225.6,236.88 C1151.1,255.31 1035.97,283.78 968.8,300.4 " fill="none" id="PayrollCycleFrequencyTypes-PaySummary" style="stroke:#181818;stroke-width:1.0;"/></g><g id="link_PayrollEventCategoryTypes_PayrollEvent"><path d="M694.08,140.06 C712.72,157 740.97,182.66 759.69,199.68 " fill="none" id="PayrollEventCategoryTypes-PayrollEvent" style="stroke:#181818;stroke-width:1.0;"/></g><g id="link_PayrollEventTypes_PayrollEvent"><path d="M864.74,140.06 C845.91,157 817.4,182.66 798.49,199.68 " fill="none" id="PayrollEventTypes-PayrollEvent" style="stroke:#181818;stroke-width:1.0;"/></g><g id="link_PayrollEvent_PaySummary"><path d="M814.1155,243.616 C838.5455,260.586 865.49,279.31 889.87,296.25 " fill="none" id="PayrollEvent-backto-PaySummary" style="stroke:#181818;stroke-width:1.0;"/><polygon fill="#181818" points="804.26,236.77,806.9058,243.4782,814.1155,243.616,811.4698,236.9078,804.26,236.77" style="stroke:#181818;stroke-width:1.0;"/></g></g></svg>