<?xml version="1.0" encoding="us-ascii" standalone="no"?><svg xmlns="http://www.w3.org/2000/svg" xmlns:xlink="http://www.w3.org/1999/xlink" contentStyleType="text/css" height="871px" preserveAspectRatio="none" style="width:951px;height:871px;background:#FFFFFF;" version="1.1" viewBox="0 0 951 871" width="951px" zoomAndPan="magnify"><defs/><g><g id="elem_EffectivePeriod"><rect codeLine="1" fill="#F1F1F1" height="245.8594" id="EffectivePeriod" rx="2.5" ry="2.5" style="stroke:#181818;stroke-width:0.5;" width="273" x="480" y="395.3"/><ellipse cx="561.75" cy="411.3" fill="#ADD1B2" rx="11" ry="11" style="stroke:#181818;stroke-width:1.0;"/><path d="M564.2231,417.4431 Q563.6421,417.7419 563.0029,417.8913 Q562.3638,418.0407 561.6582,418.0407 Q559.1514,418.0407 557.8315,416.3889 Q556.5117,414.737 556.5117,411.6159 Q556.5117,408.4865 557.8315,406.8347 Q559.1514,405.1828 561.6582,405.1828 Q562.3638,405.1828 563.0112,405.3322 Q563.6587,405.4816 564.2231,405.7805 L564.2231,408.5031 Q563.5923,407.9221 562.9988,407.6523 Q562.4053,407.3825 561.7744,407.3825 Q560.4297,407.3825 559.7449,408.4492 Q559.0601,409.5158 559.0601,411.6159 Q559.0601,413.7077 559.7449,414.7744 Q560.4297,415.841 561.7744,415.841 Q562.4053,415.841 562.9988,415.5712 Q563.5923,415.3015 564.2231,414.7204 Z " fill="#000000"/><text fill="#000000" font-family="sans-serif" font-size="14" lengthAdjust="spacing" textLength="101" x="582.25" y="416.591">EffectivePeriod</text><line style="stroke:#181818;stroke-width:0.5;" x1="481" x2="752" y1="427.3" y2="427.3"/><text fill="#000000" font-family="sans-serif" font-size="14" lengthAdjust="spacing" textLength="170" x="486" y="444.8352">effectivePeriodKey:String</text><text fill="#000000" font-family="sans-serif" font-size="14" lengthAdjust="spacing" textLength="159" x="486" y="461.3234">activeIndicator:Boolean</text><text fill="#000000" font-family="sans-serif" font-size="14" lengthAdjust="spacing" textLength="183" x="486" y="477.8117">exclusiveIndicator:Boolean</text><text fill="#000000" font-family="sans-serif" font-size="14" lengthAdjust="spacing" textLength="131" x="486" y="494.3">startDateTime:Date</text><text fill="#000000" font-family="sans-serif" font-size="14" lengthAdjust="spacing" textLength="163" x="486" y="510.7883">completeDateTime:Date</text><text fill="#000000" font-family="sans-serif" font-size="14" lengthAdjust="spacing" textLength="261" x="486" y="527.2766">durationUomType:DurationUOMTypes</text><text fill="#000000" font-family="sans-serif" font-size="14" lengthAdjust="spacing" textLength="142" x="486" y="543.7648">durationValue:String</text><text fill="#000000" font-family="sans-serif" font-size="14" lengthAdjust="spacing" textLength="238" x="486" y="560.2531">recurUomType:DurationUOMTypes</text><text fill="#000000" font-family="sans-serif" font-size="14" lengthAdjust="spacing" textLength="123" x="486" y="576.7414">recurCount:String</text><text fill="#000000" font-family="sans-serif" font-size="14" lengthAdjust="spacing" textLength="132" x="486" y="593.2297">recurCriteria:String</text><text fill="#000000" font-family="sans-serif" font-size="14" lengthAdjust="spacing" textLength="156" x="486" y="609.718">recurIndicator:Boolean</text><text fill="#000000" font-family="sans-serif" font-size="14" lengthAdjust="spacing" textLength="119" x="486" y="626.2063">timeslot:TimeSlot</text><line style="stroke:#181818;stroke-width:0.5;" x1="481" x2="752" y1="633.1594" y2="633.1594"/></g><g id="elem_Identifier"><rect codeLine="15" fill="#F1F1F1" height="97.4648" id="Identifier" rx="2.5" ry="2.5" style="stroke:#181818;stroke-width:0.5;" width="143" x="7" y="469.5"/><ellipse cx="44.05" cy="485.5" fill="#ADD1B2" rx="11" ry="11" style="stroke:#181818;stroke-width:1.0;"/><path d="M46.5231,491.6431 Q45.9421,491.9419 45.3029,492.0913 Q44.6638,492.2407 43.9582,492.2407 Q41.4514,492.2407 40.1315,490.5889 Q38.8117,488.937 38.8117,485.8159 Q38.8117,482.6865 40.1315,481.0347 Q41.4514,479.3828 43.9582,479.3828 Q44.6638,479.3828 45.3112,479.5322 Q45.9587,479.6816 46.5231,479.9805 L46.5231,482.7031 Q45.8923,482.1221 45.2988,481.8523 Q44.7053,481.5825 44.0744,481.5825 Q42.7297,481.5825 42.0449,482.6492 Q41.3601,483.7158 41.3601,485.8159 Q41.3601,487.9077 42.0449,488.9744 Q42.7297,490.041 44.0744,490.041 Q44.7053,490.041 45.2988,489.7712 Q45.8923,489.5015 46.5231,488.9204 Z " fill="#000000"/><text fill="#000000" font-family="sans-serif" font-size="14" lengthAdjust="spacing" textLength="62" x="62.95" y="490.791">Identifier</text><line style="stroke:#181818;stroke-width:0.5;" x1="8" x2="149" y1="501.5" y2="501.5"/><text fill="#000000" font-family="sans-serif" font-size="14" lengthAdjust="spacing" textLength="131" x="13" y="519.0352">identifierKey:String</text><text fill="#000000" font-family="sans-serif" font-size="14" lengthAdjust="spacing" textLength="97" x="13" y="535.5234">context:String</text><text fill="#000000" font-family="sans-serif" font-size="14" lengthAdjust="spacing" textLength="120" x="13" y="552.0117">identifierId:String</text><line style="stroke:#181818;stroke-width:0.5;" x1="8" x2="149" y1="558.9648" y2="558.9648"/></g><g id="elem_PayrollRun"><rect codeLine="20" fill="#F1F1F1" height="163.418" id="PayrollRun" rx="2.5" ry="2.5" style="stroke:#181818;stroke-width:0.5;" width="266" x="146.5" y="701.16"/><ellipse cx="238.75" cy="717.16" fill="#ADD1B2" rx="11" ry="11" style="stroke:#181818;stroke-width:1.0;"/><path d="M241.2231,723.3031 Q240.6421,723.6019 240.0029,723.7513 Q239.3638,723.9007 238.6582,723.9007 Q236.1514,723.9007 234.8315,722.2489 Q233.5117,720.597 233.5117,717.4759 Q233.5117,714.3465 234.8315,712.6947 Q236.1514,711.0428 238.6582,711.0428 Q239.3638,711.0428 240.0112,711.1922 Q240.6587,711.3416 241.2231,711.6405 L241.2231,714.3631 Q240.5923,713.7821 239.9988,713.5123 Q239.4053,713.2425 238.7744,713.2425 Q237.4297,713.2425 236.7449,714.3092 Q236.0601,715.3758 236.0601,717.4759 Q236.0601,719.5677 236.7449,720.6344 Q237.4297,721.701 238.7744,721.701 Q239.4053,721.701 239.9988,721.4312 Q240.5923,721.1615 241.2231,720.5804 Z " fill="#000000"/><text fill="#000000" font-family="sans-serif" font-size="14" lengthAdjust="spacing" textLength="73" x="259.25" y="722.451">PayrollRun</text><line style="stroke:#181818;stroke-width:0.5;" x1="147.5" x2="411.5" y1="733.16" y2="733.16"/><text fill="#000000" font-family="sans-serif" font-size="14" lengthAdjust="spacing" textLength="132" x="152.5" y="750.6952">payrollRunId:String</text><text fill="#000000" font-family="sans-serif" font-size="14" lengthAdjust="spacing" textLength="143" x="152.5" y="767.1834">payrollRunKey:String</text><text fill="#000000" font-family="sans-serif" font-size="14" lengthAdjust="spacing" textLength="124" x="152.5" y="783.6717">payDateTime:Date</text><text fill="#000000" font-family="sans-serif" font-size="14" lengthAdjust="spacing" textLength="206" x="152.5" y="800.16">effectivePeriod:EffectivePeriod</text><text fill="#000000" font-family="sans-serif" font-size="14" lengthAdjust="spacing" textLength="162" x="152.5" y="816.6483">processingStatus:String</text><text fill="#000000" font-family="sans-serif" font-size="14" lengthAdjust="spacing" textLength="254" x="152.5" y="833.1366">runType:PayrollCycleFrequencyTypes</text><text fill="#000000" font-family="sans-serif" font-size="14" lengthAdjust="spacing" textLength="180" x="152.5" y="849.6248">identifiers:List&lt;Identifier&gt;</text><line style="stroke:#181818;stroke-width:0.5;" x1="147.5" x2="411.5" y1="856.578" y2="856.578"/></g><g id="elem_TimeSlot"><rect codeLine="29" fill="#F1F1F1" height="163.418" id="TimeSlot" rx="2.5" ry="2.5" style="stroke:#181818;stroke-width:0.5;" width="373" x="448" y="701.16"/><ellipse cx="600.25" cy="717.16" fill="#ADD1B2" rx="11" ry="11" style="stroke:#181818;stroke-width:1.0;"/><path d="M602.7231,723.3031 Q602.1421,723.6019 601.5029,723.7513 Q600.8638,723.9007 600.1582,723.9007 Q597.6514,723.9007 596.3315,722.2489 Q595.0117,720.597 595.0117,717.4759 Q595.0117,714.3465 596.3315,712.6947 Q597.6514,711.0428 600.1582,711.0428 Q600.8638,711.0428 601.5112,711.1922 Q602.1587,711.3416 602.7231,711.6405 L602.7231,714.3631 Q602.0923,713.7821 601.4988,713.5123 Q600.9053,713.2425 600.2744,713.2425 Q598.9297,713.2425 598.2449,714.3092 Q597.5601,715.3758 597.5601,717.4759 Q597.5601,719.5677 598.2449,720.6344 Q598.9297,721.701 600.2744,721.701 Q600.9053,721.701 601.4988,721.4312 Q602.0923,721.1615 602.7231,720.5804 Z " fill="#000000"/><text fill="#000000" font-family="sans-serif" font-size="14" lengthAdjust="spacing" textLength="60" x="620.75" y="722.451">TimeSlot</text><line style="stroke:#181818;stroke-width:0.5;" x1="449" x2="820" y1="733.16" y2="733.16"/><text fill="#000000" font-family="sans-serif" font-size="14" lengthAdjust="spacing" textLength="125" x="454" y="750.6952">timeSlotKey:String</text><text fill="#000000" font-family="sans-serif" font-size="14" lengthAdjust="spacing" textLength="105" x="454" y="767.1834">endTime:String</text><text fill="#000000" font-family="sans-serif" font-size="14" lengthAdjust="spacing" textLength="184" x="454" y="783.6717">recurringIndicator:Boolean</text><text fill="#000000" font-family="sans-serif" font-size="14" lengthAdjust="spacing" textLength="213" x="454" y="800.16">recurringPeriod:EffectivePeriod</text><text fill="#000000" font-family="sans-serif" font-size="14" lengthAdjust="spacing" textLength="110" x="454" y="816.6483">startTime:String</text><text fill="#000000" font-family="sans-serif" font-size="14" lengthAdjust="spacing" textLength="361" x="454" y="833.1366">timeslotDirectiveTypes:List&lt;TimeslotDirectiveTypes&gt;</text><text fill="#000000" font-family="sans-serif" font-size="14" lengthAdjust="spacing" textLength="114" x="454" y="849.6248">timeSlotId:String</text><line style="stroke:#181818;stroke-width:0.5;" x1="449" x2="820" y1="856.578" y2="856.578"/></g><g id="elem_DaysOfWeekTypes"><rect codeLine="38" fill="#FAFF91" height="163.418" id="DaysOfWeekTypes" rx="2.5" ry="2.5" style="stroke:#181818;stroke-width:0.5;" width="156" x="788.5" y="436.52"/><ellipse cx="803.5" cy="452.52" fill="#ADD1B2" rx="11" ry="11" style="stroke:#181818;stroke-width:1.0;"/><path d="M805.9731,458.6631 Q805.3921,458.9619 804.7529,459.1113 Q804.1138,459.2607 803.4082,459.2607 Q800.9014,459.2607 799.5815,457.6089 Q798.2617,455.957 798.2617,452.8359 Q798.2617,449.7065 799.5815,448.0547 Q800.9014,446.4028 803.4082,446.4028 Q804.1138,446.4028 804.7612,446.5522 Q805.4087,446.7016 805.9731,447.0005 L805.9731,449.7231 Q805.3423,449.1421 804.7488,448.8723 Q804.1553,448.6025 803.5244,448.6025 Q802.1797,448.6025 801.4949,449.6692 Q800.8101,450.7358 800.8101,452.8359 Q800.8101,454.9277 801.4949,455.9944 Q802.1797,457.061 803.5244,457.061 Q804.1553,457.061 804.7488,456.7912 Q805.3423,456.5215 805.9731,455.9404 Z " fill="#000000"/><text fill="#000000" font-family="sans-serif" font-size="14" lengthAdjust="spacing" textLength="124" x="817.5" y="457.811">DaysOfWeekTypes</text><line style="stroke:#181818;stroke-width:0.5;" x1="789.5" x2="943.5" y1="468.52" y2="468.52"/><text fill="#000000" font-family="sans-serif" font-size="14" lengthAdjust="spacing" textLength="21" x="794.5" y="486.0552">FRI</text><text fill="#000000" font-family="sans-serif" font-size="14" lengthAdjust="spacing" textLength="33" x="794.5" y="502.5434">MON</text><text fill="#000000" font-family="sans-serif" font-size="14" lengthAdjust="spacing" textLength="27" x="794.5" y="519.0317">SAT</text><text fill="#000000" font-family="sans-serif" font-size="14" lengthAdjust="spacing" textLength="28" x="794.5" y="535.52">SUN</text><text fill="#000000" font-family="sans-serif" font-size="14" lengthAdjust="spacing" textLength="46" x="794.5" y="552.0083">THURS</text><text fill="#000000" font-family="sans-serif" font-size="14" lengthAdjust="spacing" textLength="35" x="794.5" y="568.4966">TUES</text><text fill="#000000" font-family="sans-serif" font-size="14" lengthAdjust="spacing" textLength="30" x="794.5" y="584.9848">WED</text><line style="stroke:#181818;stroke-width:0.5;" x1="789.5" x2="943.5" y1="591.938" y2="591.938"/></g><g id="elem_DurationUOMTypes"><rect codeLine="47" fill="#FAFF91" height="328.3008" id="DurationUOMTypes" rx="2.5" ry="2.5" style="stroke:#181818;stroke-width:0.5;" width="165" x="534" y="7"/><ellipse cx="549" cy="23" fill="#ADD1B2" rx="11" ry="11" style="stroke:#181818;stroke-width:1.0;"/><path d="M551.4731,29.1431 Q550.8921,29.4419 550.2529,29.5913 Q549.6138,29.7407 548.9082,29.7407 Q546.4014,29.7407 545.0815,28.0889 Q543.7617,26.437 543.7617,23.3159 Q543.7617,20.1865 545.0815,18.5347 Q546.4014,16.8828 548.9082,16.8828 Q549.6138,16.8828 550.2612,17.0322 Q550.9087,17.1816 551.4731,17.4805 L551.4731,20.2031 Q550.8423,19.6221 550.2488,19.3523 Q549.6553,19.0825 549.0244,19.0825 Q547.6797,19.0825 546.9949,20.1492 Q546.3101,21.2158 546.3101,23.3159 Q546.3101,25.4077 546.9949,26.4744 Q547.6797,27.541 549.0244,27.541 Q549.6553,27.541 550.2488,27.2712 Q550.8423,27.0015 551.4731,26.4204 Z " fill="#000000"/><text fill="#000000" font-family="sans-serif" font-size="14" lengthAdjust="spacing" textLength="133" x="563" y="28.291">DurationUOMTypes</text><line style="stroke:#181818;stroke-width:0.5;" x1="535" x2="698" y1="39" y2="39"/><text fill="#000000" font-family="sans-serif" font-size="14" lengthAdjust="spacing" textLength="64" x="540" y="56.5352">BI_WEEKS</text><text fill="#000000" font-family="sans-serif" font-size="14" lengthAdjust="spacing" textLength="60" x="540" y="73.0234">CUSTOM</text><text fill="#000000" font-family="sans-serif" font-size="14" lengthAdjust="spacing" textLength="37" x="540" y="89.5117">DAYS</text><text fill="#000000" font-family="sans-serif" font-size="14" lengthAdjust="spacing" textLength="114" x="540" y="106">DAY_OF_MONTH</text><text fill="#000000" font-family="sans-serif" font-size="14" lengthAdjust="spacing" textLength="48" x="540" y="122.4883">HOURS</text><text fill="#000000" font-family="sans-serif" font-size="14" lengthAdjust="spacing" textLength="61" x="540" y="138.9766">MINUTES</text><text fill="#000000" font-family="sans-serif" font-size="14" lengthAdjust="spacing" textLength="60" x="540" y="155.4648">MONTHS</text><text fill="#000000" font-family="sans-serif" font-size="14" lengthAdjust="spacing" textLength="93" x="540" y="171.9531">MULTI_YEARS</text><text fill="#000000" font-family="sans-serif" font-size="14" lengthAdjust="spacing" textLength="39" x="540" y="188.4414">NONE</text><text fill="#000000" font-family="sans-serif" font-size="14" lengthAdjust="spacing" textLength="95" x="540" y="204.9297">OCCURRENCE</text><text fill="#000000" font-family="sans-serif" font-size="14" lengthAdjust="spacing" textLength="47" x="540" y="221.418">OTHER</text><text fill="#000000" font-family="sans-serif" font-size="14" lengthAdjust="spacing" textLength="74" x="540" y="237.9063">QUARTERS</text><text fill="#000000" font-family="sans-serif" font-size="14" lengthAdjust="spacing" textLength="99" x="540" y="254.3945">SEMI_MONTHS</text><text fill="#000000" font-family="sans-serif" font-size="14" lengthAdjust="spacing" textLength="83" x="540" y="270.8828">SEMI_YEARS</text><text fill="#000000" font-family="sans-serif" font-size="14" lengthAdjust="spacing" textLength="74" x="540" y="287.3711">UNLIMITED</text><text fill="#000000" font-family="sans-serif" font-size="14" lengthAdjust="spacing" textLength="45" x="540" y="303.8594">WEEKS</text><text fill="#000000" font-family="sans-serif" font-size="14" lengthAdjust="spacing" textLength="44" x="540" y="320.3477">YEARS</text><line style="stroke:#181818;stroke-width:0.5;" x1="535" x2="698" y1="327.3008" y2="327.3008"/></g><g id="elem_PayrollCycleFrequencyTypes"><rect codeLine="66" fill="#FAFF91" height="229.3711" id="PayrollCycleFrequencyTypes" rx="2.5" ry="2.5" style="stroke:#181818;stroke-width:0.5;" width="225" x="185" y="403.55"/><ellipse cx="200" cy="419.55" fill="#ADD1B2" rx="11" ry="11" style="stroke:#181818;stroke-width:1.0;"/><path d="M202.4731,425.6931 Q201.8921,425.9919 201.2529,426.1413 Q200.6138,426.2907 199.9082,426.2907 Q197.4014,426.2907 196.0815,424.6389 Q194.7617,422.987 194.7617,419.8659 Q194.7617,416.7365 196.0815,415.0847 Q197.4014,413.4328 199.9082,413.4328 Q200.6138,413.4328 201.2612,413.5822 Q201.9087,413.7316 202.4731,414.0305 L202.4731,416.7531 Q201.8423,416.1721 201.2488,415.9023 Q200.6553,415.6325 200.0244,415.6325 Q198.6797,415.6325 197.9949,416.6992 Q197.3101,417.7658 197.3101,419.8659 Q197.3101,421.9577 197.9949,423.0244 Q198.6797,424.091 200.0244,424.091 Q200.6553,424.091 201.2488,423.8212 Q201.8423,423.5515 202.4731,422.9704 Z " fill="#000000"/><text fill="#000000" font-family="sans-serif" font-size="14" lengthAdjust="spacing" textLength="193" x="214" y="424.841">PayrollCycleFrequencyTypes</text><line style="stroke:#181818;stroke-width:0.5;" x1="186" x2="409" y1="435.55" y2="435.55"/><text fill="#000000" font-family="sans-serif" font-size="14" lengthAdjust="spacing" textLength="57" x="191" y="453.0852">ANNUAL</text><text fill="#000000" font-family="sans-serif" font-size="14" lengthAdjust="spacing" textLength="87" x="191" y="469.5734">BI_MONTHLY</text><text fill="#000000" font-family="sans-serif" font-size="14" lengthAdjust="spacing" textLength="72" x="191" y="486.0617">BI_WEEKLY</text><text fill="#000000" font-family="sans-serif" font-size="14" lengthAdjust="spacing" textLength="40" x="191" y="502.55">DAILY</text><text fill="#000000" font-family="sans-serif" font-size="14" lengthAdjust="spacing" textLength="68" x="191" y="519.0383">MONTHLY</text><text fill="#000000" font-family="sans-serif" font-size="14" lengthAdjust="spacing" textLength="78" x="191" y="535.5266">OFF_CYCLE</text><text fill="#000000" font-family="sans-serif" font-size="14" lengthAdjust="spacing" textLength="88" x="191" y="552.0148">ON_DEMAND</text><text fill="#000000" font-family="sans-serif" font-size="14" lengthAdjust="spacing" textLength="82" x="191" y="568.5031">QUARTERLY</text><text fill="#000000" font-family="sans-serif" font-size="14" lengthAdjust="spacing" textLength="96" x="191" y="584.9914">SEMI_ANNUAL</text><text fill="#000000" font-family="sans-serif" font-size="14" lengthAdjust="spacing" textLength="107" x="191" y="601.4797">SEMI_MONTHLY</text><text fill="#000000" font-family="sans-serif" font-size="14" lengthAdjust="spacing" textLength="53" x="191" y="617.968">WEEKLY</text><line style="stroke:#181818;stroke-width:0.5;" x1="186" x2="409" y1="624.9211" y2="624.9211"/></g><g id="link_DaysOfWeekTypes_TimeSlot"><path codeLine="79" d="M804.64,600.19 C793.51,614.06 781.84,628.17 770.5,641.16 C753.18,661 733.89,681.72 715.4,700.97 " fill="none" id="DaysOfWeekTypes-TimeSlot" style="stroke:#181818;stroke-width:1.0;"/></g><g id="link_DurationUOMTypes_EffectivePeriod"><path codeLine="80" d="M616.5,335.6 C616.5,355.54 616.5,375.65 616.5,394.85 " fill="none" id="DurationUOMTypes-EffectivePeriod" style="stroke:#181818;stroke-width:1.0;"/></g><g id="link_EffectivePeriod_PayrollRun"><path codeLine="81" d="M479.92,625.68 C447.8,650.7 414.09,676.98 383.66,700.69 " fill="none" id="EffectivePeriod-PayrollRun" style="stroke:#181818;stroke-width:1.0;"/></g><g id="link_EffectivePeriod_TimeSlot"><path codeLine="82" d="M611.77,641.33 C613.03,661.55 614.73,682.07 616.73,700.96 " fill="none" id="EffectivePeriod-TimeSlot" style="stroke:#181818;stroke-width:1.0;"/></g><g id="link_TimeSlot_EffectivePeriod"><path codeLine="85" d="M641.18,700.96 C640.59,682.07 639.48,661.55 637.96,641.33 " fill="none" id="TimeSlot-EffectivePeriod" style="stroke:#181818;stroke-width:1.0;"/></g><g id="link_Identifier_PayrollRun"><path codeLine="83" d="M119.9442,577.0721 C136.2742,599.6421 149.15,617.09 167.5,641.16 C182.36,660.65 198.64,681.42 214.07,700.85 " fill="none" id="Identifier-backto-PayrollRun" style="stroke:#181818;stroke-width:1.0;"/><polygon fill="#181818" points="112.91,567.35,113.1864,574.5558,119.9442,577.0721,119.6678,569.8663,112.91,567.35" style="stroke:#181818;stroke-width:1.0;"/></g><g id="link_PayrollCycleFrequencyTypes_PayrollRun"><path codeLine="84" d="M289.68,633.28 C288.13,655.99 286.52,679.39 285.06,700.72 " fill="none" id="PayrollCycleFrequencyTypes-PayrollRun" style="stroke:#181818;stroke-width:1.0;"/></g></g></svg>