<?xml version="1.0" encoding="us-ascii" standalone="no"?><svg xmlns="http://www.w3.org/2000/svg" xmlns:xlink="http://www.w3.org/1999/xlink" contentStyleType="text/css" height="338px" preserveAspectRatio="none" style="width:1957px;height:338px;background:#FFFFFF;" version="1.1" viewBox="0 0 1957 338" width="1957px" zoomAndPan="magnify"><defs/><g><g id="elem_EffectivePeriod"><rect fill="#F1F1F1" height="36.4883" rx="2.5" ry="2.5" style="stroke:#181818;stroke-width:0.5;" width="121" x="1650.5" y="199.97"/><text fill="#000000" font-family="sans-serif" font-size="14" lengthAdjust="spacing" textLength="101" x="1660.5" y="223.5052">EffectivePeriod</text></g><g id="elem_Identifier"><rect fill="#F1F1F1" height="36.4883" rx="2.5" ry="2.5" style="stroke:#181818;stroke-width:0.5;" width="82" x="80" y="7"/><text fill="#000000" font-family="sans-serif" font-size="14" lengthAdjust="spacing" textLength="62" x="90" y="30.5352">Identifier</text></g><g id="elem_Money"><rect fill="#F1F1F1" height="36.4883" rx="2.5" ry="2.5" style="stroke:#181818;stroke-width:0.5;" width="65" x="990.5" y="103.49"/><text fill="#000000" font-family="sans-serif" font-size="14" lengthAdjust="spacing" textLength="45" x="1000.5" y="127.0252">Money</text></g><g id="elem_Party"><rect fill="#F1F1F1" height="36.4883" rx="2.5" ry="2.5" style="stroke:#181818;stroke-width:0.5;" width="54" x="54" y="103.49"/><text fill="#000000" font-family="sans-serif" font-size="14" lengthAdjust="spacing" textLength="34" x="64" y="127.0252">Party</text></g><g id="elem_PartyIdentifier"><rect fill="#F1F1F1" height="36.4883" rx="2.5" ry="2.5" style="stroke:#181818;stroke-width:0.5;" width="116" x="7" y="199.97"/><text fill="#000000" font-family="sans-serif" font-size="14" lengthAdjust="spacing" textLength="96" x="17" y="223.5052">PartyIdentifier</text></g><g id="elem_PayStub"><rect fill="#F1F1F1" height="36.4883" rx="2.5" ry="2.5" style="stroke:#181818;stroke-width:0.5;" width="74" x="1011" y="296.46"/><text fill="#000000" font-family="sans-serif" font-size="14" lengthAdjust="spacing" textLength="54" x="1021" y="319.9952">PayStub</text></g><g id="elem_PaymentAmount"><rect fill="#F1F1F1" height="36.4883" rx="2.5" ry="2.5" style="stroke:#181818;stroke-width:0.5;" width="133" x="981.5" y="199.97"/><text fill="#000000" font-family="sans-serif" font-size="14" lengthAdjust="spacing" textLength="113" x="991.5" y="223.5052">PaymentAmount</text></g><g id="elem_PaymentMethod"><rect fill="#F1F1F1" height="36.4883" rx="2.5" ry="2.5" style="stroke:#181818;stroke-width:0.5;" width="130" x="1091" y="103.49"/><text fill="#000000" font-family="sans-serif" font-size="14" lengthAdjust="spacing" textLength="110" x="1101" y="127.0252">PaymentMethod</text></g><g id="elem_PayrollEvent"><rect fill="#F1F1F1" height="36.4883" rx="2.5" ry="2.5" style="stroke:#181818;stroke-width:0.5;" width="103" x="727.5" y="199.97"/><text fill="#000000" font-family="sans-serif" font-size="14" lengthAdjust="spacing" textLength="83" x="737.5" y="223.5052">PayrollEvent</text></g><g id="elem_TaxReportingContext"><rect fill="#F1F1F1" height="36.4883" rx="2.5" ry="2.5" style="stroke:#181818;stroke-width:0.5;" width="169" x="1149.5" y="199.97"/><text fill="#000000" font-family="sans-serif" font-size="14" lengthAdjust="spacing" textLength="149" x="1159.5" y="223.5052">TaxReportingContext</text></g><g id="elem_TimeSlot"><rect fill="#F1F1F1" height="36.4883" rx="2.5" ry="2.5" style="stroke:#181818;stroke-width:0.5;" width="80" x="1671" y="296.46"/><text fill="#000000" font-family="sans-serif" font-size="14" lengthAdjust="spacing" textLength="60" x="1681" y="319.9952">TimeSlot</text></g><g id="elem_DaysOfWeekTypes"><rect fill="#FAFF91" height="36.4883" rx="2.5" ry="2.5" style="stroke:#181818;stroke-width:0.5;" width="144" x="1807" y="199.97"/><text fill="#000000" font-family="sans-serif" font-size="14" lengthAdjust="spacing" textLength="124" x="1817" y="223.5052">DaysOfWeekTypes</text></g><g id="elem_DurationUOMTypes"><rect fill="#FAFF91" height="36.4883" rx="2.5" ry="2.5" style="stroke:#181818;stroke-width:0.5;" width="153" x="1659.5" y="103.49"/><text fill="#000000" font-family="sans-serif" font-size="14" lengthAdjust="spacing" textLength="133" x="1669.5" y="127.0252">DurationUOMTypes</text></g><g id="elem_PayerTypes"><rect fill="#FAFF91" height="36.4883" rx="2.5" ry="2.5" style="stroke:#181818;stroke-width:0.5;" width="97" x="228.5" y="103.49"/><text fill="#000000" font-family="sans-serif" font-size="14" lengthAdjust="spacing" textLength="77" x="238.5" y="127.0252">PayerTypes</text></g><g id="elem_PaymentAmountTypes"><rect fill="#FAFF91" height="36.4883" rx="2.5" ry="2.5" style="stroke:#181818;stroke-width:0.5;" width="173" x="1256.5" y="103.49"/><text fill="#000000" font-family="sans-serif" font-size="14" lengthAdjust="spacing" textLength="153" x="1266.5" y="127.0252">PaymentAmountTypes</text></g><g id="elem_PaymentStatusTypes"><rect fill="#FAFF91" height="36.4883" rx="2.5" ry="2.5" style="stroke:#181818;stroke-width:0.5;" width="160" x="1465" y="103.49"/><text fill="#000000" font-family="sans-serif" font-size="14" lengthAdjust="spacing" textLength="140" x="1475" y="127.0252">PaymentStatusTypes</text></g><g id="elem_PayrollAggregateTypes"><rect fill="#FAFF91" height="36.4883" rx="2.5" ry="2.5" style="stroke:#181818;stroke-width:0.5;" width="178" x="360" y="103.49"/><text fill="#000000" font-family="sans-serif" font-size="14" lengthAdjust="spacing" textLength="158" x="370" y="127.0252">PayrollAggregateTypes</text></g><g id="elem_PayrollCycleFrequencyTypes"><rect fill="#FAFF91" height="36.4883" rx="2.5" ry="2.5" style="stroke:#181818;stroke-width:0.5;" width="213" x="1353.5" y="199.97"/><text fill="#000000" font-family="sans-serif" font-size="14" lengthAdjust="spacing" textLength="193" x="1363.5" y="223.5052">PayrollCycleFrequencyTypes</text></g><g id="elem_PayrollEventCategoryTypes"><rect fill="#FAFF91" height="36.4883" rx="2.5" ry="2.5" style="stroke:#181818;stroke-width:0.5;" width="205" x="572.5" y="103.49"/><text fill="#000000" font-family="sans-serif" font-size="14" lengthAdjust="spacing" textLength="185" x="582.5" y="127.0252">PayrollEventCategoryTypes</text></g><g id="elem_PayrollEventTypes"><rect fill="#FAFF91" height="36.4883" rx="2.5" ry="2.5" style="stroke:#181818;stroke-width:0.5;" width="143" x="812.5" y="103.49"/><text fill="#000000" font-family="sans-serif" font-size="14" lengthAdjust="spacing" textLength="123" x="822.5" y="127.0252">PayrollEventTypes</text></g><g id="link_DaysOfWeekTypes_TimeSlot"><path d="M1847.79,236.77 C1817.71,253.69 1772.44,279.15 1742.32,296.09 " fill="none" id="DaysOfWeekTypes-TimeSlot" style="stroke:#181818;stroke-width:1.0;"/></g><g id="link_DurationUOMTypes_EffectivePeriod"><path d="M1731.41,140.06 C1726.93,157 1720.14,182.66 1715.64,199.68 " fill="none" id="DurationUOMTypes-EffectivePeriod" style="stroke:#181818;stroke-width:1.0;"/></g><g id="link_EffectivePeriod_PayStub"><path d="M1650.11,227.9 C1515.18,247.13 1194.34,292.85 1085.14,308.41 " fill="none" id="EffectivePeriod-PayStub" style="stroke:#181818;stroke-width:1.0;"/></g><g id="link_EffectivePeriod_TimeSlot"><path d="M1700.57,236.55 C1696.99,253.49 1696.98,279.15 1700.53,296.17 " fill="none" id="EffectivePeriod-TimeSlot" style="stroke:#181818;stroke-width:1.0;"/></g><g id="link_TimeSlot_EffectivePeriod"><path d="M1721.47,296.17 C1725.02,279.15 1725.01,253.49 1721.43,236.55 " fill="none" id="TimeSlot-EffectivePeriod" style="stroke:#181818;stroke-width:1.0;"/></g><g id="link_Identifier_Party"><path d="M108.9826,54.6209 C101.8126,71.5609 95.63,86.17 88.43,103.19 " fill="none" id="Identifier-backto-Party" style="stroke:#181818;stroke-width:1.0;"/><polygon fill="#181818" points="113.66,43.57,107.6377,47.5363,108.9826,54.6209,115.0049,50.6546,113.66,43.57" style="stroke:#181818;stroke-width:1.0;"/></g><g id="link_Identifier_PayStub"><path d="M135.3254,54.2184 C148.9554,79.6684 172.22,116.03 211,139.97 C349.76,225.62 867.04,292.24 1010.75,309.39 " fill="none" id="Identifier-backto-PayStub" style="stroke:#181818;stroke-width:1.0;"/><polygon fill="#181818" points="129.66,43.64,128.9665,50.8177,135.3254,54.2184,136.0188,47.0408,129.66,43.64" style="stroke:#181818;stroke-width:1.0;"/></g><g id="link_Money_PaymentAmount"><path d="M1027.59,140.06 C1032.07,157 1038.86,182.66 1043.36,199.68 " fill="none" id="Money-PaymentAmount" style="stroke:#181818;stroke-width:1.0;"/></g><g id="link_Money_PayrollEvent"><path d="M990.09,135.47 C947.43,151.99 872.79,180.9 824.66,199.54 " fill="none" id="Money-PayrollEvent" style="stroke:#181818;stroke-width:1.0;"/></g><g id="link_Party_PartyIdentifier"><path d="M78.07,140.06 C75.2,157 70.85,182.66 67.97,199.68 " fill="none" id="Party-PartyIdentifier" style="stroke:#181818;stroke-width:1.0;"/></g><g id="link_PartyIdentifier_PayStub"><path d="M123.37,231.97 C132.27,233.65 141.36,235.22 150,236.46 C481.83,284.23 887.22,306.15 1010.62,312.02 " fill="none" id="PartyIdentifier-PayStub" style="stroke:#181818;stroke-width:1.0;"/></g><g id="link_PayerTypes_PayrollEvent"><path d="M325.91,135.98 C331.66,137.39 337.45,138.76 343,139.97 C480.8,170.13 645.07,196.74 727.06,209.4 " fill="none" id="PayerTypes-PayrollEvent" style="stroke:#181818;stroke-width:1.0;"/></g><g id="link_PaymentAmountTypes_PaymentAmount"><path d="M1287.86,140.39 C1235.16,157.27 1156.14,182.58 1103.37,199.48 " fill="none" id="PaymentAmountTypes-PaymentAmount" style="stroke:#181818;stroke-width:1.0;"/></g><g id="link_PaymentAmount_PayStub"><path d="M1048,248.55 C1048,265.49 1048,279.15 1048,296.17 " fill="none" id="PaymentAmount-backto-PayStub" style="stroke:#181818;stroke-width:1.0;"/><polygon fill="#181818" points="1048,236.55,1044,242.55,1048,248.55,1052,242.55,1048,236.55" style="stroke:#181818;stroke-width:1.0;"/></g><g id="link_PaymentMethod_PaymentAmount"><path d="M1135.94,140.28 C1116.54,157.25 1087.32,182.82 1067.95,199.76 " fill="none" id="PaymentMethod-PaymentAmount" style="stroke:#181818;stroke-width:1.0;"/></g><g id="link_PaymentStatusTypes_PaymentAmount"><path d="M1464.59,137.34 C1381.3,152.57 1247.42,177.33 1132,199.97 C1126.45,201.06 1120.69,202.21 1114.92,203.37 " fill="none" id="PaymentStatusTypes-PaymentAmount" style="stroke:#181818;stroke-width:1.0;"/></g><g id="link_PayrollAggregateTypes_PayrollEvent"><path d="M510.68,140.39 C573.08,158.26 668.47,185.57 727.11,202.36 " fill="none" id="PayrollAggregateTypes-PayrollEvent" style="stroke:#181818;stroke-width:1.0;"/></g><g id="link_PayrollCycleFrequencyTypes_PayStub"><path d="M1382.99,236.88 C1294.37,257.2 1152.46,289.75 1085.4,305.13 " fill="none" id="PayrollCycleFrequencyTypes-PayStub" style="stroke:#181818;stroke-width:1.0;"/></g><g id="link_PayrollEventCategoryTypes_PayrollEvent"><path d="M694.08,140.06 C712.72,157 740.97,182.66 759.69,199.68 " fill="none" id="PayrollEventCategoryTypes-PayrollEvent" style="stroke:#181818;stroke-width:1.0;"/></g><g id="link_PayrollEventTypes_PayrollEvent"><path d="M864.74,140.06 C845.91,157 817.4,182.66 798.49,199.68 " fill="none" id="PayrollEventTypes-PayrollEvent" style="stroke:#181818;stroke-width:1.0;"/></g><g id="link_PayrollEvent_PayStub"><path d="M840.6021,240.8563 C893.2221,259.3363 963.28,283.95 1010.53,300.54 " fill="none" id="PayrollEvent-backto-PayStub" style="stroke:#181818;stroke-width:1.0;"/><polygon fill="#181818" points="829.28,236.88,833.6156,242.6422,840.6021,240.8563,836.2665,235.0941,829.28,236.88" style="stroke:#181818;stroke-width:1.0;"/></g><g id="link_TaxReportingContext_PayStub"><path d="M1199.45,236.77 C1166.15,253.69 1116.03,279.15 1082.68,296.09 " fill="none" id="TaxReportingContext-PayStub" style="stroke:#181818;stroke-width:1.0;"/></g></g></svg>