<?xml version="1.0" encoding="us-ascii" standalone="no"?><svg xmlns="http://www.w3.org/2000/svg" xmlns:xlink="http://www.w3.org/1999/xlink" contentStyleType="text/css" height="724px" preserveAspectRatio="none" style="width:2183px;height:724px;background:#FFFFFF;" version="1.1" viewBox="0 0 2183 724" width="2183px" zoomAndPan="magnify"><defs/><g><g id="elem_Address"><rect fill="#F1F1F1" height="36.4883" rx="2.5" ry="2.5" style="stroke:#181818;stroke-width:0.5;" width="76" x="1821" y="199.98"/><text fill="#000000" font-family="sans-serif" font-size="14" lengthAdjust="spacing" textLength="56" x="1831" y="223.5152">Address</text></g><g id="elem_Authorization"><rect fill="#F1F1F1" height="36.4883" rx="2.5" ry="2.5" style="stroke:#181818;stroke-width:0.5;" width="115" x="1801.5" y="103.49"/><text fill="#000000" font-family="sans-serif" font-size="14" lengthAdjust="spacing" textLength="95" x="1811.5" y="127.0252">Authorization</text></g><g id="elem_CommunicationChannel"><rect fill="#F1F1F1" height="36.4883" rx="2.5" ry="2.5" style="stroke:#181818;stroke-width:0.5;" width="186" x="1932" y="199.98"/><text fill="#000000" font-family="sans-serif" font-size="14" lengthAdjust="spacing" textLength="166" x="1942" y="223.5152">CommunicationChannel</text></g><g id="elem_ControlAccount"><rect fill="#F1F1F1" height="36.4883" rx="2.5" ry="2.5" style="stroke:#181818;stroke-width:0.5;" width="128" x="238" y="199.98"/><text fill="#000000" font-family="sans-serif" font-size="14" lengthAdjust="spacing" textLength="108" x="248" y="223.5152">ControlAccount</text></g><g id="elem_DailyHour"><rect fill="#F1F1F1" height="36.4883" rx="2.5" ry="2.5" style="stroke:#181818;stroke-width:0.5;" width="87" x="1567.5" y="7"/><text fill="#000000" font-family="sans-serif" font-size="14" lengthAdjust="spacing" textLength="67" x="1577.5" y="30.5352">DailyHour</text></g><g id="elem_Department"><rect fill="#F1F1F1" height="36.4883" rx="2.5" ry="2.5" style="stroke:#181818;stroke-width:0.5;" width="101" x="261.5" y="392.96"/><text fill="#000000" font-family="sans-serif" font-size="14" lengthAdjust="spacing" textLength="81" x="271.5" y="416.4952">Department</text></g><g id="elem_EffectivePeriod"><rect fill="#F1F1F1" height="36.4883" rx="2.5" ry="2.5" style="stroke:#181818;stroke-width:0.5;" width="121" x="1190.5" y="489.45"/><text fill="#000000" font-family="sans-serif" font-size="14" lengthAdjust="spacing" textLength="101" x="1200.5" y="512.9852">EffectivePeriod</text></g><g id="elem_Identifier"><rect fill="#F1F1F1" height="36.4883" rx="2.5" ry="2.5" style="stroke:#181818;stroke-width:0.5;" width="82" x="663" y="103.49"/><text fill="#000000" font-family="sans-serif" font-size="14" lengthAdjust="spacing" textLength="62" x="673" y="127.0252">Identifier</text></g><g id="elem_Link"><rect fill="#F1F1F1" height="36.4883" rx="2.5" ry="2.5" style="stroke:#181818;stroke-width:0.5;" width="48" x="1690" y="7"/><text fill="#000000" font-family="sans-serif" font-size="14" lengthAdjust="spacing" textLength="28" x="1700" y="30.5352">Link</text></g><g id="elem_MetricNameValue"><rect fill="#F1F1F1" height="36.4883" rx="2.5" ry="2.5" style="stroke:#181818;stroke-width:0.5;" width="139" x="1040.5" y="199.98"/><text fill="#000000" font-family="sans-serif" font-size="14" lengthAdjust="spacing" textLength="119" x="1050.5" y="223.5152">MetricNameValue</text></g><g id="elem_Money"><rect fill="#F1F1F1" height="36.4883" rx="2.5" ry="2.5" style="stroke:#181818;stroke-width:0.5;" width="65" x="842.5" y="489.45"/><text fill="#000000" font-family="sans-serif" font-size="14" lengthAdjust="spacing" textLength="45" x="852.5" y="512.9852">Money</text></g><g id="elem_Party"><rect fill="#F1F1F1" height="36.4883" rx="2.5" ry="2.5" style="stroke:#181818;stroke-width:0.5;" width="54" x="574" y="392.96"/><text fill="#000000" font-family="sans-serif" font-size="14" lengthAdjust="spacing" textLength="34" x="584" y="416.4952">Party</text></g><g id="elem_PartyIdentifier"><rect fill="#F1F1F1" height="36.4883" rx="2.5" ry="2.5" style="stroke:#181818;stroke-width:0.5;" width="116" x="543" y="489.45"/><text fill="#000000" font-family="sans-serif" font-size="14" lengthAdjust="spacing" textLength="96" x="553" y="512.9852">PartyIdentifier</text></g><g id="elem_PayRate"><rect fill="#F1F1F1" height="36.4883" rx="2.5" ry="2.5" style="stroke:#181818;stroke-width:0.5;" width="73" x="776.5" y="585.93"/><text fill="#000000" font-family="sans-serif" font-size="14" lengthAdjust="spacing" textLength="53" x="786.5" y="609.4652">PayRate</text></g><g id="elem_Person"><rect fill="#F1F1F1" height="36.4883" rx="2.5" ry="2.5" style="stroke:#181818;stroke-width:0.5;" width="67" x="1581.5" y="296.47"/><text fill="#000000" font-family="sans-serif" font-size="14" lengthAdjust="spacing" textLength="47" x="1591.5" y="320.0052">Person</text></g><g id="elem_PersonName"><rect fill="#F1F1F1" height="36.4883" rx="2.5" ry="2.5" style="stroke:#181818;stroke-width:0.5;" width="106" x="1351" y="199.98"/><text fill="#000000" font-family="sans-serif" font-size="14" lengthAdjust="spacing" textLength="86" x="1361" y="223.5152">PersonName</text></g><g id="elem_PrivacyEvent"><rect fill="#F1F1F1" height="36.4883" rx="2.5" ry="2.5" style="stroke:#181818;stroke-width:0.5;" width="104" x="1216" y="103.49"/><text fill="#000000" font-family="sans-serif" font-size="14" lengthAdjust="spacing" textLength="84" x="1226" y="127.0252">PrivacyEvent</text></g><g id="elem_PrivacyItem"><rect fill="#F1F1F1" height="36.4883" rx="2.5" ry="2.5" style="stroke:#181818;stroke-width:0.5;" width="97" x="1219.5" y="199.98"/><text fill="#000000" font-family="sans-serif" font-size="14" lengthAdjust="spacing" textLength="77" x="1229.5" y="223.5152">PrivacyItem</text></g><g id="elem_StaffMember"><rect fill="#F1F1F1" height="36.4883" rx="2.5" ry="2.5" style="stroke:#181818;stroke-width:0.5;" width="107" x="759.5" y="682.42"/><text fill="#000000" font-family="sans-serif" font-size="14" lengthAdjust="spacing" textLength="87" x="769.5" y="705.9552">StaffMember</text></g><g id="elem_TextualDetail"><rect fill="#F1F1F1" height="36.4883" rx="2.5" ry="2.5" style="stroke:#181818;stroke-width:0.5;" width="111" x="651.5" y="296.47"/><text fill="#000000" font-family="sans-serif" font-size="14" lengthAdjust="spacing" textLength="91" x="661.5" y="320.0052">TextualDetail</text></g><g id="elem_TimeSlot"><rect fill="#F1F1F1" height="36.4883" rx="2.5" ry="2.5" style="stroke:#181818;stroke-width:0.5;" width="80" x="1211" y="585.93"/><text fill="#000000" font-family="sans-serif" font-size="14" lengthAdjust="spacing" textLength="60" x="1221" y="609.4652">TimeSlot</text></g><g id="elem_CommunicationChannelTypes"><rect fill="#FAFF91" height="36.4883" rx="2.5" ry="2.5" style="stroke:#181818;stroke-width:0.5;" width="226" x="1951" y="103.49"/><text fill="#000000" font-family="sans-serif" font-size="14" lengthAdjust="spacing" textLength="206" x="1961" y="127.0252">CommunicationChannelTypes</text></g><g id="elem_ControlAccountRoleTypes"><rect fill="#FAFF91" height="36.4883" rx="2.5" ry="2.5" style="stroke:#181818;stroke-width:0.5;" width="198" x="429" y="103.49"/><text fill="#000000" font-family="sans-serif" font-size="14" lengthAdjust="spacing" textLength="178" x="439" y="127.0252">ControlAccountRoleTypes</text></g><g id="elem_ControlAccountTypes"><rect fill="#FAFF91" height="36.4883" rx="2.5" ry="2.5" style="stroke:#181818;stroke-width:0.5;" width="168" x="7" y="103.49"/><text fill="#000000" font-family="sans-serif" font-size="14" lengthAdjust="spacing" textLength="148" x="17" y="127.0252">ControlAccountTypes</text></g><g id="elem_DaysOfWeekTypes"><rect fill="#FAFF91" height="36.4883" rx="2.5" ry="2.5" style="stroke:#181818;stroke-width:0.5;" width="144" x="1347" y="489.45"/><text fill="#000000" font-family="sans-serif" font-size="14" lengthAdjust="spacing" textLength="124" x="1357" y="512.9852">DaysOfWeekTypes</text></g><g id="elem_DurationUOMTypes"><rect fill="#FAFF91" height="36.4883" rx="2.5" ry="2.5" style="stroke:#181818;stroke-width:0.5;" width="153" x="1174.5" y="392.96"/><text fill="#000000" font-family="sans-serif" font-size="14" lengthAdjust="spacing" textLength="133" x="1184.5" y="416.4952">DurationUOMTypes</text></g><g id="elem_FinancialCategoryTypes"><rect fill="#FAFF91" height="36.4883" rx="2.5" ry="2.5" style="stroke:#181818;stroke-width:0.5;" width="183" x="210.5" y="103.49"/><text fill="#000000" font-family="sans-serif" font-size="14" lengthAdjust="spacing" textLength="163" x="220.5" y="127.0252">FinancialCategoryTypes</text></g><g id="elem_GenderTypes"><rect fill="#FAFF91" height="36.4883" rx="2.5" ry="2.5" style="stroke:#181818;stroke-width:0.5;" width="110" x="1492" y="199.98"/><text fill="#000000" font-family="sans-serif" font-size="14" lengthAdjust="spacing" textLength="90" x="1502" y="223.5152">GenderTypes</text></g><g id="elem_MaritalStatusTypes"><rect fill="#FAFF91" height="36.4883" rx="2.5" ry="2.5" style="stroke:#181818;stroke-width:0.5;" width="149" x="1636.5" y="199.98"/><text fill="#000000" font-family="sans-serif" font-size="14" lengthAdjust="spacing" textLength="129" x="1646.5" y="223.5152">MaritalStatusTypes</text></g><g id="elem_NarrativeUomTypes"><rect fill="#FAFF91" height="36.4883" rx="2.5" ry="2.5" style="stroke:#181818;stroke-width:0.5;" width="154" x="1027" y="103.49"/><text fill="#000000" font-family="sans-serif" font-size="14" lengthAdjust="spacing" textLength="134" x="1037" y="127.0252">NarrativeUomTypes</text></g><g id="elem_PayrollCycleFrequencyTypes"><rect fill="#FAFF91" height="36.4883" rx="2.5" ry="2.5" style="stroke:#181818;stroke-width:0.5;" width="213" x="942.5" y="489.45"/><text fill="#000000" font-family="sans-serif" font-size="14" lengthAdjust="spacing" textLength="193" x="952.5" y="512.9852">PayrollCycleFrequencyTypes</text></g><g id="elem_PrivacyContextTypes"><rect fill="#FAFF91" height="36.4883" rx="2.5" ry="2.5" style="stroke:#181818;stroke-width:0.5;" width="162" x="983" y="7"/><text fill="#000000" font-family="sans-serif" font-size="14" lengthAdjust="spacing" textLength="142" x="993" y="30.5352">PrivacyContextTypes</text></g><g id="elem_PrivacyLegalBasisTypes"><rect fill="#FAFF91" height="36.4883" rx="2.5" ry="2.5" style="stroke:#181818;stroke-width:0.5;" width="177" x="1179.5" y="7"/><text fill="#000000" font-family="sans-serif" font-size="14" lengthAdjust="spacing" textLength="157" x="1189.5" y="30.5352">PrivacyLegalBasisTypes</text></g><g id="elem_PrivacyStateTypes"><rect fill="#FAFF91" height="36.4883" rx="2.5" ry="2.5" style="stroke:#181818;stroke-width:0.5;" width="141" x="1391.5" y="7"/><text fill="#000000" font-family="sans-serif" font-size="14" lengthAdjust="spacing" textLength="121" x="1401.5" y="30.5352">PrivacyStateTypes</text></g><g id="elem_PrivacyTypes"><rect fill="#FAFF91" height="36.4883" rx="2.5" ry="2.5" style="stroke:#181818;stroke-width:0.5;" width="107" x="1354.5" y="103.49"/><text fill="#000000" font-family="sans-serif" font-size="14" lengthAdjust="spacing" textLength="87" x="1364.5" y="127.0252">PrivacyTypes</text></g><g id="elem_StaffPayTypes"><rect fill="#FAFF91" height="36.4883" rx="2.5" ry="2.5" style="stroke:#181818;stroke-width:0.5;" width="114" x="694" y="489.45"/><text fill="#000000" font-family="sans-serif" font-size="14" lengthAdjust="spacing" textLength="94" x="704" y="512.9852">StaffPayTypes</text></g><g id="link_Address_Person"><path d="M1809.4203,238.4247 C1762.1803,256.7247 1693.9,283.16 1648.85,300.61 " fill="none" id="Address-backto-Person" style="stroke:#181818;stroke-width:1.0;"/><polygon fill="#181818" points="1820.61,234.09,1813.5702,232.5274,1809.4203,238.4247,1816.46,239.9873,1820.61,234.09" style="stroke:#181818;stroke-width:1.0;"/></g><g id="link_Authorization_Address"><path d="M1859,152.07 C1859,169.01 1859,182.67 1859,199.68 " fill="none" id="Authorization-backto-Address" style="stroke:#181818;stroke-width:1.0;"/><polygon fill="#181818" points="1859,140.07,1855,146.07,1859,152.07,1863,146.07,1859,140.07" style="stroke:#181818;stroke-width:1.0;"/></g><g id="link_Authorization_CommunicationChannel"><path d="M1900.2593,146.2255 C1929.9893,163.1455 1964.29,182.67 1994.05,199.61 " fill="none" id="Authorization-backto-CommunicationChannel" style="stroke:#181818;stroke-width:1.0;"/><polygon fill="#181818" points="1889.83,140.29,1893.0661,146.7342,1900.2593,146.2255,1897.0231,139.7813,1889.83,140.29" style="stroke:#181818;stroke-width:1.0;"/></g><g id="link_CommunicationChannelTypes_CommunicationChannel"><path d="M2056.85,140.07 C2049.85,157.01 2039.26,182.67 2032.24,199.68 " fill="none" id="CommunicationChannelTypes-CommunicationChannel" style="stroke:#181818;stroke-width:1.0;"/></g><g id="link_CommunicationChannel_Person"><path d="M1936.6665,239.5849 C1846.9765,260.2549 1714.11,290.87 1648.87,305.91 " fill="none" id="CommunicationChannel-backto-Person" style="stroke:#181818;stroke-width:1.0;"/><polygon fill="#181818" points="1948.36,236.89,1941.615,234.3396,1936.6665,239.5849,1943.4116,242.1353,1948.36,236.89" style="stroke:#181818;stroke-width:1.0;"/></g><g id="link_CommunicationChannel_StaffMember"><path d="M1993.2191,244.5654 C1956.4691,275.4154 1897,335.36 1897,410.2 C1897,410.2 1897,410.2 1897,508.69 C1897,645.9 1743.37,590.21 1610,622.42 C1336.02,688.59 996.1,698.4 866.54,699.62 " fill="none" id="CommunicationChannel-backto-StaffMember" style="stroke:#181818;stroke-width:1.0;"/><polygon fill="#181818" points="2002.41,236.85,1995.2427,237.644,1993.2191,244.5654,2000.3863,243.7713,2002.41,236.85" style="stroke:#181818;stroke-width:1.0;"/></g><g id="link_ControlAccountRoleTypes_ControlAccount"><path d="M485.76,140.4 C445.38,157.28 384.85,182.59 344.42,199.49 " fill="none" id="ControlAccountRoleTypes-ControlAccount" style="stroke:#181818;stroke-width:1.0;"/></g><g id="link_ControlAccountTypes_ControlAccount"><path d="M130.19,140.29 C167.97,157.21 224.83,182.67 262.66,199.61 " fill="none" id="ControlAccountTypes-ControlAccount" style="stroke:#181818;stroke-width:1.0;"/></g><g id="link_ControlAccount_Department"><path d="M303.5491,248.8335 C305.4591,285.2135 309.18,356.27 311.08,392.62 " fill="none" id="ControlAccount-backto-Department" style="stroke:#181818;stroke-width:1.0;"/><polygon fill="#181818" points="302.92,236.85,299.2401,243.0515,303.5491,248.8335,307.2291,242.632,302.92,236.85" style="stroke:#181818;stroke-width:1.0;"/></g><g id="link_DaysOfWeekTypes_TimeSlot"><path d="M1387.79,526.24 C1357.71,543.16 1312.44,568.62 1282.32,585.56 " fill="none" id="DaysOfWeekTypes-TimeSlot" style="stroke:#181818;stroke-width:1.0;"/></g><g id="link_Department_StaffMember"><path d="M313.2,429.89 C316.99,470.76 332.34,572.11 393,622.42 C448.07,668.1 658.82,688.81 759.22,696.23 " fill="none" id="Department-StaffMember" style="stroke:#181818;stroke-width:1.0;"/></g><g id="link_DurationUOMTypes_EffectivePeriod"><path d="M1251,429.53 C1251,446.47 1251,472.13 1251,489.15 " fill="none" id="DurationUOMTypes-EffectivePeriod" style="stroke:#181818;stroke-width:1.0;"/></g><g id="link_EffectivePeriod_PayRate"><path d="M1190.12,522.19 C1184.33,523.46 1178.56,524.72 1173,525.93 C1054.95,551.65 914.99,581.5 849.81,595.36 " fill="none" id="EffectivePeriod-PayRate" style="stroke:#181818;stroke-width:1.0;"/></g><g id="link_EffectivePeriod_TimeSlot"><path d="M1240.57,526.02 C1236.99,542.96 1236.98,568.62 1240.53,585.64 " fill="none" id="EffectivePeriod-TimeSlot" style="stroke:#181818;stroke-width:1.0;"/></g><g id="link_TimeSlot_EffectivePeriod"><path d="M1261.47,585.64 C1265.02,568.62 1265.01,542.96 1261.43,526.02 " fill="none" id="TimeSlot-EffectivePeriod" style="stroke:#181818;stroke-width:1.0;"/></g><g id="link_FinancialCategoryTypes_ControlAccount"><path d="M302,140.07 C302,157.01 302,182.67 302,199.68 " fill="none" id="FinancialCategoryTypes-ControlAccount" style="stroke:#181818;stroke-width:1.0;"/></g><g id="link_GenderTypes_Person"><path d="M1559.47,236.55 C1571.66,253.5 1590.13,279.16 1602.38,296.17 " fill="none" id="GenderTypes-Person" style="stroke:#181818;stroke-width:1.0;"/></g><g id="link_Identifier_ControlAccount"><path d="M651.2165,138.1631 C644.9465,139.9231 650.09,138.42 644,139.98 C547.74,164.66 435.17,189.28 366.24,203.87 " fill="none" id="Identifier-backto-ControlAccount" style="stroke:#181818;stroke-width:1.0;"/><polygon fill="#181818" points="662.77,134.92,655.9122,132.6904,651.2165,138.1631,658.0743,140.3927,662.77,134.92" style="stroke:#181818;stroke-width:1.0;"/></g><g id="link_Identifier_Party"><path d="M691.445,151.266 C677.855,182.366 654.07,238.38 634,296.47 C622.38,330.09 611.4,370.21 605.49,392.69 " fill="none" id="Identifier-backto-Party" style="stroke:#181818;stroke-width:1.0;"/><polygon fill="#181818" points="696.25,140.27,690.1822,144.1663,691.445,151.266,697.5128,147.3697,696.25,140.27" style="stroke:#181818;stroke-width:1.0;"/></g><g id="link_Identifier_Person"><path d="M755.7458,145.0859 C815.5758,170.3359 920.25,211.75 1023,236.47 C1231.6,286.66 1489.92,306.19 1581.16,311.82 " fill="none" id="Identifier-backto-Person" style="stroke:#181818;stroke-width:1.0;"/><polygon fill="#181818" points="744.69,140.42,748.6626,146.4382,755.7458,145.0859,751.7732,139.0677,744.69,140.42" style="stroke:#181818;stroke-width:1.0;"/></g><g id="link_Identifier_PrivacyItem"><path d="M757.3282,129.61 C842.3682,140.76 1030.69,166.81 1197,199.98 C1204.22,201.42 1211.81,203.09 1219.23,204.82 " fill="none" id="Identifier-backto-PrivacyItem" style="stroke:#181818;stroke-width:1.0;"/><polygon fill="#181818" points="745.43,128.05,750.8591,132.7961,757.3282,129.61,751.8991,124.864,745.43,128.05" style="stroke:#181818;stroke-width:1.0;"/></g><g id="link_Identifier_StaffMember"><path d="M651.5956,145.3568 C572.5456,180.5168 419,255.79 419,313.71 C419,313.71 419,313.71 419,508.69 C419,658.06 651.14,690.64 759.04,697.72 " fill="none" id="Identifier-backto-StaffMember" style="stroke:#181818;stroke-width:1.0;"/><polygon fill="#181818" points="662.56,140.48,655.4522,139.2636,651.5956,145.3568,658.7034,146.5732,662.56,140.48" style="stroke:#181818;stroke-width:1.0;"/></g><g id="link_Identifier_TextualDetail"><path d="M704.468,152.3585 C705.038,188.7385 706.15,259.79 706.72,296.13 " fill="none" id="Identifier-backto-TextualDetail" style="stroke:#181818;stroke-width:1.0;"/><polygon fill="#181818" points="704.28,140.36,700.3745,146.4219,704.468,152.3585,708.3735,146.2966,704.28,140.36" style="stroke:#181818;stroke-width:1.0;"/></g><g id="link_MaritalStatusTypes_Person"><path d="M1693.39,236.55 C1676.18,253.5 1650.11,279.16 1632.82,296.17 " fill="none" id="MaritalStatusTypes-Person" style="stroke:#181818;stroke-width:1.0;"/></g><g id="link_MetricNameValue_Person"><path d="M1191.6129,234.53 C1199.1029,235.94 1194.81,235.12 1202,236.47 C1342.71,262.81 1510.39,294.16 1581,307.36 " fill="none" id="MetricNameValue-backto-Person" style="stroke:#181818;stroke-width:1.0;"/><polygon fill="#181818" points="1179.82,232.31,1184.9764,237.351,1191.6129,234.53,1186.4564,229.4891,1179.82,232.31" style="stroke:#181818;stroke-width:1.0;"/></g><g id="link_Money_PayRate"><path d="M863.63,526.02 C852.51,542.96 835.67,568.62 824.51,585.64 " fill="none" id="Money-PayRate" style="stroke:#181818;stroke-width:1.0;"/></g><g id="link_NarrativeUomTypes_MetricNameValue"><path d="M1105.1,140.07 C1106.18,157.01 1107.81,182.67 1108.89,199.68 " fill="none" id="NarrativeUomTypes-MetricNameValue" style="stroke:#181818;stroke-width:1.0;"/></g><g id="link_Party_PartyIdentifier"><path d="M601,429.53 C601,446.47 601,472.13 601,489.15 " fill="none" id="Party-PartyIdentifier" style="stroke:#181818;stroke-width:1.0;"/></g><g id="link_PartyIdentifier_PayRate"><path d="M651.3403,531.1259 C690.2603,548.4759 738.36,569.91 776.31,586.83 " fill="none" id="PartyIdentifier-backto-PayRate" style="stroke:#181818;stroke-width:1.0;"/><polygon fill="#181818" points="640.38,526.24,644.2315,532.3364,651.3403,531.1259,647.4888,525.0295,640.38,526.24" style="stroke:#181818;stroke-width:1.0;"/></g><g id="link_PartyIdentifier_StaffMember"><path d="M629.4752,534.3423 C669.8652,570.7323 753.14,645.74 793.48,682.08 " fill="none" id="PartyIdentifier-backto-StaffMember" style="stroke:#181818;stroke-width:1.0;"/><polygon fill="#181818" points="620.56,526.31,622.3402,533.2979,629.4752,534.3423,627.6951,527.3544,620.56,526.31" style="stroke:#181818;stroke-width:1.0;"/></g><g id="link_PayrollCycleFrequencyTypes_PayRate"><path d="M1004.89,526.35 C960.19,544.24 891.84,571.61 849.92,588.4 " fill="none" id="PayrollCycleFrequencyTypes-PayRate" style="stroke:#181818;stroke-width:1.0;"/></g><g id="link_PayRate_StaffMember"><path d="M813,634.51 C813,651.45 813,665.11 813,682.13 " fill="none" id="PayRate-backto-StaffMember" style="stroke:#181818;stroke-width:1.0;"/><polygon fill="#181818" points="813,622.51,809,628.51,813,634.51,817,628.51,813,622.51" style="stroke:#181818;stroke-width:1.0;"/></g><g id="link_Person_StaffMember"><path d="M1618.85,333.16 C1629.31,385.71 1652.24,543.72 1570,622.42 C1519.29,670.94 1031.17,692.14 866.75,697.94 " fill="none" id="Person-StaffMember" style="stroke:#181818;stroke-width:1.0;"/></g><g id="link_PersonName_Person"><path d="M1443.19,236.78 C1482.88,254.55 1543.62,281.75 1581.24,298.59 " fill="none" id="PersonName-Person" style="stroke:#181818;stroke-width:1.0;"/></g><g id="link_Person_Party"><path d="M1569.3117,319.9729 C1412.7817,334.5529 770.86,394.37 628.46,407.64 " fill="none" id="Person-backto-Party" style="stroke:#181818;stroke-width:1.0;"/><polygon fill="#181818" points="1581.26,318.86,1574.9149,315.4337,1569.3117,319.9729,1575.6568,323.3992,1581.26,318.86" style="stroke:#181818;stroke-width:1.0;"/></g><g id="link_PrivacyContextTypes_PrivacyEvent"><path d="M1101.89,43.8 C1138.42,60.72 1193.39,86.18 1229.96,103.12 " fill="none" id="PrivacyContextTypes-PrivacyEvent" style="stroke:#181818;stroke-width:1.0;"/></g><g id="link_PrivacyEvent_PrivacyItem"><path d="M1268,152.07 C1268,169.01 1268,182.67 1268,199.68 " fill="none" id="PrivacyEvent-backto-PrivacyItem" style="stroke:#181818;stroke-width:1.0;"/><polygon fill="#181818" points="1268,140.07,1264,146.07,1268,152.07,1272,146.07,1268,140.07" style="stroke:#181818;stroke-width:1.0;"/></g><g id="link_PrivacyItem_Person"><path d="M1328.4735,235.3368 C1385.4535,250.5568 1470.84,273.49 1554,296.47 C1562.8,298.9 1572.31,301.57 1581.14,304.06 " fill="none" id="PrivacyItem-backto-Person" style="stroke:#181818;stroke-width:1.0;"/><polygon fill="#181818" points="1316.88,232.24,1321.6445,237.6529,1328.4735,235.3368,1323.709,229.9239,1316.88,232.24" style="stroke:#181818;stroke-width:1.0;"/></g><g id="link_PrivacyItem_StaffMember"><path d="M1312.1876,242.7137 C1394.4176,288.2537 1582.93,408.43 1509,525.93 C1439.57,636.29 1018.14,682.34 866.94,695.46 " fill="none" id="PrivacyItem-backto-StaffMember" style="stroke:#181818;stroke-width:1.0;"/><polygon fill="#181818" points="1301.69,236.9,1305.0009,243.3061,1312.1876,242.7137,1308.8767,236.3076,1301.69,236.9" style="stroke:#181818;stroke-width:1.0;"/></g><g id="link_PrivacyLegalBasisTypes_PrivacyEvent"><path d="M1268,43.58 C1268,60.52 1268,86.18 1268,103.2 " fill="none" id="PrivacyLegalBasisTypes-PrivacyEvent" style="stroke:#181818;stroke-width:1.0;"/></g><g id="link_PrivacyStateTypes_PrivacyEvent"><path d="M1425.96,43.8 C1391.23,60.72 1338.95,86.18 1304.17,103.12 " fill="none" id="PrivacyStateTypes-PrivacyEvent" style="stroke:#181818;stroke-width:1.0;"/></g><g id="link_PrivacyTypes_PrivacyItem"><path d="M1382,140.29 C1356.85,157.26 1318.96,182.83 1293.87,199.77 " fill="none" id="PrivacyTypes-PrivacyItem" style="stroke:#181818;stroke-width:1.0;"/></g><g id="link_StaffPayTypes_PayRate"><path d="M762.37,526.02 C773.49,542.96 790.33,568.62 801.49,585.64 " fill="none" id="StaffPayTypes-PayRate" style="stroke:#181818;stroke-width:1.0;"/></g><g id="link_TextualDetail_PayRate"><path d="M639.9619,336.3843 C607.9819,348.4443 580.65,363.67 556,392.96 C516.98,439.31 489.14,477.85 526,525.93 C556.45,565.66 705.57,589.54 776.01,598.77 " fill="none" id="TextualDetail-backto-PayRate" style="stroke:#181818;stroke-width:1.0;"/><polygon fill="#181818" points="651.19,332.15,644.1645,330.5244,639.9619,336.3843,646.9873,338.0098,651.19,332.15" style="stroke:#181818;stroke-width:1.0;"/></g></g></svg>