<?xml version="1.0" encoding="us-ascii" standalone="no"?><svg xmlns="http://www.w3.org/2000/svg" xmlns:xlink="http://www.w3.org/1999/xlink" contentStyleType="text/css" height="730px" preserveAspectRatio="none" style="width:1166px;height:730px;background:#FFFFFF;" version="1.1" viewBox="0 0 1166 730" width="1166px" zoomAndPan="magnify"><defs/><g><g id="elem_Money"><rect codeLine="1" fill="#F1F1F1" height="163.418" id="Money" rx="2.5" ry="2.5" style="stroke:#181818;stroke-width:0.5;" width="213" x="7" y="89.44"/><ellipse cx="86.75" cy="105.44" fill="#ADD1B2" rx="11" ry="11" style="stroke:#181818;stroke-width:1.0;"/><path d="M89.2231,111.5831 Q88.6421,111.8819 88.0029,112.0313 Q87.3638,112.1807 86.6582,112.1807 Q84.1514,112.1807 82.8315,110.5289 Q81.5117,108.877 81.5117,105.7559 Q81.5117,102.6265 82.8315,100.9747 Q84.1514,99.3228 86.6582,99.3228 Q87.3638,99.3228 88.0112,99.4722 Q88.6587,99.6216 89.2231,99.9205 L89.2231,102.6431 Q88.5923,102.0621 87.9988,101.7923 Q87.4053,101.5225 86.7744,101.5225 Q85.4297,101.5225 84.7449,102.5892 Q84.0601,103.6558 84.0601,105.7559 Q84.0601,107.8477 84.7449,108.9144 Q85.4297,109.981 86.7744,109.981 Q87.4053,109.981 87.9988,109.7112 Q88.5923,109.4415 89.2231,108.8604 Z " fill="#000000"/><text fill="#000000" font-family="sans-serif" font-size="14" lengthAdjust="spacing" textLength="45" x="107.25" y="110.731">Money</text><line style="stroke:#181818;stroke-width:0.5;" x1="8" x2="219" y1="121.44" y2="121.44"/><text fill="#000000" font-family="sans-serif" font-size="14" lengthAdjust="spacing" textLength="115" x="13" y="138.9752">moneyKey:String</text><text fill="#000000" font-family="sans-serif" font-size="14" lengthAdjust="spacing" textLength="104" x="13" y="155.4634">moneyId:String</text><text fill="#000000" font-family="sans-serif" font-size="14" lengthAdjust="spacing" textLength="140" x="13" y="171.9517">currencyCode:String</text><text fill="#000000" font-family="sans-serif" font-size="14" lengthAdjust="spacing" textLength="131" x="13" y="188.44">displayValue:String</text><text fill="#000000" font-family="sans-serif" font-size="14" lengthAdjust="spacing" textLength="85" x="13" y="204.9283">locale:String</text><text fill="#000000" font-family="sans-serif" font-size="14" lengthAdjust="spacing" textLength="81" x="13" y="221.4166">value:String</text><text fill="#000000" font-family="sans-serif" font-size="14" lengthAdjust="spacing" textLength="201" x="13" y="237.9048">taxIncludedIndicator:Boolean</text><line style="stroke:#181818;stroke-width:0.5;" x1="8" x2="219" y1="244.858" y2="244.858"/></g><g id="elem_PayrollEvent"><rect codeLine="10" fill="#F1F1F1" height="328.3008" id="PayrollEvent" rx="2.5" ry="2.5" style="stroke:#181818;stroke-width:0.5;" width="380" x="370.5" y="395.3"/><ellipse cx="514.75" cy="411.3" fill="#ADD1B2" rx="11" ry="11" style="stroke:#181818;stroke-width:1.0;"/><path d="M517.2231,417.4431 Q516.6421,417.7419 516.0029,417.8913 Q515.3638,418.0407 514.6582,418.0407 Q512.1514,418.0407 510.8315,416.3889 Q509.5117,414.737 509.5117,411.6159 Q509.5117,408.4865 510.8315,406.8347 Q512.1514,405.1828 514.6582,405.1828 Q515.3638,405.1828 516.0112,405.3322 Q516.6587,405.4816 517.2231,405.7805 L517.2231,408.5031 Q516.5923,407.9221 515.9988,407.6523 Q515.4053,407.3825 514.7744,407.3825 Q513.4297,407.3825 512.7449,408.4492 Q512.0601,409.5158 512.0601,411.6159 Q512.0601,413.7077 512.7449,414.7744 Q513.4297,415.841 514.7744,415.841 Q515.4053,415.841 515.9988,415.5712 Q516.5923,415.3015 517.2231,414.7204 Z " fill="#000000"/><text fill="#000000" font-family="sans-serif" font-size="14" lengthAdjust="spacing" textLength="83" x="535.25" y="416.591">PayrollEvent</text><line style="stroke:#181818;stroke-width:0.5;" x1="371.5" x2="749.5" y1="427.3" y2="427.3"/><text fill="#000000" font-family="sans-serif" font-size="14" lengthAdjust="spacing" textLength="142" x="376.5" y="444.8352">payrollEventId:String</text><text fill="#000000" font-family="sans-serif" font-size="14" lengthAdjust="spacing" textLength="153" x="376.5" y="461.3234">payrollEventKey:String</text><text fill="#000000" font-family="sans-serif" font-size="14" lengthAdjust="spacing" textLength="88" x="376.5" y="477.8117">staffId:String</text><text fill="#000000" font-family="sans-serif" font-size="14" lengthAdjust="spacing" textLength="152" x="376.5" y="494.3">payrollCycleKey:String</text><text fill="#000000" font-family="sans-serif" font-size="14" lengthAdjust="spacing" textLength="168" x="376.5" y="510.7883">employingEntityId:String</text><text fill="#000000" font-family="sans-serif" font-size="14" lengthAdjust="spacing" textLength="244" x="376.5" y="527.2766">payrollEventType:PayrollEventTypes</text><text fill="#000000" font-family="sans-serif" font-size="14" lengthAdjust="spacing" textLength="152" x="376.5" y="543.7648">payerType:PayerTypes</text><text fill="#000000" font-family="sans-serif" font-size="14" lengthAdjust="spacing" textLength="118" x="376.5" y="560.2531">eventCode:String</text><text fill="#000000" font-family="sans-serif" font-size="14" lengthAdjust="spacing" textLength="160" x="376.5" y="576.7414">eventDescription:String</text><text fill="#000000" font-family="sans-serif" font-size="14" lengthAdjust="spacing" textLength="102" x="376.5" y="593.2297">amount:Money</text><text fill="#000000" font-family="sans-serif" font-size="14" lengthAdjust="spacing" textLength="72" x="376.5" y="609.718">rate:String</text><text fill="#000000" font-family="sans-serif" font-size="14" lengthAdjust="spacing" textLength="137" x="376.5" y="626.2063">hoursWorked:String</text><text fill="#000000" font-family="sans-serif" font-size="14" lengthAdjust="spacing" textLength="125" x="376.5" y="642.6945">ytdAmount:Money</text><text fill="#000000" font-family="sans-serif" font-size="14" lengthAdjust="spacing" textLength="150" x="376.5" y="659.1828">eventReference:String</text><text fill="#000000" font-family="sans-serif" font-size="14" lengthAdjust="spacing" textLength="176" x="376.5" y="675.6711">occurrenceDateTime:Date</text><text fill="#000000" font-family="sans-serif" font-size="14" lengthAdjust="spacing" textLength="314" x="376.5" y="692.1594">payrollAggregateType:PayrollAggregateTypes</text><text fill="#000000" font-family="sans-serif" font-size="14" lengthAdjust="spacing" textLength="368" x="376.5" y="708.6477">payrollEventCategoryType:PayrollEventCategoryTypes</text><line style="stroke:#181818;stroke-width:0.5;" x1="371.5" x2="749.5" y1="715.6008" y2="715.6008"/></g><g id="elem_PayerTypes"><rect codeLine="29" fill="#FAFF91" height="130.4414" id="PayerTypes" rx="2.5" ry="2.5" style="stroke:#181818;stroke-width:0.5;" width="175" x="255" y="105.93"/><ellipse cx="299.75" cy="121.93" fill="#ADD1B2" rx="11" ry="11" style="stroke:#181818;stroke-width:1.0;"/><path d="M302.2231,128.0731 Q301.6421,128.3719 301.0029,128.5213 Q300.3638,128.6707 299.6582,128.6707 Q297.1514,128.6707 295.8315,127.0189 Q294.5117,125.367 294.5117,122.2459 Q294.5117,119.1165 295.8315,117.4647 Q297.1514,115.8128 299.6582,115.8128 Q300.3638,115.8128 301.0112,115.9622 Q301.6587,116.1116 302.2231,116.4105 L302.2231,119.1331 Q301.5923,118.5521 300.9988,118.2823 Q300.4053,118.0125 299.7744,118.0125 Q298.4297,118.0125 297.7449,119.0792 Q297.0601,120.1458 297.0601,122.2459 Q297.0601,124.3377 297.7449,125.4044 Q298.4297,126.471 299.7744,126.471 Q300.4053,126.471 300.9988,126.2012 Q301.5923,125.9315 302.2231,125.3504 Z " fill="#000000"/><text fill="#000000" font-family="sans-serif" font-size="14" lengthAdjust="spacing" textLength="77" x="320.25" y="127.221">PayerTypes</text><line style="stroke:#181818;stroke-width:0.5;" x1="256" x2="429" y1="137.93" y2="137.93"/><text fill="#000000" font-family="sans-serif" font-size="14" lengthAdjust="spacing" textLength="84" x="261" y="155.4652">AGGREGATE</text><text fill="#000000" font-family="sans-serif" font-size="14" lengthAdjust="spacing" textLength="162" x="261" y="171.9534">AGGREGATE_EMPLOYEE</text><text fill="#000000" font-family="sans-serif" font-size="14" lengthAdjust="spacing" textLength="163" x="261" y="188.4417">AGGREGATE_EMPLOYER</text><text fill="#000000" font-family="sans-serif" font-size="14" lengthAdjust="spacing" textLength="71" x="261" y="204.93">EMPLOYEE</text><text fill="#000000" font-family="sans-serif" font-size="14" lengthAdjust="spacing" textLength="72" x="261" y="221.4183">EMPLOYER</text><line style="stroke:#181818;stroke-width:0.5;" x1="256" x2="429" y1="228.3714" y2="228.3714"/></g><g id="elem_PayrollAggregateTypes"><rect codeLine="36" fill="#FAFF91" height="130.4414" id="PayrollAggregateTypes" rx="2.5" ry="2.5" style="stroke:#181818;stroke-width:0.5;" width="190" x="465.5" y="105.93"/><ellipse cx="480.5" cy="121.93" fill="#ADD1B2" rx="11" ry="11" style="stroke:#181818;stroke-width:1.0;"/><path d="M482.9731,128.0731 Q482.3921,128.3719 481.7529,128.5213 Q481.1138,128.6707 480.4082,128.6707 Q477.9014,128.6707 476.5815,127.0189 Q475.2617,125.367 475.2617,122.2459 Q475.2617,119.1165 476.5815,117.4647 Q477.9014,115.8128 480.4082,115.8128 Q481.1138,115.8128 481.7612,115.9622 Q482.4087,116.1116 482.9731,116.4105 L482.9731,119.1331 Q482.3423,118.5521 481.7488,118.2823 Q481.1553,118.0125 480.5244,118.0125 Q479.1797,118.0125 478.4949,119.0792 Q477.8101,120.1458 477.8101,122.2459 Q477.8101,124.3377 478.4949,125.4044 Q479.1797,126.471 480.5244,126.471 Q481.1553,126.471 481.7488,126.2012 Q482.3423,125.9315 482.9731,125.3504 Z " fill="#000000"/><text fill="#000000" font-family="sans-serif" font-size="14" lengthAdjust="spacing" textLength="158" x="494.5" y="127.221">PayrollAggregateTypes</text><line style="stroke:#181818;stroke-width:0.5;" x1="466.5" x2="654.5" y1="137.93" y2="137.93"/><text fill="#000000" font-family="sans-serif" font-size="14" lengthAdjust="spacing" textLength="80" x="471.5" y="155.4652">GROSS_PAY</text><text fill="#000000" font-family="sans-serif" font-size="14" lengthAdjust="spacing" textLength="33" x="471.5" y="171.9534">ITEM</text><text fill="#000000" font-family="sans-serif" font-size="14" lengthAdjust="spacing" textLength="61" x="471.5" y="188.4417">NET_PAY</text><text fill="#000000" font-family="sans-serif" font-size="14" lengthAdjust="spacing" textLength="143" x="471.5" y="204.93">TOTAL_DEDUCTIONS</text><text fill="#000000" font-family="sans-serif" font-size="14" lengthAdjust="spacing" textLength="97" x="471.5" y="221.4183">TOTAL_TAXES</text><line style="stroke:#181818;stroke-width:0.5;" x1="466.5" x2="654.5" y1="228.3714" y2="228.3714"/></g><g id="elem_PayrollEventCategoryTypes"><rect codeLine="43" fill="#FAFF91" height="97.4648" id="PayrollEventCategoryTypes" rx="2.5" ry="2.5" style="stroke:#181818;stroke-width:0.5;" width="217" x="691" y="122.42"/><ellipse cx="706" cy="138.42" fill="#ADD1B2" rx="11" ry="11" style="stroke:#181818;stroke-width:1.0;"/><path d="M708.4731,144.5631 Q707.8921,144.8619 707.2529,145.0113 Q706.6138,145.1607 705.9082,145.1607 Q703.4014,145.1607 702.0815,143.5089 Q700.7617,141.857 700.7617,138.7359 Q700.7617,135.6065 702.0815,133.9547 Q703.4014,132.3028 705.9082,132.3028 Q706.6138,132.3028 707.2612,132.4522 Q707.9087,132.6016 708.4731,132.9005 L708.4731,135.6231 Q707.8423,135.0421 707.2488,134.7723 Q706.6553,134.5025 706.0244,134.5025 Q704.6797,134.5025 703.9949,135.5692 Q703.3101,136.6358 703.3101,138.7359 Q703.3101,140.8277 703.9949,141.8944 Q704.6797,142.961 706.0244,142.961 Q706.6553,142.961 707.2488,142.6912 Q707.8423,142.4215 708.4731,141.8404 Z " fill="#000000"/><text fill="#000000" font-family="sans-serif" font-size="14" lengthAdjust="spacing" textLength="185" x="720" y="143.711">PayrollEventCategoryTypes</text><line style="stroke:#181818;stroke-width:0.5;" x1="692" x2="907" y1="154.42" y2="154.42"/><text fill="#000000" font-family="sans-serif" font-size="14" lengthAdjust="spacing" textLength="78" x="697" y="171.9552">PAY_CYCLE</text><text fill="#000000" font-family="sans-serif" font-size="14" lengthAdjust="spacing" textLength="93" x="697" y="188.4434">PAY_RESULTS</text><text fill="#000000" font-family="sans-serif" font-size="14" lengthAdjust="spacing" textLength="69" x="697" y="204.9317">PAY_STUB</text><line style="stroke:#181818;stroke-width:0.5;" x1="692" x2="907" y1="211.8848" y2="211.8848"/></g><g id="elem_PayrollEventTypes"><rect codeLine="48" fill="#FAFF91" height="328.3008" id="PayrollEventTypes" rx="2.5" ry="2.5" style="stroke:#181818;stroke-width:0.5;" width="216" x="943.5" y="7"/><ellipse cx="985.95" cy="23" fill="#ADD1B2" rx="11" ry="11" style="stroke:#181818;stroke-width:1.0;"/><path d="M988.4231,29.1431 Q987.8421,29.4419 987.2029,29.5913 Q986.5638,29.7407 985.8582,29.7407 Q983.3514,29.7407 982.0315,28.0889 Q980.7117,26.437 980.7117,23.3159 Q980.7117,20.1865 982.0315,18.5347 Q983.3514,16.8828 985.8582,16.8828 Q986.5638,16.8828 987.2112,17.0322 Q987.8587,17.1816 988.4231,17.4805 L988.4231,20.2031 Q987.7923,19.6221 987.1988,19.3523 Q986.6053,19.0825 985.9744,19.0825 Q984.6297,19.0825 983.9449,20.1492 Q983.2601,21.2158 983.2601,23.3159 Q983.2601,25.4077 983.9449,26.4744 Q984.6297,27.541 985.9744,27.541 Q986.6053,27.541 987.1988,27.2712 Q987.7923,27.0015 988.4231,26.4204 Z " fill="#000000"/><text fill="#000000" font-family="sans-serif" font-size="14" lengthAdjust="spacing" textLength="123" x="1006.05" y="28.291">PayrollEventTypes</text><line style="stroke:#181818;stroke-width:0.5;" x1="944.5" x2="1158.5" y1="39" y2="39"/><text fill="#000000" font-family="sans-serif" font-size="14" lengthAdjust="spacing" textLength="98" x="949.5" y="56.5352">BONUS_EVENT</text><text fill="#000000" font-family="sans-serif" font-size="14" lengthAdjust="spacing" textLength="141" x="949.5" y="73.0234">COMMISSION_EVENT</text><text fill="#000000" font-family="sans-serif" font-size="14" lengthAdjust="spacing" textLength="131" x="949.5" y="89.5117">CYCLE_PROCESSED</text><text fill="#000000" font-family="sans-serif" font-size="14" lengthAdjust="spacing" textLength="133" x="949.5" y="106">DEDUCTION_EVENT</text><text fill="#000000" font-family="sans-serif" font-size="14" lengthAdjust="spacing" textLength="183" x="949.5" y="122.4883">EXPENSE_PAYMENT_EVENT</text><text fill="#000000" font-family="sans-serif" font-size="14" lengthAdjust="spacing" textLength="75" x="949.5" y="138.9766">FEE_EVENT</text><text fill="#000000" font-family="sans-serif" font-size="14" lengthAdjust="spacing" textLength="151" x="949.5" y="155.4648">GARNISHMENT_EVENT</text><text fill="#000000" font-family="sans-serif" font-size="14" lengthAdjust="spacing" textLength="99" x="949.5" y="171.9531">HOURS_EVENT</text><text fill="#000000" font-family="sans-serif" font-size="14" lengthAdjust="spacing" textLength="121" x="949.5" y="188.4414">OVERTIME_EVENT</text><text fill="#000000" font-family="sans-serif" font-size="14" lengthAdjust="spacing" textLength="117" x="949.5" y="204.9297">PAYMENT_EVENT</text><text fill="#000000" font-family="sans-serif" font-size="14" lengthAdjust="spacing" textLength="204" x="949.5" y="221.418">POSTTAX_DEDUCTION_EVENT</text><text fill="#000000" font-family="sans-serif" font-size="14" lengthAdjust="spacing" textLength="166" x="949.5" y="237.9063">PRETAX_BENEFIT_EVENT</text><text fill="#000000" font-family="sans-serif" font-size="14" lengthAdjust="spacing" textLength="193" x="949.5" y="254.3945">PRETAX_DEDUCTION_EVENT</text><text fill="#000000" font-family="sans-serif" font-size="14" lengthAdjust="spacing" textLength="166" x="949.5" y="270.8828">REIMBURSEMENT_EVENT</text><text fill="#000000" font-family="sans-serif" font-size="14" lengthAdjust="spacing" textLength="179" x="949.5" y="287.3711">RETIREMENT_PLAN_EVENT</text><text fill="#000000" font-family="sans-serif" font-size="14" lengthAdjust="spacing" textLength="79" x="949.5" y="303.8594">TAX_EVENT</text><text fill="#000000" font-family="sans-serif" font-size="14" lengthAdjust="spacing" textLength="72" x="949.5" y="320.3477">UNKNOWN</text><line style="stroke:#181818;stroke-width:0.5;" x1="944.5" x2="1158.5" y1="327.3008" y2="327.3008"/></g><g id="link_Money_PayrollEvent"><path codeLine="67" d="M167.17,253.1 C187.48,280.75 211.91,310.84 237.5,335.3 C277.54,373.56 324.69,410.01 370.42,441.95 " fill="none" id="Money-PayrollEvent" style="stroke:#181818;stroke-width:1.0;"/></g><g id="link_PayerTypes_PayrollEvent"><path codeLine="68" d="M378.99,236.81 C403.41,280.09 436.73,339.12 468.15,394.8 " fill="none" id="PayerTypes-PayrollEvent" style="stroke:#181818;stroke-width:1.0;"/></g><g id="link_PayrollAggregateTypes_PayrollEvent"><path codeLine="69" d="M560.5,236.81 C560.5,280.09 560.5,339.12 560.5,394.8 " fill="none" id="PayrollAggregateTypes-PayrollEvent" style="stroke:#181818;stroke-width:1.0;"/></g><g id="link_PayrollEventCategoryTypes_PayrollEvent"><path codeLine="70" d="M769.71,220.29 C742.5,264.28 700.65,331.92 661.51,395.18 " fill="none" id="PayrollEventCategoryTypes-PayrollEvent" style="stroke:#181818;stroke-width:1.0;"/></g><g id="link_PayrollEventTypes_PayrollEvent"><path codeLine="71" d="M943.21,318.32 C937.41,324.23 931.5,329.92 925.5,335.3 C873.24,382.16 809.83,424.83 750.62,460.02 " fill="none" id="PayrollEventTypes-PayrollEvent" style="stroke:#181818;stroke-width:1.0;"/></g></g></svg>