<?xml version="1.0" encoding="us-ascii" standalone="no"?><svg xmlns="http://www.w3.org/2000/svg" xmlns:xlink="http://www.w3.org/1999/xlink" contentStyleType="text/css" height="145px" preserveAspectRatio="none" style="width:840px;height:145px;background:#FFFFFF;" version="1.1" viewBox="0 0 840 145" width="840px" zoomAndPan="magnify"><defs/><g><g id="elem_Money"><rect fill="#F1F1F1" height="36.4883" rx="2.5" ry="2.5" style="stroke:#181818;stroke-width:0.5;" width="65" x="7" y="7"/><text fill="#000000" font-family="sans-serif" font-size="14" lengthAdjust="spacing" textLength="45" x="17" y="30.5352">Money</text></g><g id="elem_PayrollEvent"><rect fill="#F1F1F1" height="36.4883" rx="2.5" ry="2.5" style="stroke:#181818;stroke-width:0.5;" width="103" x="276" y="103.49"/><text fill="#000000" font-family="sans-serif" font-size="14" lengthAdjust="spacing" textLength="83" x="286" y="127.0252">PayrollEvent</text></g><g id="elem_PayerTypes"><rect fill="#FAFF91" height="36.4883" rx="2.5" ry="2.5" style="stroke:#181818;stroke-width:0.5;" width="97" x="107" y="7"/><text fill="#000000" font-family="sans-serif" font-size="14" lengthAdjust="spacing" textLength="77" x="117" y="30.5352">PayerTypes</text></g><g id="elem_PayrollAggregateTypes"><rect fill="#FAFF91" height="36.4883" rx="2.5" ry="2.5" style="stroke:#181818;stroke-width:0.5;" width="178" x="238.5" y="7"/><text fill="#000000" font-family="sans-serif" font-size="14" lengthAdjust="spacing" textLength="158" x="248.5" y="30.5352">PayrollAggregateTypes</text></g><g id="elem_PayrollEventCategoryTypes"><rect fill="#FAFF91" height="36.4883" rx="2.5" ry="2.5" style="stroke:#181818;stroke-width:0.5;" width="205" x="451" y="7"/><text fill="#000000" font-family="sans-serif" font-size="14" lengthAdjust="spacing" textLength="185" x="461" y="30.5352">PayrollEventCategoryTypes</text></g><g id="elem_PayrollEventTypes"><rect fill="#FAFF91" height="36.4883" rx="2.5" ry="2.5" style="stroke:#181818;stroke-width:0.5;" width="143" x="691" y="7"/><text fill="#000000" font-family="sans-serif" font-size="14" lengthAdjust="spacing" textLength="123" x="701" y="30.5352">PayrollEventTypes</text></g><g id="link_Money_PayrollEvent"><path d="M72.28,37.65 C78.02,39.62 83.93,41.63 89.5,43.49 C153.56,64.93 227.61,88.83 275.88,104.28 " fill="none" id="Money-PayrollEvent" style="stroke:#181818;stroke-width:1.0;"/></g><g id="link_PayerTypes_PayrollEvent"><path d="M187.45,43.8 C218.25,60.72 264.59,86.18 295.43,103.12 " fill="none" id="PayerTypes-PayrollEvent" style="stroke:#181818;stroke-width:1.0;"/></g><g id="link_PayrollAggregateTypes_PayrollEvent"><path d="M327.5,43.58 C327.5,60.52 327.5,86.18 327.5,103.2 " fill="none" id="PayrollAggregateTypes-PayrollEvent" style="stroke:#181818;stroke-width:1.0;"/></g><g id="link_PayrollEventCategoryTypes_PayrollEvent"><path d="M511.26,43.91 C470.88,60.79 410.35,86.1 369.92,103 " fill="none" id="PayrollEventCategoryTypes-PayrollEvent" style="stroke:#181818;stroke-width:1.0;"/></g><g id="link_PayrollEventTypes_PayrollEvent"><path d="M690.67,41.85 C602.95,60.9 456.73,92.66 379.29,109.49 " fill="none" id="PayrollEventTypes-PayrollEvent" style="stroke:#181818;stroke-width:1.0;"/></g></g></svg>