<?xml version="1.0" encoding="us-ascii" standalone="no"?><svg xmlns="http://www.w3.org/2000/svg" xmlns:xlink="http://www.w3.org/1999/xlink" contentStyleType="text/css" height="1243px" preserveAspectRatio="none" style="width:1918px;height:1243px;background:#FFFFFF;" version="1.1" viewBox="0 0 1918 1243" width="1918px" zoomAndPan="magnify"><defs/><g><g id="elem_EffectivePeriod"><rect codeLine="1" fill="#F1F1F1" height="245.8594" id="EffectivePeriod" rx="2.5" ry="2.5" style="stroke:#181818;stroke-width:0.5;" width="273" x="1446.5" y="701.16"/><ellipse cx="1528.25" cy="717.16" fill="#ADD1B2" rx="11" ry="11" style="stroke:#181818;stroke-width:1.0;"/><path d="M1530.7231,723.3031 Q1530.1421,723.6019 1529.5029,723.7513 Q1528.8638,723.9007 1528.1582,723.9007 Q1525.6514,723.9007 1524.3315,722.2489 Q1523.0117,720.597 1523.0117,717.4759 Q1523.0117,714.3465 1524.3315,712.6947 Q1525.6514,711.0428 1528.1582,711.0428 Q1528.8638,711.0428 1529.5112,711.1922 Q1530.1587,711.3416 1530.7231,711.6405 L1530.7231,714.3631 Q1530.0923,713.7821 1529.4988,713.5123 Q1528.9053,713.2425 1528.2744,713.2425 Q1526.9297,713.2425 1526.2449,714.3092 Q1525.5601,715.3758 1525.5601,717.4759 Q1525.5601,719.5677 1526.2449,720.6344 Q1526.9297,721.701 1528.2744,721.701 Q1528.9053,721.701 1529.4988,721.4312 Q1530.0923,721.1615 1530.7231,720.5804 Z " fill="#000000"/><text fill="#000000" font-family="sans-serif" font-size="14" lengthAdjust="spacing" textLength="101" x="1548.75" y="722.451">EffectivePeriod</text><line style="stroke:#181818;stroke-width:0.5;" x1="1447.5" x2="1718.5" y1="733.16" y2="733.16"/><text fill="#000000" font-family="sans-serif" font-size="14" lengthAdjust="spacing" textLength="170" x="1452.5" y="750.6952">effectivePeriodKey:String</text><text fill="#000000" font-family="sans-serif" font-size="14" lengthAdjust="spacing" textLength="159" x="1452.5" y="767.1834">activeIndicator:Boolean</text><text fill="#000000" font-family="sans-serif" font-size="14" lengthAdjust="spacing" textLength="183" x="1452.5" y="783.6717">exclusiveIndicator:Boolean</text><text fill="#000000" font-family="sans-serif" font-size="14" lengthAdjust="spacing" textLength="131" x="1452.5" y="800.16">startDateTime:Date</text><text fill="#000000" font-family="sans-serif" font-size="14" lengthAdjust="spacing" textLength="163" x="1452.5" y="816.6483">completeDateTime:Date</text><text fill="#000000" font-family="sans-serif" font-size="14" lengthAdjust="spacing" textLength="261" x="1452.5" y="833.1366">durationUomType:DurationUOMTypes</text><text fill="#000000" font-family="sans-serif" font-size="14" lengthAdjust="spacing" textLength="142" x="1452.5" y="849.6248">durationValue:String</text><text fill="#000000" font-family="sans-serif" font-size="14" lengthAdjust="spacing" textLength="238" x="1452.5" y="866.1131">recurUomType:DurationUOMTypes</text><text fill="#000000" font-family="sans-serif" font-size="14" lengthAdjust="spacing" textLength="123" x="1452.5" y="882.6014">recurCount:String</text><text fill="#000000" font-family="sans-serif" font-size="14" lengthAdjust="spacing" textLength="132" x="1452.5" y="899.0897">recurCriteria:String</text><text fill="#000000" font-family="sans-serif" font-size="14" lengthAdjust="spacing" textLength="156" x="1452.5" y="915.578">recurIndicator:Boolean</text><text fill="#000000" font-family="sans-serif" font-size="14" lengthAdjust="spacing" textLength="119" x="1452.5" y="932.0663">timeslot:TimeSlot</text><line style="stroke:#181818;stroke-width:0.5;" x1="1447.5" x2="1718.5" y1="939.0194" y2="939.0194"/></g><g id="elem_Identifier"><rect codeLine="15" fill="#F1F1F1" height="97.4648" id="Identifier" rx="2.5" ry="2.5" style="stroke:#181818;stroke-width:0.5;" width="143" x="247.5" y="7"/><ellipse cx="284.55" cy="23" fill="#ADD1B2" rx="11" ry="11" style="stroke:#181818;stroke-width:1.0;"/><path d="M287.0231,29.1431 Q286.4421,29.4419 285.8029,29.5913 Q285.1638,29.7407 284.4582,29.7407 Q281.9514,29.7407 280.6315,28.0889 Q279.3117,26.437 279.3117,23.3159 Q279.3117,20.1865 280.6315,18.5347 Q281.9514,16.8828 284.4582,16.8828 Q285.1638,16.8828 285.8112,17.0322 Q286.4587,17.1816 287.0231,17.4805 L287.0231,20.2031 Q286.3923,19.6221 285.7988,19.3523 Q285.2053,19.0825 284.5744,19.0825 Q283.2297,19.0825 282.5449,20.1492 Q281.8601,21.2158 281.8601,23.3159 Q281.8601,25.4077 282.5449,26.4744 Q283.2297,27.541 284.5744,27.541 Q285.2053,27.541 285.7988,27.2712 Q286.3923,27.0015 287.0231,26.4204 Z " fill="#000000"/><text fill="#000000" font-family="sans-serif" font-size="14" lengthAdjust="spacing" textLength="62" x="303.45" y="28.291">Identifier</text><line style="stroke:#181818;stroke-width:0.5;" x1="248.5" x2="389.5" y1="39" y2="39"/><text fill="#000000" font-family="sans-serif" font-size="14" lengthAdjust="spacing" textLength="131" x="253.5" y="56.5352">identifierKey:String</text><text fill="#000000" font-family="sans-serif" font-size="14" lengthAdjust="spacing" textLength="97" x="253.5" y="73.0234">context:String</text><text fill="#000000" font-family="sans-serif" font-size="14" lengthAdjust="spacing" textLength="120" x="253.5" y="89.5117">identifierId:String</text><line style="stroke:#181818;stroke-width:0.5;" x1="248.5" x2="389.5" y1="96.4648" y2="96.4648"/></g><g id="elem_Money"><rect codeLine="20" fill="#F1F1F1" height="163.418" id="Money" rx="2.5" ry="2.5" style="stroke:#181818;stroke-width:0.5;" width="213" x="492.5" y="321.1"/><ellipse cx="572.25" cy="337.1" fill="#ADD1B2" rx="11" ry="11" style="stroke:#181818;stroke-width:1.0;"/><path d="M574.7231,343.2431 Q574.1421,343.5419 573.5029,343.6913 Q572.8638,343.8407 572.1582,343.8407 Q569.6514,343.8407 568.3315,342.1889 Q567.0117,340.537 567.0117,337.4159 Q567.0117,334.2865 568.3315,332.6347 Q569.6514,330.9828 572.1582,330.9828 Q572.8638,330.9828 573.5112,331.1322 Q574.1587,331.2816 574.7231,331.5805 L574.7231,334.3031 Q574.0923,333.7221 573.4988,333.4523 Q572.9053,333.1825 572.2744,333.1825 Q570.9297,333.1825 570.2449,334.2492 Q569.5601,335.3158 569.5601,337.4159 Q569.5601,339.5077 570.2449,340.5744 Q570.9297,341.641 572.2744,341.641 Q572.9053,341.641 573.4988,341.3712 Q574.0923,341.1015 574.7231,340.5204 Z " fill="#000000"/><text fill="#000000" font-family="sans-serif" font-size="14" lengthAdjust="spacing" textLength="45" x="592.75" y="342.391">Money</text><line style="stroke:#181818;stroke-width:0.5;" x1="493.5" x2="704.5" y1="353.1" y2="353.1"/><text fill="#000000" font-family="sans-serif" font-size="14" lengthAdjust="spacing" textLength="115" x="498.5" y="370.6352">moneyKey:String</text><text fill="#000000" font-family="sans-serif" font-size="14" lengthAdjust="spacing" textLength="104" x="498.5" y="387.1234">moneyId:String</text><text fill="#000000" font-family="sans-serif" font-size="14" lengthAdjust="spacing" textLength="140" x="498.5" y="403.6117">currencyCode:String</text><text fill="#000000" font-family="sans-serif" font-size="14" lengthAdjust="spacing" textLength="131" x="498.5" y="420.1">displayValue:String</text><text fill="#000000" font-family="sans-serif" font-size="14" lengthAdjust="spacing" textLength="85" x="498.5" y="436.5883">locale:String</text><text fill="#000000" font-family="sans-serif" font-size="14" lengthAdjust="spacing" textLength="81" x="498.5" y="453.0766">value:String</text><text fill="#000000" font-family="sans-serif" font-size="14" lengthAdjust="spacing" textLength="201" x="498.5" y="469.5648">taxIncludedIndicator:Boolean</text><line style="stroke:#181818;stroke-width:0.5;" x1="493.5" x2="704.5" y1="476.518" y2="476.518"/></g><g id="elem_Party"><rect codeLine="29" fill="#F1F1F1" height="394.2539" id="Party" rx="2.5" ry="2.5" style="stroke:#181818;stroke-width:0.5;" width="306" x="63" y="205.68"/><ellipse cx="194.75" cy="221.68" fill="#ADD1B2" rx="11" ry="11" style="stroke:#181818;stroke-width:1.0;"/><path d="M197.2231,227.8231 Q196.6421,228.1219 196.0029,228.2713 Q195.3638,228.4207 194.6582,228.4207 Q192.1514,228.4207 190.8315,226.7689 Q189.5117,225.117 189.5117,221.9959 Q189.5117,218.8665 190.8315,217.2147 Q192.1514,215.5628 194.6582,215.5628 Q195.3638,215.5628 196.0112,215.7122 Q196.6587,215.8616 197.2231,216.1605 L197.2231,218.8831 Q196.5923,218.3021 195.9988,218.0323 Q195.4053,217.7625 194.7744,217.7625 Q193.4297,217.7625 192.7449,218.8292 Q192.0601,219.8958 192.0601,221.9959 Q192.0601,224.0877 192.7449,225.1544 Q193.4297,226.221 194.7744,226.221 Q195.4053,226.221 195.9988,225.9512 Q196.5923,225.6815 197.2231,225.1004 Z " fill="#000000"/><text fill="#000000" font-family="sans-serif" font-size="14" lengthAdjust="spacing" textLength="34" x="215.25" y="226.971">Party</text><line style="stroke:#181818;stroke-width:0.5;" x1="64" x2="368" y1="237.68" y2="237.68"/><text fill="#000000" font-family="sans-serif" font-size="14" lengthAdjust="spacing" textLength="76" x="69" y="255.2152">alias:String</text><text fill="#000000" font-family="sans-serif" font-size="14" lengthAdjust="spacing" textLength="116" x="69" y="271.7034">comments:String</text><text fill="#000000" font-family="sans-serif" font-size="14" lengthAdjust="spacing" textLength="263" x="69" y="288.1917">contactMethods:List&lt;ContactMethod&gt;</text><text fill="#000000" font-family="sans-serif" font-size="14" lengthAdjust="spacing" textLength="183" x="69" y="304.68">contactMethodsHref:String</text><text fill="#000000" font-family="sans-serif" font-size="14" lengthAdjust="spacing" textLength="133" x="69" y="321.1683">countryCode:String</text><text fill="#000000" font-family="sans-serif" font-size="14" lengthAdjust="spacing" textLength="106" x="69" y="337.6566">fullName:String</text><text fill="#000000" font-family="sans-serif" font-size="14" lengthAdjust="spacing" textLength="180" x="69" y="354.1448">identifiers:List&lt;Identifier&gt;</text><text fill="#000000" font-family="sans-serif" font-size="14" lengthAdjust="spacing" textLength="143" x="69" y="370.6331">identifiersHref:String</text><text fill="#000000" font-family="sans-serif" font-size="14" lengthAdjust="spacing" textLength="144" x="69" y="387.1214">orgIndicator:Boolean</text><text fill="#000000" font-family="sans-serif" font-size="14" lengthAdjust="spacing" textLength="149" x="69" y="403.6097">orgProfilesHref:String</text><text fill="#000000" font-family="sans-serif" font-size="14" lengthAdjust="spacing" textLength="104" x="69" y="420.098">partyKey:String</text><text fill="#000000" font-family="sans-serif" font-size="14" lengthAdjust="spacing" textLength="198" x="69" y="436.5863">partyTypes:List&lt;PartyTypes&gt;</text><text fill="#000000" font-family="sans-serif" font-size="14" lengthAdjust="spacing" textLength="213" x="69" y="453.0745">preferredLanguageCode:String</text><text fill="#000000" font-family="sans-serif" font-size="14" lengthAdjust="spacing" textLength="149" x="69" y="469.5628">preferredName:String</text><text fill="#000000" font-family="sans-serif" font-size="14" lengthAdjust="spacing" textLength="134" x="69" y="486.0511">privaciesHref:String</text><text fill="#000000" font-family="sans-serif" font-size="14" lengthAdjust="spacing" textLength="229" x="69" y="502.5394">specialRemarksDescription:String</text><text fill="#000000" font-family="sans-serif" font-size="14" lengthAdjust="spacing" textLength="93" x="69" y="519.0277">partyId:String</text><text fill="#000000" font-family="sans-serif" font-size="14" lengthAdjust="spacing" textLength="151" x="69" y="535.5159">persons:List&lt;Person&gt;</text><text fill="#000000" font-family="sans-serif" font-size="14" lengthAdjust="spacing" textLength="194" x="69" y="552.0042">orgProfiles:List&lt;OrgProfile&gt;</text><text fill="#000000" font-family="sans-serif" font-size="14" lengthAdjust="spacing" textLength="294" x="69" y="568.4925">partyServiceTypes:List&lt;PartyServiceTypes&gt;</text><text fill="#000000" font-family="sans-serif" font-size="14" lengthAdjust="spacing" textLength="101" x="69" y="584.9808">garage:Garage</text><line style="stroke:#181818;stroke-width:0.5;" x1="64" x2="368" y1="591.9339" y2="591.9339"/></g><g id="elem_PartyIdentifier"><rect codeLine="52" fill="#F1F1F1" height="163.418" id="PartyIdentifier" rx="2.5" ry="2.5" style="stroke:#181818;stroke-width:0.5;" width="380" x="7" y="742.38"/><ellipse cx="144.75" cy="758.38" fill="#ADD1B2" rx="11" ry="11" style="stroke:#181818;stroke-width:1.0;"/><path d="M147.2231,764.5231 Q146.6421,764.8219 146.0029,764.9713 Q145.3638,765.1207 144.6582,765.1207 Q142.1514,765.1207 140.8315,763.4689 Q139.5117,761.817 139.5117,758.6959 Q139.5117,755.5665 140.8315,753.9147 Q142.1514,752.2628 144.6582,752.2628 Q145.3638,752.2628 146.0112,752.4122 Q146.6587,752.5616 147.2231,752.8605 L147.2231,755.5831 Q146.5923,755.0021 145.9988,754.7323 Q145.4053,754.4625 144.7744,754.4625 Q143.4297,754.4625 142.7449,755.5292 Q142.0601,756.5958 142.0601,758.6959 Q142.0601,760.7877 142.7449,761.8544 Q143.4297,762.921 144.7744,762.921 Q145.4053,762.921 145.9988,762.6512 Q146.5923,762.3815 147.2231,761.8004 Z " fill="#000000"/><text fill="#000000" font-family="sans-serif" font-size="14" lengthAdjust="spacing" textLength="96" x="165.25" y="763.671">PartyIdentifier</text><line style="stroke:#181818;stroke-width:0.5;" x1="8" x2="386" y1="774.38" y2="774.38"/><text fill="#000000" font-family="sans-serif" font-size="14" lengthAdjust="spacing" textLength="155" x="13" y="791.9152">partyIdentifierId:String</text><text fill="#000000" font-family="sans-serif" font-size="14" lengthAdjust="spacing" textLength="166" x="13" y="808.4034">partyIdentifierKey:String</text><text fill="#000000" font-family="sans-serif" font-size="14" lengthAdjust="spacing" textLength="175" x="13" y="824.8917">partyIdentifierType:String</text><text fill="#000000" font-family="sans-serif" font-size="14" lengthAdjust="spacing" textLength="97" x="13" y="841.38">context:String</text><text fill="#000000" font-family="sans-serif" font-size="14" lengthAdjust="spacing" textLength="368" x="13" y="857.8683">partyRelationshipTypes:List&lt;PartyRelationshipTypes&gt;</text><text fill="#000000" font-family="sans-serif" font-size="14" lengthAdjust="spacing" textLength="73" x="13" y="874.3566">party:Party</text><text fill="#000000" font-family="sans-serif" font-size="14" lengthAdjust="spacing" textLength="176" x="13" y="890.8448">occurrenceDateTime:Date</text><line style="stroke:#181818;stroke-width:0.5;" x1="8" x2="386" y1="897.798" y2="897.798"/></g><g id="elem_PaymentAmount"><rect codeLine="61" fill="#F1F1F1" height="163.418" id="PaymentAmount" rx="2.5" ry="2.5" style="stroke:#181818;stroke-width:0.5;" width="316" x="742" y="742.38"/><ellipse cx="839.25" cy="758.38" fill="#ADD1B2" rx="11" ry="11" style="stroke:#181818;stroke-width:1.0;"/><path d="M841.7231,764.5231 Q841.1421,764.8219 840.5029,764.9713 Q839.8638,765.1207 839.1582,765.1207 Q836.6514,765.1207 835.3315,763.4689 Q834.0117,761.817 834.0117,758.6959 Q834.0117,755.5665 835.3315,753.9147 Q836.6514,752.2628 839.1582,752.2628 Q839.8638,752.2628 840.5112,752.4122 Q841.1587,752.5616 841.7231,752.8605 L841.7231,755.5831 Q841.0923,755.0021 840.4988,754.7323 Q839.9053,754.4625 839.2744,754.4625 Q837.9297,754.4625 837.2449,755.5292 Q836.5601,756.5958 836.5601,758.6959 Q836.5601,760.7877 837.2449,761.8544 Q837.9297,762.921 839.2744,762.921 Q839.9053,762.921 840.4988,762.6512 Q841.0923,762.3815 841.7231,761.8004 Z " fill="#000000"/><text fill="#000000" font-family="sans-serif" font-size="14" lengthAdjust="spacing" textLength="113" x="859.75" y="763.671">PaymentAmount</text><line style="stroke:#181818;stroke-width:0.5;" x1="743" x2="1057" y1="774.38" y2="774.38"/><text fill="#000000" font-family="sans-serif" font-size="14" lengthAdjust="spacing" textLength="183" x="748" y="791.9152">paymentAmountKey:String</text><text fill="#000000" font-family="sans-serif" font-size="14" lengthAdjust="spacing" textLength="172" x="748" y="808.4034">paymentAmountId:String</text><text fill="#000000" font-family="sans-serif" font-size="14" lengthAdjust="spacing" textLength="304" x="748" y="824.8917">paymentAmountType:PaymentAmountTypes</text><text fill="#000000" font-family="sans-serif" font-size="14" lengthAdjust="spacing" textLength="225" x="748" y="841.38">paymentMethod:PaymentMethod</text><text fill="#000000" font-family="sans-serif" font-size="14" lengthAdjust="spacing" textLength="102" x="748" y="857.8683">amount:Money</text><text fill="#000000" font-family="sans-serif" font-size="14" lengthAdjust="spacing" textLength="122" x="748" y="874.3566">percentage:String</text><text fill="#000000" font-family="sans-serif" font-size="14" lengthAdjust="spacing" textLength="278" x="748" y="890.8448">paymentStatusType:PaymentStatusTypes</text><line style="stroke:#181818;stroke-width:0.5;" x1="743" x2="1057" y1="897.798" y2="897.798"/></g><g id="elem_PaymentMethod"><rect codeLine="70" fill="#F1F1F1" height="196.3945" id="PaymentMethod" rx="2.5" ry="2.5" style="stroke:#181818;stroke-width:0.5;" width="318" x="741" y="304.61"/><ellipse cx="840.75" cy="320.61" fill="#ADD1B2" rx="11" ry="11" style="stroke:#181818;stroke-width:1.0;"/><path d="M843.2231,326.7531 Q842.6421,327.0519 842.0029,327.2013 Q841.3638,327.3507 840.6582,327.3507 Q838.1514,327.3507 836.8315,325.6989 Q835.5117,324.047 835.5117,320.9259 Q835.5117,317.7965 836.8315,316.1447 Q838.1514,314.4928 840.6582,314.4928 Q841.3638,314.4928 842.0112,314.6422 Q842.6587,314.7916 843.2231,315.0905 L843.2231,317.8131 Q842.5923,317.2321 841.9988,316.9623 Q841.4053,316.6925 840.7744,316.6925 Q839.4297,316.6925 838.7449,317.7592 Q838.0601,318.8258 838.0601,320.9259 Q838.0601,323.0177 838.7449,324.0844 Q839.4297,325.151 840.7744,325.151 Q841.4053,325.151 841.9988,324.8812 Q842.5923,324.6115 843.2231,324.0304 Z " fill="#000000"/><text fill="#000000" font-family="sans-serif" font-size="14" lengthAdjust="spacing" textLength="110" x="861.25" y="325.901">PaymentMethod</text><line style="stroke:#181818;stroke-width:0.5;" x1="742" x2="1058" y1="336.61" y2="336.61"/><text fill="#000000" font-family="sans-serif" font-size="14" lengthAdjust="spacing" textLength="168" x="747" y="354.1452">defaultIndicator:Boolean</text><text fill="#000000" font-family="sans-serif" font-size="14" lengthAdjust="spacing" textLength="180" x="747" y="370.6334">paymentMethodKey:String</text><text fill="#000000" font-family="sans-serif" font-size="14" lengthAdjust="spacing" textLength="169" x="747" y="387.1217">paymentMethodId:String</text><text fill="#000000" font-family="sans-serif" font-size="14" lengthAdjust="spacing" textLength="306" x="747" y="403.61">electronicPayments:List&lt;ElectronicPayment&gt;</text><text fill="#000000" font-family="sans-serif" font-size="14" lengthAdjust="spacing" textLength="203" x="747" y="420.0983">creditCards:List&lt;CreditCard&gt;</text><text fill="#000000" font-family="sans-serif" font-size="14" lengthAdjust="spacing" textLength="253" x="747" y="436.5866">checkPayments:List&lt;CheckPayment&gt;</text><text fill="#000000" font-family="sans-serif" font-size="14" lengthAdjust="spacing" textLength="271" x="747" y="453.0748">rewardPayments:List&lt;RewardPayment&gt;</text><text fill="#000000" font-family="sans-serif" font-size="14" lengthAdjust="spacing" textLength="237" x="747" y="469.5631">cashPayments:List&lt;CashPayment&gt;</text><text fill="#000000" font-family="sans-serif" font-size="14" lengthAdjust="spacing" textLength="289" x="747" y="486.0514">platformPayments:List&lt;PlatformPayment&gt;</text><line style="stroke:#181818;stroke-width:0.5;" x1="742" x2="1058" y1="493.0045" y2="493.0045"/></g><g id="elem_PayrollCycle"><rect codeLine="81" fill="#F1F1F1" height="229.3711" id="PayrollCycle" rx="2.5" ry="2.5" style="stroke:#181818;stroke-width:0.5;" width="396" x="702" y="1007.02"/><ellipse cx="854.75" cy="1023.02" fill="#ADD1B2" rx="11" ry="11" style="stroke:#181818;stroke-width:1.0;"/><path d="M857.2231,1029.1631 Q856.6421,1029.4619 856.0029,1029.6113 Q855.3638,1029.7607 854.6582,1029.7607 Q852.1514,1029.7607 850.8315,1028.1089 Q849.5117,1026.457 849.5117,1023.3359 Q849.5117,1020.2065 850.8315,1018.5547 Q852.1514,1016.9028 854.6582,1016.9028 Q855.3638,1016.9028 856.0112,1017.0522 Q856.6587,1017.2016 857.2231,1017.5005 L857.2231,1020.2231 Q856.5923,1019.6421 855.9988,1019.3723 Q855.4053,1019.1025 854.7744,1019.1025 Q853.4297,1019.1025 852.7449,1020.1692 Q852.0601,1021.2358 852.0601,1023.3359 Q852.0601,1025.4277 852.7449,1026.4944 Q853.4297,1027.561 854.7744,1027.561 Q855.4053,1027.561 855.9988,1027.2912 Q856.5923,1027.0215 857.2231,1026.4404 Z " fill="#000000"/><text fill="#000000" font-family="sans-serif" font-size="14" lengthAdjust="spacing" textLength="82" x="875.25" y="1028.311">PayrollCycle</text><line style="stroke:#181818;stroke-width:0.5;" x1="703" x2="1097" y1="1039.02" y2="1039.02"/><text fill="#000000" font-family="sans-serif" font-size="14" lengthAdjust="spacing" textLength="141" x="708" y="1056.5552">payrollCycleId:String</text><text fill="#000000" font-family="sans-serif" font-size="14" lengthAdjust="spacing" textLength="143" x="708" y="1073.0434">payrollRunKey:String</text><text fill="#000000" font-family="sans-serif" font-size="14" lengthAdjust="spacing" textLength="152" x="708" y="1089.5317">payrollCycleKey:String</text><text fill="#000000" font-family="sans-serif" font-size="14" lengthAdjust="spacing" textLength="149" x="708" y="1106.02">primaryEntityId:String</text><text fill="#000000" font-family="sans-serif" font-size="14" lengthAdjust="spacing" textLength="197" x="708" y="1122.5083">partyIdentifier:PartyIdentifier</text><text fill="#000000" font-family="sans-serif" font-size="14" lengthAdjust="spacing" textLength="124" x="708" y="1138.9966">payDateTime:Date</text><text fill="#000000" font-family="sans-serif" font-size="14" lengthAdjust="spacing" textLength="206" x="708" y="1155.4848">effectivePeriod:EffectivePeriod</text><text fill="#000000" font-family="sans-serif" font-size="14" lengthAdjust="spacing" textLength="176" x="708" y="1171.9731">occurrenceDateTime:Date</text><text fill="#000000" font-family="sans-serif" font-size="14" lengthAdjust="spacing" textLength="283" x="708" y="1188.4614">paymentAmounts:List&lt;PaymentAmount&gt;</text><text fill="#000000" font-family="sans-serif" font-size="14" lengthAdjust="spacing" textLength="180" x="708" y="1204.9497">identifiers:List&lt;Identifier&gt;</text><text fill="#000000" font-family="sans-serif" font-size="14" lengthAdjust="spacing" textLength="384" x="708" y="1221.438">payrollCycleFrequencyType:PayrollCycleFrequencyTypes</text><line style="stroke:#181818;stroke-width:0.5;" x1="703" x2="1097" y1="1228.3911" y2="1228.3911"/></g><g id="elem_TimeSlot"><rect codeLine="94" fill="#F1F1F1" height="163.418" id="TimeSlot" rx="2.5" ry="2.5" style="stroke:#181818;stroke-width:0.5;" width="373" x="1396.5" y="1040"/><ellipse cx="1548.75" cy="1056" fill="#ADD1B2" rx="11" ry="11" style="stroke:#181818;stroke-width:1.0;"/><path d="M1551.2231,1062.1431 Q1550.6421,1062.4419 1550.0029,1062.5913 Q1549.3638,1062.7407 1548.6582,1062.7407 Q1546.1514,1062.7407 1544.8315,1061.0889 Q1543.5117,1059.437 1543.5117,1056.3159 Q1543.5117,1053.1865 1544.8315,1051.5347 Q1546.1514,1049.8828 1548.6582,1049.8828 Q1549.3638,1049.8828 1550.0112,1050.0322 Q1550.6587,1050.1816 1551.2231,1050.4805 L1551.2231,1053.2031 Q1550.5923,1052.6221 1549.9988,1052.3523 Q1549.4053,1052.0825 1548.7744,1052.0825 Q1547.4297,1052.0825 1546.7449,1053.1492 Q1546.0601,1054.2158 1546.0601,1056.3159 Q1546.0601,1058.4077 1546.7449,1059.4744 Q1547.4297,1060.541 1548.7744,1060.541 Q1549.4053,1060.541 1549.9988,1060.2712 Q1550.5923,1060.0015 1551.2231,1059.4204 Z " fill="#000000"/><text fill="#000000" font-family="sans-serif" font-size="14" lengthAdjust="spacing" textLength="60" x="1569.25" y="1061.291">TimeSlot</text><line style="stroke:#181818;stroke-width:0.5;" x1="1397.5" x2="1768.5" y1="1072" y2="1072"/><text fill="#000000" font-family="sans-serif" font-size="14" lengthAdjust="spacing" textLength="125" x="1402.5" y="1089.5352">timeSlotKey:String</text><text fill="#000000" font-family="sans-serif" font-size="14" lengthAdjust="spacing" textLength="105" x="1402.5" y="1106.0234">endTime:String</text><text fill="#000000" font-family="sans-serif" font-size="14" lengthAdjust="spacing" textLength="184" x="1402.5" y="1122.5117">recurringIndicator:Boolean</text><text fill="#000000" font-family="sans-serif" font-size="14" lengthAdjust="spacing" textLength="213" x="1402.5" y="1139">recurringPeriod:EffectivePeriod</text><text fill="#000000" font-family="sans-serif" font-size="14" lengthAdjust="spacing" textLength="110" x="1402.5" y="1155.4883">startTime:String</text><text fill="#000000" font-family="sans-serif" font-size="14" lengthAdjust="spacing" textLength="361" x="1402.5" y="1171.9766">timeslotDirectiveTypes:List&lt;TimeslotDirectiveTypes&gt;</text><text fill="#000000" font-family="sans-serif" font-size="14" lengthAdjust="spacing" textLength="114" x="1402.5" y="1188.4648">timeSlotId:String</text><line style="stroke:#181818;stroke-width:0.5;" x1="1397.5" x2="1768.5" y1="1195.418" y2="1195.418"/></g><g id="elem_DaysOfWeekTypes"><rect codeLine="103" fill="#FAFF91" height="163.418" id="DaysOfWeekTypes" rx="2.5" ry="2.5" style="stroke:#181818;stroke-width:0.5;" width="156" x="1755" y="742.38"/><ellipse cx="1770" cy="758.38" fill="#ADD1B2" rx="11" ry="11" style="stroke:#181818;stroke-width:1.0;"/><path d="M1772.4731,764.5231 Q1771.8921,764.8219 1771.2529,764.9713 Q1770.6138,765.1207 1769.9082,765.1207 Q1767.4014,765.1207 1766.0815,763.4689 Q1764.7617,761.817 1764.7617,758.6959 Q1764.7617,755.5665 1766.0815,753.9147 Q1767.4014,752.2628 1769.9082,752.2628 Q1770.6138,752.2628 1771.2612,752.4122 Q1771.9087,752.5616 1772.4731,752.8605 L1772.4731,755.5831 Q1771.8423,755.0021 1771.2488,754.7323 Q1770.6553,754.4625 1770.0244,754.4625 Q1768.6797,754.4625 1767.9949,755.5292 Q1767.3101,756.5958 1767.3101,758.6959 Q1767.3101,760.7877 1767.9949,761.8544 Q1768.6797,762.921 1770.0244,762.921 Q1770.6553,762.921 1771.2488,762.6512 Q1771.8423,762.3815 1772.4731,761.8004 Z " fill="#000000"/><text fill="#000000" font-family="sans-serif" font-size="14" lengthAdjust="spacing" textLength="124" x="1784" y="763.671">DaysOfWeekTypes</text><line style="stroke:#181818;stroke-width:0.5;" x1="1756" x2="1910" y1="774.38" y2="774.38"/><text fill="#000000" font-family="sans-serif" font-size="14" lengthAdjust="spacing" textLength="21" x="1761" y="791.9152">FRI</text><text fill="#000000" font-family="sans-serif" font-size="14" lengthAdjust="spacing" textLength="33" x="1761" y="808.4034">MON</text><text fill="#000000" font-family="sans-serif" font-size="14" lengthAdjust="spacing" textLength="27" x="1761" y="824.8917">SAT</text><text fill="#000000" font-family="sans-serif" font-size="14" lengthAdjust="spacing" textLength="28" x="1761" y="841.38">SUN</text><text fill="#000000" font-family="sans-serif" font-size="14" lengthAdjust="spacing" textLength="46" x="1761" y="857.8683">THURS</text><text fill="#000000" font-family="sans-serif" font-size="14" lengthAdjust="spacing" textLength="35" x="1761" y="874.3566">TUES</text><text fill="#000000" font-family="sans-serif" font-size="14" lengthAdjust="spacing" textLength="30" x="1761" y="890.8448">WED</text><line style="stroke:#181818;stroke-width:0.5;" x1="1756" x2="1910" y1="897.798" y2="897.798"/></g><g id="elem_DurationUOMTypes"><rect codeLine="112" fill="#FAFF91" height="328.3008" id="DurationUOMTypes" rx="2.5" ry="2.5" style="stroke:#181818;stroke-width:0.5;" width="165" x="1594.5" y="238.66"/><ellipse cx="1609.5" cy="254.66" fill="#ADD1B2" rx="11" ry="11" style="stroke:#181818;stroke-width:1.0;"/><path d="M1611.9731,260.8031 Q1611.3921,261.1019 1610.7529,261.2513 Q1610.1138,261.4007 1609.4082,261.4007 Q1606.9014,261.4007 1605.5815,259.7489 Q1604.2617,258.097 1604.2617,254.9759 Q1604.2617,251.8465 1605.5815,250.1947 Q1606.9014,248.5428 1609.4082,248.5428 Q1610.1138,248.5428 1610.7612,248.6922 Q1611.4087,248.8416 1611.9731,249.1405 L1611.9731,251.8631 Q1611.3423,251.2821 1610.7488,251.0123 Q1610.1553,250.7425 1609.5244,250.7425 Q1608.1797,250.7425 1607.4949,251.8092 Q1606.8101,252.8758 1606.8101,254.9759 Q1606.8101,257.0677 1607.4949,258.1344 Q1608.1797,259.201 1609.5244,259.201 Q1610.1553,259.201 1610.7488,258.9312 Q1611.3423,258.6615 1611.9731,258.0804 Z " fill="#000000"/><text fill="#000000" font-family="sans-serif" font-size="14" lengthAdjust="spacing" textLength="133" x="1623.5" y="259.951">DurationUOMTypes</text><line style="stroke:#181818;stroke-width:0.5;" x1="1595.5" x2="1758.5" y1="270.66" y2="270.66"/><text fill="#000000" font-family="sans-serif" font-size="14" lengthAdjust="spacing" textLength="64" x="1600.5" y="288.1952">BI_WEEKS</text><text fill="#000000" font-family="sans-serif" font-size="14" lengthAdjust="spacing" textLength="60" x="1600.5" y="304.6834">CUSTOM</text><text fill="#000000" font-family="sans-serif" font-size="14" lengthAdjust="spacing" textLength="37" x="1600.5" y="321.1717">DAYS</text><text fill="#000000" font-family="sans-serif" font-size="14" lengthAdjust="spacing" textLength="114" x="1600.5" y="337.66">DAY_OF_MONTH</text><text fill="#000000" font-family="sans-serif" font-size="14" lengthAdjust="spacing" textLength="48" x="1600.5" y="354.1483">HOURS</text><text fill="#000000" font-family="sans-serif" font-size="14" lengthAdjust="spacing" textLength="61" x="1600.5" y="370.6366">MINUTES</text><text fill="#000000" font-family="sans-serif" font-size="14" lengthAdjust="spacing" textLength="60" x="1600.5" y="387.1248">MONTHS</text><text fill="#000000" font-family="sans-serif" font-size="14" lengthAdjust="spacing" textLength="93" x="1600.5" y="403.6131">MULTI_YEARS</text><text fill="#000000" font-family="sans-serif" font-size="14" lengthAdjust="spacing" textLength="39" x="1600.5" y="420.1014">NONE</text><text fill="#000000" font-family="sans-serif" font-size="14" lengthAdjust="spacing" textLength="95" x="1600.5" y="436.5897">OCCURRENCE</text><text fill="#000000" font-family="sans-serif" font-size="14" lengthAdjust="spacing" textLength="47" x="1600.5" y="453.078">OTHER</text><text fill="#000000" font-family="sans-serif" font-size="14" lengthAdjust="spacing" textLength="74" x="1600.5" y="469.5663">QUARTERS</text><text fill="#000000" font-family="sans-serif" font-size="14" lengthAdjust="spacing" textLength="99" x="1600.5" y="486.0545">SEMI_MONTHS</text><text fill="#000000" font-family="sans-serif" font-size="14" lengthAdjust="spacing" textLength="83" x="1600.5" y="502.5428">SEMI_YEARS</text><text fill="#000000" font-family="sans-serif" font-size="14" lengthAdjust="spacing" textLength="74" x="1600.5" y="519.0311">UNLIMITED</text><text fill="#000000" font-family="sans-serif" font-size="14" lengthAdjust="spacing" textLength="45" x="1600.5" y="535.5194">WEEKS</text><text fill="#000000" font-family="sans-serif" font-size="14" lengthAdjust="spacing" textLength="44" x="1600.5" y="552.0077">YEARS</text><line style="stroke:#181818;stroke-width:0.5;" x1="1595.5" x2="1758.5" y1="558.9608" y2="558.9608"/></g><g id="elem_PaymentAmountTypes"><rect codeLine="131" fill="#FAFF91" height="410.7422" id="PaymentAmountTypes" rx="2.5" ry="2.5" style="stroke:#181818;stroke-width:0.5;" width="217" x="1094.5" y="197.44"/><ellipse cx="1123.9" cy="213.44" fill="#ADD1B2" rx="11" ry="11" style="stroke:#181818;stroke-width:1.0;"/><path d="M1126.3731,219.5831 Q1125.7921,219.8819 1125.1529,220.0313 Q1124.5138,220.1807 1123.8082,220.1807 Q1121.3014,220.1807 1119.9815,218.5289 Q1118.6617,216.877 1118.6617,213.7559 Q1118.6617,210.6265 1119.9815,208.9747 Q1121.3014,207.3228 1123.8082,207.3228 Q1124.5138,207.3228 1125.1612,207.4722 Q1125.8087,207.6216 1126.3731,207.9205 L1126.3731,210.6431 Q1125.7423,210.0621 1125.1488,209.7923 Q1124.5553,209.5225 1123.9244,209.5225 Q1122.5797,209.5225 1121.8949,210.5892 Q1121.2101,211.6558 1121.2101,213.7559 Q1121.2101,215.8477 1121.8949,216.9144 Q1122.5797,217.981 1123.9244,217.981 Q1124.5553,217.981 1125.1488,217.7112 Q1125.7423,217.4415 1126.3731,216.8604 Z " fill="#000000"/><text fill="#000000" font-family="sans-serif" font-size="14" lengthAdjust="spacing" textLength="153" x="1141.1" y="218.731">PaymentAmountTypes</text><line style="stroke:#181818;stroke-width:0.5;" x1="1095.5" x2="1310.5" y1="229.44" y2="229.44"/><text fill="#000000" font-family="sans-serif" font-size="14" lengthAdjust="spacing" textLength="77" x="1100.5" y="246.9752">ADMIN_FEE</text><text fill="#000000" font-family="sans-serif" font-size="14" lengthAdjust="spacing" textLength="158" x="1100.5" y="263.4634">BASE_PAYMENT_EVENT</text><text fill="#000000" font-family="sans-serif" font-size="14" lengthAdjust="spacing" textLength="111" x="1100.5" y="279.9517">CASH_PAYMENT</text><text fill="#000000" font-family="sans-serif" font-size="14" lengthAdjust="spacing" textLength="120" x="1100.5" y="296.44">CHECK_PAYMENT</text><text fill="#000000" font-family="sans-serif" font-size="14" lengthAdjust="spacing" textLength="169" x="1100.5" y="312.9283">CREDIT_CARD_PAYMENT</text><text fill="#000000" font-family="sans-serif" font-size="14" lengthAdjust="spacing" textLength="130" x="1100.5" y="329.4166">DESIRED_PAYMENT</text><text fill="#000000" font-family="sans-serif" font-size="14" lengthAdjust="spacing" textLength="116" x="1100.5" y="345.9048">DOWN_PAYMENT</text><text fill="#000000" font-family="sans-serif" font-size="14" lengthAdjust="spacing" textLength="98" x="1100.5" y="362.3931">EFT_PAYMENT</text><text fill="#000000" font-family="sans-serif" font-size="14" lengthAdjust="spacing" textLength="127" x="1100.5" y="378.8814">GOVERNMENT_FEE</text><text fill="#000000" font-family="sans-serif" font-size="14" lengthAdjust="spacing" textLength="65" x="1100.5" y="395.3697">LATE_FEE</text><text fill="#000000" font-family="sans-serif" font-size="14" lengthAdjust="spacing" textLength="47" x="1100.5" y="411.858">OTHER</text><text fill="#000000" font-family="sans-serif" font-size="14" lengthAdjust="spacing" textLength="119" x="1100.5" y="428.3463">PARTIAL_REFUND</text><text fill="#000000" font-family="sans-serif" font-size="14" lengthAdjust="spacing" textLength="117" x="1100.5" y="444.8345">PAYMENT_EVENT</text><text fill="#000000" font-family="sans-serif" font-size="14" lengthAdjust="spacing" textLength="61" x="1100.5" y="461.3228">PAYROLL</text><text fill="#000000" font-family="sans-serif" font-size="14" lengthAdjust="spacing" textLength="205" x="1100.5" y="477.8111">SCHEDULED_PAYMENT_EVENT</text><text fill="#000000" font-family="sans-serif" font-size="14" lengthAdjust="spacing" textLength="87" x="1100.5" y="494.2994">SERVICE_FEE</text><text fill="#000000" font-family="sans-serif" font-size="14" lengthAdjust="spacing" textLength="123" x="1100.5" y="510.7877">TOTAL_FINANCED</text><text fill="#000000" font-family="sans-serif" font-size="14" lengthAdjust="spacing" textLength="118" x="1100.5" y="527.2759">TOTAL_INTEREST</text><text fill="#000000" font-family="sans-serif" font-size="14" lengthAdjust="spacing" textLength="119" x="1100.5" y="543.7642">TOTAL_PAYMENT</text><text fill="#000000" font-family="sans-serif" font-size="14" lengthAdjust="spacing" textLength="123" x="1100.5" y="560.2525">TOTAL_PRINCIPAL</text><text fill="#000000" font-family="sans-serif" font-size="14" lengthAdjust="spacing" textLength="108" x="1100.5" y="576.7408">TOTAL_REFUND</text><text fill="#000000" font-family="sans-serif" font-size="14" lengthAdjust="spacing" textLength="159" x="1100.5" y="593.2291">TRADE_IN_ALLOWANCE</text><line style="stroke:#181818;stroke-width:0.5;" x1="1095.5" x2="1310.5" y1="600.1822" y2="600.1822"/></g><g id="elem_PaymentStatusTypes"><rect codeLine="155" fill="#FAFF91" height="476.6953" id="PaymentStatusTypes" rx="2.5" ry="2.5" style="stroke:#181818;stroke-width:0.5;" width="213" x="1346.5" y="164.46"/><ellipse cx="1379.95" cy="180.46" fill="#ADD1B2" rx="11" ry="11" style="stroke:#181818;stroke-width:1.0;"/><path d="M1382.4231,186.6031 Q1381.8421,186.9019 1381.2029,187.0513 Q1380.5638,187.2007 1379.8582,187.2007 Q1377.3514,187.2007 1376.0315,185.5489 Q1374.7117,183.897 1374.7117,180.7759 Q1374.7117,177.6465 1376.0315,175.9947 Q1377.3514,174.3428 1379.8582,174.3428 Q1380.5638,174.3428 1381.2112,174.4922 Q1381.8587,174.6416 1382.4231,174.9405 L1382.4231,177.6631 Q1381.7923,177.0821 1381.1988,176.8123 Q1380.6053,176.5425 1379.9744,176.5425 Q1378.6297,176.5425 1377.9449,177.6092 Q1377.2601,178.6758 1377.2601,180.7759 Q1377.2601,182.8677 1377.9449,183.9344 Q1378.6297,185.001 1379.9744,185.001 Q1380.6053,185.001 1381.1988,184.7312 Q1381.7923,184.4615 1382.4231,183.8804 Z " fill="#000000"/><text fill="#000000" font-family="sans-serif" font-size="14" lengthAdjust="spacing" textLength="140" x="1398.05" y="185.751">PaymentStatusTypes</text><line style="stroke:#181818;stroke-width:0.5;" x1="1347.5" x2="1558.5" y1="196.46" y2="196.46"/><text fill="#000000" font-family="sans-serif" font-size="14" lengthAdjust="spacing" textLength="73" x="1352.5" y="213.9952">ACCEPTED</text><text fill="#000000" font-family="sans-serif" font-size="14" lengthAdjust="spacing" textLength="50" x="1352.5" y="230.4834">ACTIVE</text><text fill="#000000" font-family="sans-serif" font-size="14" lengthAdjust="spacing" textLength="73" x="1352.5" y="246.9717">APPROVED</text><text fill="#000000" font-family="sans-serif" font-size="14" lengthAdjust="spacing" textLength="115" x="1352.5" y="263.46">AUTO_INITIATED</text><text fill="#000000" font-family="sans-serif" font-size="14" lengthAdjust="spacing" textLength="128" x="1352.5" y="279.9483">AUTO_SCHEDULED</text><text fill="#000000" font-family="sans-serif" font-size="14" lengthAdjust="spacing" textLength="80" x="1352.5" y="296.4366">CANCELLED</text><text fill="#000000" font-family="sans-serif" font-size="14" lengthAdjust="spacing" textLength="83" x="1352.5" y="312.9248">COMPLETED</text><text fill="#000000" font-family="sans-serif" font-size="14" lengthAdjust="spacing" textLength="64" x="1352.5" y="329.4131">CREATED</text><text fill="#000000" font-family="sans-serif" font-size="14" lengthAdjust="spacing" textLength="50" x="1352.5" y="345.9014">DENIED</text><text fill="#000000" font-family="sans-serif" font-size="14" lengthAdjust="spacing" textLength="56" x="1352.5" y="362.3897">EXPIRED</text><text fill="#000000" font-family="sans-serif" font-size="14" lengthAdjust="spacing" textLength="47" x="1352.5" y="378.878">FAILED</text><text fill="#000000" font-family="sans-serif" font-size="14" lengthAdjust="spacing" textLength="56" x="1352.5" y="395.3663">FUNDED</text><text fill="#000000" font-family="sans-serif" font-size="14" lengthAdjust="spacing" textLength="64" x="1352.5" y="411.8545">INACTIVE</text><text fill="#000000" font-family="sans-serif" font-size="14" lengthAdjust="spacing" textLength="134" x="1352.5" y="428.3428">MANUAL_INITIATED</text><text fill="#000000" font-family="sans-serif" font-size="14" lengthAdjust="spacing" textLength="137" x="1352.5" y="444.8311">PAYROLL_FINALIZED</text><text fill="#000000" font-family="sans-serif" font-size="14" lengthAdjust="spacing" textLength="128" x="1352.5" y="461.3194">PAYROLL_PENDING</text><text fill="#000000" font-family="sans-serif" font-size="14" lengthAdjust="spacing" textLength="60" x="1352.5" y="477.8077">PENDING</text><text fill="#000000" font-family="sans-serif" font-size="14" lengthAdjust="spacing" textLength="80" x="1352.5" y="494.2959">PROCESSED</text><text fill="#000000" font-family="sans-serif" font-size="14" lengthAdjust="spacing" textLength="86" x="1352.5" y="510.7842">PROCESSING</text><text fill="#000000" font-family="sans-serif" font-size="14" lengthAdjust="spacing" textLength="73" x="1352.5" y="527.2725">REFUNDED</text><text fill="#000000" font-family="sans-serif" font-size="14" lengthAdjust="spacing" textLength="128" x="1352.5" y="543.7608">REQUIRES_ACTION</text><text fill="#000000" font-family="sans-serif" font-size="14" lengthAdjust="spacing" textLength="201" x="1352.5" y="560.2491">REQUIRES_PAYMENT_STATUS</text><text fill="#000000" font-family="sans-serif" font-size="14" lengthAdjust="spacing" textLength="73" x="1352.5" y="576.7373">RETURNED</text><text fill="#000000" font-family="sans-serif" font-size="14" lengthAdjust="spacing" textLength="69" x="1352.5" y="593.2256">REVERSED</text><text fill="#000000" font-family="sans-serif" font-size="14" lengthAdjust="spacing" textLength="82" x="1352.5" y="609.7139">SUCCEEDED</text><text fill="#000000" font-family="sans-serif" font-size="14" lengthAdjust="spacing" textLength="52" x="1352.5" y="626.2022">VOIDED</text><line style="stroke:#181818;stroke-width:0.5;" x1="1347.5" x2="1558.5" y1="633.1553" y2="633.1553"/></g><g id="elem_PayrollCycleFrequencyTypes"><rect codeLine="183" fill="#FAFF91" height="229.3711" id="PayrollCycleFrequencyTypes" rx="2.5" ry="2.5" style="stroke:#181818;stroke-width:0.5;" width="225" x="1093.5" y="709.4"/><ellipse cx="1108.5" cy="725.4" fill="#ADD1B2" rx="11" ry="11" style="stroke:#181818;stroke-width:1.0;"/><path d="M1110.9731,731.5431 Q1110.3921,731.8419 1109.7529,731.9913 Q1109.1138,732.1407 1108.4082,732.1407 Q1105.9014,732.1407 1104.5815,730.4889 Q1103.2617,728.837 1103.2617,725.7159 Q1103.2617,722.5865 1104.5815,720.9347 Q1105.9014,719.2828 1108.4082,719.2828 Q1109.1138,719.2828 1109.7612,719.4322 Q1110.4087,719.5816 1110.9731,719.8805 L1110.9731,722.6031 Q1110.3423,722.0221 1109.7488,721.7523 Q1109.1553,721.4825 1108.5244,721.4825 Q1107.1797,721.4825 1106.4949,722.5492 Q1105.8101,723.6158 1105.8101,725.7159 Q1105.8101,727.8077 1106.4949,728.8744 Q1107.1797,729.941 1108.5244,729.941 Q1109.1553,729.941 1109.7488,729.6712 Q1110.3423,729.4015 1110.9731,728.8204 Z " fill="#000000"/><text fill="#000000" font-family="sans-serif" font-size="14" lengthAdjust="spacing" textLength="193" x="1122.5" y="730.691">PayrollCycleFrequencyTypes</text><line style="stroke:#181818;stroke-width:0.5;" x1="1094.5" x2="1317.5" y1="741.4" y2="741.4"/><text fill="#000000" font-family="sans-serif" font-size="14" lengthAdjust="spacing" textLength="57" x="1099.5" y="758.9352">ANNUAL</text><text fill="#000000" font-family="sans-serif" font-size="14" lengthAdjust="spacing" textLength="87" x="1099.5" y="775.4234">BI_MONTHLY</text><text fill="#000000" font-family="sans-serif" font-size="14" lengthAdjust="spacing" textLength="72" x="1099.5" y="791.9117">BI_WEEKLY</text><text fill="#000000" font-family="sans-serif" font-size="14" lengthAdjust="spacing" textLength="40" x="1099.5" y="808.4">DAILY</text><text fill="#000000" font-family="sans-serif" font-size="14" lengthAdjust="spacing" textLength="68" x="1099.5" y="824.8883">MONTHLY</text><text fill="#000000" font-family="sans-serif" font-size="14" lengthAdjust="spacing" textLength="78" x="1099.5" y="841.3766">OFF_CYCLE</text><text fill="#000000" font-family="sans-serif" font-size="14" lengthAdjust="spacing" textLength="88" x="1099.5" y="857.8648">ON_DEMAND</text><text fill="#000000" font-family="sans-serif" font-size="14" lengthAdjust="spacing" textLength="82" x="1099.5" y="874.3531">QUARTERLY</text><text fill="#000000" font-family="sans-serif" font-size="14" lengthAdjust="spacing" textLength="96" x="1099.5" y="890.8414">SEMI_ANNUAL</text><text fill="#000000" font-family="sans-serif" font-size="14" lengthAdjust="spacing" textLength="107" x="1099.5" y="907.3297">SEMI_MONTHLY</text><text fill="#000000" font-family="sans-serif" font-size="14" lengthAdjust="spacing" textLength="53" x="1099.5" y="923.818">WEEKLY</text><line style="stroke:#181818;stroke-width:0.5;" x1="1094.5" x2="1317.5" y1="930.7711" y2="930.7711"/></g><g id="link_DaysOfWeekTypes_TimeSlot"><path codeLine="196" d="M1770.14,906.29 C1759.23,920 1747.89,934 1737,947.02 C1711.29,977.79 1682.3,1010.87 1656.46,1039.83 " fill="none" id="DaysOfWeekTypes-TimeSlot" style="stroke:#181818;stroke-width:1.0;"/></g><g id="link_DurationUOMTypes_EffectivePeriod"><path codeLine="197" d="M1640.32,567.42 C1630.38,611.77 1619.79,659.01 1610.45,700.67 " fill="none" id="DurationUOMTypes-EffectivePeriod" style="stroke:#181818;stroke-width:1.0;"/></g><g id="link_EffectivePeriod_PayrollCycle"><path codeLine="198" d="M1446.09,895.08 C1410.51,912.61 1372.04,930.97 1336,947.02 C1259.14,981.23 1173.36,1016.1 1098.35,1045.53 " fill="none" id="EffectivePeriod-PayrollCycle" style="stroke:#181818;stroke-width:1.0;"/></g><g id="link_EffectivePeriod_TimeSlot"><path codeLine="199" d="M1570.05,947.46 C1569.62,978.59 1569.99,1011.28 1571.15,1039.76 " fill="none" id="EffectivePeriod-TimeSlot" style="stroke:#181818;stroke-width:1.0;"/></g><g id="link_TimeSlot_EffectivePeriod"><path codeLine="210" d="M1594.85,1039.76 C1596.01,1011.28 1596.38,978.59 1595.95,947.46 " fill="none" id="TimeSlot-EffectivePeriod" style="stroke:#181818;stroke-width:1.0;"/></g><g id="link_Identifier_Party"><path codeLine="200" d="M301.247,116.2085 C293.147,143.3385 285.86,167.77 274.67,205.24 " fill="none" id="Identifier-backto-Party" style="stroke:#181818;stroke-width:1.0;"/><polygon fill="#181818" points="304.68,104.71,299.1307,109.3149,301.247,116.2085,306.7963,111.6036,304.68,104.71" style="stroke:#181818;stroke-width:1.0;"/></g><g id="link_Identifier_PayrollCycle"><path codeLine="201" d="M360.8073,114.9065 C372.4873,132.8465 377.99,143.83 386,164.46 C464.03,365.37 384.38,445.61 475,641.16 C541.71,785.12 666,917.52 763.01,1006.55 " fill="none" id="Identifier-backto-PayrollCycle" style="stroke:#181818;stroke-width:1.0;"/><polygon fill="#181818" points="354.26,104.85,354.1815,112.0607,360.8073,114.9065,360.8858,107.6958,354.26,104.85" style="stroke:#181818;stroke-width:1.0;"/></g><g id="link_Money_PaymentAmount"><path codeLine="202" d="M634.18,484.95 C656.5,532.46 687.77,592.48 723,641.16 C748.71,676.68 781.17,712.07 811.26,742.07 " fill="none" id="Money-PaymentAmount" style="stroke:#181818;stroke-width:1.0;"/></g><g id="link_Party_PartyIdentifier"><path codeLine="203" d="M207.1,600.25 C204.83,650.3 202.52,701.34 200.68,741.93 " fill="none" id="Party-PartyIdentifier" style="stroke:#181818;stroke-width:1.0;"/></g><g id="link_PartyIdentifier_PayrollCycle"><path codeLine="204" d="M333.23,906.23 C359.62,920.62 387.36,934.88 414,947.02 C506.44,989.14 612.32,1028.02 701.61,1058.27 " fill="none" id="PartyIdentifier-PayrollCycle" style="stroke:#181818;stroke-width:1.0;"/></g><g id="link_PaymentAmountTypes_PaymentAmount"><path codeLine="205" d="M1099.31,608.45 C1092.08,619.71 1084.63,630.7 1077,641.16 C1051.17,676.59 1018.68,711.97 988.61,741.97 " fill="none" id="PaymentAmountTypes-PaymentAmount" style="stroke:#181818;stroke-width:1.0;"/></g><g id="link_PaymentAmount_PayrollCycle"><path codeLine="206" d="M900,918.26 C900,949.28 900,973.26 900,1006.78 " fill="none" id="PaymentAmount-backto-PayrollCycle" style="stroke:#181818;stroke-width:1.0;"/><polygon fill="#181818" points="900,906.26,896,912.26,900,918.26,904,912.26,900,906.26" style="stroke:#181818;stroke-width:1.0;"/></g><g id="link_PaymentMethod_PaymentAmount"><path codeLine="207" d="M900,501.32 C900,574.39 900,673.21 900,741.98 " fill="none" id="PaymentMethod-PaymentAmount" style="stroke:#181818;stroke-width:1.0;"/></g><g id="link_PaymentStatusTypes_PaymentAmount"><path codeLine="208" d="M1346.13,626.21 C1340.67,631.51 1334.96,636.52 1329,641.16 C1237.78,712.11 1181.55,654.11 1076,701.16 C1051.22,712.21 1026.26,726.87 1003.23,742.19 " fill="none" id="PaymentStatusTypes-PaymentAmount" style="stroke:#181818;stroke-width:1.0;"/></g><g id="link_PayrollCycleFrequencyTypes_PayrollCycle"><path codeLine="209" d="M1093.36,933.91 C1068.82,957.61 1042.79,982.76 1018.05,1006.66 " fill="none" id="PayrollCycleFrequencyTypes-PayrollCycle" style="stroke:#181818;stroke-width:1.0;"/></g></g></svg>