<?xml version="1.0" encoding="us-ascii" standalone="no"?><svg xmlns="http://www.w3.org/2000/svg" xmlns:xlink="http://www.w3.org/1999/xlink" contentStyleType="text/css" height="435px" preserveAspectRatio="none" style="width:1962px;height:435px;background:#FFFFFF;" version="1.1" viewBox="0 0 1962 435" width="1962px" zoomAndPan="magnify"><defs/><g><g id="elem_Address"><rect fill="#F1F1F1" height="36.4883" rx="2.5" ry="2.5" style="stroke:#181818;stroke-width:0.5;" width="76" x="541.5" y="7"/><text fill="#000000" font-family="sans-serif" font-size="14" lengthAdjust="spacing" textLength="56" x="551.5" y="30.5352">Address</text></g><g id="elem_BalloonPayment"><rect fill="#F1F1F1" height="36.4883" rx="2.5" ry="2.5" style="stroke:#181818;stroke-width:0.5;" width="129" x="675" y="296.46"/><text fill="#000000" font-family="sans-serif" font-size="14" lengthAdjust="spacing" textLength="109" x="685" y="319.9952">BalloonPayment</text></g><g id="elem_CashPayment"><rect fill="#F1F1F1" height="36.4883" rx="2.5" ry="2.5" style="stroke:#181818;stroke-width:0.5;" width="112" x="1115.5" y="103.49"/><text fill="#000000" font-family="sans-serif" font-size="14" lengthAdjust="spacing" textLength="92" x="1125.5" y="127.0252">CashPayment</text></g><g id="elem_CheckPayment"><rect fill="#F1F1F1" height="36.4883" rx="2.5" ry="2.5" style="stroke:#181818;stroke-width:0.5;" width="120" x="544.5" y="103.49"/><text fill="#000000" font-family="sans-serif" font-size="14" lengthAdjust="spacing" textLength="100" x="554.5" y="127.0252">CheckPayment</text></g><g id="elem_CommunicationChannel"><rect fill="#F1F1F1" height="36.4883" rx="2.5" ry="2.5" style="stroke:#181818;stroke-width:0.5;" width="186" x="178.5" y="199.98"/><text fill="#000000" font-family="sans-serif" font-size="14" lengthAdjust="spacing" textLength="166" x="188.5" y="223.5152">CommunicationChannel</text></g><g id="elem_ContactMethod"><rect fill="#F1F1F1" height="36.4883" rx="2.5" ry="2.5" style="stroke:#181818;stroke-width:0.5;" width="125" x="429" y="296.46"/><text fill="#000000" font-family="sans-serif" font-size="14" lengthAdjust="spacing" textLength="105" x="439" y="319.9952">ContactMethod</text></g><g id="elem_CreditCard"><rect fill="#F1F1F1" height="36.4883" rx="2.5" ry="2.5" style="stroke:#181818;stroke-width:0.5;" width="95" x="344" y="103.49"/><text fill="#000000" font-family="sans-serif" font-size="14" lengthAdjust="spacing" textLength="75" x="354" y="127.0252">CreditCard</text></g><g id="elem_DueOn"><rect fill="#F1F1F1" height="36.4883" rx="2.5" ry="2.5" style="stroke:#181818;stroke-width:0.5;" width="67" x="1591" y="103.49"/><text fill="#000000" font-family="sans-serif" font-size="14" lengthAdjust="spacing" textLength="47" x="1601" y="127.0252">DueOn</text></g><g id="elem_EffectivePeriod"><rect fill="#F1F1F1" height="36.4883" rx="2.5" ry="2.5" style="stroke:#181818;stroke-width:0.5;" width="121" x="1266" y="296.46"/><text fill="#000000" font-family="sans-serif" font-size="14" lengthAdjust="spacing" textLength="101" x="1276" y="319.9952">EffectivePeriod</text></g><g id="elem_ElectronicPayment"><rect fill="#F1F1F1" height="36.4883" rx="2.5" ry="2.5" style="stroke:#181818;stroke-width:0.5;" width="145" x="864" y="103.49"/><text fill="#000000" font-family="sans-serif" font-size="14" lengthAdjust="spacing" textLength="125" x="874" y="127.0252">ElectronicPayment</text></g><g id="elem_Identifier"><rect fill="#F1F1F1" height="36.4883" rx="2.5" ry="2.5" style="stroke:#181818;stroke-width:0.5;" width="82" x="1291.5" y="7"/><text fill="#000000" font-family="sans-serif" font-size="14" lengthAdjust="spacing" textLength="62" x="1301.5" y="30.5352">Identifier</text></g><g id="elem_Money"><rect fill="#F1F1F1" height="36.4883" rx="2.5" ry="2.5" style="stroke:#181818;stroke-width:0.5;" width="65" x="944" y="199.98"/><text fill="#000000" font-family="sans-serif" font-size="14" lengthAdjust="spacing" textLength="45" x="954" y="223.5152">Money</text></g><g id="elem_PaymentAmount"><rect fill="#F1F1F1" height="36.4883" rx="2.5" ry="2.5" style="stroke:#181818;stroke-width:0.5;" width="133" x="910" y="296.46"/><text fill="#000000" font-family="sans-serif" font-size="14" lengthAdjust="spacing" textLength="113" x="920" y="319.9952">PaymentAmount</text></g><g id="elem_PaymentMethod"><rect fill="#F1F1F1" height="36.4883" rx="2.5" ry="2.5" style="stroke:#181818;stroke-width:0.5;" width="130" x="570.5" y="199.98"/><text fill="#000000" font-family="sans-serif" font-size="14" lengthAdjust="spacing" textLength="110" x="580.5" y="223.5152">PaymentMethod</text></g><g id="elem_PayrollPayment"><rect fill="#F1F1F1" height="36.4883" rx="2.5" ry="2.5" style="stroke:#181818;stroke-width:0.5;" width="124" x="914.5" y="392.95"/><text fill="#000000" font-family="sans-serif" font-size="14" lengthAdjust="spacing" textLength="104" x="924.5" y="416.4852">PayrollPayment</text></g><g id="elem_PlatformPayment"><rect fill="#F1F1F1" height="36.4883" rx="2.5" ry="2.5" style="stroke:#181818;stroke-width:0.5;" width="136" x="1262.5" y="103.49"/><text fill="#000000" font-family="sans-serif" font-size="14" lengthAdjust="spacing" textLength="116" x="1272.5" y="127.0252">PlatformPayment</text></g><g id="elem_Price"><rect fill="#F1F1F1" height="36.4883" rx="2.5" ry="2.5" style="stroke:#181818;stroke-width:0.5;" width="53" x="1711" y="7"/><text fill="#000000" font-family="sans-serif" font-size="14" lengthAdjust="spacing" textLength="33" x="1721" y="30.5352">Price</text></g><g id="elem_ProductSubject"><rect fill="#F1F1F1" height="36.4883" rx="2.5" ry="2.5" style="stroke:#181818;stroke-width:0.5;" width="123" x="1433" y="103.49"/><text fill="#000000" font-family="sans-serif" font-size="14" lengthAdjust="spacing" textLength="103" x="1443" y="127.0252">ProductSubject</text></g><g id="elem_RewardPayment"><rect fill="#F1F1F1" height="36.4883" rx="2.5" ry="2.5" style="stroke:#181818;stroke-width:0.5;" width="129" x="700" y="103.49"/><text fill="#000000" font-family="sans-serif" font-size="14" lengthAdjust="spacing" textLength="109" x="710" y="127.0252">RewardPayment</text></g><g id="elem_TimeSlot"><rect fill="#F1F1F1" height="36.4883" rx="2.5" ry="2.5" style="stroke:#181818;stroke-width:0.5;" width="80" x="1286.5" y="392.95"/><text fill="#000000" font-family="sans-serif" font-size="14" lengthAdjust="spacing" textLength="60" x="1296.5" y="416.4852">TimeSlot</text></g><g id="elem_CommunicationChannelTypes"><rect fill="#FAFF91" height="36.4883" rx="2.5" ry="2.5" style="stroke:#181818;stroke-width:0.5;" width="226" x="83.5" y="103.49"/><text fill="#000000" font-family="sans-serif" font-size="14" lengthAdjust="spacing" textLength="206" x="93.5" y="127.0252">CommunicationChannelTypes</text></g><g id="elem_CreditCardStatusTypes"><rect fill="#FAFF91" height="36.4883" rx="2.5" ry="2.5" style="stroke:#181818;stroke-width:0.5;" width="177" x="329" y="7"/><text fill="#000000" font-family="sans-serif" font-size="14" lengthAdjust="spacing" textLength="157" x="339" y="30.5352">CreditCardStatusTypes</text></g><g id="elem_CreditCardTypes"><rect fill="#FAFF91" height="36.4883" rx="2.5" ry="2.5" style="stroke:#181818;stroke-width:0.5;" width="135" x="7" y="7"/><text fill="#000000" font-family="sans-serif" font-size="14" lengthAdjust="spacing" textLength="115" x="17" y="30.5352">CreditCardTypes</text></g><g id="elem_DaysOfWeekTypes"><rect fill="#FAFF91" height="36.4883" rx="2.5" ry="2.5" style="stroke:#181818;stroke-width:0.5;" width="144" x="1422.5" y="296.46"/><text fill="#000000" font-family="sans-serif" font-size="14" lengthAdjust="spacing" textLength="124" x="1432.5" y="319.9952">DaysOfWeekTypes</text></g><g id="elem_DueOnTriggerTypes"><rect fill="#FAFF91" height="36.4883" rx="2.5" ry="2.5" style="stroke:#181818;stroke-width:0.5;" width="158" x="1798.5" y="7"/><text fill="#000000" font-family="sans-serif" font-size="14" lengthAdjust="spacing" textLength="138" x="1808.5" y="30.5352">DueOnTriggerTypes</text></g><g id="elem_DueOnTypes"><rect fill="#FAFF91" height="36.4883" rx="2.5" ry="2.5" style="stroke:#181818;stroke-width:0.5;" width="107" x="1569" y="7"/><text fill="#000000" font-family="sans-serif" font-size="14" lengthAdjust="spacing" textLength="87" x="1579" y="30.5352">DueOnTypes</text></g><g id="elem_DurationUOMTypes"><rect fill="#FAFF91" height="36.4883" rx="2.5" ry="2.5" style="stroke:#181818;stroke-width:0.5;" width="153" x="1258" y="199.98"/><text fill="#000000" font-family="sans-serif" font-size="14" lengthAdjust="spacing" textLength="133" x="1268" y="223.5152">DurationUOMTypes</text></g><g id="elem_FundingTypes"><rect fill="#FAFF91" height="36.4883" rx="2.5" ry="2.5" style="stroke:#181818;stroke-width:0.5;" width="117" x="177" y="7"/><text fill="#000000" font-family="sans-serif" font-size="14" lengthAdjust="spacing" textLength="97" x="187" y="30.5352">FundingTypes</text></g><g id="elem_PaymentAmountTypes"><rect fill="#FAFF91" height="36.4883" rx="2.5" ry="2.5" style="stroke:#181818;stroke-width:0.5;" width="173" x="736" y="199.98"/><text fill="#000000" font-family="sans-serif" font-size="14" lengthAdjust="spacing" textLength="153" x="746" y="223.5152">PaymentAmountTypes</text></g><g id="elem_PaymentStatusTypes"><rect fill="#FAFF91" height="36.4883" rx="2.5" ry="2.5" style="stroke:#181818;stroke-width:0.5;" width="160" x="982.5" y="7"/><text fill="#000000" font-family="sans-serif" font-size="14" lengthAdjust="spacing" textLength="140" x="992.5" y="30.5352">PaymentStatusTypes</text></g><g id="elem_ResourceTypes"><rect fill="#FAFF91" height="36.4883" rx="2.5" ry="2.5" style="stroke:#181818;stroke-width:0.5;" width="123" x="1411" y="7"/><text fill="#000000" font-family="sans-serif" font-size="14" lengthAdjust="spacing" textLength="103" x="1421" y="30.5352">ResourceTypes</text></g><g id="elem_RewardEventTypes"><rect fill="#FAFF91" height="36.4883" rx="2.5" ry="2.5" style="stroke:#181818;stroke-width:0.5;" width="148" x="690.5" y="7"/><text fill="#000000" font-family="sans-serif" font-size="14" lengthAdjust="spacing" textLength="128" x="700.5" y="30.5352">RewardEventTypes</text></g><g id="link_Address_CheckPayment"><path d="M584.09,43.57 C588.57,60.52 595.36,86.18 599.86,103.19 " fill="none" id="Address-CheckPayment" style="stroke:#181818;stroke-width:1.0;"/></g><g id="link_Address_CreditCard"><path d="M544.58,43.79 C510.92,60.71 460.26,86.17 426.55,103.11 " fill="none" id="Address-CreditCard" style="stroke:#181818;stroke-width:1.0;"/></g><g id="link_Address_ContactMethod"><path d="M556.3705,53.2569 C544.2105,68.1169 535.5,81.16 526.5,103.49 C499.25,171.09 493.21,259.14 491.88,296.13 " fill="none" id="Address-backto-ContactMethod" style="stroke:#181818;stroke-width:1.0;"/><polygon fill="#181818" points="563.97,43.97,557.0746,46.0803,556.3705,53.2569,563.2659,51.1466,563.97,43.97" style="stroke:#181818;stroke-width:1.0;"/></g><g id="link_BalloonPayment_PayrollPayment"><path d="M794.9468,337.814 C837.2868,354.694 889.62,375.56 932.02,392.46 " fill="none" id="BalloonPayment-backto-PayrollPayment" style="stroke:#181818;stroke-width:1.0;"/><polygon fill="#181818" points="783.8,333.37,787.8921,339.3076,794.9468,337.814,790.8547,331.8764,783.8,333.37" style="stroke:#181818;stroke-width:1.0;"/></g><g id="link_CashPayment_PaymentMethod"><path d="M1103.3913,133.5597 C1017.6313,147.3097 860.98,173.04 718.5,199.98 C712.72,201.07 706.71,202.24 700.7,203.44 " fill="none" id="CashPayment-backto-PaymentMethod" style="stroke:#181818;stroke-width:1.0;"/><polygon fill="#181818" points="1115.24,131.66,1108.6824,128.6603,1103.3913,133.5597,1109.9489,136.5594,1115.24,131.66" style="stroke:#181818;stroke-width:1.0;"/></g><g id="link_CheckPayment_PaymentMethod"><path d="M613.9261,151.4636 C619.4761,168.4036 624.16,182.66 629.75,199.68 " fill="none" id="CheckPayment-backto-PaymentMethod" style="stroke:#181818;stroke-width:1.0;"/><polygon fill="#181818" points="610.19,140.06,608.2569,147.0072,613.9261,151.4636,615.8592,144.5164,610.19,140.06" style="stroke:#181818;stroke-width:1.0;"/></g><g id="link_CommunicationChannelTypes_CommunicationChannel"><path d="M210.26,140.06 C223.7,157 244.07,182.66 257.58,199.68 " fill="none" id="CommunicationChannelTypes-CommunicationChannel" style="stroke:#181818;stroke-width:1.0;"/></g><g id="link_CommunicationChannel_ContactMethod"><path d="M323.646,241.6158 C362.946,258.4958 410.85,279.07 450.21,295.97 " fill="none" id="CommunicationChannel-backto-ContactMethod" style="stroke:#181818;stroke-width:1.0;"/><polygon fill="#181818" points="312.62,236.88,316.5544,242.9232,323.646,241.6158,319.7116,235.5726,312.62,236.88" style="stroke:#181818;stroke-width:1.0;"/></g><g id="link_ContactMethod_PayrollPayment"><path d="M566.1886,330.2545 C659.3586,348.4045 821.21,379.94 914.09,398.04 " fill="none" id="ContactMethod-backto-PayrollPayment" style="stroke:#181818;stroke-width:1.0;"/><polygon fill="#181818" points="554.41,327.96,559.5345,333.0335,566.1886,330.2545,561.0641,325.1811,554.41,327.96" style="stroke:#181818;stroke-width:1.0;"/></g><g id="link_CreditCardStatusTypes_CreditCard"><path d="M412.73,43.57 C408.07,60.52 401.01,86.18 396.33,103.19 " fill="none" id="CreditCardStatusTypes-CreditCard" style="stroke:#181818;stroke-width:1.0;"/></g><g id="link_CreditCardTypes_CreditCard"><path d="M133.75,43.9 C194.5,62.01 287.8,89.82 343.91,106.55 " fill="none" id="CreditCardTypes-CreditCard" style="stroke:#181818;stroke-width:1.0;"/></g><g id="link_CreditCard_PaymentMethod"><path d="M448.3003,144.7234 C491.8903,161.6034 546.05,182.58 589.7,199.48 " fill="none" id="CreditCard-backto-PaymentMethod" style="stroke:#181818;stroke-width:1.0;"/><polygon fill="#181818" points="437.11,140.39,441.2607,146.2868,448.3003,144.7234,444.1496,138.8266,437.11,140.39" style="stroke:#181818;stroke-width:1.0;"/></g><g id="link_DaysOfWeekTypes_TimeSlot"><path d="M1463.29,333.26 C1433.21,350.18 1387.94,375.64 1357.82,392.58 " fill="none" id="DaysOfWeekTypes-TimeSlot" style="stroke:#181818;stroke-width:1.0;"/></g><g id="link_DueOnTriggerTypes_DueOn"><path d="M1830.21,43.9 C1780.15,62.6 1702.4,91.64 1658.22,108.14 " fill="none" id="DueOnTriggerTypes-DueOn" style="stroke:#181818;stroke-width:1.0;"/></g><g id="link_DueOnTypes_DueOn"><path d="M1622.87,43.57 C1623.23,60.52 1623.77,86.18 1624.13,103.19 " fill="none" id="DueOnTypes-DueOn" style="stroke:#181818;stroke-width:1.0;"/></g><g id="link_DueOn_PayrollPayment"><path d="M1579.2663,138.6141 C1573.5763,140.4441 1579.11,138.53 1573.5,139.98 C1427.87,177.5 1374.53,131.77 1240.5,199.98 C1164.3,238.75 1169.12,280.64 1101.5,332.95 C1071.84,355.9 1035.02,377.96 1009.05,392.59 " fill="none" id="DueOn-backto-PayrollPayment" style="stroke:#181818;stroke-width:1.0;"/><polygon fill="#181818" points="1590.69,134.94,1583.7535,132.9691,1579.2663,138.6141,1586.2028,140.5849,1590.69,134.94" style="stroke:#181818;stroke-width:1.0;"/></g><g id="link_DurationUOMTypes_EffectivePeriod"><path d="M1333.03,236.55 C1331.6,253.49 1329.43,279.15 1327.99,296.17 " fill="none" id="DurationUOMTypes-EffectivePeriod" style="stroke:#181818;stroke-width:1.0;"/></g><g id="link_EffectivePeriod_PayrollPayment"><path d="M1265.53,332.17 C1201.98,349.32 1102.88,376.08 1038.83,393.37 " fill="none" id="EffectivePeriod-PayrollPayment" style="stroke:#181818;stroke-width:1.0;"/></g><g id="link_EffectivePeriod_TimeSlot"><path d="M1316.07,333.04 C1312.49,349.98 1312.48,375.64 1316.03,392.66 " fill="none" id="EffectivePeriod-TimeSlot" style="stroke:#181818;stroke-width:1.0;"/></g><g id="link_TimeSlot_EffectivePeriod"><path d="M1336.97,392.66 C1340.52,375.64 1340.51,349.98 1336.93,333.04 " fill="none" id="TimeSlot-EffectivePeriod" style="stroke:#181818;stroke-width:1.0;"/></g><g id="link_ElectronicPayment_PaymentMethod"><path d="M868.7909,143.9842 C815.0209,160.8642 745.84,182.58 692,199.48 " fill="none" id="ElectronicPayment-backto-PaymentMethod" style="stroke:#181818;stroke-width:1.0;"/><polygon fill="#181818" points="880.24,140.39,873.3174,138.3707,868.7909,143.9842,875.7135,146.0035,880.24,140.39" style="stroke:#181818;stroke-width:1.0;"/></g><g id="link_FundingTypes_CreditCard"><path d="M264.48,43.79 C292.41,60.71 334.45,86.17 362.41,103.11 " fill="none" id="FundingTypes-CreditCard" style="stroke:#181818;stroke-width:1.0;"/></g><g id="link_Identifier_CashPayment"><path d="M1292.2416,49.8655 C1263.4216,66.7855 1230.38,86.17 1201.52,103.11 " fill="none" id="Identifier-backto-CashPayment" style="stroke:#181818;stroke-width:1.0;"/><polygon fill="#181818" points="1302.59,43.79,1295.3907,43.3783,1292.2416,49.8655,1299.441,50.2772,1302.59,43.79" style="stroke:#181818;stroke-width:1.0;"/></g><g id="link_Identifier_DueOn"><path d="M1385.3716,42.9179 C1433.4416,58.1179 1503.6,80.47 1573.5,103.49 C1579,105.3 1584.83,107.25 1590.51,109.15 " fill="none" id="Identifier-backto-DueOn" style="stroke:#181818;stroke-width:1.0;"/><polygon fill="#181818" points="1373.93,39.3,1378.4448,44.9228,1385.3716,42.9179,1380.8568,37.2951,1373.93,39.3" style="stroke:#181818;stroke-width:1.0;"/></g><g id="link_Identifier_PlatformPayment"><path d="M1331.8752,55.5673 C1331.5152,72.5173 1331.23,86.18 1330.87,103.19 " fill="none" id="Identifier-backto-PlatformPayment" style="stroke:#181818;stroke-width:1.0;"/><polygon fill="#181818" points="1332.13,43.57,1328.0035,49.4837,1331.8752,55.5673,1336.0017,49.6536,1332.13,43.57" style="stroke:#181818;stroke-width:1.0;"/></g><g id="link_Identifier_ProductSubject"><path d="M1372.9557,49.8358 C1401.9657,66.7558 1435.25,86.17 1464.3,103.11 " fill="none" id="Identifier-backto-ProductSubject" style="stroke:#181818;stroke-width:1.0;"/><polygon fill="#181818" points="1362.59,43.79,1365.7576,50.2681,1372.9557,49.8358,1369.7881,43.3576,1362.59,43.79" style="stroke:#181818;stroke-width:1.0;"/></g><g id="link_Money_PaymentAmount"><path d="M976.5,236.55 C976.5,253.49 976.5,279.15 976.5,296.17 " fill="none" id="Money-PaymentAmount" style="stroke:#181818;stroke-width:1.0;"/></g><g id="link_PaymentAmountTypes_PaymentAmount"><path d="M851.11,236.77 C878.68,253.69 920.18,279.15 947.79,296.09 " fill="none" id="PaymentAmountTypes-PaymentAmount" style="stroke:#181818;stroke-width:1.0;"/></g><g id="link_PaymentAmount_PayrollPayment"><path d="M976.5,345.04 C976.5,361.98 976.5,375.64 976.5,392.66 " fill="none" id="PaymentAmount-backto-PayrollPayment" style="stroke:#181818;stroke-width:1.0;"/><polygon fill="#181818" points="976.5,333.04,972.5,339.04,976.5,345.04,980.5,339.04,976.5,333.04" style="stroke:#181818;stroke-width:1.0;"/></g><g id="link_PaymentMethod_PaymentAmount"><path d="M699.24,236.88 C760.15,253.76 851.49,279.07 912.49,295.97 " fill="none" id="PaymentMethod-PaymentAmount" style="stroke:#181818;stroke-width:1.0;"/></g><g id="link_PaymentMethod_PayrollPayment"><path d="M698.4423,240.9954 C736.6523,254.9454 778.1,272 821.5,296.46 C872.96,325.47 927.36,368.74 956.03,392.68 " fill="none" id="PaymentMethod-backto-PayrollPayment" style="stroke:#181818;stroke-width:1.0;"/><polygon fill="#181818" points="687.17,236.88,691.4343,242.6951,698.4423,240.9954,694.1779,235.1803,687.17,236.88" style="stroke:#181818;stroke-width:1.0;"/></g><g id="link_PaymentStatusTypes_CashPayment"><path d="M1082.75,43.79 C1102.32,60.77 1131.82,86.33 1151.36,103.27 " fill="none" id="PaymentStatusTypes-CashPayment" style="stroke:#181818;stroke-width:1.0;"/></g><g id="link_PaymentStatusTypes_CheckPayment"><path d="M982.35,42.12 C905.39,57.47 785.89,81.55 682.5,103.49 C676.8,104.7 670.87,105.97 664.95,107.26 " fill="none" id="PaymentStatusTypes-CheckPayment" style="stroke:#181818;stroke-width:1.0;"/></g><g id="link_PaymentStatusTypes_DueOn"><path d="M1142.56,33.93 C1243.89,44.67 1423.31,67.04 1573.5,103.49 C1579.13,104.85 1585.03,106.57 1590.73,108.39 " fill="none" id="PaymentStatusTypes-DueOn" style="stroke:#181818;stroke-width:1.0;"/></g><g id="link_PaymentStatusTypes_ElectronicPayment"><path d="M1039.1,43.79 C1016.46,60.77 982.37,86.33 959.78,103.27 " fill="none" id="PaymentStatusTypes-ElectronicPayment" style="stroke:#181818;stroke-width:1.0;"/></g><g id="link_PaymentStatusTypes_PaymentAmount"><path d="M1061.87,43.77 C1060.04,80.65 1053.02,168.51 1026.5,236.46 C1017.85,258.64 1002.33,281.17 990.87,296.13 " fill="none" id="PaymentStatusTypes-PaymentAmount" style="stroke:#181818;stroke-width:1.0;"/></g><g id="link_PlatformPayment_PaymentMethod"><path d="M1250.5942,139.2403 C1244.8842,140.2803 1251,139.11 1245.5,139.98 C1012.66,176.78 951.26,162.63 718.5,199.98 C712.69,200.91 706.66,201.97 700.64,203.1 " fill="none" id="PlatformPayment-backto-PaymentMethod" style="stroke:#181818;stroke-width:1.0;"/><polygon fill="#181818" points="1262.4,137.09,1255.7804,134.2299,1250.5942,139.2403,1257.2139,142.1004,1262.4,137.09" style="stroke:#181818;stroke-width:1.0;"/></g><g id="link_Price_DueOn"><path d="M1716.51,43.79 C1696.21,60.77 1665.64,86.33 1645.38,103.27 " fill="none" id="Price-DueOn" style="stroke:#181818;stroke-width:1.0;"/></g><g id="link_ProductSubject_PayrollPayment"><path d="M1432.58,136.87 C1343.73,157.3 1189.47,193.36 1178.5,199.98 C1110.82,240.76 1115.87,276.59 1060.5,332.95 C1039.53,354.29 1014.08,377.33 996.72,392.64 " fill="none" id="ProductSubject-PayrollPayment" style="stroke:#181818;stroke-width:1.0;"/></g><g id="link_ResourceTypes_ProductSubject"><path d="M1476.54,43.57 C1480.48,60.52 1486.45,86.18 1490.42,103.19 " fill="none" id="ResourceTypes-ProductSubject" style="stroke:#181818;stroke-width:1.0;"/></g><g id="link_RewardEventTypes_RewardPayment"><path d="M764.5,43.57 C764.5,60.52 764.5,86.18 764.5,103.19 " fill="none" id="RewardEventTypes-RewardPayment" style="stroke:#181818;stroke-width:1.0;"/></g><g id="link_RewardPayment_PaymentMethod"><path d="M730.8589,147.3706 C707.6889,164.3406 682.46,182.82 659.33,199.76 " fill="none" id="RewardPayment-backto-PaymentMethod" style="stroke:#181818;stroke-width:1.0;"/><polygon fill="#181818" points="740.54,140.28,733.3359,140.5982,730.8589,147.3706,738.063,147.0523,740.54,140.28" style="stroke:#181818;stroke-width:1.0;"/></g></g></svg>