<?xml version="1.0" encoding="us-ascii" standalone="no"?><svg xmlns="http://www.w3.org/2000/svg" xmlns:xlink="http://www.w3.org/1999/xlink" contentStyleType="text/css" height="184px" preserveAspectRatio="none" style="width:234px;height:184px;background:#FFFFFF;" version="1.1" viewBox="0 0 234 184" width="234px" zoomAndPan="magnify"><defs/><g><g id="elem_Money"><rect codeLine="1" fill="#F1F1F1" height="163.418" id="Money" rx="2.5" ry="2.5" style="stroke:#181818;stroke-width:0.5;" width="213" x="7" y="7"/><ellipse cx="86.75" cy="23" fill="#ADD1B2" rx="11" ry="11" style="stroke:#181818;stroke-width:1.0;"/><path d="M89.2231,29.1431 Q88.6421,29.4419 88.0029,29.5913 Q87.3638,29.7407 86.6582,29.7407 Q84.1514,29.7407 82.8315,28.0889 Q81.5117,26.437 81.5117,23.3159 Q81.5117,20.1865 82.8315,18.5347 Q84.1514,16.8828 86.6582,16.8828 Q87.3638,16.8828 88.0112,17.0322 Q88.6587,17.1816 89.2231,17.4805 L89.2231,20.2031 Q88.5923,19.6221 87.9988,19.3523 Q87.4053,19.0825 86.7744,19.0825 Q85.4297,19.0825 84.7449,20.1492 Q84.0601,21.2158 84.0601,23.3159 Q84.0601,25.4077 84.7449,26.4744 Q85.4297,27.541 86.7744,27.541 Q87.4053,27.541 87.9988,27.2712 Q88.5923,27.0015 89.2231,26.4204 Z " fill="#000000"/><text fill="#000000" font-family="sans-serif" font-size="14" lengthAdjust="spacing" textLength="45" x="107.25" y="28.291">Money</text><line style="stroke:#181818;stroke-width:0.5;" x1="8" x2="219" y1="39" y2="39"/><text fill="#000000" font-family="sans-serif" font-size="14" lengthAdjust="spacing" textLength="115" x="13" y="56.5352">moneyKey:String</text><text fill="#000000" font-family="sans-serif" font-size="14" lengthAdjust="spacing" textLength="104" x="13" y="73.0234">moneyId:String</text><text fill="#000000" font-family="sans-serif" font-size="14" lengthAdjust="spacing" textLength="140" x="13" y="89.5117">currencyCode:String</text><text fill="#000000" font-family="sans-serif" font-size="14" lengthAdjust="spacing" textLength="131" x="13" y="106">displayValue:String</text><text fill="#000000" font-family="sans-serif" font-size="14" lengthAdjust="spacing" textLength="85" x="13" y="122.4883">locale:String</text><text fill="#000000" font-family="sans-serif" font-size="14" lengthAdjust="spacing" textLength="81" x="13" y="138.9766">value:String</text><text fill="#000000" font-family="sans-serif" font-size="14" lengthAdjust="spacing" textLength="201" x="13" y="155.4648">taxIncludedIndicator:Boolean</text><line style="stroke:#181818;stroke-width:0.5;" x1="8" x2="219" y1="162.418" y2="162.418"/></g></g></svg>