<svg xmlns="http://www.w3.org/2000/svg" xmlns:xlink="http://www.w3.org/1999/xlink" contentStyleType="text/css" data-diagram-type="DESCRIPTION" height="641px" preserveAspectRatio="none" style="width:1828px;height:641px;background:#FFFFFF;" version="1.1" viewBox="0 0 1828 641" width="1828px" zoomAndPan="magnify"><title>Financial &amp; Payments Domain Map: Payroll Sub-Context</title><defs/><g><g class="title" data-source-line="6"><text fill="#000000" font-family="Arial" font-size="14" font-weight="bold" lengthAdjust="spacing" textLength="374.1787" x="720.1406" y="23.1318">Financial &amp; Payments Domain Map: Payroll Sub-Context</text></g><!--cluster HRMaster--><g class="cluster" data-entity="HRMaster" data-source-line="10" data-uid="ent0003" id="cluster_HRMaster"><rect fill="#DDDDFF" height="106.09" rx="5" ry="5" style="stroke:#181818;stroke-width:1;" width="307" x="799.46" y="44.0986"/><text fill="#000000" font-family="Arial" font-size="14" font-weight="bold" lengthAdjust="spacing" textLength="172.7031" x="866.6084" y="59.2305">HR &amp; Master Data Domain</text></g><!--cluster FIN--><g class="cluster" data-entity="FIN" data-source-line="15" data-uid="ent0006" id="cluster_FIN"><rect fill="#FFCCCC" height="437.3" rx="5" ry="5" style="stroke:#181818;stroke-width:1;" width="1671" x="151.46" y="198.1886"/><text fill="#000000" font-family="Arial" font-size="14" font-weight="bold" lengthAdjust="spacing" textLength="160.2822" x="906.8189" y="213.3205">5. Financial &amp; Payments</text></g><!--cluster PAYROLL--><g class="cluster" data-entity="PAYROLL" data-source-line="16" data-uid="ent0007" id="cluster_PAYROLL"><rect fill="#FF9999" height="370.3" rx="5" ry="5" style="stroke:#181818;stroke-width:1;" width="811" x="175.46" y="241.1886"/><text fill="#000000" font-family="Arial" font-size="14" font-weight="bold" lengthAdjust="spacing" textLength="151.7305" x="505.0948" y="256.3205">5A. Payroll Processing</text></g><!--cluster PAY_DATA--><g class="cluster" data-entity="PAY_DATA" data-source-line="24" data-uid="ent0013" id="cluster_PAY_DATA"><rect fill="#FFDDDD" height="106.1" rx="5" ry="5" style="stroke:#181818;stroke-width:1;" width="788" x="1010.46" y="505.3886"/><text fill="#000000" font-family="Arial" font-size="14" font-weight="bold" lengthAdjust="spacing" textLength="158.7168" x="1325.1016" y="520.5205">5B. Payroll Data Models</text></g><!--entity PID--><g class="entity" data-entity="PID" data-source-line="11" data-uid="ent0004" id="entity_PID"><rect fill="#F1F1F1" height="36.0986" rx="5" ry="5" style="stroke:#181818;stroke-width:0.5;" width="110.2617" x="815.33" y="98.0986"/><text fill="#000000" font-family="Arial" font-size="14" lengthAdjust="spacing" textLength="90.2617" x="825.33" y="121.2305">Party Identifier</text></g><!--entity TAX--><g class="entity" data-entity="TAX" data-source-line="12" data-uid="ent0005" id="entity_TAX"><rect fill="#F1F1F1" height="36.0986" rx="5" ry="5" style="stroke:#181818;stroke-width:0.5;" width="130.5029" x="960.21" y="98.0986"/><text fill="#000000" font-family="Arial" font-size="14" lengthAdjust="spacing" textLength="110.5029" x="970.21" y="121.2305">Tax Configuration</text></g><!--entity PR_SVC--><g class="entity" data-entity="PR_SVC" data-source-line="17" data-uid="ent0008" id="entity_PR_SVC"><rect fill="#F1F1F1" height="36.0986" rx="5" ry="5" style="stroke:#181818;stroke-width:0.5;" width="139.0479" x="795.94" y="295.1886"/><text fill="#000000" font-family="Arial" font-size="14" lengthAdjust="spacing" textLength="119.0479" x="805.94" y="318.3205">PayrollRun Service</text></g><!--entity PC_SVC--><g class="entity" data-entity="PC_SVC" data-source-line="18" data-uid="ent0009" id="entity_PC_SVC"><rect fill="#F1F1F1" height="36.0986" rx="5" ry="5" style="stroke:#181818;stroke-width:0.5;" width="148.3721" x="822.28" y="407.2886"/><text fill="#000000" font-family="Arial" font-size="14" lengthAdjust="spacing" textLength="128.3721" x="832.28" y="430.4205">PayrollCycle Service</text></g><!--entity CE_SVC--><g class="entity" data-entity="CE_SVC" data-source-line="19" data-uid="ent0010" id="entity_CE_SVC"><rect fill="#F1F1F1" height="36.0986" rx="5" ry="5" style="stroke:#181818;stroke-width:0.5;" width="136.7441" x="191.09" y="407.2886"/><text fill="#000000" font-family="Arial" font-size="14" lengthAdjust="spacing" textLength="116.7441" x="201.09" y="430.4205">Calculation Engine</text></g><!--entity PE_SVC--><g class="entity" data-entity="PE_SVC" data-source-line="20" data-uid="ent0011" id="entity_PE_SVC"><rect fill="#F1F1F1" height="36.0986" rx="5" ry="5" style="stroke:#181818;stroke-width:0.5;" width="153.7998" x="515.56" y="407.2886"/><text fill="#000000" font-family="Arial" font-size="14" lengthAdjust="spacing" textLength="133.7998" x="525.56" y="430.4205">Events Service (R/W)</text></g><!--entity PS_SVC--><g class="entity" data-entity="PS_SVC" data-source-line="21" data-uid="ent0012" id="entity_PS_SVC"><rect fill="#F1F1F1" height="36.0986" rx="5" ry="5" style="stroke:#181818;stroke-width:0.5;" width="123.4961" x="734.71" y="559.3886"/><text fill="#000000" font-family="Arial" font-size="14" lengthAdjust="spacing" textLength="103.4961" x="744.71" y="582.5205">PayStub Service</text></g><!--entity PR_AR--><g class="entity" data-entity="PR_AR" data-source-line="25" data-uid="ent0014" id="entity_PR_AR"><rect fill="#F1F1F1" height="36.0986" rx="5" ry="5" style="stroke:#181818;stroke-width:0.5;" width="121.1377" x="1660.89" y="559.3886"/><text fill="#000000" font-family="Arial" font-size="14" lengthAdjust="spacing" textLength="101.1377" x="1670.89" y="582.5205">PayrollRun (AR)</text></g><!--entity PC_AR--><g class="entity" data-entity="PC_AR" data-source-line="26" data-uid="ent0015" id="entity_PC_AR"><rect fill="#F1F1F1" height="36.0986" rx="5" ry="5" style="stroke:#181818;stroke-width:0.5;" width="130.4619" x="1495.23" y="559.3886"/><text fill="#000000" font-family="Arial" font-size="14" lengthAdjust="spacing" textLength="110.4619" x="1505.23" y="582.5205">PayrollCycle (AR)</text></g><!--entity PE_AR--><g class="entity" data-entity="PE_AR" data-source-line="27" data-uid="ent0016" id="entity_PE_AR"><rect fill="#F1F1F1" height="36.0986" rx="5" ry="5" style="stroke:#181818;stroke-width:0.5;" width="131.2549" x="1166.83" y="559.3886"/><text fill="#000000" font-family="Arial" font-size="14" lengthAdjust="spacing" textLength="111.2549" x="1176.83" y="582.5205">PayrollEvent (AR)</text></g><!--entity PS_AR--><g class="entity" data-entity="PS_AR" data-source-line="28" data-uid="ent0017" id="entity_PS_AR"><rect fill="#F1F1F1" height="36.0986" rx="5" ry="5" style="stroke:#181818;stroke-width:0.5;" width="105.5859" x="1026.67" y="559.3886"/><text fill="#000000" font-family="Arial" font-size="14" lengthAdjust="spacing" textLength="85.5859" x="1036.67" y="582.5205">PayStub (AR)</text></g><!--entity PA_MODEL--><g class="entity" data-entity="PA_MODEL" data-source-line="29" data-uid="ent0018" id="entity_PA_MODEL"><rect fill="#F1F1F1" height="36.0986" rx="5" ry="5" style="stroke:#181818;stroke-width:0.5;" width="127.3857" x="1332.77" y="559.3886"/><text fill="#000000" font-family="Arial" font-size="14" lengthAdjust="spacing" textLength="107.3857" x="1342.77" y="582.5205">Payment Amount</text></g><!--entity External--><g class="entity" data-entity="External" data-source-line="8" data-uid="ent0002" id="entity_External"><rect fill="#E0E0E0" height="36.0986" rx="5" ry="5" style="stroke:#181818;stroke-width:0.5;" width="128.9238" x="7" y="407.2886"/><text fill="#000000" font-family="Arial" font-size="14" lengthAdjust="spacing" textLength="108.9238" x="17" y="430.4205">External Systems</text></g><!--reverse link PID to PR_SVC--><g class="link" data-entity-1="PID" data-entity-2="PR_SVC" data-source-line="38" data-uid="lnk20" id="link_PID_PR_SVC"><path d="M865.8717,140.2091 C864.1417,149.5891 863.33,155.5286 862.46,166.1886 C858.69,212.7086 861.89,267.8086 863.99,295.1186" fill="none" id="PID-backto-PR_SVC" style="stroke:#181818;stroke-width:1;stroke-dasharray:7,7;"/><polygon fill="#181818" points="866.96,134.3086,861.394,142.4339,866.0531,139.2257,869.2613,143.8849,866.96,134.3086" style="stroke:#181818;stroke-width:1;"/><text fill="#000000" font-family="Arial" font-size="13" lengthAdjust="spacing" textLength="140.918" x="863.46" y="179.3825">queries employee scope</text></g><!--reverse link TAX to PC_SVC--><g class="link" data-entity-1="TAX" data-entity-2="PC_SVC" data-source-line="39" data-uid="lnk22" id="link_TAX_PC_SVC"><path d="M1031.0417,140.5379 C1040.9817,185.6279 1059.55,301.5286 1005.46,377.2886 C996.06,390.4586 982.18,399.9786 967.44,406.8386" fill="none" id="TAX-backto-PC_SVC" style="stroke:#181818;stroke-width:1;stroke-dasharray:7,7;"/><polygon fill="#181818" points="1029.75,134.6786,1027.7813,144.3287,1030.8264,139.5614,1035.5937,142.6065,1029.75,134.6786" style="stroke:#181818;stroke-width:1;"/><text fill="#000000" font-family="Arial" font-size="13" lengthAdjust="spacing" textLength="114.1499" x="1042.64" y="318.4325">retrieves rules/rates</text></g><!--link PR_SVC to PC_SVC--><g class="link" data-entity-1="PR_SVC" data-entity-2="PC_SVC" data-source-line="42" data-uid="lnk23" id="link_PR_SVC_PC_SVC"><path d="M868.73,331.7886 C871.25,344.5286 875.05,362.1086 879.46,377.2886 C882.37,387.2986 884.1672,392.6467 887.5072,401.4767" fill="none" id="PR_SVC-to-PC_SVC" style="stroke:#181818;stroke-width:1;stroke-dasharray:7,7;"/><polygon fill="#181818" points="889.63,407.0886,890.1872,397.2555,887.861,402.412,882.7046,400.0859,889.63,407.0886" style="stroke:#181818;stroke-width:1;"/><text fill="#000000" font-family="Arial" font-size="13" lengthAdjust="spacing" textLength="116.3081" x="880.46" y="374.4825">initiates cycles (1:N)</text></g><!--reverse link PE_SVC to PC_SVC--><g class="link" data-entity-1="PE_SVC" data-entity-2="PC_SVC" data-source-line="43" data-uid="lnk25" id="link_PE_SVC_PC_SVC"><path d="M675.57,425.3386 C722.27,425.3386 775.55,425.3386 821.8,425.3386" fill="none" id="PE_SVC-backto-PC_SVC" style="stroke:#181818;stroke-width:1;stroke-dasharray:7,7;"/><polygon fill="#181818" points="669.57,425.3386,678.57,429.3386,674.57,425.3386,678.57,421.3386,669.57,425.3386" style="stroke:#181818;stroke-width:1;"/><text fill="#000000" font-family="Arial" font-size="13" lengthAdjust="spacing" textLength="116.3335" x="687.82" y="419.5325">requests raw events</text></g><!--link CE_SVC to PE_SVC--><g class="link" data-entity-1="CE_SVC" data-entity-2="PE_SVC" data-source-line="44" data-uid="lnk26" id="link_CE_SVC_PE_SVC"><path d="M328.06,425.3386 C382.51,425.3386 452.63,425.3386 509.22,425.3386" fill="none" id="CE_SVC-to-PE_SVC" style="stroke:#181818;stroke-width:1;stroke-dasharray:7,7;"/><polygon fill="#181818" points="515.22,425.3386,506.22,421.3386,510.22,425.3386,506.22,429.3386,515.22,425.3386" style="stroke:#181818;stroke-width:1;"/><text fill="#000000" font-family="Arial" font-size="13" lengthAdjust="spacing" textLength="151.0044" x="346.2" y="419.5325">reads input / writes results</text></g><!--reverse link PC_SVC to PS_SVC--><g class="link" data-entity-1="PC_SVC" data-entity-2="PS_SVC" data-source-line="45" data-uid="lnk28" id="link_PC_SVC_PS_SVC"><path d="M836.2235,446.4419 C822.2935,453.4719 814.17,460.3886 805.46,473.3886 C788.17,499.1986 790.14,537.1886 793.23,559.1086" fill="none" id="PC_SVC-backto-PS_SVC" style="stroke:#181818;stroke-width:1;stroke-dasharray:7,7;"/><polygon fill="#181818" points="841.58,443.7386,831.743,444.2225,837.1162,445.9913,835.3474,451.3645,841.58,443.7386" style="stroke:#181818;stroke-width:1;"/><text fill="#000000" font-family="Arial" font-size="13" lengthAdjust="spacing" textLength="172.6943" x="806.46" y="486.5825">retrieves final payment/events</text></g><!--link PR_SVC to PR_AR--><g class="link" data-entity-1="PR_SVC" data-entity-2="PR_AR" data-source-line="48" data-uid="lnk29" id="link_PR_SVC_PR_AR"><path d="M935.29,325.5686 C1102.38,353.4886 1520.5,428.3486 1643.46,497.3886 C1671.03,512.8686 1691.6519,536.1874 1705.5219,554.3774" fill="none" id="PR_SVC-to-PR_AR" style="stroke:#181818;stroke-width:1;stroke-dasharray:7,7;"/><polygon fill="#181818" points="1709.16,559.1486,1706.8837,549.5664,1706.1283,555.1726,1700.5221,554.4172,1709.16,559.1486" style="stroke:#181818;stroke-width:1;"/></g><!--link PC_SVC to PC_AR--><g class="link" data-entity-1="PC_SVC" data-entity-2="PC_AR" data-source-line="49" data-uid="lnk30" id="link_PC_SVC_PC_AR"><path d="M945.1,443.8386 C961.37,451.2586 978.82,461.0786 992.46,473.3886 C998.69,479.0086 995.16,485.2586 1002.46,489.3886 C1025.44,502.3786 1453.04,487.3786 1477.46,497.3886 C1508.21,509.9886 1530.5712,534.9802 1544.9012,554.1802" fill="none" id="PC_SVC-to-PC_AR" style="stroke:#181818;stroke-width:1;stroke-dasharray:7,7;"/><polygon fill="#181818" points="1548.49,558.9886,1546.3124,549.3835,1545.4994,554.9816,1539.9012,554.1685,1548.49,558.9886" style="stroke:#181818;stroke-width:1;"/></g><!--link PE_SVC to PE_AR--><g class="link" data-entity-1="PE_SVC" data-entity-2="PE_AR" data-source-line="50" data-uid="lnk31" id="link_PE_SVC_PE_AR"><path d="M669.58,432.2486 C773.99,440.7886 950.25,457.3286 975.46,473.3886 C982.53,477.8986 978.23,485.1486 985.46,489.3886 C1016.94,507.8486 1115.92,483.0186 1149.46,497.3886 C1180.01,510.4786 1202.4007,535.3431 1216.8007,554.3831" fill="none" id="PE_SVC-to-PE_AR" style="stroke:#181818;stroke-width:1;stroke-dasharray:7,7;"/><polygon fill="#181818" points="1220.42,559.1686,1218.1814,549.5776,1217.4039,555.1807,1211.8008,554.4033,1220.42,559.1686" style="stroke:#181818;stroke-width:1;"/></g><!--link PS_SVC to PS_AR--><g class="link" data-entity-1="PS_SVC" data-entity-2="PS_AR" data-source-line="51" data-uid="lnk32" id="link_PS_SVC_PS_AR"><path d="M858.64,577.4386 C914.57,577.4386 964.49,577.4386 1020.41,577.4386" fill="none" id="PS_SVC-to-PS_AR" style="stroke:#181818;stroke-width:1;stroke-dasharray:7,7;"/><polygon fill="#181818" points="1026.41,577.4386,1017.41,573.4386,1021.41,577.4386,1017.41,581.4386,1026.41,577.4386" style="stroke:#181818;stroke-width:1;"/></g><!--link PC_SVC to PA_MODEL--><g class="link" data-entity-1="PC_SVC" data-entity-2="PA_MODEL" data-source-line="52" data-uid="lnk33" id="link_PC_SVC_PA_MODEL"><path d="M938.73,443.6986 C953.97,451.2986 970.57,461.2786 983.46,473.3886 C989.57,479.1286 986.18,485.2386 993.46,489.3886 C1024.55,507.1286 1282.48,483.4886 1315.46,497.3886 C1345.7,510.1386 1367.4343,535.0438 1381.3343,554.1838" fill="none" id="PC_SVC-to-PA_MODEL" style="stroke:#181818;stroke-width:1;stroke-dasharray:7,7;"/><polygon fill="#181818" points="1384.86,559.0386,1382.808,549.4059,1381.9219,554.9929,1376.3349,554.1069,1384.86,559.0386" style="stroke:#181818;stroke-width:1;"/></g><!--reverse link PE_SVC to External--><g class="link" data-entity-1="PE_SVC" data-entity-2="External" data-source-line="55" data-uid="lnk35" id="link_PE_SVC_External"><path d="M537.6323,404.9494 C500.0723,391.8994 452.37,377.5186 403.96,370.6286 C335.76,360.9386 317.08,360.3686 248.96,370.6286 C203.2,377.5286 152.97,393.8786 117.66,406.9286" fill="none" id="PE_SVC-backto-External" style="stroke:#181818;stroke-width:1;stroke-dasharray:7,7;"/><polygon fill="#181818" points="543.3,406.9186,536.1113,400.1864,538.577,405.2776,533.4857,407.7433,543.3,406.9186" style="stroke:#181818;stroke-width:1;"/><text fill="#000000" font-family="Arial" font-size="13" lengthAdjust="spacing" textLength="153.9116" x="249.96" y="374.4825">Time &amp; Attendance Events</text></g><!--reverse link External to PC_SVC--><g class="link" data-entity-1="External" data-entity-2="PC_SVC" data-source-line="58" data-uid="lnk37" id="link_External_PC_SVC"><path d="M142.1661,412.3089 C155.1261,410.1189 162.75,408.9986 175.46,407.2886 C302.03,390.2986 623.27,348.0686 748.96,370.6286 C787.4,377.5286 828.92,393.7986 858.09,406.8086" fill="none" id="External-backto-PC_SVC" style="stroke:#181818;stroke-width:1;stroke-dasharray:7,7;"/><polygon fill="#181818" points="136.25,413.3086,145.7907,415.7531,141.1801,412.4755,144.4577,407.865,136.25,413.3086" style="stroke:#181818;stroke-width:1;"/><text fill="#000000" font-family="Arial" font-size="13" lengthAdjust="spacing" textLength="187.8462" x="560.96" y="374.4825">Payment Instruction (Bank/ACH)</text></g><!--link PS_SVC to External--><g class="link" data-entity-1="PS_SVC" data-entity-2="External" data-source-line="59" data-uid="lnk38" id="link_PS_SVC_External"><path d="M734.4,563.5886 C598.27,535.4086 280.4754,469.615 141.9954,440.945" fill="none" id="PS_SVC-to-External" style="stroke:#181818;stroke-width:1;stroke-dasharray:7,7;"/><polygon fill="#181818" points="136.12,439.7286,144.1222,445.4702,141.0162,440.7423,145.744,437.6363,136.12,439.7286" style="stroke:#181818;stroke-width:1;"/><text fill="#000000" font-family="Arial" font-size="13" lengthAdjust="spacing" textLength="169.7871" x="370.03" y="486.5825">PayStub Delivery (Employee)</text></g><!--SRC=[hLLDR-8m4BtdLuoer8L3eNlOmt9OAKs2YhPGbA3zE5LkCb2hYPEr7Lgqsl- -OoSn7otjfUQ4_TxClF4yHproKJ792gXO-iZMcEXjZY0nrKoiS_IK0yYo5bbQIe4IFb_k7MIuOdMk9wNGSrOW-9ApVEyyBOkg52ZqSMnFSqqR4owOI8a3vx1WsuAG2iAoO5p0Z5LZiodBF8Ualhy8A0i-QyzpOQ0NFMkKWlZ9LcaiL0-O0hTv5bsQd-Ur2g5t7LEc6IEiX91frYQpjEkuFJWBQKqcyDS3Mau3z1PCwYrCC_h3LnobfIscuJ5koPw1gbtnTIsPvcKJV-d_ylxjrV9b-Af-YvrCvt0scGIqsZ9sD7_eshAGPOfASR5kIl5_nxStDuRvbLRBV272SkDQG89omrDikF5TyYDuWn1iK-hu0IKuHGbOdjQvbGwHM7FH48Be527QsAjleqC_7lqSD3cYDyfAT7r_M57YqDJfmxPTxTfcRtvMPfYhhczteR_qJUFCtR_RkBuV3xgk-V6xJTl1WxVXjWrxyEWqt6hV8PFJI3DLu1VaOTsglPlTXj5DsoPgr2Uu-B15mS9e4St3Q1vCemJwpetd4CXIgOl6SeEFpKhHWbAQbm4p2B52GIvDEQgnrqms3Ejg-Csu5SRmfqP9Pu15bPTRH51fMQ7N37IB9BiIKg8cv8QmiivHZSZFg4osM_rWtf2zJD3_ZbZ1gfHq0VQf6hZSMVaaJFOcmHYuu9gRK92Q2I7kv_5yu0h8SQKDF6hX4gbYHGQHx0dGUiLhp0H3oTSFHs2MASfGrHf6y2IvIIDHqKEjlCOXNJC2H-bKhhYvgggPcb6RojofiyoHvjP-2YgKYYiD6I5tmbrrrYYTFhTh_R1ugSJi9aUxoQiHkc6c6gTMigdKSqFtefLBJj-fS_2r9X7q-294JkHjhRi88pyrhzVXIBYeu-wrffnAozfYeN_5nEF83wu7hlZstW-9rheXvdo3Sai6QOTmuFq7]--></g></svg>