<svg xmlns="http://www.w3.org/2000/svg" xmlns:xlink="http://www.w3.org/1999/xlink" contentStyleType="text/css" data-diagram-type="STATE" height="1382px" preserveAspectRatio="none" style="width:1140px;height:1382px;background:#FFFFFF;" version="1.1" viewBox="0 0 1140 1382" width="1140px" zoomAndPan="magnify"><title>Employment Status Lifecycle</title><defs/><g><g class="title" data-source-line="1"><text fill="#000000" font-family="sans-serif" font-size="14" font-weight="bold" lengthAdjust="spacing" textLength="206.001" x="456.9995" y="23.5352">Employment Status Lifecycle</text></g><!--cluster Onboarding--><g class="cluster" data-entity="Onboarding" data-source-line="5" data-uid="ent0002" id="cluster_Onboarding"><path d="M322.5,341.1083 L617.5,341.1083 A12.5,12.5 0 0 1 630,353.6083 L630,362.5966 L310,362.5966 L310,353.6083 A12.5,12.5 0 0 1 322.5,341.1083" fill="#F1F1F1"/><rect fill="none" height="541" rx="12.5" ry="12.5" style="stroke:#181818;stroke-width:0.5;" width="320" x="310" y="341.1083"/><line style="stroke:#181818;stroke-width:0.5;" x1="310" x2="630" y1="362.5966" y2="362.5966"/><text fill="#000000" font-family="sans-serif" font-size="14" lengthAdjust="spacing" textLength="124.2363" x="407.8818" y="358.6434">Onboarding Phase</text></g><!--cluster Active--><g class="cluster" data-entity="Active" data-source-line="15" data-uid="ent0003" id="cluster_Active"><path d="M717.5,762.1083 L948.5,762.1083 A12.5,12.5 0 0 1 961,774.6083 L961,783.5966 L705,783.5966 L705,774.6083 A12.5,12.5 0 0 1 717.5,762.1083" fill="#F1F1F1"/><rect fill="none" height="249" rx="12.5" ry="12.5" style="stroke:#181818;stroke-width:0.5;" width="256" x="705" y="762.1083"/><line style="stroke:#181818;stroke-width:0.5;" x1="705" x2="961" y1="783.5966" y2="783.5966"/><text fill="#000000" font-family="sans-serif" font-size="14" lengthAdjust="spacing" textLength="129.8145" x="768.0928" y="779.6434">Active Employment</text></g><!--cluster Offboarding--><g class="cluster" data-entity="Offboarding" data-source-line="25" data-uid="ent0004" id="cluster_Offboarding"><path d="M520.5,1060.1083 L1114.5,1060.1083 A12.5,12.5 0 0 1 1127,1072.6083 L1127,1081.5966 L508,1081.5966 L508,1072.6083 A12.5,12.5 0 0 1 520.5,1060.1083" fill="#F1F1F1"/><rect fill="none" height="247" rx="12.5" ry="12.5" style="stroke:#181818;stroke-width:0.5;" width="619" x="508" y="1060.1083"/><line style="stroke:#181818;stroke-width:0.5;" x1="508" x2="1127" y1="1081.5966" y2="1081.5966"/><text fill="#000000" font-family="sans-serif" font-size="14" lengthAdjust="spacing" textLength="125.8428" x="754.5786" y="1077.6434">Offboarding Phase</text></g><!--cluster Misc--><g class="cluster" data-entity="Misc" data-source-line="36" data-uid="ent0005" id="cluster_Misc"><path d="M19.5,44.4883 L230.5,44.4883 A12.5,12.5 0 0 1 243,56.9883 L243,65.9766 L7,65.9766 L7,56.9883 A12.5,12.5 0 0 1 19.5,44.4883" fill="#F1F1F1"/><rect fill="none" height="120.62" rx="12.5" ry="12.5" style="stroke:#181818;stroke-width:0.5;" width="236" x="7" y="44.4883"/><line style="stroke:#181818;stroke-width:0.5;" x1="7" x2="243" y1="65.9766" y2="65.9766"/><text fill="#000000" font-family="sans-serif" font-size="14" lengthAdjust="spacing" textLength="38.3291" x="105.8354" y="62.0234">Other</text></g><g id="Onboarding.PENDING_HIRE"><rect fill="#F1F1F1" height="50" rx="12.5" ry="12.5" style="stroke:#181818;stroke-width:0.5;" width="118.4102" x="325.79" y="395.1083"/><line style="stroke:#181818;stroke-width:0.5;" x1="325.79" x2="444.2002" y1="421.5966" y2="421.5966"/><text fill="#000000" font-family="sans-serif" font-size="14" lengthAdjust="spacing" textLength="98.4102" x="335.79" y="413.6434">PENDING_HIRE</text></g><g id="Onboarding.PENDING_REHIRE"><rect fill="#F1F1F1" height="50" rx="12.5" ry="12.5" style="stroke:#181818;stroke-width:0.5;" width="134.8506" x="479.57" y="395.1083"/><line style="stroke:#181818;stroke-width:0.5;" x1="479.57" x2="614.4206" y1="421.5966" y2="421.5966"/><text fill="#000000" font-family="sans-serif" font-size="14" lengthAdjust="spacing" textLength="114.8506" x="489.57" y="413.6434">PENDING_REHIRE</text></g><g id="Onboarding.HIRED"><rect fill="#F1F1F1" height="50" rx="12.5" ry="12.5" style="stroke:#181818;stroke-width:0.5;" width="61.248" x="339.38" y="522.1083"/><line style="stroke:#181818;stroke-width:0.5;" x1="339.38" x2="400.628" y1="548.5966" y2="548.5966"/><text fill="#000000" font-family="sans-serif" font-size="14" lengthAdjust="spacing" textLength="41.248" x="349.38" y="540.6434">HIRED</text></g><g id="Onboarding.REHIRED"><rect fill="#F1F1F1" height="50" rx="12.5" ry="12.5" style="stroke:#181818;stroke-width:0.5;" width="77.6885" x="490.16" y="522.1083"/><line style="stroke:#181818;stroke-width:0.5;" x1="490.16" x2="567.8485" y1="548.5966" y2="548.5966"/><text fill="#000000" font-family="sans-serif" font-size="14" lengthAdjust="spacing" textLength="57.6885" x="500.16" y="540.6434">REHIRED</text></g><g id="Onboarding.ONBOARDING"><rect fill="#F1F1F1" height="50" rx="12.5" ry="12.5" style="stroke:#181818;stroke-width:0.5;" width="113.6387" x="368.18" y="649.1083"/><line style="stroke:#181818;stroke-width:0.5;" x1="368.18" x2="481.8187" y1="675.5966" y2="675.5966"/><text fill="#000000" font-family="sans-serif" font-size="14" lengthAdjust="spacing" textLength="93.6387" x="378.18" y="667.6434">ONBOARDING</text></g><g id="Onboarding.ACTIVE"><rect fill="#F1F1F1" height="50" rx="12.5" ry="12.5" style="stroke:#181818;stroke-width:0.5;" width="68.9727" x="412.51" y="816.1083"/><line style="stroke:#181818;stroke-width:0.5;" x1="412.51" x2="481.4827" y1="842.5966" y2="842.5966"/><text fill="#000000" font-family="sans-serif" font-size="14" lengthAdjust="spacing" textLength="48.9727" x="422.51" y="834.6434">ACTIVE</text></g><g id="Active.ON_LEAVE"><rect fill="#F1F1F1" height="50" rx="12.5" ry="12.5" style="stroke:#181818;stroke-width:0.5;" width="89.6719" x="721.16" y="816.1083"/><line style="stroke:#181818;stroke-width:0.5;" x1="721.16" x2="810.8319" y1="842.5966" y2="842.5966"/><text fill="#000000" font-family="sans-serif" font-size="14" lengthAdjust="spacing" textLength="69.6719" x="731.16" y="834.6434">ON_LEAVE</text></g><g id="Active.SUSPENDED"><rect fill="#F1F1F1" height="50" rx="12.5" ry="12.5" style="stroke:#181818;stroke-width:0.5;" width="99.0098" x="845.5" y="816.1083"/><line style="stroke:#181818;stroke-width:0.5;" x1="845.5" x2="944.5098" y1="842.5966" y2="842.5966"/><text fill="#000000" font-family="sans-serif" font-size="14" lengthAdjust="spacing" textLength="79.0098" x="855.5" y="834.6434">SUSPENDED</text></g><g id="Active.PENDING_OFFBOARD"><rect fill="#F1F1F1" height="50" rx="12.5" ry="12.5" style="stroke:#181818;stroke-width:0.5;" width="161.4629" x="721.27" y="945.1083"/><line style="stroke:#181818;stroke-width:0.5;" x1="721.27" x2="882.7329" y1="971.5966" y2="971.5966"/><text fill="#000000" font-family="sans-serif" font-size="14" lengthAdjust="spacing" textLength="141.4629" x="731.27" y="963.6434">PENDING_OFFBOARD</text></g><g id="Offboarding.OFFBOARDING"><rect fill="#F1F1F1" height="50" rx="12.5" ry="12.5" style="stroke:#181818;stroke-width:0.5;" width="118.3076" x="742.85" y="1114.1083"/><line style="stroke:#181818;stroke-width:0.5;" x1="742.85" x2="861.1576" y1="1140.5966" y2="1140.5966"/><text fill="#000000" font-family="sans-serif" font-size="14" lengthAdjust="spacing" textLength="98.3076" x="752.85" y="1132.6434">OFFBOARDING</text></g><g id="Offboarding.TERMINATED"><rect fill="#F1F1F1" height="50" rx="12.5" ry="12.5" style="stroke:#181818;stroke-width:0.5;" width="108.3135" x="569.84" y="1241.1083"/><line style="stroke:#181818;stroke-width:0.5;" x1="569.84" x2="678.1535" y1="1267.5966" y2="1267.5966"/><text fill="#000000" font-family="sans-serif" font-size="14" lengthAdjust="spacing" textLength="88.3135" x="579.84" y="1259.6434">TERMINATED</text></g><g id="Offboarding.RESIGNED"><rect fill="#F1F1F1" height="50" rx="12.5" ry="12.5" style="stroke:#181818;stroke-width:0.5;" width="86.5479" x="758.73" y="1241.1083"/><line style="stroke:#181818;stroke-width:0.5;" x1="758.73" x2="845.2779" y1="1267.5966" y2="1267.5966"/><text fill="#000000" font-family="sans-serif" font-size="14" lengthAdjust="spacing" textLength="66.5479" x="768.73" y="1259.6434">RESIGNED</text></g><g id="Offboarding.RETIRED"><rect fill="#F1F1F1" height="50" rx="12.5" ry="12.5" style="stroke:#181818;stroke-width:0.5;" width="76.2529" x="909.87" y="1241.1083"/><line style="stroke:#181818;stroke-width:0.5;" x1="909.87" x2="986.1229" y1="1267.5966" y2="1267.5966"/><text fill="#000000" font-family="sans-serif" font-size="14" lengthAdjust="spacing" textLength="56.2529" x="919.87" y="1259.6434">RETIRED</text></g><g id="Misc.UNKNOWN"><rect fill="#F1F1F1" height="50.6211" rx="12.5" ry="12.5" style="stroke:#181818;stroke-width:0.5;" width="204.4531" x="22.77" y="98.4883"/><line style="stroke:#181818;stroke-width:0.5;" x1="22.77" x2="227.2231" y1="124.9766" y2="124.9766"/><text fill="#000000" font-family="sans-serif" font-size="14" lengthAdjust="spacing" textLength="72.7207" x="88.6362" y="117.0234">UNKNOWN</text><text fill="#000000" font-family="sans-serif" font-size="12" lengthAdjust="spacing" textLength="184.4531" x="27.77" y="141.5781">Undefined or transitional status</text></g><ellipse cx="467" cy="123.7983" fill="#222222" rx="10" ry="10" style="stroke:#222222;stroke-width:1;"/><g id="CANDIDATE"><rect fill="#F1F1F1" height="50" rx="12.5" ry="12.5" style="stroke:#181818;stroke-width:0.5;" width="100.7939" x="416.6" y="228.1083"/><line style="stroke:#181818;stroke-width:0.5;" x1="416.6" x2="517.3939" y1="254.5966" y2="254.5966"/><text fill="#000000" font-family="sans-serif" font-size="14" lengthAdjust="spacing" textLength="80.7939" x="426.6" y="246.6434">CANDIDATE</text></g><ellipse cx="802" cy="1365.1083" fill="none" rx="11" ry="11" style="stroke:#222222;stroke-width:1;"/><ellipse cx="802" cy="1365.1083" fill="#222222" rx="6" ry="6" style="stroke:#222222;stroke-width:1;"/><g class="entity" data-entity="GMN3" data-source-line="41" data-uid="ent0004" id="entity_GMN3"><path d="M262.15,103.4883 L262.15,119.7983 L227.57,123.7983 L262.15,127.7983 L262.15,144.1094 A0,0 0 0 0 262.15,144.1094 L421.859,144.1094 A0,0 0 0 0 421.859,144.1094 L421.859,113.4883 L411.859,103.4883 L262.15,103.4883 A0,0 0 0 0 262.15,103.4883" fill="#FEFFDD" style="stroke:#181818;stroke-width:0.5;"/><path d="M411.859,103.4883 L411.859,113.4883 L421.859,113.4883 L411.859,103.4883" fill="#FEFFDD" style="stroke:#181818;stroke-width:0.5;"/><text fill="#000000" font-family="sans-serif" font-size="13" lengthAdjust="spacing" textLength="110.9063" x="268.15" y="121.0566">Used when status</text><text fill="#000000" font-family="sans-serif" font-size="13" lengthAdjust="spacing" textLength="138.709" x="268.15" y="136.3672">cannot be determined</text></g><!--link *start* to CANDIDATE--><g class="link" data-entity-1=".start." data-entity-2="CANDIDATE" data-source-line="3" data-uid="lnk4" id="link_.start._CANDIDATE"><path d="M467,133.9583 C467,153.3383 467,193.0783 467,221.6283" fill="none" id="*start*-to-CANDIDATE" style="stroke:#181818;stroke-width:1;"/><polygon fill="#181818" points="467,227.6283,471,218.6283,467,222.6283,463,218.6283,467,227.6283" style="stroke:#181818;stroke-width:1;"/><text fill="#000000" font-family="sans-serif" font-size="13" lengthAdjust="spacing" textLength="88.8037" x="468" y="194.6766">New applicant</text></g><!--link CANDIDATE to PENDING_HIRE--><g class="link" data-entity-1="CANDIDATE" data-entity-2="PENDING_HIRE" data-source-line="6" data-uid="lnk6" id="link_CANDIDATE_PENDING_HIRE"><path d="M419.06,278.3583 C408,286.2883 397.56,296.1983 391,308.1083 C376.19,334.9883 376.6951,365.3485 379.7751,388.9985" fill="none" id="CANDIDATE-to-PENDING_HIRE" style="stroke:#181818;stroke-width:1;"/><polygon fill="#181818" points="380.55,394.9483,383.3542,385.5071,379.9043,389.9902,375.4212,386.5402,380.55,394.9483" style="stroke:#181818;stroke-width:1;"/><text fill="#000000" font-family="sans-serif" font-size="13" lengthAdjust="spacing" textLength="95.3291" x="392" y="321.6766">Offer extended</text></g><!--link CANDIDATE to PENDING_REHIRE--><g class="link" data-entity-1="CANDIDATE" data-entity-2="PENDING_REHIRE" data-source-line="7" data-uid="lnk8" id="link_CANDIDATE_PENDING_REHIRE"><path d="M480.46,278.3983 C485.47,287.6383 491.12,298.2983 496,308.1083 C510.65,337.5383 523.8168,366.5338 533.8568,389.1638" fill="none" id="CANDIDATE-to-PENDING_REHIRE" style="stroke:#181818;stroke-width:1;"/><polygon fill="#181818" points="536.29,394.6483,536.2965,384.7994,534.2623,390.0779,528.9838,388.0437,536.29,394.6483" style="stroke:#181818;stroke-width:1;"/><text fill="#000000" font-family="sans-serif" font-size="13" lengthAdjust="spacing" textLength="94.0532" x="504.31" y="321.6766">Returning staff</text></g><!--link PENDING_HIRE to HIRED--><g class="link" data-entity-1="PENDING_HIRE" data-entity-2="HIRED" data-source-line="8" data-uid="lnk10" id="link_PENDING_HIRE_HIRED"><path d="M382.07,445.5083 C379.43,467.5283 376.2749,493.811 373.6349,515.811" fill="none" id="PENDING_HIRE-to-HIRED" style="stroke:#181818;stroke-width:1;"/><polygon fill="#181818" points="372.92,521.7683,377.9638,513.309,373.5157,516.8039,370.0208,512.3558,372.92,521.7683" style="stroke:#181818;stroke-width:1;"/><text fill="#000000" font-family="sans-serif" font-size="13" lengthAdjust="spacing" textLength="92.2188" x="379.4" y="488.6766">Accepted offer</text></g><!--link PENDING_REHIRE to REHIRED--><g class="link" data-entity-1="PENDING_REHIRE" data-entity-2="REHIRED" data-source-line="9" data-uid="lnk12" id="link_PENDING_REHIRE_REHIRED"><path d="M543.49,445.5083 C540.32,467.5283 536.5257,493.8296 533.3557,515.8296" fill="none" id="PENDING_REHIRE-to-REHIRED" style="stroke:#181818;stroke-width:1;"/><polygon fill="#181818" points="532.5,521.7683,537.7427,513.4308,533.2131,516.8194,529.8245,512.2898,532.5,521.7683" style="stroke:#181818;stroke-width:1;"/><text fill="#000000" font-family="sans-serif" font-size="13" lengthAdjust="spacing" textLength="92.2188" x="540.08" y="488.6766">Accepted offer</text></g><!--link HIRED to ONBOARDING--><g class="link" data-entity-1="HIRED" data-entity-2="ONBOARDING" data-source-line="10" data-uid="lnk14" id="link_HIRED_ONBOARDING"><path d="M362.2,572.4483 C359.02,586.6383 357.45,604.5583 364,619.1083 C369.17,630.5883 373.5841,636.6807 383.0541,644.8807" fill="none" id="HIRED-to-ONBOARDING" style="stroke:#181818;stroke-width:1;"/><polygon fill="#181818" points="387.59,648.8083,383.4046,639.893,383.8101,645.5353,378.1678,645.9408,387.59,648.8083" style="stroke:#181818;stroke-width:1;"/><text fill="#000000" font-family="sans-serif" font-size="13" lengthAdjust="spacing" textLength="164.3535" x="365" y="615.6766">Begin onboarding process</text></g><!--link REHIRED to ONBOARDING--><g class="link" data-entity-1="REHIRED" data-entity-2="ONBOARDING" data-source-line="11" data-uid="lnk15" id="link_REHIRED_ONBOARDING"><path d="M537.52,572.5183 C541.03,587.0883 542.54,605.3583 534,619.1083 C522.36,637.8583 507.6134,648.0268 487.6634,656.1868" fill="none" id="REHIRED-to-ONBOARDING" style="stroke:#181818;stroke-width:1;"/><polygon fill="#181818" points="482.11,658.4583,491.9544,658.7533,486.7378,656.5654,488.9258,651.3488,482.11,658.4583" style="stroke:#181818;stroke-width:1;"/></g><!--link ONBOARDING to ACTIVE--><g class="link" data-entity-1="ONBOARDING" data-entity-2="ACTIVE" data-source-line="12" data-uid="lnk17" id="link_ONBOARDING_ACTIVE"><path d="M423.35,699.5583 C422.81,708.8083 422.27,719.4383 422,729.1083 C421.79,736.6583 421.02,738.6183 422,746.1083 C425.15,770.2183 430.8514,791.2305 436.8214,810.0005" fill="none" id="ONBOARDING-to-ACTIVE" style="stroke:#181818;stroke-width:1;"/><polygon fill="#181818" points="438.64,815.7183,439.7239,805.9293,437.1245,810.9535,432.1003,808.354,438.64,815.7183" style="stroke:#181818;stroke-width:1;"/><text fill="#000000" font-family="sans-serif" font-size="13" lengthAdjust="spacing" textLength="145.5327" x="423" y="742.6766">Completed onboarding</text></g><!--link ACTIVE to ON_LEAVE--><g class="link" data-entity-1="ACTIVE" data-entity-2="ON_LEAVE" data-source-line="16" data-uid="lnk19" id="link_ACTIVE_ON_LEAVE"><path d="M481.89,841.1083 C561.52,841.1083 635.15,841.1083 714.78,841.1083" fill="none" id="ACTIVE-to-ON_LEAVE" style="stroke:#181818;stroke-width:1;"/><polygon fill="#181818" points="720.78,841.1083,711.78,837.1083,715.78,841.1083,711.78,845.1083,720.78,841.1083" style="stroke:#181818;stroke-width:1;"/></g><!--link ON_LEAVE to ACTIVE--><g class="link" data-entity-1="ON_LEAVE" data-entity-2="ACTIVE" data-source-line="17" data-uid="lnk20" id="link_ON_LEAVE_ACTIVE"><path d="M720.82,841.1083 C656.47,841.1083 545.8,841.1083 487.75,841.1083" fill="none" id="ON_LEAVE-to-ACTIVE" style="stroke:#181818;stroke-width:1;"/><polygon fill="#181818" points="481.75,841.1083,490.75,845.1083,486.75,841.1083,490.75,837.1083,481.75,841.1083" style="stroke:#181818;stroke-width:1;"/><text fill="#000000" font-family="sans-serif" font-size="13" lengthAdjust="spacing" textLength="203.5186" x="499.83" y="834.6766">Returns to work (or) Takes leave</text></g><!--link ACTIVE to SUSPENDED--><g class="link" data-entity-1="ACTIVE" data-entity-2="SUSPENDED" data-source-line="18" data-uid="lnk22" id="link_ACTIVE_SUSPENDED"><path d="M481.65,824.2483 C528.18,802.6383 614.05,766.3283 692,752.6883 C743.66,743.6583 757.6,750.6283 810,752.6883 C818.02,753.0083 820.94,750.2883 828,754.1083 C853.14,767.7283 868.9469,789.9909 880.1069,810.4509" fill="none" id="ACTIVE-to-SUSPENDED" style="stroke:#181818;stroke-width:1;"/><polygon fill="#181818" points="882.98,815.7183,882.1819,805.9018,880.5857,811.3288,875.1587,809.7326,882.98,815.7183" style="stroke:#181818;stroke-width:1;"/><text fill="#000000" font-family="sans-serif" font-size="13" lengthAdjust="spacing" textLength="116.2192" x="693" y="742.6766">Disciplinary action</text></g><!--link SUSPENDED to ACTIVE--><g class="link" data-entity-1="SUSPENDED" data-entity-2="ACTIVE" data-source-line="19" data-uid="lnk23" id="link_SUSPENDED_ACTIVE"><path d="M883.44,815.6883 C872.45,794.9083 853.76,766.9483 828,754.1083 C818.94,749.5983 594.47,747.3083 577,752.6883 C537.09,764.9783 502.9701,790.2126 478.3401,811.7126" fill="none" id="SUSPENDED-to-ACTIVE" style="stroke:#181818;stroke-width:1;"/><polygon fill="#181818" points="473.82,815.6583,483.2306,812.7531,477.5868,812.3702,477.9697,806.7263,473.82,815.6583" style="stroke:#181818;stroke-width:1;"/><text fill="#000000" font-family="sans-serif" font-size="13" lengthAdjust="spacing" textLength="108.3228" x="578" y="742.6766">Suspension lifted</text></g><!--link ACTIVE to PENDING_OFFBOARD--><g class="link" data-entity-1="ACTIVE" data-entity-2="PENDING_OFFBOARD" data-source-line="20" data-uid="lnk25" id="link_ACTIVE_PENDING_OFFBOARD"><path d="M472.85,866.3183 C491.54,882.5083 518.12,902.9883 545,915.1083 C600.9,940.3183 663.0574,953.1205 715.1074,960.3705" fill="none" id="ACTIVE-to-PENDING_OFFBOARD" style="stroke:#181818;stroke-width:1;"/><polygon fill="#181818" points="721.05,961.1983,712.6879,955.9949,716.0978,960.5085,711.5842,963.9184,721.05,961.1983" style="stroke:#181818;stroke-width:1;"/><text fill="#000000" font-family="sans-serif" font-size="13" lengthAdjust="spacing" textLength="228.6172" x="546" y="911.6766">Notice given or pending termination</text></g><!--link ON_LEAVE to PENDING_OFFBOARD--><g class="link" data-entity-1="ON_LEAVE" data-entity-2="PENDING_OFFBOARD" data-source-line="21" data-uid="lnk26" id="link_ON_LEAVE_PENDING_OFFBOARD"><path d="M772.94,866.5983 C779.32,889.0883 787.0736,916.4558 793.4436,938.9258" fill="none" id="ON_LEAVE-to-PENDING_OFFBOARD" style="stroke:#181818;stroke-width:1;"/><polygon fill="#181818" points="795.08,944.6983,796.4737,934.9485,793.7163,939.8878,788.777,937.1305,795.08,944.6983" style="stroke:#181818;stroke-width:1;"/></g><!--link SUSPENDED to PENDING_OFFBOARD--><g class="link" data-entity-1="SUSPENDED" data-entity-2="PENDING_OFFBOARD" data-source-line="22" data-uid="lnk27" id="link_SUSPENDED_PENDING_OFFBOARD"><path d="M877.07,866.5983 C860.6,889.0883 839.8743,917.387 823.4243,939.857" fill="none" id="SUSPENDED-to-PENDING_OFFBOARD" style="stroke:#181818;stroke-width:1;"/><polygon fill="#181818" points="819.88,944.6983,828.4239,939.7992,822.8335,940.6639,821.9688,935.0735,819.88,944.6983" style="stroke:#181818;stroke-width:1;"/></g><!--link PENDING_OFFBOARD to OFFBOARDING--><g class="link" data-entity-1="PENDING_OFFBOARD" data-entity-2="OFFBOARDING" data-source-line="26" data-uid="lnk29" id="link_PENDING_OFFBOARD_OFFBOARDING"><path d="M802,995.3883 C802,1027.0583 802,1076.1183 802,1107.7983" fill="none" id="PENDING_OFFBOARD-to-OFFBOARDING" style="stroke:#181818;stroke-width:1;"/><polygon fill="#181818" points="802,1113.7983,806,1104.7983,802,1108.7983,798,1104.7983,802,1113.7983" style="stroke:#181818;stroke-width:1;"/><text fill="#000000" font-family="sans-serif" font-size="13" lengthAdjust="spacing" textLength="115.356" x="803" y="1040.6766">Begin exit process</text></g><!--link OFFBOARDING to TERMINATED--><g class="link" data-entity-1="OFFBOARDING" data-entity-2="TERMINATED" data-source-line="27" data-uid="lnk31" id="link_OFFBOARDING_TERMINATED"><path d="M742.5,1146.9583 C685.97,1154.8283 606.87,1169.8883 588,1194.1083 C576.96,1208.2783 582.5661,1221.7613 594.5561,1236.1313" fill="none" id="OFFBOARDING-to-TERMINATED" style="stroke:#181818;stroke-width:1;"/><polygon fill="#181818" points="598.4,1240.7383,595.7054,1231.2652,595.1967,1236.8991,589.5628,1236.3905,598.4,1240.7383" style="stroke:#181818;stroke-width:1;"/><text fill="#000000" font-family="sans-serif" font-size="13" lengthAdjust="spacing" textLength="201.4429" x="589" y="1207.6766">Employment ended by company</text></g><!--link OFFBOARDING to RESIGNED--><g class="link" data-entity-1="OFFBOARDING" data-entity-2="RESIGNED" data-source-line="28" data-uid="lnk33" id="link_OFFBOARDING_RESIGNED"><path d="M800.13,1164.4183 C799.29,1178.1283 798.57,1195.5683 799,1211.1083 C799.27,1220.7783 799.4603,1225.4185 800.0003,1234.6685" fill="none" id="OFFBOARDING-to-RESIGNED" style="stroke:#181818;stroke-width:1;"/><polygon fill="#181818" points="800.35,1240.6583,803.8187,1231.4405,800.0586,1235.6668,795.8323,1231.9067,800.35,1240.6583" style="stroke:#181818;stroke-width:1;"/><text fill="#000000" font-family="sans-serif" font-size="13" lengthAdjust="spacing" textLength="135.6177" x="800" y="1207.6766">Voluntary resignation</text></g><!--link OFFBOARDING to RETIRED--><g class="link" data-entity-1="OFFBOARDING" data-entity-2="RETIRED" data-source-line="29" data-uid="lnk35" id="link_OFFBOARDING_RETIRED"><path d="M861.54,1148.9083 C889.7,1156.2283 921.19,1169.6283 940,1194.1083 C950.05,1207.1883 952.0735,1219.8536 951.4435,1234.7536" fill="none" id="OFFBOARDING-to-RETIRED" style="stroke:#181818;stroke-width:1;"/><polygon fill="#181818" points="951.19,1240.7483,955.5666,1231.9253,951.4012,1235.7527,947.5738,1231.5873,951.19,1240.7483" style="stroke:#181818;stroke-width:1;"/><text fill="#000000" font-family="sans-serif" font-size="13" lengthAdjust="spacing" textLength="130.5522" x="948.71" y="1207.6766">Employee retirement</text></g><!--link TERMINATED to *end*--><g class="link" data-entity-1="TERMINATED" data-entity-2=".end." data-source-line="32" data-uid="lnk37" id="link_TERMINATED_.end."><path d="M668.92,1291.5883 C710.73,1314.3683 764.6414,1343.7474 787.3614,1356.1274" fill="none" id="TERMINATED-to-*end*" style="stroke:#181818;stroke-width:1;"/><polygon fill="#181818" points="792.63,1358.9983,786.641,1351.1796,788.2395,1356.6059,782.8132,1358.2044,792.63,1358.9983" style="stroke:#181818;stroke-width:1;"/></g><!--link RESIGNED to *end*--><g class="link" data-entity-1="RESIGNED" data-entity-2=".end." data-source-line="33" data-uid="lnk38" id="link_RESIGNED_.end."><path d="M802,1291.5883 C802,1311.7883 802,1333.4383 802,1348.0683" fill="none" id="RESIGNED-to-*end*" style="stroke:#181818;stroke-width:1;"/><polygon fill="#181818" points="802,1354.0683,806,1345.0683,802,1349.0683,798,1345.0683,802,1354.0683" style="stroke:#181818;stroke-width:1;"/></g><!--link RETIRED to *end*--><g class="link" data-entity-1="RETIRED" data-entity-2=".end." data-source-line="34" data-uid="lnk39" id="link_RETIRED_.end."><path d="M911.16,1291.5883 C877.54,1313.9183 835.2282,1342.039 815.8182,1354.929" fill="none" id="RETIRED-to-*end*" style="stroke:#181818;stroke-width:1;"/><polygon fill="#181818" points="810.82,1358.2483,820.5302,1356.6015,814.9852,1355.4822,816.1045,1349.9372,810.82,1358.2483" style="stroke:#181818;stroke-width:1;"/></g><!--SRC=[VLHTRvim57tdLrprQPlKFx27IJIX7LeB5I7PmpHL3haGgyH6jjCqglRVTwzn2BJPUCBcVDZ7npZfMeHarxNwk4FbOE64srkubpLMnwh5AFhrvJTSNt-3MPpDqtbS9l0LCZo0wBfMLaAvAB94GhZArLeBiv6gWSUji7W5mi9eyYq2UiuwhFgOq2YxU_gU5YoSrpKQm5U7QeER_-2B930AT7kZM9vMKTUUCX5b5h_C2HnN5NOEDw3PPu8DWepkN_-1xpynBCzkyhXWCY5li94Az7cpdT4LMkiv9y4fotyQYV3NU5QcAzxMJDEPeBSUDAC_GzHnvUJB-E1yrc6sppb8zPvFzqcyIe9ZFvZwzJ5QS1eEsZp39sq-GocUqKABuWNVIowM2qxEfpINjf9K1YNC4GIjGIiFFsCcLekzxL1PGa4hQnUEUQHzEfByzjQ7muNJJbO83MsFKZP00ZvbXsP7leFbP7FlTIuiwWFa735LyLATHxDlam8Dg_M9Xy6u7FWgtQGMOn2JogHuI3DgEkzuT2VzNO3r4IegXL37Y-GYMQHtcQUkTBjNZW_3e9NDE9uFf38qlRT398gJ1jcNinWjYV7qBuW6e_D4ERIRnqE0Rel6X_P01GbfBRCVMVup8ySbxQgMYXjkm1b1ZU1rYfOlCls3s5vf4ZAosJgwWISkwImjqGvRwaB00j2VYD2mHjXWtmeg5YK7h17z1G00]--></g></svg>