<?xml version="1.0" encoding="us-ascii" standalone="no"?><svg xmlns="http://www.w3.org/2000/svg" xmlns:xlink="http://www.w3.org/1999/xlink" contentStyleType="text/css" height="628px" preserveAspectRatio="none" style="width:4436px;height:628px;background:#FFFFFF;" version="1.1" viewBox="0 0 4436 628" width="4436px" zoomAndPan="magnify"><defs/><g><g id="elem_AddressReference"><rect fill="#F1F1F1" height="36.4883" rx="2.5" ry="2.5" style="stroke:#181818;stroke-width:0.5;" width="144" x="407.09" y="392.96"/><text fill="#000000" font-family="sans-serif" font-size="14" lengthAdjust="spacing" textLength="124" x="417.09" y="416.4952">AddressReference</text></g><g id="elem_ControlAccountReference"><rect fill="#F1F1F1" height="36.4883" rx="2.5" ry="2.5" style="stroke:#181818;stroke-width:0.5;" width="196" x="2050.09" y="296.47"/><text fill="#000000" font-family="sans-serif" font-size="14" lengthAdjust="spacing" textLength="176" x="2060.09" y="320.0052">ControlAccountReference</text></g><g id="elem_CreditReference"><rect fill="#F1F1F1" height="36.4883" rx="2.5" ry="2.5" style="stroke:#181818;stroke-width:0.5;" width="130" x="3837.09" y="296.47"/><text fill="#000000" font-family="sans-serif" font-size="14" lengthAdjust="spacing" textLength="110" x="3847.09" y="320.0052">CreditReference</text></g><g id="elem_CustomerOrderReference"><rect fill="#F1F1F1" height="36.4883" rx="2.5" ry="2.5" style="stroke:#181818;stroke-width:0.5;" width="195" x="639.59" y="489.44"/><text fill="#000000" font-family="sans-serif" font-size="14" lengthAdjust="spacing" textLength="175" x="649.59" y="512.9752">CustomerOrderReference</text></g><g id="elem_DiscountReference"><rect fill="#F1F1F1" height="36.4883" rx="2.5" ry="2.5" style="stroke:#181818;stroke-width:0.5;" width="148" x="2714.09" y="296.47"/><text fill="#000000" font-family="sans-serif" font-size="14" lengthAdjust="spacing" textLength="128" x="2724.09" y="320.0052">DiscountReference</text></g><g id="elem_EffectivePeriod"><rect fill="#F1F1F1" height="36.4883" rx="2.5" ry="2.5" style="stroke:#181818;stroke-width:0.5;" width="121" x="4293.59" y="103.49"/><text fill="#000000" font-family="sans-serif" font-size="14" lengthAdjust="spacing" textLength="101" x="4303.59" y="127.0252">EffectivePeriod</text></g><g id="elem_FeeReference"><rect fill="#F1F1F1" height="36.4883" rx="2.5" ry="2.5" style="stroke:#181818;stroke-width:0.5;" width="112" x="2897.09" y="296.47"/><text fill="#000000" font-family="sans-serif" font-size="14" lengthAdjust="spacing" textLength="92" x="2907.09" y="320.0052">FeeReference</text></g><g id="elem_FinancialCategoryReference"><rect fill="#F1F1F1" height="36.4883" rx="2.5" ry="2.5" style="stroke:#181818;stroke-width:0.5;" width="211" x="2281.59" y="296.47"/><text fill="#000000" font-family="sans-serif" font-size="14" lengthAdjust="spacing" textLength="191" x="2291.59" y="320.0052">FinancialCategoryReference</text></g><g id="elem_FinancialEvent"><rect fill="#F1F1F1" height="36.4883" rx="2.5" ry="2.5" style="stroke:#181818;stroke-width:0.5;" width="118" x="1768.09" y="392.96"/><text fill="#000000" font-family="sans-serif" font-size="14" lengthAdjust="spacing" textLength="98" x="1778.09" y="416.4952">FinancialEvent</text></g><g id="elem_FinancialSplit"><rect fill="#F1F1F1" height="36.4883" rx="2.5" ry="2.5" style="stroke:#181818;stroke-width:0.5;" width="111" x="2547.59" y="392.96"/><text fill="#000000" font-family="sans-serif" font-size="14" lengthAdjust="spacing" textLength="91" x="2557.59" y="416.4952">FinancialSplit</text></g><g id="elem_FinancialTrackReference"><rect fill="#F1F1F1" height="36.4883" rx="2.5" ry="2.5" style="stroke:#181818;stroke-width:0.5;" width="187" x="1546.59" y="392.96"/><text fill="#000000" font-family="sans-serif" font-size="14" lengthAdjust="spacing" textLength="167" x="1556.59" y="416.4952">FinancialTrackReference</text></g><g id="elem_Identifier"><rect fill="#F1F1F1" height="36.4883" rx="2.5" ry="2.5" style="stroke:#181818;stroke-width:0.5;" width="82" x="1738.09" y="199.98"/><text fill="#000000" font-family="sans-serif" font-size="14" lengthAdjust="spacing" textLength="62" x="1748.09" y="223.5152">Identifier</text></g><g id="elem_LenderReference"><rect fill="#F1F1F1" height="36.4883" rx="2.5" ry="2.5" style="stroke:#181818;stroke-width:0.5;" width="135" x="735.59" y="392.96"/><text fill="#000000" font-family="sans-serif" font-size="14" lengthAdjust="spacing" textLength="115" x="745.59" y="416.4952">LenderReference</text></g><g id="elem_PartOrder"><rect fill="#F1F1F1" height="36.4883" rx="2.5" ry="2.5" style="stroke:#181818;stroke-width:0.5;" width="87" x="1179.59" y="585.93"/><text fill="#000000" font-family="sans-serif" font-size="14" lengthAdjust="spacing" textLength="67" x="1189.59" y="609.4652">PartOrder</text></g><g id="elem_PartOrderItem"><rect fill="#F1F1F1" height="36.4883" rx="2.5" ry="2.5" style="stroke:#181818;stroke-width:0.5;" width="117" x="1674.59" y="489.44"/><text fill="#000000" font-family="sans-serif" font-size="14" lengthAdjust="spacing" textLength="97" x="1684.59" y="512.9752">PartOrderItem</text></g><g id="elem_PartReference"><rect fill="#F1F1F1" height="36.4883" rx="2.5" ry="2.5" style="stroke:#181818;stroke-width:0.5;" width="115" x="585.59" y="392.96"/><text fill="#000000" font-family="sans-serif" font-size="14" lengthAdjust="spacing" textLength="95" x="595.59" y="416.4952">PartReference</text></g><g id="elem_PartyIdentifier"><rect fill="#F1F1F1" height="36.4883" rx="2.5" ry="2.5" style="stroke:#181818;stroke-width:0.5;" width="116" x="4255.09" y="296.47"/><text fill="#000000" font-family="sans-serif" font-size="14" lengthAdjust="spacing" textLength="96" x="4265.09" y="320.0052">PartyIdentifier</text></g><g id="elem_PaymentScheduleReference"><rect fill="#F1F1F1" height="36.4883" rx="2.5" ry="2.5" style="stroke:#181818;stroke-width:0.5;" width="208" x="35.09" y="489.44"/><text fill="#000000" font-family="sans-serif" font-size="14" lengthAdjust="spacing" textLength="188" x="45.09" y="512.9752">PaymentScheduleReference</text></g><g id="elem_PaymentTermReference"><rect fill="#F1F1F1" height="36.4883" rx="2.5" ry="2.5" style="stroke:#181818;stroke-width:0.5;" width="182" x="906.09" y="392.96"/><text fill="#000000" font-family="sans-serif" font-size="14" lengthAdjust="spacing" textLength="162" x="916.09" y="416.4952">PaymentTermReference</text></g><g id="elem_Price"><rect fill="#F1F1F1" height="36.4883" rx="2.5" ry="2.5" style="stroke:#181818;stroke-width:0.5;" width="53" x="4110.59" y="199.98"/><text fill="#000000" font-family="sans-serif" font-size="14" lengthAdjust="spacing" textLength="33" x="4120.59" y="223.5152">Price</text></g><g id="elem_PricePlanReference"><rect fill="#F1F1F1" height="36.4883" rx="2.5" ry="2.5" style="stroke:#181818;stroke-width:0.5;" width="150" x="1921.09" y="392.96"/><text fill="#000000" font-family="sans-serif" font-size="14" lengthAdjust="spacing" textLength="130" x="1931.09" y="416.4952">PricePlanReference</text></g><g id="elem_RebateReference"><rect fill="#F1F1F1" height="36.4883" rx="2.5" ry="2.5" style="stroke:#181818;stroke-width:0.5;" width="135" x="3044.59" y="296.47"/><text fill="#000000" font-family="sans-serif" font-size="14" lengthAdjust="spacing" textLength="115" x="3054.59" y="320.0052">RebateReference</text></g><g id="elem_RewardReference"><rect fill="#F1F1F1" height="36.4883" rx="2.5" ry="2.5" style="stroke:#181818;stroke-width:0.5;" width="139" x="3214.59" y="296.47"/><text fill="#000000" font-family="sans-serif" font-size="14" lengthAdjust="spacing" textLength="119" x="3224.59" y="320.0052">RewardReference</text></g><g id="elem_SalesProfileReference"><rect fill="#F1F1F1" height="36.4883" rx="2.5" ry="2.5" style="stroke:#181818;stroke-width:0.5;" width="167" x="384.59" y="489.44"/><text fill="#000000" font-family="sans-serif" font-size="14" lengthAdjust="spacing" textLength="147" x="394.59" y="512.9752">SalesProfileReference</text></g><g id="elem_ShipmentReference"><rect fill="#F1F1F1" height="36.4883" rx="2.5" ry="2.5" style="stroke:#181818;stroke-width:0.5;" width="153" x="1358.59" y="392.96"/><text fill="#000000" font-family="sans-serif" font-size="14" lengthAdjust="spacing" textLength="133" x="1368.59" y="416.4952">ShipmentReference</text></g><g id="elem_StaffAssignmentReference"><rect fill="#F1F1F1" height="36.4883" rx="2.5" ry="2.5" style="stroke:#181818;stroke-width:0.5;" width="200" x="1123.09" y="392.96"/><text fill="#000000" font-family="sans-serif" font-size="14" lengthAdjust="spacing" textLength="180" x="1133.09" y="416.4952">StaffAssignmentReference</text></g><g id="elem_TaxSplit"><rect fill="#F1F1F1" height="36.4883" rx="2.5" ry="2.5" style="stroke:#181818;stroke-width:0.5;" width="76" x="4002.09" y="296.47"/><text fill="#000000" font-family="sans-serif" font-size="14" lengthAdjust="spacing" textLength="56" x="4012.09" y="320.0052">TaxSplit</text></g><g id="elem_TextualDetail"><rect fill="#F1F1F1" height="36.4883" rx="2.5" ry="2.5" style="stroke:#181818;stroke-width:0.5;" width="111" x="1832.59" y="296.47"/><text fill="#000000" font-family="sans-serif" font-size="14" lengthAdjust="spacing" textLength="91" x="1842.59" y="320.0052">TextualDetail</text></g><g id="elem_AddressTypes"><rect fill="#FAFF91" height="36.4883" rx="2.5" ry="2.5" style="stroke:#181818;stroke-width:0.5;" width="116" x="247.09" y="296.47"/><text fill="#000000" font-family="sans-serif" font-size="14" lengthAdjust="spacing" textLength="96" x="257.09" y="320.0052">AddressTypes</text></g><g id="elem_DurationUOMTypes"><rect fill="#FAFF91" height="36.4883" rx="2.5" ry="2.5" style="stroke:#181818;stroke-width:0.5;" width="153" x="4277.59" y="7"/><text fill="#000000" font-family="sans-serif" font-size="14" lengthAdjust="spacing" textLength="133" x="4287.59" y="30.5352">DurationUOMTypes</text></g><g id="elem_ExitConsiderationTypes"><rect fill="#FAFF91" height="36.4883" rx="2.5" ry="2.5" style="stroke:#181818;stroke-width:0.5;" width="183" x="2765.59" y="392.96"/><text fill="#000000" font-family="sans-serif" font-size="14" lengthAdjust="spacing" textLength="163" x="2775.59" y="416.4952">ExitConsiderationTypes</text></g><g id="elem_FinancialEventTypes"><rect fill="#FAFF91" height="36.4883" rx="2.5" ry="2.5" style="stroke:#181818;stroke-width:0.5;" width="158" x="971.09" y="296.47"/><text fill="#000000" font-family="sans-serif" font-size="14" lengthAdjust="spacing" textLength="138" x="981.09" y="320.0052">FinancialEventTypes</text></g><g id="elem_FinancialTransactionTypes"><rect fill="#FAFF91" height="36.4883" rx="2.5" ry="2.5" style="stroke:#181818;stroke-width:0.5;" width="202" x="3600.09" y="296.47"/><text fill="#000000" font-family="sans-serif" font-size="14" lengthAdjust="spacing" textLength="182" x="3610.09" y="320.0052">FinancialTransactionTypes</text></g><g id="elem_LedgerActionTypes"><rect fill="#FAFF91" height="36.4883" rx="2.5" ry="2.5" style="stroke:#181818;stroke-width:0.5;" width="151" x="2527.59" y="296.47"/><text fill="#000000" font-family="sans-serif" font-size="14" lengthAdjust="spacing" textLength="131" x="2537.59" y="320.0052">LedgerActionTypes</text></g><g id="elem_OrderCategoryTypes"><rect fill="#FAFF91" height="36.4883" rx="2.5" ry="2.5" style="stroke:#181818;stroke-width:0.5;" width="162" x="2984.09" y="392.96"/><text fill="#000000" font-family="sans-serif" font-size="14" lengthAdjust="spacing" textLength="142" x="2994.09" y="416.4952">OrderCategoryTypes</text></g><g id="elem_OrderTypes"><rect fill="#FAFF91" height="36.4883" rx="2.5" ry="2.5" style="stroke:#181818;stroke-width:0.5;" width="100" x="2106.09" y="392.96"/><text fill="#000000" font-family="sans-serif" font-size="14" lengthAdjust="spacing" textLength="80" x="2116.09" y="416.4952">OrderTypes</text></g><g id="elem_PartInvoiceStatusTypes"><rect fill="#FAFF91" height="36.4883" rx="2.5" ry="2.5" style="stroke:#181818;stroke-width:0.5;" width="177" x="3180.59" y="392.96"/><text fill="#000000" font-family="sans-serif" font-size="14" lengthAdjust="spacing" textLength="157" x="3190.59" y="416.4952">PartInvoiceStatusTypes</text></g><g id="elem_PartyRelationshipTypes"><rect fill="#FAFF91" height="36.4883" rx="2.5" ry="2.5" style="stroke:#181818;stroke-width:0.5;" width="179" x="4198.59" y="199.98"/><text fill="#000000" font-family="sans-serif" font-size="14" lengthAdjust="spacing" textLength="159" x="4208.59" y="223.5152">PartyRelationshipTypes</text></g><g id="elem_PaymentMethodTypes"><rect fill="#FAFF91" height="36.4883" rx="2.5" ry="2.5" style="stroke:#181818;stroke-width:0.5;" width="170" x="1164.09" y="296.47"/><text fill="#000000" font-family="sans-serif" font-size="14" lengthAdjust="spacing" textLength="150" x="1174.09" y="320.0052">PaymentMethodTypes</text></g><g id="elem_PaymentTransactionTypes"><rect fill="#FAFF91" height="36.4883" rx="2.5" ry="2.5" style="stroke:#181818;stroke-width:0.5;" width="199" x="1369.59" y="296.47"/><text fill="#000000" font-family="sans-serif" font-size="14" lengthAdjust="spacing" textLength="179" x="1379.59" y="320.0052">PaymentTransactionTypes</text></g><g id="elem_PaymentTypes"><rect fill="#FAFF91" height="36.4883" rx="2.5" ry="2.5" style="stroke:#181818;stroke-width:0.5;" width="118" x="3463.09" y="489.44"/><text fill="#000000" font-family="sans-serif" font-size="14" lengthAdjust="spacing" textLength="98" x="3473.09" y="512.9752">PaymentTypes</text></g><g id="elem_PriceTypes"><rect fill="#FAFF91" height="36.4883" rx="2.5" ry="2.5" style="stroke:#181818;stroke-width:0.5;" width="93" x="4090.59" y="103.49"/><text fill="#000000" font-family="sans-serif" font-size="14" lengthAdjust="spacing" textLength="73" x="4100.59" y="127.0252">PriceTypes</text></g><g id="elem_ProductPriceItemTypes"><rect fill="#FAFF91" height="36.4883" rx="2.5" ry="2.5" style="stroke:#181818;stroke-width:0.5;" width="176" x="3389.09" y="296.47"/><text fill="#000000" font-family="sans-serif" font-size="14" lengthAdjust="spacing" textLength="156" x="3399.09" y="320.0052">ProductPriceItemTypes</text></g><g id="elem_ProductTypes"><rect fill="#FAFF91" height="36.4883" rx="2.5" ry="2.5" style="stroke:#181818;stroke-width:0.5;" width="113" x="397.59" y="296.47"/><text fill="#000000" font-family="sans-serif" font-size="14" lengthAdjust="spacing" textLength="93" x="407.59" y="320.0052">ProductTypes</text></g><g id="elem_ResourceTypes"><rect fill="#FAFF91" height="36.4883" rx="2.5" ry="2.5" style="stroke:#181818;stroke-width:0.5;" width="123" x="1603.59" y="296.47"/><text fill="#000000" font-family="sans-serif" font-size="14" lengthAdjust="spacing" textLength="103" x="1613.59" y="320.0052">ResourceTypes</text></g><g id="elem_SalesPipelineStageTypes"><rect fill="#FAFF91" height="36.4883" rx="2.5" ry="2.5" style="stroke:#181818;stroke-width:0.5;" width="187" x="3615.59" y="489.44"/><text fill="#000000" font-family="sans-serif" font-size="14" lengthAdjust="spacing" textLength="167" x="3625.59" y="512.9752">SalesPipelineStageTypes</text></g><g id="elem_TaxTypes"><rect fill="#FAFF91" height="36.4883" rx="2.5" ry="2.5" style="stroke:#181818;stroke-width:0.5;" width="86" x="3990.09" y="199.98"/><text fill="#000000" font-family="sans-serif" font-size="14" lengthAdjust="spacing" textLength="66" x="4000.09" y="223.5152">TaxTypes</text></g><g id="link_AddressReference_PartOrder"><path d="M563.304,428.6879 C663.574,448.4279 823.8,480.48 852.09,489.44 C890.89,501.74 897.67,512.5 936.09,525.93 C1020.6,555.48 1122.38,580.46 1179.21,593.49 " fill="none" id="AddressReference-backto-PartOrder" style="stroke:#181818;stroke-width:1.0;"/><polygon fill="#181818" points="551.53,426.37,556.6444,431.4536,563.304,428.6879,558.1896,423.6043,551.53,426.37" style="stroke:#181818;stroke-width:1.0;"/></g><g id="link_AddressReference_PartOrderItem"><path d="M563.184,428.9086 C568.834,429.8286 562.63,428.74 568.09,429.44 C989.99,484.08 1503.13,501.05 1674.35,505.39 " fill="none" id="AddressReference-backto-PartOrderItem" style="stroke:#181818;stroke-width:1.0;"/><polygon fill="#181818" points="551.34,426.98,556.6191,431.8923,563.184,428.9086,557.9049,423.9963,551.34,426.98" style="stroke:#181818;stroke-width:1.0;"/></g><g id="link_AddressTypes_AddressReference"><path d="M347.9556,338.9863 C379.1156,355.9063 415.45,375.64 446.65,392.58 " fill="none" id="AddressTypes-backto-AddressReference" style="stroke:#181818;stroke-width:1.0;"/><polygon fill="#181818" points="337.41,333.26,340.774,339.6383,347.9556,338.9863,344.5916,332.608,337.41,333.26" style="stroke:#181818;stroke-width:1.0;"/></g><g id="link_ControlAccountReference_FinancialEvent"><path d="M2088.09,333.37 C2030.47,350.33 1943.95,375.8 1886.53,392.7 " fill="none" id="ControlAccountReference-FinancialEvent" style="stroke:#181818;stroke-width:1.0;"/></g><g id="link_ControlAccountReference_FinancialSplit"><path d="M2233.4,333.43 C2325.27,352.5 2468.76,382.3 2547.22,398.6 " fill="none" id="ControlAccountReference-FinancialSplit" style="stroke:#181818;stroke-width:1.0;"/></g><g id="link_CreditReference_FinancialSplit"><path d="M3825.0753,332.4138 C3819.4053,333.3938 3825.57,332.24 3820.09,332.96 C3319.65,398.42 3186.61,328.1 2686.09,392.96 C2677.19,394.11 2667.81,395.69 2658.7,397.43 " fill="none" id="CreditReference-backto-FinancialSplit" style="stroke:#181818;stroke-width:1.0;"/><polygon fill="#181818" points="3836.9,330.37,3830.3064,327.4503,3825.0753,332.4138,3831.6689,335.3334,3836.9,330.37" style="stroke:#181818;stroke-width:1.0;"/></g><g id="link_CustomerOrderReference_PartOrder"><path d="M839.9994,528.6902 C944.7194,549.0502 1100.46,579.33 1179.33,594.67 " fill="none" id="CustomerOrderReference-backto-PartOrder" style="stroke:#181818;stroke-width:1.0;"/><polygon fill="#181818" points="828.22,526.4,833.3463,531.4716,839.9994,528.6902,834.8731,523.6186,828.22,526.4" style="stroke:#181818;stroke-width:1.0;"/></g><g id="link_DiscountReference_FinancialSplit"><path d="M2743.0431,338.718 C2709.9131,355.638 2670.75,375.64 2637.58,392.58 " fill="none" id="DiscountReference-backto-FinancialSplit" style="stroke:#181818;stroke-width:1.0;"/><polygon fill="#181818" points="2753.73,333.26,2746.5672,332.4267,2743.0431,338.718,2750.2059,339.5513,2753.73,333.26" style="stroke:#181818;stroke-width:1.0;"/></g><g id="link_DurationUOMTypes_EffectivePeriod"><path d="M4354.09,43.58 C4354.09,60.52 4354.09,86.18 4354.09,103.19 " fill="none" id="DurationUOMTypes-EffectivePeriod" style="stroke:#181818;stroke-width:1.0;"/></g><g id="link_EffectivePeriod_PartyIdentifier"><path d="M4368.76,140.34 C4385.7,162.91 4409.48,203.13 4395.09,236.47 C4384.24,261.6 4360.73,282.35 4341.66,295.99 " fill="none" id="EffectivePeriod-PartyIdentifier" style="stroke:#181818;stroke-width:1.0;"/></g><g id="link_EffectivePeriod_Price"><path d="M4313.53,140.4 C4269.86,159.41 4201.62,189.13 4164.08,205.47 " fill="none" id="EffectivePeriod-Price" style="stroke:#181818;stroke-width:1.0;"/></g><g id="link_ExitConsiderationTypes_PartOrder"><path d="M2765.19,425.72 C2756.04,427 2746.88,428.26 2738.09,429.44 C2390.57,476.03 2303.45,486.09 1955.09,525.93 C1694.18,555.77 1380.47,587.48 1266.85,598.83 " fill="none" id="ExitConsiderationTypes-PartOrder" style="stroke:#181818;stroke-width:1.0;"/></g><g id="link_ExitConsiderationTypes_PartOrderItem"><path d="M2765.24,426.14 C2756.08,427.34 2746.91,428.47 2738.09,429.44 C2379.58,469.15 1946.85,494.99 1791.84,503.56 " fill="none" id="ExitConsiderationTypes-PartOrderItem" style="stroke:#181818;stroke-width:1.0;"/></g><g id="link_FeeReference_FinancialSplit"><path d="M2885.2748,334.0179 C2819.8648,351.6779 2724.12,377.52 2658.89,395.13 " fill="none" id="FeeReference-backto-FinancialSplit" style="stroke:#181818;stroke-width:1.0;"/><polygon fill="#181818" points="2896.86,330.89,2890.0248,328.5922,2885.2748,334.0179,2892.11,336.3157,2896.86,330.89" style="stroke:#181818;stroke-width:1.0;"/></g><g id="link_FinancialCategoryReference_FinancialEvent"><path d="M2269.3566,332.4586 C2171.2866,346.8186 2033.36,368.17 1904.09,392.96 C1898.3,394.06 1892.29,395.29 1886.29,396.56 " fill="none" id="FinancialCategoryReference-backto-FinancialEvent" style="stroke:#181818;stroke-width:1.0;"/><polygon fill="#181818" points="2281.23,330.72,2274.7138,327.6315,2269.3566,332.4586,2275.8728,335.5471,2281.23,330.72" style="stroke:#181818;stroke-width:1.0;"/></g><g id="link_FinancialCategoryReference_FinancialSplit"><path d="M2438.4542,338.1791 C2477.0442,355.0591 2523.91,375.56 2562.55,392.46 " fill="none" id="FinancialCategoryReference-backto-FinancialSplit" style="stroke:#181818;stroke-width:1.0;"/><polygon fill="#181818" points="2427.46,333.37,2431.3541,339.4393,2438.4542,338.1791,2434.5601,332.1098,2427.46,333.37" style="stroke:#181818;stroke-width:1.0;"/></g><g id="link_FinancialEventTypes_FinancialEvent"><path d="M1129.42,330.33 C1135.39,331.27 1141.33,332.16 1147.09,332.96 C1414.31,369.92 1484.82,349.69 1751.09,392.96 C1756.57,393.84 1762.24,394.89 1767.9,396.02 " fill="none" id="FinancialEventTypes-FinancialEvent" style="stroke:#181818;stroke-width:1.0;"/></g><g id="link_FinancialEvent_PartOrderItem"><path d="M1801.3848,438.0353 C1784.5248,454.9753 1767.47,472.13 1750.54,489.15 " fill="none" id="FinancialEvent-backto-PartOrderItem" style="stroke:#181818;stroke-width:1.0;"/><polygon fill="#181818" points="1809.85,429.53,1802.7823,430.9609,1801.3848,438.0353,1808.4525,436.6044,1809.85,429.53" style="stroke:#181818;stroke-width:1.0;"/></g><g id="link_FinancialSplit_PartOrder"><path d="M2535.4172,422.1528 C2405.8472,441.1728 2086.38,487.8 1809.09,525.93 C1606.53,553.79 1364.3,585.08 1266.85,597.58 " fill="none" id="FinancialSplit-backto-PartOrder" style="stroke:#181818;stroke-width:1.0;"/><polygon fill="#181818" points="2547.29,420.41,2540.7727,417.3238,2535.4172,422.1528,2541.9346,425.239,2547.29,420.41" style="stroke:#181818;stroke-width:1.0;"/></g><g id="link_FinancialSplit_PartOrderItem"><path d="M2535.4102,419.5461 C2379.4902,436.4861 1951.83,482.93 1792.07,500.28 " fill="none" id="FinancialSplit-backto-PartOrderItem" style="stroke:#181818;stroke-width:1.0;"/><polygon fill="#181818" points="2547.34,418.25,2540.9431,414.9215,2535.4102,419.5461,2541.8071,422.8747,2547.34,418.25" style="stroke:#181818;stroke-width:1.0;"/></g><g id="link_FinancialTrackReference_PartOrderItem"><path d="M1665.5668,438.0832 C1682.2368,455.0232 1699.08,472.13 1715.83,489.15 " fill="none" id="FinancialTrackReference-backto-PartOrderItem" style="stroke:#181818;stroke-width:1.0;"/><polygon fill="#181818" points="1657.15,429.53,1658.5074,436.6122,1665.5668,438.0832,1664.2095,431.001,1657.15,429.53" style="stroke:#181818;stroke-width:1.0;"/></g><g id="link_FinancialTransactionTypes_FinancialSplit"><path d="M3599.88,330.92 C3593.87,331.65 3587.9,332.34 3582.09,332.96 C3185.19,374.94 3081.53,338.9 2686.09,392.96 C2677.2,394.17 2667.83,395.79 2658.72,397.54 " fill="none" id="FinancialTransactionTypes-FinancialSplit" style="stroke:#181818;stroke-width:1.0;"/></g><g id="link_Identifier_ControlAccountReference"><path d="M1820.34,229.79 C1882.97,245.82 2002.77,276.5 2078.89,295.99 " fill="none" id="Identifier-ControlAccountReference" style="stroke:#181818;stroke-width:1.0;"/></g><g id="link_Identifier_CreditReference"><path d="M1820.4,219.83 C2073.08,223.7 3412.73,246.29 3820.09,296.47 C3825.58,297.14 3831.24,298 3836.91,298.96 " fill="none" id="Identifier-CreditReference" style="stroke:#181818;stroke-width:1.0;"/></g><g id="link_Identifier_CustomerOrderReference"><path d="M1737.64,219.7 C1496.52,222.65 283.56,240.26 230.09,296.47 C145.56,385.32 184.45,347.11 390.09,429.44 C471.02,461.85 568.28,482.01 639.22,493.57 " fill="none" id="Identifier-CustomerOrderReference" style="stroke:#181818;stroke-width:1.0;"/></g><g id="link_Identifier_DiscountReference"><path d="M1820.38,221.21 C1949.92,227.75 2359.66,250.89 2696.09,296.47 C2701.81,297.24 2707.71,298.13 2713.63,299.09 " fill="none" id="Identifier-DiscountReference" style="stroke:#181818;stroke-width:1.0;"/></g><g id="link_Identifier_FeeReference"><path d="M1820.35,219.71 C1966.08,221.96 2469.96,234.06 2880.09,296.47 C2885.5,297.29 2891.09,298.31 2896.68,299.43 " fill="none" id="Identifier-FeeReference" style="stroke:#181818;stroke-width:1.0;"/></g><g id="link_Identifier_FinancialCategoryReference"><path d="M1820.4,225.64 C1914.02,240.19 2144.74,276.05 2281.18,297.25 " fill="none" id="Identifier-FinancialCategoryReference" style="stroke:#181818;stroke-width:1.0;"/></g><g id="link_Identifier_FinancialTrackReference"><path d="M1737.62,219.91 C1577.71,222.98 1007.33,238 954.09,296.47 C891.61,365.07 734.84,289.89 1529.09,392.96 C1534.7,393.68 1540.46,394.47 1546.27,395.29 " fill="none" id="Identifier-FinancialTrackReference" style="stroke:#181818;stroke-width:1.0;"/></g><g id="link_Identifier_LenderReference"><path d="M1737.62,219.99 C1565.43,223.51 912.44,240.49 841.09,296.47 C811.44,319.73 804.72,366.95 803.33,392.62 " fill="none" id="Identifier-LenderReference" style="stroke:#181818;stroke-width:1.0;"/></g><g id="link_Identifier_PartyIdentifier"><path d="M1820.27,219.89 C2047.95,223.71 3175.87,244.59 4096.09,296.47 C4149.86,299.5 4211,304.5 4254.66,308.34 " fill="none" id="Identifier-PartyIdentifier" style="stroke:#181818;stroke-width:1.0;"/></g><g id="link_Identifier_PaymentScheduleReference"><path d="M1737.99,219.7 C1492.02,222.76 223.42,241.18 164.09,296.47 C109.91,346.95 125.53,448.2 134.64,489.03 " fill="none" id="Identifier-PaymentScheduleReference" style="stroke:#181818;stroke-width:1.0;"/></g><g id="link_Identifier_PaymentTermReference"><path d="M1737.61,219.49 C1566.21,221 919.27,231.02 859.09,296.47 C823.89,334.75 893.83,371.62 946.4,392.54 " fill="none" id="Identifier-PaymentTermReference" style="stroke:#181818;stroke-width:1.0;"/></g><g id="link_Identifier_PricePlanReference"><path d="M1820.39,226.29 C1861.63,235.46 1924.07,255.43 1961.09,296.47 C1985.72,323.77 1993.02,368.09 1995.18,392.56 " fill="none" id="Identifier-PricePlanReference" style="stroke:#181818;stroke-width:1.0;"/></g><g id="link_Identifier_RebateReference"><path d="M1820.5,219.71 C1978.18,222 2556.02,234.41 3027.09,296.47 C3032.76,297.21 3038.62,298.12 3044.49,299.12 " fill="none" id="Identifier-RebateReference" style="stroke:#181818;stroke-width:1.0;"/></g><g id="link_Identifier_RewardReference"><path d="M1820.46,219.35 C1990.99,220.3 2655.87,228.43 3197.09,296.47 C3202.74,297.18 3208.58,298.04 3214.43,299 " fill="none" id="Identifier-RewardReference" style="stroke:#181818;stroke-width:1.0;"/></g><g id="link_Identifier_SalesProfileReference"><path d="M1737.77,219.64 C1493.28,222.31 245.07,238.75 190.09,296.47 C110.48,380.04 303.85,455.78 407.6,488.97 " fill="none" id="Identifier-SalesProfileReference" style="stroke:#181818;stroke-width:1.0;"/></g><g id="link_Identifier_ShipmentReference"><path d="M1737.64,219.62 C1570.08,221.64 948.93,233.37 891.09,296.47 C880.13,308.42 880.41,320.75 891.09,332.96 C957.55,408.86 1241.45,377.18 1341.09,392.96 C1346.66,393.84 1352.41,394.79 1358.19,395.78 " fill="none" id="Identifier-ShipmentReference" style="stroke:#181818;stroke-width:1.0;"/></g><g id="link_Identifier_StaffAssignmentReference"><path d="M1737.76,219.55 C1568.47,221.31 934.12,232.18 875.09,296.47 C864.12,308.41 864.94,320.31 875.09,332.96 C890.75,352.47 1025.55,378.16 1122.68,394.44 " fill="none" id="Identifier-StaffAssignmentReference" style="stroke:#181818;stroke-width:1.0;"/></g><g id="link_Identifier_FinancialEvent"><path d="M1786.444,248.4883 C1795.584,284.8683 1813.54,356.27 1822.67,392.62 " fill="none" id="Identifier-backto-FinancialEvent" style="stroke:#181818;stroke-width:1.0;"/><polygon fill="#181818" points="1783.52,236.85,1781.1025,243.6438,1786.444,248.4883,1788.8614,241.6945,1783.52,236.85" style="stroke:#181818;stroke-width:1.0;"/></g><g id="link_Identifier_PartOrder"><path d="M1725.8526,220.2979 C1477.5526,225.4279 202.02,253.76 131.09,296.47 C45.75,347.86 43.35,393.35 17.09,489.44 C12.81,505.09 6,514.1 17.09,525.93 C57.66,569.18 967.5,596.29 1179.31,602.03 " fill="none" id="Identifier-backto-PartOrder" style="stroke:#181818;stroke-width:1.0;"/><polygon fill="#181818" points="1737.85,220.05,1731.7687,216.1748,1725.8526,220.2979,1731.9339,224.1731,1737.85,220.05" style="stroke:#181818;stroke-width:1.0;"/></g><g id="link_Identifier_PartReference"><path d="M1725.791,219.8083 C1563.611,221.9483 982.66,233.8 807.09,296.47 C747.7,317.66 689.86,366.21 661.39,392.5 " fill="none" id="Identifier-backto-PartReference" style="stroke:#181818;stroke-width:1.0;"/><polygon fill="#181818" points="1737.79,219.65,1731.7377,215.7295,1725.791,219.8083,1731.8433,223.7288,1737.79,219.65" style="stroke:#181818;stroke-width:1.0;"/></g><g id="link_Identifier_TextualDetail"><path d="M1808.4038,244.6343 C1827.9738,261.6143 1848.41,279.31 1867.95,296.25 " fill="none" id="Identifier-backto-TextualDetail" style="stroke:#181818;stroke-width:1.0;"/><polygon fill="#181818" points="1799.34,236.77,1801.2505,243.7234,1808.4038,244.6343,1806.4933,237.6809,1799.34,236.77" style="stroke:#181818;stroke-width:1.0;"/></g><g id="link_LedgerActionTypes_FinancialEvent"><path d="M2527.3,330.31 C2521.49,331.26 2515.7,332.16 2510.09,332.96 C2242.13,370.99 2171.3,349.97 1904.09,392.96 C1898.27,393.89 1892.24,395 1886.22,396.19 " fill="none" id="LedgerActionTypes-FinancialEvent" style="stroke:#181818;stroke-width:1.0;"/></g><g id="link_LedgerActionTypes_FinancialSplit"><path d="M2603.09,333.04 C2603.09,349.98 2603.09,375.64 2603.09,392.66 " fill="none" id="LedgerActionTypes-FinancialSplit" style="stroke:#181818;stroke-width:1.0;"/></g><g id="link_LenderReference_PartOrder"><path d="M874.3249,433.3955 C919.4649,447.4855 971.02,465.25 1024.09,489.44 C1088,518.58 1158.38,561.6 1195.92,585.51 " fill="none" id="LenderReference-backto-PartOrder" style="stroke:#181818;stroke-width:1.0;"/><polygon fill="#181818" points="862.87,429.82,867.4056,435.4261,874.3249,433.3955,869.7893,427.7895,862.87,429.82" style="stroke:#181818;stroke-width:1.0;"/></g><g id="link_LenderReference_PartOrderItem"><path d="M882.526,428.7035 C888.396,429.7435 882.43,428.61 888.09,429.44 C1181.6,472.5 1536.21,495.61 1674.18,503.52 " fill="none" id="LenderReference-backto-PartOrderItem" style="stroke:#181818;stroke-width:1.0;"/><polygon fill="#181818" points="870.71,426.61,875.9202,431.5954,882.526,428.7035,877.3158,423.7181,870.71,426.61" style="stroke:#181818;stroke-width:1.0;"/></g><g id="link_OrderCategoryTypes_PartOrder"><path d="M2983.84,426.73 C2977.84,427.69 2971.87,428.6 2966.09,429.44 C2292.72,527.2 1464.92,586.79 1267.05,600.25 " fill="none" id="OrderCategoryTypes-PartOrder" style="stroke:#181818;stroke-width:1.0;"/></g><g id="link_OrderCategoryTypes_PartOrderItem"><path d="M2983.62,427.12 C2977.7,427.98 2971.81,428.77 2966.09,429.44 C2516.39,482.53 1969.82,500.59 1792.01,505.29 " fill="none" id="OrderCategoryTypes-PartOrderItem" style="stroke:#181818;stroke-width:1.0;"/></g><g id="link_OrderTypes_PartOrderItem"><path d="M2093.9814,428.0825 C2088.0814,429.5425 2093.78,428.1 2088.09,429.44 C1984.18,453.92 1862.5,479.79 1791.96,494.52 " fill="none" id="OrderTypes-backto-PartOrderItem" style="stroke:#181818;stroke-width:1.0;"/><polygon fill="#181818" points="2105.63,425.2,2098.8448,422.7584,2093.9814,428.0825,2100.7665,430.5242,2105.63,425.2" style="stroke:#181818;stroke-width:1.0;"/></g><g id="link_PartInvoiceStatusTypes_PartOrder"><path d="M3180.34,427.06 C3174.84,427.89 3169.39,428.69 3164.09,429.44 C2802.92,480.45 2712.26,492 2349.09,525.93 C1928.41,565.24 1417.56,593.13 1266.89,600.95 " fill="none" id="PartInvoiceStatusTypes-PartOrder" style="stroke:#181818;stroke-width:1.0;"/></g><g id="link_PartInvoiceStatusTypes_PartOrderItem"><path d="M3180.1,427.5 C3174.69,428.22 3169.32,428.87 3164.09,429.44 C2633.55,487.15 1987.43,502.38 1791.89,505.81 " fill="none" id="PartInvoiceStatusTypes-PartOrderItem" style="stroke:#181818;stroke-width:1.0;"/></g><g id="link_PartOrderItem_PartOrder"><path d="M1662.7906,521.7152 C1559.4406,540.8552 1358.63,578.06 1266.85,595.07 " fill="none" id="PartOrderItem-backto-PartOrder" style="stroke:#181818;stroke-width:1.0;"/><polygon fill="#181818" points="1674.59,519.53,1667.9619,516.6895,1662.7906,521.7152,1669.4187,524.5557,1674.59,519.53" style="stroke:#181818;stroke-width:1.0;"/></g><g id="link_PartReference_PartOrderItem"><path d="M701.07,426.43 C706.8,427.57 712.54,428.6 718.09,429.44 C1078.66,484.3 1517.51,500.91 1674.1,505.29 " fill="none" id="PartReference-PartOrderItem" style="stroke:#181818;stroke-width:1.0;"/></g><g id="link_PartReference_PartOrder"><path d="M712.5754,428.7841 C785.8654,446.4641 896.28,473.89 940.09,489.44 C976.92,502.52 984.03,510.87 1020.09,525.93 C1074.37,548.61 1137.88,572.33 1179.21,587.41 " fill="none" id="PartReference-backto-PartOrder" style="stroke:#181818;stroke-width:1.0;"/><polygon fill="#181818" points="700.91,425.97,705.8047,431.2655,712.5754,428.7841,707.6807,423.4886,700.91,425.97" style="stroke:#181818;stroke-width:1.0;"/></g><g id="link_PartyIdentifier_PartOrder"><path d="M4242.7391,324.3396 C4095.2791,342.4096 3707.99,389.75 3375.09,429.44 C3009.4,473.05 2918.97,493.79 2552.09,525.93 C2048.16,570.08 1434.44,595.2 1267.04,601.56 " fill="none" id="PartyIdentifier-backto-PartOrder" style="stroke:#181818;stroke-width:1.0;"/><polygon fill="#181818" points="4254.65,322.88,4248.208,319.6395,4242.7391,324.3396,4249.1811,327.5801,4254.65,322.88" style="stroke:#181818;stroke-width:1.0;"/></g><g id="link_PartyRelationshipTypes_PartyIdentifier"><path d="M4295.7464,248.1516 C4300.2264,265.1016 4303.95,279.16 4308.45,296.17 " fill="none" id="PartyRelationshipTypes-backto-PartyIdentifier" style="stroke:#181818;stroke-width:1.0;"/><polygon fill="#181818" points="4292.68,236.55,4290.346,243.3729,4295.7464,248.1516,4298.0804,241.3287,4292.68,236.55" style="stroke:#181818;stroke-width:1.0;"/></g><g id="link_PaymentMethodTypes_FinancialEvent"><path d="M1334.5,330.12 C1340.45,331.09 1346.36,332.04 1352.09,332.96 C1529.2,361.09 1574.86,359.76 1751.09,392.96 C1756.54,393.98 1762.2,395.12 1767.85,396.31 " fill="none" id="PaymentMethodTypes-FinancialEvent" style="stroke:#181818;stroke-width:1.0;"/></g><g id="link_PaymentScheduleReference_PartOrder"><path d="M255.4747,518.8319 C486.4347,538.9619 1020.66,585.53 1179.22,599.35 " fill="none" id="PaymentScheduleReference-backto-PartOrder" style="stroke:#181818;stroke-width:1.0;"/><polygon fill="#181818" points="243.52,517.79,249.15,522.2959,255.4747,518.8319,249.8447,514.3261,243.52,517.79" style="stroke:#181818;stroke-width:1.0;"/></g><g id="link_PaymentTermReference_PartOrder"><path d="M1032.6048,436.6658 C1054.2748,451.8158 1076,467.72 1102.09,489.44 C1140.64,521.54 1182.68,562.55 1205.66,585.52 " fill="none" id="PaymentTermReference-backto-PartOrder" style="stroke:#181818;stroke-width:1.0;"/><polygon fill="#181818" points="1022.77,429.79,1025.3955,436.5062,1032.6048,436.6658,1029.9793,429.9496,1022.77,429.79" style="stroke:#181818;stroke-width:1.0;"/></g><g id="link_PaymentTermReference_PartOrderItem"><path d="M1100.256,428.7983 C1105.896,429.6483 1099.64,428.67 1105.09,429.44 C1313.93,458.95 1562.76,487.65 1674.12,500.15 " fill="none" id="PaymentTermReference-backto-PartOrderItem" style="stroke:#181818;stroke-width:1.0;"/><polygon fill="#181818" points="1088.39,427.01,1093.7269,431.8595,1100.256,428.7983,1094.9191,423.9488,1088.39,427.01" style="stroke:#181818;stroke-width:1.0;"/></g><g id="link_PaymentTransactionTypes_FinancialEvent"><path d="M1547.6124,336.4335 C1614.1924,354.0135 1703.79,377.66 1767.63,394.51 " fill="none" id="PaymentTransactionTypes-backto-FinancialEvent" style="stroke:#181818;stroke-width:1.0;"/><polygon fill="#181818" points="1536.01,333.37,1540.79,338.7692,1547.6124,336.4335,1542.8324,331.0343,1536.01,333.37" style="stroke:#181818;stroke-width:1.0;"/></g><g id="link_PaymentTypes_PartOrder"><path d="M3450.7991,524.042 C3441.9491,525.632 3444.71,524.92 3436.09,525.93 C2993.64,577.66 1538.67,599.04 1266.99,602.62 " fill="none" id="PaymentTypes-backto-PartOrder" style="stroke:#181818;stroke-width:1.0;"/><polygon fill="#181818" points="3462.61,521.92,3455.9972,519.044,3450.7991,524.042,3457.4119,526.9179,3462.61,521.92" style="stroke:#181818;stroke-width:1.0;"/></g><g id="link_Price_FinancialSplit"><path d="M4136.51,236.57 C4134.61,262.39 4126.87,310.34 4096.09,332.96 C3969.72,425.8 2841.7,373.61 2686.09,392.96 C2677.18,394.06 2667.81,395.62 2658.69,397.35 " fill="none" id="Price-FinancialSplit" style="stroke:#181818;stroke-width:1.0;"/></g><g id="link_Price_PartOrderItem"><path d="M4143.23,236.61 C4150.81,261.61 4159.9,307.5 4135.09,332.96 C4027.42,443.42 2897.31,353.87 2748.09,392.96 C2713.39,402.04 2710.61,419.69 2676.09,429.44 C2670.73,430.96 1997.67,485.34 1792.06,501.93 " fill="none" id="Price-PartOrderItem" style="stroke:#181818;stroke-width:1.0;"/></g><g id="link_Price_TaxSplit"><path d="M4119.3,236.55 C4101.91,253.5 4075.56,279.16 4058.1,296.17 " fill="none" id="Price-TaxSplit" style="stroke:#181818;stroke-width:1.0;"/></g><g id="link_PricePlanReference_PartOrderItem"><path d="M1935.6368,433.9177 C1888.6568,450.7977 1829.5,472.05 1782.45,488.95 " fill="none" id="PricePlanReference-backto-PartOrderItem" style="stroke:#181818;stroke-width:1.0;"/><polygon fill="#181818" points="1946.93,429.86,1939.9309,428.1244,1935.6368,433.9177,1942.636,435.6532,1946.93,429.86" style="stroke:#181818;stroke-width:1.0;"/></g><g id="link_PriceTypes_Price"><path d="M4137.09,152.06 C4137.09,169.01 4137.09,182.67 4137.09,199.68 " fill="none" id="PriceTypes-backto-Price" style="stroke:#181818;stroke-width:1.0;"/><polygon fill="#181818" points="4137.09,140.06,4133.09,146.06,4137.09,152.06,4141.09,146.06,4137.09,140.06" style="stroke:#181818;stroke-width:1.0;"/></g><g id="link_ProductPriceItemTypes_FinancialSplit"><path d="M3388.67,330.6 C3382.73,331.44 3376.83,332.24 3371.09,332.96 C3067.84,370.85 2988.44,348.46 2686.09,392.96 C2677.21,394.26 2667.85,395.93 2658.74,397.7 " fill="none" id="ProductPriceItemTypes-FinancialSplit" style="stroke:#181818;stroke-width:1.0;"/></g><g id="link_ProductTypes_PartReference"><path d="M499.9331,338.6266 C533.7731,355.5466 573.97,375.64 607.85,392.58 " fill="none" id="ProductTypes-backto-PartReference" style="stroke:#181818;stroke-width:1.0;"/><polygon fill="#181818" points="489.2,333.26,492.7777,339.521,499.9331,338.6266,496.3554,332.3656,489.2,333.26" style="stroke:#181818;stroke-width:1.0;"/></g><g id="link_RebateReference_FinancialSplit"><path d="M3032.6061,331.9285 C3026.7661,333.0785 3032.71,331.89 3027.09,332.96 C2875.89,361.59 2837.22,363.97 2686.09,392.96 C2677.27,394.65 2667.95,396.51 2658.85,398.37 " fill="none" id="RebateReference-backto-FinancialSplit" style="stroke:#181818;stroke-width:1.0;"/><polygon fill="#181818" points="3044.38,329.61,3037.7202,326.8446,3032.6061,331.9285,3039.2659,334.6939,3044.38,329.61" style="stroke:#181818;stroke-width:1.0;"/></g><g id="link_ResourceTypes_FinancialEvent"><path d="M1695.18,333.26 C1724.19,350.18 1767.84,375.64 1796.89,392.58 " fill="none" id="ResourceTypes-FinancialEvent" style="stroke:#181818;stroke-width:1.0;"/></g><g id="link_RewardReference_FinancialSplit"><path d="M3202.56,332.157 C3196.73,333.207 3202.72,332.07 3197.09,332.96 C2971.21,368.55 2911.81,356.33 2686.09,392.96 C2677.23,394.39 2667.88,396.12 2658.77,397.93 " fill="none" id="RewardReference-backto-FinancialSplit" style="stroke:#181818;stroke-width:1.0;"/><polygon fill="#181818" points="3214.37,330.03,3207.756,327.1568,3202.56,332.157,3209.174,335.0302,3214.37,330.03" style="stroke:#181818;stroke-width:1.0;"/></g><g id="link_SalesPipelineStageTypes_PartOrder"><path d="M3615.27,524.18 C3609.81,524.84 3604.38,525.43 3599.09,525.93 C3121.17,570.99 1549.9,597.94 1266.95,602.49 " fill="none" id="SalesPipelineStageTypes-PartOrder" style="stroke:#181818;stroke-width:1.0;"/></g><g id="link_SalesProfileReference_PartOrder"><path d="M563.6771,520.6502 C723.9671,540.7102 1057.32,582.43 1179.31,597.7 " fill="none" id="SalesProfileReference-backto-PartOrder" style="stroke:#181818;stroke-width:1.0;"/><polygon fill="#181818" points="551.77,519.16,557.2268,523.8741,563.6771,520.6502,558.2203,515.936,551.77,519.16" style="stroke:#181818;stroke-width:1.0;"/></g><g id="link_ShipmentReference_PartOrderItem"><path d="M1502.2288,433.4867 C1555.4688,450.3667 1623.85,472.05 1677.16,488.95 " fill="none" id="ShipmentReference-backto-PartOrderItem" style="stroke:#181818;stroke-width:1.0;"/><polygon fill="#181818" points="1490.79,429.86,1495.3005,435.4863,1502.2288,433.4867,1497.7183,427.8604,1490.79,429.86" style="stroke:#181818;stroke-width:1.0;"/></g><g id="link_StaffAssignmentReference_PartOrder"><path d="M1223.09,441.82 C1223.09,478.21 1223.09,549.25 1223.09,585.59 " fill="none" id="StaffAssignmentReference-backto-PartOrder" style="stroke:#181818;stroke-width:1.0;"/><polygon fill="#181818" points="1223.09,429.82,1219.09,435.82,1223.09,441.82,1227.09,435.82,1223.09,429.82" style="stroke:#181818;stroke-width:1.0;"/></g><g id="link_StaffAssignmentReference_PartOrderItem"><path d="M1330.5193,432.1056 C1434.9293,451.4456 1587.04,479.63 1674.12,495.76 " fill="none" id="StaffAssignmentReference-backto-PartOrderItem" style="stroke:#181818;stroke-width:1.0;"/><polygon fill="#181818" points="1318.72,429.92,1323.8911,434.9459,1330.5193,432.1056,1325.3482,427.0797,1318.72,429.92" style="stroke:#181818;stroke-width:1.0;"/></g><g id="link_TaxSplit_FinancialSplit"><path d="M3990.0682,332.317 C3984.5682,333.827 3990.51,332 3985.09,332.96 C3415.97,433.57 3259.49,320.61 2686.09,392.96 C2677.18,394.08 2667.81,395.65 2658.69,397.38 " fill="none" id="TaxSplit-backto-FinancialSplit" style="stroke:#181818;stroke-width:1.0;"/><polygon fill="#181818" points="4001.64,329.14,3994.7951,326.8712,3990.0682,332.317,3996.9131,334.5858,4001.64,329.14" style="stroke:#181818;stroke-width:1.0;"/></g><g id="link_TaxTypes_TaxSplit"><path d="M4034.37,236.55 C4035.63,253.5 4037.53,279.16 4038.79,296.17 " fill="none" id="TaxTypes-TaxSplit" style="stroke:#181818;stroke-width:1.0;"/></g><g id="link_TextualDetail_FinancialEvent"><path d="M1876.9,333.04 C1865.96,349.98 1849.4,375.64 1838.41,392.66 " fill="none" id="TextualDetail-FinancialEvent" style="stroke:#181818;stroke-width:1.0;"/></g></g></svg>