<?xml version="1.0" encoding="us-ascii" standalone="no"?><svg xmlns="http://www.w3.org/2000/svg" xmlns:xlink="http://www.w3.org/1999/xlink" contentStyleType="text/css" height="435px" preserveAspectRatio="none" style="width:2278px;height:435px;background:#FFFFFF;" version="1.1" viewBox="0 0 2278 435" width="2278px" zoomAndPan="magnify"><defs/><g><g id="elem_AddressReference"><rect fill="#F1F1F1" height="36.4883" rx="2.5" ry="2.5" style="stroke:#181818;stroke-width:0.5;" width="144" x="27.5" y="296.46"/><text fill="#000000" font-family="sans-serif" font-size="14" lengthAdjust="spacing" textLength="124" x="37.5" y="319.9952">AddressReference</text></g><g id="elem_EffectivePeriod"><rect fill="#F1F1F1" height="36.4883" rx="2.5" ry="2.5" style="stroke:#181818;stroke-width:0.5;" width="121" x="135" y="103.49"/><text fill="#000000" font-family="sans-serif" font-size="14" lengthAdjust="spacing" textLength="101" x="145" y="127.0252">EffectivePeriod</text></g><g id="elem_FinancialTrackReference"><rect fill="#F1F1F1" height="36.4883" rx="2.5" ry="2.5" style="stroke:#181818;stroke-width:0.5;" width="187" x="843" y="199.98"/><text fill="#000000" font-family="sans-serif" font-size="14" lengthAdjust="spacing" textLength="167" x="853" y="223.5152">FinancialTrackReference</text></g><g id="elem_Identifier"><rect fill="#F1F1F1" height="36.4883" rx="2.5" ry="2.5" style="stroke:#181818;stroke-width:0.5;" width="82" x="1194.5" y="103.49"/><text fill="#000000" font-family="sans-serif" font-size="14" lengthAdjust="spacing" textLength="62" x="1204.5" y="127.0252">Identifier</text></g><g id="elem_LifecycleEvent"><rect fill="#F1F1F1" height="36.4883" rx="2.5" ry="2.5" style="stroke:#181818;stroke-width:0.5;" width="114" x="258.5" y="199.98"/><text fill="#000000" font-family="sans-serif" font-size="14" lengthAdjust="spacing" textLength="94" x="268.5" y="223.5152">LifecycleEvent</text></g><g id="elem_PartReference"><rect fill="#F1F1F1" height="36.4883" rx="2.5" ry="2.5" style="stroke:#181818;stroke-width:0.5;" width="115" x="693" y="199.98"/><text fill="#000000" font-family="sans-serif" font-size="14" lengthAdjust="spacing" textLength="95" x="703" y="223.5152">PartReference</text></g><g id="elem_PartyIdentifier"><rect fill="#F1F1F1" height="36.4883" rx="2.5" ry="2.5" style="stroke:#181818;stroke-width:0.5;" width="116" x="407.5" y="199.98"/><text fill="#000000" font-family="sans-serif" font-size="14" lengthAdjust="spacing" textLength="96" x="417.5" y="223.5152">PartyIdentifier</text></g><g id="elem_Position"><rect fill="#F1F1F1" height="36.4883" rx="2.5" ry="2.5" style="stroke:#181818;stroke-width:0.5;" width="75" x="2003" y="199.98"/><text fill="#000000" font-family="sans-serif" font-size="14" lengthAdjust="spacing" textLength="55" x="2013" y="223.5152">Position</text></g><g id="elem_Price"><rect fill="#F1F1F1" height="36.4883" rx="2.5" ry="2.5" style="stroke:#181818;stroke-width:0.5;" width="53" x="170" y="199.98"/><text fill="#000000" font-family="sans-serif" font-size="14" lengthAdjust="spacing" textLength="33" x="180" y="223.5152">Price</text></g><g id="elem_PurchaseOrderReference"><rect fill="#F1F1F1" height="36.4883" rx="2.5" ry="2.5" style="stroke:#181818;stroke-width:0.5;" width="190" x="1830.5" y="296.46"/><text fill="#000000" font-family="sans-serif" font-size="14" lengthAdjust="spacing" textLength="170" x="1840.5" y="319.9952">PurchaseOrderReference</text></g><g id="elem_Receipt"><rect fill="#F1F1F1" height="36.4883" rx="2.5" ry="2.5" style="stroke:#181818;stroke-width:0.5;" width="70" x="1200.5" y="392.95"/><text fill="#000000" font-family="sans-serif" font-size="14" lengthAdjust="spacing" textLength="50" x="1210.5" y="416.4852">Receipt</text></g><g id="elem_ReceiptLineItem"><rect fill="#F1F1F1" height="36.4883" rx="2.5" ry="2.5" style="stroke:#181818;stroke-width:0.5;" width="128" x="779.5" y="296.46"/><text fill="#000000" font-family="sans-serif" font-size="14" lengthAdjust="spacing" textLength="108" x="789.5" y="319.9952">ReceiptLineItem</text></g><g id="elem_ShipmentEvent"><rect fill="#F1F1F1" height="36.4883" rx="2.5" ry="2.5" style="stroke:#181818;stroke-width:0.5;" width="122" x="2055.5" y="296.46"/><text fill="#000000" font-family="sans-serif" font-size="14" lengthAdjust="spacing" textLength="102" x="2065.5" y="319.9952">ShipmentEvent</text></g><g id="elem_ShipmentReference"><rect fill="#F1F1F1" height="36.4883" rx="2.5" ry="2.5" style="stroke:#181818;stroke-width:0.5;" width="153" x="1443" y="296.46"/><text fill="#000000" font-family="sans-serif" font-size="14" lengthAdjust="spacing" textLength="133" x="1453" y="319.9952">ShipmentReference</text></g><g id="elem_StaffAssignmentReference"><rect fill="#F1F1F1" height="36.4883" rx="2.5" ry="2.5" style="stroke:#181818;stroke-width:0.5;" width="200" x="1135.5" y="199.98"/><text fill="#000000" font-family="sans-serif" font-size="14" lengthAdjust="spacing" textLength="180" x="1145.5" y="223.5152">StaffAssignmentReference</text></g><g id="elem_WarehouseReference"><rect fill="#F1F1F1" height="36.4883" rx="2.5" ry="2.5" style="stroke:#181818;stroke-width:0.5;" width="164" x="1631.5" y="296.46"/><text fill="#000000" font-family="sans-serif" font-size="14" lengthAdjust="spacing" textLength="144" x="1641.5" y="319.9952">WarehouseReference</text></g><g id="elem_AddressTypes"><rect fill="#FAFF91" height="36.4883" rx="2.5" ry="2.5" style="stroke:#181818;stroke-width:0.5;" width="116" x="19.5" y="199.98"/><text fill="#000000" font-family="sans-serif" font-size="14" lengthAdjust="spacing" textLength="96" x="29.5" y="223.5152">AddressTypes</text></g><g id="elem_DurationUOMTypes"><rect fill="#FAFF91" height="36.4883" rx="2.5" ry="2.5" style="stroke:#181818;stroke-width:0.5;" width="153" x="119" y="7"/><text fill="#000000" font-family="sans-serif" font-size="14" lengthAdjust="spacing" textLength="133" x="129" y="30.5352">DurationUOMTypes</text></g><g id="elem_LifecycleEventTypes"><rect fill="#FAFF91" height="36.4883" rx="2.5" ry="2.5" style="stroke:#181818;stroke-width:0.5;" width="154" x="291.5" y="103.49"/><text fill="#000000" font-family="sans-serif" font-size="14" lengthAdjust="spacing" textLength="134" x="301.5" y="127.0252">LifecycleEventTypes</text></g><g id="elem_OrderTypes"><rect fill="#FAFF91" height="36.4883" rx="2.5" ry="2.5" style="stroke:#181818;stroke-width:0.5;" width="100" x="558.5" y="199.98"/><text fill="#000000" font-family="sans-serif" font-size="14" lengthAdjust="spacing" textLength="80" x="568.5" y="223.5152">OrderTypes</text></g><g id="elem_PartyRelationshipTypes"><rect fill="#FAFF91" height="36.4883" rx="2.5" ry="2.5" style="stroke:#181818;stroke-width:0.5;" width="179" x="481" y="103.49"/><text fill="#000000" font-family="sans-serif" font-size="14" lengthAdjust="spacing" textLength="159" x="491" y="127.0252">PartyRelationshipTypes</text></g><g id="elem_PriceTypes"><rect fill="#FAFF91" height="36.4883" rx="2.5" ry="2.5" style="stroke:#181818;stroke-width:0.5;" width="93" x="7" y="103.49"/><text fill="#000000" font-family="sans-serif" font-size="14" lengthAdjust="spacing" textLength="73" x="17" y="127.0252">PriceTypes</text></g><g id="elem_ProductTypes"><rect fill="#FAFF91" height="36.4883" rx="2.5" ry="2.5" style="stroke:#181818;stroke-width:0.5;" width="113" x="695" y="103.49"/><text fill="#000000" font-family="sans-serif" font-size="14" lengthAdjust="spacing" textLength="93" x="705" y="127.0252">ProductTypes</text></g><g id="elem_ReceiptStatusTypes"><rect fill="#FAFF91" height="36.4883" rx="2.5" ry="2.5" style="stroke:#181818;stroke-width:0.5;" width="152" x="1370.5" y="199.98"/><text fill="#000000" font-family="sans-serif" font-size="14" lengthAdjust="spacing" textLength="132" x="1380.5" y="223.5152">ReceiptStatusTypes</text></g><g id="elem_ShipmentStateTypes"><rect fill="#FAFF91" height="36.4883" rx="2.5" ry="2.5" style="stroke:#181818;stroke-width:0.5;" width="159" x="2113" y="199.98"/><text fill="#000000" font-family="sans-serif" font-size="14" lengthAdjust="spacing" textLength="139" x="2123" y="223.5152">ShipmentStateTypes</text></g><g id="link_AddressReference_Receipt"><path d="M171.86,321.73 C390.8,339.94 1040.94,394.01 1200.06,407.25 " fill="none" id="AddressReference-Receipt" style="stroke:#181818;stroke-width:1.0;"/></g><g id="link_AddressTypes_AddressReference"><path d="M84.2585,248.238 C88.1985,265.178 91.45,279.15 95.42,296.17 " fill="none" id="AddressTypes-backto-AddressReference" style="stroke:#181818;stroke-width:1.0;"/><polygon fill="#181818" points="81.54,236.55,79.0032,243.3002,84.2585,248.238,86.7952,241.4879,81.54,236.55" style="stroke:#181818;stroke-width:1.0;"/></g><g id="link_DurationUOMTypes_EffectivePeriod"><path d="M195.5,43.57 C195.5,60.52 195.5,86.18 195.5,103.19 " fill="none" id="DurationUOMTypes-EffectivePeriod" style="stroke:#181818;stroke-width:1.0;"/></g><g id="link_EffectivePeriod_PartyIdentifier"><path d="M245.97,140.39 C294.2,157.27 366.52,182.58 414.82,199.48 " fill="none" id="EffectivePeriod-PartyIdentifier" style="stroke:#181818;stroke-width:1.0;"/></g><g id="link_EffectivePeriod_Price"><path d="M195.68,140.06 C195.86,157 196.13,182.66 196.31,199.68 " fill="none" id="EffectivePeriod-Price" style="stroke:#181818;stroke-width:1.0;"/></g><g id="link_FinancialTrackReference_ReceiptLineItem"><path d="M911.0232,245.1032 C894.3532,262.0432 877.51,279.15 860.76,296.17 " fill="none" id="FinancialTrackReference-backto-ReceiptLineItem" style="stroke:#181818;stroke-width:1.0;"/><polygon fill="#181818" points="919.44,236.55,912.3805,238.021,911.0232,245.1032,918.0826,243.6322,919.44,236.55" style="stroke:#181818;stroke-width:1.0;"/></g><g id="link_Identifier_FinancialTrackReference"><path d="M1194.24,135.77 C1141.85,152.32 1051.25,180.96 992.61,199.49 " fill="none" id="Identifier-FinancialTrackReference" style="stroke:#181818;stroke-width:1.0;"/></g><g id="link_Identifier_PartyIdentifier"><path d="M1194.14,125.65 C1086.11,133.65 786.76,158.12 540.5,199.98 C535.1,200.89 529.51,201.96 523.92,203.1 " fill="none" id="Identifier-PartyIdentifier" style="stroke:#181818;stroke-width:1.0;"/></g><g id="link_Identifier_PurchaseOrderReference"><path d="M1276.75,126.41 C1355.79,134.24 1533.41,155.57 1676.5,199.98 C1757.97,225.26 1847.61,271 1893.91,296.08 " fill="none" id="Identifier-PurchaseOrderReference" style="stroke:#181818;stroke-width:1.0;"/></g><g id="link_Identifier_ShipmentReference"><path d="M1276.78,125.12 C1363.71,131.09 1560.95,149.98 1601.5,199.98 C1628.1,232.78 1580.98,273.36 1547.85,296.11 " fill="none" id="Identifier-ShipmentReference" style="stroke:#181818;stroke-width:1.0;"/></g><g id="link_Identifier_StaffAssignmentReference"><path d="M1235.5,140.06 C1235.5,157 1235.5,182.66 1235.5,199.68 " fill="none" id="Identifier-StaffAssignmentReference" style="stroke:#181818;stroke-width:1.0;"/></g><g id="link_Identifier_WarehouseReference"><path d="M1276.92,126.93 C1366.07,136.57 1572.8,162.4 1631.5,199.98 C1668.61,223.73 1694.23,270.75 1706.06,296.26 " fill="none" id="Identifier-WarehouseReference" style="stroke:#181818;stroke-width:1.0;"/></g><g id="link_Identifier_PartReference"><path d="M1182.2529,132.0572 C1108.1429,145.1472 959.86,171.88 825.5,199.98 C819.88,201.15 814.03,202.42 808.18,203.71 " fill="none" id="Identifier-backto-PartReference" style="stroke:#181818;stroke-width:1.0;"/><polygon fill="#181818" points="1194.07,129.97,1187.4657,127.0746,1182.2529,132.0572,1188.8572,134.9526,1194.07,129.97" style="stroke:#181818;stroke-width:1.0;"/></g><g id="link_Identifier_Receipt"><path d="M1288.8987,128.4545 C1364.3687,137.2845 1507.41,158.71 1539.5,199.98 C1549.46,212.78 1547.88,222.58 1539.5,236.46 C1509.91,285.48 1475.1,267.86 1425.5,296.46 C1399.12,311.68 1393.53,317.15 1367.5,332.95 C1333.11,353.82 1293.2,377.04 1266.34,392.52 " fill="none" id="Identifier-backto-Receipt" style="stroke:#181818;stroke-width:1.0;"/><polygon fill="#181818" points="1276.98,127.06,1282.4745,131.7301,1288.8987,128.4545,1283.4042,123.7843,1276.98,127.06" style="stroke:#181818;stroke-width:1.0;"/></g><g id="link_Identifier_ReceiptLineItem"><path d="M1199.9197,146.9927 C1164.4997,170.7927 1108.04,207 1047.5,236.46 C998.47,260.33 940.05,281.79 898.32,295.99 " fill="none" id="Identifier-backto-ReceiptLineItem" style="stroke:#181818;stroke-width:1.0;"/><polygon fill="#181818" points="1209.88,140.3,1202.6689,140.3262,1199.9197,146.9927,1207.1307,146.9665,1209.88,140.3" style="stroke:#181818;stroke-width:1.0;"/></g><g id="link_LifecycleEventTypes_LifecycleEvent"><path d="M358.78,140.06 C349.28,157 334.88,182.66 325.34,199.68 " fill="none" id="LifecycleEventTypes-LifecycleEvent" style="stroke:#181818;stroke-width:1.0;"/></g><g id="link_LifecycleEvent_Receipt"><path d="M369.0475,241.4569 C431.0975,266.6669 539.62,308.04 645.5,332.95 C852.4,381.62 1107.84,401.95 1200.14,408.06 " fill="none" id="LifecycleEvent-backto-Receipt" style="stroke:#181818;stroke-width:1.0;"/><polygon fill="#181818" points="357.93,236.94,361.9831,242.9043,369.0475,241.4569,364.9944,235.4926,357.93,236.94" style="stroke:#181818;stroke-width:1.0;"/></g><g id="link_LifecycleEvent_ReceiptLineItem"><path d="M384.4861,235.2892 C390.4661,236.5892 384.74,235.31 390.5,236.46 C528.38,264.05 691.13,290.26 779.15,303.92 " fill="none" id="LifecycleEvent-backto-ReceiptLineItem" style="stroke:#181818;stroke-width:1.0;"/><polygon fill="#181818" points="372.76,232.74,377.7733,237.9233,384.4861,235.2892,379.4728,230.1059,372.76,232.74" style="stroke:#181818;stroke-width:1.0;"/></g><g id="link_OrderTypes_ReceiptLineItem"><path d="M663.5637,241.3568 C705.5437,258.2368 757.35,279.07 799.39,295.97 " fill="none" id="OrderTypes-backto-ReceiptLineItem" style="stroke:#181818;stroke-width:1.0;"/><polygon fill="#181818" points="652.43,236.88,656.5046,242.8296,663.5637,241.3568,659.4891,235.4072,652.43,236.88" style="stroke:#181818;stroke-width:1.0;"/></g><g id="link_PartReference_ReceiptLineItem"><path d="M775.9768,245.1032 C792.6468,262.0432 809.49,279.15 826.24,296.17 " fill="none" id="PartReference-backto-ReceiptLineItem" style="stroke:#181818;stroke-width:1.0;"/><polygon fill="#181818" points="767.56,236.55,768.9174,243.6322,775.9768,245.1032,774.6195,238.021,767.56,236.55" style="stroke:#181818;stroke-width:1.0;"/></g><g id="link_PartyIdentifier_Receipt"><path d="M492.39,236.91 C542.06,261.87 648.88,307.22 744,332.95 C910.6,378.02 1117.69,400.71 1200.11,407.74 " fill="none" id="PartyIdentifier-Receipt" style="stroke:#181818;stroke-width:1.0;"/></g><g id="link_PartyIdentifier_Receipt"><path d="M526.5524,241.4146 C588.1824,266.3746 683.88,307.22 779,332.95 C933.33,374.7 1122.4,397.24 1200.23,405.93 " fill="none" id="PartyIdentifier-backto-Receipt" style="stroke:#181818;stroke-width:1.0;"/><polygon fill="#181818" points="515.43,236.91,519.4897,242.8698,526.5524,241.4146,522.4927,235.4548,515.43,236.91" style="stroke:#181818;stroke-width:1.0;"/></g><g id="link_PartyIdentifier_ReceiptLineItem"><path d="M523.98,236.44 C593.24,254.72 707.66,283.25 779.31,300.05 " fill="none" id="PartyIdentifier-ReceiptLineItem" style="stroke:#181818;stroke-width:1.0;"/></g><g id="link_PartyIdentifier_ReceiptLineItem"><path d="M535.3872,234.202 C605.8872,250.622 711.74,277.17 783.16,296 " fill="none" id="PartyIdentifier-backto-ReceiptLineItem" style="stroke:#181818;stroke-width:1.0;"/><polygon fill="#181818" points="523.7,231.48,528.6363,236.7368,535.3872,234.202,530.4509,228.9453,523.7,231.48" style="stroke:#181818;stroke-width:1.0;"/></g><g id="link_PartyRelationshipTypes_PartyIdentifier"><path d="M542.3188,148.0857 C523.4888,165.0257 503.9,182.66 484.99,199.68 " fill="none" id="PartyRelationshipTypes-backto-PartyIdentifier" style="stroke:#181818;stroke-width:1.0;"/><polygon fill="#181818" points="551.24,140.06,544.1042,141.0991,542.3188,148.0857,549.4547,147.0466,551.24,140.06" style="stroke:#181818;stroke-width:1.0;"/></g><g id="link_Position_ShipmentEvent"><path d="M2054.44,236.55 C2068.07,253.49 2088.71,279.15 2102.39,296.17 " fill="none" id="Position-ShipmentEvent" style="stroke:#181818;stroke-width:1.0;"/></g><g id="link_Price_Receipt"><path d="M223.33,231.2 C277.65,254.88 405.03,307.6 517.5,332.95 C775.25,391.06 1095.23,405.85 1200.29,409.26 " fill="none" id="Price-Receipt" style="stroke:#181818;stroke-width:1.0;"/></g><g id="link_PriceTypes_Price"><path d="M90.0727,146.8941 C115.7627,163.8641 144.44,182.82 170.08,199.76 " fill="none" id="PriceTypes-backto-Price" style="stroke:#181818;stroke-width:1.0;"/><polygon fill="#181818" points="80.06,140.28,82.8617,146.9246,90.0727,146.8941,87.271,140.2495,80.06,140.28" style="stroke:#181818;stroke-width:1.0;"/></g><g id="link_ProductTypes_PartReference"><path d="M751.1925,152.0593 C751.0125,168.9993 750.87,182.66 750.69,199.68 " fill="none" id="ProductTypes-backto-PartReference" style="stroke:#181818;stroke-width:1.0;"/><polygon fill="#181818" points="751.32,140.06,747.2565,146.0172,751.1925,152.0593,755.256,146.1022,751.32,140.06" style="stroke:#181818;stroke-width:1.0;"/></g><g id="link_PurchaseOrderReference_Receipt"><path d="M1830.2,330.51 C1824.55,331.35 1818.95,332.17 1813.5,332.95 C1608.07,362.49 1361.01,394.25 1270.72,405.74 " fill="none" id="PurchaseOrderReference-Receipt" style="stroke:#181818;stroke-width:1.0;"/></g><g id="link_ReceiptLineItem_Receipt"><path d="M919.4556,334.013 C1002.9756,354.153 1134.2,385.78 1200.19,401.69 " fill="none" id="ReceiptLineItem-backto-Receipt" style="stroke:#181818;stroke-width:1.0;"/><polygon fill="#181818" points="907.79,331.2,912.6851,336.4951,919.4556,334.013,914.5605,328.718,907.79,331.2" style="stroke:#181818;stroke-width:1.0;"/></g><g id="link_ReceiptStatusTypes_Receipt"><path d="M1427.03,236.84 C1386.83,273.23 1295.08,356.27 1254.93,392.61 " fill="none" id="ReceiptStatusTypes-Receipt" style="stroke:#181818;stroke-width:1.0;"/></g><g id="link_ReceiptStatusTypes_ReceiptLineItem"><path d="M1370.15,233.58 C1364.52,234.58 1358.92,235.55 1353.5,236.46 C1193.44,263.42 1004.38,290.92 907.61,304.69 " fill="none" id="ReceiptStatusTypes-ReceiptLineItem" style="stroke:#181818;stroke-width:1.0;"/></g><g id="link_ShipmentEvent_Receipt"><path d="M2043.5396,332.2554 C2037.8696,333.3554 2043.98,332.09 2038.5,332.95 C1743.84,379.52 1383.62,402.07 1270.92,408.33 " fill="none" id="ShipmentEvent-backto-Receipt" style="stroke:#181818;stroke-width:1.0;"/><polygon fill="#181818" points="2055.32,329.97,2048.668,327.1859,2043.5396,332.2554,2050.1916,335.0395,2055.32,329.97" style="stroke:#181818;stroke-width:1.0;"/></g><g id="link_ShipmentReference_Receipt"><path d="M1455.0234,337.1576 C1397.8734,356.1676 1319.95,382.1 1270.83,398.44 " fill="none" id="ShipmentReference-backto-Receipt" style="stroke:#181818;stroke-width:1.0;"/><polygon fill="#181818" points="1466.41,333.37,1459.4542,331.4683,1455.0234,337.1576,1461.9792,339.0593,1466.41,333.37" style="stroke:#181818;stroke-width:1.0;"/></g><g id="link_ShipmentStateTypes_ShipmentEvent"><path d="M2171.0374,245.8994 C2157.4074,262.8394 2144.29,279.15 2130.61,296.17 " fill="none" id="ShipmentStateTypes-backto-ShipmentEvent" style="stroke:#181818;stroke-width:1.0;"/><polygon fill="#181818" points="2178.56,236.55,2171.6823,238.7172,2171.0374,245.8994,2177.9152,243.7322,2178.56,236.55" style="stroke:#181818;stroke-width:1.0;"/></g><g id="link_StaffAssignmentReference_Receipt"><path d="M1235.5,236.84 C1235.5,273.23 1235.5,356.27 1235.5,392.61 " fill="none" id="StaffAssignmentReference-Receipt" style="stroke:#181818;stroke-width:1.0;"/></g><g id="link_StaffAssignmentReference_ReceiptLineItem"><path d="M1162.23,236.88 C1089.1,254.51 977.83,281.33 907.97,298.17 " fill="none" id="StaffAssignmentReference-ReceiptLineItem" style="stroke:#181818;stroke-width:1.0;"/></g><g id="link_WarehouseReference_Receipt"><path d="M1631.06,332 C1525.3,352.91 1346.51,388.25 1270.93,403.19 " fill="none" id="WarehouseReference-Receipt" style="stroke:#181818;stroke-width:1.0;"/></g></g></svg>